<?xml version="1.0" encoding="utf-8" standalone="no"?>
<!DOCTYPE svg PUBLIC "-//W3C//DTD SVG 1.1//EN"
  "http://www.w3.org/Graphics/SVG/1.1/DTD/svg11.dtd">
<svg xmlns:xlink="http://www.w3.org/1999/xlink" width="408.123125pt" height="297.190125pt" viewBox="0 0 408.123125 297.190125" xmlns="http://www.w3.org/2000/svg" version="1.1">
 <metadata>
  <rdf:RDF xmlns:dc="http://purl.org/dc/elements/1.1/" xmlns:cc="http://creativecommons.org/ns#" xmlns:rdf="http://www.w3.org/1999/02/22-rdf-syntax-ns#">
   <cc:Work>
    <dc:type rdf:resource="http://purl.org/dc/dcmitype/StillImage"/>
    <dc:date>2023-08-29T11:09:12.235009</dc:date>
    <dc:format>image/svg+xml</dc:format>
    <dc:creator>
     <cc:Agent>
      <dc:title>Matplotlib v3.7.1, https://matplotlib.org/</dc:title>
     </cc:Agent>
    </dc:creator>
   </cc:Work>
  </rdf:RDF>
 </metadata>
 <defs>
  <style type="text/css">*{stroke-linejoin: round; stroke-linecap: butt}</style>
 </defs>
 <g id="figure_1">
  <g id="patch_1">
   <path d="M 0 297.190125 
L 408.123125 297.190125 
L 408.123125 0 
L 0 0 
z
" style="fill: #ffffff"/>
  </g>
  <g id="axes_1">
   <g id="patch_2">
    <path d="M 43.803125 273.312 
L 400.923125 273.312 
L 400.923125 7.2 
L 43.803125 7.2 
z
" style="fill: #ffffff"/>
   </g>
   <g id="matplotlib.axis_1">
    <g id="xtick_1">
     <g id="line2d_1">
      <path d="M 60.035852 273.312 
L 60.035852 7.2 
" clip-path="url(#p4e3cacf22c)" style="fill: none; stroke: #b0b0b0; stroke-width: 0.8; stroke-linecap: square"/>
     </g>
     <g id="line2d_2">
      <defs>
       <path id="m1b49036e65" d="M 0 0 
L 0 3.5 
" style="stroke: #000000; stroke-width: 0.8"/>
      </defs>
      <g>
       <use xlink:href="#m1b49036e65" x="60.035852" y="273.312" style="stroke: #000000; stroke-width: 0.8"/>
      </g>
     </g>
     <g id="text_1">
      <!-- $\Gamma$ -->
      <g transform="translate(57.235852 287.910437) scale(0.1 -0.1)">
       <defs>
        <path id="DejaVuSans-393" d="M 628 0 
L 628 4666 
L 3531 4666 
L 3531 4134 
L 1259 4134 
L 1259 0 
L 628 0 
z
" transform="scale(0.015625)"/>
       </defs>
       <use xlink:href="#DejaVuSans-393" transform="translate(0 0.09375)"/>
      </g>
     </g>
    </g>
    <g id="xtick_2">
     <g id="line2d_3">
      <path d="M 155.124967 273.312 
L 155.124967 7.2 
" clip-path="url(#p4e3cacf22c)" style="fill: none; stroke: #b0b0b0; stroke-width: 0.8; stroke-linecap: square"/>
     </g>
     <g id="line2d_4">
      <g>
       <use xlink:href="#m1b49036e65" x="155.124967" y="273.312" style="stroke: #000000; stroke-width: 0.8"/>
      </g>
     </g>
     <g id="text_2">
      <!-- $X$ -->
      <g transform="translate(151.674967 287.910437) scale(0.1 -0.1)">
       <defs>
        <path id="DejaVuSans-Oblique-58" d="M 878 4666 
L 1516 4666 
L 2316 2981 
L 3763 4666 
L 4500 4666 
L 2578 2438 
L 3738 0 
L 3103 0 
L 2163 1966 
L 459 0 
L -275 0 
L 1906 2509 
L 878 4666 
z
" transform="scale(0.015625)"/>
       </defs>
       <use xlink:href="#DejaVuSans-Oblique-58" transform="translate(0 0.09375)"/>
      </g>
     </g>
    </g>
    <g id="xtick_3">
     <g id="line2d_5">
      <path d="M 250.214082 273.312 
L 250.214082 7.2 
" clip-path="url(#p4e3cacf22c)" style="fill: none; stroke: #b0b0b0; stroke-width: 0.8; stroke-linecap: square"/>
     </g>
     <g id="line2d_6">
      <g>
       <use xlink:href="#m1b49036e65" x="250.214082" y="273.312" style="stroke: #000000; stroke-width: 0.8"/>
      </g>
     </g>
     <g id="text_3">
      <!-- $M$ -->
      <g transform="translate(245.864082 287.910437) scale(0.1 -0.1)">
       <defs>
        <path id="DejaVuSans-Oblique-4d" d="M 1081 4666 
L 2028 4666 
L 2572 1522 
L 4378 4666 
L 5350 4666 
L 4441 0 
L 3828 0 
L 4622 4091 
L 2791 897 
L 2175 897 
L 1581 4103 
L 788 0 
L 172 0 
L 1081 4666 
z
" transform="scale(0.015625)"/>
       </defs>
       <use xlink:href="#DejaVuSans-Oblique-4d" transform="translate(0 0.09375)"/>
      </g>
     </g>
    </g>
    <g id="xtick_4">
     <g id="line2d_7">
      <path d="M 384.690398 273.312 
L 384.690398 7.2 
" clip-path="url(#p4e3cacf22c)" style="fill: none; stroke: #b0b0b0; stroke-width: 0.8; stroke-linecap: square"/>
     </g>
     <g id="line2d_8">
      <g>
       <use xlink:href="#m1b49036e65" x="384.690398" y="273.312" style="stroke: #000000; stroke-width: 0.8"/>
      </g>
     </g>
     <g id="text_4">
      <!-- $\Gamma$ -->
      <g transform="translate(381.890398 287.910437) scale(0.1 -0.1)">
       <use xlink:href="#DejaVuSans-393" transform="translate(0 0.09375)"/>
      </g>
     </g>
    </g>
   </g>
   <g id="matplotlib.axis_2">
    <g id="ytick_1">
     <g id="line2d_9">
      <path d="M 43.803125 247.246566 
L 400.923125 247.246566 
" clip-path="url(#p4e3cacf22c)" style="fill: none; stroke: #b0b0b0; stroke-width: 0.8; stroke-linecap: square"/>
     </g>
     <g id="line2d_10">
      <defs>
       <path id="m535ebfb797" d="M 0 0 
L -3.5 0 
" style="stroke: #000000; stroke-width: 0.8"/>
      </defs>
      <g>
       <use xlink:href="#m535ebfb797" x="43.803125" y="247.246566" style="stroke: #000000; stroke-width: 0.8"/>
      </g>
     </g>
     <g id="text_5">
      <!-- 0.5 -->
      <g transform="translate(20.9 251.045785) scale(0.1 -0.1)">
       <defs>
        <path id="DejaVuSans-30" d="M 2034 4250 
Q 1547 4250 1301 3770 
Q 1056 3291 1056 2328 
Q 1056 1369 1301 889 
Q 1547 409 2034 409 
Q 2525 409 2770 889 
Q 3016 1369 3016 2328 
Q 3016 3291 2770 3770 
Q 2525 4250 2034 4250 
z
M 2034 4750 
Q 2819 4750 3233 4129 
Q 3647 3509 3647 2328 
Q 3647 1150 3233 529 
Q 2819 -91 2034 -91 
Q 1250 -91 836 529 
Q 422 1150 422 2328 
Q 422 3509 836 4129 
Q 1250 4750 2034 4750 
z
" transform="scale(0.015625)"/>
        <path id="DejaVuSans-2e" d="M 684 794 
L 1344 794 
L 1344 0 
L 684 0 
L 684 794 
z
" transform="scale(0.015625)"/>
        <path id="DejaVuSans-35" d="M 691 4666 
L 3169 4666 
L 3169 4134 
L 1269 4134 
L 1269 2991 
Q 1406 3038 1543 3061 
Q 1681 3084 1819 3084 
Q 2600 3084 3056 2656 
Q 3513 2228 3513 1497 
Q 3513 744 3044 326 
Q 2575 -91 1722 -91 
Q 1428 -91 1123 -41 
Q 819 9 494 109 
L 494 744 
Q 775 591 1075 516 
Q 1375 441 1709 441 
Q 2250 441 2565 725 
Q 2881 1009 2881 1497 
Q 2881 1984 2565 2268 
Q 2250 2553 1709 2553 
Q 1456 2553 1204 2497 
Q 953 2441 691 2322 
L 691 4666 
z
" transform="scale(0.015625)"/>
       </defs>
       <use xlink:href="#DejaVuSans-30"/>
       <use xlink:href="#DejaVuSans-2e" x="63.623047"/>
       <use xlink:href="#DejaVuSans-35" x="95.410156"/>
      </g>
     </g>
    </g>
    <g id="ytick_2">
     <g id="line2d_11">
      <path d="M 43.803125 192.12526 
L 400.923125 192.12526 
" clip-path="url(#p4e3cacf22c)" style="fill: none; stroke: #b0b0b0; stroke-width: 0.8; stroke-linecap: square"/>
     </g>
     <g id="line2d_12">
      <g>
       <use xlink:href="#m535ebfb797" x="43.803125" y="192.12526" style="stroke: #000000; stroke-width: 0.8"/>
      </g>
     </g>
     <g id="text_6">
      <!-- 1.0 -->
      <g transform="translate(20.9 195.924479) scale(0.1 -0.1)">
       <defs>
        <path id="DejaVuSans-31" d="M 794 531 
L 1825 531 
L 1825 4091 
L 703 3866 
L 703 4441 
L 1819 4666 
L 2450 4666 
L 2450 531 
L 3481 531 
L 3481 0 
L 794 0 
L 794 531 
z
" transform="scale(0.015625)"/>
       </defs>
       <use xlink:href="#DejaVuSans-31"/>
       <use xlink:href="#DejaVuSans-2e" x="63.623047"/>
       <use xlink:href="#DejaVuSans-30" x="95.410156"/>
      </g>
     </g>
    </g>
    <g id="ytick_3">
     <g id="line2d_13">
      <path d="M 43.803125 137.003954 
L 400.923125 137.003954 
" clip-path="url(#p4e3cacf22c)" style="fill: none; stroke: #b0b0b0; stroke-width: 0.8; stroke-linecap: square"/>
     </g>
     <g id="line2d_14">
      <g>
       <use xlink:href="#m535ebfb797" x="43.803125" y="137.003954" style="stroke: #000000; stroke-width: 0.8"/>
      </g>
     </g>
     <g id="text_7">
      <!-- 1.5 -->
      <g transform="translate(20.9 140.803173) scale(0.1 -0.1)">
       <use xlink:href="#DejaVuSans-31"/>
       <use xlink:href="#DejaVuSans-2e" x="63.623047"/>
       <use xlink:href="#DejaVuSans-35" x="95.410156"/>
      </g>
     </g>
    </g>
    <g id="ytick_4">
     <g id="line2d_15">
      <path d="M 43.803125 81.882649 
L 400.923125 81.882649 
" clip-path="url(#p4e3cacf22c)" style="fill: none; stroke: #b0b0b0; stroke-width: 0.8; stroke-linecap: square"/>
     </g>
     <g id="line2d_16">
      <g>
       <use xlink:href="#m535ebfb797" x="43.803125" y="81.882649" style="stroke: #000000; stroke-width: 0.8"/>
      </g>
     </g>
     <g id="text_8">
      <!-- 2.0 -->
      <g transform="translate(20.9 85.681867) scale(0.1 -0.1)">
       <defs>
        <path id="DejaVuSans-32" d="M 1228 531 
L 3431 531 
L 3431 0 
L 469 0 
L 469 531 
Q 828 903 1448 1529 
Q 2069 2156 2228 2338 
Q 2531 2678 2651 2914 
Q 2772 3150 2772 3378 
Q 2772 3750 2511 3984 
Q 2250 4219 1831 4219 
Q 1534 4219 1204 4116 
Q 875 4013 500 3803 
L 500 4441 
Q 881 4594 1212 4672 
Q 1544 4750 1819 4750 
Q 2544 4750 2975 4387 
Q 3406 4025 3406 3419 
Q 3406 3131 3298 2873 
Q 3191 2616 2906 2266 
Q 2828 2175 2409 1742 
Q 1991 1309 1228 531 
z
" transform="scale(0.015625)"/>
       </defs>
       <use xlink:href="#DejaVuSans-32"/>
       <use xlink:href="#DejaVuSans-2e" x="63.623047"/>
       <use xlink:href="#DejaVuSans-30" x="95.410156"/>
      </g>
     </g>
    </g>
    <g id="ytick_5">
     <g id="line2d_17">
      <path d="M 43.803125 26.761343 
L 400.923125 26.761343 
" clip-path="url(#p4e3cacf22c)" style="fill: none; stroke: #b0b0b0; stroke-width: 0.8; stroke-linecap: square"/>
     </g>
     <g id="line2d_18">
      <g>
       <use xlink:href="#m535ebfb797" x="43.803125" y="26.761343" style="stroke: #000000; stroke-width: 0.8"/>
      </g>
     </g>
     <g id="text_9">
      <!-- 2.5 -->
      <g transform="translate(20.9 30.560562) scale(0.1 -0.1)">
       <use xlink:href="#DejaVuSans-32"/>
       <use xlink:href="#DejaVuSans-2e" x="63.623047"/>
       <use xlink:href="#DejaVuSans-35" x="95.410156"/>
      </g>
     </g>
    </g>
    <g id="text_10">
     <!-- $\chi_0(\mathbf{q},\omega=0)$ -->
     <g transform="translate(14.8 169.156) rotate(-90) scale(0.1 -0.1)">
      <defs>
       <path id="DejaVuSans-Oblique-3c7" d="M 1922 -781 
L 1691 416 
L 394 -1334 
L -284 -1334 
L 1553 1141 
L 1269 2613 
Q 1194 3006 713 3006 
L 559 3006 
L 653 3500 
L 872 3494 
Q 1675 3472 1775 2950 
L 2006 1753 
L 3303 3503 
L 3981 3503 
L 2144 1028 
L 2428 -444 
Q 2503 -838 2984 -838 
L 3138 -838 
L 3044 -1331 
L 2825 -1325 
Q 2022 -1303 1922 -781 
z
" transform="scale(0.015625)"/>
       <path id="DejaVuSans-28" d="M 1984 4856 
Q 1566 4138 1362 3434 
Q 1159 2731 1159 2009 
Q 1159 1288 1364 580 
Q 1569 -128 1984 -844 
L 1484 -844 
Q 1016 -109 783 600 
Q 550 1309 550 2009 
Q 550 2706 781 3412 
Q 1013 4119 1484 4856 
L 1984 4856 
z
" transform="scale(0.015625)"/>
       <path id="DejaVuSans-Bold-71" d="M 2181 2772 
Q 1825 2772 1636 2509 
Q 1447 2247 1447 1747 
Q 1447 1247 1636 984 
Q 1825 722 2181 722 
Q 2541 722 2730 984 
Q 2919 1247 2919 1747 
Q 2919 2247 2730 2509 
Q 2541 2772 2181 2772 
z
M 2919 506 
Q 2688 197 2409 53 
Q 2131 -91 1766 -91 
Q 1119 -91 703 423 
Q 288 938 288 1747 
Q 288 2556 703 3067 
Q 1119 3578 1766 3578 
Q 2131 3578 2409 3434 
Q 2688 3291 2919 2981 
L 2919 3500 
L 4044 3500 
L 4044 -1331 
L 2919 -1331 
L 2919 506 
z
" transform="scale(0.015625)"/>
       <path id="DejaVuSans-2c" d="M 750 794 
L 1409 794 
L 1409 256 
L 897 -744 
L 494 -744 
L 750 256 
L 750 794 
z
" transform="scale(0.015625)"/>
       <path id="DejaVuSans-Oblique-3c9" d="M 1369 -91 
Q 72 -91 434 1766 
Q 575 2500 1256 3500 
L 1875 3500 
Q 1231 2500 1088 1750 
Q 819 397 1519 397 
Q 2166 397 2478 2078 
L 3009 2078 
Q 2669 388 3316 397 
Q 4013 403 4275 1750 
Q 4419 2500 4169 3500 
L 4788 3500 
Q 5075 2500 4934 1766 
Q 4578 -94 3278 -91 
Q 2428 -88 2503 844 
Q 2194 -91 1369 -91 
z
" transform="scale(0.015625)"/>
       <path id="DejaVuSans-3d" d="M 678 2906 
L 4684 2906 
L 4684 2381 
L 678 2381 
L 678 2906 
z
M 678 1631 
L 4684 1631 
L 4684 1100 
L 678 1100 
L 678 1631 
z
" transform="scale(0.015625)"/>
       <path id="DejaVuSans-29" d="M 513 4856 
L 1013 4856 
Q 1481 4119 1714 3412 
Q 1947 2706 1947 2009 
Q 1947 1309 1714 600 
Q 1481 -109 1013 -844 
L 513 -844 
Q 928 -128 1133 580 
Q 1338 1288 1338 2009 
Q 1338 2731 1133 3434 
Q 928 4138 513 4856 
z
" transform="scale(0.015625)"/>
      </defs>
      <use xlink:href="#DejaVuSans-Oblique-3c7" transform="translate(0 0.125)"/>
      <use xlink:href="#DejaVuSans-30" transform="translate(59.179688 -16.28125) scale(0.7)"/>
      <use xlink:href="#DejaVuSans-28" transform="translate(106.450195 0.125)"/>
      <use xlink:href="#DejaVuSans-Bold-71" transform="translate(145.463867 0.125)"/>
      <use xlink:href="#DejaVuSans-2c" transform="translate(217.045898 0.125)"/>
      <use xlink:href="#DejaVuSans-Oblique-3c9" transform="translate(268.31543 0.125)"/>
      <use xlink:href="#DejaVuSans-3d" transform="translate(371.538086 0.125)"/>
      <use xlink:href="#DejaVuSans-30" transform="translate(474.80957 0.125)"/>
      <use xlink:href="#DejaVuSans-29" transform="translate(538.432617 0.125)"/>
     </g>
    </g>
   </g>
   <g id="line2d_19">
    <path d="M 60.035852 259.602354 
L 63.103243 259.5886 
L 66.170634 259.548353 
L 69.238025 259.483392 
L 72.305415 259.396657 
L 75.372806 259.292221 
L 78.440197 259.175228 
L 81.507588 259.051792 
L 84.574979 258.928815 
L 87.642369 258.813733 
L 90.70976 258.714157 
L 93.777151 258.637448 
L 96.844542 258.590215 
L 99.911933 258.577816 
L 102.979323 258.603905 
L 106.046714 258.670092 
L 109.114105 258.776062 
L 112.181496 258.918947 
L 115.248887 259.09368 
L 118.316277 259.293989 
L 121.383668 259.512588 
L 124.451059 259.741697 
L 127.51845 259.973519 
L 130.585841 260.200622 
L 133.653231 260.416232 
L 136.720622 260.614395 
L 139.788013 260.790068 
L 142.855404 260.939121 
L 145.922795 261.058304 
L 148.990185 261.145185 
L 152.057576 261.19808 
L 155.124967 261.216 
L 155.124967 261.216 
L 158.192358 261.177111 
L 161.259749 261.061327 
L 164.327139 260.867821 
L 167.39453 260.595217 
L 170.461921 260.241589 
L 173.529312 259.804447 
L 176.596703 259.280737 
L 179.664093 258.666838 
L 182.731484 257.958574 
L 185.798875 257.151231 
L 188.866266 256.239612 
L 191.933657 255.218115 
L 195.001048 254.080873 
L 198.068438 252.82196 
L 201.135829 251.435703 
L 204.20322 249.916106 
L 207.270611 248.259503 
L 210.338002 246.465598 
L 213.405392 244.536508 
L 216.472783 242.479258 
L 219.540174 240.307595 
L 222.607565 238.044081 
L 225.674956 235.7223 
L 228.742346 233.388833 
L 231.809737 231.10449 
L 234.877128 228.944041 
L 237.944519 226.993634 
L 241.01191 225.345235 
L 244.0793 224.088017 
L 247.146691 223.297619 
L 250.214082 223.025301 
L 250.214082 223.025301 
L 254.552028 223.563121 
L 258.889973 225.051842 
L 263.227919 227.226569 
L 267.565865 229.784732 
L 271.90381 232.475847 
L 276.241756 235.131712 
L 280.579702 237.656813 
L 284.917647 240.006149 
L 289.255593 242.165185 
L 293.593539 244.135894 
L 297.931484 245.928247 
L 302.26943 247.555412 
L 306.607376 249.03123 
L 310.945321 250.368969 
L 315.283267 251.580785 
L 319.621213 252.678281 
L 323.959158 253.670654 
L 328.297104 254.56544 
L 332.63505 255.369962 
L 336.972995 256.090578 
L 341.310941 256.732788 
L 345.648887 257.301338 
L 349.986832 257.800305 
L 354.324778 258.233165 
L 358.662724 258.602858 
L 363.000669 258.911838 
L 367.338615 259.162111 
L 371.676561 259.355273 
L 376.014506 259.492533 
L 380.352452 259.574731 
L 384.690398 259.602354 
" clip-path="url(#p4e3cacf22c)" style="fill: none; stroke: #1f77b4; stroke-width: 1.5; stroke-linecap: square"/>
   </g>
   <g id="line2d_20">
    <path d="M 60.035852 249.311489 
L 63.103243 249.290318 
L 66.170634 249.228345 
L 69.238025 249.128261 
L 72.305415 248.994515 
L 75.372806 248.8333 
L 78.440197 248.652477 
L 81.507588 248.461437 
L 84.574979 248.270844 
L 87.642369 248.092247 
L 90.70976 247.937529 
L 93.777151 247.818221 
L 96.844542 247.744707 
L 99.911933 247.725403 
L 102.979323 247.766019 
L 106.046714 247.869009 
L 109.114105 248.03374 
L 112.181496 248.25554 
L 115.248887 248.526293 
L 118.316277 248.83602 
L 121.383668 249.173232 
L 124.451059 249.52577 
L 127.51845 249.881559 
L 130.585841 250.229214 
L 133.653231 250.558456 
L 136.720622 250.860359 
L 139.788013 251.127439 
L 142.855404 251.353638 
L 145.922795 251.534237 
L 148.990185 251.665736 
L 152.057576 251.745732 
L 155.124967 251.772823 
L 155.124967 251.772823 
L 158.192358 251.714025 
L 161.259749 251.538812 
L 164.327139 251.245473 
L 167.39453 250.831149 
L 170.461921 250.291786 
L 173.529312 249.622079 
L 176.596703 248.815402 
L 179.664093 247.863723 
L 182.731484 246.757516 
L 185.798875 245.485671 
L 188.866266 244.035415 
L 191.933657 242.392267 
L 195.001048 240.540047 
L 198.068438 238.460988 
L 201.135829 236.136004 
L 204.20322 233.543052 
L 207.270611 230.661944 
L 210.338002 227.476589 
L 213.405392 223.972763 
L 216.472783 220.143419 
L 219.540174 215.993268 
L 222.607565 211.544873 
L 225.674956 206.846194 
L 228.742346 201.979085 
L 231.809737 197.067378 
L 234.877128 192.282069 
L 237.944519 187.839952 
L 241.01191 183.99169 
L 244.0793 180.996717 
L 247.146691 179.086465 
L 250.214082 178.423307 
L 250.214082 178.423307 
L 254.552028 179.730576 
L 258.889973 183.297767 
L 263.227919 188.377465 
L 267.565865 194.161965 
L 271.90381 200.035438 
L 276.241756 205.630082 
L 280.579702 210.772568 
L 284.917647 215.409715 
L 289.255593 219.551415 
L 293.593539 223.235627 
L 297.931484 226.509523 
L 302.26943 229.420322 
L 306.607376 232.011343 
L 310.945321 234.320703 
L 315.283267 236.381231 
L 319.621213 238.222044 
L 323.959158 239.86623 
L 328.297104 241.332555 
L 332.63505 242.638063 
L 336.972995 243.797187 
L 341.310941 244.82215 
L 345.648887 245.723294 
L 349.986832 246.509352 
L 354.324778 247.187665 
L 358.662724 247.764361 
L 363.000669 248.2445 
L 367.338615 248.632186 
L 371.676561 248.930655 
L 376.014506 249.142349 
L 380.352452 249.268965 
L 384.690398 249.311489 
" clip-path="url(#p4e3cacf22c)" style="fill: none; stroke: #ff7f0e; stroke-width: 1.5; stroke-linecap: square"/>
   </g>
   <g id="line2d_21">
    <path d="M 60.035852 232.498497 
L 63.103243 232.461777 
L 66.170634 232.354236 
L 69.238025 232.180389 
L 72.305415 231.947748 
L 75.372806 231.666831 
L 78.440197 231.351103 
L 81.507588 231.016793 
L 84.574979 230.682505 
L 87.642369 230.368563 
L 90.70976 230.096053 
L 93.777151 229.885567 
L 96.844542 229.75572 
L 99.911933 229.721605 
L 102.979323 229.793376 
L 106.046714 229.975211 
L 109.114105 230.265585 
L 112.181496 230.655637 
L 115.248887 231.130367 
L 118.316277 231.671545 
L 121.383668 232.258473 
L 124.451059 232.869556 
L 127.51845 233.483683 
L 130.585841 234.081268 
L 133.653231 234.644938 
L 136.720622 235.159876 
L 139.788013 235.61389 
L 142.855404 235.997291 
L 145.922795 236.302667 
L 148.990185 236.524609 
L 152.057576 236.659458 
L 155.124967 236.705095 
L 155.124967 236.705095 
L 158.192358 236.606024 
L 161.259749 236.310386 
L 164.327139 235.814057 
L 167.39453 235.110073 
L 170.461921 234.188432 
L 173.529312 233.035807 
L 176.596703 231.635157 
L 179.664093 229.965231 
L 182.731484 227.999933 
L 185.798875 225.707543 
L 188.866266 223.049753 
L 191.933657 219.98052 
L 195.001048 216.444691 
L 198.068438 212.376426 
L 201.135829 207.697428 
L 204.20322 202.308939 
L 207.270611 196.09952 
L 210.338002 188.947863 
L 213.405392 180.710354 
L 216.472783 171.229595 
L 219.540174 160.342929 
L 222.607565 147.900163 
L 225.674956 133.796075 
L 228.742346 118.024621 
L 231.809737 100.760774 
L 234.877128 82.468634 
L 237.944519 64.015186 
L 241.01191 46.735533 
L 244.0793 32.361089 
L 247.146691 22.729627 
L 250.214082 19.296 
L 250.214082 19.296 
L 254.552028 26.020271 
L 258.889973 43.485091 
L 263.227919 66.339527 
L 267.565865 89.853721 
L 271.90381 111.37929 
L 276.241756 129.985719 
L 280.579702 145.664694 
L 284.917647 158.767572 
L 289.255593 169.724 
L 293.593539 178.930286 
L 297.931484 186.717369 
L 302.26943 193.350333 
L 306.607376 199.038034 
L 310.945321 203.944328 
L 315.283267 208.198035 
L 319.621213 211.902957 
L 323.959158 215.138947 
L 328.297104 217.968671 
L 332.63505 220.444663 
L 336.972995 222.609597 
L 341.310941 224.498314 
L 345.648887 226.139357 
L 349.986832 227.556155 
L 354.324778 228.767923 
L 358.662724 229.790365 
L 363.000669 230.636209 
L 367.338615 231.315623 
L 371.676561 231.836536 
L 376.014506 232.204874 
L 380.352452 232.424733 
L 384.690398 232.498497 
" clip-path="url(#p4e3cacf22c)" style="fill: none; stroke: #2ca02c; stroke-width: 1.5; stroke-linecap: square"/>
   </g>
   <g id="patch_3">
    <path d="M 43.803125 273.312 
L 43.803125 7.2 
" style="fill: none; stroke: #000000; stroke-width: 0.8; stroke-linejoin: miter; stroke-linecap: square"/>
   </g>
   <g id="patch_4">
    <path d="M 400.923125 273.312 
L 400.923125 7.2 
" style="fill: none; stroke: #000000; stroke-width: 0.8; stroke-linejoin: miter; stroke-linecap: square"/>
   </g>
   <g id="patch_5">
    <path d="M 43.803125 273.312 
L 400.923125 273.312 
" style="fill: none; stroke: #000000; stroke-width: 0.8; stroke-linejoin: miter; stroke-linecap: square"/>
   </g>
   <g id="patch_6">
    <path d="M 43.803125 7.2 
L 400.923125 7.2 
" style="fill: none; stroke: #000000; stroke-width: 0.8; stroke-linejoin: miter; stroke-linecap: square"/>
   </g>
   <g id="legend_1">
    <g id="patch_7">
     <path d="M 293.623125 59.295312 
L 393.923125 59.295312 
Q 395.923125 59.295312 395.923125 57.295312 
L 395.923125 14.2 
Q 395.923125 12.2 393.923125 12.2 
L 293.623125 12.2 
Q 291.623125 12.2 291.623125 14.2 
L 291.623125 57.295312 
Q 291.623125 59.295312 293.623125 59.295312 
z
" style="fill: #ffffff; opacity: 0.8; stroke: #cccccc; stroke-linejoin: miter"/>
    </g>
    <g id="line2d_22">
     <path d="M 295.623125 20.298437 
L 305.623125 20.298437 
L 315.623125 20.298437 
" style="fill: none; stroke: #1f77b4; stroke-width: 1.5; stroke-linecap: square"/>
    </g>
    <g id="text_11">
     <!-- $\chi_\mathrm{RPA}$, $U=0.00$ -->
     <g transform="translate(323.623125 23.798437) scale(0.1 -0.1)">
      <defs>
       <path id="DejaVuSans-52" d="M 2841 2188 
Q 3044 2119 3236 1894 
Q 3428 1669 3622 1275 
L 4263 0 
L 3584 0 
L 2988 1197 
Q 2756 1666 2539 1819 
Q 2322 1972 1947 1972 
L 1259 1972 
L 1259 0 
L 628 0 
L 628 4666 
L 2053 4666 
Q 2853 4666 3247 4331 
Q 3641 3997 3641 3322 
Q 3641 2881 3436 2590 
Q 3231 2300 2841 2188 
z
M 1259 4147 
L 1259 2491 
L 2053 2491 
Q 2509 2491 2742 2702 
Q 2975 2913 2975 3322 
Q 2975 3731 2742 3939 
Q 2509 4147 2053 4147 
L 1259 4147 
z
" transform="scale(0.015625)"/>
       <path id="DejaVuSans-50" d="M 1259 4147 
L 1259 2394 
L 2053 2394 
Q 2494 2394 2734 2622 
Q 2975 2850 2975 3272 
Q 2975 3691 2734 3919 
Q 2494 4147 2053 4147 
L 1259 4147 
z
M 628 4666 
L 2053 4666 
Q 2838 4666 3239 4311 
Q 3641 3956 3641 3272 
Q 3641 2581 3239 2228 
Q 2838 1875 2053 1875 
L 1259 1875 
L 1259 0 
L 628 0 
L 628 4666 
z
" transform="scale(0.015625)"/>
       <path id="DejaVuSans-41" d="M 2188 4044 
L 1331 1722 
L 3047 1722 
L 2188 4044 
z
M 1831 4666 
L 2547 4666 
L 4325 0 
L 3669 0 
L 3244 1197 
L 1141 1197 
L 716 0 
L 50 0 
L 1831 4666 
z
" transform="scale(0.015625)"/>
       <path id="DejaVuSans-20" transform="scale(0.015625)"/>
       <path id="DejaVuSans-Oblique-55" d="M 991 4666 
L 1625 4666 
L 1075 1831 
Q 1041 1641 1027 1517 
Q 1013 1394 1013 1300 
Q 1013 869 1253 645 
Q 1494 422 1959 422 
Q 2563 422 2898 753 
Q 3234 1084 3378 1831 
L 3928 4666 
L 4563 4666 
L 4000 1753 
Q 3816 809 3300 359 
Q 2784 -91 1888 -91 
Q 1188 -91 780 261 
Q 372 613 372 1216 
Q 372 1325 387 1461 
Q 403 1597 434 1753 
L 991 4666 
z
" transform="scale(0.015625)"/>
      </defs>
      <use xlink:href="#DejaVuSans-Oblique-3c7" transform="translate(0 0.78125)"/>
      <use xlink:href="#DejaVuSans-52" transform="translate(59.179688 -15.625) scale(0.7)"/>
      <use xlink:href="#DejaVuSans-50" transform="translate(107.817383 -15.625) scale(0.7)"/>
      <use xlink:href="#DejaVuSans-41" transform="translate(150.029297 -15.625) scale(0.7)"/>
      <use xlink:href="#DejaVuSans-2c" transform="translate(200.649414 0.78125)"/>
      <use xlink:href="#DejaVuSans-20" transform="translate(232.436523 0.78125)"/>
      <use xlink:href="#DejaVuSans-Oblique-55" transform="translate(264.223633 0.78125)"/>
      <use xlink:href="#DejaVuSans-3d" transform="translate(356.899414 0.78125)"/>
      <use xlink:href="#DejaVuSans-30" transform="translate(460.170898 0.78125)"/>
      <use xlink:href="#DejaVuSans-2e" transform="translate(523.793945 0.78125)"/>
      <use xlink:href="#DejaVuSans-30" transform="translate(555.581055 0.78125)"/>
      <use xlink:href="#DejaVuSans-30" transform="translate(619.204102 0.78125)"/>
     </g>
    </g>
    <g id="line2d_23">
     <path d="M 295.623125 34.996875 
L 305.623125 34.996875 
L 315.623125 34.996875 
" style="fill: none; stroke: #ff7f0e; stroke-width: 1.5; stroke-linecap: square"/>
    </g>
    <g id="text_12">
     <!-- $\chi_\mathrm{RPA}$, $U=1.00$ -->
     <g transform="translate(323.623125 38.496875) scale(0.1 -0.1)">
      <use xlink:href="#DejaVuSans-Oblique-3c7" transform="translate(0 0.78125)"/>
      <use xlink:href="#DejaVuSans-52" transform="translate(59.179688 -15.625) scale(0.7)"/>
      <use xlink:href="#DejaVuSans-50" transform="translate(107.817383 -15.625) scale(0.7)"/>
      <use xlink:href="#DejaVuSans-41" transform="translate(150.029297 -15.625) scale(0.7)"/>
      <use xlink:href="#DejaVuSans-2c" transform="translate(200.649414 0.78125)"/>
      <use xlink:href="#DejaVuSans-20" transform="translate(232.436523 0.78125)"/>
      <use xlink:href="#DejaVuSans-Oblique-55" transform="translate(264.223633 0.78125)"/>
      <use xlink:href="#DejaVuSans-3d" transform="translate(356.899414 0.78125)"/>
      <use xlink:href="#DejaVuSans-31" transform="translate(460.170898 0.78125)"/>
      <use xlink:href="#DejaVuSans-2e" transform="translate(523.793945 0.78125)"/>
      <use xlink:href="#DejaVuSans-30" transform="translate(555.581055 0.78125)"/>
      <use xlink:href="#DejaVuSans-30" transform="translate(619.204102 0.78125)"/>
     </g>
    </g>
    <g id="line2d_24">
     <path d="M 295.623125 49.695312 
L 305.623125 49.695312 
L 315.623125 49.695312 
" style="fill: none; stroke: #2ca02c; stroke-width: 1.5; stroke-linecap: square"/>
    </g>
    <g id="text_13">
     <!-- $\chi_\mathrm{RPA}$, $U=2.00$ -->
     <g transform="translate(323.623125 53.195312) scale(0.1 -0.1)">
      <use xlink:href="#DejaVuSans-Oblique-3c7" transform="translate(0 0.78125)"/>
      <use xlink:href="#DejaVuSans-52" transform="translate(59.179688 -15.625) scale(0.7)"/>
      <use xlink:href="#DejaVuSans-50" transform="translate(107.817383 -15.625) scale(0.7)"/>
      <use xlink:href="#DejaVuSans-41" transform="translate(150.029297 -15.625) scale(0.7)"/>
      <use xlink:href="#DejaVuSans-2c" transform="translate(200.649414 0.78125)"/>
      <use xlink:href="#DejaVuSans-20" transform="translate(232.436523 0.78125)"/>
      <use xlink:href="#DejaVuSans-Oblique-55" transform="translate(264.223633 0.78125)"/>
      <use xlink:href="#DejaVuSans-3d" transform="translate(356.899414 0.78125)"/>
      <use xlink:href="#DejaVuSans-32" transform="translate(460.170898 0.78125)"/>
      <use xlink:href="#DejaVuSans-2e" transform="translate(523.793945 0.78125)"/>
      <use xlink:href="#DejaVuSans-30" transform="translate(555.581055 0.78125)"/>
      <use xlink:href="#DejaVuSans-30" transform="translate(619.204102 0.78125)"/>
     </g>
    </g>
   </g>
  </g>
 </g>
 <defs>
  <clipPath id="p4e3cacf22c">
   <rect x="43.803125" y="7.2" width="357.12" height="266.112"/>
  </clipPath>
 </defs>
</svg>
