<?xml version="1.0" encoding="utf-8" standalone="no"?>
<!DOCTYPE svg PUBLIC "-//W3C//DTD SVG 1.1//EN"
  "http://www.w3.org/Graphics/SVG/1.1/DTD/svg11.dtd">
<!-- Created with matplotlib (http://matplotlib.org/) -->
<svg height="352.15625pt" version="1.1" viewBox="0 0 420.560937 352.15625" width="420.560937pt" xmlns="http://www.w3.org/2000/svg" xmlns:xlink="http://www.w3.org/1999/xlink">
 <defs>
  <style type="text/css">
*{stroke-linecap:butt;stroke-linejoin:round;}
  </style>
 </defs>
 <g id="figure_1">
  <g id="patch_1">
   <path d="M 0 352.15625 
L 420.560937 352.15625 
L 420.560937 0 
L 0 0 
z
" style="fill:none;"/>
  </g>
  <g id="axes_1">
   <g id="patch_2">
    <path d="M 58.523438 314.6 
L 409.860937 314.6 
L 409.860937 10.7 
L 58.523438 10.7 
z
" style="fill:#ffffff;"/>
   </g>
   <g id="matplotlib.axis_1">
    <g id="xtick_1">
     <g id="line2d_1">
      <defs>
       <path d="M 0 0 
L 0 3.5 
" id="m335d758a2f" style="stroke:#000000;stroke-width:0.8;"/>
      </defs>
      <g>
       <use style="stroke:#000000;stroke-width:0.8;" x="106.433097" xlink:href="#m335d758a2f" y="314.6"/>
      </g>
     </g>
     <g id="text_1">
      <!-- −0.4 -->
      <defs>
       <path d="M 10.59375 35.5 
L 73.1875 35.5 
L 73.1875 27.203125 
L 10.59375 27.203125 
z
" id="DejaVuSans-2212"/>
       <path d="M 31.78125 66.40625 
Q 24.171875 66.40625 20.328125 58.90625 
Q 16.5 51.421875 16.5 36.375 
Q 16.5 21.390625 20.328125 13.890625 
Q 24.171875 6.390625 31.78125 6.390625 
Q 39.453125 6.390625 43.28125 13.890625 
Q 47.125 21.390625 47.125 36.375 
Q 47.125 51.421875 43.28125 58.90625 
Q 39.453125 66.40625 31.78125 66.40625 
z
M 31.78125 74.21875 
Q 44.046875 74.21875 50.515625 64.515625 
Q 56.984375 54.828125 56.984375 36.375 
Q 56.984375 17.96875 50.515625 8.265625 
Q 44.046875 -1.421875 31.78125 -1.421875 
Q 19.53125 -1.421875 13.0625 8.265625 
Q 6.59375 17.96875 6.59375 36.375 
Q 6.59375 54.828125 13.0625 64.515625 
Q 19.53125 74.21875 31.78125 74.21875 
z
" id="DejaVuSans-30"/>
       <path d="M 10.6875 12.40625 
L 21 12.40625 
L 21 0 
L 10.6875 0 
z
" id="DejaVuSans-2e"/>
       <path d="M 37.796875 64.3125 
L 12.890625 25.390625 
L 37.796875 25.390625 
z
M 35.203125 72.90625 
L 47.609375 72.90625 
L 47.609375 25.390625 
L 58.015625 25.390625 
L 58.015625 17.1875 
L 47.609375 17.1875 
L 47.609375 0 
L 37.796875 0 
L 37.796875 17.1875 
L 4.890625 17.1875 
L 4.890625 26.703125 
z
" id="DejaVuSans-34"/>
      </defs>
      <g transform="translate(94.29169 329.198437)scale(0.1 -0.1)">
       <use xlink:href="#DejaVuSans-2212"/>
       <use x="83.789062" xlink:href="#DejaVuSans-30"/>
       <use x="147.412109" xlink:href="#DejaVuSans-2e"/>
       <use x="179.199219" xlink:href="#DejaVuSans-34"/>
      </g>
     </g>
    </g>
    <g id="xtick_2">
     <g id="line2d_2">
      <g>
       <use style="stroke:#000000;stroke-width:0.8;" x="170.312642" xlink:href="#m335d758a2f" y="314.6"/>
      </g>
     </g>
     <g id="text_2">
      <!-- −0.2 -->
      <defs>
       <path d="M 19.1875 8.296875 
L 53.609375 8.296875 
L 53.609375 0 
L 7.328125 0 
L 7.328125 8.296875 
Q 12.9375 14.109375 22.625 23.890625 
Q 32.328125 33.6875 34.8125 36.53125 
Q 39.546875 41.84375 41.421875 45.53125 
Q 43.3125 49.21875 43.3125 52.78125 
Q 43.3125 58.59375 39.234375 62.25 
Q 35.15625 65.921875 28.609375 65.921875 
Q 23.96875 65.921875 18.8125 64.3125 
Q 13.671875 62.703125 7.8125 59.421875 
L 7.8125 69.390625 
Q 13.765625 71.78125 18.9375 73 
Q 24.125 74.21875 28.421875 74.21875 
Q 39.75 74.21875 46.484375 68.546875 
Q 53.21875 62.890625 53.21875 53.421875 
Q 53.21875 48.921875 51.53125 44.890625 
Q 49.859375 40.875 45.40625 35.40625 
Q 44.1875 33.984375 37.640625 27.21875 
Q 31.109375 20.453125 19.1875 8.296875 
z
" id="DejaVuSans-32"/>
      </defs>
      <g transform="translate(158.171236 329.198437)scale(0.1 -0.1)">
       <use xlink:href="#DejaVuSans-2212"/>
       <use x="83.789062" xlink:href="#DejaVuSans-30"/>
       <use x="147.412109" xlink:href="#DejaVuSans-2e"/>
       <use x="179.199219" xlink:href="#DejaVuSans-32"/>
      </g>
     </g>
    </g>
    <g id="xtick_3">
     <g id="line2d_3">
      <g>
       <use style="stroke:#000000;stroke-width:0.8;" x="234.192187" xlink:href="#m335d758a2f" y="314.6"/>
      </g>
     </g>
     <g id="text_3">
      <!-- 0.0 -->
      <g transform="translate(226.240625 329.198437)scale(0.1 -0.1)">
       <use xlink:href="#DejaVuSans-30"/>
       <use x="63.623047" xlink:href="#DejaVuSans-2e"/>
       <use x="95.410156" xlink:href="#DejaVuSans-30"/>
      </g>
     </g>
    </g>
    <g id="xtick_4">
     <g id="line2d_4">
      <g>
       <use style="stroke:#000000;stroke-width:0.8;" x="298.071733" xlink:href="#m335d758a2f" y="314.6"/>
      </g>
     </g>
     <g id="text_4">
      <!-- 0.2 -->
      <g transform="translate(290.12017 329.198437)scale(0.1 -0.1)">
       <use xlink:href="#DejaVuSans-30"/>
       <use x="63.623047" xlink:href="#DejaVuSans-2e"/>
       <use x="95.410156" xlink:href="#DejaVuSans-32"/>
      </g>
     </g>
    </g>
    <g id="xtick_5">
     <g id="line2d_5">
      <g>
       <use style="stroke:#000000;stroke-width:0.8;" x="361.951278" xlink:href="#m335d758a2f" y="314.6"/>
      </g>
     </g>
     <g id="text_5">
      <!-- 0.4 -->
      <g transform="translate(353.999716 329.198437)scale(0.1 -0.1)">
       <use xlink:href="#DejaVuSans-30"/>
       <use x="63.623047" xlink:href="#DejaVuSans-2e"/>
       <use x="95.410156" xlink:href="#DejaVuSans-34"/>
      </g>
     </g>
    </g>
    <g id="text_6">
     <!-- $m$ -->
     <defs>
      <path d="M 89.796875 33.015625 
L 83.40625 0 
L 74.421875 0 
L 80.71875 32.71875 
Q 81.109375 34.8125 81.296875 36.328125 
Q 81.5 37.84375 81.5 38.921875 
Q 81.5 43.3125 79.046875 45.75 
Q 76.609375 48.1875 72.21875 48.1875 
Q 65.671875 48.1875 60.546875 43.28125 
Q 55.421875 38.375 53.90625 30.515625 
L 47.90625 0 
L 38.921875 0 
L 45.3125 32.71875 
Q 45.703125 34.515625 45.890625 36.046875 
Q 46.09375 37.59375 46.09375 38.8125 
Q 46.09375 43.265625 43.65625 45.71875 
Q 41.21875 48.1875 36.921875 48.1875 
Q 30.28125 48.1875 25.140625 43.28125 
Q 20.015625 38.375 18.5 30.515625 
L 12.5 0 
L 3.515625 0 
L 14.203125 54.6875 
L 23.1875 54.6875 
L 21.484375 46.1875 
Q 25.140625 50.984375 30.046875 53.484375 
Q 34.96875 56 40.578125 56 
Q 46.53125 56 50.359375 52.875 
Q 54.203125 49.75 54.984375 44.1875 
Q 59.078125 49.953125 64.46875 52.96875 
Q 69.875 56 75.875 56 
Q 82.90625 56 86.734375 51.953125 
Q 90.578125 47.90625 90.578125 40.484375 
Q 90.578125 38.875 90.375 36.9375 
Q 90.1875 35.015625 89.796875 33.015625 
z
" id="DejaVuSans-Oblique-6d"/>
     </defs>
     <g transform="translate(229.292187 342.876562)scale(0.1 -0.1)">
      <use xlink:href="#DejaVuSans-Oblique-6d"/>
     </g>
    </g>
   </g>
   <g id="matplotlib.axis_2">
    <g id="ytick_1">
     <g id="line2d_6">
      <defs>
       <path d="M 0 0 
L -3.5 0 
" id="m07b340ea9f" style="stroke:#000000;stroke-width:0.8;"/>
      </defs>
      <g>
       <use style="stroke:#000000;stroke-width:0.8;" x="58.523438" xlink:href="#m07b340ea9f" y="300.593303"/>
      </g>
     </g>
     <g id="text_7">
      <!-- −1.25 -->
      <defs>
       <path d="M 12.40625 8.296875 
L 28.515625 8.296875 
L 28.515625 63.921875 
L 10.984375 60.40625 
L 10.984375 69.390625 
L 28.421875 72.90625 
L 38.28125 72.90625 
L 38.28125 8.296875 
L 54.390625 8.296875 
L 54.390625 0 
L 12.40625 0 
z
" id="DejaVuSans-31"/>
       <path d="M 10.796875 72.90625 
L 49.515625 72.90625 
L 49.515625 64.59375 
L 19.828125 64.59375 
L 19.828125 46.734375 
Q 21.96875 47.46875 24.109375 47.828125 
Q 26.265625 48.1875 28.421875 48.1875 
Q 40.625 48.1875 47.75 41.5 
Q 54.890625 34.8125 54.890625 23.390625 
Q 54.890625 11.625 47.5625 5.09375 
Q 40.234375 -1.421875 26.90625 -1.421875 
Q 22.3125 -1.421875 17.546875 -0.640625 
Q 12.796875 0.140625 7.71875 1.703125 
L 7.71875 11.625 
Q 12.109375 9.234375 16.796875 8.0625 
Q 21.484375 6.890625 26.703125 6.890625 
Q 35.15625 6.890625 40.078125 11.328125 
Q 45.015625 15.765625 45.015625 23.390625 
Q 45.015625 31 40.078125 35.4375 
Q 35.15625 39.890625 26.703125 39.890625 
Q 22.75 39.890625 18.8125 39.015625 
Q 14.890625 38.140625 10.796875 36.28125 
z
" id="DejaVuSans-35"/>
      </defs>
      <g transform="translate(20.878125 304.392522)scale(0.1 -0.1)">
       <use xlink:href="#DejaVuSans-2212"/>
       <use x="83.789062" xlink:href="#DejaVuSans-31"/>
       <use x="147.412109" xlink:href="#DejaVuSans-2e"/>
       <use x="179.199219" xlink:href="#DejaVuSans-32"/>
       <use x="242.822266" xlink:href="#DejaVuSans-35"/>
      </g>
     </g>
    </g>
    <g id="ytick_2">
     <g id="line2d_7">
      <g>
       <use style="stroke:#000000;stroke-width:0.8;" x="58.523438" xlink:href="#m07b340ea9f" y="266.058361"/>
      </g>
     </g>
     <g id="text_8">
      <!-- −1.00 -->
      <g transform="translate(20.878125 269.85758)scale(0.1 -0.1)">
       <use xlink:href="#DejaVuSans-2212"/>
       <use x="83.789062" xlink:href="#DejaVuSans-31"/>
       <use x="147.412109" xlink:href="#DejaVuSans-2e"/>
       <use x="179.199219" xlink:href="#DejaVuSans-30"/>
       <use x="242.822266" xlink:href="#DejaVuSans-30"/>
      </g>
     </g>
    </g>
    <g id="ytick_3">
     <g id="line2d_8">
      <g>
       <use style="stroke:#000000;stroke-width:0.8;" x="58.523438" xlink:href="#m07b340ea9f" y="231.523419"/>
      </g>
     </g>
     <g id="text_9">
      <!-- −0.75 -->
      <defs>
       <path d="M 8.203125 72.90625 
L 55.078125 72.90625 
L 55.078125 68.703125 
L 28.609375 0 
L 18.3125 0 
L 43.21875 64.59375 
L 8.203125 64.59375 
z
" id="DejaVuSans-37"/>
      </defs>
      <g transform="translate(20.878125 235.322638)scale(0.1 -0.1)">
       <use xlink:href="#DejaVuSans-2212"/>
       <use x="83.789062" xlink:href="#DejaVuSans-30"/>
       <use x="147.412109" xlink:href="#DejaVuSans-2e"/>
       <use x="179.199219" xlink:href="#DejaVuSans-37"/>
       <use x="242.822266" xlink:href="#DejaVuSans-35"/>
      </g>
     </g>
    </g>
    <g id="ytick_4">
     <g id="line2d_9">
      <g>
       <use style="stroke:#000000;stroke-width:0.8;" x="58.523438" xlink:href="#m07b340ea9f" y="196.988477"/>
      </g>
     </g>
     <g id="text_10">
      <!-- −0.50 -->
      <g transform="translate(20.878125 200.787696)scale(0.1 -0.1)">
       <use xlink:href="#DejaVuSans-2212"/>
       <use x="83.789062" xlink:href="#DejaVuSans-30"/>
       <use x="147.412109" xlink:href="#DejaVuSans-2e"/>
       <use x="179.199219" xlink:href="#DejaVuSans-35"/>
       <use x="242.822266" xlink:href="#DejaVuSans-30"/>
      </g>
     </g>
    </g>
    <g id="ytick_5">
     <g id="line2d_10">
      <g>
       <use style="stroke:#000000;stroke-width:0.8;" x="58.523438" xlink:href="#m07b340ea9f" y="162.453535"/>
      </g>
     </g>
     <g id="text_11">
      <!-- −0.25 -->
      <g transform="translate(20.878125 166.252754)scale(0.1 -0.1)">
       <use xlink:href="#DejaVuSans-2212"/>
       <use x="83.789062" xlink:href="#DejaVuSans-30"/>
       <use x="147.412109" xlink:href="#DejaVuSans-2e"/>
       <use x="179.199219" xlink:href="#DejaVuSans-32"/>
       <use x="242.822266" xlink:href="#DejaVuSans-35"/>
      </g>
     </g>
    </g>
    <g id="ytick_6">
     <g id="line2d_11">
      <g>
       <use style="stroke:#000000;stroke-width:0.8;" x="58.523438" xlink:href="#m07b340ea9f" y="127.918593"/>
      </g>
     </g>
     <g id="text_12">
      <!-- 0.00 -->
      <g transform="translate(29.257813 131.717812)scale(0.1 -0.1)">
       <use xlink:href="#DejaVuSans-30"/>
       <use x="63.623047" xlink:href="#DejaVuSans-2e"/>
       <use x="95.410156" xlink:href="#DejaVuSans-30"/>
       <use x="159.033203" xlink:href="#DejaVuSans-30"/>
      </g>
     </g>
    </g>
    <g id="ytick_7">
     <g id="line2d_12">
      <g>
       <use style="stroke:#000000;stroke-width:0.8;" x="58.523438" xlink:href="#m07b340ea9f" y="93.383651"/>
      </g>
     </g>
     <g id="text_13">
      <!-- 0.25 -->
      <g transform="translate(29.257813 97.18287)scale(0.1 -0.1)">
       <use xlink:href="#DejaVuSans-30"/>
       <use x="63.623047" xlink:href="#DejaVuSans-2e"/>
       <use x="95.410156" xlink:href="#DejaVuSans-32"/>
       <use x="159.033203" xlink:href="#DejaVuSans-35"/>
      </g>
     </g>
    </g>
    <g id="ytick_8">
     <g id="line2d_13">
      <g>
       <use style="stroke:#000000;stroke-width:0.8;" x="58.523438" xlink:href="#m07b340ea9f" y="58.848709"/>
      </g>
     </g>
     <g id="text_14">
      <!-- 0.50 -->
      <g transform="translate(29.257813 62.647928)scale(0.1 -0.1)">
       <use xlink:href="#DejaVuSans-30"/>
       <use x="63.623047" xlink:href="#DejaVuSans-2e"/>
       <use x="95.410156" xlink:href="#DejaVuSans-35"/>
       <use x="159.033203" xlink:href="#DejaVuSans-30"/>
      </g>
     </g>
    </g>
    <g id="ytick_9">
     <g id="line2d_14">
      <g>
       <use style="stroke:#000000;stroke-width:0.8;" x="58.523438" xlink:href="#m07b340ea9f" y="24.313767"/>
      </g>
     </g>
     <g id="text_15">
      <!-- 0.75 -->
      <g transform="translate(29.257813 28.112986)scale(0.1 -0.1)">
       <use xlink:href="#DejaVuSans-30"/>
       <use x="63.623047" xlink:href="#DejaVuSans-2e"/>
       <use x="95.410156" xlink:href="#DejaVuSans-37"/>
       <use x="159.033203" xlink:href="#DejaVuSans-35"/>
      </g>
     </g>
    </g>
    <g id="text_16">
     <!-- $E[m]$ -->
     <defs>
      <path d="M 16.890625 72.90625 
L 62.984375 72.90625 
L 61.375 64.59375 
L 25.09375 64.59375 
L 20.90625 43.015625 
L 55.71875 43.015625 
L 54.109375 34.71875 
L 19.28125 34.71875 
L 14.203125 8.296875 
L 51.3125 8.296875 
L 49.703125 0 
L 2.6875 0 
z
" id="DejaVuSans-Oblique-45"/>
      <path d="M 8.59375 75.984375 
L 29.296875 75.984375 
L 29.296875 69 
L 17.578125 69 
L 17.578125 -6.203125 
L 29.296875 -6.203125 
L 29.296875 -13.1875 
L 8.59375 -13.1875 
z
" id="DejaVuSans-5b"/>
      <path d="M 30.421875 75.984375 
L 30.421875 -13.1875 
L 9.71875 -13.1875 
L 9.71875 -6.203125 
L 21.390625 -6.203125 
L 21.390625 69 
L 9.71875 69 
L 9.71875 75.984375 
z
" id="DejaVuSans-5d"/>
     </defs>
     <g transform="translate(14.798438 174.6)rotate(-90)scale(0.1 -0.1)">
      <use transform="translate(0 0.015625)" xlink:href="#DejaVuSans-Oblique-45"/>
      <use transform="translate(63.183594 0.015625)" xlink:href="#DejaVuSans-5b"/>
      <use transform="translate(102.197266 0.015625)" xlink:href="#DejaVuSans-Oblique-6d"/>
      <use transform="translate(199.609375 0.015625)" xlink:href="#DejaVuSans-5d"/>
     </g>
    </g>
   </g>
   <g id="line2d_15">
    <path clip-path="url(#pb23f7ccd06)" d="M 74.493324 300.786364 
L 77.719564 300.786364 
L 80.945803 300.786364 
L 84.172043 300.786364 
L 87.398283 300.786364 
L 90.624522 300.786364 
L 93.850762 300.786364 
L 97.077002 300.786364 
L 100.303241 300.786364 
L 103.529481 300.786364 
L 106.755721 300.786364 
L 109.98196 300.786364 
L 113.2082 300.786364 
L 116.43444 300.786364 
L 119.660679 300.786364 
L 122.886919 300.786364 
L 126.113159 300.786364 
L 129.339398 300.786364 
L 132.565638 300.786364 
L 135.791878 300.786364 
L 139.018117 300.786364 
L 142.244357 300.786364 
L 145.470597 300.786364 
L 148.696836 300.786364 
L 151.923076 300.786364 
L 155.149316 300.786364 
L 158.375555 300.786364 
L 161.601795 300.786364 
L 164.828035 300.786364 
L 168.054274 300.786364 
L 171.280514 300.786364 
L 174.506754 300.786364 
L 177.732993 300.786364 
L 180.959233 300.786364 
L 184.185473 300.786364 
L 187.411712 300.786364 
L 190.637952 300.786364 
L 193.864192 300.786364 
L 197.090431 300.786364 
L 200.316671 300.786364 
L 203.542911 300.786364 
L 206.76915 300.786364 
L 209.99539 300.786364 
L 213.22163 300.786364 
L 216.447869 300.786364 
L 219.674109 300.786364 
L 222.900349 300.786364 
L 226.126588 300.786364 
L 229.352828 300.786364 
L 232.579068 300.786364 
L 235.805307 300.786364 
L 239.031547 300.786364 
L 242.257787 300.786364 
L 245.484026 300.786364 
L 248.710266 300.786364 
L 251.936506 300.786364 
L 255.162745 300.786364 
L 258.388985 300.786364 
L 261.615225 300.786364 
L 264.841464 300.786364 
L 268.067704 300.786364 
L 271.293944 300.786364 
L 274.520183 300.786364 
L 277.746423 300.786364 
L 280.972663 300.786364 
L 284.198902 300.786364 
L 287.425142 300.786364 
L 290.651382 300.786364 
L 293.877621 300.786364 
L 297.103861 300.786364 
L 300.330101 300.786364 
L 303.55634 300.786364 
L 306.78258 300.786364 
L 310.00882 300.786364 
L 313.235059 300.786364 
L 316.461299 300.786364 
L 319.687539 300.786364 
L 322.913778 300.786364 
L 326.140018 300.786364 
L 329.366258 300.786364 
L 332.592497 300.786364 
L 335.818737 300.786364 
L 339.044977 300.786364 
L 342.271216 300.786364 
L 345.497456 300.786364 
L 348.723696 300.786364 
L 351.949935 300.786364 
L 355.176175 300.786364 
L 358.402415 300.786364 
L 361.628654 300.786364 
L 364.854894 300.786364 
L 368.081134 300.786364 
L 371.307373 300.786364 
L 374.533613 300.786364 
L 377.759853 300.786364 
L 380.986092 300.786364 
L 384.212332 300.786364 
L 387.438572 300.786364 
L 390.664811 300.786364 
L 393.891051 300.786364 
" style="fill:none;stroke:#1f77b4;stroke-linecap:square;stroke-width:0.5;"/>
   </g>
   <g id="line2d_16">
    <path clip-path="url(#pb23f7ccd06)" d="M 74.493324 237.09544 
L 77.719564 238.260794 
L 80.945803 239.402429 
L 84.172043 240.520341 
L 87.398283 241.614524 
L 90.624522 242.684977 
L 93.850762 243.731694 
L 97.077002 244.754672 
L 100.303241 245.753908 
L 103.529481 246.729398 
L 106.755721 247.681139 
L 109.98196 248.609127 
L 113.2082 249.513359 
L 116.43444 250.393832 
L 119.660679 251.250543 
L 122.886919 252.083489 
L 126.113159 252.892668 
L 129.339398 253.678076 
L 132.565638 254.439711 
L 135.791878 255.17757 
L 139.018117 255.891652 
L 142.244357 256.581953 
L 145.470597 257.248471 
L 148.696836 257.891204 
L 151.923076 258.51015 
L 155.149316 259.105307 
L 158.375555 259.676673 
L 161.601795 260.224246 
L 164.828035 260.748024 
L 168.054274 261.248006 
L 171.280514 261.72419 
L 174.506754 262.176574 
L 177.732993 262.605156 
L 180.959233 263.009937 
L 184.185473 263.390913 
L 187.411712 263.748084 
L 190.637952 264.081449 
L 193.864192 264.391007 
L 197.090431 264.676757 
L 200.316671 264.938697 
L 203.542911 265.176827 
L 206.76915 265.391147 
L 209.99539 265.581655 
L 213.22163 265.74835 
L 216.447869 265.891233 
L 219.674109 266.010303 
L 222.900349 266.10556 
L 226.126588 266.177002 
L 229.352828 266.224631 
L 232.579068 266.248445 
L 235.805307 266.248445 
L 239.031547 266.224631 
L 242.257787 266.177002 
L 245.484026 266.10556 
L 248.710266 266.010303 
L 251.936506 265.891233 
L 255.162745 265.74835 
L 258.388985 265.581655 
L 261.615225 265.391147 
L 264.841464 265.176827 
L 268.067704 264.938697 
L 271.293944 264.676757 
L 274.520183 264.391007 
L 277.746423 264.081449 
L 280.972663 263.748084 
L 284.198902 263.390913 
L 287.425142 263.009937 
L 290.651382 262.605156 
L 293.877621 262.176574 
L 297.103861 261.72419 
L 300.330101 261.248006 
L 303.55634 260.748024 
L 306.78258 260.224246 
L 310.00882 259.676673 
L 313.235059 259.105307 
L 316.461299 258.51015 
L 319.687539 257.891204 
L 322.913778 257.248471 
L 326.140018 256.581953 
L 329.366258 255.891652 
L 332.592497 255.17757 
L 335.818737 254.439711 
L 339.044977 253.678076 
L 342.271216 252.892668 
L 345.497456 252.083489 
L 348.723696 251.250543 
L 351.949935 250.393832 
L 355.176175 249.513359 
L 358.402415 248.609127 
L 361.628654 247.681139 
L 364.854894 246.729398 
L 368.081134 245.753908 
L 371.307373 244.754672 
L 374.533613 243.731694 
L 377.759853 242.684977 
L 380.986092 241.614524 
L 384.212332 240.520341 
L 387.438572 239.402429 
L 390.664811 238.260794 
L 393.891051 237.09544 
" style="fill:none;stroke:#ff7f0e;stroke-linecap:square;stroke-width:0.5;"/>
   </g>
   <g id="line2d_17">
    <path clip-path="url(#pb23f7ccd06)" d="M 74.493324 184.432356 
L 77.719564 186.30764 
L 80.945803 188.146224 
L 84.172043 189.947963 
L 87.398283 191.712722 
L 90.624522 193.440375 
L 93.850762 195.130806 
L 97.077002 196.783907 
L 100.303241 198.399576 
L 103.529481 199.97772 
L 106.755721 201.518251 
L 109.98196 203.021085 
L 113.2082 204.486146 
L 116.43444 205.91336 
L 119.660679 207.30266 
L 122.886919 208.653981 
L 126.113159 209.967263 
L 129.339398 211.242447 
L 132.565638 212.479482 
L 135.791878 213.678314 
L 139.018117 214.838896 
L 142.244357 215.961182 
L 145.470597 217.045129 
L 148.696836 218.090696 
L 151.923076 219.097844 
L 155.149316 220.066535 
L 158.375555 220.996736 
L 161.601795 221.888412 
L 164.828035 222.741534 
L 168.054274 223.55607 
L 171.280514 224.331994 
L 174.506754 225.069279 
L 177.732993 225.767899 
L 180.959233 226.427833 
L 184.185473 227.049057 
L 187.411712 227.631552 
L 190.637952 228.175298 
L 193.864192 228.680278 
L 197.090431 229.146476 
L 200.316671 229.573875 
L 203.542911 229.962464 
L 206.76915 230.312229 
L 209.99539 230.623159 
L 213.22163 230.895244 
L 216.447869 231.128476 
L 219.674109 231.322847 
L 222.900349 231.478351 
L 226.126588 231.594984 
L 229.352828 231.672741 
L 232.579068 231.71162 
L 235.805307 231.71162 
L 239.031547 231.672741 
L 242.257787 231.594984 
L 245.484026 231.478351 
L 248.710266 231.322847 
L 251.936506 231.128476 
L 255.162745 230.895244 
L 258.388985 230.623159 
L 261.615225 230.312229 
L 264.841464 229.962464 
L 268.067704 229.573875 
L 271.293944 229.146476 
L 274.520183 228.680278 
L 277.746423 228.175298 
L 280.972663 227.631552 
L 284.198902 227.049057 
L 287.425142 226.427833 
L 290.651382 225.767899 
L 293.877621 225.069279 
L 297.103861 224.331994 
L 300.330101 223.55607 
L 303.55634 222.741534 
L 306.78258 221.888412 
L 310.00882 220.996736 
L 313.235059 220.066535 
L 316.461299 219.097844 
L 319.687539 218.090696 
L 322.913778 217.045129 
L 326.140018 215.961182 
L 329.366258 214.838896 
L 332.592497 213.678314 
L 335.818737 212.479482 
L 339.044977 211.242447 
L 342.271216 209.967263 
L 345.497456 208.653981 
L 348.723696 207.30266 
L 351.949935 205.91336 
L 355.176175 204.486146 
L 358.402415 203.021085 
L 361.628654 201.518251 
L 364.854894 199.97772 
L 368.081134 198.399576 
L 371.307373 196.783907 
L 374.533613 195.130806 
L 377.759853 193.440375 
L 380.986092 191.712722 
L 384.212332 189.947963 
L 387.438572 188.146224 
L 390.664811 186.30764 
L 393.891051 184.432356 
" style="fill:none;stroke:#2ca02c;stroke-linecap:square;stroke-width:0.5;"/>
   </g>
   <g id="line2d_18">
    <path clip-path="url(#pb23f7ccd06)" d="M 74.493324 144.383984 
L 77.719564 146.316601 
L 80.945803 148.234423 
L 84.172043 150.134218 
L 87.398283 152.013049 
L 90.624522 153.868263 
L 93.850762 155.697483 
L 97.077002 157.498586 
L 100.303241 159.269683 
L 103.529481 161.009102 
L 106.755721 162.715363 
L 109.98196 164.387159 
L 113.2082 166.023336 
L 116.43444 167.622878 
L 119.660679 169.184885 
L 122.886919 170.708565 
L 126.113159 172.193216 
L 129.339398 173.638216 
L 132.565638 175.043013 
L 135.791878 176.407116 
L 139.018117 177.730086 
L 142.244357 179.011528 
L 145.470597 180.251091 
L 148.696836 181.448455 
L 151.923076 182.603333 
L 155.149316 183.715463 
L 158.375555 184.784607 
L 161.601795 185.810548 
L 164.828035 186.793086 
L 168.054274 187.732041 
L 171.280514 188.627243 
L 174.506754 189.478539 
L 177.732993 190.285785 
L 180.959233 191.048851 
L 184.185473 191.767616 
L 187.411712 192.441967 
L 190.637952 193.071802 
L 193.864192 193.657028 
L 197.090431 194.197556 
L 200.316671 194.69331 
L 203.542911 195.144217 
L 206.76915 195.550213 
L 209.99539 195.911241 
L 213.22163 196.22725 
L 216.447869 196.498196 
L 219.674109 196.724042 
L 222.900349 196.904756 
L 226.126588 197.040313 
L 229.352828 197.130694 
L 232.579068 197.175888 
L 235.805307 197.175888 
L 239.031547 197.130694 
L 242.257787 197.040313 
L 245.484026 196.904756 
L 248.710266 196.724042 
L 251.936506 196.498196 
L 255.162745 196.22725 
L 258.388985 195.911241 
L 261.615225 195.550213 
L 264.841464 195.144217 
L 268.067704 194.69331 
L 271.293944 194.197556 
L 274.520183 193.657028 
L 277.746423 193.071802 
L 280.972663 192.441967 
L 284.198902 191.767616 
L 287.425142 191.048851 
L 290.651382 190.285785 
L 293.877621 189.478539 
L 297.103861 188.627243 
L 300.330101 187.732041 
L 303.55634 186.793086 
L 306.78258 185.810548 
L 310.00882 184.784607 
L 313.235059 183.715463 
L 316.461299 182.603333 
L 319.687539 181.448455 
L 322.913778 180.251091 
L 326.140018 179.011528 
L 329.366258 177.730086 
L 332.592497 176.407116 
L 335.818737 175.043013 
L 339.044977 173.638216 
L 342.271216 172.193216 
L 345.497456 170.708565 
L 348.723696 169.184885 
L 351.949935 167.622878 
L 355.176175 166.023336 
L 358.402415 164.387159 
L 361.628654 162.715363 
L 364.854894 161.009102 
L 368.081134 159.269683 
L 371.307373 157.498586 
L 374.533613 155.697483 
L 377.759853 153.868263 
L 380.986092 152.013049 
L 384.212332 150.134218 
L 387.438572 148.234423 
L 390.664811 146.316601 
L 393.891051 144.383984 
" style="fill:none;stroke:#d62728;stroke-linecap:square;stroke-width:0.5;"/>
   </g>
   <g id="line2d_19">
    <path clip-path="url(#pb23f7ccd06)" d="M 74.493324 125.124808 
L 77.719564 125.570364 
L 80.945803 126.081529 
L 84.172043 126.669521 
L 87.398283 127.340923 
L 90.624522 128.09777 
L 93.850762 128.938026 
L 97.077002 129.856332 
L 100.303241 130.844877 
L 103.529481 131.894272 
L 106.755721 132.994332 
L 109.98196 134.134712 
L 113.2082 135.305381 
L 116.43444 136.496945 
L 119.660679 137.700833 
L 122.886919 138.909387 
L 126.113159 140.115868 
L 129.339398 141.314424 
L 132.565638 142.500018 
L 135.791878 143.668346 
L 139.018117 144.815748 
L 142.244357 145.939121 
L 145.470597 147.035839 
L 148.696836 148.103681 
L 151.923076 149.140761 
L 155.149316 150.145482 
L 158.375555 151.116479 
L 161.601795 152.052584 
L 164.828035 152.952795 
L 168.054274 153.816242 
L 171.280514 154.642169 
L 174.506754 155.429915 
L 177.732993 156.178897 
L 180.959233 156.8886 
L 184.185473 157.558565 
L 187.411712 158.188383 
L 190.637952 158.777687 
L 193.864192 159.32615 
L 197.090431 159.833475 
L 200.316671 160.299398 
L 203.542911 160.723683 
L 206.76915 161.106117 
L 209.99539 161.446516 
L 213.22163 161.744714 
L 216.447869 162.000571 
L 219.674109 162.213967 
L 222.900349 162.384802 
L 226.126588 162.512997 
L 229.352828 162.598493 
L 232.579068 162.64125 
L 235.805307 162.64125 
L 239.031547 162.598493 
L 242.257787 162.512997 
L 245.484026 162.384802 
L 248.710266 162.213967 
L 251.936506 162.000571 
L 255.162745 161.744714 
L 258.388985 161.446516 
L 261.615225 161.106117 
L 264.841464 160.723683 
L 268.067704 160.299398 
L 271.293944 159.833475 
L 274.520183 159.32615 
L 277.746423 158.777687 
L 280.972663 158.188383 
L 284.198902 157.558565 
L 287.425142 156.8886 
L 290.651382 156.178897 
L 293.877621 155.429915 
L 297.103861 154.642169 
L 300.330101 153.816242 
L 303.55634 152.952795 
L 306.78258 152.052584 
L 310.00882 151.116479 
L 313.235059 150.145482 
L 316.461299 149.140761 
L 319.687539 148.103681 
L 322.913778 147.035839 
L 326.140018 145.939121 
L 329.366258 144.815748 
L 332.592497 143.668346 
L 335.818737 142.500018 
L 339.044977 141.314424 
L 342.271216 140.115868 
L 345.497456 138.909387 
L 348.723696 137.700833 
L 351.949935 136.496945 
L 355.176175 135.305381 
L 358.402415 134.134712 
L 361.628654 132.994332 
L 364.854894 131.894272 
L 368.081134 130.844877 
L 371.307373 129.856332 
L 374.533613 128.938026 
L 377.759853 128.09777 
L 380.986092 127.340923 
L 384.212332 126.669521 
L 387.438572 126.081529 
L 390.664811 125.570364 
L 393.891051 125.124808 
" style="fill:none;stroke:#9467bd;stroke-linecap:square;stroke-width:0.5;"/>
   </g>
   <g id="line2d_20">
    <path clip-path="url(#pb23f7ccd06)" d="M 74.493324 126.257498 
L 77.719564 125.914969 
L 80.945803 125.412755 
L 84.172043 124.761011 
L 87.398283 123.975421 
L 90.624522 123.078174 
L 93.850762 122.098454 
L 97.077002 121.072086 
L 100.303241 120.04003 
L 103.529481 119.045654 
L 106.755721 118.131059 
L 109.98196 117.333104 
L 113.2082 116.679971 
L 116.43444 116.189058 
L 119.660679 115.866553 
L 122.886919 115.708586 
L 126.113159 115.70345 
L 129.339398 115.834259 
L 132.565638 116.081474 
L 135.791878 116.424952 
L 139.018117 116.845407 
L 142.244357 117.32528 
L 145.470597 117.849163 
L 148.696836 118.403891 
L 151.923076 118.978436 
L 155.149316 119.563685 
L 158.375555 120.152179 
L 161.601795 120.737848 
L 164.828035 121.315762 
L 168.054274 121.881918 
L 171.280514 122.433056 
L 174.506754 122.966507 
L 177.732993 123.480072 
L 180.959233 123.971926 
L 184.185473 124.440538 
L 187.411712 124.884612 
L 190.637952 125.303046 
L 193.864192 125.694888 
L 197.090431 126.059316 
L 200.316671 126.395614 
L 203.542911 126.703155 
L 206.76915 126.981394 
L 209.99539 127.229854 
L 213.22163 127.448124 
L 216.447869 127.635849 
L 219.674109 127.792733 
L 222.900349 127.91853 
L 226.126588 128.013046 
L 229.352828 128.076137 
L 232.579068 128.107706 
L 235.805307 128.107706 
L 239.031547 128.076137 
L 242.257787 128.013046 
L 245.484026 127.91853 
L 248.710266 127.792733 
L 251.936506 127.635849 
L 255.162745 127.448124 
L 258.388985 127.229854 
L 261.615225 126.981394 
L 264.841464 126.703155 
L 268.067704 126.395614 
L 271.293944 126.059316 
L 274.520183 125.694888 
L 277.746423 125.303046 
L 280.972663 124.884612 
L 284.198902 124.440538 
L 287.425142 123.971926 
L 290.651382 123.480072 
L 293.877621 122.966507 
L 297.103861 122.433056 
L 300.330101 121.881918 
L 303.55634 121.315762 
L 306.78258 120.737848 
L 310.00882 120.152179 
L 313.235059 119.563685 
L 316.461299 118.978436 
L 319.687539 118.403891 
L 322.913778 117.849163 
L 326.140018 117.32528 
L 329.366258 116.845407 
L 332.592497 116.424952 
L 335.818737 116.081474 
L 339.044977 115.834259 
L 342.271216 115.70345 
L 345.497456 115.708586 
L 348.723696 115.866553 
L 351.949935 116.189058 
L 355.176175 116.679971 
L 358.402415 117.333104 
L 361.628654 118.131059 
L 364.854894 119.045654 
L 368.081134 120.04003 
L 371.307373 121.072086 
L 374.533613 122.098454 
L 377.759853 123.078174 
L 380.986092 123.975421 
L 384.212332 124.761011 
L 387.438572 125.412755 
L 390.664811 125.914969 
L 393.891051 126.257498 
" style="fill:none;stroke:#8c564b;stroke-linecap:square;stroke-width:0.5;"/>
   </g>
   <g id="line2d_21">
    <path clip-path="url(#pb23f7ccd06)" d="M 74.493324 127.657338 
L 77.719564 127.500261 
L 80.945803 127.155598 
L 84.172043 126.619459 
L 87.398283 125.887563 
L 90.624522 124.955462 
L 93.850762 123.818973 
L 97.077002 122.474909 
L 100.303241 120.922229 
L 103.529481 119.16371 
L 106.755721 117.208206 
L 109.98196 115.073379 
L 113.2082 112.788549 
L 116.43444 110.396882 
L 119.660679 107.955789 
L 122.886919 105.534349 
L 126.113159 103.207148 
L 129.339398 101.045286 
L 132.565638 99.106777 
L 135.791878 97.429288 
L 139.018117 96.027391 
L 142.244357 94.894614 
L 145.470597 94.008825 
L 148.696836 93.338748 
L 151.923076 92.849796 
L 155.149316 92.508288 
L 158.375555 92.28392 
L 161.601795 92.150848 
L 164.828035 92.087821 
L 168.054274 92.077795 
L 171.280514 92.107321 
L 174.506754 92.165886 
L 177.732993 92.245299 
L 180.959233 92.339177 
L 184.185473 92.442513 
L 187.411712 92.551352 
L 190.637952 92.662529 
L 193.864192 92.773484 
L 197.090431 92.882116 
L 200.316671 92.986679 
L 203.542911 93.085711 
L 206.76915 93.177969 
L 209.99539 93.262402 
L 213.22163 93.338115 
L 216.447869 93.404352 
L 219.674109 93.460483 
L 222.900349 93.505993 
L 226.126588 93.540475 
L 229.352828 93.563629 
L 232.579068 93.575256 
L 235.805307 93.575256 
L 239.031547 93.563629 
L 242.257787 93.540475 
L 245.484026 93.505993 
L 248.710266 93.460483 
L 251.936506 93.404352 
L 255.162745 93.338115 
L 258.388985 93.262402 
L 261.615225 93.177969 
L 264.841464 93.085711 
L 268.067704 92.986679 
L 271.293944 92.882116 
L 274.520183 92.773484 
L 277.746423 92.662529 
L 280.972663 92.551352 
L 284.198902 92.442513 
L 287.425142 92.339177 
L 290.651382 92.245299 
L 293.877621 92.165886 
L 297.103861 92.107321 
L 300.330101 92.077795 
L 303.55634 92.087821 
L 306.78258 92.150848 
L 310.00882 92.28392 
L 313.235059 92.508288 
L 316.461299 92.849796 
L 319.687539 93.338748 
L 322.913778 94.008825 
L 326.140018 94.894614 
L 329.366258 96.027391 
L 332.592497 97.429288 
L 335.818737 99.106777 
L 339.044977 101.045286 
L 342.271216 103.207148 
L 345.497456 105.534349 
L 348.723696 107.955789 
L 351.949935 110.396882 
L 355.176175 112.788549 
L 358.402415 115.073379 
L 361.628654 117.208206 
L 364.854894 119.16371 
L 368.081134 120.922229 
L 371.307373 122.474909 
L 374.533613 123.818973 
L 377.759853 124.955462 
L 380.986092 125.887563 
L 384.212332 126.619459 
L 387.438572 127.155598 
L 390.664811 127.500261 
L 393.891051 127.657338 
" style="fill:none;stroke:#e377c2;stroke-linecap:square;stroke-width:0.5;"/>
   </g>
   <g id="line2d_22">
    <path clip-path="url(#pb23f7ccd06)" d="M 74.493324 127.887297 
L 77.719564 127.777335 
L 80.945803 127.4661 
L 84.172043 126.952271 
L 87.398283 126.234129 
L 90.624522 125.309442 
L 93.850762 124.175354 
L 97.077002 122.828259 
L 100.303241 121.263687 
L 103.529481 119.476238 
L 106.755721 117.459627 
L 109.98196 115.206933 
L 113.2082 112.711232 
L 116.43444 109.966842 
L 119.660679 106.971492 
L 122.886919 103.729757 
L 126.113159 100.257912 
L 129.339398 96.589892 
L 132.565638 92.783059 
L 135.791878 88.921128 
L 139.018117 85.110827 
L 142.244357 81.469941 
L 145.470597 78.108231 
L 148.696836 75.107593 
L 151.923076 72.509531 
L 155.149316 70.314484 
L 158.375555 68.491214 
L 161.601795 66.990482 
L 164.828035 65.757497 
L 168.054274 64.740387 
L 171.280514 63.894507 
L 174.506754 63.183697 
L 177.732993 62.579798 
L 180.959233 62.061405 
L 184.185473 61.61246 
L 187.411712 61.220962 
L 190.637952 60.877916 
L 193.864192 60.576513 
L 197.090431 60.31153 
L 200.316671 60.07889 
L 203.542911 59.875355 
L 206.76915 59.698307 
L 209.99539 59.545607 
L 213.22163 59.415485 
L 216.447869 59.306481 
L 219.674109 59.217394 
L 222.900349 59.147253 
L 226.126588 59.095299 
L 229.352828 59.060971 
L 232.579068 59.043899 
L 235.805307 59.043899 
L 239.031547 59.060971 
L 242.257787 59.095299 
L 245.484026 59.147253 
L 248.710266 59.217394 
L 251.936506 59.306481 
L 255.162745 59.415485 
L 258.388985 59.545607 
L 261.615225 59.698307 
L 264.841464 59.875355 
L 268.067704 60.07889 
L 271.293944 60.31153 
L 274.520183 60.576513 
L 277.746423 60.877916 
L 280.972663 61.220962 
L 284.198902 61.61246 
L 287.425142 62.061405 
L 290.651382 62.579798 
L 293.877621 63.183697 
L 297.103861 63.894507 
L 300.330101 64.740387 
L 303.55634 65.757497 
L 306.78258 66.990482 
L 310.00882 68.491214 
L 313.235059 70.314484 
L 316.461299 72.509531 
L 319.687539 75.107593 
L 322.913778 78.108231 
L 326.140018 81.469941 
L 329.366258 85.110827 
L 332.592497 88.921128 
L 335.818737 92.783059 
L 339.044977 96.589892 
L 342.271216 100.257912 
L 345.497456 103.729757 
L 348.723696 106.971492 
L 351.949935 109.966842 
L 355.176175 112.711232 
L 358.402415 115.206933 
L 361.628654 117.459627 
L 364.854894 119.476238 
L 368.081134 121.263687 
L 371.307373 122.828259 
L 374.533613 124.175354 
L 377.759853 125.309442 
L 380.986092 126.234129 
L 384.212332 126.952271 
L 387.438572 127.4661 
L 390.664811 127.777335 
L 393.891051 127.887297 
" style="fill:none;stroke:#7f7f7f;stroke-linecap:square;stroke-width:0.5;"/>
   </g>
   <g id="line2d_23">
    <path clip-path="url(#pb23f7ccd06)" d="M 74.493324 127.915222 
L 77.719564 127.800982 
L 80.945803 127.460588 
L 84.172043 126.893769 
L 87.398283 126.100142 
L 90.624522 125.07917 
L 93.850762 123.830101 
L 97.077002 122.351894 
L 100.303241 120.643109 
L 103.529481 118.701774 
L 106.755721 116.525215 
L 109.98196 114.109847 
L 113.2082 111.450941 
L 116.43444 108.542391 
L 119.660679 105.376536 
L 122.886919 101.944179 
L 126.113159 98.235026 
L 129.339398 94.238941 
L 132.565638 89.948633 
L 135.791878 85.364573 
L 139.018117 80.502873 
L 142.244357 75.406066 
L 145.470597 70.154579 
L 148.696836 64.873197 
L 151.923076 59.72423 
L 155.149316 54.882072 
L 158.375555 50.494941 
L 161.601795 46.651486 
L 164.828035 43.369396 
L 168.054274 40.608389 
L 171.280514 38.295689 
L 174.506754 36.349961 
L 177.732993 34.69662 
L 180.959233 33.274428 
L 184.185473 32.036361 
L 187.411712 30.94772 
L 190.637952 29.983444 
L 193.864192 29.125559 
L 197.090431 28.361126 
L 200.316671 27.680706 
L 203.542911 27.077282 
L 206.76915 26.545516 
L 209.99539 26.081253 
L 213.22163 25.681201 
L 216.447869 25.342718 
L 219.674109 25.063677 
L 222.900349 24.842388 
L 226.126588 24.677538 
L 229.352828 24.568166 
L 232.579068 24.513636 
L 235.805307 24.513636 
L 239.031547 24.568166 
L 242.257787 24.677538 
L 245.484026 24.842388 
L 248.710266 25.063677 
L 251.936506 25.342718 
L 255.162745 25.681201 
L 258.388985 26.081253 
L 261.615225 26.545516 
L 264.841464 27.077282 
L 268.067704 27.680706 
L 271.293944 28.361126 
L 274.520183 29.125559 
L 277.746423 29.983444 
L 280.972663 30.94772 
L 284.198902 32.036361 
L 287.425142 33.274428 
L 290.651382 34.69662 
L 293.877621 36.349961 
L 297.103861 38.295689 
L 300.330101 40.608389 
L 303.55634 43.369396 
L 306.78258 46.651486 
L 310.00882 50.494941 
L 313.235059 54.882072 
L 316.461299 59.72423 
L 319.687539 64.873197 
L 322.913778 70.154579 
L 326.140018 75.406066 
L 329.366258 80.502873 
L 332.592497 85.364573 
L 335.818737 89.948633 
L 339.044977 94.238941 
L 342.271216 98.235026 
L 345.497456 101.944179 
L 348.723696 105.376536 
L 351.949935 108.542391 
L 355.176175 111.450941 
L 358.402415 114.109847 
L 361.628654 116.525215 
L 364.854894 118.701774 
L 368.081134 120.643109 
L 371.307373 122.351894 
L 374.533613 123.830101 
L 377.759853 125.07917 
L 380.986092 126.100142 
L 384.212332 126.893769 
L 387.438572 127.460588 
L 390.664811 127.800982 
L 393.891051 127.915222 
" style="fill:none;stroke:#bcbd22;stroke-linecap:square;stroke-width:0.5;"/>
   </g>
   <g id="line2d_24">
    <path clip-path="url(#pb23f7ccd06)" d="M 74.493324 127.733113 
L 77.719564 127.591976 
L 80.945803 127.262225 
L 84.172043 126.740352 
L 87.398283 126.022292 
L 90.624522 125.103499 
L 93.850762 123.979159 
L 97.077002 122.644614 
L 100.303241 121.09612 
L 103.529481 119.332058 
L 106.755721 117.354748 
L 109.98196 115.172945 
L 113.2082 112.804922 
L 116.43444 110.281743 
L 119.660679 107.649831 
L 122.886919 104.971493 
L 126.113159 102.321945 
L 129.339398 99.782164 
L 132.565638 97.428475 
L 135.791878 95.321684 
L 139.018117 93.499259 
L 142.244357 91.97297 
L 145.470597 90.732008 
L 148.696836 89.749588 
L 151.923076 88.990363 
L 155.149316 88.416709 
L 158.375555 87.992982 
L 161.601795 87.687832 
L 164.828035 87.475015 
L 168.054274 87.333299 
L 171.280514 87.245884 
L 174.506754 87.199665 
L 177.732993 87.184492 
L 180.959233 87.192512 
L 184.185473 87.217631 
L 187.411712 87.255082 
L 190.637952 87.3011 
L 193.864192 87.352669 
L 197.090431 87.407341 
L 200.316671 87.463104 
L 203.542911 87.518281 
L 206.76915 87.571461 
L 209.99539 87.621455 
L 213.22163 87.667254 
L 216.447869 87.708011 
L 219.674109 87.743017 
L 222.900349 87.771698 
L 226.126588 87.7936 
L 229.352828 87.808387 
L 232.579068 87.815836 
L 235.805307 87.815836 
L 239.031547 87.808387 
L 242.257787 87.7936 
L 245.484026 87.771698 
L 248.710266 87.743017 
L 251.936506 87.708011 
L 255.162745 87.667254 
L 258.388985 87.621455 
L 261.615225 87.571461 
L 264.841464 87.518281 
L 268.067704 87.463104 
L 271.293944 87.407341 
L 274.520183 87.352669 
L 277.746423 87.3011 
L 280.972663 87.255082 
L 284.198902 87.217631 
L 287.425142 87.192512 
L 290.651382 87.184492 
L 293.877621 87.199665 
L 297.103861 87.245884 
L 300.330101 87.333299 
L 303.55634 87.475015 
L 306.78258 87.687832 
L 310.00882 87.992982 
L 313.235059 88.416709 
L 316.461299 88.990363 
L 319.687539 89.749588 
L 322.913778 90.732008 
L 326.140018 91.97297 
L 329.366258 93.499259 
L 332.592497 95.321684 
L 335.818737 97.428475 
L 339.044977 99.782164 
L 342.271216 102.321945 
L 345.497456 104.971493 
L 348.723696 107.649831 
L 351.949935 110.281743 
L 355.176175 112.804922 
L 358.402415 115.172945 
L 361.628654 117.354748 
L 364.854894 119.332058 
L 368.081134 121.09612 
L 371.307373 122.644614 
L 374.533613 123.979159 
L 377.759853 125.103499 
L 380.986092 126.022292 
L 384.212332 126.740352 
L 387.438572 127.262225 
L 390.664811 127.591976 
L 393.891051 127.733113 
" style="fill:none;stroke:#ff0000;stroke-linecap:square;stroke-width:1.5;"/>
   </g>
   <g id="patch_3">
    <path d="M 58.523438 314.6 
L 58.523438 10.7 
" style="fill:none;stroke:#000000;stroke-linecap:square;stroke-linejoin:miter;stroke-width:0.8;"/>
   </g>
   <g id="patch_4">
    <path d="M 409.860937 314.6 
L 409.860937 10.7 
" style="fill:none;stroke:#000000;stroke-linecap:square;stroke-linejoin:miter;stroke-width:0.8;"/>
   </g>
   <g id="patch_5">
    <path d="M 58.523438 314.6 
L 409.860937 314.6 
" style="fill:none;stroke:#000000;stroke-linecap:square;stroke-linejoin:miter;stroke-width:0.8;"/>
   </g>
   <g id="patch_6">
    <path d="M 58.523438 10.7 
L 409.860937 10.7 
" style="fill:none;stroke:#000000;stroke-linecap:square;stroke-linejoin:miter;stroke-width:0.8;"/>
   </g>
   <g id="legend_1">
    <g id="patch_7">
     <path d="M 324.860937 165.48125 
L 402.860937 165.48125 
Q 404.860937 165.48125 404.860937 163.48125 
L 404.860937 17.7 
Q 404.860937 15.7 402.860937 15.7 
L 324.860937 15.7 
Q 322.860937 15.7 322.860937 17.7 
L 322.860937 163.48125 
Q 322.860937 165.48125 324.860937 165.48125 
z
" style="fill:#ffffff;opacity:0.8;stroke:#cccccc;stroke-linejoin:miter;"/>
    </g>
    <g id="line2d_25">
     <path d="M 326.860937 23.798437 
L 346.860937 23.798437 
" style="fill:none;stroke:#1f77b4;stroke-linecap:square;stroke-width:0.5;"/>
    </g>
    <g id="line2d_26"/>
    <g id="text_17">
     <!-- $U=0.00$ -->
     <defs>
      <path d="M 15.484375 72.90625 
L 25.390625 72.90625 
L 16.796875 28.609375 
Q 16.265625 25.640625 16.046875 23.703125 
Q 15.828125 21.78125 15.828125 20.3125 
Q 15.828125 13.578125 19.578125 10.078125 
Q 23.34375 6.59375 30.609375 6.59375 
Q 40.046875 6.59375 45.28125 11.765625 
Q 50.53125 16.9375 52.78125 28.609375 
L 61.375 72.90625 
L 71.296875 72.90625 
L 62.5 27.390625 
Q 59.625 12.640625 51.5625 5.609375 
Q 43.5 -1.421875 29.5 -1.421875 
Q 18.5625 -1.421875 12.1875 4.078125 
Q 5.8125 9.578125 5.8125 19 
Q 5.8125 20.703125 6.046875 22.828125 
Q 6.296875 24.953125 6.78125 27.390625 
z
" id="DejaVuSans-Oblique-55"/>
      <path d="M 10.59375 45.40625 
L 73.1875 45.40625 
L 73.1875 37.203125 
L 10.59375 37.203125 
z
M 10.59375 25.484375 
L 73.1875 25.484375 
L 73.1875 17.1875 
L 10.59375 17.1875 
z
" id="DejaVuSans-3d"/>
     </defs>
     <g transform="translate(354.860937 27.298437)scale(0.1 -0.1)">
      <use transform="translate(0 0.78125)" xlink:href="#DejaVuSans-Oblique-55"/>
      <use transform="translate(92.675781 0.78125)" xlink:href="#DejaVuSans-3d"/>
      <use transform="translate(195.947266 0.78125)" xlink:href="#DejaVuSans-30"/>
      <use transform="translate(259.570312 0.78125)" xlink:href="#DejaVuSans-2e"/>
      <use transform="translate(291.357422 0.78125)" xlink:href="#DejaVuSans-30"/>
      <use transform="translate(354.980469 0.78125)" xlink:href="#DejaVuSans-30"/>
     </g>
    </g>
    <g id="line2d_27">
     <path d="M 326.860937 38.476562 
L 346.860937 38.476562 
" style="fill:none;stroke:#ff7f0e;stroke-linecap:square;stroke-width:0.5;"/>
    </g>
    <g id="line2d_28"/>
    <g id="text_18">
     <!-- $U=1.00$ -->
     <g transform="translate(354.860937 41.976562)scale(0.1 -0.1)">
      <use transform="translate(0 0.78125)" xlink:href="#DejaVuSans-Oblique-55"/>
      <use transform="translate(92.675781 0.78125)" xlink:href="#DejaVuSans-3d"/>
      <use transform="translate(195.947266 0.78125)" xlink:href="#DejaVuSans-31"/>
      <use transform="translate(259.570312 0.78125)" xlink:href="#DejaVuSans-2e"/>
      <use transform="translate(291.357422 0.78125)" xlink:href="#DejaVuSans-30"/>
      <use transform="translate(354.980469 0.78125)" xlink:href="#DejaVuSans-30"/>
     </g>
    </g>
    <g id="line2d_29">
     <path d="M 326.860937 53.154687 
L 346.860937 53.154687 
" style="fill:none;stroke:#2ca02c;stroke-linecap:square;stroke-width:0.5;"/>
    </g>
    <g id="line2d_30"/>
    <g id="text_19">
     <!-- $U=2.00$ -->
     <g transform="translate(354.860937 56.654687)scale(0.1 -0.1)">
      <use transform="translate(0 0.78125)" xlink:href="#DejaVuSans-Oblique-55"/>
      <use transform="translate(92.675781 0.78125)" xlink:href="#DejaVuSans-3d"/>
      <use transform="translate(195.947266 0.78125)" xlink:href="#DejaVuSans-32"/>
      <use transform="translate(259.570312 0.78125)" xlink:href="#DejaVuSans-2e"/>
      <use transform="translate(291.357422 0.78125)" xlink:href="#DejaVuSans-30"/>
      <use transform="translate(354.980469 0.78125)" xlink:href="#DejaVuSans-30"/>
     </g>
    </g>
    <g id="line2d_31">
     <path d="M 326.860937 67.832812 
L 346.860937 67.832812 
" style="fill:none;stroke:#d62728;stroke-linecap:square;stroke-width:0.5;"/>
    </g>
    <g id="line2d_32"/>
    <g id="text_20">
     <!-- $U=3.00$ -->
     <defs>
      <path d="M 40.578125 39.3125 
Q 47.65625 37.796875 51.625 33 
Q 55.609375 28.21875 55.609375 21.1875 
Q 55.609375 10.40625 48.1875 4.484375 
Q 40.765625 -1.421875 27.09375 -1.421875 
Q 22.515625 -1.421875 17.65625 -0.515625 
Q 12.796875 0.390625 7.625 2.203125 
L 7.625 11.71875 
Q 11.71875 9.328125 16.59375 8.109375 
Q 21.484375 6.890625 26.8125 6.890625 
Q 36.078125 6.890625 40.9375 10.546875 
Q 45.796875 14.203125 45.796875 21.1875 
Q 45.796875 27.640625 41.28125 31.265625 
Q 36.765625 34.90625 28.71875 34.90625 
L 20.21875 34.90625 
L 20.21875 43.015625 
L 29.109375 43.015625 
Q 36.375 43.015625 40.234375 45.921875 
Q 44.09375 48.828125 44.09375 54.296875 
Q 44.09375 59.90625 40.109375 62.90625 
Q 36.140625 65.921875 28.71875 65.921875 
Q 24.65625 65.921875 20.015625 65.03125 
Q 15.375 64.15625 9.8125 62.3125 
L 9.8125 71.09375 
Q 15.4375 72.65625 20.34375 73.4375 
Q 25.25 74.21875 29.59375 74.21875 
Q 40.828125 74.21875 47.359375 69.109375 
Q 53.90625 64.015625 53.90625 55.328125 
Q 53.90625 49.265625 50.4375 45.09375 
Q 46.96875 40.921875 40.578125 39.3125 
z
" id="DejaVuSans-33"/>
     </defs>
     <g transform="translate(354.860937 71.332812)scale(0.1 -0.1)">
      <use transform="translate(0 0.78125)" xlink:href="#DejaVuSans-Oblique-55"/>
      <use transform="translate(92.675781 0.78125)" xlink:href="#DejaVuSans-3d"/>
      <use transform="translate(195.947266 0.78125)" xlink:href="#DejaVuSans-33"/>
      <use transform="translate(259.570312 0.78125)" xlink:href="#DejaVuSans-2e"/>
      <use transform="translate(291.357422 0.78125)" xlink:href="#DejaVuSans-30"/>
      <use transform="translate(354.980469 0.78125)" xlink:href="#DejaVuSans-30"/>
     </g>
    </g>
    <g id="line2d_33">
     <path d="M 326.860937 82.510937 
L 346.860937 82.510937 
" style="fill:none;stroke:#9467bd;stroke-linecap:square;stroke-width:0.5;"/>
    </g>
    <g id="line2d_34"/>
    <g id="text_21">
     <!-- $U=4.00$ -->
     <g transform="translate(354.860937 86.010937)scale(0.1 -0.1)">
      <use transform="translate(0 0.78125)" xlink:href="#DejaVuSans-Oblique-55"/>
      <use transform="translate(92.675781 0.78125)" xlink:href="#DejaVuSans-3d"/>
      <use transform="translate(195.947266 0.78125)" xlink:href="#DejaVuSans-34"/>
      <use transform="translate(259.570312 0.78125)" xlink:href="#DejaVuSans-2e"/>
      <use transform="translate(291.357422 0.78125)" xlink:href="#DejaVuSans-30"/>
      <use transform="translate(354.980469 0.78125)" xlink:href="#DejaVuSans-30"/>
     </g>
    </g>
    <g id="line2d_35">
     <path d="M 326.860937 97.189062 
L 346.860937 97.189062 
" style="fill:none;stroke:#8c564b;stroke-linecap:square;stroke-width:0.5;"/>
    </g>
    <g id="line2d_36"/>
    <g id="text_22">
     <!-- $U=5.00$ -->
     <g transform="translate(354.860937 100.689062)scale(0.1 -0.1)">
      <use transform="translate(0 0.78125)" xlink:href="#DejaVuSans-Oblique-55"/>
      <use transform="translate(92.675781 0.78125)" xlink:href="#DejaVuSans-3d"/>
      <use transform="translate(195.947266 0.78125)" xlink:href="#DejaVuSans-35"/>
      <use transform="translate(259.570312 0.78125)" xlink:href="#DejaVuSans-2e"/>
      <use transform="translate(291.357422 0.78125)" xlink:href="#DejaVuSans-30"/>
      <use transform="translate(354.980469 0.78125)" xlink:href="#DejaVuSans-30"/>
     </g>
    </g>
    <g id="line2d_37">
     <path d="M 326.860937 111.867187 
L 346.860937 111.867187 
" style="fill:none;stroke:#e377c2;stroke-linecap:square;stroke-width:0.5;"/>
    </g>
    <g id="line2d_38"/>
    <g id="text_23">
     <!-- $U=6.00$ -->
     <defs>
      <path d="M 33.015625 40.375 
Q 26.375 40.375 22.484375 35.828125 
Q 18.609375 31.296875 18.609375 23.390625 
Q 18.609375 15.53125 22.484375 10.953125 
Q 26.375 6.390625 33.015625 6.390625 
Q 39.65625 6.390625 43.53125 10.953125 
Q 47.40625 15.53125 47.40625 23.390625 
Q 47.40625 31.296875 43.53125 35.828125 
Q 39.65625 40.375 33.015625 40.375 
z
M 52.59375 71.296875 
L 52.59375 62.3125 
Q 48.875 64.0625 45.09375 64.984375 
Q 41.3125 65.921875 37.59375 65.921875 
Q 27.828125 65.921875 22.671875 59.328125 
Q 17.53125 52.734375 16.796875 39.40625 
Q 19.671875 43.65625 24.015625 45.921875 
Q 28.375 48.1875 33.59375 48.1875 
Q 44.578125 48.1875 50.953125 41.515625 
Q 57.328125 34.859375 57.328125 23.390625 
Q 57.328125 12.15625 50.6875 5.359375 
Q 44.046875 -1.421875 33.015625 -1.421875 
Q 20.359375 -1.421875 13.671875 8.265625 
Q 6.984375 17.96875 6.984375 36.375 
Q 6.984375 53.65625 15.1875 63.9375 
Q 23.390625 74.21875 37.203125 74.21875 
Q 40.921875 74.21875 44.703125 73.484375 
Q 48.484375 72.75 52.59375 71.296875 
z
" id="DejaVuSans-36"/>
     </defs>
     <g transform="translate(354.860937 115.367187)scale(0.1 -0.1)">
      <use transform="translate(0 0.78125)" xlink:href="#DejaVuSans-Oblique-55"/>
      <use transform="translate(92.675781 0.78125)" xlink:href="#DejaVuSans-3d"/>
      <use transform="translate(195.947266 0.78125)" xlink:href="#DejaVuSans-36"/>
      <use transform="translate(259.570312 0.78125)" xlink:href="#DejaVuSans-2e"/>
      <use transform="translate(291.357422 0.78125)" xlink:href="#DejaVuSans-30"/>
      <use transform="translate(354.980469 0.78125)" xlink:href="#DejaVuSans-30"/>
     </g>
    </g>
    <g id="line2d_39">
     <path d="M 326.860937 126.545312 
L 346.860937 126.545312 
" style="fill:none;stroke:#7f7f7f;stroke-linecap:square;stroke-width:0.5;"/>
    </g>
    <g id="line2d_40"/>
    <g id="text_24">
     <!-- $U=7.00$ -->
     <g transform="translate(354.860937 130.045312)scale(0.1 -0.1)">
      <use transform="translate(0 0.78125)" xlink:href="#DejaVuSans-Oblique-55"/>
      <use transform="translate(92.675781 0.78125)" xlink:href="#DejaVuSans-3d"/>
      <use transform="translate(195.947266 0.78125)" xlink:href="#DejaVuSans-37"/>
      <use transform="translate(259.570312 0.78125)" xlink:href="#DejaVuSans-2e"/>
      <use transform="translate(291.357422 0.78125)" xlink:href="#DejaVuSans-30"/>
      <use transform="translate(354.980469 0.78125)" xlink:href="#DejaVuSans-30"/>
     </g>
    </g>
    <g id="line2d_41">
     <path d="M 326.860937 141.223437 
L 346.860937 141.223437 
" style="fill:none;stroke:#bcbd22;stroke-linecap:square;stroke-width:0.5;"/>
    </g>
    <g id="line2d_42"/>
    <g id="text_25">
     <!-- $U=8.00$ -->
     <defs>
      <path d="M 31.78125 34.625 
Q 24.75 34.625 20.71875 30.859375 
Q 16.703125 27.09375 16.703125 20.515625 
Q 16.703125 13.921875 20.71875 10.15625 
Q 24.75 6.390625 31.78125 6.390625 
Q 38.8125 6.390625 42.859375 10.171875 
Q 46.921875 13.96875 46.921875 20.515625 
Q 46.921875 27.09375 42.890625 30.859375 
Q 38.875 34.625 31.78125 34.625 
z
M 21.921875 38.8125 
Q 15.578125 40.375 12.03125 44.71875 
Q 8.5 49.078125 8.5 55.328125 
Q 8.5 64.0625 14.71875 69.140625 
Q 20.953125 74.21875 31.78125 74.21875 
Q 42.671875 74.21875 48.875 69.140625 
Q 55.078125 64.0625 55.078125 55.328125 
Q 55.078125 49.078125 51.53125 44.71875 
Q 48 40.375 41.703125 38.8125 
Q 48.828125 37.15625 52.796875 32.3125 
Q 56.78125 27.484375 56.78125 20.515625 
Q 56.78125 9.90625 50.3125 4.234375 
Q 43.84375 -1.421875 31.78125 -1.421875 
Q 19.734375 -1.421875 13.25 4.234375 
Q 6.78125 9.90625 6.78125 20.515625 
Q 6.78125 27.484375 10.78125 32.3125 
Q 14.796875 37.15625 21.921875 38.8125 
z
M 18.3125 54.390625 
Q 18.3125 48.734375 21.84375 45.5625 
Q 25.390625 42.390625 31.78125 42.390625 
Q 38.140625 42.390625 41.71875 45.5625 
Q 45.3125 48.734375 45.3125 54.390625 
Q 45.3125 60.0625 41.71875 63.234375 
Q 38.140625 66.40625 31.78125 66.40625 
Q 25.390625 66.40625 21.84375 63.234375 
Q 18.3125 60.0625 18.3125 54.390625 
z
" id="DejaVuSans-38"/>
     </defs>
     <g transform="translate(354.860937 144.723437)scale(0.1 -0.1)">
      <use transform="translate(0 0.78125)" xlink:href="#DejaVuSans-Oblique-55"/>
      <use transform="translate(92.675781 0.78125)" xlink:href="#DejaVuSans-3d"/>
      <use transform="translate(195.947266 0.78125)" xlink:href="#DejaVuSans-38"/>
      <use transform="translate(259.570312 0.78125)" xlink:href="#DejaVuSans-2e"/>
      <use transform="translate(291.357422 0.78125)" xlink:href="#DejaVuSans-30"/>
      <use transform="translate(354.980469 0.78125)" xlink:href="#DejaVuSans-30"/>
     </g>
    </g>
    <g id="line2d_43">
     <path d="M 326.860937 155.901562 
L 346.860937 155.901562 
" style="fill:none;stroke:#ff0000;stroke-linecap:square;stroke-width:1.5;"/>
    </g>
    <g id="line2d_44"/>
    <g id="text_26">
     <!-- $U_c=6.17$ -->
     <defs>
      <path d="M 53.609375 52.59375 
L 51.8125 43.703125 
Q 48.578125 46.046875 44.9375 47.21875 
Q 41.3125 48.390625 37.40625 48.390625 
Q 33.109375 48.390625 29.21875 46.875 
Q 25.34375 45.359375 22.703125 42.578125 
Q 18.5 38.328125 16.203125 32.609375 
Q 13.921875 26.90625 13.921875 20.796875 
Q 13.921875 13.421875 17.609375 9.8125 
Q 21.296875 6.203125 28.8125 6.203125 
Q 32.515625 6.203125 36.6875 7.328125 
Q 40.875 8.453125 45.40625 10.6875 
L 43.703125 1.8125 
Q 39.796875 0.203125 35.671875 -0.609375 
Q 31.546875 -1.421875 27.203125 -1.421875 
Q 16.3125 -1.421875 10.453125 4.015625 
Q 4.59375 9.46875 4.59375 19.578125 
Q 4.59375 28.078125 7.640625 35.234375 
Q 10.6875 42.390625 16.703125 48.09375 
Q 20.796875 52 26.3125 54 
Q 31.84375 56 38.375 56 
Q 42.1875 56 45.9375 55.140625 
Q 49.703125 54.296875 53.609375 52.59375 
z
" id="DejaVuSans-Oblique-63"/>
     </defs>
     <g transform="translate(354.860937 159.401562)scale(0.1 -0.1)">
      <use transform="translate(0 0.78125)" xlink:href="#DejaVuSans-Oblique-55"/>
      <use transform="translate(73.193359 -15.625)scale(0.7)" xlink:href="#DejaVuSans-Oblique-63"/>
      <use transform="translate(133.896484 0.78125)" xlink:href="#DejaVuSans-3d"/>
      <use transform="translate(237.167969 0.78125)" xlink:href="#DejaVuSans-36"/>
      <use transform="translate(300.791016 0.78125)" xlink:href="#DejaVuSans-2e"/>
      <use transform="translate(332.578125 0.78125)" xlink:href="#DejaVuSans-31"/>
      <use transform="translate(396.201172 0.78125)" xlink:href="#DejaVuSans-37"/>
     </g>
    </g>
   </g>
  </g>
 </g>
 <defs>
  <clipPath id="pb23f7ccd06">
   <rect height="303.9" width="351.3375" x="58.523438" y="10.7"/>
  </clipPath>
 </defs>
</svg>
