<?xml version="1.0" encoding="utf-8" standalone="no"?>
<!DOCTYPE svg PUBLIC "-//W3C//DTD SVG 1.1//EN"
  "http://www.w3.org/Graphics/SVG/1.1/DTD/svg11.dtd">
<svg xmlns:xlink="http://www.w3.org/1999/xlink" width="393.8pt" height="266.51625pt" viewBox="0 0 393.8 266.51625" xmlns="http://www.w3.org/2000/svg" version="1.1">
 <metadata>
  <rdf:RDF xmlns:dc="http://purl.org/dc/elements/1.1/" xmlns:cc="http://creativecommons.org/ns#" xmlns:rdf="http://www.w3.org/1999/02/22-rdf-syntax-ns#">
   <cc:Work>
    <dc:type rdf:resource="http://purl.org/dc/dcmitype/StillImage"/>
    <dc:date>2025-07-28T15:21:41.499544</dc:date>
    <dc:format>image/svg+xml</dc:format>
    <dc:creator>
     <cc:Agent>
      <dc:title>Matplotlib v3.10.3, https://matplotlib.org/</dc:title>
     </cc:Agent>
    </dc:creator>
   </cc:Work>
  </rdf:RDF>
 </metadata>
 <defs>
  <style type="text/css">*{stroke-linejoin: round; stroke-linecap: butt}</style>
 </defs>
 <g id="figure_1">
  <g id="patch_1">
   <path d="M 0 266.51625 
L 393.8 266.51625 
L 393.8 0 
L 0 0 
z
" style="fill: #ffffff"/>
  </g>
  <g id="axes_1">
   <g id="patch_2">
    <path d="M 51.8 228.96 
L 386.6 228.96 
L 386.6 7.2 
L 51.8 7.2 
z
" style="fill: #ffffff"/>
   </g>
   <g id="matplotlib.axis_1">
    <g id="xtick_1">
     <g id="line2d_1">
      <path d="M 67.018182 228.96 
L 67.018182 7.2 
" clip-path="url(#p3327f2daa7)" style="fill: none; stroke: #b0b0b0; stroke-width: 0.8; stroke-linecap: square"/>
     </g>
     <g id="line2d_2">
      <defs>
       <path id="m8c8dd30597" d="M 0 0 
L 0 3.5 
" style="stroke: #000000; stroke-width: 0.8"/>
      </defs>
      <g>
       <use xlink:href="#m8c8dd30597" x="67.018182" y="228.96" style="stroke: #000000; stroke-width: 0.8"/>
      </g>
     </g>
     <g id="text_1">
      <!-- 0 -->
      <g transform="translate(63.836932 243.558437) scale(0.1 -0.1)">
       <defs>
        <path id="DejaVuSans-30" d="M 2034 4250 
Q 1547 4250 1301 3770 
Q 1056 3291 1056 2328 
Q 1056 1369 1301 889 
Q 1547 409 2034 409 
Q 2525 409 2770 889 
Q 3016 1369 3016 2328 
Q 3016 3291 2770 3770 
Q 2525 4250 2034 4250 
z
M 2034 4750 
Q 2819 4750 3233 4129 
Q 3647 3509 3647 2328 
Q 3647 1150 3233 529 
Q 2819 -91 2034 -91 
Q 1250 -91 836 529 
Q 422 1150 422 2328 
Q 422 3509 836 4129 
Q 1250 4750 2034 4750 
z
" transform="scale(0.015625)"/>
       </defs>
       <use xlink:href="#DejaVuSans-30"/>
      </g>
     </g>
    </g>
    <g id="xtick_2">
     <g id="line2d_3">
      <path d="M 127.890909 228.96 
L 127.890909 7.2 
" clip-path="url(#p3327f2daa7)" style="fill: none; stroke: #b0b0b0; stroke-width: 0.8; stroke-linecap: square"/>
     </g>
     <g id="line2d_4">
      <g>
       <use xlink:href="#m8c8dd30597" x="127.890909" y="228.96" style="stroke: #000000; stroke-width: 0.8"/>
      </g>
     </g>
     <g id="text_2">
      <!-- 1 -->
      <g transform="translate(124.709659 243.558437) scale(0.1 -0.1)">
       <defs>
        <path id="DejaVuSans-31" d="M 794 531 
L 1825 531 
L 1825 4091 
L 703 3866 
L 703 4441 
L 1819 4666 
L 2450 4666 
L 2450 531 
L 3481 531 
L 3481 0 
L 794 0 
L 794 531 
z
" transform="scale(0.015625)"/>
       </defs>
       <use xlink:href="#DejaVuSans-31"/>
      </g>
     </g>
    </g>
    <g id="xtick_3">
     <g id="line2d_5">
      <path d="M 188.763636 228.96 
L 188.763636 7.2 
" clip-path="url(#p3327f2daa7)" style="fill: none; stroke: #b0b0b0; stroke-width: 0.8; stroke-linecap: square"/>
     </g>
     <g id="line2d_6">
      <g>
       <use xlink:href="#m8c8dd30597" x="188.763636" y="228.96" style="stroke: #000000; stroke-width: 0.8"/>
      </g>
     </g>
     <g id="text_3">
      <!-- 2 -->
      <g transform="translate(185.582386 243.558437) scale(0.1 -0.1)">
       <defs>
        <path id="DejaVuSans-32" d="M 1228 531 
L 3431 531 
L 3431 0 
L 469 0 
L 469 531 
Q 828 903 1448 1529 
Q 2069 2156 2228 2338 
Q 2531 2678 2651 2914 
Q 2772 3150 2772 3378 
Q 2772 3750 2511 3984 
Q 2250 4219 1831 4219 
Q 1534 4219 1204 4116 
Q 875 4013 500 3803 
L 500 4441 
Q 881 4594 1212 4672 
Q 1544 4750 1819 4750 
Q 2544 4750 2975 4387 
Q 3406 4025 3406 3419 
Q 3406 3131 3298 2873 
Q 3191 2616 2906 2266 
Q 2828 2175 2409 1742 
Q 1991 1309 1228 531 
z
" transform="scale(0.015625)"/>
       </defs>
       <use xlink:href="#DejaVuSans-32"/>
      </g>
     </g>
    </g>
    <g id="xtick_4">
     <g id="line2d_7">
      <path d="M 249.636364 228.96 
L 249.636364 7.2 
" clip-path="url(#p3327f2daa7)" style="fill: none; stroke: #b0b0b0; stroke-width: 0.8; stroke-linecap: square"/>
     </g>
     <g id="line2d_8">
      <g>
       <use xlink:href="#m8c8dd30597" x="249.636364" y="228.96" style="stroke: #000000; stroke-width: 0.8"/>
      </g>
     </g>
     <g id="text_4">
      <!-- 3 -->
      <g transform="translate(246.455114 243.558437) scale(0.1 -0.1)">
       <defs>
        <path id="DejaVuSans-33" d="M 2597 2516 
Q 3050 2419 3304 2112 
Q 3559 1806 3559 1356 
Q 3559 666 3084 287 
Q 2609 -91 1734 -91 
Q 1441 -91 1130 -33 
Q 819 25 488 141 
L 488 750 
Q 750 597 1062 519 
Q 1375 441 1716 441 
Q 2309 441 2620 675 
Q 2931 909 2931 1356 
Q 2931 1769 2642 2001 
Q 2353 2234 1838 2234 
L 1294 2234 
L 1294 2753 
L 1863 2753 
Q 2328 2753 2575 2939 
Q 2822 3125 2822 3475 
Q 2822 3834 2567 4026 
Q 2313 4219 1838 4219 
Q 1578 4219 1281 4162 
Q 984 4106 628 3988 
L 628 4550 
Q 988 4650 1302 4700 
Q 1616 4750 1894 4750 
Q 2613 4750 3031 4423 
Q 3450 4097 3450 3541 
Q 3450 3153 3228 2886 
Q 3006 2619 2597 2516 
z
" transform="scale(0.015625)"/>
       </defs>
       <use xlink:href="#DejaVuSans-33"/>
      </g>
     </g>
    </g>
    <g id="xtick_5">
     <g id="line2d_9">
      <path d="M 310.509091 228.96 
L 310.509091 7.2 
" clip-path="url(#p3327f2daa7)" style="fill: none; stroke: #b0b0b0; stroke-width: 0.8; stroke-linecap: square"/>
     </g>
     <g id="line2d_10">
      <g>
       <use xlink:href="#m8c8dd30597" x="310.509091" y="228.96" style="stroke: #000000; stroke-width: 0.8"/>
      </g>
     </g>
     <g id="text_5">
      <!-- 4 -->
      <g transform="translate(307.327841 243.558437) scale(0.1 -0.1)">
       <defs>
        <path id="DejaVuSans-34" d="M 2419 4116 
L 825 1625 
L 2419 1625 
L 2419 4116 
z
M 2253 4666 
L 3047 4666 
L 3047 1625 
L 3713 1625 
L 3713 1100 
L 3047 1100 
L 3047 0 
L 2419 0 
L 2419 1100 
L 313 1100 
L 313 1709 
L 2253 4666 
z
" transform="scale(0.015625)"/>
       </defs>
       <use xlink:href="#DejaVuSans-34"/>
      </g>
     </g>
    </g>
    <g id="xtick_6">
     <g id="line2d_11">
      <path d="M 371.381818 228.96 
L 371.381818 7.2 
" clip-path="url(#p3327f2daa7)" style="fill: none; stroke: #b0b0b0; stroke-width: 0.8; stroke-linecap: square"/>
     </g>
     <g id="line2d_12">
      <g>
       <use xlink:href="#m8c8dd30597" x="371.381818" y="228.96" style="stroke: #000000; stroke-width: 0.8"/>
      </g>
     </g>
     <g id="text_6">
      <!-- 5 -->
      <g transform="translate(368.200568 243.558437) scale(0.1 -0.1)">
       <defs>
        <path id="DejaVuSans-35" d="M 691 4666 
L 3169 4666 
L 3169 4134 
L 1269 4134 
L 1269 2991 
Q 1406 3038 1543 3061 
Q 1681 3084 1819 3084 
Q 2600 3084 3056 2656 
Q 3513 2228 3513 1497 
Q 3513 744 3044 326 
Q 2575 -91 1722 -91 
Q 1428 -91 1123 -41 
Q 819 9 494 109 
L 494 744 
Q 775 591 1075 516 
Q 1375 441 1709 441 
Q 2250 441 2565 725 
Q 2881 1009 2881 1497 
Q 2881 1984 2565 2268 
Q 2250 2553 1709 2553 
Q 1456 2553 1204 2497 
Q 953 2441 691 2322 
L 691 4666 
z
" transform="scale(0.015625)"/>
       </defs>
       <use xlink:href="#DejaVuSans-35"/>
      </g>
     </g>
    </g>
    <g id="text_7">
     <!-- $\tau$ -->
     <g transform="translate(216.15 257.236562) scale(0.1 -0.1)">
      <defs>
       <path id="DejaVuSans-Oblique-3c4" d="M 2103 638 
Q 2188 488 2525 488 
L 2800 488 
L 2706 0 
L 2363 0 
Q 1800 0 1600 300 
Q 1403 606 1534 1269 
L 1856 2925 
L 541 2925 
L 653 3500 
L 3881 3500 
L 3769 2925 
L 2444 2925 
L 2113 1234 
Q 2025 781 2103 638 
z
" transform="scale(0.015625)"/>
      </defs>
      <use xlink:href="#DejaVuSans-Oblique-3c4" transform="translate(0 0.3125)"/>
     </g>
    </g>
   </g>
   <g id="matplotlib.axis_2">
    <g id="ytick_1">
     <g id="line2d_13">
      <path d="M 51.8 200.222144 
L 386.6 200.222144 
" clip-path="url(#p3327f2daa7)" style="fill: none; stroke: #b0b0b0; stroke-width: 0.8; stroke-linecap: square"/>
     </g>
     <g id="line2d_14">
      <defs>
       <path id="mf2ae23d2b5" d="M 0 0 
L -3.5 0 
" style="stroke: #000000; stroke-width: 0.8"/>
      </defs>
      <g>
       <use xlink:href="#mf2ae23d2b5" x="51.8" y="200.222144" style="stroke: #000000; stroke-width: 0.8"/>
      </g>
     </g>
     <g id="text_8">
      <!-- $\mathdefault{10^{-6}}$ -->
      <g transform="translate(21.3 204.021363) scale(0.1 -0.1)">
       <defs>
        <path id="DejaVuSans-2212" d="M 678 2272 
L 4684 2272 
L 4684 1741 
L 678 1741 
L 678 2272 
z
" transform="scale(0.015625)"/>
        <path id="DejaVuSans-36" d="M 2113 2584 
Q 1688 2584 1439 2293 
Q 1191 2003 1191 1497 
Q 1191 994 1439 701 
Q 1688 409 2113 409 
Q 2538 409 2786 701 
Q 3034 994 3034 1497 
Q 3034 2003 2786 2293 
Q 2538 2584 2113 2584 
z
M 3366 4563 
L 3366 3988 
Q 3128 4100 2886 4159 
Q 2644 4219 2406 4219 
Q 1781 4219 1451 3797 
Q 1122 3375 1075 2522 
Q 1259 2794 1537 2939 
Q 1816 3084 2150 3084 
Q 2853 3084 3261 2657 
Q 3669 2231 3669 1497 
Q 3669 778 3244 343 
Q 2819 -91 2113 -91 
Q 1303 -91 875 529 
Q 447 1150 447 2328 
Q 447 3434 972 4092 
Q 1497 4750 2381 4750 
Q 2619 4750 2861 4703 
Q 3103 4656 3366 4563 
z
" transform="scale(0.015625)"/>
       </defs>
       <use xlink:href="#DejaVuSans-31" transform="translate(0 0.765625)"/>
       <use xlink:href="#DejaVuSans-30" transform="translate(63.623047 0.765625)"/>
       <use xlink:href="#DejaVuSans-2212" transform="translate(128.203125 39.046875) scale(0.7)"/>
       <use xlink:href="#DejaVuSans-36" transform="translate(186.855469 39.046875) scale(0.7)"/>
      </g>
     </g>
    </g>
    <g id="ytick_2">
     <g id="line2d_15">
      <path d="M 51.8 159.532367 
L 386.6 159.532367 
" clip-path="url(#p3327f2daa7)" style="fill: none; stroke: #b0b0b0; stroke-width: 0.8; stroke-linecap: square"/>
     </g>
     <g id="line2d_16">
      <g>
       <use xlink:href="#mf2ae23d2b5" x="51.8" y="159.532367" style="stroke: #000000; stroke-width: 0.8"/>
      </g>
     </g>
     <g id="text_9">
      <!-- $\mathdefault{10^{-5}}$ -->
      <g transform="translate(21.3 163.331586) scale(0.1 -0.1)">
       <use xlink:href="#DejaVuSans-31" transform="translate(0 0.684375)"/>
       <use xlink:href="#DejaVuSans-30" transform="translate(63.623047 0.684375)"/>
       <use xlink:href="#DejaVuSans-2212" transform="translate(128.203125 38.965625) scale(0.7)"/>
       <use xlink:href="#DejaVuSans-35" transform="translate(186.855469 38.965625) scale(0.7)"/>
      </g>
     </g>
    </g>
    <g id="ytick_3">
     <g id="line2d_17">
      <path d="M 51.8 118.842589 
L 386.6 118.842589 
" clip-path="url(#p3327f2daa7)" style="fill: none; stroke: #b0b0b0; stroke-width: 0.8; stroke-linecap: square"/>
     </g>
     <g id="line2d_18">
      <g>
       <use xlink:href="#mf2ae23d2b5" x="51.8" y="118.842589" style="stroke: #000000; stroke-width: 0.8"/>
      </g>
     </g>
     <g id="text_10">
      <!-- $\mathdefault{10^{-4}}$ -->
      <g transform="translate(21.3 122.641808) scale(0.1 -0.1)">
       <use xlink:href="#DejaVuSans-31" transform="translate(0 0.684375)"/>
       <use xlink:href="#DejaVuSans-30" transform="translate(63.623047 0.684375)"/>
       <use xlink:href="#DejaVuSans-2212" transform="translate(128.203125 38.965625) scale(0.7)"/>
       <use xlink:href="#DejaVuSans-34" transform="translate(186.855469 38.965625) scale(0.7)"/>
      </g>
     </g>
    </g>
    <g id="ytick_4">
     <g id="line2d_19">
      <path d="M 51.8 78.152812 
L 386.6 78.152812 
" clip-path="url(#p3327f2daa7)" style="fill: none; stroke: #b0b0b0; stroke-width: 0.8; stroke-linecap: square"/>
     </g>
     <g id="line2d_20">
      <g>
       <use xlink:href="#mf2ae23d2b5" x="51.8" y="78.152812" style="stroke: #000000; stroke-width: 0.8"/>
      </g>
     </g>
     <g id="text_11">
      <!-- $\mathdefault{10^{-3}}$ -->
      <g transform="translate(21.3 81.952031) scale(0.1 -0.1)">
       <use xlink:href="#DejaVuSans-31" transform="translate(0 0.765625)"/>
       <use xlink:href="#DejaVuSans-30" transform="translate(63.623047 0.765625)"/>
       <use xlink:href="#DejaVuSans-2212" transform="translate(128.203125 39.046875) scale(0.7)"/>
       <use xlink:href="#DejaVuSans-33" transform="translate(186.855469 39.046875) scale(0.7)"/>
      </g>
     </g>
    </g>
    <g id="ytick_5">
     <g id="line2d_21">
      <path d="M 51.8 37.463034 
L 386.6 37.463034 
" clip-path="url(#p3327f2daa7)" style="fill: none; stroke: #b0b0b0; stroke-width: 0.8; stroke-linecap: square"/>
     </g>
     <g id="line2d_22">
      <g>
       <use xlink:href="#mf2ae23d2b5" x="51.8" y="37.463034" style="stroke: #000000; stroke-width: 0.8"/>
      </g>
     </g>
     <g id="text_12">
      <!-- $\mathdefault{10^{-2}}$ -->
      <g transform="translate(21.3 41.262253) scale(0.1 -0.1)">
       <use xlink:href="#DejaVuSans-31" transform="translate(0 0.765625)"/>
       <use xlink:href="#DejaVuSans-30" transform="translate(63.623047 0.765625)"/>
       <use xlink:href="#DejaVuSans-2212" transform="translate(128.203125 39.046875) scale(0.7)"/>
       <use xlink:href="#DejaVuSans-32" transform="translate(186.855469 39.046875) scale(0.7)"/>
      </g>
     </g>
    </g>
    <g id="ytick_6">
     <g id="line2d_23">
      <defs>
       <path id="m6066d24ee2" d="M 0 0 
L -2 0 
" style="stroke: #000000; stroke-width: 0.6"/>
      </defs>
      <g>
       <use xlink:href="#m6066d24ee2" x="51.8" y="228.663078" style="stroke: #000000; stroke-width: 0.6"/>
      </g>
     </g>
    </g>
    <g id="ytick_7">
     <g id="line2d_24">
      <g>
       <use xlink:href="#m6066d24ee2" x="51.8" y="221.497964" style="stroke: #000000; stroke-width: 0.6"/>
      </g>
     </g>
    </g>
    <g id="ytick_8">
     <g id="line2d_25">
      <g>
       <use xlink:href="#m6066d24ee2" x="51.8" y="216.414235" style="stroke: #000000; stroke-width: 0.6"/>
      </g>
     </g>
    </g>
    <g id="ytick_9">
     <g id="line2d_26">
      <g>
       <use xlink:href="#m6066d24ee2" x="51.8" y="212.470988" style="stroke: #000000; stroke-width: 0.6"/>
      </g>
     </g>
    </g>
    <g id="ytick_10">
     <g id="line2d_27">
      <g>
       <use xlink:href="#m6066d24ee2" x="51.8" y="209.24912" style="stroke: #000000; stroke-width: 0.6"/>
      </g>
     </g>
    </g>
    <g id="ytick_11">
     <g id="line2d_28">
      <g>
       <use xlink:href="#m6066d24ee2" x="51.8" y="206.525071" style="stroke: #000000; stroke-width: 0.6"/>
      </g>
     </g>
    </g>
    <g id="ytick_12">
     <g id="line2d_29">
      <g>
       <use xlink:href="#m6066d24ee2" x="51.8" y="204.165391" style="stroke: #000000; stroke-width: 0.6"/>
      </g>
     </g>
    </g>
    <g id="ytick_13">
     <g id="line2d_30">
      <g>
       <use xlink:href="#m6066d24ee2" x="51.8" y="202.084006" style="stroke: #000000; stroke-width: 0.6"/>
      </g>
     </g>
    </g>
    <g id="ytick_14">
     <g id="line2d_31">
      <g>
       <use xlink:href="#m6066d24ee2" x="51.8" y="187.973301" style="stroke: #000000; stroke-width: 0.6"/>
      </g>
     </g>
    </g>
    <g id="ytick_15">
     <g id="line2d_32">
      <g>
       <use xlink:href="#m6066d24ee2" x="51.8" y="180.808187" style="stroke: #000000; stroke-width: 0.6"/>
      </g>
     </g>
    </g>
    <g id="ytick_16">
     <g id="line2d_33">
      <g>
       <use xlink:href="#m6066d24ee2" x="51.8" y="175.724457" style="stroke: #000000; stroke-width: 0.6"/>
      </g>
     </g>
    </g>
    <g id="ytick_17">
     <g id="line2d_34">
      <g>
       <use xlink:href="#m6066d24ee2" x="51.8" y="171.78121" style="stroke: #000000; stroke-width: 0.6"/>
      </g>
     </g>
    </g>
    <g id="ytick_18">
     <g id="line2d_35">
      <g>
       <use xlink:href="#m6066d24ee2" x="51.8" y="168.559343" style="stroke: #000000; stroke-width: 0.6"/>
      </g>
     </g>
    </g>
    <g id="ytick_19">
     <g id="line2d_36">
      <g>
       <use xlink:href="#m6066d24ee2" x="51.8" y="165.835293" style="stroke: #000000; stroke-width: 0.6"/>
      </g>
     </g>
    </g>
    <g id="ytick_20">
     <g id="line2d_37">
      <g>
       <use xlink:href="#m6066d24ee2" x="51.8" y="163.475614" style="stroke: #000000; stroke-width: 0.6"/>
      </g>
     </g>
    </g>
    <g id="ytick_21">
     <g id="line2d_38">
      <g>
       <use xlink:href="#m6066d24ee2" x="51.8" y="161.394229" style="stroke: #000000; stroke-width: 0.6"/>
      </g>
     </g>
    </g>
    <g id="ytick_22">
     <g id="line2d_39">
      <g>
       <use xlink:href="#m6066d24ee2" x="51.8" y="147.283523" style="stroke: #000000; stroke-width: 0.6"/>
      </g>
     </g>
    </g>
    <g id="ytick_23">
     <g id="line2d_40">
      <g>
       <use xlink:href="#m6066d24ee2" x="51.8" y="140.118409" style="stroke: #000000; stroke-width: 0.6"/>
      </g>
     </g>
    </g>
    <g id="ytick_24">
     <g id="line2d_41">
      <g>
       <use xlink:href="#m6066d24ee2" x="51.8" y="135.03468" style="stroke: #000000; stroke-width: 0.6"/>
      </g>
     </g>
    </g>
    <g id="ytick_25">
     <g id="line2d_42">
      <g>
       <use xlink:href="#m6066d24ee2" x="51.8" y="131.091433" style="stroke: #000000; stroke-width: 0.6"/>
      </g>
     </g>
    </g>
    <g id="ytick_26">
     <g id="line2d_43">
      <g>
       <use xlink:href="#m6066d24ee2" x="51.8" y="127.869566" style="stroke: #000000; stroke-width: 0.6"/>
      </g>
     </g>
    </g>
    <g id="ytick_27">
     <g id="line2d_44">
      <g>
       <use xlink:href="#m6066d24ee2" x="51.8" y="125.145516" style="stroke: #000000; stroke-width: 0.6"/>
      </g>
     </g>
    </g>
    <g id="ytick_28">
     <g id="line2d_45">
      <g>
       <use xlink:href="#m6066d24ee2" x="51.8" y="122.785836" style="stroke: #000000; stroke-width: 0.6"/>
      </g>
     </g>
    </g>
    <g id="ytick_29">
     <g id="line2d_46">
      <g>
       <use xlink:href="#m6066d24ee2" x="51.8" y="120.704451" style="stroke: #000000; stroke-width: 0.6"/>
      </g>
     </g>
    </g>
    <g id="ytick_30">
     <g id="line2d_47">
      <g>
       <use xlink:href="#m6066d24ee2" x="51.8" y="106.593746" style="stroke: #000000; stroke-width: 0.6"/>
      </g>
     </g>
    </g>
    <g id="ytick_31">
     <g id="line2d_48">
      <g>
       <use xlink:href="#m6066d24ee2" x="51.8" y="99.428632" style="stroke: #000000; stroke-width: 0.6"/>
      </g>
     </g>
    </g>
    <g id="ytick_32">
     <g id="line2d_49">
      <g>
       <use xlink:href="#m6066d24ee2" x="51.8" y="94.344902" style="stroke: #000000; stroke-width: 0.6"/>
      </g>
     </g>
    </g>
    <g id="ytick_33">
     <g id="line2d_50">
      <g>
       <use xlink:href="#m6066d24ee2" x="51.8" y="90.401655" style="stroke: #000000; stroke-width: 0.6"/>
      </g>
     </g>
    </g>
    <g id="ytick_34">
     <g id="line2d_51">
      <g>
       <use xlink:href="#m6066d24ee2" x="51.8" y="87.179788" style="stroke: #000000; stroke-width: 0.6"/>
      </g>
     </g>
    </g>
    <g id="ytick_35">
     <g id="line2d_52">
      <g>
       <use xlink:href="#m6066d24ee2" x="51.8" y="84.455738" style="stroke: #000000; stroke-width: 0.6"/>
      </g>
     </g>
    </g>
    <g id="ytick_36">
     <g id="line2d_53">
      <g>
       <use xlink:href="#m6066d24ee2" x="51.8" y="82.096059" style="stroke: #000000; stroke-width: 0.6"/>
      </g>
     </g>
    </g>
    <g id="ytick_37">
     <g id="line2d_54">
      <g>
       <use xlink:href="#m6066d24ee2" x="51.8" y="80.014674" style="stroke: #000000; stroke-width: 0.6"/>
      </g>
     </g>
    </g>
    <g id="ytick_38">
     <g id="line2d_55">
      <g>
       <use xlink:href="#m6066d24ee2" x="51.8" y="65.903968" style="stroke: #000000; stroke-width: 0.6"/>
      </g>
     </g>
    </g>
    <g id="ytick_39">
     <g id="line2d_56">
      <g>
       <use xlink:href="#m6066d24ee2" x="51.8" y="58.738854" style="stroke: #000000; stroke-width: 0.6"/>
      </g>
     </g>
    </g>
    <g id="ytick_40">
     <g id="line2d_57">
      <g>
       <use xlink:href="#m6066d24ee2" x="51.8" y="53.655125" style="stroke: #000000; stroke-width: 0.6"/>
      </g>
     </g>
    </g>
    <g id="ytick_41">
     <g id="line2d_58">
      <g>
       <use xlink:href="#m6066d24ee2" x="51.8" y="49.711878" style="stroke: #000000; stroke-width: 0.6"/>
      </g>
     </g>
    </g>
    <g id="ytick_42">
     <g id="line2d_59">
      <g>
       <use xlink:href="#m6066d24ee2" x="51.8" y="46.490011" style="stroke: #000000; stroke-width: 0.6"/>
      </g>
     </g>
    </g>
    <g id="ytick_43">
     <g id="line2d_60">
      <g>
       <use xlink:href="#m6066d24ee2" x="51.8" y="43.765961" style="stroke: #000000; stroke-width: 0.6"/>
      </g>
     </g>
    </g>
    <g id="ytick_44">
     <g id="line2d_61">
      <g>
       <use xlink:href="#m6066d24ee2" x="51.8" y="41.406281" style="stroke: #000000; stroke-width: 0.6"/>
      </g>
     </g>
    </g>
    <g id="ytick_45">
     <g id="line2d_62">
      <g>
       <use xlink:href="#m6066d24ee2" x="51.8" y="39.324896" style="stroke: #000000; stroke-width: 0.6"/>
      </g>
     </g>
    </g>
    <g id="ytick_46">
     <g id="line2d_63">
      <g>
       <use xlink:href="#m6066d24ee2" x="51.8" y="25.214191" style="stroke: #000000; stroke-width: 0.6"/>
      </g>
     </g>
    </g>
    <g id="ytick_47">
     <g id="line2d_64">
      <g>
       <use xlink:href="#m6066d24ee2" x="51.8" y="18.049077" style="stroke: #000000; stroke-width: 0.6"/>
      </g>
     </g>
    </g>
    <g id="ytick_48">
     <g id="line2d_65">
      <g>
       <use xlink:href="#m6066d24ee2" x="51.8" y="12.965347" style="stroke: #000000; stroke-width: 0.6"/>
      </g>
     </g>
    </g>
    <g id="ytick_49">
     <g id="line2d_66">
      <g>
       <use xlink:href="#m6066d24ee2" x="51.8" y="9.0221" style="stroke: #000000; stroke-width: 0.6"/>
      </g>
     </g>
    </g>
    <g id="text_13">
     <!-- max$|G(\tau) - G_{exact}(\tau)|$ -->
     <g transform="translate(14.9 169.88) rotate(-90) scale(0.1 -0.1)">
      <defs>
       <path id="DejaVuSans-6d" d="M 3328 2828 
Q 3544 3216 3844 3400 
Q 4144 3584 4550 3584 
Q 5097 3584 5394 3201 
Q 5691 2819 5691 2113 
L 5691 0 
L 5113 0 
L 5113 2094 
Q 5113 2597 4934 2840 
Q 4756 3084 4391 3084 
Q 3944 3084 3684 2787 
Q 3425 2491 3425 1978 
L 3425 0 
L 2847 0 
L 2847 2094 
Q 2847 2600 2669 2842 
Q 2491 3084 2119 3084 
Q 1678 3084 1418 2786 
Q 1159 2488 1159 1978 
L 1159 0 
L 581 0 
L 581 3500 
L 1159 3500 
L 1159 2956 
Q 1356 3278 1631 3431 
Q 1906 3584 2284 3584 
Q 2666 3584 2933 3390 
Q 3200 3197 3328 2828 
z
" transform="scale(0.015625)"/>
       <path id="DejaVuSans-61" d="M 2194 1759 
Q 1497 1759 1228 1600 
Q 959 1441 959 1056 
Q 959 750 1161 570 
Q 1363 391 1709 391 
Q 2188 391 2477 730 
Q 2766 1069 2766 1631 
L 2766 1759 
L 2194 1759 
z
M 3341 1997 
L 3341 0 
L 2766 0 
L 2766 531 
Q 2569 213 2275 61 
Q 1981 -91 1556 -91 
Q 1019 -91 701 211 
Q 384 513 384 1019 
Q 384 1609 779 1909 
Q 1175 2209 1959 2209 
L 2766 2209 
L 2766 2266 
Q 2766 2663 2505 2880 
Q 2244 3097 1772 3097 
Q 1472 3097 1187 3025 
Q 903 2953 641 2809 
L 641 3341 
Q 956 3463 1253 3523 
Q 1550 3584 1831 3584 
Q 2591 3584 2966 3190 
Q 3341 2797 3341 1997 
z
" transform="scale(0.015625)"/>
       <path id="DejaVuSans-78" d="M 3513 3500 
L 2247 1797 
L 3578 0 
L 2900 0 
L 1881 1375 
L 863 0 
L 184 0 
L 1544 1831 
L 300 3500 
L 978 3500 
L 1906 2253 
L 2834 3500 
L 3513 3500 
z
" transform="scale(0.015625)"/>
       <path id="DejaVuSans-7c" d="M 1344 4891 
L 1344 -1509 
L 813 -1509 
L 813 4891 
L 1344 4891 
z
" transform="scale(0.015625)"/>
       <path id="DejaVuSans-Oblique-47" d="M 3494 697 
L 3738 1919 
L 2700 1919 
L 2797 2438 
L 4453 2438 
L 4050 384 
Q 3634 156 3143 32 
Q 2653 -91 2156 -91 
Q 1278 -91 783 396 
Q 288 884 288 1753 
Q 288 2475 589 3126 
Q 891 3778 1422 4213 
Q 1756 4484 2153 4617 
Q 2550 4750 3034 4750 
Q 3472 4750 3873 4639 
Q 4275 4528 4641 4306 
L 4513 3634 
Q 4231 3928 3853 4083 
Q 3475 4238 3047 4238 
Q 2550 4238 2172 4048 
Q 1794 3859 1497 3463 
Q 1244 3125 1098 2667 
Q 953 2209 953 1734 
Q 953 1081 1287 751 
Q 1622 422 2284 422 
Q 2616 422 2925 492 
Q 3234 563 3494 697 
z
" transform="scale(0.015625)"/>
       <path id="DejaVuSans-28" d="M 1984 4856 
Q 1566 4138 1362 3434 
Q 1159 2731 1159 2009 
Q 1159 1288 1364 580 
Q 1569 -128 1984 -844 
L 1484 -844 
Q 1016 -109 783 600 
Q 550 1309 550 2009 
Q 550 2706 781 3412 
Q 1013 4119 1484 4856 
L 1984 4856 
z
" transform="scale(0.015625)"/>
       <path id="DejaVuSans-29" d="M 513 4856 
L 1013 4856 
Q 1481 4119 1714 3412 
Q 1947 2706 1947 2009 
Q 1947 1309 1714 600 
Q 1481 -109 1013 -844 
L 513 -844 
Q 928 -128 1133 580 
Q 1338 1288 1338 2009 
Q 1338 2731 1133 3434 
Q 928 4138 513 4856 
z
" transform="scale(0.015625)"/>
       <path id="DejaVuSans-Oblique-65" d="M 3078 2063 
Q 3088 2113 3092 2166 
Q 3097 2219 3097 2272 
Q 3097 2653 2873 2875 
Q 2650 3097 2266 3097 
Q 1838 3097 1509 2826 
Q 1181 2556 1013 2059 
L 3078 2063 
z
M 3578 1613 
L 903 1613 
Q 884 1494 878 1425 
Q 872 1356 872 1306 
Q 872 872 1139 634 
Q 1406 397 1894 397 
Q 2269 397 2603 481 
Q 2938 566 3225 728 
L 3116 159 
Q 2806 34 2476 -28 
Q 2147 -91 1806 -91 
Q 1078 -91 686 257 
Q 294 606 294 1247 
Q 294 1794 489 2264 
Q 684 2734 1063 3103 
Q 1306 3334 1642 3459 
Q 1978 3584 2356 3584 
Q 2950 3584 3301 3228 
Q 3653 2872 3653 2272 
Q 3653 2128 3634 1964 
Q 3616 1800 3578 1613 
z
" transform="scale(0.015625)"/>
       <path id="DejaVuSans-Oblique-78" d="M 3841 3500 
L 2234 1784 
L 3219 0 
L 2559 0 
L 1819 1388 
L 531 0 
L -166 0 
L 1556 1844 
L 641 3500 
L 1300 3500 
L 1972 2234 
L 3144 3500 
L 3841 3500 
z
" transform="scale(0.015625)"/>
       <path id="DejaVuSans-Oblique-61" d="M 3438 1997 
L 3047 0 
L 2472 0 
L 2578 531 
Q 2325 219 2001 64 
Q 1678 -91 1281 -91 
Q 834 -91 548 182 
Q 263 456 263 884 
Q 263 1497 752 1853 
Q 1241 2209 2100 2209 
L 2900 2209 
L 2931 2363 
Q 2938 2388 2941 2417 
Q 2944 2447 2944 2509 
Q 2944 2788 2717 2942 
Q 2491 3097 2081 3097 
Q 1800 3097 1504 3025 
Q 1209 2953 897 2809 
L 997 3341 
Q 1322 3463 1633 3523 
Q 1944 3584 2234 3584 
Q 2853 3584 3176 3315 
Q 3500 3047 3500 2534 
Q 3500 2431 3484 2292 
Q 3469 2153 3438 1997 
z
M 2816 1759 
L 2241 1759 
Q 1534 1759 1195 1570 
Q 856 1381 856 984 
Q 856 709 1029 553 
Q 1203 397 1509 397 
Q 1978 397 2328 733 
Q 2678 1069 2791 1631 
L 2816 1759 
z
" transform="scale(0.015625)"/>
       <path id="DejaVuSans-Oblique-63" d="M 3431 3366 
L 3316 2797 
Q 3109 2947 2876 3022 
Q 2644 3097 2394 3097 
Q 2119 3097 1870 3000 
Q 1622 2903 1453 2725 
Q 1184 2453 1037 2087 
Q 891 1722 891 1331 
Q 891 859 1127 628 
Q 1363 397 1844 397 
Q 2081 397 2348 469 
Q 2616 541 2906 684 
L 2797 116 
Q 2547 13 2283 -39 
Q 2019 -91 1741 -91 
Q 1044 -91 669 257 
Q 294 606 294 1253 
Q 294 1797 489 2255 
Q 684 2713 1069 3078 
Q 1331 3328 1684 3456 
Q 2038 3584 2456 3584 
Q 2700 3584 2940 3529 
Q 3181 3475 3431 3366 
z
" transform="scale(0.015625)"/>
       <path id="DejaVuSans-Oblique-74" d="M 2706 3500 
L 2619 3053 
L 1472 3053 
L 1100 1153 
Q 1081 1047 1072 975 
Q 1063 903 1063 863 
Q 1063 663 1183 572 
Q 1303 481 1569 481 
L 2150 481 
L 2053 0 
L 1503 0 
Q 991 0 739 200 
Q 488 400 488 806 
Q 488 878 497 964 
Q 506 1050 525 1153 
L 897 3053 
L 409 3053 
L 500 3500 
L 978 3500 
L 1172 4494 
L 1747 4494 
L 1556 3500 
L 2706 3500 
z
" transform="scale(0.015625)"/>
      </defs>
      <use xlink:href="#DejaVuSans-6d" transform="translate(0 0.578125)"/>
      <use xlink:href="#DejaVuSans-61" transform="translate(97.412109 0.578125)"/>
      <use xlink:href="#DejaVuSans-78" transform="translate(158.691406 0.578125)"/>
      <use xlink:href="#DejaVuSans-7c" transform="translate(217.871094 0.578125)"/>
      <use xlink:href="#DejaVuSans-Oblique-47" transform="translate(251.5625 0.578125)"/>
      <use xlink:href="#DejaVuSans-28" transform="translate(329.052734 0.578125)"/>
      <use xlink:href="#DejaVuSans-Oblique-3c4" transform="translate(368.066406 0.578125)"/>
      <use xlink:href="#DejaVuSans-29" transform="translate(428.271484 0.578125)"/>
      <use xlink:href="#DejaVuSans-2212" transform="translate(486.767578 0.578125)"/>
      <use xlink:href="#DejaVuSans-Oblique-47" transform="translate(590.039062 0.578125)"/>
      <use xlink:href="#DejaVuSans-Oblique-65" transform="translate(667.529297 -15.828125) scale(0.7)"/>
      <use xlink:href="#DejaVuSans-Oblique-78" transform="translate(710.595703 -15.828125) scale(0.7)"/>
      <use xlink:href="#DejaVuSans-Oblique-61" transform="translate(752.021484 -15.828125) scale(0.7)"/>
      <use xlink:href="#DejaVuSans-Oblique-63" transform="translate(794.916992 -15.828125) scale(0.7)"/>
      <use xlink:href="#DejaVuSans-Oblique-74" transform="translate(833.40332 -15.828125) scale(0.7)"/>
      <use xlink:href="#DejaVuSans-28" transform="translate(863.583984 0.578125)"/>
      <use xlink:href="#DejaVuSans-Oblique-3c4" transform="translate(902.597656 0.578125)"/>
      <use xlink:href="#DejaVuSans-29" transform="translate(962.802734 0.578125)"/>
      <use xlink:href="#DejaVuSans-7c" transform="translate(1001.816406 0.578125)"/>
     </g>
    </g>
   </g>
   <g id="line2d_67"/>
   <g id="line2d_68">
    <defs>
     <path id="mea46ca996e" d="M -3 3 
L 3 -3 
M -3 -3 
L 3 3 
" style="stroke: #1f77b4"/>
    </defs>
    <g clip-path="url(#p3327f2daa7)">
     <use xlink:href="#mea46ca996e" x="67.201286" y="128.054075" style="fill: #1f77b4; stroke: #1f77b4"/>
     <use xlink:href="#mea46ca996e" x="76.905275" y="78.474638" style="fill: #1f77b4; stroke: #1f77b4"/>
     <use xlink:href="#mea46ca996e" x="97.792432" y="50.137376" style="fill: #1f77b4; stroke: #1f77b4"/>
     <use xlink:href="#mea46ca996e" x="125.814444" y="29.332145" style="fill: #1f77b4; stroke: #1f77b4"/>
     <use xlink:href="#mea46ca996e" x="156.497528" y="21.43078" style="fill: #1f77b4; stroke: #1f77b4"/>
     <use xlink:href="#mea46ca996e" x="201.905353" y="17.536214" style="fill: #1f77b4; stroke: #1f77b4"/>
     <use xlink:href="#mea46ca996e" x="226.048106" y="17.311534" style="fill: #1f77b4; stroke: #1f77b4"/>
     <use xlink:href="#mea46ca996e" x="254.808381" y="18.449043" style="fill: #1f77b4; stroke: #1f77b4"/>
     <use xlink:href="#mea46ca996e" x="290.969536" y="23.076602" style="fill: #1f77b4; stroke: #1f77b4"/>
     <use xlink:href="#mea46ca996e" x="316.832492" y="31.155776" style="fill: #1f77b4; stroke: #1f77b4"/>
     <use xlink:href="#mea46ca996e" x="354.087171" y="97.044709" style="fill: #1f77b4; stroke: #1f77b4"/>
     <use xlink:href="#mea46ca996e" x="364.533712" y="76.520158" style="fill: #1f77b4; stroke: #1f77b4"/>
     <use xlink:href="#mea46ca996e" x="371.198714" y="128.054078" style="fill: #1f77b4; stroke: #1f77b4"/>
    </g>
   </g>
   <g id="line2d_69">
    <path d="M 67.777884 267.51625 
L 67.780998 101.997375 
L 68.543814 91.40519 
L 69.30663 86.140298 
L 70.069446 83.020231 
L 70.832262 81.06193 
L 71.595079 79.824986 
L 72.357895 79.068672 
L 73.120711 78.642192 
L 73.883527 78.44044 
L 75.409159 78.406047 
L 76.934792 78.474497 
L 78.460424 78.283292 
L 79.22324 78.007897 
L 79.986056 77.5853 
L 80.748872 77.006615 
L 82.274504 75.390046 
L 83.800137 73.246096 
L 86.088585 69.385161 
L 92.191114 58.485406 
L 94.479563 54.830206 
L 96.768011 51.513649 
L 99.056459 48.527738 
L 101.344908 45.847892 
L 103.633356 43.443946 
L 106.684621 40.615301 
L 109.735885 38.156235 
L 112.78715 36.008679 
L 115.838414 34.123467 
L 119.652495 32.073829 
L 123.466576 30.304702 
L 127.280656 28.764138 
L 131.857553 27.16012 
L 137.197266 25.559069 
L 142.536979 24.190361 
L 148.639508 22.855391 
L 155.504853 21.594469 
L 163.133014 20.445224 
L 170.761176 19.523949 
L 179.152153 18.737937 
L 188.305947 18.111231 
L 198.222556 17.655548 
L 209.664798 17.361877 
L 221.869856 17.283269 
L 233.312098 17.433745 
L 243.991524 17.804075 
L 253.908134 18.384019 
L 263.061928 19.147469 
L 271.452905 20.055812 
L 279.843882 21.181195 
L 287.472044 22.422711 
L 294.337389 23.767648 
L 299.677102 25.014918 
L 304.253999 26.27312 
L 308.830895 27.762468 
L 312.644976 29.232393 
L 316.459057 30.968902 
L 319.510321 32.597378 
L 322.561586 34.487882 
L 325.61285 36.697997 
L 327.901299 38.608559 
L 330.189747 40.778019 
L 332.478195 43.253662 
L 334.766644 46.094538 
L 337.055092 49.375565 
L 339.343541 53.193266 
L 340.869173 56.097202 
L 342.394805 59.341111 
L 343.920437 62.979741 
L 345.44607 67.075658 
L 346.971702 71.693959 
L 348.497334 76.883615 
L 350.785783 85.639749 
L 353.074231 94.289177 
L 353.837047 96.475696 
L 354.599863 97.931634 
L 355.362679 98.469528 
L 356.125496 98.037405 
L 356.888312 96.746 
L 357.651128 94.818356 
L 359.939576 87.535261 
L 361.465208 82.930133 
L 362.990841 79.179994 
L 363.753657 77.707554 
L 364.516473 76.542656 
L 365.279289 75.723395 
L 366.042105 75.303992 
L 366.804921 75.366889 
L 367.567738 76.044878 
L 368.330554 77.567974 
L 369.09337 80.380601 
L 369.856186 85.515312 
L 370.619002 96.480488 
L 370.62222 267.51625 
L 370.62222 267.51625 
" clip-path="url(#p3327f2daa7)" style="fill: none; stroke: #1f77b4; stroke-width: 1.5; stroke-linecap: square"/>
   </g>
   <g id="line2d_70"/>
   <g id="line2d_71">
    <defs>
     <path id="madab0238ab" d="M -3 3 
L 3 -3 
M -3 -3 
L 3 3 
" style="stroke: #ff7f0e"/>
    </defs>
    <g clip-path="url(#p3327f2daa7)">
     <use xlink:href="#madab0238ab" x="67.201286" y="128.054075" style="fill: #ff7f0e; stroke: #ff7f0e"/>
     <use xlink:href="#madab0238ab" x="76.905275" y="78.474638" style="fill: #ff7f0e; stroke: #ff7f0e"/>
     <use xlink:href="#madab0238ab" x="97.792432" y="50.137376" style="fill: #ff7f0e; stroke: #ff7f0e"/>
     <use xlink:href="#madab0238ab" x="125.814444" y="29.332145" style="fill: #ff7f0e; stroke: #ff7f0e"/>
     <use xlink:href="#madab0238ab" x="156.497528" y="21.43078" style="fill: #ff7f0e; stroke: #ff7f0e"/>
     <use xlink:href="#madab0238ab" x="201.905353" y="17.536214" style="fill: #ff7f0e; stroke: #ff7f0e"/>
     <use xlink:href="#madab0238ab" x="226.048106" y="17.311534" style="fill: #ff7f0e; stroke: #ff7f0e"/>
     <use xlink:href="#madab0238ab" x="254.808381" y="18.449043" style="fill: #ff7f0e; stroke: #ff7f0e"/>
     <use xlink:href="#madab0238ab" x="290.969536" y="23.076602" style="fill: #ff7f0e; stroke: #ff7f0e"/>
     <use xlink:href="#madab0238ab" x="316.832492" y="31.155776" style="fill: #ff7f0e; stroke: #ff7f0e"/>
     <use xlink:href="#madab0238ab" x="354.087171" y="97.044709" style="fill: #ff7f0e; stroke: #ff7f0e"/>
     <use xlink:href="#madab0238ab" x="364.533712" y="76.520158" style="fill: #ff7f0e; stroke: #ff7f0e"/>
     <use xlink:href="#madab0238ab" x="371.198714" y="128.054078" style="fill: #ff7f0e; stroke: #ff7f0e"/>
    </g>
   </g>
   <g id="line2d_72">
    <path d="M 67.777884 267.51625 
L 67.780998 101.997375 
L 68.543814 91.40519 
L 69.30663 86.140298 
L 70.069446 83.020231 
L 70.832262 81.06193 
L 71.595079 79.824986 
L 72.357895 79.068672 
L 73.120711 78.642192 
L 73.883527 78.44044 
L 75.409159 78.406047 
L 76.934792 78.474497 
L 78.460424 78.283292 
L 79.22324 78.007897 
L 79.986056 77.5853 
L 80.748872 77.006615 
L 82.274504 75.390046 
L 83.800137 73.246096 
L 86.088585 69.385161 
L 92.191114 58.485406 
L 94.479563 54.830206 
L 96.768011 51.513649 
L 99.056459 48.527738 
L 101.344908 45.847892 
L 103.633356 43.443946 
L 106.684621 40.615301 
L 109.735885 38.156235 
L 112.78715 36.008679 
L 115.838414 34.123467 
L 119.652495 32.073829 
L 123.466576 30.304702 
L 127.280656 28.764138 
L 131.857553 27.16012 
L 137.197266 25.559069 
L 142.536979 24.190361 
L 148.639508 22.855391 
L 155.504853 21.594469 
L 163.133014 20.445224 
L 170.761176 19.523949 
L 179.152153 18.737937 
L 188.305947 18.111231 
L 198.222556 17.655548 
L 209.664798 17.361877 
L 221.869856 17.283269 
L 233.312098 17.433745 
L 243.991524 17.804075 
L 253.908134 18.384019 
L 263.061928 19.147469 
L 271.452905 20.055812 
L 279.843882 21.181195 
L 287.472044 22.422711 
L 294.337389 23.767648 
L 299.677102 25.014918 
L 304.253999 26.27312 
L 308.830895 27.762468 
L 312.644976 29.232393 
L 316.459057 30.968902 
L 319.510321 32.597378 
L 322.561586 34.487882 
L 325.61285 36.697997 
L 327.901299 38.608559 
L 330.189747 40.778019 
L 332.478195 43.253662 
L 334.766644 46.094538 
L 337.055092 49.375565 
L 339.343541 53.193266 
L 340.869173 56.097202 
L 342.394805 59.341111 
L 343.920437 62.979741 
L 345.44607 67.075658 
L 346.971702 71.693959 
L 348.497334 76.883615 
L 350.785783 85.639749 
L 353.074231 94.289177 
L 353.837047 96.475696 
L 354.599863 97.931634 
L 355.362679 98.469528 
L 356.125496 98.037405 
L 356.888312 96.746 
L 357.651128 94.818356 
L 359.939576 87.535261 
L 361.465208 82.930133 
L 362.990841 79.179994 
L 363.753657 77.707554 
L 364.516473 76.542656 
L 365.279289 75.723395 
L 366.042105 75.303992 
L 366.804921 75.366889 
L 367.567738 76.044878 
L 368.330554 77.567974 
L 369.09337 80.380601 
L 369.856186 85.515312 
L 370.619002 96.480488 
L 370.62222 267.51625 
L 370.62222 267.51625 
" clip-path="url(#p3327f2daa7)" style="fill: none; stroke-dasharray: 1.5,2.475; stroke-dashoffset: 0; stroke: #ff7f0e; stroke-width: 1.5"/>
   </g>
   <g id="line2d_73"/>
   <g id="line2d_74">
    <defs>
     <path id="mcfb78814ca" d="M -3 3 
L 3 -3 
M -3 -3 
L 3 3 
" style="stroke: #2ca02c"/>
    </defs>
    <g clip-path="url(#p3327f2daa7)">
     <use xlink:href="#mcfb78814ca" x="67.201286" y="148.585362" style="fill: #2ca02c; stroke: #2ca02c"/>
     <use xlink:href="#mcfb78814ca" x="76.905275" y="102.44217" style="fill: #2ca02c; stroke: #2ca02c"/>
     <use xlink:href="#mcfb78814ca" x="97.792432" y="69.198983" style="fill: #2ca02c; stroke: #2ca02c"/>
     <use xlink:href="#mcfb78814ca" x="125.814444" y="49.854113" style="fill: #2ca02c; stroke: #2ca02c"/>
     <use xlink:href="#mcfb78814ca" x="156.497528" y="42.175252" style="fill: #2ca02c; stroke: #2ca02c"/>
     <use xlink:href="#mcfb78814ca" x="201.905353" y="38.157376" style="fill: #2ca02c; stroke: #2ca02c"/>
     <use xlink:href="#mcfb78814ca" x="226.048106" y="37.916255" style="fill: #2ca02c; stroke: #2ca02c"/>
     <use xlink:href="#mcfb78814ca" x="254.808381" y="39.124246" style="fill: #2ca02c; stroke: #2ca02c"/>
     <use xlink:href="#mcfb78814ca" x="290.969536" y="43.810579" style="fill: #2ca02c; stroke: #2ca02c"/>
     <use xlink:href="#mcfb78814ca" x="316.832492" y="51.584606" style="fill: #2ca02c; stroke: #2ca02c"/>
     <use xlink:href="#mcfb78814ca" x="354.087171" y="105.51065" style="fill: #2ca02c; stroke: #2ca02c"/>
     <use xlink:href="#mcfb78814ca" x="364.533712" y="98.744464" style="fill: #2ca02c; stroke: #2ca02c"/>
     <use xlink:href="#mcfb78814ca" x="371.198714" y="148.585056" style="fill: #2ca02c; stroke: #2ca02c"/>
    </g>
   </g>
   <g id="line2d_75">
    <path d="M 67.018182 179.055643 
L 67.780998 127.404079 
L 68.543814 117.604278 
L 69.30663 112.592759 
L 70.069446 109.566051 
L 70.832262 107.611179 
L 71.595079 106.305554 
L 72.357895 105.411159 
L 73.120711 104.774634 
L 74.646343 103.865644 
L 76.171975 102.97601 
L 77.697608 101.747176 
L 79.22324 100.014315 
L 80.748872 97.778382 
L 82.274504 95.150637 
L 85.325769 89.322524 
L 89.13985 82.135139 
L 91.428298 78.217169 
L 93.716746 74.662 
L 96.005195 71.464146 
L 98.293643 68.598 
L 100.582092 66.030973 
L 102.87054 63.72972 
L 105.921805 61.020994 
L 108.973069 58.663279 
L 112.024334 56.600461 
L 115.075598 54.785521 
L 118.889679 52.806386 
L 122.703759 51.091565 
L 127.280656 49.314096 
L 131.857553 47.781265 
L 137.197266 46.237763 
L 143.299795 44.73001 
L 150.16514 43.295187 
L 157.030485 42.088983 
L 164.658647 40.978075 
L 173.049624 39.999883 
L 181.440602 39.24512 
L 190.594395 38.640734 
L 200.511005 38.202991 
L 211.190431 37.944204 
L 222.632673 37.888203 
L 233.312098 38.049468 
L 243.228708 38.409094 
L 252.382502 38.946169 
L 261.536295 39.700469 
L 270.690089 40.686221 
L 279.081066 41.806344 
L 286.709228 43.027562 
L 293.574573 44.332306 
L 299.677102 45.712085 
L 305.016815 47.153809 
L 309.593712 48.626178 
L 313.407792 50.071897 
L 317.221873 51.771556 
L 320.273137 53.358102 
L 323.324402 55.191473 
L 326.375666 57.323484 
L 328.664115 59.156579 
L 330.952563 61.226469 
L 333.241012 63.572563 
L 335.52946 66.242232 
L 337.817908 69.292554 
L 340.106357 72.791893 
L 342.394805 76.820036 
L 344.683254 81.463063 
L 346.971702 86.791833 
L 349.26015 92.793102 
L 353.074231 103.215922 
L 354.599863 106.48138 
L 355.362679 107.619983 
L 356.125496 108.335323 
L 356.888312 108.592779 
L 357.651128 108.399441 
L 358.413944 107.803685 
L 359.17676 106.884642 
L 360.702392 104.455803 
L 362.990841 100.636401 
L 363.753657 99.593248 
L 364.516473 98.760412 
L 365.279289 98.196562 
L 366.042105 97.971974 
L 366.804921 98.181191 
L 367.567738 98.965526 
L 368.330554 100.559674 
L 369.09337 103.406705 
L 369.856186 108.520969 
L 370.619002 119.290742 
L 370.621792 267.51625 
L 370.621792 267.51625 
" clip-path="url(#p3327f2daa7)" style="fill: none; stroke: #2ca02c; stroke-width: 1.5; stroke-linecap: square"/>
   </g>
   <g id="line2d_76"/>
   <g id="line2d_77">
    <defs>
     <path id="ma4450a2194" d="M -3 3 
L 3 -3 
M -3 -3 
L 3 3 
" style="stroke: #d62728"/>
    </defs>
    <g clip-path="url(#p3327f2daa7)">
     <use xlink:href="#ma4450a2194" x="67.201286" y="207.070657" style="fill: #d62728; stroke: #d62728"/>
     <use xlink:href="#ma4450a2194" x="76.905275" y="139.066629" style="fill: #d62728; stroke: #d62728"/>
     <use xlink:href="#ma4450a2194" x="97.792432" y="136.289038" style="fill: #d62728; stroke: #d62728"/>
     <use xlink:href="#ma4450a2194" x="125.814444" y="119.251318" style="fill: #d62728; stroke: #d62728"/>
     <use xlink:href="#ma4450a2194" x="156.497528" y="98.863418" style="fill: #d62728; stroke: #d62728"/>
     <use xlink:href="#ma4450a2194" x="201.905353" y="89.96797" style="fill: #d62728; stroke: #d62728"/>
     <use xlink:href="#ma4450a2194" x="226.048106" y="89.460666" style="fill: #d62728; stroke: #d62728"/>
     <use xlink:href="#ma4450a2194" x="254.808381" y="92.031674" style="fill: #d62728; stroke: #d62728"/>
     <use xlink:href="#ma4450a2194" x="290.969536" y="102.746045" style="fill: #d62728; stroke: #d62728"/>
     <use xlink:href="#ma4450a2194" x="316.832492" y="125.090727" style="fill: #d62728; stroke: #d62728"/>
     <use xlink:href="#ma4450a2194" x="354.087171" y="132.96562" style="fill: #d62728; stroke: #d62728"/>
     <use xlink:href="#ma4450a2194" x="364.533712" y="144.368126" style="fill: #d62728; stroke: #d62728"/>
     <use xlink:href="#ma4450a2194" x="371.198714" y="207.079726" style="fill: #d62728; stroke: #d62728"/>
    </g>
   </g>
   <g id="line2d_78">
    <path d="M 67.018182 201.694489 
L 67.780998 218.88 
L 68.543814 204.254845 
L 69.30663 187.322723 
L 70.069446 175.650419 
L 70.832262 167.220082 
L 71.595079 160.794648 
L 72.357895 155.707612 
L 73.120711 151.572629 
L 73.883527 148.14868 
L 74.646343 145.276171 
L 76.171975 140.773113 
L 77.697608 137.489002 
L 79.22324 135.093546 
L 80.748872 133.379616 
L 82.274504 132.208587 
L 83.800137 131.482625 
L 85.325769 131.12928 
L 86.851401 131.092201 
L 88.377033 131.325061 
L 89.902666 131.78723 
L 91.428298 132.440376 
L 93.716746 133.692241 
L 100.582092 137.861924 
L 102.107724 138.474939 
L 103.633356 138.827 
L 105.158988 138.865092 
L 106.684621 138.558356 
L 108.210253 137.90331 
L 109.735885 136.923506 
L 111.261517 135.663704 
L 113.549966 133.374733 
L 116.60123 129.882509 
L 123.466576 121.805585 
L 127.280656 117.73606 
L 130.331921 114.788807 
L 133.383185 112.117373 
L 136.43445 109.707264 
L 139.485714 107.537852 
L 143.299795 105.130392 
L 147.113876 103.021188 
L 150.927956 101.170976 
L 154.742037 99.544967 
L 159.318934 97.847433 
L 163.89583 96.385272 
L 169.235543 94.929039 
L 174.575256 93.698714 
L 180.677785 92.525456 
L 186.780314 91.565537 
L 193.64566 90.710217 
L 200.511005 90.0722 
L 207.37635 89.63952 
L 215.004511 89.392078 
L 222.632673 89.385924 
L 230.260834 89.618643 
L 237.888995 90.090218 
L 245.517157 90.805909 
L 252.382502 91.671525 
L 259.247847 92.771197 
L 265.350376 93.977602 
L 270.690089 95.24483 
L 276.029802 96.751313 
L 280.606699 98.27265 
L 285.183595 100.050322 
L 288.997676 101.76447 
L 292.811757 103.728229 
L 296.625837 105.98396 
L 299.677102 108.031898 
L 302.728366 110.327454 
L 305.779631 112.902886 
L 308.830895 115.792744 
L 311.88216 119.031301 
L 314.933424 122.646222 
L 317.984689 126.644265 
L 321.79877 132.103317 
L 327.138483 139.842672 
L 328.664115 141.755768 
L 330.189747 143.36214 
L 331.715379 144.557859 
L 332.478195 144.974567 
L 333.241012 145.260814 
L 334.003828 145.413409 
L 334.766644 145.432836 
L 335.52946 145.323265 
L 337.055092 144.750269 
L 338.580725 143.78515 
L 340.106357 142.54138 
L 343.157621 139.665411 
L 346.208886 136.865193 
L 348.497334 135.112216 
L 350.022967 134.188145 
L 351.548599 133.499522 
L 353.074231 133.07922 
L 354.599863 132.962836 
L 356.125496 133.192376 
L 357.651128 133.820751 
L 359.17676 134.918 
L 359.939576 135.671263 
L 360.702392 136.58084 
L 361.465208 137.66559 
L 362.228025 138.948653 
L 362.990841 140.45884 
L 363.753657 142.232607 
L 364.516473 144.316984 
L 365.279289 146.774042 
L 366.042105 149.687988 
L 366.804921 153.177014 
L 367.567738 157.414247 
L 368.330554 162.667778 
L 369.09337 169.385031 
L 369.856186 178.396554 
L 370.619002 191.515479 
L 371.381818 213.87809 
L 371.381818 213.87809 
" clip-path="url(#p3327f2daa7)" style="fill: none; stroke: #d62728; stroke-width: 1.5; stroke-linecap: square"/>
   </g>
   <g id="line2d_79"/>
   <g id="patch_3">
    <path d="M 51.8 228.96 
L 51.8 7.2 
" style="fill: none; stroke: #000000; stroke-width: 0.8; stroke-linejoin: miter; stroke-linecap: square"/>
   </g>
   <g id="patch_4">
    <path d="M 386.6 228.96 
L 386.6 7.2 
" style="fill: none; stroke: #000000; stroke-width: 0.8; stroke-linejoin: miter; stroke-linecap: square"/>
   </g>
   <g id="patch_5">
    <path d="M 51.8 228.96 
L 386.6 228.96 
" style="fill: none; stroke: #000000; stroke-width: 0.8; stroke-linejoin: miter; stroke-linecap: square"/>
   </g>
   <g id="patch_6">
    <path d="M 51.8 7.2 
L 386.6 7.2 
" style="fill: none; stroke: #000000; stroke-width: 0.8; stroke-linejoin: miter; stroke-linecap: square"/>
   </g>
   <g id="legend_1">
    <g id="patch_7">
     <path d="M 184.219531 223.96 
L 254.180469 223.96 
Q 256.180469 223.96 256.180469 221.96 
L 256.180469 164.2475 
Q 256.180469 162.2475 254.180469 162.2475 
L 184.219531 162.2475 
Q 182.219531 162.2475 182.219531 164.2475 
L 182.219531 221.96 
Q 182.219531 223.96 184.219531 223.96 
z
" style="fill: #ffffff; opacity: 0.8; stroke: #cccccc; stroke-linejoin: miter"/>
    </g>
    <g id="line2d_80">
     <path d="M 186.219531 170.345937 
L 196.219531 170.345937 
L 206.219531 170.345937 
" style="fill: none; stroke: #1f77b4; stroke-width: 1.5; stroke-linecap: square"/>
     <g>
      <use xlink:href="#mea46ca996e" x="196.219531" y="170.345937" style="fill: #1f77b4; stroke: #1f77b4"/>
     </g>
    </g>
    <g id="text_14">
     <!-- Order 1 -->
     <g transform="translate(214.219531 173.845937) scale(0.1 -0.1)">
      <defs>
       <path id="DejaVuSans-4f" d="M 2522 4238 
Q 1834 4238 1429 3725 
Q 1025 3213 1025 2328 
Q 1025 1447 1429 934 
Q 1834 422 2522 422 
Q 3209 422 3611 934 
Q 4013 1447 4013 2328 
Q 4013 3213 3611 3725 
Q 3209 4238 2522 4238 
z
M 2522 4750 
Q 3503 4750 4090 4092 
Q 4678 3434 4678 2328 
Q 4678 1225 4090 567 
Q 3503 -91 2522 -91 
Q 1538 -91 948 565 
Q 359 1222 359 2328 
Q 359 3434 948 4092 
Q 1538 4750 2522 4750 
z
" transform="scale(0.015625)"/>
       <path id="DejaVuSans-72" d="M 2631 2963 
Q 2534 3019 2420 3045 
Q 2306 3072 2169 3072 
Q 1681 3072 1420 2755 
Q 1159 2438 1159 1844 
L 1159 0 
L 581 0 
L 581 3500 
L 1159 3500 
L 1159 2956 
Q 1341 3275 1631 3429 
Q 1922 3584 2338 3584 
Q 2397 3584 2469 3576 
Q 2541 3569 2628 3553 
L 2631 2963 
z
" transform="scale(0.015625)"/>
       <path id="DejaVuSans-64" d="M 2906 2969 
L 2906 4863 
L 3481 4863 
L 3481 0 
L 2906 0 
L 2906 525 
Q 2725 213 2448 61 
Q 2172 -91 1784 -91 
Q 1150 -91 751 415 
Q 353 922 353 1747 
Q 353 2572 751 3078 
Q 1150 3584 1784 3584 
Q 2172 3584 2448 3432 
Q 2725 3281 2906 2969 
z
M 947 1747 
Q 947 1113 1208 752 
Q 1469 391 1925 391 
Q 2381 391 2643 752 
Q 2906 1113 2906 1747 
Q 2906 2381 2643 2742 
Q 2381 3103 1925 3103 
Q 1469 3103 1208 2742 
Q 947 2381 947 1747 
z
" transform="scale(0.015625)"/>
       <path id="DejaVuSans-65" d="M 3597 1894 
L 3597 1613 
L 953 1613 
Q 991 1019 1311 708 
Q 1631 397 2203 397 
Q 2534 397 2845 478 
Q 3156 559 3463 722 
L 3463 178 
Q 3153 47 2828 -22 
Q 2503 -91 2169 -91 
Q 1331 -91 842 396 
Q 353 884 353 1716 
Q 353 2575 817 3079 
Q 1281 3584 2069 3584 
Q 2775 3584 3186 3129 
Q 3597 2675 3597 1894 
z
M 3022 2063 
Q 3016 2534 2758 2815 
Q 2500 3097 2075 3097 
Q 1594 3097 1305 2825 
Q 1016 2553 972 2059 
L 3022 2063 
z
" transform="scale(0.015625)"/>
       <path id="DejaVuSans-20" transform="scale(0.015625)"/>
      </defs>
      <use xlink:href="#DejaVuSans-4f"/>
      <use xlink:href="#DejaVuSans-72" transform="translate(78.710938 0)"/>
      <use xlink:href="#DejaVuSans-64" transform="translate(118.074219 0)"/>
      <use xlink:href="#DejaVuSans-65" transform="translate(181.550781 0)"/>
      <use xlink:href="#DejaVuSans-72" transform="translate(243.074219 0)"/>
      <use xlink:href="#DejaVuSans-20" transform="translate(284.1875 0)"/>
      <use xlink:href="#DejaVuSans-31" transform="translate(315.974609 0)"/>
     </g>
    </g>
    <g id="line2d_81">
     <path d="M 186.219531 185.024062 
L 196.219531 185.024062 
L 206.219531 185.024062 
" style="fill: none; stroke-dasharray: 1.5,2.475; stroke-dashoffset: 0; stroke: #ff7f0e; stroke-width: 1.5"/>
     <g>
      <use xlink:href="#madab0238ab" x="196.219531" y="185.024062" style="fill: #ff7f0e; stroke: #ff7f0e"/>
     </g>
    </g>
    <g id="text_15">
     <!-- Order 2 -->
     <g transform="translate(214.219531 188.524062) scale(0.1 -0.1)">
      <use xlink:href="#DejaVuSans-4f"/>
      <use xlink:href="#DejaVuSans-72" transform="translate(78.710938 0)"/>
      <use xlink:href="#DejaVuSans-64" transform="translate(118.074219 0)"/>
      <use xlink:href="#DejaVuSans-65" transform="translate(181.550781 0)"/>
      <use xlink:href="#DejaVuSans-72" transform="translate(243.074219 0)"/>
      <use xlink:href="#DejaVuSans-20" transform="translate(284.1875 0)"/>
      <use xlink:href="#DejaVuSans-32" transform="translate(315.974609 0)"/>
     </g>
    </g>
    <g id="line2d_82">
     <path d="M 186.219531 199.702187 
L 196.219531 199.702187 
L 206.219531 199.702187 
" style="fill: none; stroke: #2ca02c; stroke-width: 1.5; stroke-linecap: square"/>
     <g>
      <use xlink:href="#mcfb78814ca" x="196.219531" y="199.702187" style="fill: #2ca02c; stroke: #2ca02c"/>
     </g>
    </g>
    <g id="text_16">
     <!-- Order 3 -->
     <g transform="translate(214.219531 203.202187) scale(0.1 -0.1)">
      <use xlink:href="#DejaVuSans-4f"/>
      <use xlink:href="#DejaVuSans-72" transform="translate(78.710938 0)"/>
      <use xlink:href="#DejaVuSans-64" transform="translate(118.074219 0)"/>
      <use xlink:href="#DejaVuSans-65" transform="translate(181.550781 0)"/>
      <use xlink:href="#DejaVuSans-72" transform="translate(243.074219 0)"/>
      <use xlink:href="#DejaVuSans-20" transform="translate(284.1875 0)"/>
      <use xlink:href="#DejaVuSans-33" transform="translate(315.974609 0)"/>
     </g>
    </g>
    <g id="line2d_83">
     <path d="M 186.219531 214.380312 
L 196.219531 214.380312 
L 206.219531 214.380312 
" style="fill: none; stroke: #d62728; stroke-width: 1.5; stroke-linecap: square"/>
     <g>
      <use xlink:href="#ma4450a2194" x="196.219531" y="214.380312" style="fill: #d62728; stroke: #d62728"/>
     </g>
    </g>
    <g id="text_17">
     <!-- Order 4 -->
     <g transform="translate(214.219531 217.880312) scale(0.1 -0.1)">
      <use xlink:href="#DejaVuSans-4f"/>
      <use xlink:href="#DejaVuSans-72" transform="translate(78.710938 0)"/>
      <use xlink:href="#DejaVuSans-64" transform="translate(118.074219 0)"/>
      <use xlink:href="#DejaVuSans-65" transform="translate(181.550781 0)"/>
      <use xlink:href="#DejaVuSans-72" transform="translate(243.074219 0)"/>
      <use xlink:href="#DejaVuSans-20" transform="translate(284.1875 0)"/>
      <use xlink:href="#DejaVuSans-34" transform="translate(315.974609 0)"/>
     </g>
    </g>
   </g>
  </g>
 </g>
 <defs>
  <clipPath id="p3327f2daa7">
   <rect x="51.8" y="7.2" width="334.8" height="221.76"/>
  </clipPath>
 </defs>
</svg>
