<?xml version="1.0" encoding="utf-8" standalone="no"?>
<!DOCTYPE svg PUBLIC "-//W3C//DTD SVG 1.1//EN"
  "http://www.w3.org/Graphics/SVG/1.1/DTD/svg11.dtd">
<svg xmlns:xlink="http://www.w3.org/1999/xlink" width="422.940938pt" height="351.99625pt" viewBox="0 0 422.940938 351.99625" xmlns="http://www.w3.org/2000/svg" version="1.1">
 <metadata>
  <rdf:RDF xmlns:dc="http://purl.org/dc/elements/1.1/" xmlns:cc="http://creativecommons.org/ns#" xmlns:rdf="http://www.w3.org/1999/02/22-rdf-syntax-ns#">
   <cc:Work>
    <dc:type rdf:resource="http://purl.org/dc/dcmitype/StillImage"/>
    <dc:date>2025-07-20T23:59:10.943305</dc:date>
    <dc:format>image/svg+xml</dc:format>
    <dc:creator>
     <cc:Agent>
      <dc:title>Matplotlib v3.10.3, https://matplotlib.org/</dc:title>
     </cc:Agent>
    </dc:creator>
   </cc:Work>
  </rdf:RDF>
 </metadata>
 <defs>
  <style type="text/css">*{stroke-linejoin: round; stroke-linecap: butt}</style>
 </defs>
 <g id="figure_1">
  <g id="patch_1">
   <path d="M 0 351.99625 
L 422.940938 351.99625 
L 422.940938 0 
L 0 0 
z
" style="fill: #ffffff"/>
  </g>
  <g id="axes_1">
   <g id="patch_2">
    <path d="M 52.160938 139.84 
L 415.740937 139.84 
L 415.740937 7.2 
L 52.160938 7.2 
z
" style="fill: #ffffff"/>
   </g>
   <g id="matplotlib.axis_1">
    <g id="xtick_1">
     <g id="line2d_1">
      <defs>
       <path id="m8c994b52a9" d="M 0 0 
L 0 3.5 
" style="stroke: #000000; stroke-width: 0.8"/>
      </defs>
      <g>
       <use xlink:href="#m8c994b52a9" x="68.687301" y="139.84" style="stroke: #000000; stroke-width: 0.8"/>
      </g>
     </g>
     <g id="text_1">
      <!-- 0 -->
      <g transform="translate(65.506051 154.438437) scale(0.1 -0.1)">
       <defs>
        <path id="DejaVuSans-30" d="M 2034 4250 
Q 1547 4250 1301 3770 
Q 1056 3291 1056 2328 
Q 1056 1369 1301 889 
Q 1547 409 2034 409 
Q 2525 409 2770 889 
Q 3016 1369 3016 2328 
Q 3016 3291 2770 3770 
Q 2525 4250 2034 4250 
z
M 2034 4750 
Q 2819 4750 3233 4129 
Q 3647 3509 3647 2328 
Q 3647 1150 3233 529 
Q 2819 -91 2034 -91 
Q 1250 -91 836 529 
Q 422 1150 422 2328 
Q 422 3509 836 4129 
Q 1250 4750 2034 4750 
z
" transform="scale(0.015625)"/>
       </defs>
       <use xlink:href="#DejaVuSans-30"/>
      </g>
     </g>
    </g>
    <g id="xtick_2">
     <g id="line2d_2">
      <g>
       <use xlink:href="#m8c994b52a9" x="134.792756" y="139.84" style="stroke: #000000; stroke-width: 0.8"/>
      </g>
     </g>
     <g id="text_2">
      <!-- 1 -->
      <g transform="translate(131.611506 154.438437) scale(0.1 -0.1)">
       <defs>
        <path id="DejaVuSans-31" d="M 794 531 
L 1825 531 
L 1825 4091 
L 703 3866 
L 703 4441 
L 1819 4666 
L 2450 4666 
L 2450 531 
L 3481 531 
L 3481 0 
L 794 0 
L 794 531 
z
" transform="scale(0.015625)"/>
       </defs>
       <use xlink:href="#DejaVuSans-31"/>
      </g>
     </g>
    </g>
    <g id="xtick_3">
     <g id="line2d_3">
      <g>
       <use xlink:href="#m8c994b52a9" x="200.89821" y="139.84" style="stroke: #000000; stroke-width: 0.8"/>
      </g>
     </g>
     <g id="text_3">
      <!-- 2 -->
      <g transform="translate(197.71696 154.438437) scale(0.1 -0.1)">
       <defs>
        <path id="DejaVuSans-32" d="M 1228 531 
L 3431 531 
L 3431 0 
L 469 0 
L 469 531 
Q 828 903 1448 1529 
Q 2069 2156 2228 2338 
Q 2531 2678 2651 2914 
Q 2772 3150 2772 3378 
Q 2772 3750 2511 3984 
Q 2250 4219 1831 4219 
Q 1534 4219 1204 4116 
Q 875 4013 500 3803 
L 500 4441 
Q 881 4594 1212 4672 
Q 1544 4750 1819 4750 
Q 2544 4750 2975 4387 
Q 3406 4025 3406 3419 
Q 3406 3131 3298 2873 
Q 3191 2616 2906 2266 
Q 2828 2175 2409 1742 
Q 1991 1309 1228 531 
z
" transform="scale(0.015625)"/>
       </defs>
       <use xlink:href="#DejaVuSans-32"/>
      </g>
     </g>
    </g>
    <g id="xtick_4">
     <g id="line2d_4">
      <g>
       <use xlink:href="#m8c994b52a9" x="267.003665" y="139.84" style="stroke: #000000; stroke-width: 0.8"/>
      </g>
     </g>
     <g id="text_4">
      <!-- 3 -->
      <g transform="translate(263.822415 154.438437) scale(0.1 -0.1)">
       <defs>
        <path id="DejaVuSans-33" d="M 2597 2516 
Q 3050 2419 3304 2112 
Q 3559 1806 3559 1356 
Q 3559 666 3084 287 
Q 2609 -91 1734 -91 
Q 1441 -91 1130 -33 
Q 819 25 488 141 
L 488 750 
Q 750 597 1062 519 
Q 1375 441 1716 441 
Q 2309 441 2620 675 
Q 2931 909 2931 1356 
Q 2931 1769 2642 2001 
Q 2353 2234 1838 2234 
L 1294 2234 
L 1294 2753 
L 1863 2753 
Q 2328 2753 2575 2939 
Q 2822 3125 2822 3475 
Q 2822 3834 2567 4026 
Q 2313 4219 1838 4219 
Q 1578 4219 1281 4162 
Q 984 4106 628 3988 
L 628 4550 
Q 988 4650 1302 4700 
Q 1616 4750 1894 4750 
Q 2613 4750 3031 4423 
Q 3450 4097 3450 3541 
Q 3450 3153 3228 2886 
Q 3006 2619 2597 2516 
z
" transform="scale(0.015625)"/>
       </defs>
       <use xlink:href="#DejaVuSans-33"/>
      </g>
     </g>
    </g>
    <g id="xtick_5">
     <g id="line2d_5">
      <g>
       <use xlink:href="#m8c994b52a9" x="333.109119" y="139.84" style="stroke: #000000; stroke-width: 0.8"/>
      </g>
     </g>
     <g id="text_5">
      <!-- 4 -->
      <g transform="translate(329.927869 154.438437) scale(0.1 -0.1)">
       <defs>
        <path id="DejaVuSans-34" d="M 2419 4116 
L 825 1625 
L 2419 1625 
L 2419 4116 
z
M 2253 4666 
L 3047 4666 
L 3047 1625 
L 3713 1625 
L 3713 1100 
L 3047 1100 
L 3047 0 
L 2419 0 
L 2419 1100 
L 313 1100 
L 313 1709 
L 2253 4666 
z
" transform="scale(0.015625)"/>
       </defs>
       <use xlink:href="#DejaVuSans-34"/>
      </g>
     </g>
    </g>
    <g id="xtick_6">
     <g id="line2d_6">
      <g>
       <use xlink:href="#m8c994b52a9" x="399.214574" y="139.84" style="stroke: #000000; stroke-width: 0.8"/>
      </g>
     </g>
     <g id="text_6">
      <!-- 5 -->
      <g transform="translate(396.033324 154.438437) scale(0.1 -0.1)">
       <defs>
        <path id="DejaVuSans-35" d="M 691 4666 
L 3169 4666 
L 3169 4134 
L 1269 4134 
L 1269 2991 
Q 1406 3038 1543 3061 
Q 1681 3084 1819 3084 
Q 2600 3084 3056 2656 
Q 3513 2228 3513 1497 
Q 3513 744 3044 326 
Q 2575 -91 1722 -91 
Q 1428 -91 1123 -41 
Q 819 9 494 109 
L 494 744 
Q 775 591 1075 516 
Q 1375 441 1709 441 
Q 2250 441 2565 725 
Q 2881 1009 2881 1497 
Q 2881 1984 2565 2268 
Q 2250 2553 1709 2553 
Q 1456 2553 1204 2497 
Q 953 2441 691 2322 
L 691 4666 
z
" transform="scale(0.015625)"/>
       </defs>
       <use xlink:href="#DejaVuSans-35"/>
      </g>
     </g>
    </g>
    <g id="text_7">
     <!-- $\tau$ -->
     <g transform="translate(230.900937 168.116562) scale(0.1 -0.1)">
      <defs>
       <path id="DejaVuSans-Oblique-3c4" d="M 2103 638 
Q 2188 488 2525 488 
L 2800 488 
L 2706 0 
L 2363 0 
Q 1800 0 1600 300 
Q 1403 606 1534 1269 
L 1856 2925 
L 541 2925 
L 653 3500 
L 3881 3500 
L 3769 2925 
L 2444 2925 
L 2113 1234 
Q 2025 781 2103 638 
z
" transform="scale(0.015625)"/>
      </defs>
      <use xlink:href="#DejaVuSans-Oblique-3c4" transform="translate(0 0.3125)"/>
     </g>
    </g>
   </g>
   <g id="matplotlib.axis_2">
    <g id="ytick_1">
     <g id="line2d_7">
      <defs>
       <path id="m9eaa37b77f" d="M 0 0 
L -3.5 0 
" style="stroke: #000000; stroke-width: 0.8"/>
      </defs>
      <g>
       <use xlink:href="#m9eaa37b77f" x="52.160938" y="133.810909" style="stroke: #000000; stroke-width: 0.8"/>
      </g>
     </g>
     <g id="text_8">
      <!-- −0.5 -->
      <g transform="translate(20.878125 137.610128) scale(0.1 -0.1)">
       <defs>
        <path id="DejaVuSans-2212" d="M 678 2272 
L 4684 2272 
L 4684 1741 
L 678 1741 
L 678 2272 
z
" transform="scale(0.015625)"/>
        <path id="DejaVuSans-2e" d="M 684 794 
L 1344 794 
L 1344 0 
L 684 0 
L 684 794 
z
" transform="scale(0.015625)"/>
       </defs>
       <use xlink:href="#DejaVuSans-2212"/>
       <use xlink:href="#DejaVuSans-30" transform="translate(83.789062 0)"/>
       <use xlink:href="#DejaVuSans-2e" transform="translate(147.412109 0)"/>
       <use xlink:href="#DejaVuSans-35" transform="translate(179.199219 0)"/>
      </g>
     </g>
    </g>
    <g id="ytick_2">
     <g id="line2d_8">
      <g>
       <use xlink:href="#m9eaa37b77f" x="52.160938" y="96.26124" style="stroke: #000000; stroke-width: 0.8"/>
      </g>
     </g>
     <g id="text_9">
      <!-- −0.4 -->
      <g transform="translate(20.878125 100.060459) scale(0.1 -0.1)">
       <use xlink:href="#DejaVuSans-2212"/>
       <use xlink:href="#DejaVuSans-30" transform="translate(83.789062 0)"/>
       <use xlink:href="#DejaVuSans-2e" transform="translate(147.412109 0)"/>
       <use xlink:href="#DejaVuSans-34" transform="translate(179.199219 0)"/>
      </g>
     </g>
    </g>
    <g id="ytick_3">
     <g id="line2d_9">
      <g>
       <use xlink:href="#m9eaa37b77f" x="52.160938" y="58.711571" style="stroke: #000000; stroke-width: 0.8"/>
      </g>
     </g>
     <g id="text_10">
      <!-- −0.3 -->
      <g transform="translate(20.878125 62.51079) scale(0.1 -0.1)">
       <use xlink:href="#DejaVuSans-2212"/>
       <use xlink:href="#DejaVuSans-30" transform="translate(83.789062 0)"/>
       <use xlink:href="#DejaVuSans-2e" transform="translate(147.412109 0)"/>
       <use xlink:href="#DejaVuSans-33" transform="translate(179.199219 0)"/>
      </g>
     </g>
    </g>
    <g id="ytick_4">
     <g id="line2d_10">
      <g>
       <use xlink:href="#m9eaa37b77f" x="52.160938" y="21.161902" style="stroke: #000000; stroke-width: 0.8"/>
      </g>
     </g>
     <g id="text_11">
      <!-- −0.2 -->
      <g transform="translate(20.878125 24.961121) scale(0.1 -0.1)">
       <use xlink:href="#DejaVuSans-2212"/>
       <use xlink:href="#DejaVuSans-30" transform="translate(83.789062 0)"/>
       <use xlink:href="#DejaVuSans-2e" transform="translate(147.412109 0)"/>
       <use xlink:href="#DejaVuSans-32" transform="translate(179.199219 0)"/>
      </g>
     </g>
    </g>
    <g id="text_12">
     <!-- $G(\tau)$ -->
     <g transform="translate(14.798438 84.32) rotate(-90) scale(0.1 -0.1)">
      <defs>
       <path id="DejaVuSans-Oblique-47" d="M 3494 697 
L 3738 1919 
L 2700 1919 
L 2797 2438 
L 4453 2438 
L 4050 384 
Q 3634 156 3143 32 
Q 2653 -91 2156 -91 
Q 1278 -91 783 396 
Q 288 884 288 1753 
Q 288 2475 589 3126 
Q 891 3778 1422 4213 
Q 1756 4484 2153 4617 
Q 2550 4750 3034 4750 
Q 3472 4750 3873 4639 
Q 4275 4528 4641 4306 
L 4513 3634 
Q 4231 3928 3853 4083 
Q 3475 4238 3047 4238 
Q 2550 4238 2172 4048 
Q 1794 3859 1497 3463 
Q 1244 3125 1098 2667 
Q 953 2209 953 1734 
Q 953 1081 1287 751 
Q 1622 422 2284 422 
Q 2616 422 2925 492 
Q 3234 563 3494 697 
z
" transform="scale(0.015625)"/>
       <path id="DejaVuSans-28" d="M 1984 4856 
Q 1566 4138 1362 3434 
Q 1159 2731 1159 2009 
Q 1159 1288 1364 580 
Q 1569 -128 1984 -844 
L 1484 -844 
Q 1016 -109 783 600 
Q 550 1309 550 2009 
Q 550 2706 781 3412 
Q 1013 4119 1484 4856 
L 1984 4856 
z
" transform="scale(0.015625)"/>
       <path id="DejaVuSans-29" d="M 513 4856 
L 1013 4856 
Q 1481 4119 1714 3412 
Q 1947 2706 1947 2009 
Q 1947 1309 1714 600 
Q 1481 -109 1013 -844 
L 513 -844 
Q 928 -128 1133 580 
Q 1338 1288 1338 2009 
Q 1338 2731 1133 3434 
Q 928 4138 513 4856 
z
" transform="scale(0.015625)"/>
      </defs>
      <use xlink:href="#DejaVuSans-Oblique-47" transform="translate(0 0.125)"/>
      <use xlink:href="#DejaVuSans-28" transform="translate(77.490234 0.125)"/>
      <use xlink:href="#DejaVuSans-Oblique-3c4" transform="translate(116.503906 0.125)"/>
      <use xlink:href="#DejaVuSans-29" transform="translate(176.708984 0.125)"/>
     </g>
    </g>
   </g>
   <g id="line2d_11"/>
   <g id="line2d_12">
    <defs>
     <path id="m26cce6874d" d="M -3 3 
L 3 -3 
M -3 -3 
L 3 3 
" style="stroke: #1f77b4"/>
    </defs>
    <g clip-path="url(#pd6fc9ed861)">
     <use xlink:href="#m26cce6874d" x="68.786723" y="133.571591" style="fill: #1f77b4; stroke: #1f77b4"/>
     <use xlink:href="#m26cce6874d" x="74.055804" y="121.70505" style="fill: #1f77b4; stroke: #1f77b4"/>
     <use xlink:href="#m26cce6874d" x="82.837118" y="105.022289" style="fill: #1f77b4; stroke: #1f77b4"/>
     <use xlink:href="#m26cce6874d" x="98.306542" y="82.737301" style="fill: #1f77b4; stroke: #1f77b4"/>
     <use xlink:href="#m26cce6874d" x="115.371713" y="65.426473" style="fill: #1f77b4; stroke: #1f77b4"/>
     <use xlink:href="#m26cce6874d" x="141.928457" y="47.942933" style="fill: #1f77b4; stroke: #1f77b4"/>
     <use xlink:href="#m26cce6874d" x="156.011965" y="41.750293" style="fill: #1f77b4; stroke: #1f77b4"/>
     <use xlink:href="#m26cce6874d" x="174.712455" y="35.80822" style="fill: #1f77b4; stroke: #1f77b4"/>
     <use xlink:href="#m26cce6874d" x="205.651303" y="30.208153" style="fill: #1f77b4; stroke: #1f77b4"/>
     <use xlink:href="#m26cce6874d" x="236.50118" y="28.682533" style="fill: #1f77b4; stroke: #1f77b4"/>
     <use xlink:href="#m26cce6874d" x="267.370597" y="30.829145" style="fill: #1f77b4; stroke: #1f77b4"/>
     <use xlink:href="#m26cce6874d" x="309.145974" y="40.730444" style="fill: #1f77b4; stroke: #1f77b4"/>
     <use xlink:href="#m26cce6874d" x="335.917426" y="53.454406" style="fill: #1f77b4; stroke: #1f77b4"/>
     <use xlink:href="#m26cce6874d" x="359.173786" y="71.446998" style="fill: #1f77b4; stroke: #1f77b4"/>
     <use xlink:href="#m26cce6874d" x="372.048482" y="85.780519" style="fill: #1f77b4; stroke: #1f77b4"/>
     <use xlink:href="#m26cce6874d" x="385.064757" y="105.022289" style="fill: #1f77b4; stroke: #1f77b4"/>
     <use xlink:href="#m26cce6874d" x="393.846071" y="121.70505" style="fill: #1f77b4; stroke: #1f77b4"/>
     <use xlink:href="#m26cce6874d" x="399.115152" y="133.571591" style="fill: #1f77b4; stroke: #1f77b4"/>
    </g>
   </g>
   <g id="line2d_13">
    <path d="M 68.687301 133.810909 
L 72.000858 126.148796 
L 75.314414 119.092111 
L 78.627971 112.582626 
L 81.941528 106.568733 
L 85.255084 101.004592 
L 88.568641 95.849413 
L 91.882197 91.066828 
L 95.195754 86.624353 
L 98.509311 82.492921 
L 102.651256 77.726602 
L 106.793202 73.360654 
L 110.935148 69.355546 
L 115.077094 65.676564 
L 119.21904 62.293151 
L 123.360985 59.178353 
L 127.502931 56.308346 
L 132.473266 53.157926 
L 137.443601 50.297758 
L 142.413936 47.70007 
L 147.384271 45.340698 
L 153.182995 42.861362 
L 158.981719 40.648968 
L 164.780443 38.678844 
L 170.579167 36.929897 
L 177.20628 35.178939 
L 183.833394 33.670711 
L 190.460507 32.386354 
L 197.08762 31.310329 
L 204.543123 30.333166 
L 211.998625 29.589546 
L 219.454127 29.06891 
L 226.90963 28.763989 
L 234.365132 28.670571 
L 241.820634 28.787373 
L 249.276137 29.116 
L 256.731639 29.660995 
L 264.187142 30.42998 
L 271.642644 31.433897 
L 278.269757 32.535216 
L 284.896871 33.846643 
L 291.523984 35.384109 
L 298.151097 37.166919 
L 303.949821 38.946292 
L 309.748545 40.949658 
L 315.547269 43.198585 
L 320.517604 45.340698 
L 325.487939 47.70007 
L 330.458274 50.297758 
L 335.428609 53.157926 
L 340.398944 56.308346 
L 344.54089 59.178353 
L 348.682835 62.293151 
L 352.824781 65.676564 
L 356.966727 69.355546 
L 361.108673 73.360654 
L 365.250619 77.726602 
L 368.564175 81.505549 
L 371.877732 85.563401 
L 375.191288 89.925515 
L 378.504845 94.620168 
L 381.818402 99.678949 
L 385.131958 105.137208 
L 388.445515 111.034574 
L 391.759071 117.415562 
L 395.072628 124.330262 
L 398.386185 131.835162 
L 399.214574 133.810909 
L 399.214574 133.810909 
" clip-path="url(#pd6fc9ed861)" style="fill: none; stroke: #1f77b4; stroke-width: 1.5; stroke-linecap: square"/>
   </g>
   <g id="line2d_14"/>
   <g id="line2d_15">
    <defs>
     <path id="m26da6beeae" d="M -3 3 
L 3 -3 
M -3 -3 
L 3 3 
" style="stroke: #ff7f0e"/>
    </defs>
    <g clip-path="url(#pd6fc9ed861)">
     <use xlink:href="#m26da6beeae" x="68.786723" y="133.571591" style="fill: #ff7f0e; stroke: #ff7f0e"/>
     <use xlink:href="#m26da6beeae" x="74.055804" y="121.70505" style="fill: #ff7f0e; stroke: #ff7f0e"/>
     <use xlink:href="#m26da6beeae" x="82.837118" y="105.022289" style="fill: #ff7f0e; stroke: #ff7f0e"/>
     <use xlink:href="#m26da6beeae" x="98.306542" y="82.737301" style="fill: #ff7f0e; stroke: #ff7f0e"/>
     <use xlink:href="#m26da6beeae" x="115.371713" y="65.426473" style="fill: #ff7f0e; stroke: #ff7f0e"/>
     <use xlink:href="#m26da6beeae" x="141.928457" y="47.942933" style="fill: #ff7f0e; stroke: #ff7f0e"/>
     <use xlink:href="#m26da6beeae" x="156.011965" y="41.750293" style="fill: #ff7f0e; stroke: #ff7f0e"/>
     <use xlink:href="#m26da6beeae" x="174.712455" y="35.80822" style="fill: #ff7f0e; stroke: #ff7f0e"/>
     <use xlink:href="#m26da6beeae" x="205.651303" y="30.208153" style="fill: #ff7f0e; stroke: #ff7f0e"/>
     <use xlink:href="#m26da6beeae" x="236.50118" y="28.682533" style="fill: #ff7f0e; stroke: #ff7f0e"/>
     <use xlink:href="#m26da6beeae" x="267.370597" y="30.829145" style="fill: #ff7f0e; stroke: #ff7f0e"/>
     <use xlink:href="#m26da6beeae" x="309.145974" y="40.730444" style="fill: #ff7f0e; stroke: #ff7f0e"/>
     <use xlink:href="#m26da6beeae" x="335.917426" y="53.454406" style="fill: #ff7f0e; stroke: #ff7f0e"/>
     <use xlink:href="#m26da6beeae" x="359.173786" y="71.446998" style="fill: #ff7f0e; stroke: #ff7f0e"/>
     <use xlink:href="#m26da6beeae" x="372.048482" y="85.780519" style="fill: #ff7f0e; stroke: #ff7f0e"/>
     <use xlink:href="#m26da6beeae" x="385.064757" y="105.022289" style="fill: #ff7f0e; stroke: #ff7f0e"/>
     <use xlink:href="#m26da6beeae" x="393.846071" y="121.70505" style="fill: #ff7f0e; stroke: #ff7f0e"/>
     <use xlink:href="#m26da6beeae" x="399.115152" y="133.571591" style="fill: #ff7f0e; stroke: #ff7f0e"/>
    </g>
   </g>
   <g id="line2d_16">
    <path d="M 68.687301 133.810909 
L 72.000858 126.148796 
L 75.314414 119.092111 
L 78.627971 112.582626 
L 81.941528 106.568733 
L 85.255084 101.004592 
L 88.568641 95.849413 
L 91.882197 91.066828 
L 95.195754 86.624353 
L 98.509311 82.492921 
L 102.651256 77.726602 
L 106.793202 73.360654 
L 110.935148 69.355546 
L 115.077094 65.676564 
L 119.21904 62.293151 
L 123.360985 59.178353 
L 127.502931 56.308346 
L 132.473266 53.157926 
L 137.443601 50.297758 
L 142.413936 47.70007 
L 147.384271 45.340698 
L 153.182995 42.861362 
L 158.981719 40.648968 
L 164.780443 38.678844 
L 170.579167 36.929897 
L 177.20628 35.178939 
L 183.833394 33.670711 
L 190.460507 32.386354 
L 197.08762 31.310329 
L 204.543123 30.333166 
L 211.998625 29.589546 
L 219.454127 29.06891 
L 226.90963 28.763989 
L 234.365132 28.670571 
L 241.820634 28.787373 
L 249.276137 29.116 
L 256.731639 29.660995 
L 264.187142 30.42998 
L 271.642644 31.433897 
L 278.269757 32.535216 
L 284.896871 33.846643 
L 291.523984 35.384109 
L 298.151097 37.166919 
L 303.949821 38.946292 
L 309.748545 40.949658 
L 315.547269 43.198585 
L 320.517604 45.340698 
L 325.487939 47.70007 
L 330.458274 50.297758 
L 335.428609 53.157926 
L 340.398944 56.308346 
L 344.54089 59.178353 
L 348.682835 62.293151 
L 352.824781 65.676564 
L 356.966727 69.355546 
L 361.108673 73.360654 
L 365.250619 77.726602 
L 368.564175 81.505549 
L 371.877732 85.563401 
L 375.191288 89.925515 
L 378.504845 94.620168 
L 381.818402 99.678949 
L 385.131958 105.137208 
L 388.445515 111.034574 
L 391.759071 117.415562 
L 395.072628 124.330262 
L 398.386185 131.835162 
L 399.214574 133.810909 
L 399.214574 133.810909 
" clip-path="url(#pd6fc9ed861)" style="fill: none; stroke: #ff7f0e; stroke-width: 1.5; stroke-linecap: square"/>
   </g>
   <g id="line2d_17"/>
   <g id="line2d_18">
    <defs>
     <path id="m5eaafee949" d="M -3 3 
L 3 -3 
M -3 -3 
L 3 3 
" style="stroke: #2ca02c"/>
    </defs>
    <g clip-path="url(#pd6fc9ed861)">
     <use xlink:href="#m5eaafee949" x="68.786723" y="133.586347" style="fill: #2ca02c; stroke: #2ca02c"/>
     <use xlink:href="#m5eaafee949" x="74.055804" y="122.191781" style="fill: #2ca02c; stroke: #2ca02c"/>
     <use xlink:href="#m5eaafee949" x="82.837118" y="105.276256" style="fill: #2ca02c; stroke: #2ca02c"/>
     <use xlink:href="#m5eaafee949" x="98.306542" y="80.935604" style="fill: #2ca02c; stroke: #2ca02c"/>
     <use xlink:href="#m5eaafee949" x="115.371713" y="60.572205" style="fill: #2ca02c; stroke: #2ca02c"/>
     <use xlink:href="#m5eaafee949" x="141.928457" y="38.69852" style="fill: #2ca02c; stroke: #2ca02c"/>
     <use xlink:href="#m5eaafee949" x="156.011965" y="30.65278" style="fill: #2ca02c; stroke: #2ca02c"/>
     <use xlink:href="#m5eaafee949" x="174.712455" y="22.802303" style="fill: #2ca02c; stroke: #2ca02c"/>
     <use xlink:href="#m5eaafee949" x="205.651303" y="15.302691" style="fill: #2ca02c; stroke: #2ca02c"/>
     <use xlink:href="#m5eaafee949" x="236.50118" y="13.245244" style="fill: #2ca02c; stroke: #2ca02c"/>
     <use xlink:href="#m5eaafee949" x="267.370597" y="16.138547" style="fill: #2ca02c; stroke: #2ca02c"/>
     <use xlink:href="#m5eaafee949" x="309.145974" y="29.314044" style="fill: #2ca02c; stroke: #2ca02c"/>
     <use xlink:href="#m5eaafee949" x="335.917426" y="45.732162" style="fill: #2ca02c; stroke: #2ca02c"/>
     <use xlink:href="#m5eaafee949" x="359.173786" y="67.80165" style="fill: #2ca02c; stroke: #2ca02c"/>
     <use xlink:href="#m5eaafee949" x="372.048482" y="84.382012" style="fill: #2ca02c; stroke: #2ca02c"/>
     <use xlink:href="#m5eaafee949" x="385.064757" y="105.276256" style="fill: #2ca02c; stroke: #2ca02c"/>
     <use xlink:href="#m5eaafee949" x="393.846071" y="122.191781" style="fill: #2ca02c; stroke: #2ca02c"/>
     <use xlink:href="#m5eaafee949" x="399.115152" y="133.586347" style="fill: #2ca02c; stroke: #2ca02c"/>
    </g>
   </g>
   <g id="line2d_19">
    <path d="M 68.687301 133.810909 
L 72.829247 124.757027 
L 76.971193 116.299239 
L 81.113138 108.404321 
L 85.255084 101.039053 
L 89.39703 94.170849 
L 93.538976 87.768186 
L 97.680922 81.800894 
L 101.822867 76.240329 
L 105.964813 71.059473 
L 110.106759 66.232967 
L 114.248705 61.737109 
L 118.39065 57.549822 
L 122.532596 53.650594 
L 126.674542 50.020418 
L 130.816488 46.641712 
L 135.786823 42.896437 
L 140.757158 39.464305 
L 145.727493 36.322083 
L 150.697827 33.448775 
L 155.668162 30.82544 
L 160.638497 28.435027 
L 165.608832 26.262214 
L 171.407556 23.984048 
L 177.20628 21.964112 
L 183.005004 20.185542 
L 188.803729 18.633706 
L 194.602453 17.296011 
L 200.401177 16.161735 
L 207.02829 15.103049 
L 213.655403 14.287519 
L 220.282516 13.706865 
L 226.90963 13.355232 
L 233.536743 13.229091 
L 240.163856 13.32718 
L 246.790969 13.650481 
L 253.418083 14.202236 
L 260.045196 14.988005 
L 266.672309 16.015757 
L 273.299422 17.296012 
L 279.098146 18.633707 
L 284.896871 20.185543 
L 290.695595 21.964113 
L 296.494319 23.98405 
L 302.293043 26.262215 
L 307.263378 28.435029 
L 312.233713 30.825442 
L 317.204048 33.448776 
L 322.174382 36.322085 
L 327.144717 39.464306 
L 332.115052 42.896438 
L 337.085387 46.641714 
L 341.227333 50.020419 
L 345.369279 53.650595 
L 349.511225 57.549823 
L 353.65317 61.73711 
L 357.795116 66.232968 
L 361.937062 71.059474 
L 366.079008 76.24033 
L 370.220953 81.800894 
L 374.362899 87.768186 
L 378.504845 94.170849 
L 382.646791 101.039053 
L 386.788737 108.404321 
L 390.930682 116.299239 
L 395.072628 124.757027 
L 399.214574 133.810909 
L 399.214574 133.810909 
" clip-path="url(#pd6fc9ed861)" style="fill: none; stroke: #2ca02c; stroke-width: 1.5; stroke-linecap: square"/>
   </g>
   <g id="line2d_20"/>
   <g id="line2d_21">
    <defs>
     <path id="m76a82414dd" d="M -3 3 
L 3 -3 
M -3 -3 
L 3 3 
" style="stroke: #d62728"/>
    </defs>
    <g clip-path="url(#pd6fc9ed861)">
     <use xlink:href="#m76a82414dd" x="68.786723" y="133.5827" style="fill: #d62728; stroke: #d62728"/>
     <use xlink:href="#m76a82414dd" x="74.055804" y="122.07437" style="fill: #d62728; stroke: #d62728"/>
     <use xlink:href="#m76a82414dd" x="82.837118" y="105.223488" style="fill: #d62728; stroke: #d62728"/>
     <use xlink:href="#m76a82414dd" x="98.306542" y="81.387105" style="fill: #d62728; stroke: #d62728"/>
     <use xlink:href="#m76a82414dd" x="115.371713" y="61.75699" style="fill: #d62728; stroke: #d62728"/>
     <use xlink:href="#m76a82414dd" x="141.928457" y="40.949573" style="fill: #d62728; stroke: #d62728"/>
     <use xlink:href="#m76a82414dd" x="156.011965" y="33.368003" style="fill: #d62728; stroke: #d62728"/>
     <use xlink:href="#m76a82414dd" x="174.712455" y="26.010414" style="fill: #d62728; stroke: #d62728"/>
     <use xlink:href="#m76a82414dd" x="205.651303" y="19.021937" style="fill: #d62728; stroke: #d62728"/>
     <use xlink:href="#m76a82414dd" x="236.50118" y="17.112205" style="fill: #d62728; stroke: #d62728"/>
     <use xlink:href="#m76a82414dd" x="267.370597" y="19.798739" style="fill: #d62728; stroke: #d62728"/>
     <use xlink:href="#m76a82414dd" x="309.145974" y="32.110445" style="fill: #d62728; stroke: #d62728"/>
     <use xlink:href="#m76a82414dd" x="335.917426" y="47.609582" style="fill: #d62728; stroke: #d62728"/>
     <use xlink:href="#m76a82414dd" x="359.173786" y="68.69646" style="fill: #d62728; stroke: #d62728"/>
     <use xlink:href="#m76a82414dd" x="372.048482" y="84.735951" style="fill: #d62728; stroke: #d62728"/>
     <use xlink:href="#m76a82414dd" x="385.064757" y="105.223488" style="fill: #d62728; stroke: #d62728"/>
     <use xlink:href="#m76a82414dd" x="393.846071" y="122.074371" style="fill: #d62728; stroke: #d62728"/>
     <use xlink:href="#m76a82414dd" x="399.115152" y="133.5827" style="fill: #d62728; stroke: #d62728"/>
    </g>
   </g>
   <g id="line2d_22">
    <path d="M 68.687301 133.810909 
L 72.000858 126.428814 
L 75.314414 119.488232 
L 79.45636 111.390318 
L 83.598306 103.886979 
L 87.740252 96.931595 
L 91.882197 90.481583 
L 96.024143 84.49803 
L 100.166089 78.945356 
L 104.308035 73.791026 
L 108.449981 69.005276 
L 112.591926 64.560875 
L 116.733872 60.432905 
L 120.875818 56.598563 
L 125.017764 53.036982 
L 129.159709 49.729063 
L 134.130044 46.069897 
L 139.100379 42.723524 
L 144.070714 39.665329 
L 149.041049 36.873207 
L 154.011384 34.327319 
L 158.981719 32.009876 
L 164.780443 29.57377 
L 170.579167 27.404583 
L 176.377891 25.48271 
L 182.176615 23.79107 
L 187.975339 22.314861 
L 194.602453 20.875315 
L 201.229566 19.684589 
L 207.856679 18.729625 
L 214.483792 18.000068 
L 221.110906 17.488079 
L 227.738019 17.188193 
L 234.365132 17.097225 
L 240.992245 17.21421 
L 247.619359 17.540389 
L 254.246472 18.079228 
L 260.873585 18.836482 
L 267.500698 19.820297 
L 274.127812 21.041354 
L 280.754925 22.513063 
L 286.553649 24.019222 
L 292.352373 25.742796 
L 298.151097 27.698898 
L 303.949821 29.904954 
L 309.748545 32.380952 
L 314.71888 34.735314 
L 319.689215 37.320954 
L 324.65955 40.155985 
L 329.629885 43.26061 
L 334.60022 46.657334 
L 339.570555 50.371216 
L 343.7125 53.72842 
L 347.854446 57.342971 
L 351.996392 61.234309 
L 356.138338 65.423676 
L 360.280284 69.934282 
L 364.422229 74.791492 
L 368.564175 80.023024 
L 372.706121 85.659178 
L 376.848067 91.733074 
L 380.990012 98.280935 
L 385.131958 105.34238 
L 388.445515 111.390319 
L 391.759071 117.818699 
L 395.072628 124.653422 
L 398.386185 131.92236 
L 399.214574 133.810909 
L 399.214574 133.810909 
" clip-path="url(#pd6fc9ed861)" style="fill: none; stroke: #d62728; stroke-width: 1.5; stroke-linecap: square"/>
   </g>
   <g id="line2d_23"/>
   <g id="line2d_24">
    <path d="M 68.687301 133.810909 
L 72.000858 126.432938 
L 75.314414 119.496159 
L 79.45636 111.402334 
L 83.598306 103.902121 
L 87.740252 96.948722 
L 91.882197 90.499435 
L 96.024143 84.515285 
L 100.166089 78.960687 
L 104.308035 73.803138 
L 108.449981 69.012944 
L 112.591926 64.562971 
L 116.733872 60.428412 
L 120.875818 56.586591 
L 125.017764 53.016771 
L 129.159709 49.699988 
L 134.130044 46.029541 
L 139.100379 42.671391 
L 144.070714 39.601126 
L 149.041049 36.796826 
L 154.011384 34.238821 
L 158.981719 31.909471 
L 164.780443 29.459909 
L 170.579167 27.277903 
L 176.377891 25.343994 
L 182.176615 23.64122 
L 187.975339 22.154873 
L 194.602453 20.705059 
L 201.229566 19.50555 
L 207.856679 18.543352 
L 214.483792 17.808153 
L 221.110906 17.292145 
L 227.738019 16.989882 
L 234.365132 16.898189 
L 240.992245 17.016106 
L 247.619359 17.344867 
L 254.246472 17.887929 
L 260.873585 18.651026 
L 267.500698 19.642271 
L 274.127812 20.8723 
L 280.754925 22.354459 
L 286.553649 23.870902 
L 292.352373 25.605746 
L 298.151097 27.574003 
L 303.949821 29.792978 
L 309.748545 32.282509 
L 314.71888 34.648824 
L 319.689215 37.246601 
L 324.65955 40.093804 
L 329.629885 43.210463 
L 334.60022 46.618897 
L 339.570555 50.343956 
L 343.7125 53.70991 
L 347.854446 57.332558 
L 351.996392 61.231208 
L 356.138338 65.42697 
L 360.280284 69.942932 
L 364.422229 74.804347 
L 368.564175 80.038845 
L 372.706121 85.676659 
L 376.848067 91.750885 
L 380.990012 98.297762 
L 385.131958 105.356982 
L 388.445515 111.402334 
L 391.759071 117.82751 
L 395.072628 124.658533 
L 398.386185 131.923413 
L 399.214574 133.810909 
L 399.214574 133.810909 
" clip-path="url(#pd6fc9ed861)" style="fill: none; stroke: #000000; stroke-width: 1.5; stroke-linecap: square"/>
   </g>
   <g id="patch_3">
    <path d="M 52.160938 139.84 
L 52.160938 7.2 
" style="fill: none; stroke: #000000; stroke-width: 0.8; stroke-linejoin: miter; stroke-linecap: square"/>
   </g>
   <g id="patch_4">
    <path d="M 415.740937 139.84 
L 415.740937 7.2 
" style="fill: none; stroke: #000000; stroke-width: 0.8; stroke-linejoin: miter; stroke-linecap: square"/>
   </g>
   <g id="patch_5">
    <path d="M 52.160938 139.84 
L 415.740938 139.84 
" style="fill: none; stroke: #000000; stroke-width: 0.8; stroke-linejoin: miter; stroke-linecap: square"/>
   </g>
   <g id="patch_6">
    <path d="M 52.160938 7.2 
L 415.740938 7.2 
" style="fill: none; stroke: #000000; stroke-width: 0.8; stroke-linejoin: miter; stroke-linecap: square"/>
   </g>
   <g id="legend_1">
    <g id="patch_7">
     <path d="M 198.970469 134.84 
L 268.931406 134.84 
Q 270.931406 134.84 270.931406 132.84 
L 270.931406 60.449375 
Q 270.931406 58.449375 268.931406 58.449375 
L 198.970469 58.449375 
Q 196.970469 58.449375 196.970469 60.449375 
L 196.970469 132.84 
Q 196.970469 134.84 198.970469 134.84 
z
" style="fill: #ffffff; opacity: 0.8; stroke: #cccccc; stroke-linejoin: miter"/>
    </g>
    <g id="line2d_25">
     <path d="M 200.970469 66.547812 
L 210.970469 66.547812 
L 220.970469 66.547812 
" style="fill: none; stroke: #1f77b4; stroke-width: 1.5; stroke-linecap: square"/>
     <g>
      <use xlink:href="#m26cce6874d" x="210.970469" y="66.547812" style="fill: #1f77b4; stroke: #1f77b4"/>
     </g>
    </g>
    <g id="text_13">
     <!-- Order 1 -->
     <g transform="translate(228.970469 70.047812) scale(0.1 -0.1)">
      <defs>
       <path id="DejaVuSans-4f" d="M 2522 4238 
Q 1834 4238 1429 3725 
Q 1025 3213 1025 2328 
Q 1025 1447 1429 934 
Q 1834 422 2522 422 
Q 3209 422 3611 934 
Q 4013 1447 4013 2328 
Q 4013 3213 3611 3725 
Q 3209 4238 2522 4238 
z
M 2522 4750 
Q 3503 4750 4090 4092 
Q 4678 3434 4678 2328 
Q 4678 1225 4090 567 
Q 3503 -91 2522 -91 
Q 1538 -91 948 565 
Q 359 1222 359 2328 
Q 359 3434 948 4092 
Q 1538 4750 2522 4750 
z
" transform="scale(0.015625)"/>
       <path id="DejaVuSans-72" d="M 2631 2963 
Q 2534 3019 2420 3045 
Q 2306 3072 2169 3072 
Q 1681 3072 1420 2755 
Q 1159 2438 1159 1844 
L 1159 0 
L 581 0 
L 581 3500 
L 1159 3500 
L 1159 2956 
Q 1341 3275 1631 3429 
Q 1922 3584 2338 3584 
Q 2397 3584 2469 3576 
Q 2541 3569 2628 3553 
L 2631 2963 
z
" transform="scale(0.015625)"/>
       <path id="DejaVuSans-64" d="M 2906 2969 
L 2906 4863 
L 3481 4863 
L 3481 0 
L 2906 0 
L 2906 525 
Q 2725 213 2448 61 
Q 2172 -91 1784 -91 
Q 1150 -91 751 415 
Q 353 922 353 1747 
Q 353 2572 751 3078 
Q 1150 3584 1784 3584 
Q 2172 3584 2448 3432 
Q 2725 3281 2906 2969 
z
M 947 1747 
Q 947 1113 1208 752 
Q 1469 391 1925 391 
Q 2381 391 2643 752 
Q 2906 1113 2906 1747 
Q 2906 2381 2643 2742 
Q 2381 3103 1925 3103 
Q 1469 3103 1208 2742 
Q 947 2381 947 1747 
z
" transform="scale(0.015625)"/>
       <path id="DejaVuSans-65" d="M 3597 1894 
L 3597 1613 
L 953 1613 
Q 991 1019 1311 708 
Q 1631 397 2203 397 
Q 2534 397 2845 478 
Q 3156 559 3463 722 
L 3463 178 
Q 3153 47 2828 -22 
Q 2503 -91 2169 -91 
Q 1331 -91 842 396 
Q 353 884 353 1716 
Q 353 2575 817 3079 
Q 1281 3584 2069 3584 
Q 2775 3584 3186 3129 
Q 3597 2675 3597 1894 
z
M 3022 2063 
Q 3016 2534 2758 2815 
Q 2500 3097 2075 3097 
Q 1594 3097 1305 2825 
Q 1016 2553 972 2059 
L 3022 2063 
z
" transform="scale(0.015625)"/>
       <path id="DejaVuSans-20" transform="scale(0.015625)"/>
      </defs>
      <use xlink:href="#DejaVuSans-4f"/>
      <use xlink:href="#DejaVuSans-72" transform="translate(78.710938 0)"/>
      <use xlink:href="#DejaVuSans-64" transform="translate(118.074219 0)"/>
      <use xlink:href="#DejaVuSans-65" transform="translate(181.550781 0)"/>
      <use xlink:href="#DejaVuSans-72" transform="translate(243.074219 0)"/>
      <use xlink:href="#DejaVuSans-20" transform="translate(284.1875 0)"/>
      <use xlink:href="#DejaVuSans-31" transform="translate(315.974609 0)"/>
     </g>
    </g>
    <g id="line2d_26">
     <path d="M 200.970469 81.225937 
L 210.970469 81.225937 
L 220.970469 81.225937 
" style="fill: none; stroke: #ff7f0e; stroke-width: 1.5; stroke-linecap: square"/>
     <g>
      <use xlink:href="#m26da6beeae" x="210.970469" y="81.225937" style="fill: #ff7f0e; stroke: #ff7f0e"/>
     </g>
    </g>
    <g id="text_14">
     <!-- Order 2 -->
     <g transform="translate(228.970469 84.725937) scale(0.1 -0.1)">
      <use xlink:href="#DejaVuSans-4f"/>
      <use xlink:href="#DejaVuSans-72" transform="translate(78.710938 0)"/>
      <use xlink:href="#DejaVuSans-64" transform="translate(118.074219 0)"/>
      <use xlink:href="#DejaVuSans-65" transform="translate(181.550781 0)"/>
      <use xlink:href="#DejaVuSans-72" transform="translate(243.074219 0)"/>
      <use xlink:href="#DejaVuSans-20" transform="translate(284.1875 0)"/>
      <use xlink:href="#DejaVuSans-32" transform="translate(315.974609 0)"/>
     </g>
    </g>
    <g id="line2d_27">
     <path d="M 200.970469 95.904062 
L 210.970469 95.904062 
L 220.970469 95.904062 
" style="fill: none; stroke: #2ca02c; stroke-width: 1.5; stroke-linecap: square"/>
     <g>
      <use xlink:href="#m5eaafee949" x="210.970469" y="95.904062" style="fill: #2ca02c; stroke: #2ca02c"/>
     </g>
    </g>
    <g id="text_15">
     <!-- Order 3 -->
     <g transform="translate(228.970469 99.404062) scale(0.1 -0.1)">
      <use xlink:href="#DejaVuSans-4f"/>
      <use xlink:href="#DejaVuSans-72" transform="translate(78.710938 0)"/>
      <use xlink:href="#DejaVuSans-64" transform="translate(118.074219 0)"/>
      <use xlink:href="#DejaVuSans-65" transform="translate(181.550781 0)"/>
      <use xlink:href="#DejaVuSans-72" transform="translate(243.074219 0)"/>
      <use xlink:href="#DejaVuSans-20" transform="translate(284.1875 0)"/>
      <use xlink:href="#DejaVuSans-33" transform="translate(315.974609 0)"/>
     </g>
    </g>
    <g id="line2d_28">
     <path d="M 200.970469 110.582187 
L 210.970469 110.582187 
L 220.970469 110.582187 
" style="fill: none; stroke: #d62728; stroke-width: 1.5; stroke-linecap: square"/>
     <g>
      <use xlink:href="#m76a82414dd" x="210.970469" y="110.582187" style="fill: #d62728; stroke: #d62728"/>
     </g>
    </g>
    <g id="text_16">
     <!-- Order 4 -->
     <g transform="translate(228.970469 114.082187) scale(0.1 -0.1)">
      <use xlink:href="#DejaVuSans-4f"/>
      <use xlink:href="#DejaVuSans-72" transform="translate(78.710938 0)"/>
      <use xlink:href="#DejaVuSans-64" transform="translate(118.074219 0)"/>
      <use xlink:href="#DejaVuSans-65" transform="translate(181.550781 0)"/>
      <use xlink:href="#DejaVuSans-72" transform="translate(243.074219 0)"/>
      <use xlink:href="#DejaVuSans-20" transform="translate(284.1875 0)"/>
      <use xlink:href="#DejaVuSans-34" transform="translate(315.974609 0)"/>
     </g>
    </g>
    <g id="line2d_29">
     <path d="M 200.970469 125.260312 
L 210.970469 125.260312 
L 220.970469 125.260312 
" style="fill: none; stroke: #000000; stroke-width: 1.5; stroke-linecap: square"/>
    </g>
    <g id="text_17">
     <!-- Exact -->
     <g transform="translate(228.970469 128.760312) scale(0.1 -0.1)">
      <defs>
       <path id="DejaVuSans-45" d="M 628 4666 
L 3578 4666 
L 3578 4134 
L 1259 4134 
L 1259 2753 
L 3481 2753 
L 3481 2222 
L 1259 2222 
L 1259 531 
L 3634 531 
L 3634 0 
L 628 0 
L 628 4666 
z
" transform="scale(0.015625)"/>
       <path id="DejaVuSans-78" d="M 3513 3500 
L 2247 1797 
L 3578 0 
L 2900 0 
L 1881 1375 
L 863 0 
L 184 0 
L 1544 1831 
L 300 3500 
L 978 3500 
L 1906 2253 
L 2834 3500 
L 3513 3500 
z
" transform="scale(0.015625)"/>
       <path id="DejaVuSans-61" d="M 2194 1759 
Q 1497 1759 1228 1600 
Q 959 1441 959 1056 
Q 959 750 1161 570 
Q 1363 391 1709 391 
Q 2188 391 2477 730 
Q 2766 1069 2766 1631 
L 2766 1759 
L 2194 1759 
z
M 3341 1997 
L 3341 0 
L 2766 0 
L 2766 531 
Q 2569 213 2275 61 
Q 1981 -91 1556 -91 
Q 1019 -91 701 211 
Q 384 513 384 1019 
Q 384 1609 779 1909 
Q 1175 2209 1959 2209 
L 2766 2209 
L 2766 2266 
Q 2766 2663 2505 2880 
Q 2244 3097 1772 3097 
Q 1472 3097 1187 3025 
Q 903 2953 641 2809 
L 641 3341 
Q 956 3463 1253 3523 
Q 1550 3584 1831 3584 
Q 2591 3584 2966 3190 
Q 3341 2797 3341 1997 
z
" transform="scale(0.015625)"/>
       <path id="DejaVuSans-63" d="M 3122 3366 
L 3122 2828 
Q 2878 2963 2633 3030 
Q 2388 3097 2138 3097 
Q 1578 3097 1268 2742 
Q 959 2388 959 1747 
Q 959 1106 1268 751 
Q 1578 397 2138 397 
Q 2388 397 2633 464 
Q 2878 531 3122 666 
L 3122 134 
Q 2881 22 2623 -34 
Q 2366 -91 2075 -91 
Q 1284 -91 818 406 
Q 353 903 353 1747 
Q 353 2603 823 3093 
Q 1294 3584 2113 3584 
Q 2378 3584 2631 3529 
Q 2884 3475 3122 3366 
z
" transform="scale(0.015625)"/>
       <path id="DejaVuSans-74" d="M 1172 4494 
L 1172 3500 
L 2356 3500 
L 2356 3053 
L 1172 3053 
L 1172 1153 
Q 1172 725 1289 603 
Q 1406 481 1766 481 
L 2356 481 
L 2356 0 
L 1766 0 
Q 1100 0 847 248 
Q 594 497 594 1153 
L 594 3053 
L 172 3053 
L 172 3500 
L 594 3500 
L 594 4494 
L 1172 4494 
z
" transform="scale(0.015625)"/>
      </defs>
      <use xlink:href="#DejaVuSans-45"/>
      <use xlink:href="#DejaVuSans-78" transform="translate(63.183594 0)"/>
      <use xlink:href="#DejaVuSans-61" transform="translate(122.363281 0)"/>
      <use xlink:href="#DejaVuSans-63" transform="translate(183.642578 0)"/>
      <use xlink:href="#DejaVuSans-74" transform="translate(238.623047 0)"/>
     </g>
    </g>
   </g>
  </g>
  <g id="axes_2">
   <g id="patch_8">
    <path d="M 52.160938 314.44 
L 415.740937 314.44 
L 415.740937 181.8 
L 52.160938 181.8 
z
" style="fill: #ffffff"/>
   </g>
   <g id="matplotlib.axis_3">
    <g id="xtick_7">
     <g id="line2d_30">
      <g>
       <use xlink:href="#m8c994b52a9" x="68.687301" y="314.44" style="stroke: #000000; stroke-width: 0.8"/>
      </g>
     </g>
     <g id="text_18">
      <!-- 0 -->
      <g transform="translate(65.506051 329.038437) scale(0.1 -0.1)">
       <use xlink:href="#DejaVuSans-30"/>
      </g>
     </g>
    </g>
    <g id="xtick_8">
     <g id="line2d_31">
      <g>
       <use xlink:href="#m8c994b52a9" x="134.792756" y="314.44" style="stroke: #000000; stroke-width: 0.8"/>
      </g>
     </g>
     <g id="text_19">
      <!-- 1 -->
      <g transform="translate(131.611506 329.038437) scale(0.1 -0.1)">
       <use xlink:href="#DejaVuSans-31"/>
      </g>
     </g>
    </g>
    <g id="xtick_9">
     <g id="line2d_32">
      <g>
       <use xlink:href="#m8c994b52a9" x="200.89821" y="314.44" style="stroke: #000000; stroke-width: 0.8"/>
      </g>
     </g>
     <g id="text_20">
      <!-- 2 -->
      <g transform="translate(197.71696 329.038437) scale(0.1 -0.1)">
       <use xlink:href="#DejaVuSans-32"/>
      </g>
     </g>
    </g>
    <g id="xtick_10">
     <g id="line2d_33">
      <g>
       <use xlink:href="#m8c994b52a9" x="267.003665" y="314.44" style="stroke: #000000; stroke-width: 0.8"/>
      </g>
     </g>
     <g id="text_21">
      <!-- 3 -->
      <g transform="translate(263.822415 329.038437) scale(0.1 -0.1)">
       <use xlink:href="#DejaVuSans-33"/>
      </g>
     </g>
    </g>
    <g id="xtick_11">
     <g id="line2d_34">
      <g>
       <use xlink:href="#m8c994b52a9" x="333.109119" y="314.44" style="stroke: #000000; stroke-width: 0.8"/>
      </g>
     </g>
     <g id="text_22">
      <!-- 4 -->
      <g transform="translate(329.927869 329.038437) scale(0.1 -0.1)">
       <use xlink:href="#DejaVuSans-34"/>
      </g>
     </g>
    </g>
    <g id="xtick_12">
     <g id="line2d_35">
      <g>
       <use xlink:href="#m8c994b52a9" x="399.214574" y="314.44" style="stroke: #000000; stroke-width: 0.8"/>
      </g>
     </g>
     <g id="text_23">
      <!-- 5 -->
      <g transform="translate(396.033324 329.038437) scale(0.1 -0.1)">
       <use xlink:href="#DejaVuSans-35"/>
      </g>
     </g>
    </g>
    <g id="text_24">
     <!-- $\tau$ -->
     <g transform="translate(230.900937 342.716562) scale(0.1 -0.1)">
      <use xlink:href="#DejaVuSans-Oblique-3c4" transform="translate(0 0.3125)"/>
     </g>
    </g>
   </g>
   <g id="matplotlib.axis_4">
    <g id="ytick_5">
     <g id="line2d_36">
      <g>
       <use xlink:href="#m9eaa37b77f" x="52.160938" y="296.980141" style="stroke: #000000; stroke-width: 0.8"/>
      </g>
     </g>
     <g id="text_25">
      <!-- $\mathdefault{10^{-6}}$ -->
      <g transform="translate(21.660938 300.77936) scale(0.1 -0.1)">
       <defs>
        <path id="DejaVuSans-36" d="M 2113 2584 
Q 1688 2584 1439 2293 
Q 1191 2003 1191 1497 
Q 1191 994 1439 701 
Q 1688 409 2113 409 
Q 2538 409 2786 701 
Q 3034 994 3034 1497 
Q 3034 2003 2786 2293 
Q 2538 2584 2113 2584 
z
M 3366 4563 
L 3366 3988 
Q 3128 4100 2886 4159 
Q 2644 4219 2406 4219 
Q 1781 4219 1451 3797 
Q 1122 3375 1075 2522 
Q 1259 2794 1537 2939 
Q 1816 3084 2150 3084 
Q 2853 3084 3261 2657 
Q 3669 2231 3669 1497 
Q 3669 778 3244 343 
Q 2819 -91 2113 -91 
Q 1303 -91 875 529 
Q 447 1150 447 2328 
Q 447 3434 972 4092 
Q 1497 4750 2381 4750 
Q 2619 4750 2861 4703 
Q 3103 4656 3366 4563 
z
" transform="scale(0.015625)"/>
       </defs>
       <use xlink:href="#DejaVuSans-31" transform="translate(0 0.765625)"/>
       <use xlink:href="#DejaVuSans-30" transform="translate(63.623047 0.765625)"/>
       <use xlink:href="#DejaVuSans-2212" transform="translate(128.203125 39.046875) scale(0.7)"/>
       <use xlink:href="#DejaVuSans-36" transform="translate(186.855469 39.046875) scale(0.7)"/>
      </g>
     </g>
    </g>
    <g id="ytick_6">
     <g id="line2d_37">
      <g>
       <use xlink:href="#m9eaa37b77f" x="52.160938" y="272.704338" style="stroke: #000000; stroke-width: 0.8"/>
      </g>
     </g>
     <g id="text_26">
      <!-- $\mathdefault{10^{-5}}$ -->
      <g transform="translate(21.660938 276.503557) scale(0.1 -0.1)">
       <use xlink:href="#DejaVuSans-31" transform="translate(0 0.684375)"/>
       <use xlink:href="#DejaVuSans-30" transform="translate(63.623047 0.684375)"/>
       <use xlink:href="#DejaVuSans-2212" transform="translate(128.203125 38.965625) scale(0.7)"/>
       <use xlink:href="#DejaVuSans-35" transform="translate(186.855469 38.965625) scale(0.7)"/>
      </g>
     </g>
    </g>
    <g id="ytick_7">
     <g id="line2d_38">
      <g>
       <use xlink:href="#m9eaa37b77f" x="52.160938" y="248.428535" style="stroke: #000000; stroke-width: 0.8"/>
      </g>
     </g>
     <g id="text_27">
      <!-- $\mathdefault{10^{-4}}$ -->
      <g transform="translate(21.660938 252.227754) scale(0.1 -0.1)">
       <use xlink:href="#DejaVuSans-31" transform="translate(0 0.684375)"/>
       <use xlink:href="#DejaVuSans-30" transform="translate(63.623047 0.684375)"/>
       <use xlink:href="#DejaVuSans-2212" transform="translate(128.203125 38.965625) scale(0.7)"/>
       <use xlink:href="#DejaVuSans-34" transform="translate(186.855469 38.965625) scale(0.7)"/>
      </g>
     </g>
    </g>
    <g id="ytick_8">
     <g id="line2d_39">
      <g>
       <use xlink:href="#m9eaa37b77f" x="52.160938" y="224.152732" style="stroke: #000000; stroke-width: 0.8"/>
      </g>
     </g>
     <g id="text_28">
      <!-- $\mathdefault{10^{-3}}$ -->
      <g transform="translate(21.660938 227.951951) scale(0.1 -0.1)">
       <use xlink:href="#DejaVuSans-31" transform="translate(0 0.765625)"/>
       <use xlink:href="#DejaVuSans-30" transform="translate(63.623047 0.765625)"/>
       <use xlink:href="#DejaVuSans-2212" transform="translate(128.203125 39.046875) scale(0.7)"/>
       <use xlink:href="#DejaVuSans-33" transform="translate(186.855469 39.046875) scale(0.7)"/>
      </g>
     </g>
    </g>
    <g id="ytick_9">
     <g id="line2d_40">
      <g>
       <use xlink:href="#m9eaa37b77f" x="52.160938" y="199.876929" style="stroke: #000000; stroke-width: 0.8"/>
      </g>
     </g>
     <g id="text_29">
      <!-- $\mathdefault{10^{-2}}$ -->
      <g transform="translate(21.660938 203.676148) scale(0.1 -0.1)">
       <use xlink:href="#DejaVuSans-31" transform="translate(0 0.765625)"/>
       <use xlink:href="#DejaVuSans-30" transform="translate(63.623047 0.765625)"/>
       <use xlink:href="#DejaVuSans-2212" transform="translate(128.203125 39.046875) scale(0.7)"/>
       <use xlink:href="#DejaVuSans-32" transform="translate(186.855469 39.046875) scale(0.7)"/>
      </g>
     </g>
    </g>
    <g id="ytick_10">
     <g id="line2d_41">
      <defs>
       <path id="me5212fd3c6" d="M 0 0 
L -2 0 
" style="stroke: #000000; stroke-width: 0.6"/>
      </defs>
      <g>
       <use xlink:href="#me5212fd3c6" x="52.160938" y="313.948199" style="stroke: #000000; stroke-width: 0.6"/>
      </g>
     </g>
    </g>
    <g id="ytick_11">
     <g id="line2d_42">
      <g>
       <use xlink:href="#me5212fd3c6" x="52.160938" y="309.673443" style="stroke: #000000; stroke-width: 0.6"/>
      </g>
     </g>
    </g>
    <g id="ytick_12">
     <g id="line2d_43">
      <g>
       <use xlink:href="#me5212fd3c6" x="52.160938" y="306.640455" style="stroke: #000000; stroke-width: 0.6"/>
      </g>
     </g>
    </g>
    <g id="ytick_13">
     <g id="line2d_44">
      <g>
       <use xlink:href="#me5212fd3c6" x="52.160938" y="304.287886" style="stroke: #000000; stroke-width: 0.6"/>
      </g>
     </g>
    </g>
    <g id="ytick_14">
     <g id="line2d_45">
      <g>
       <use xlink:href="#me5212fd3c6" x="52.160938" y="302.365698" style="stroke: #000000; stroke-width: 0.6"/>
      </g>
     </g>
    </g>
    <g id="ytick_15">
     <g id="line2d_46">
      <g>
       <use xlink:href="#me5212fd3c6" x="52.160938" y="300.740511" style="stroke: #000000; stroke-width: 0.6"/>
      </g>
     </g>
    </g>
    <g id="ytick_16">
     <g id="line2d_47">
      <g>
       <use xlink:href="#me5212fd3c6" x="52.160938" y="299.33271" style="stroke: #000000; stroke-width: 0.6"/>
      </g>
     </g>
    </g>
    <g id="ytick_17">
     <g id="line2d_48">
      <g>
       <use xlink:href="#me5212fd3c6" x="52.160938" y="298.090941" style="stroke: #000000; stroke-width: 0.6"/>
      </g>
     </g>
    </g>
    <g id="ytick_18">
     <g id="line2d_49">
      <g>
       <use xlink:href="#me5212fd3c6" x="52.160938" y="289.672396" style="stroke: #000000; stroke-width: 0.6"/>
      </g>
     </g>
    </g>
    <g id="ytick_19">
     <g id="line2d_50">
      <g>
       <use xlink:href="#me5212fd3c6" x="52.160938" y="285.39764" style="stroke: #000000; stroke-width: 0.6"/>
      </g>
     </g>
    </g>
    <g id="ytick_20">
     <g id="line2d_51">
      <g>
       <use xlink:href="#me5212fd3c6" x="52.160938" y="282.364651" style="stroke: #000000; stroke-width: 0.6"/>
      </g>
     </g>
    </g>
    <g id="ytick_21">
     <g id="line2d_52">
      <g>
       <use xlink:href="#me5212fd3c6" x="52.160938" y="280.012083" style="stroke: #000000; stroke-width: 0.6"/>
      </g>
     </g>
    </g>
    <g id="ytick_22">
     <g id="line2d_53">
      <g>
       <use xlink:href="#me5212fd3c6" x="52.160938" y="278.089895" style="stroke: #000000; stroke-width: 0.6"/>
      </g>
     </g>
    </g>
    <g id="ytick_23">
     <g id="line2d_54">
      <g>
       <use xlink:href="#me5212fd3c6" x="52.160938" y="276.464708" style="stroke: #000000; stroke-width: 0.6"/>
      </g>
     </g>
    </g>
    <g id="ytick_24">
     <g id="line2d_55">
      <g>
       <use xlink:href="#me5212fd3c6" x="52.160938" y="275.056907" style="stroke: #000000; stroke-width: 0.6"/>
      </g>
     </g>
    </g>
    <g id="ytick_25">
     <g id="line2d_56">
      <g>
       <use xlink:href="#me5212fd3c6" x="52.160938" y="273.815138" style="stroke: #000000; stroke-width: 0.6"/>
      </g>
     </g>
    </g>
    <g id="ytick_26">
     <g id="line2d_57">
      <g>
       <use xlink:href="#me5212fd3c6" x="52.160938" y="265.396593" style="stroke: #000000; stroke-width: 0.6"/>
      </g>
     </g>
    </g>
    <g id="ytick_27">
     <g id="line2d_58">
      <g>
       <use xlink:href="#me5212fd3c6" x="52.160938" y="261.121836" style="stroke: #000000; stroke-width: 0.6"/>
      </g>
     </g>
    </g>
    <g id="ytick_28">
     <g id="line2d_59">
      <g>
       <use xlink:href="#me5212fd3c6" x="52.160938" y="258.088848" style="stroke: #000000; stroke-width: 0.6"/>
      </g>
     </g>
    </g>
    <g id="ytick_29">
     <g id="line2d_60">
      <g>
       <use xlink:href="#me5212fd3c6" x="52.160938" y="255.73628" style="stroke: #000000; stroke-width: 0.6"/>
      </g>
     </g>
    </g>
    <g id="ytick_30">
     <g id="line2d_61">
      <g>
       <use xlink:href="#me5212fd3c6" x="52.160938" y="253.814092" style="stroke: #000000; stroke-width: 0.6"/>
      </g>
     </g>
    </g>
    <g id="ytick_31">
     <g id="line2d_62">
      <g>
       <use xlink:href="#me5212fd3c6" x="52.160938" y="252.188904" style="stroke: #000000; stroke-width: 0.6"/>
      </g>
     </g>
    </g>
    <g id="ytick_32">
     <g id="line2d_63">
      <g>
       <use xlink:href="#me5212fd3c6" x="52.160938" y="250.781103" style="stroke: #000000; stroke-width: 0.6"/>
      </g>
     </g>
    </g>
    <g id="ytick_33">
     <g id="line2d_64">
      <g>
       <use xlink:href="#me5212fd3c6" x="52.160938" y="249.539335" style="stroke: #000000; stroke-width: 0.6"/>
      </g>
     </g>
    </g>
    <g id="ytick_34">
     <g id="line2d_65">
      <g>
       <use xlink:href="#me5212fd3c6" x="52.160938" y="241.12079" style="stroke: #000000; stroke-width: 0.6"/>
      </g>
     </g>
    </g>
    <g id="ytick_35">
     <g id="line2d_66">
      <g>
       <use xlink:href="#me5212fd3c6" x="52.160938" y="236.846033" style="stroke: #000000; stroke-width: 0.6"/>
      </g>
     </g>
    </g>
    <g id="ytick_36">
     <g id="line2d_67">
      <g>
       <use xlink:href="#me5212fd3c6" x="52.160938" y="233.813045" style="stroke: #000000; stroke-width: 0.6"/>
      </g>
     </g>
    </g>
    <g id="ytick_37">
     <g id="line2d_68">
      <g>
       <use xlink:href="#me5212fd3c6" x="52.160938" y="231.460477" style="stroke: #000000; stroke-width: 0.6"/>
      </g>
     </g>
    </g>
    <g id="ytick_38">
     <g id="line2d_69">
      <g>
       <use xlink:href="#me5212fd3c6" x="52.160938" y="229.538288" style="stroke: #000000; stroke-width: 0.6"/>
      </g>
     </g>
    </g>
    <g id="ytick_39">
     <g id="line2d_70">
      <g>
       <use xlink:href="#me5212fd3c6" x="52.160938" y="227.913101" style="stroke: #000000; stroke-width: 0.6"/>
      </g>
     </g>
    </g>
    <g id="ytick_40">
     <g id="line2d_71">
      <g>
       <use xlink:href="#me5212fd3c6" x="52.160938" y="226.5053" style="stroke: #000000; stroke-width: 0.6"/>
      </g>
     </g>
    </g>
    <g id="ytick_41">
     <g id="line2d_72">
      <g>
       <use xlink:href="#me5212fd3c6" x="52.160938" y="225.263532" style="stroke: #000000; stroke-width: 0.6"/>
      </g>
     </g>
    </g>
    <g id="ytick_42">
     <g id="line2d_73">
      <g>
       <use xlink:href="#me5212fd3c6" x="52.160938" y="216.844987" style="stroke: #000000; stroke-width: 0.6"/>
      </g>
     </g>
    </g>
    <g id="ytick_43">
     <g id="line2d_74">
      <g>
       <use xlink:href="#me5212fd3c6" x="52.160938" y="212.57023" style="stroke: #000000; stroke-width: 0.6"/>
      </g>
     </g>
    </g>
    <g id="ytick_44">
     <g id="line2d_75">
      <g>
       <use xlink:href="#me5212fd3c6" x="52.160938" y="209.537242" style="stroke: #000000; stroke-width: 0.6"/>
      </g>
     </g>
    </g>
    <g id="ytick_45">
     <g id="line2d_76">
      <g>
       <use xlink:href="#me5212fd3c6" x="52.160938" y="207.184674" style="stroke: #000000; stroke-width: 0.6"/>
      </g>
     </g>
    </g>
    <g id="ytick_46">
     <g id="line2d_77">
      <g>
       <use xlink:href="#me5212fd3c6" x="52.160938" y="205.262485" style="stroke: #000000; stroke-width: 0.6"/>
      </g>
     </g>
    </g>
    <g id="ytick_47">
     <g id="line2d_78">
      <g>
       <use xlink:href="#me5212fd3c6" x="52.160938" y="203.637298" style="stroke: #000000; stroke-width: 0.6"/>
      </g>
     </g>
    </g>
    <g id="ytick_48">
     <g id="line2d_79">
      <g>
       <use xlink:href="#me5212fd3c6" x="52.160938" y="202.229497" style="stroke: #000000; stroke-width: 0.6"/>
      </g>
     </g>
    </g>
    <g id="ytick_49">
     <g id="line2d_80">
      <g>
       <use xlink:href="#me5212fd3c6" x="52.160938" y="200.987729" style="stroke: #000000; stroke-width: 0.6"/>
      </g>
     </g>
    </g>
    <g id="ytick_50">
     <g id="line2d_81">
      <g>
       <use xlink:href="#me5212fd3c6" x="52.160938" y="192.569184" style="stroke: #000000; stroke-width: 0.6"/>
      </g>
     </g>
    </g>
    <g id="ytick_51">
     <g id="line2d_82">
      <g>
       <use xlink:href="#me5212fd3c6" x="52.160938" y="188.294427" style="stroke: #000000; stroke-width: 0.6"/>
      </g>
     </g>
    </g>
    <g id="ytick_52">
     <g id="line2d_83">
      <g>
       <use xlink:href="#me5212fd3c6" x="52.160938" y="185.261439" style="stroke: #000000; stroke-width: 0.6"/>
      </g>
     </g>
    </g>
    <g id="ytick_53">
     <g id="line2d_84">
      <g>
       <use xlink:href="#me5212fd3c6" x="52.160938" y="182.908871" style="stroke: #000000; stroke-width: 0.6"/>
      </g>
     </g>
    </g>
    <g id="text_30">
     <!-- Abs Error -->
     <g transform="translate(15.58125 271.093437) rotate(-90) scale(0.1 -0.1)">
      <defs>
       <path id="DejaVuSans-41" d="M 2188 4044 
L 1331 1722 
L 3047 1722 
L 2188 4044 
z
M 1831 4666 
L 2547 4666 
L 4325 0 
L 3669 0 
L 3244 1197 
L 1141 1197 
L 716 0 
L 50 0 
L 1831 4666 
z
" transform="scale(0.015625)"/>
       <path id="DejaVuSans-62" d="M 3116 1747 
Q 3116 2381 2855 2742 
Q 2594 3103 2138 3103 
Q 1681 3103 1420 2742 
Q 1159 2381 1159 1747 
Q 1159 1113 1420 752 
Q 1681 391 2138 391 
Q 2594 391 2855 752 
Q 3116 1113 3116 1747 
z
M 1159 2969 
Q 1341 3281 1617 3432 
Q 1894 3584 2278 3584 
Q 2916 3584 3314 3078 
Q 3713 2572 3713 1747 
Q 3713 922 3314 415 
Q 2916 -91 2278 -91 
Q 1894 -91 1617 61 
Q 1341 213 1159 525 
L 1159 0 
L 581 0 
L 581 4863 
L 1159 4863 
L 1159 2969 
z
" transform="scale(0.015625)"/>
       <path id="DejaVuSans-73" d="M 2834 3397 
L 2834 2853 
Q 2591 2978 2328 3040 
Q 2066 3103 1784 3103 
Q 1356 3103 1142 2972 
Q 928 2841 928 2578 
Q 928 2378 1081 2264 
Q 1234 2150 1697 2047 
L 1894 2003 
Q 2506 1872 2764 1633 
Q 3022 1394 3022 966 
Q 3022 478 2636 193 
Q 2250 -91 1575 -91 
Q 1294 -91 989 -36 
Q 684 19 347 128 
L 347 722 
Q 666 556 975 473 
Q 1284 391 1588 391 
Q 1994 391 2212 530 
Q 2431 669 2431 922 
Q 2431 1156 2273 1281 
Q 2116 1406 1581 1522 
L 1381 1569 
Q 847 1681 609 1914 
Q 372 2147 372 2553 
Q 372 3047 722 3315 
Q 1072 3584 1716 3584 
Q 2034 3584 2315 3537 
Q 2597 3491 2834 3397 
z
" transform="scale(0.015625)"/>
       <path id="DejaVuSans-6f" d="M 1959 3097 
Q 1497 3097 1228 2736 
Q 959 2375 959 1747 
Q 959 1119 1226 758 
Q 1494 397 1959 397 
Q 2419 397 2687 759 
Q 2956 1122 2956 1747 
Q 2956 2369 2687 2733 
Q 2419 3097 1959 3097 
z
M 1959 3584 
Q 2709 3584 3137 3096 
Q 3566 2609 3566 1747 
Q 3566 888 3137 398 
Q 2709 -91 1959 -91 
Q 1206 -91 779 398 
Q 353 888 353 1747 
Q 353 2609 779 3096 
Q 1206 3584 1959 3584 
z
" transform="scale(0.015625)"/>
      </defs>
      <use xlink:href="#DejaVuSans-41"/>
      <use xlink:href="#DejaVuSans-62" transform="translate(68.408203 0)"/>
      <use xlink:href="#DejaVuSans-73" transform="translate(131.884766 0)"/>
      <use xlink:href="#DejaVuSans-20" transform="translate(183.984375 0)"/>
      <use xlink:href="#DejaVuSans-45" transform="translate(215.771484 0)"/>
      <use xlink:href="#DejaVuSans-72" transform="translate(278.955078 0)"/>
      <use xlink:href="#DejaVuSans-72" transform="translate(318.318359 0)"/>
      <use xlink:href="#DejaVuSans-6f" transform="translate(357.181641 0)"/>
      <use xlink:href="#DejaVuSans-72" transform="translate(418.363281 0)"/>
     </g>
    </g>
   </g>
   <g id="line2d_85"/>
   <g id="line2d_86">
    <g clip-path="url(#p30a54a4bc8)">
     <use xlink:href="#m26cce6874d" x="68.786723" y="261.148616" style="fill: #1f77b4; stroke: #1f77b4"/>
     <use xlink:href="#m26cce6874d" x="74.055804" y="224.142814" style="fill: #1f77b4; stroke: #1f77b4"/>
     <use xlink:href="#m26cce6874d" x="82.837118" y="229.99009" style="fill: #1f77b4; stroke: #1f77b4"/>
     <use xlink:href="#m26cce6874d" x="98.306542" y="210.788981" style="fill: #1f77b4; stroke: #1f77b4"/>
     <use xlink:href="#m26cce6874d" x="115.371713" y="200.113338" style="fill: #1f77b4; stroke: #1f77b4"/>
     <use xlink:href="#m26cce6874d" x="141.928457" y="193.231987" style="fill: #1f77b4; stroke: #1f77b4"/>
     <use xlink:href="#m26cce6874d" x="156.011965" y="191.293854" style="fill: #1f77b4; stroke: #1f77b4"/>
     <use xlink:href="#m26cce6874d" x="174.712455" y="189.620864" style="fill: #1f77b4; stroke: #1f77b4"/>
     <use xlink:href="#m26cce6874d" x="205.651303" y="188.196283" style="fill: #1f77b4; stroke: #1f77b4"/>
     <use xlink:href="#m26cce6874d" x="236.50118" y="187.832672" style="fill: #1f77b4; stroke: #1f77b4"/>
     <use xlink:href="#m26cce6874d" x="267.370597" y="188.347258" style="fill: #1f77b4; stroke: #1f77b4"/>
     <use xlink:href="#m26cce6874d" x="309.145974" y="190.994316" style="fill: #1f77b4; stroke: #1f77b4"/>
     <use xlink:href="#m26cce6874d" x="335.917426" y="195.148273" style="fill: #1f77b4; stroke: #1f77b4"/>
     <use xlink:href="#m26cce6874d" x="359.173786" y="203.186862" style="fill: #1f77b4; stroke: #1f77b4"/>
     <use xlink:href="#m26cce6874d" x="372.048482" y="213.542384" style="fill: #1f77b4; stroke: #1f77b4"/>
     <use xlink:href="#m26cce6874d" x="385.064757" y="229.99009" style="fill: #1f77b4; stroke: #1f77b4"/>
     <use xlink:href="#m26cce6874d" x="393.846071" y="224.142814" style="fill: #1f77b4; stroke: #1f77b4"/>
     <use xlink:href="#m26cce6874d" x="399.115152" y="261.148619" style="fill: #1f77b4; stroke: #1f77b4"/>
    </g>
   </g>
   <g id="line2d_87">
    <path d="M 69.511641 352.99625 
L 69.51569 234.751298 
L 70.344079 228.814567 
L 71.172469 226.143976 
L 72.000858 224.80295 
L 72.829247 224.201069 
L 73.657636 224.076771 
L 74.486025 224.288234 
L 75.314414 224.746002 
L 76.971193 226.149956 
L 79.45636 228.644674 
L 80.284749 229.329572 
L 81.113138 229.823593 
L 81.941528 230.063757 
L 82.769917 230.008148 
L 83.598306 229.645551 
L 84.426695 228.997135 
L 85.255084 228.109058 
L 86.911863 225.849002 
L 92.710587 217.188659 
L 95.195754 214.079788 
L 97.680922 211.401886 
L 100.166089 209.096777 
L 102.651256 207.103036 
L 105.136424 205.366989 
L 108.449981 203.377894 
L 111.763537 201.687061 
L 115.077094 200.232844 
L 119.21904 198.678125 
L 123.360985 197.354202 
L 128.33132 196.003065 
L 134.130044 194.68133 
L 140.757158 193.429441 
L 148.21266 192.275601 
L 156.496552 191.239311 
L 165.608832 190.333189 
L 175.549502 189.56359 
L 187.14695 188.890505 
L 200.401177 188.352361 
L 214.483792 187.998823 
L 229.394797 187.837394 
L 245.134191 187.888014 
L 260.873585 188.163409 
L 274.956201 188.621035 
L 287.382038 189.234088 
L 298.151097 189.975197 
L 308.091767 190.883182 
L 317.204048 191.952643 
L 324.65955 193.036748 
L 331.286663 194.198205 
L 337.085387 195.40932 
L 342.055722 196.635342 
L 347.026057 198.090185 
L 351.168003 199.53295 
L 354.48156 200.883021 
L 357.795116 202.454543 
L 361.108673 204.305669 
L 363.59384 205.922702 
L 366.079008 207.780471 
L 368.564175 209.928716 
L 371.049343 212.425897 
L 373.53451 215.333913 
L 376.019678 218.695888 
L 379.333234 223.765406 
L 381.818402 227.44462 
L 382.646791 228.443344 
L 383.47518 229.233929 
L 384.303569 229.763502 
L 385.131958 229.997745 
L 385.960347 229.931133 
L 386.788737 229.58989 
L 387.617126 229.026096 
L 389.273904 227.500262 
L 390.930682 225.883133 
L 392.587461 224.617842 
L 393.41585 224.242968 
L 394.244239 224.119679 
L 395.072628 224.335549 
L 395.901017 225.030931 
L 396.729406 226.465881 
L 397.557796 229.228029 
L 398.386185 235.24155 
L 398.390217 352.99625 
L 398.390217 352.99625 
" clip-path="url(#p30a54a4bc8)" style="fill: none; stroke: #1f77b4; stroke-width: 1.5; stroke-linecap: square"/>
   </g>
   <g id="line2d_88"/>
   <g id="line2d_89">
    <g clip-path="url(#p30a54a4bc8)">
     <use xlink:href="#m26da6beeae" x="68.786723" y="261.148616" style="fill: #ff7f0e; stroke: #ff7f0e"/>
     <use xlink:href="#m26da6beeae" x="74.055804" y="224.142814" style="fill: #ff7f0e; stroke: #ff7f0e"/>
     <use xlink:href="#m26da6beeae" x="82.837118" y="229.99009" style="fill: #ff7f0e; stroke: #ff7f0e"/>
     <use xlink:href="#m26da6beeae" x="98.306542" y="210.788981" style="fill: #ff7f0e; stroke: #ff7f0e"/>
     <use xlink:href="#m26da6beeae" x="115.371713" y="200.113338" style="fill: #ff7f0e; stroke: #ff7f0e"/>
     <use xlink:href="#m26da6beeae" x="141.928457" y="193.231987" style="fill: #ff7f0e; stroke: #ff7f0e"/>
     <use xlink:href="#m26da6beeae" x="156.011965" y="191.293854" style="fill: #ff7f0e; stroke: #ff7f0e"/>
     <use xlink:href="#m26da6beeae" x="174.712455" y="189.620864" style="fill: #ff7f0e; stroke: #ff7f0e"/>
     <use xlink:href="#m26da6beeae" x="205.651303" y="188.196283" style="fill: #ff7f0e; stroke: #ff7f0e"/>
     <use xlink:href="#m26da6beeae" x="236.50118" y="187.832672" style="fill: #ff7f0e; stroke: #ff7f0e"/>
     <use xlink:href="#m26da6beeae" x="267.370597" y="188.347258" style="fill: #ff7f0e; stroke: #ff7f0e"/>
     <use xlink:href="#m26da6beeae" x="309.145974" y="190.994316" style="fill: #ff7f0e; stroke: #ff7f0e"/>
     <use xlink:href="#m26da6beeae" x="335.917426" y="195.148273" style="fill: #ff7f0e; stroke: #ff7f0e"/>
     <use xlink:href="#m26da6beeae" x="359.173786" y="203.186862" style="fill: #ff7f0e; stroke: #ff7f0e"/>
     <use xlink:href="#m26da6beeae" x="372.048482" y="213.542384" style="fill: #ff7f0e; stroke: #ff7f0e"/>
     <use xlink:href="#m26da6beeae" x="385.064757" y="229.99009" style="fill: #ff7f0e; stroke: #ff7f0e"/>
     <use xlink:href="#m26da6beeae" x="393.846071" y="224.142814" style="fill: #ff7f0e; stroke: #ff7f0e"/>
     <use xlink:href="#m26da6beeae" x="399.115152" y="261.148619" style="fill: #ff7f0e; stroke: #ff7f0e"/>
    </g>
   </g>
   <g id="line2d_90">
    <path d="M 69.511641 352.99625 
L 69.51569 234.751298 
L 70.344079 228.814567 
L 71.172469 226.143976 
L 72.000858 224.80295 
L 72.829247 224.201069 
L 73.657636 224.076771 
L 74.486025 224.288234 
L 75.314414 224.746002 
L 76.971193 226.149956 
L 79.45636 228.644674 
L 80.284749 229.329572 
L 81.113138 229.823593 
L 81.941528 230.063757 
L 82.769917 230.008148 
L 83.598306 229.645552 
L 84.426695 228.997135 
L 85.255084 228.109058 
L 86.911863 225.849002 
L 92.710587 217.188659 
L 95.195754 214.079788 
L 97.680922 211.401886 
L 100.166089 209.096777 
L 102.651256 207.103036 
L 105.136424 205.366989 
L 108.449981 203.377894 
L 111.763537 201.687061 
L 115.077094 200.232844 
L 119.21904 198.678125 
L 123.360985 197.354202 
L 128.33132 196.003065 
L 134.130044 194.68133 
L 140.757158 193.429441 
L 148.21266 192.275601 
L 156.496552 191.239311 
L 165.608832 190.333189 
L 175.549502 189.56359 
L 187.14695 188.890505 
L 200.401177 188.352361 
L 214.483792 187.998823 
L 229.394797 187.837394 
L 245.134191 187.888014 
L 260.873585 188.163409 
L 274.956201 188.621035 
L 287.382038 189.234088 
L 298.151097 189.975197 
L 308.091767 190.883182 
L 317.204048 191.952643 
L 324.65955 193.036748 
L 331.286663 194.198205 
L 337.085387 195.40932 
L 342.055722 196.635342 
L 347.026057 198.090185 
L 351.168003 199.53295 
L 354.48156 200.883021 
L 357.795116 202.454543 
L 361.108673 204.305669 
L 363.59384 205.922702 
L 366.079008 207.780471 
L 368.564175 209.928716 
L 371.049343 212.425897 
L 373.53451 215.333913 
L 376.019678 218.695888 
L 379.333234 223.765406 
L 381.818402 227.44462 
L 382.646791 228.443344 
L 383.47518 229.233929 
L 384.303569 229.763502 
L 385.131958 229.997745 
L 385.960347 229.931133 
L 386.788737 229.58989 
L 387.617126 229.026096 
L 389.273904 227.500262 
L 390.930682 225.883133 
L 392.587461 224.617842 
L 393.41585 224.242968 
L 394.244239 224.119679 
L 395.072628 224.335549 
L 395.901017 225.030931 
L 396.729406 226.465881 
L 397.557796 229.228029 
L 398.386185 235.24155 
L 398.390217 352.99625 
L 398.390217 352.99625 
" clip-path="url(#p30a54a4bc8)" style="fill: none; stroke: #ff7f0e; stroke-width: 1.5; stroke-linecap: square"/>
   </g>
   <g id="line2d_91"/>
   <g id="line2d_92">
    <g clip-path="url(#p30a54a4bc8)">
     <use xlink:href="#m5eaafee949" x="68.786723" y="273.386073" style="fill: #2ca02c; stroke: #2ca02c"/>
     <use xlink:href="#m5eaafee949" x="74.055804" y="237.012809" style="fill: #2ca02c; stroke: #2ca02c"/>
     <use xlink:href="#m5eaafee949" x="82.837118" y="248.269621" style="fill: #2ca02c; stroke: #2ca02c"/>
     <use xlink:href="#m5eaafee949" x="98.306542" y="221.834161" style="fill: #2ca02c; stroke: #2ca02c"/>
     <use xlink:href="#m5eaafee949" x="115.371713" y="212.058073" style="fill: #2ca02c; stroke: #2ca02c"/>
     <use xlink:href="#m5eaafee949" x="141.928457" y="205.551408" style="fill: #2ca02c; stroke: #2ca02c"/>
     <use xlink:href="#m5eaafee949" x="156.011965" y="203.663711" style="fill: #2ca02c; stroke: #2ca02c"/>
     <use xlink:href="#m5eaafee949" x="174.712455" y="201.990788" style="fill: #2ca02c; stroke: #2ca02c"/>
     <use xlink:href="#m5eaafee949" x="205.651303" y="200.512747" style="fill: #2ca02c; stroke: #2ca02c"/>
     <use xlink:href="#m5eaafee949" x="236.50118" y="200.12385" style="fill: #2ca02c; stroke: #2ca02c"/>
     <use xlink:href="#m5eaafee949" x="267.370597" y="200.672609" style="fill: #2ca02c; stroke: #2ca02c"/>
     <use xlink:href="#m5eaafee949" x="309.145974" y="203.367818" style="fill: #2ca02c; stroke: #2ca02c"/>
     <use xlink:href="#m5eaafee949" x="335.917426" y="207.385805" style="fill: #2ca02c; stroke: #2ca02c"/>
     <use xlink:href="#m5eaafee949" x="359.173786" y="214.911747" style="fill: #2ca02c; stroke: #2ca02c"/>
     <use xlink:href="#m5eaafee949" x="372.048482" y="224.272791" style="fill: #2ca02c; stroke: #2ca02c"/>
     <use xlink:href="#m5eaafee949" x="385.064757" y="248.269575" style="fill: #2ca02c; stroke: #2ca02c"/>
     <use xlink:href="#m5eaafee949" x="393.846071" y="237.012804" style="fill: #2ca02c; stroke: #2ca02c"/>
     <use xlink:href="#m5eaafee949" x="399.115152" y="273.38594" style="fill: #2ca02c; stroke: #2ca02c"/>
    </g>
   </g>
   <g id="line2d_93">
    <path d="M 69.511994 352.99625 
L 69.51569 245.093651 
L 70.344079 239.460497 
L 71.172469 237.18384 
L 72.000858 236.293416 
L 72.829247 236.199213 
L 73.657636 236.646555 
L 74.486025 237.502905 
L 75.314414 238.688554 
L 76.971193 241.819336 
L 79.45636 247.219771 
L 80.284749 248.580776 
L 81.113138 249.316663 
L 81.941528 249.246046 
L 82.769917 248.371201 
L 83.598306 246.872277 
L 85.255084 242.961385 
L 87.740252 237.036601 
L 89.39703 233.635201 
L 91.053808 230.70444 
L 92.710587 228.181248 
L 94.367365 225.996806 
L 96.024143 224.091214 
L 98.509311 221.651251 
L 100.994478 219.604306 
L 103.479646 217.859378 
L 105.964813 216.350277 
L 109.27837 214.622509 
L 112.591926 213.145676 
L 116.733872 211.567255 
L 120.875818 210.217593 
L 125.846153 208.831463 
L 131.644877 207.466944 
L 138.27199 206.169476 
L 145.727493 204.971591 
L 154.011384 203.891973 
L 163.123665 202.937472 
L 173.892724 202.049408 
L 185.490172 201.322709 
L 197.916009 200.762812 
L 211.998625 200.357389 
L 226.90963 200.149259 
L 242.649024 200.152805 
L 257.560028 200.383654 
L 270.814255 200.801729 
L 284.068481 201.439431 
L 296.494319 202.257228 
L 307.263378 203.180488 
L 316.375658 204.177438 
L 323.831161 205.195706 
L 330.458274 206.300608 
L 337.085387 207.641687 
L 342.884111 209.055378 
L 347.854446 210.490632 
L 351.996392 211.886673 
L 356.138338 213.519289 
L 359.451894 215.049356 
L 362.765451 216.845492 
L 365.250619 218.421403 
L 367.735786 220.252875 
L 370.220953 222.414382 
L 371.877732 224.087927 
L 373.53451 225.992644 
L 375.191288 228.177881 
L 376.848067 230.703892 
L 378.504845 233.639699 
L 380.161623 237.048043 
L 382.646791 242.981273 
L 384.303569 246.88412 
L 385.131958 248.369831 
L 385.960347 249.225543 
L 386.788737 249.275475 
L 387.617126 248.523422 
L 388.445515 247.154504 
L 392.587461 238.666378 
L 393.41585 237.495196 
L 394.244239 236.653766 
L 395.072628 236.221653 
L 395.901017 236.331302 
L 396.729406 237.237279 
L 397.557796 239.529297 
L 398.386185 245.17601 
L 398.389878 352.99625 
L 398.389878 352.99625 
" clip-path="url(#p30a54a4bc8)" style="fill: none; stroke: #2ca02c; stroke-width: 1.5; stroke-linecap: square"/>
   </g>
   <g id="line2d_94"/>
   <g id="line2d_95">
    <g clip-path="url(#p30a54a4bc8)">
     <use xlink:href="#m76a82414dd" x="68.786723" y="308.406501" style="fill: #d62728; stroke: #d62728"/>
     <use xlink:href="#m76a82414dd" x="74.055804" y="266.871016" style="fill: #d62728; stroke: #d62728"/>
     <use xlink:href="#m76a82414dd" x="82.837118" y="258.352919" style="fill: #d62728; stroke: #d62728"/>
     <use xlink:href="#m76a82414dd" x="98.306542" y="257.189027" style="fill: #d62728; stroke: #d62728"/>
     <use xlink:href="#m76a82414dd" x="115.371713" y="278.238528" style="fill: #d62728; stroke: #d62728"/>
     <use xlink:href="#m76a82414dd" x="141.928457" y="243.66855" style="fill: #d62728; stroke: #d62728"/>
     <use xlink:href="#m76a82414dd" x="156.011965" y="238.830244" style="fill: #d62728; stroke: #d62728"/>
     <use xlink:href="#m76a82414dd" x="174.712455" y="234.910771" style="fill: #d62728; stroke: #d62728"/>
     <use xlink:href="#m76a82414dd" x="205.651303" y="231.670766" style="fill: #d62728; stroke: #d62728"/>
     <use xlink:href="#m76a82414dd" x="236.50118" y="230.851303" style="fill: #d62728; stroke: #d62728"/>
     <use xlink:href="#m76a82414dd" x="267.370597" y="232.011581" style="fill: #d62728; stroke: #d62728"/>
     <use xlink:href="#m76a82414dd" x="309.145974" y="238.115191" style="fill: #d62728; stroke: #d62728"/>
     <use xlink:href="#m76a82414dd" x="335.917426" y="249.045724" style="fill: #d62728; stroke: #d62728"/>
     <use xlink:href="#m76a82414dd" x="359.173786" y="265.655566" style="fill: #d62728; stroke: #d62728"/>
     <use xlink:href="#m76a82414dd" x="372.048482" y="256.595048" style="fill: #d62728; stroke: #d62728"/>
     <use xlink:href="#m76a82414dd" x="385.064757" y="258.353052" style="fill: #d62728; stroke: #d62728"/>
     <use xlink:href="#m76a82414dd" x="393.846071" y="266.871127" style="fill: #d62728; stroke: #d62728"/>
     <use xlink:href="#m76a82414dd" x="399.115152" y="308.410909" style="fill: #d62728; stroke: #d62728"/>
    </g>
   </g>
   <g id="line2d_96">
    <path d="M 69.51294 352.99625 
L 69.51569 272.794342 
L 70.344079 267.712142 
L 71.172469 266.065324 
L 72.000858 265.737176 
L 72.829247 266.038631 
L 74.486025 267.133011 
L 75.314414 267.432566 
L 76.142804 267.347477 
L 76.971193 266.830984 
L 77.799582 265.934783 
L 79.45636 263.462886 
L 81.941528 259.566939 
L 83.598306 257.430499 
L 85.255084 255.781874 
L 86.911863 254.610084 
L 88.568641 253.880073 
L 90.225419 253.556242 
L 91.882197 253.610303 
L 93.538976 254.023607 
L 95.195754 254.787835 
L 96.852532 255.905579 
L 98.509311 257.391469 
L 100.166089 259.274213 
L 101.822867 261.599744 
L 103.479646 264.435091 
L 105.136424 267.869937 
L 106.793202 272.00122 
L 108.449981 276.837129 
L 110.106759 281.883092 
L 110.935148 283.930603 
L 111.763537 285.106066 
L 112.591926 285.052567 
L 113.420315 283.78472 
L 114.248705 281.6748 
L 117.562261 271.676506 
L 119.21904 267.45997 
L 120.875818 263.887825 
L 122.532596 260.849289 
L 124.189375 258.240844 
L 125.846153 255.980081 
L 127.502931 254.003498 
L 129.988099 251.46723 
L 132.473266 249.339281 
L 134.958434 247.531485 
L 137.443601 245.978576 
L 140.757158 244.22013 
L 144.070714 242.738433 
L 148.21266 241.176949 
L 152.354606 239.853247 
L 157.324941 238.489797 
L 163.123665 237.122586 
L 169.750778 235.78224 
L 177.20628 234.512895 
L 184.661783 233.478265 
L 192.117285 232.664781 
L 200.401177 231.99169 
L 209.513457 231.477821 
L 220.282516 231.09176 
L 232.708354 230.87019 
L 243.477413 230.889897 
L 252.589693 231.116363 
L 260.873585 231.531773 
L 269.157477 232.167583 
L 277.441368 233.02093 
L 286.553649 234.18515 
L 295.66593 235.562826 
L 303.949821 237.033073 
L 310.576934 238.443483 
L 315.547269 239.717745 
L 319.689215 240.98274 
L 323.831161 242.493865 
L 327.144717 243.927435 
L 330.458274 245.607231 
L 333.771831 247.582935 
L 336.256998 249.291704 
L 338.742166 251.220675 
L 341.227333 253.388292 
L 343.7125 255.798503 
L 347.026057 259.323707 
L 350.339614 262.888046 
L 351.996392 264.444685 
L 353.65317 265.648664 
L 354.48156 266.067284 
L 355.309949 266.341904 
L 356.138338 266.463385 
L 356.966727 266.430147 
L 357.795116 266.248489 
L 359.451894 265.498379 
L 361.108673 264.368968 
L 364.422229 261.636562 
L 366.907397 259.645678 
L 369.392564 257.954671 
L 371.049343 257.047568 
L 372.706121 256.337778 
L 374.362899 255.837686 
L 376.019678 255.557825 
L 377.676456 255.508439 
L 379.333234 255.700128 
L 380.990012 256.143594 
L 382.646791 256.848217 
L 384.303569 257.818856 
L 385.960347 259.049872 
L 387.617126 260.515482 
L 390.930682 263.881533 
L 395.072628 268.257693 
L 395.901017 269.459138 
L 396.729406 271.175059 
L 397.557796 274.027161 
L 398.386185 280.021697 
L 398.388688 352.99625 
L 398.388688 352.99625 
" clip-path="url(#p30a54a4bc8)" style="fill: none; stroke: #d62728; stroke-width: 1.5; stroke-linecap: square"/>
   </g>
   <g id="line2d_97"/>
   <g id="patch_9">
    <path d="M 52.160938 314.44 
L 52.160938 181.8 
" style="fill: none; stroke: #000000; stroke-width: 0.8; stroke-linejoin: miter; stroke-linecap: square"/>
   </g>
   <g id="patch_10">
    <path d="M 415.740937 314.44 
L 415.740937 181.8 
" style="fill: none; stroke: #000000; stroke-width: 0.8; stroke-linejoin: miter; stroke-linecap: square"/>
   </g>
   <g id="patch_11">
    <path d="M 52.160938 314.44 
L 415.740938 314.44 
" style="fill: none; stroke: #000000; stroke-width: 0.8; stroke-linejoin: miter; stroke-linecap: square"/>
   </g>
   <g id="patch_12">
    <path d="M 52.160938 181.8 
L 415.740938 181.8 
" style="fill: none; stroke: #000000; stroke-width: 0.8; stroke-linejoin: miter; stroke-linecap: square"/>
   </g>
   <g id="legend_2">
    <g id="patch_13">
     <path d="M 198.970469 309.44 
L 268.931406 309.44 
Q 270.931406 309.44 270.931406 307.44 
L 270.931406 249.7275 
Q 270.931406 247.7275 268.931406 247.7275 
L 198.970469 247.7275 
Q 196.970469 247.7275 196.970469 249.7275 
L 196.970469 307.44 
Q 196.970469 309.44 198.970469 309.44 
z
" style="fill: #ffffff; opacity: 0.8; stroke: #cccccc; stroke-linejoin: miter"/>
    </g>
    <g id="line2d_98">
     <path d="M 200.970469 255.825937 
L 210.970469 255.825937 
L 220.970469 255.825937 
" style="fill: none; stroke: #1f77b4; stroke-width: 1.5; stroke-linecap: square"/>
     <g>
      <use xlink:href="#m26cce6874d" x="210.970469" y="255.825937" style="fill: #1f77b4; stroke: #1f77b4"/>
     </g>
    </g>
    <g id="text_31">
     <!-- Order 1 -->
     <g transform="translate(228.970469 259.325937) scale(0.1 -0.1)">
      <use xlink:href="#DejaVuSans-4f"/>
      <use xlink:href="#DejaVuSans-72" transform="translate(78.710938 0)"/>
      <use xlink:href="#DejaVuSans-64" transform="translate(118.074219 0)"/>
      <use xlink:href="#DejaVuSans-65" transform="translate(181.550781 0)"/>
      <use xlink:href="#DejaVuSans-72" transform="translate(243.074219 0)"/>
      <use xlink:href="#DejaVuSans-20" transform="translate(284.1875 0)"/>
      <use xlink:href="#DejaVuSans-31" transform="translate(315.974609 0)"/>
     </g>
    </g>
    <g id="line2d_99">
     <path d="M 200.970469 270.504062 
L 210.970469 270.504062 
L 220.970469 270.504062 
" style="fill: none; stroke: #ff7f0e; stroke-width: 1.5; stroke-linecap: square"/>
     <g>
      <use xlink:href="#m26da6beeae" x="210.970469" y="270.504062" style="fill: #ff7f0e; stroke: #ff7f0e"/>
     </g>
    </g>
    <g id="text_32">
     <!-- Order 2 -->
     <g transform="translate(228.970469 274.004062) scale(0.1 -0.1)">
      <use xlink:href="#DejaVuSans-4f"/>
      <use xlink:href="#DejaVuSans-72" transform="translate(78.710938 0)"/>
      <use xlink:href="#DejaVuSans-64" transform="translate(118.074219 0)"/>
      <use xlink:href="#DejaVuSans-65" transform="translate(181.550781 0)"/>
      <use xlink:href="#DejaVuSans-72" transform="translate(243.074219 0)"/>
      <use xlink:href="#DejaVuSans-20" transform="translate(284.1875 0)"/>
      <use xlink:href="#DejaVuSans-32" transform="translate(315.974609 0)"/>
     </g>
    </g>
    <g id="line2d_100">
     <path d="M 200.970469 285.182187 
L 210.970469 285.182187 
L 220.970469 285.182187 
" style="fill: none; stroke: #2ca02c; stroke-width: 1.5; stroke-linecap: square"/>
     <g>
      <use xlink:href="#m5eaafee949" x="210.970469" y="285.182187" style="fill: #2ca02c; stroke: #2ca02c"/>
     </g>
    </g>
    <g id="text_33">
     <!-- Order 3 -->
     <g transform="translate(228.970469 288.682187) scale(0.1 -0.1)">
      <use xlink:href="#DejaVuSans-4f"/>
      <use xlink:href="#DejaVuSans-72" transform="translate(78.710938 0)"/>
      <use xlink:href="#DejaVuSans-64" transform="translate(118.074219 0)"/>
      <use xlink:href="#DejaVuSans-65" transform="translate(181.550781 0)"/>
      <use xlink:href="#DejaVuSans-72" transform="translate(243.074219 0)"/>
      <use xlink:href="#DejaVuSans-20" transform="translate(284.1875 0)"/>
      <use xlink:href="#DejaVuSans-33" transform="translate(315.974609 0)"/>
     </g>
    </g>
    <g id="line2d_101">
     <path d="M 200.970469 299.860312 
L 210.970469 299.860312 
L 220.970469 299.860312 
" style="fill: none; stroke: #d62728; stroke-width: 1.5; stroke-linecap: square"/>
     <g>
      <use xlink:href="#m76a82414dd" x="210.970469" y="299.860312" style="fill: #d62728; stroke: #d62728"/>
     </g>
    </g>
    <g id="text_34">
     <!-- Order 4 -->
     <g transform="translate(228.970469 303.360312) scale(0.1 -0.1)">
      <use xlink:href="#DejaVuSans-4f"/>
      <use xlink:href="#DejaVuSans-72" transform="translate(78.710938 0)"/>
      <use xlink:href="#DejaVuSans-64" transform="translate(118.074219 0)"/>
      <use xlink:href="#DejaVuSans-65" transform="translate(181.550781 0)"/>
      <use xlink:href="#DejaVuSans-72" transform="translate(243.074219 0)"/>
      <use xlink:href="#DejaVuSans-20" transform="translate(284.1875 0)"/>
      <use xlink:href="#DejaVuSans-34" transform="translate(315.974609 0)"/>
     </g>
    </g>
   </g>
  </g>
 </g>
 <defs>
  <clipPath id="pd6fc9ed861">
   <rect x="52.160938" y="7.2" width="363.58" height="132.64"/>
  </clipPath>
  <clipPath id="p30a54a4bc8">
   <rect x="52.160938" y="181.8" width="363.58" height="132.64"/>
  </clipPath>
 </defs>
</svg>
