<?xml version="1.0" encoding="utf-8" standalone="no"?>
<!DOCTYPE svg PUBLIC "-//W3C//DTD SVG 1.1//EN"
  "http://www.w3.org/Graphics/SVG/1.1/DTD/svg11.dtd">
<svg xmlns:xlink="http://www.w3.org/1999/xlink" width="416.502812pt" height="310.86825pt" viewBox="0 0 416.502812 310.86825" xmlns="http://www.w3.org/2000/svg" version="1.1">
 <metadata>
  <rdf:RDF xmlns:dc="http://purl.org/dc/elements/1.1/" xmlns:cc="http://creativecommons.org/ns#" xmlns:rdf="http://www.w3.org/1999/02/22-rdf-syntax-ns#">
   <cc:Work>
    <dc:type rdf:resource="http://purl.org/dc/dcmitype/StillImage"/>
    <dc:date>2023-08-29T11:09:05.257372</dc:date>
    <dc:format>image/svg+xml</dc:format>
    <dc:creator>
     <cc:Agent>
      <dc:title>Matplotlib v3.7.1, https://matplotlib.org/</dc:title>
     </cc:Agent>
    </dc:creator>
   </cc:Work>
  </rdf:RDF>
 </metadata>
 <defs>
  <style type="text/css">*{stroke-linejoin: round; stroke-linecap: butt}</style>
 </defs>
 <g id="figure_1">
  <g id="patch_1">
   <path d="M 0 310.86825 
L 416.502812 310.86825 
L 416.502812 0 
L 0 0 
z
" style="fill: #ffffff"/>
  </g>
  <g id="axes_1">
   <g id="patch_2">
    <path d="M 52.182813 273.312 
L 409.302813 273.312 
L 409.302813 7.2 
L 52.182813 7.2 
z
" style="fill: #ffffff"/>
   </g>
   <g id="matplotlib.axis_1">
    <g id="xtick_1">
     <g id="line2d_1">
      <defs>
       <path id="m1d43d9a16f" d="M 0 0 
L 0 3.5 
" style="stroke: #000000; stroke-width: 0.8"/>
      </defs>
      <g>
       <use xlink:href="#m1d43d9a16f" x="68.41554" y="273.312" style="stroke: #000000; stroke-width: 0.8"/>
      </g>
     </g>
     <g id="text_1">
      <!-- −10.0 -->
      <g transform="translate(53.092884 287.910437) scale(0.1 -0.1)">
       <defs>
        <path id="DejaVuSans-2212" d="M 678 2272 
L 4684 2272 
L 4684 1741 
L 678 1741 
L 678 2272 
z
" transform="scale(0.015625)"/>
        <path id="DejaVuSans-31" d="M 794 531 
L 1825 531 
L 1825 4091 
L 703 3866 
L 703 4441 
L 1819 4666 
L 2450 4666 
L 2450 531 
L 3481 531 
L 3481 0 
L 794 0 
L 794 531 
z
" transform="scale(0.015625)"/>
        <path id="DejaVuSans-30" d="M 2034 4250 
Q 1547 4250 1301 3770 
Q 1056 3291 1056 2328 
Q 1056 1369 1301 889 
Q 1547 409 2034 409 
Q 2525 409 2770 889 
Q 3016 1369 3016 2328 
Q 3016 3291 2770 3770 
Q 2525 4250 2034 4250 
z
M 2034 4750 
Q 2819 4750 3233 4129 
Q 3647 3509 3647 2328 
Q 3647 1150 3233 529 
Q 2819 -91 2034 -91 
Q 1250 -91 836 529 
Q 422 1150 422 2328 
Q 422 3509 836 4129 
Q 1250 4750 2034 4750 
z
" transform="scale(0.015625)"/>
        <path id="DejaVuSans-2e" d="M 684 794 
L 1344 794 
L 1344 0 
L 684 0 
L 684 794 
z
" transform="scale(0.015625)"/>
       </defs>
       <use xlink:href="#DejaVuSans-2212"/>
       <use xlink:href="#DejaVuSans-31" x="83.789062"/>
       <use xlink:href="#DejaVuSans-30" x="147.412109"/>
       <use xlink:href="#DejaVuSans-2e" x="211.035156"/>
       <use xlink:href="#DejaVuSans-30" x="242.822266"/>
      </g>
     </g>
    </g>
    <g id="xtick_2">
     <g id="line2d_2">
      <g>
       <use xlink:href="#m1d43d9a16f" x="108.997358" y="273.312" style="stroke: #000000; stroke-width: 0.8"/>
      </g>
     </g>
     <g id="text_2">
      <!-- −7.5 -->
      <g transform="translate(96.855952 287.910437) scale(0.1 -0.1)">
       <defs>
        <path id="DejaVuSans-37" d="M 525 4666 
L 3525 4666 
L 3525 4397 
L 1831 0 
L 1172 0 
L 2766 4134 
L 525 4134 
L 525 4666 
z
" transform="scale(0.015625)"/>
        <path id="DejaVuSans-35" d="M 691 4666 
L 3169 4666 
L 3169 4134 
L 1269 4134 
L 1269 2991 
Q 1406 3038 1543 3061 
Q 1681 3084 1819 3084 
Q 2600 3084 3056 2656 
Q 3513 2228 3513 1497 
Q 3513 744 3044 326 
Q 2575 -91 1722 -91 
Q 1428 -91 1123 -41 
Q 819 9 494 109 
L 494 744 
Q 775 591 1075 516 
Q 1375 441 1709 441 
Q 2250 441 2565 725 
Q 2881 1009 2881 1497 
Q 2881 1984 2565 2268 
Q 2250 2553 1709 2553 
Q 1456 2553 1204 2497 
Q 953 2441 691 2322 
L 691 4666 
z
" transform="scale(0.015625)"/>
       </defs>
       <use xlink:href="#DejaVuSans-2212"/>
       <use xlink:href="#DejaVuSans-37" x="83.789062"/>
       <use xlink:href="#DejaVuSans-2e" x="147.412109"/>
       <use xlink:href="#DejaVuSans-35" x="179.199219"/>
      </g>
     </g>
    </g>
    <g id="xtick_3">
     <g id="line2d_3">
      <g>
       <use xlink:href="#m1d43d9a16f" x="149.579176" y="273.312" style="stroke: #000000; stroke-width: 0.8"/>
      </g>
     </g>
     <g id="text_3">
      <!-- −5.0 -->
      <g transform="translate(137.43777 287.910437) scale(0.1 -0.1)">
       <use xlink:href="#DejaVuSans-2212"/>
       <use xlink:href="#DejaVuSans-35" x="83.789062"/>
       <use xlink:href="#DejaVuSans-2e" x="147.412109"/>
       <use xlink:href="#DejaVuSans-30" x="179.199219"/>
      </g>
     </g>
    </g>
    <g id="xtick_4">
     <g id="line2d_4">
      <g>
       <use xlink:href="#m1d43d9a16f" x="190.160994" y="273.312" style="stroke: #000000; stroke-width: 0.8"/>
      </g>
     </g>
     <g id="text_4">
      <!-- −2.5 -->
      <g transform="translate(178.019588 287.910437) scale(0.1 -0.1)">
       <defs>
        <path id="DejaVuSans-32" d="M 1228 531 
L 3431 531 
L 3431 0 
L 469 0 
L 469 531 
Q 828 903 1448 1529 
Q 2069 2156 2228 2338 
Q 2531 2678 2651 2914 
Q 2772 3150 2772 3378 
Q 2772 3750 2511 3984 
Q 2250 4219 1831 4219 
Q 1534 4219 1204 4116 
Q 875 4013 500 3803 
L 500 4441 
Q 881 4594 1212 4672 
Q 1544 4750 1819 4750 
Q 2544 4750 2975 4387 
Q 3406 4025 3406 3419 
Q 3406 3131 3298 2873 
Q 3191 2616 2906 2266 
Q 2828 2175 2409 1742 
Q 1991 1309 1228 531 
z
" transform="scale(0.015625)"/>
       </defs>
       <use xlink:href="#DejaVuSans-2212"/>
       <use xlink:href="#DejaVuSans-32" x="83.789062"/>
       <use xlink:href="#DejaVuSans-2e" x="147.412109"/>
       <use xlink:href="#DejaVuSans-35" x="179.199219"/>
      </g>
     </g>
    </g>
    <g id="xtick_5">
     <g id="line2d_5">
      <g>
       <use xlink:href="#m1d43d9a16f" x="230.742813" y="273.312" style="stroke: #000000; stroke-width: 0.8"/>
      </g>
     </g>
     <g id="text_5">
      <!-- 0.0 -->
      <g transform="translate(222.79125 287.910437) scale(0.1 -0.1)">
       <use xlink:href="#DejaVuSans-30"/>
       <use xlink:href="#DejaVuSans-2e" x="63.623047"/>
       <use xlink:href="#DejaVuSans-30" x="95.410156"/>
      </g>
     </g>
    </g>
    <g id="xtick_6">
     <g id="line2d_6">
      <g>
       <use xlink:href="#m1d43d9a16f" x="271.324631" y="273.312" style="stroke: #000000; stroke-width: 0.8"/>
      </g>
     </g>
     <g id="text_6">
      <!-- 2.5 -->
      <g transform="translate(263.373068 287.910437) scale(0.1 -0.1)">
       <use xlink:href="#DejaVuSans-32"/>
       <use xlink:href="#DejaVuSans-2e" x="63.623047"/>
       <use xlink:href="#DejaVuSans-35" x="95.410156"/>
      </g>
     </g>
    </g>
    <g id="xtick_7">
     <g id="line2d_7">
      <g>
       <use xlink:href="#m1d43d9a16f" x="311.906449" y="273.312" style="stroke: #000000; stroke-width: 0.8"/>
      </g>
     </g>
     <g id="text_7">
      <!-- 5.0 -->
      <g transform="translate(303.954886 287.910437) scale(0.1 -0.1)">
       <use xlink:href="#DejaVuSans-35"/>
       <use xlink:href="#DejaVuSans-2e" x="63.623047"/>
       <use xlink:href="#DejaVuSans-30" x="95.410156"/>
      </g>
     </g>
    </g>
    <g id="xtick_8">
     <g id="line2d_8">
      <g>
       <use xlink:href="#m1d43d9a16f" x="352.488267" y="273.312" style="stroke: #000000; stroke-width: 0.8"/>
      </g>
     </g>
     <g id="text_8">
      <!-- 7.5 -->
      <g transform="translate(344.536705 287.910437) scale(0.1 -0.1)">
       <use xlink:href="#DejaVuSans-37"/>
       <use xlink:href="#DejaVuSans-2e" x="63.623047"/>
       <use xlink:href="#DejaVuSans-35" x="95.410156"/>
      </g>
     </g>
    </g>
    <g id="xtick_9">
     <g id="line2d_9">
      <g>
       <use xlink:href="#m1d43d9a16f" x="393.070085" y="273.312" style="stroke: #000000; stroke-width: 0.8"/>
      </g>
     </g>
     <g id="text_9">
      <!-- 10.0 -->
      <g transform="translate(381.937273 287.910437) scale(0.1 -0.1)">
       <use xlink:href="#DejaVuSans-31"/>
       <use xlink:href="#DejaVuSans-30" x="63.623047"/>
       <use xlink:href="#DejaVuSans-2e" x="127.246094"/>
       <use xlink:href="#DejaVuSans-30" x="159.033203"/>
      </g>
     </g>
    </g>
    <g id="text_10">
     <!-- $\omega$ -->
     <g transform="translate(226.542813 301.588562) scale(0.1 -0.1)">
      <defs>
       <path id="DejaVuSans-Oblique-3c9" d="M 1369 -91 
Q 72 -91 434 1766 
Q 575 2500 1256 3500 
L 1875 3500 
Q 1231 2500 1088 1750 
Q 819 397 1519 397 
Q 2166 397 2478 2078 
L 3009 2078 
Q 2669 388 3316 397 
Q 4013 403 4275 1750 
Q 4419 2500 4169 3500 
L 4788 3500 
Q 5075 2500 4934 1766 
Q 4578 -94 3278 -91 
Q 2428 -88 2503 844 
Q 2194 -91 1369 -91 
z
" transform="scale(0.015625)"/>
      </defs>
      <use xlink:href="#DejaVuSans-Oblique-3c9" transform="translate(0 0.3125)"/>
     </g>
    </g>
   </g>
   <g id="matplotlib.axis_2">
    <g id="ytick_1">
     <g id="line2d_10">
      <defs>
       <path id="m43e5e3efc2" d="M 0 0 
L -3.5 0 
" style="stroke: #000000; stroke-width: 0.8"/>
      </defs>
      <g>
       <use xlink:href="#m43e5e3efc2" x="52.182813" y="240.194474" style="stroke: #000000; stroke-width: 0.8"/>
      </g>
     </g>
     <g id="text_11">
      <!-- −1.0 -->
      <g transform="translate(20.9 243.993692) scale(0.1 -0.1)">
       <use xlink:href="#DejaVuSans-2212"/>
       <use xlink:href="#DejaVuSans-31" x="83.789062"/>
       <use xlink:href="#DejaVuSans-2e" x="147.412109"/>
       <use xlink:href="#DejaVuSans-30" x="179.199219"/>
      </g>
     </g>
    </g>
    <g id="ytick_2">
     <g id="line2d_11">
      <g>
       <use xlink:href="#m43e5e3efc2" x="52.182813" y="191.066392" style="stroke: #000000; stroke-width: 0.8"/>
      </g>
     </g>
     <g id="text_12">
      <!-- −0.5 -->
      <g transform="translate(20.9 194.86561) scale(0.1 -0.1)">
       <use xlink:href="#DejaVuSans-2212"/>
       <use xlink:href="#DejaVuSans-30" x="83.789062"/>
       <use xlink:href="#DejaVuSans-2e" x="147.412109"/>
       <use xlink:href="#DejaVuSans-35" x="179.199219"/>
      </g>
     </g>
    </g>
    <g id="ytick_3">
     <g id="line2d_12">
      <g>
       <use xlink:href="#m43e5e3efc2" x="52.182813" y="141.93831" style="stroke: #000000; stroke-width: 0.8"/>
      </g>
     </g>
     <g id="text_13">
      <!-- 0.0 -->
      <g transform="translate(29.279688 145.737529) scale(0.1 -0.1)">
       <use xlink:href="#DejaVuSans-30"/>
       <use xlink:href="#DejaVuSans-2e" x="63.623047"/>
       <use xlink:href="#DejaVuSans-30" x="95.410156"/>
      </g>
     </g>
    </g>
    <g id="ytick_4">
     <g id="line2d_13">
      <g>
       <use xlink:href="#m43e5e3efc2" x="52.182813" y="92.810228" style="stroke: #000000; stroke-width: 0.8"/>
      </g>
     </g>
     <g id="text_14">
      <!-- 0.5 -->
      <g transform="translate(29.279688 96.609447) scale(0.1 -0.1)">
       <use xlink:href="#DejaVuSans-30"/>
       <use xlink:href="#DejaVuSans-2e" x="63.623047"/>
       <use xlink:href="#DejaVuSans-35" x="95.410156"/>
      </g>
     </g>
    </g>
    <g id="ytick_5">
     <g id="line2d_14">
      <g>
       <use xlink:href="#m43e5e3efc2" x="52.182813" y="43.682146" style="stroke: #000000; stroke-width: 0.8"/>
      </g>
     </g>
     <g id="text_15">
      <!-- 1.0 -->
      <g transform="translate(29.279688 47.481365) scale(0.1 -0.1)">
       <use xlink:href="#DejaVuSans-31"/>
       <use xlink:href="#DejaVuSans-2e" x="63.623047"/>
       <use xlink:href="#DejaVuSans-30" x="95.410156"/>
      </g>
     </g>
    </g>
    <g id="text_16">
     <!-- $\chi_0(\mathbf{q}, \omega)$ -->
     <g transform="translate(14.8 159.856) rotate(-90) scale(0.1 -0.1)">
      <defs>
       <path id="DejaVuSans-Oblique-3c7" d="M 1922 -781 
L 1691 416 
L 394 -1334 
L -284 -1334 
L 1553 1141 
L 1269 2613 
Q 1194 3006 713 3006 
L 559 3006 
L 653 3500 
L 872 3494 
Q 1675 3472 1775 2950 
L 2006 1753 
L 3303 3503 
L 3981 3503 
L 2144 1028 
L 2428 -444 
Q 2503 -838 2984 -838 
L 3138 -838 
L 3044 -1331 
L 2825 -1325 
Q 2022 -1303 1922 -781 
z
" transform="scale(0.015625)"/>
       <path id="DejaVuSans-28" d="M 1984 4856 
Q 1566 4138 1362 3434 
Q 1159 2731 1159 2009 
Q 1159 1288 1364 580 
Q 1569 -128 1984 -844 
L 1484 -844 
Q 1016 -109 783 600 
Q 550 1309 550 2009 
Q 550 2706 781 3412 
Q 1013 4119 1484 4856 
L 1984 4856 
z
" transform="scale(0.015625)"/>
       <path id="DejaVuSans-Bold-71" d="M 2181 2772 
Q 1825 2772 1636 2509 
Q 1447 2247 1447 1747 
Q 1447 1247 1636 984 
Q 1825 722 2181 722 
Q 2541 722 2730 984 
Q 2919 1247 2919 1747 
Q 2919 2247 2730 2509 
Q 2541 2772 2181 2772 
z
M 2919 506 
Q 2688 197 2409 53 
Q 2131 -91 1766 -91 
Q 1119 -91 703 423 
Q 288 938 288 1747 
Q 288 2556 703 3067 
Q 1119 3578 1766 3578 
Q 2131 3578 2409 3434 
Q 2688 3291 2919 2981 
L 2919 3500 
L 4044 3500 
L 4044 -1331 
L 2919 -1331 
L 2919 506 
z
" transform="scale(0.015625)"/>
       <path id="DejaVuSans-2c" d="M 750 794 
L 1409 794 
L 1409 256 
L 897 -744 
L 494 -744 
L 750 256 
L 750 794 
z
" transform="scale(0.015625)"/>
       <path id="DejaVuSans-29" d="M 513 4856 
L 1013 4856 
Q 1481 4119 1714 3412 
Q 1947 2706 1947 2009 
Q 1947 1309 1714 600 
Q 1481 -109 1013 -844 
L 513 -844 
Q 928 -128 1133 580 
Q 1338 1288 1338 2009 
Q 1338 2731 1133 3434 
Q 928 4138 513 4856 
z
" transform="scale(0.015625)"/>
      </defs>
      <use xlink:href="#DejaVuSans-Oblique-3c7" transform="translate(0 0.125)"/>
      <use xlink:href="#DejaVuSans-30" transform="translate(59.179688 -16.28125) scale(0.7)"/>
      <use xlink:href="#DejaVuSans-28" transform="translate(106.450195 0.125)"/>
      <use xlink:href="#DejaVuSans-Bold-71" transform="translate(145.463867 0.125)"/>
      <use xlink:href="#DejaVuSans-2c" transform="translate(217.045898 0.125)"/>
      <use xlink:href="#DejaVuSans-Oblique-3c9" transform="translate(268.31543 0.125)"/>
      <use xlink:href="#DejaVuSans-29" transform="translate(352.055664 0.125)"/>
     </g>
    </g>
   </g>
   <g id="line2d_15">
    <path d="M 68.41554 141.93831 
L 71.694879 141.93831 
L 74.974217 141.93831 
L 78.253556 141.93831 
L 81.532895 141.93831 
L 84.812234 141.93831 
L 88.091573 141.93831 
L 91.370912 141.93831 
L 94.650251 141.93831 
L 97.929589 141.93831 
L 101.208928 141.93831 
L 104.488267 141.93831 
L 107.767606 141.93831 
L 111.046945 141.93831 
L 114.326284 141.93831 
L 117.605622 141.93831 
L 120.884961 141.93831 
L 124.1643 141.93831 
L 127.443639 141.93831 
L 130.722978 141.93831 
L 134.002317 141.93831 
L 137.281655 141.93831 
L 140.560994 141.93831 
L 143.840333 141.93831 
L 147.119672 141.93831 
L 150.399011 141.93831 
L 153.67835 141.93831 
L 156.957689 141.93831 
L 160.237027 141.93831 
L 163.516366 141.93831 
L 166.795705 141.93831 
L 170.075044 141.93831 
L 173.354383 141.93831 
L 176.633722 141.93831 
L 179.91306 141.93831 
L 183.192399 141.93831 
L 186.471738 141.93831 
L 189.751077 141.93831 
L 193.030416 141.93831 
L 196.309755 141.93831 
L 199.589093 141.93831 
L 202.868432 141.93831 
L 206.147771 141.93831 
L 209.42711 141.93831 
L 212.706449 141.93831 
L 215.985788 141.93831 
L 219.265127 141.93831 
L 222.544465 141.93831 
L 225.823804 141.93831 
L 229.103143 141.93831 
L 232.382482 141.93831 
L 235.661821 141.93831 
L 238.94116 141.93831 
L 242.220498 141.93831 
L 245.499837 141.93831 
L 248.779176 141.93831 
L 252.058515 141.93831 
L 255.337854 141.93831 
L 258.617193 141.93831 
L 261.896532 141.93831 
L 265.17587 141.93831 
L 268.455209 141.93831 
L 271.734548 141.93831 
L 275.013887 141.93831 
L 278.293226 141.93831 
L 281.572565 141.93831 
L 284.851903 141.93831 
L 288.131242 141.93831 
L 291.410581 141.93831 
L 294.68992 141.93831 
L 297.969259 141.93831 
L 301.248598 141.93831 
L 304.527936 141.93831 
L 307.807275 141.93831 
L 311.086614 141.93831 
L 314.365953 141.93831 
L 317.645292 141.93831 
L 320.924631 141.93831 
L 324.20397 141.93831 
L 327.483308 141.93831 
L 330.762647 141.93831 
L 334.041986 141.93831 
L 337.321325 141.93831 
L 340.600664 141.93831 
L 343.880003 141.93831 
L 347.159341 141.93831 
L 350.43868 141.93831 
L 353.718019 141.93831 
L 356.997358 141.93831 
L 360.276697 141.93831 
L 363.556036 141.93831 
L 366.835374 141.93831 
L 370.114713 141.93831 
L 373.394052 141.93831 
L 376.673391 141.93831 
L 379.95273 141.93831 
L 383.232069 141.93831 
L 386.511408 141.93831 
L 389.790746 141.93831 
L 393.070085 141.93831 
" clip-path="url(#p4d33894d30)" style="fill: none; stroke: #1f77b4; stroke-width: 1.5; stroke-linecap: square"/>
   </g>
   <g id="line2d_16">
    <path d="M 68.41554 142.016885 
L 71.694879 142.022855 
L 74.974217 142.029475 
L 78.253556 142.036837 
L 81.532895 142.045054 
L 84.812234 142.054259 
L 88.091573 142.064613 
L 91.370912 142.076309 
L 94.650251 142.089583 
L 97.929589 142.104725 
L 101.208928 142.122095 
L 104.488267 142.142144 
L 107.767606 142.165441 
L 111.046945 142.192716 
L 114.326284 142.224921 
L 117.605622 142.263308 
L 120.884961 142.309564 
L 124.1643 142.366002 
L 127.443639 142.435877 
L 130.722978 142.523901 
L 134.002317 142.637132 
L 137.281655 142.786597 
L 140.560994 142.990414 
L 143.840333 143.280291 
L 147.119672 143.716228 
L 150.399011 144.423538 
L 153.67835 145.699116 
L 156.957689 148.372065 
L 160.237027 155.320074 
L 163.516366 179.420507 
L 166.795705 261.216 
L 170.075044 255.703316 
L 173.354383 209.06807 
L 176.633722 192.802789 
L 179.91306 186.707041 
L 183.192399 182.685211 
L 186.471738 178.126209 
L 189.751077 173.078861 
L 193.030416 168.340328 
L 196.309755 164.353235 
L 199.589093 161.127581 
L 202.868432 158.478983 
L 206.147771 156.194049 
L 209.42711 154.101288 
L 212.706449 152.094212 
L 215.985788 150.129464 
L 219.265127 148.207301 
L 222.544465 146.343498 
L 225.823804 144.545499 
L 229.103143 142.801243 
L 232.382482 141.080495 
L 235.661821 139.343806 
L 238.94116 137.554429 
L 242.220498 135.689811 
L 245.499837 133.748558 
L 248.779176 131.746841 
L 252.058515 129.69949 
L 255.337854 127.588911 
L 258.617193 125.334735 
L 261.896532 122.77866 
L 265.17587 119.693976 
L 268.455209 115.836639 
L 271.734548 111.087182 
L 275.013887 105.728144 
L 278.293226 100.600905 
L 281.572565 96.240047 
L 284.851903 90.608273 
L 288.131242 75.919752 
L 291.410581 31.256668 
L 294.68992 19.296 
L 297.969259 104.306928 
L 301.248598 128.755102 
L 304.527936 135.608449 
L 307.807275 138.222967 
L 311.086614 139.47197 
L 314.365953 140.167682 
L 317.645292 140.598637 
L 320.924631 140.88645 
L 324.20397 141.089489 
L 327.483308 141.238735 
L 330.762647 141.351979 
L 334.041986 141.4401 
L 337.321325 141.510093 
L 340.600664 141.566642 
L 343.880003 141.612993 
L 347.159341 141.651457 
L 350.43868 141.683723 
L 353.718019 141.711047 
L 356.997358 141.73438 
L 360.276697 141.754457 
L 363.556036 141.771848 
L 366.835374 141.787006 
L 370.114713 141.800292 
L 373.394052 141.811996 
L 376.673391 141.822356 
L 379.95273 141.831565 
L 383.232069 141.839785 
L 386.511408 141.84715 
L 389.790746 141.85377 
L 393.070085 141.859742 
" clip-path="url(#p4d33894d30)" style="fill: none; stroke: #ff7f0e; stroke-width: 1.5; stroke-linecap: square"/>
   </g>
   <g id="line2d_17">
    <path d="M 68.41554 142.233459 
L 71.694879 142.280126 
L 74.974217 142.34431 
L 78.253556 142.436969 
L 81.532895 142.57779 
L 84.812234 142.803319 
L 88.091573 143.183572 
L 91.370912 143.856246 
L 94.650251 145.094247 
L 97.929589 147.414401 
L 101.208928 151.611873 
L 104.488267 158.121789 
L 107.767606 165.181466 
L 111.046945 169.348068 
L 114.326284 170.053069 
L 117.605622 169.246308 
L 120.884961 168.352129 
L 124.1643 167.851258 
L 127.443639 167.795273 
L 130.722978 168.105252 
L 134.002317 168.675241 
L 137.281655 169.402446 
L 140.560994 170.196883 
L 143.840333 170.986524 
L 147.119672 171.720931 
L 150.399011 172.372658 
L 153.67835 172.935562 
L 156.957689 173.420285 
L 160.237027 173.848121 
L 163.516366 174.244747 
L 166.795705 174.634872 
L 170.075044 175.038241 
L 173.354383 175.466865 
L 176.633722 175.923099 
L 179.91306 176.398159 
L 183.192399 176.870787 
L 186.471738 177.306007 
L 189.751077 177.654139 
L 193.030416 177.850545 
L 196.309755 177.816802 
L 199.589093 177.464132 
L 202.868432 176.699853 
L 206.147771 175.437021 
L 209.42711 173.60628 
L 212.706449 171.166672 
L 215.985788 168.107384 
L 219.265127 164.41988 
L 222.544465 159.986879 
L 225.823804 154.314296 
L 229.103143 146.535803 
L 232.382482 137.370002 
L 235.661821 129.600006 
L 238.94116 123.883865 
L 242.220498 119.414378 
L 245.499837 115.723631 
L 248.779176 112.683286 
L 252.058515 110.268408 
L 255.337854 108.45716 
L 258.617193 107.203941 
L 261.896532 106.439459 
L 265.17587 106.079429 
L 268.455209 106.034689 
L 271.734548 106.219709 
L 275.013887 106.558473 
L 278.293226 106.987782 
L 281.572565 107.458516 
L 284.851903 107.935565 
L 288.131242 108.397036 
L 291.410581 108.833162 
L 294.68992 109.24508 
L 297.969259 109.643446 
L 301.248598 110.046627 
L 304.527936 110.478075 
L 307.807275 110.962539 
L 311.086614 111.520937 
L 314.365953 112.164286 
L 317.645292 112.887631 
L 320.924631 113.665402 
L 324.20397 114.449414 
L 327.483308 115.169887 
L 330.762647 115.738793 
L 334.041986 116.054919 
L 337.321325 116.013551 
L 340.600664 115.536329 
L 343.880003 114.672483 
L 347.159341 113.890328 
L 350.43868 114.584174 
L 353.718019 118.691521 
L 356.997358 125.70861 
L 360.276697 132.227321 
L 363.556036 136.446148 
L 366.835374 138.779175 
L 370.114713 140.022357 
L 373.394052 140.696398 
L 376.673391 141.07652 
L 379.95273 141.301458 
L 383.232069 141.44164 
L 386.511408 141.533748 
L 389.790746 141.597497 
L 393.070085 141.643837 
" clip-path="url(#p4d33894d30)" style="fill: none; stroke: #2ca02c; stroke-width: 1.5; stroke-linecap: square"/>
   </g>
   <g id="patch_3">
    <path d="M 52.182813 273.312 
L 52.182813 7.2 
" style="fill: none; stroke: #000000; stroke-width: 0.8; stroke-linejoin: miter; stroke-linecap: square"/>
   </g>
   <g id="patch_4">
    <path d="M 409.302813 273.312 
L 409.302813 7.2 
" style="fill: none; stroke: #000000; stroke-width: 0.8; stroke-linejoin: miter; stroke-linecap: square"/>
   </g>
   <g id="patch_5">
    <path d="M 52.182813 273.312 
L 409.302813 273.312 
" style="fill: none; stroke: #000000; stroke-width: 0.8; stroke-linejoin: miter; stroke-linecap: square"/>
   </g>
   <g id="patch_6">
    <path d="M 52.182813 7.2 
L 409.302813 7.2 
" style="fill: none; stroke: #000000; stroke-width: 0.8; stroke-linejoin: miter; stroke-linecap: square"/>
   </g>
   <g id="legend_1">
    <g id="patch_7">
     <path d="M 356.702812 59.295312 
L 402.302813 59.295312 
Q 404.302813 59.295312 404.302813 57.295312 
L 404.302813 14.2 
Q 404.302813 12.2 402.302813 12.2 
L 356.702812 12.2 
Q 354.702812 12.2 354.702812 14.2 
L 354.702812 57.295312 
Q 354.702812 59.295312 356.702812 59.295312 
z
" style="fill: #ffffff; opacity: 0.8; stroke: #cccccc; stroke-linejoin: miter"/>
    </g>
    <g id="line2d_18">
     <path d="M 358.702812 20.298437 
L 368.702812 20.298437 
L 378.702812 20.298437 
" style="fill: none; stroke: #1f77b4; stroke-width: 1.5; stroke-linecap: square"/>
    </g>
    <g id="text_17">
     <!-- $\mathbf{q}_\Gamma$ -->
     <g transform="translate(386.702812 23.798437) scale(0.1 -0.1)">
      <defs>
       <path id="DejaVuSans-393" d="M 628 0 
L 628 4666 
L 3531 4666 
L 3531 4134 
L 1259 4134 
L 1259 0 
L 628 0 
z
" transform="scale(0.015625)"/>
      </defs>
      <use xlink:href="#DejaVuSans-Bold-71" transform="translate(0 0.09375)"/>
      <use xlink:href="#DejaVuSans-393" transform="translate(72.539062 -16.3125) scale(0.7)"/>
     </g>
    </g>
    <g id="line2d_19">
     <path d="M 358.702812 34.996875 
L 368.702812 34.996875 
L 378.702812 34.996875 
" style="fill: none; stroke: #ff7f0e; stroke-width: 1.5; stroke-linecap: square"/>
    </g>
    <g id="text_18">
     <!-- $\mathbf{q}_X$ -->
     <g transform="translate(386.702812 38.496875) scale(0.1 -0.1)">
      <defs>
       <path id="DejaVuSans-Oblique-58" d="M 878 4666 
L 1516 4666 
L 2316 2981 
L 3763 4666 
L 4500 4666 
L 2578 2438 
L 3738 0 
L 3103 0 
L 2163 1966 
L 459 0 
L -275 0 
L 1906 2509 
L 878 4666 
z
" transform="scale(0.015625)"/>
      </defs>
      <use xlink:href="#DejaVuSans-Bold-71" transform="translate(0 0.09375)"/>
      <use xlink:href="#DejaVuSans-Oblique-58" transform="translate(72.539062 -16.3125) scale(0.7)"/>
     </g>
    </g>
    <g id="line2d_20">
     <path d="M 358.702812 49.695312 
L 368.702812 49.695312 
L 378.702812 49.695312 
" style="fill: none; stroke: #2ca02c; stroke-width: 1.5; stroke-linecap: square"/>
    </g>
    <g id="text_19">
     <!-- $\mathbf{q}_M$ -->
     <g transform="translate(386.702812 53.195312) scale(0.1 -0.1)">
      <defs>
       <path id="DejaVuSans-Oblique-4d" d="M 1081 4666 
L 2028 4666 
L 2572 1522 
L 4378 4666 
L 5350 4666 
L 4441 0 
L 3828 0 
L 4622 4091 
L 2791 897 
L 2175 897 
L 1581 4103 
L 788 0 
L 172 0 
L 1081 4666 
z
" transform="scale(0.015625)"/>
      </defs>
      <use xlink:href="#DejaVuSans-Bold-71" transform="translate(0 0.09375)"/>
      <use xlink:href="#DejaVuSans-Oblique-4d" transform="translate(72.539062 -16.3125) scale(0.7)"/>
     </g>
    </g>
   </g>
  </g>
 </g>
 <defs>
  <clipPath id="p4d33894d30">
   <rect x="52.182813" y="7.2" width="357.12" height="266.112"/>
  </clipPath>
 </defs>
</svg>
