<?xml version="1.0" encoding="utf-8" standalone="no"?>
<!DOCTYPE svg PUBLIC "-//W3C//DTD SVG 1.1//EN"
  "http://www.w3.org/Graphics/SVG/1.1/DTD/svg11.dtd">
<svg xmlns:xlink="http://www.w3.org/1999/xlink" width="468pt" height="216pt" viewBox="0 0 468 216" xmlns="http://www.w3.org/2000/svg" version="1.1">
 <metadata>
  <rdf:RDF xmlns:dc="http://purl.org/dc/elements/1.1/" xmlns:cc="http://creativecommons.org/ns#" xmlns:rdf="http://www.w3.org/1999/02/22-rdf-syntax-ns#">
   <cc:Work>
    <dc:type rdf:resource="http://purl.org/dc/dcmitype/StillImage"/>
    <dc:date>2026-07-14T13:11:01.786407</dc:date>
    <dc:format>image/svg+xml</dc:format>
    <dc:creator>
     <cc:Agent>
      <dc:title>Matplotlib v3.9.1, https://matplotlib.org/</dc:title>
     </cc:Agent>
    </dc:creator>
   </cc:Work>
  </rdf:RDF>
 </metadata>
 <defs>
  <style type="text/css">*{stroke-linejoin: round; stroke-linecap: butt}</style>
 </defs>
 <g id="figure_1">
  <g id="patch_1">
   <path d="M 0 216 
L 468 216 
L 468 0 
L 0 0 
z
" style="fill: #ffffff"/>
  </g>
  <g id="axes_1">
   <g id="patch_2">
    <path d="M 65.27 172.312 
L 225.45 172.312 
L 225.45 32.562 
L 65.27 32.562 
z
" style="fill: #ffffff"/>
   </g>
   <g id="matplotlib.axis_1">
    <g id="xtick_1">
     <g id="line2d_1">
      <path d="M 72.550909 172.312 
L 72.550909 32.562 
" clip-path="url(#p1222d9bd7d)" style="fill: none; stroke: #b0b0b0; stroke-width: 0.8; stroke-linecap: square"/>
     </g>
     <g id="line2d_2">
      <defs>
       <path id="m12587da3c8" d="M 0 0 
L 0 3.5 
" style="stroke: #000000; stroke-width: 0.8"/>
      </defs>
      <g>
       <use xlink:href="#m12587da3c8" x="72.550909" y="172.312" style="stroke: #000000; stroke-width: 0.8"/>
      </g>
     </g>
     <g id="text_1">
      <!-- $\Gamma$ -->
      <g transform="translate(69.750909 186.910438) scale(0.1 -0.1)">
       <defs>
        <path id="DejaVuSans-393" d="M 628 0 
L 628 4666 
L 3531 4666 
L 3531 4134 
L 1259 4134 
L 1259 0 
L 628 0 
z
" transform="scale(0.015625)"/>
       </defs>
       <use xlink:href="#DejaVuSans-393" transform="translate(0 0.09375)"/>
      </g>
     </g>
    </g>
    <g id="xtick_2">
     <g id="line2d_3">
      <path d="M 132.867935 172.312 
L 132.867935 32.562 
" clip-path="url(#p1222d9bd7d)" style="fill: none; stroke: #b0b0b0; stroke-width: 0.8; stroke-linecap: square"/>
     </g>
     <g id="line2d_4">
      <g>
       <use xlink:href="#m12587da3c8" x="132.867935" y="172.312" style="stroke: #000000; stroke-width: 0.8"/>
      </g>
     </g>
     <g id="text_2">
      <!-- $M$ -->
      <g transform="translate(128.517935 186.910438) scale(0.1 -0.1)">
       <defs>
        <path id="DejaVuSans-Oblique-4d" d="M 1081 4666 
L 2028 4666 
L 2572 1522 
L 4378 4666 
L 5350 4666 
L 4441 0 
L 3828 0 
L 4622 4091 
L 2791 897 
L 2175 897 
L 1581 4103 
L 788 0 
L 172 0 
L 1081 4666 
z
" transform="scale(0.015625)"/>
       </defs>
       <use xlink:href="#DejaVuSans-Oblique-4d" transform="translate(0 0.09375)"/>
      </g>
     </g>
    </g>
    <g id="xtick_3">
     <g id="line2d_5">
      <path d="M 175.518513 172.312 
L 175.518513 32.562 
" clip-path="url(#p1222d9bd7d)" style="fill: none; stroke: #b0b0b0; stroke-width: 0.8; stroke-linecap: square"/>
     </g>
     <g id="line2d_6">
      <g>
       <use xlink:href="#m12587da3c8" x="175.518513" y="172.312" style="stroke: #000000; stroke-width: 0.8"/>
      </g>
     </g>
     <g id="text_3">
      <!-- $X$ -->
      <g transform="translate(172.068513 186.910438) scale(0.1 -0.1)">
       <defs>
        <path id="DejaVuSans-Oblique-58" d="M 878 4666 
L 1516 4666 
L 2316 2981 
L 3763 4666 
L 4500 4666 
L 2578 2438 
L 3738 0 
L 3103 0 
L 2163 1966 
L 459 0 
L -275 0 
L 1906 2509 
L 878 4666 
z
" transform="scale(0.015625)"/>
       </defs>
       <use xlink:href="#DejaVuSans-Oblique-58" transform="translate(0 0.09375)"/>
      </g>
     </g>
    </g>
    <g id="xtick_4">
     <g id="line2d_7">
      <path d="M 218.169091 172.312 
L 218.169091 32.562 
" clip-path="url(#p1222d9bd7d)" style="fill: none; stroke: #b0b0b0; stroke-width: 0.8; stroke-linecap: square"/>
     </g>
     <g id="line2d_8">
      <g>
       <use xlink:href="#m12587da3c8" x="218.169091" y="172.312" style="stroke: #000000; stroke-width: 0.8"/>
      </g>
     </g>
     <g id="text_4">
      <!-- $\Gamma$ -->
      <g transform="translate(215.369091 186.910438) scale(0.1 -0.1)">
       <use xlink:href="#DejaVuSans-393" transform="translate(0 0.09375)"/>
      </g>
     </g>
    </g>
   </g>
   <g id="matplotlib.axis_2">
    <g id="ytick_1">
     <g id="line2d_9">
      <path d="M 65.27 164.502309 
L 225.45 164.502309 
" clip-path="url(#p1222d9bd7d)" style="fill: none; stroke: #b0b0b0; stroke-width: 0.8; stroke-linecap: square"/>
     </g>
     <g id="line2d_10">
      <defs>
       <path id="mf15e46c616" d="M 0 0 
L -3.5 0 
" style="stroke: #000000; stroke-width: 0.8"/>
      </defs>
      <g>
       <use xlink:href="#mf15e46c616" x="65.27" y="164.502309" style="stroke: #000000; stroke-width: 0.8"/>
      </g>
     </g>
     <g id="text_5">
      <!-- −0.10 -->
      <g transform="translate(27.624688 168.301528) scale(0.1 -0.1)">
       <defs>
        <path id="DejaVuSans-2212" d="M 678 2272 
L 4684 2272 
L 4684 1741 
L 678 1741 
L 678 2272 
z
" transform="scale(0.015625)"/>
        <path id="DejaVuSans-30" d="M 2034 4250 
Q 1547 4250 1301 3770 
Q 1056 3291 1056 2328 
Q 1056 1369 1301 889 
Q 1547 409 2034 409 
Q 2525 409 2770 889 
Q 3016 1369 3016 2328 
Q 3016 3291 2770 3770 
Q 2525 4250 2034 4250 
z
M 2034 4750 
Q 2819 4750 3233 4129 
Q 3647 3509 3647 2328 
Q 3647 1150 3233 529 
Q 2819 -91 2034 -91 
Q 1250 -91 836 529 
Q 422 1150 422 2328 
Q 422 3509 836 4129 
Q 1250 4750 2034 4750 
z
" transform="scale(0.015625)"/>
        <path id="DejaVuSans-2e" d="M 684 794 
L 1344 794 
L 1344 0 
L 684 0 
L 684 794 
z
" transform="scale(0.015625)"/>
        <path id="DejaVuSans-31" d="M 794 531 
L 1825 531 
L 1825 4091 
L 703 3866 
L 703 4441 
L 1819 4666 
L 2450 4666 
L 2450 531 
L 3481 531 
L 3481 0 
L 794 0 
L 794 531 
z
" transform="scale(0.015625)"/>
       </defs>
       <use xlink:href="#DejaVuSans-2212"/>
       <use xlink:href="#DejaVuSans-30" x="83.789062"/>
       <use xlink:href="#DejaVuSans-2e" x="147.412109"/>
       <use xlink:href="#DejaVuSans-31" x="179.199219"/>
       <use xlink:href="#DejaVuSans-30" x="242.822266"/>
      </g>
     </g>
    </g>
    <g id="ytick_2">
     <g id="line2d_11">
      <path d="M 65.27 137.705729 
L 225.45 137.705729 
" clip-path="url(#p1222d9bd7d)" style="fill: none; stroke: #b0b0b0; stroke-width: 0.8; stroke-linecap: square"/>
     </g>
     <g id="line2d_12">
      <g>
       <use xlink:href="#mf15e46c616" x="65.27" y="137.705729" style="stroke: #000000; stroke-width: 0.8"/>
      </g>
     </g>
     <g id="text_6">
      <!-- −0.08 -->
      <g transform="translate(27.624688 141.504948) scale(0.1 -0.1)">
       <defs>
        <path id="DejaVuSans-38" d="M 2034 2216 
Q 1584 2216 1326 1975 
Q 1069 1734 1069 1313 
Q 1069 891 1326 650 
Q 1584 409 2034 409 
Q 2484 409 2743 651 
Q 3003 894 3003 1313 
Q 3003 1734 2745 1975 
Q 2488 2216 2034 2216 
z
M 1403 2484 
Q 997 2584 770 2862 
Q 544 3141 544 3541 
Q 544 4100 942 4425 
Q 1341 4750 2034 4750 
Q 2731 4750 3128 4425 
Q 3525 4100 3525 3541 
Q 3525 3141 3298 2862 
Q 3072 2584 2669 2484 
Q 3125 2378 3379 2068 
Q 3634 1759 3634 1313 
Q 3634 634 3220 271 
Q 2806 -91 2034 -91 
Q 1263 -91 848 271 
Q 434 634 434 1313 
Q 434 1759 690 2068 
Q 947 2378 1403 2484 
z
M 1172 3481 
Q 1172 3119 1398 2916 
Q 1625 2713 2034 2713 
Q 2441 2713 2670 2916 
Q 2900 3119 2900 3481 
Q 2900 3844 2670 4047 
Q 2441 4250 2034 4250 
Q 1625 4250 1398 4047 
Q 1172 3844 1172 3481 
z
" transform="scale(0.015625)"/>
       </defs>
       <use xlink:href="#DejaVuSans-2212"/>
       <use xlink:href="#DejaVuSans-30" x="83.789062"/>
       <use xlink:href="#DejaVuSans-2e" x="147.412109"/>
       <use xlink:href="#DejaVuSans-30" x="179.199219"/>
       <use xlink:href="#DejaVuSans-38" x="242.822266"/>
      </g>
     </g>
    </g>
    <g id="ytick_3">
     <g id="line2d_13">
      <path d="M 65.27 110.90915 
L 225.45 110.90915 
" clip-path="url(#p1222d9bd7d)" style="fill: none; stroke: #b0b0b0; stroke-width: 0.8; stroke-linecap: square"/>
     </g>
     <g id="line2d_14">
      <g>
       <use xlink:href="#mf15e46c616" x="65.27" y="110.90915" style="stroke: #000000; stroke-width: 0.8"/>
      </g>
     </g>
     <g id="text_7">
      <!-- −0.06 -->
      <g transform="translate(27.624688 114.708369) scale(0.1 -0.1)">
       <defs>
        <path id="DejaVuSans-36" d="M 2113 2584 
Q 1688 2584 1439 2293 
Q 1191 2003 1191 1497 
Q 1191 994 1439 701 
Q 1688 409 2113 409 
Q 2538 409 2786 701 
Q 3034 994 3034 1497 
Q 3034 2003 2786 2293 
Q 2538 2584 2113 2584 
z
M 3366 4563 
L 3366 3988 
Q 3128 4100 2886 4159 
Q 2644 4219 2406 4219 
Q 1781 4219 1451 3797 
Q 1122 3375 1075 2522 
Q 1259 2794 1537 2939 
Q 1816 3084 2150 3084 
Q 2853 3084 3261 2657 
Q 3669 2231 3669 1497 
Q 3669 778 3244 343 
Q 2819 -91 2113 -91 
Q 1303 -91 875 529 
Q 447 1150 447 2328 
Q 447 3434 972 4092 
Q 1497 4750 2381 4750 
Q 2619 4750 2861 4703 
Q 3103 4656 3366 4563 
z
" transform="scale(0.015625)"/>
       </defs>
       <use xlink:href="#DejaVuSans-2212"/>
       <use xlink:href="#DejaVuSans-30" x="83.789062"/>
       <use xlink:href="#DejaVuSans-2e" x="147.412109"/>
       <use xlink:href="#DejaVuSans-30" x="179.199219"/>
       <use xlink:href="#DejaVuSans-36" x="242.822266"/>
      </g>
     </g>
    </g>
    <g id="ytick_4">
     <g id="line2d_15">
      <path d="M 65.27 84.11257 
L 225.45 84.11257 
" clip-path="url(#p1222d9bd7d)" style="fill: none; stroke: #b0b0b0; stroke-width: 0.8; stroke-linecap: square"/>
     </g>
     <g id="line2d_16">
      <g>
       <use xlink:href="#mf15e46c616" x="65.27" y="84.11257" style="stroke: #000000; stroke-width: 0.8"/>
      </g>
     </g>
     <g id="text_8">
      <!-- −0.04 -->
      <g transform="translate(27.624688 87.911789) scale(0.1 -0.1)">
       <defs>
        <path id="DejaVuSans-34" d="M 2419 4116 
L 825 1625 
L 2419 1625 
L 2419 4116 
z
M 2253 4666 
L 3047 4666 
L 3047 1625 
L 3713 1625 
L 3713 1100 
L 3047 1100 
L 3047 0 
L 2419 0 
L 2419 1100 
L 313 1100 
L 313 1709 
L 2253 4666 
z
" transform="scale(0.015625)"/>
       </defs>
       <use xlink:href="#DejaVuSans-2212"/>
       <use xlink:href="#DejaVuSans-30" x="83.789062"/>
       <use xlink:href="#DejaVuSans-2e" x="147.412109"/>
       <use xlink:href="#DejaVuSans-30" x="179.199219"/>
       <use xlink:href="#DejaVuSans-34" x="242.822266"/>
      </g>
     </g>
    </g>
    <g id="ytick_5">
     <g id="line2d_17">
      <path d="M 65.27 57.315991 
L 225.45 57.315991 
" clip-path="url(#p1222d9bd7d)" style="fill: none; stroke: #b0b0b0; stroke-width: 0.8; stroke-linecap: square"/>
     </g>
     <g id="line2d_18">
      <g>
       <use xlink:href="#mf15e46c616" x="65.27" y="57.315991" style="stroke: #000000; stroke-width: 0.8"/>
      </g>
     </g>
     <g id="text_9">
      <!-- −0.02 -->
      <g transform="translate(27.624688 61.11521) scale(0.1 -0.1)">
       <defs>
        <path id="DejaVuSans-32" d="M 1228 531 
L 3431 531 
L 3431 0 
L 469 0 
L 469 531 
Q 828 903 1448 1529 
Q 2069 2156 2228 2338 
Q 2531 2678 2651 2914 
Q 2772 3150 2772 3378 
Q 2772 3750 2511 3984 
Q 2250 4219 1831 4219 
Q 1534 4219 1204 4116 
Q 875 4013 500 3803 
L 500 4441 
Q 881 4594 1212 4672 
Q 1544 4750 1819 4750 
Q 2544 4750 2975 4387 
Q 3406 4025 3406 3419 
Q 3406 3131 3298 2873 
Q 3191 2616 2906 2266 
Q 2828 2175 2409 1742 
Q 1991 1309 1228 531 
z
" transform="scale(0.015625)"/>
       </defs>
       <use xlink:href="#DejaVuSans-2212"/>
       <use xlink:href="#DejaVuSans-30" x="83.789062"/>
       <use xlink:href="#DejaVuSans-2e" x="147.412109"/>
       <use xlink:href="#DejaVuSans-30" x="179.199219"/>
       <use xlink:href="#DejaVuSans-32" x="242.822266"/>
      </g>
     </g>
    </g>
    <g id="text_10">
     <!-- $\chi(\mathbf{Q})$ -->
     <g transform="translate(21.524688 113.587) rotate(-90) scale(0.1 -0.1)">
      <defs>
       <path id="DejaVuSans-Oblique-3c7" d="M 1922 -781 
L 1691 416 
L 394 -1334 
L -284 -1334 
L 1553 1141 
L 1269 2613 
Q 1194 3006 713 3006 
L 559 3006 
L 653 3500 
L 872 3494 
Q 1675 3472 1775 2950 
L 2006 1753 
L 3303 3503 
L 3981 3503 
L 2144 1028 
L 2428 -444 
Q 2503 -838 2984 -838 
L 3138 -838 
L 3044 -1331 
L 2825 -1325 
Q 2022 -1303 1922 -781 
z
" transform="scale(0.015625)"/>
       <path id="DejaVuSans-28" d="M 1984 4856 
Q 1566 4138 1362 3434 
Q 1159 2731 1159 2009 
Q 1159 1288 1364 580 
Q 1569 -128 1984 -844 
L 1484 -844 
Q 1016 -109 783 600 
Q 550 1309 550 2009 
Q 550 2706 781 3412 
Q 1013 4119 1484 4856 
L 1984 4856 
z
" transform="scale(0.015625)"/>
       <path id="DejaVuSans-Bold-51" d="M 2847 -84 
L 2753 -84 
Q 1600 -84 959 553 
Q 319 1191 319 2328 
Q 319 3463 958 4106 
Q 1597 4750 2719 4750 
Q 3853 4750 4486 4112 
Q 5119 3475 5119 2328 
Q 5119 1541 4783 972 
Q 4447 403 3816 116 
L 4756 -934 
L 3609 -934 
L 2847 -84 
z
M 2719 3878 
Q 2169 3878 1866 3472 
Q 1563 3066 1563 2328 
Q 1563 1578 1859 1179 
Q 2156 781 2719 781 
Q 3272 781 3575 1187 
Q 3878 1594 3878 2328 
Q 3878 3066 3575 3472 
Q 3272 3878 2719 3878 
z
" transform="scale(0.015625)"/>
       <path id="DejaVuSans-29" d="M 513 4856 
L 1013 4856 
Q 1481 4119 1714 3412 
Q 1947 2706 1947 2009 
Q 1947 1309 1714 600 
Q 1481 -109 1013 -844 
L 513 -844 
Q 928 -128 1133 580 
Q 1338 1288 1338 2009 
Q 1338 2731 1133 3434 
Q 928 4138 513 4856 
z
" transform="scale(0.015625)"/>
      </defs>
      <use xlink:href="#DejaVuSans-Oblique-3c7" transform="translate(0 0.125)"/>
      <use xlink:href="#DejaVuSans-28" transform="translate(59.179688 0.125)"/>
      <use xlink:href="#DejaVuSans-Bold-51" transform="translate(98.193359 0.125)"/>
      <use xlink:href="#DejaVuSans-29" transform="translate(183.203125 0.125)"/>
     </g>
    </g>
   </g>
   <g id="line2d_19">
    <path d="M 72.550909 145.300204 
L 74.378698 138.698491 
L 76.206486 133.030986 
L 78.034275 128.29769 
L 79.252801 125.661164 
L 80.471327 123.439842 
L 81.689852 121.633724 
L 82.908378 120.242809 
L 84.126904 119.267099 
L 85.34543 118.706592 
L 86.563955 118.56129 
L 87.173218 118.64434 
L 87.782481 118.31341 
L 91.438059 107.665073 
L 94.484373 99.412927 
L 97.530687 91.725754 
L 100.577002 84.603553 
L 102.404791 80.601419 
L 103.014053 78.846949 
L 105.451105 70.56709 
L 107.278894 65.031425 
L 109.106682 60.07367 
L 110.934471 55.693825 
L 112.76226 51.891891 
L 114.590048 48.667868 
L 116.417837 46.021755 
L 117.636363 44.578741 
L 118.854889 43.86875 
L 122.510466 42.174275 
L 126.166043 40.763566 
L 129.212358 39.804742 
L 132.258672 39.042978 
L 132.867935 38.914273 
L 132.867935 38.914273 
L 143.638283 40.51507 
L 156.131887 46.991178 
L 165.609793 51.530302 
L 178.103396 59.316651 
L 185.858047 64.452512 
L 186.288861 65.027352 
L 196.628395 99.668551 
L 197.059209 100.708446 
L 207.398743 115.982229 
L 208.691185 119.381206 
L 218.169091 145.300204 
L 218.169091 145.300204 
" clip-path="url(#p1222d9bd7d)" style="fill: none; stroke: #1f77b4; stroke-width: 1.5; stroke-linecap: square"/>
   </g>
   <g id="line2d_20">
    <path d="M 72.550909 147.756168 
L 74.378698 141.038391 
L 76.206486 135.275254 
L 78.034275 130.466756 
L 79.252801 127.791447 
L 80.471327 125.540422 
L 81.689852 123.713681 
L 82.908378 122.311225 
L 84.126904 121.333053 
L 85.34543 120.779165 
L 86.563955 120.649562 
L 87.173218 120.743868 
L 87.782481 120.415952 
L 90.828796 111.366938 
L 93.87511 102.919936 
L 96.921425 95.074945 
L 99.967739 87.831964 
L 103.014053 80.705989 
L 105.451105 72.330427 
L 107.278894 66.749384 
L 109.106682 61.76888 
L 110.934471 57.388915 
L 112.76226 53.609489 
L 114.590048 50.430602 
L 116.417837 47.852254 
L 117.636363 46.466988 
L 118.854889 45.765946 
L 121.901203 44.378737 
L 124.947517 43.250271 
L 127.993832 42.380547 
L 131.040146 41.769564 
L 132.867935 41.527171 
L 132.867935 41.527171 
L 143.638283 42.387347 
L 156.5627 48.565762 
L 165.178979 52.413196 
L 179.826652 61.744563 
L 185.858047 65.709555 
L 186.288861 66.288224 
L 196.628395 101.449051 
L 197.059209 102.502676 
L 207.398743 117.915838 
L 208.691185 121.374145 
L 218.169091 147.756168 
L 218.169091 147.756168 
" clip-path="url(#p1222d9bd7d)" style="fill: none; stroke: #ff7f0e; stroke-width: 1.5; stroke-linecap: square"/>
   </g>
   <g id="line2d_21">
    <path d="M 72.550909 149.93683 
L 74.378698 143.122599 
L 76.206486 137.279888 
L 78.034275 132.408697 
L 79.252801 129.700969 
L 80.471327 127.425028 
L 81.689852 125.580873 
L 82.908378 124.168505 
L 84.126904 123.187923 
L 85.34543 122.639128 
L 86.563955 122.52212 
L 87.173218 122.625535 
L 87.782481 122.299836 
L 90.828796 113.150083 
L 93.87511 104.6332 
L 96.921425 96.749188 
L 99.967739 89.498047 
L 103.014053 82.378854 
L 105.451105 73.924142 
L 107.278894 68.305805 
L 109.106682 63.306924 
L 110.934471 58.927498 
L 112.76226 55.167527 
L 114.590048 52.027011 
L 115.808574 50.277476 
L 117.0271 48.803254 
L 117.636363 48.169386 
L 118.854889 47.476159 
L 121.29194 46.372013 
L 123.728992 45.466467 
L 126.166043 44.759523 
L 128.603095 44.251179 
L 131.040146 43.941436 
L 133.298749 43.847147 
L 143.638283 44.078387 
L 157.424328 50.193595 
L 165.178979 53.492054 
L 185.858047 66.880692 
L 186.288861 67.46264 
L 196.628395 103.061068 
L 197.059209 104.126372 
L 207.398743 119.662534 
L 208.691185 123.170198 
L 218.169091 149.93683 
L 218.169091 149.93683 
" clip-path="url(#p1222d9bd7d)" style="fill: none; stroke: #2ca02c; stroke-width: 1.5; stroke-linecap: square"/>
   </g>
   <g id="line2d_22">
    <path d="M 72.550909 151.828443 
L 74.378698 144.929194 
L 76.206486 139.016236 
L 78.034275 134.08957 
L 79.252801 131.353065 
L 80.471327 129.054912 
L 81.689852 127.19511 
L 82.908378 125.773661 
L 84.126904 124.790563 
L 85.34543 124.245816 
L 86.563955 124.139422 
L 87.173218 124.250606 
L 87.782481 123.926569 
L 90.828796 114.68622 
L 93.87511 106.105873 
L 96.921425 98.185528 
L 99.967739 90.925185 
L 103.014053 83.810161 
L 104.841842 77.311 
L 106.669631 71.447735 
L 108.497419 66.220366 
L 110.325208 61.628892 
L 112.152997 57.673313 
L 113.980785 54.353631 
L 115.199311 52.493784 
L 116.417837 50.916558 
L 117.636363 49.621952 
L 118.854889 48.935485 
L 121.29194 47.854082 
L 123.728992 46.999738 
L 126.166043 46.372454 
L 128.603095 45.972228 
L 131.040146 45.799061 
L 140.622585 45.569215 
L 143.638283 45.521301 
L 158.71677 51.765278 
L 165.178979 54.404905 
L 185.858047 67.87475 
L 186.288861 68.45965 
L 196.628395 104.445176 
L 197.059209 105.520934 
L 207.398743 121.171785 
L 208.691185 124.722996 
L 218.169091 151.828443 
L 218.169091 151.828443 
" clip-path="url(#p1222d9bd7d)" style="fill: none; stroke: #d62728; stroke-width: 1.5; stroke-linecap: square"/>
   </g>
   <g id="line2d_23">
    <path d="M 72.550909 153.485621 
L 74.378698 146.516006 
L 76.206486 140.545211 
L 78.034275 135.573236 
L 79.252801 132.813487 
L 80.471327 130.497658 
L 81.689852 128.625749 
L 82.908378 127.197761 
L 84.126904 126.213693 
L 85.34543 125.673545 
L 86.563955 125.577317 
L 87.173218 125.695673 
L 87.782481 125.37383 
L 90.828796 116.06355 
L 93.87511 107.436209 
L 96.921425 99.491806 
L 99.967739 92.23034 
L 103.014053 85.124803 
L 104.841842 78.57914 
L 106.669631 72.683392 
L 108.497419 67.43756 
L 110.325208 62.841644 
L 112.152997 58.895645 
L 113.980785 55.599561 
L 115.199311 53.763236 
L 116.417837 52.215763 
L 117.636363 50.957142 
L 118.854889 50.276253 
L 121.29194 49.213958 
L 123.728992 48.403264 
L 126.166043 47.84417 
L 128.603095 47.536678 
L 131.040146 47.480787 
L 134.160377 47.507003 
L 143.638283 46.8466 
L 160.440026 53.392759 
L 165.178979 55.276557 
L 183.703977 67.418888 
L 185.858047 68.812088 
L 186.288861 69.399202 
L 196.628395 105.700098 
L 197.059209 106.784034 
L 207.398743 122.512056 
L 208.691185 126.099193 
L 218.169091 153.485621 
L 218.169091 153.485621 
" clip-path="url(#p1222d9bd7d)" style="fill: none; stroke: #9467bd; stroke-width: 1.5; stroke-linecap: square"/>
   </g>
   <g id="line2d_24">
    <path d="M 72.550909 154.790927 
L 74.378698 147.758596 
L 76.206486 141.73619 
L 78.034275 136.723707 
L 79.252801 133.943122 
L 80.471327 131.611392 
L 81.689852 129.728517 
L 82.908378 128.294497 
L 84.126904 127.309333 
L 85.34543 126.773024 
L 86.563955 126.68557 
L 87.173218 126.810164 
L 87.782481 126.490067 
L 90.828796 117.115898 
L 93.87511 108.445508 
L 96.921425 100.478898 
L 99.967739 93.216066 
L 103.014053 86.119258 
L 104.841842 79.533777 
L 106.669631 73.610812 
L 108.497419 68.350362 
L 110.325208 63.752429 
L 112.152997 59.817011 
L 113.980785 56.544109 
L 115.199311 54.730239 
L 116.417837 53.210821 
L 117.636363 51.985853 
L 118.854889 51.310672 
L 121.29194 50.266862 
L 123.728992 49.496851 
L 126.166043 49.000639 
L 128.603095 48.778227 
L 131.040146 48.829614 
L 133.298749 48.998631 
L 143.638283 47.870145 
L 165.609793 56.165956 
L 180.257466 65.862704 
L 185.858047 69.467791 
L 186.288861 70.056853 
L 196.628395 106.64021 
L 197.059209 107.7316 
L 207.398743 123.534974 
L 208.691185 127.154185 
L 218.169091 154.790927 
L 218.169091 154.790927 
" clip-path="url(#p1222d9bd7d)" style="fill: none; stroke: #8c564b; stroke-width: 1.5; stroke-linecap: square"/>
   </g>
   <g id="line2d_25">
    <defs>
     <path id="ma0567b5465" d="M -3 3 
L 3 -3 
M -3 -3 
L 3 3 
" style="stroke: #ff0000"/>
    </defs>
    <g clip-path="url(#p1222d9bd7d)">
     <use xlink:href="#ma0567b5465" x="132.867935" y="69.373057" style="fill: #ff0000; stroke: #ff0000"/>
    </g>
   </g>
   <g id="line2d_26">
    <path d="M 72.550909 165.959727 
L 74.378698 158.158817 
L 76.206486 151.505599 
L 77.425012 147.707726 
L 78.643538 144.419939 
L 79.862064 141.642237 
L 81.08059 139.37462 
L 82.299115 137.617088 
L 83.517641 136.369641 
L 84.736167 135.63228 
L 85.34543 135.454881 
L 85.954693 135.405004 
L 86.563955 135.482647 
L 87.173218 135.687812 
L 87.782481 135.394685 
L 90.828796 125.286302 
L 93.265847 117.892662 
L 95.702899 111.115081 
L 98.13995 104.953558 
L 100.577002 99.408094 
L 102.404791 95.653285 
L 103.014053 93.790958 
L 104.841842 86.655247 
L 106.669631 80.351973 
L 108.497419 74.881135 
L 110.325208 70.242735 
L 111.543734 67.612933 
L 112.76226 65.353103 
L 113.980785 63.463245 
L 115.199311 61.943359 
L 116.417837 60.793445 
L 117.636363 60.013503 
L 119.464151 59.156031 
L 121.29194 58.610438 
L 123.119729 58.390257 
L 124.947517 58.495488 
L 126.775306 58.926131 
L 128.603095 59.682187 
L 130.430883 60.763655 
L 132.258672 62.170535 
L 132.867935 62.711809 
L 132.867935 62.711809 
L 143.638283 55.795513 
L 155.270259 56.512604 
L 164.748165 57.916609 
L 165.609793 58.527053 
L 175.949327 66.60084 
L 185.858047 72.592262 
L 186.288861 73.207127 
L 196.628395 113.47841 
L 197.059209 114.662778 
L 207.398743 131.241168 
L 208.260371 133.856497 
L 218.169091 165.959727 
L 218.169091 165.959727 
" clip-path="url(#p1222d9bd7d)" style="fill: none; stroke: #000000; stroke-width: 1.5; stroke-linecap: square"/>
   </g>
   <g id="line2d_27">
    <path d="M 72.550909 165.939604 
L 74.378698 158.140375 
L 76.206486 151.48866 
L 77.425012 147.691691 
L 78.643538 144.404728 
L 79.862064 141.627771 
L 81.08059 139.360821 
L 82.299115 137.603876 
L 83.517641 136.356937 
L 84.736167 135.620005 
L 85.34543 135.442791 
L 85.954693 135.393078 
L 86.563955 135.470867 
L 87.173218 135.676158 
L 87.782481 135.383252 
L 90.828796 125.277567 
L 93.265847 117.88595 
L 95.702899 111.110271 
L 98.13995 104.950529 
L 100.577002 99.406726 
L 102.404791 95.653082 
L 103.014053 93.791084 
L 104.841842 86.656251 
L 106.669631 80.353899 
L 108.497419 74.884029 
L 110.325208 70.24664 
L 111.543734 67.617537 
L 112.76226 65.358426 
L 113.980785 63.469307 
L 115.199311 61.95018 
L 116.417837 60.801044 
L 117.636363 60.0219 
L 119.464151 59.16493 
L 121.29194 58.619905 
L 123.119729 58.400428 
L 124.947517 58.506499 
L 126.775306 58.938118 
L 128.603095 59.695286 
L 130.430883 60.778002 
L 132.258672 62.186266 
L 132.867935 62.728032 
L 132.867935 62.728032 
L 143.638283 55.805504 
L 155.270259 56.5169 
L 164.748165 57.917752 
L 165.609793 58.528079 
L 175.949327 66.600757 
L 185.858047 72.590991 
L 186.288861 73.205762 
L 196.628395 113.471793 
L 197.059209 114.655929 
L 207.398743 131.228409 
L 208.260371 133.843159 
L 218.169091 165.939604 
L 218.169091 165.939604 
" clip-path="url(#p1222d9bd7d)" style="fill: none; stroke: #000000; stroke-width: 1.5; stroke-linecap: square"/>
   </g>
   <g id="line2d_28">
    <path d="M 72.550909 165.925745 
L 74.378698 158.127697 
L 76.206486 151.477035 
L 77.425012 147.680697 
L 78.643538 144.394309 
L 79.862064 141.61787 
L 81.08059 139.35138 
L 82.299115 137.59484 
L 83.517641 136.34825 
L 84.736167 135.611609 
L 85.34543 135.43452 
L 85.954693 135.384917 
L 86.563955 135.462803 
L 87.173218 135.668175 
L 87.782481 135.375418 
L 90.828796 125.271592 
L 93.265847 117.881365 
L 95.702899 111.10699 
L 98.13995 104.948467 
L 100.577002 99.405796 
L 102.404791 95.652946 
L 103.014053 93.791173 
L 104.841842 86.656945 
L 106.669631 80.355235 
L 108.497419 74.886041 
L 110.325208 70.249365 
L 111.543734 67.620757 
L 112.76226 65.362157 
L 113.980785 63.473564 
L 115.199311 61.954979 
L 116.417837 60.806401 
L 117.636363 60.027831 
L 119.464151 59.171224 
L 121.29194 58.626614 
L 123.119729 58.407657 
L 124.947517 58.514352 
L 126.775306 58.9467 
L 128.603095 59.704701 
L 130.430883 60.788354 
L 132.258672 62.197659 
L 132.867935 62.739795 
L 132.867935 62.739795 
L 143.638283 55.812574 
L 155.270259 56.519847 
L 164.748165 57.918513 
L 165.609793 58.528762 
L 175.949327 66.600704 
L 185.858047 72.59015 
L 186.288861 73.204858 
L 196.628395 113.467307 
L 197.059209 114.651284 
L 207.398743 131.219724 
L 208.260371 133.83407 
L 218.169091 165.925745 
L 218.169091 165.925745 
" clip-path="url(#p1222d9bd7d)" style="fill: none; stroke: #000000; stroke-width: 1.5; stroke-linecap: square"/>
   </g>
   <g id="line2d_29">
    <path d="M 72.550909 165.915483 
L 74.378698 158.118334 
L 76.206486 151.468472 
L 77.425012 147.672613 
L 78.643538 144.386658 
L 79.862064 141.61061 
L 81.08059 139.344466 
L 82.299115 137.588228 
L 83.517641 136.341895 
L 84.736167 135.605468 
L 85.34543 135.428468 
L 85.954693 135.378946 
L 86.563955 135.456899 
L 87.173218 135.662329 
L 87.782481 135.369678 
L 90.828796 125.267227 
L 93.265847 117.878024 
L 95.702899 111.104606 
L 98.13995 104.946973 
L 100.577002 99.405125 
L 102.404791 95.652848 
L 103.014053 93.791237 
L 104.841842 86.657448 
L 106.669631 80.356204 
L 108.497419 74.887508 
L 110.325208 70.251358 
L 111.543734 67.623117 
L 112.76226 65.364897 
L 113.980785 63.476697 
L 115.199311 61.958519 
L 116.417837 60.81036 
L 117.636363 60.032223 
L 119.464151 59.17589 
L 121.29194 58.631599 
L 123.119729 58.413045 
L 124.947517 58.520226 
L 126.775306 58.953144 
L 128.603095 59.711798 
L 130.430883 60.796189 
L 132.258672 62.206315 
L 132.867935 62.748743 
L 132.867935 62.748743 
L 143.638283 55.817818 
L 155.270259 56.521958 
L 164.748165 57.919038 
L 165.609793 58.529233 
L 175.949327 66.60067 
L 185.858047 72.589569 
L 186.288861 73.204233 
L 196.628395 113.464072 
L 197.059209 114.647933 
L 207.398743 131.213407 
L 208.260371 133.827445 
L 218.169091 165.915483 
L 218.169091 165.915483 
" clip-path="url(#p1222d9bd7d)" style="fill: none; stroke: #000000; stroke-width: 1.5; stroke-linecap: square"/>
   </g>
   <g id="line2d_30">
    <path d="M 72.550909 165.907422 
L 74.378698 158.110963 
L 76.206486 151.461713 
L 77.425012 147.666219 
L 78.643538 144.380597 
L 79.862064 141.604845 
L 81.08059 139.338964 
L 82.299115 137.582955 
L 83.517641 136.336817 
L 84.736167 135.60055 
L 85.34543 135.423618 
L 85.954693 135.374154 
L 86.563955 135.452157 
L 87.173218 135.657629 
L 87.782481 135.36506 
L 90.828796 125.263695 
L 93.265847 117.875308 
L 95.702899 111.102658 
L 98.13995 104.945745 
L 100.577002 99.404571 
L 102.404791 95.652767 
L 103.014053 93.791295 
L 104.841842 86.65789 
L 106.669631 80.357056 
L 108.497419 74.888793 
L 110.325208 70.253101 
L 111.543734 67.625179 
L 112.76226 65.367288 
L 113.980785 63.479429 
L 115.199311 61.961602 
L 116.417837 60.813806 
L 117.636363 60.036042 
L 119.464151 59.179944 
L 121.29194 58.635924 
L 123.119729 58.41771 
L 124.947517 58.5253 
L 126.775306 58.958695 
L 128.603095 59.717896 
L 130.430883 60.802901 
L 132.258672 62.213711 
L 132.867935 62.756383 
L 132.867935 62.756383 
L 143.638283 55.822375 
L 155.270259 56.52383 
L 164.748165 57.919512 
L 165.609793 58.529658 
L 175.949327 66.600641 
L 185.858047 72.58906 
L 186.288861 73.203686 
L 196.628395 113.461401 
L 197.059209 114.64517 
L 207.398743 131.208373 
L 208.260371 133.822175 
L 218.169091 165.907422 
L 218.169091 165.907422 
" clip-path="url(#p1222d9bd7d)" style="fill: none; stroke: #000000; stroke-width: 1.5; stroke-linecap: square"/>
   </g>
   <g id="line2d_31">
    <path d="M 72.550909 165.902241 
L 74.378698 158.106266 
L 76.206486 151.457444 
L 77.425012 147.662203 
L 78.643538 144.376808 
L 79.862064 141.601258 
L 81.08059 139.335554 
L 82.299115 137.579696 
L 83.517641 136.333684 
L 84.736167 135.597517 
L 85.34543 135.420625 
L 85.954693 135.371196 
L 86.563955 135.449227 
L 87.173218 135.65472 
L 87.782481 135.3622 
L 90.828796 125.261527 
L 93.265847 117.873654 
L 95.702899 111.101482 
L 98.13995 104.945011 
L 100.577002 99.404243 
L 102.404791 95.65272 
L 103.014053 93.791328 
L 104.841842 86.65815 
L 106.669631 80.357563 
L 108.497419 74.889569 
L 110.325208 70.254166 
L 111.543734 67.626449 
L 112.76226 65.368773 
L 113.980785 63.481138 
L 115.199311 61.963543 
L 116.417837 60.81599 
L 117.636363 60.038477 
L 119.464151 59.18254 
L 121.29194 58.638714 
L 123.119729 58.420748 
L 124.947517 58.528644 
L 126.775306 58.962401 
L 128.603095 59.722019 
L 130.430883 60.807498 
L 132.258672 62.218838 
L 132.867935 62.761698 
L 132.867935 62.761698 
L 143.638283 55.825296 
L 155.270259 56.524898 
L 164.748165 57.919747 
L 165.609793 58.529868 
L 175.949327 66.600626 
L 185.858047 72.588802 
L 186.288861 73.203407 
L 196.628395 113.459832 
L 197.059209 114.643545 
L 207.398743 131.205323 
L 208.260371 133.818961 
L 218.169091 165.902241 
L 218.169091 165.902241 
" clip-path="url(#p1222d9bd7d)" style="fill: none; stroke: #000000; stroke-width: 1.5; stroke-linecap: square"/>
   </g>
   <g id="line2d_32">
    <g clip-path="url(#p1222d9bd7d)">
     <use xlink:href="#ma0567b5465" x="132.867935" y="62.863061" style="fill: #ff0000; stroke: #ff0000"/>
    </g>
   </g>
   <g id="patch_3">
    <path d="M 65.27 172.312 
L 65.27 32.562 
" style="fill: none; stroke: #000000; stroke-width: 0.8; stroke-linejoin: miter; stroke-linecap: square"/>
   </g>
   <g id="patch_4">
    <path d="M 225.45 172.312 
L 225.45 32.562 
" style="fill: none; stroke: #000000; stroke-width: 0.8; stroke-linejoin: miter; stroke-linecap: square"/>
   </g>
   <g id="patch_5">
    <path d="M 65.27 172.312 
L 225.45 172.312 
" style="fill: none; stroke: #000000; stroke-width: 0.8; stroke-linejoin: miter; stroke-linecap: square"/>
   </g>
   <g id="patch_6">
    <path d="M 65.27 32.562 
L 225.45 32.562 
" style="fill: none; stroke: #000000; stroke-width: 0.8; stroke-linejoin: miter; stroke-linecap: square"/>
   </g>
   <g id="text_11">
    <!-- (1, 1, 0, 0), w=0 -->
    <g transform="translate(96.400938 26.562) scale(0.12 -0.12)">
     <defs>
      <path id="DejaVuSans-2c" d="M 750 794 
L 1409 794 
L 1409 256 
L 897 -744 
L 494 -744 
L 750 256 
L 750 794 
z
" transform="scale(0.015625)"/>
      <path id="DejaVuSans-20" transform="scale(0.015625)"/>
      <path id="DejaVuSans-77" d="M 269 3500 
L 844 3500 
L 1563 769 
L 2278 3500 
L 2956 3500 
L 3675 769 
L 4391 3500 
L 4966 3500 
L 4050 0 
L 3372 0 
L 2619 2869 
L 1863 0 
L 1184 0 
L 269 3500 
z
" transform="scale(0.015625)"/>
      <path id="DejaVuSans-3d" d="M 678 2906 
L 4684 2906 
L 4684 2381 
L 678 2381 
L 678 2906 
z
M 678 1631 
L 4684 1631 
L 4684 1100 
L 678 1100 
L 678 1631 
z
" transform="scale(0.015625)"/>
     </defs>
     <use xlink:href="#DejaVuSans-28"/>
     <use xlink:href="#DejaVuSans-31" x="39.013672"/>
     <use xlink:href="#DejaVuSans-2c" x="102.636719"/>
     <use xlink:href="#DejaVuSans-20" x="134.423828"/>
     <use xlink:href="#DejaVuSans-31" x="166.210938"/>
     <use xlink:href="#DejaVuSans-2c" x="229.833984"/>
     <use xlink:href="#DejaVuSans-20" x="261.621094"/>
     <use xlink:href="#DejaVuSans-30" x="293.408203"/>
     <use xlink:href="#DejaVuSans-2c" x="357.03125"/>
     <use xlink:href="#DejaVuSans-20" x="388.818359"/>
     <use xlink:href="#DejaVuSans-30" x="420.605469"/>
     <use xlink:href="#DejaVuSans-29" x="484.228516"/>
     <use xlink:href="#DejaVuSans-2c" x="523.242188"/>
     <use xlink:href="#DejaVuSans-20" x="555.029297"/>
     <use xlink:href="#DejaVuSans-77" x="586.816406"/>
     <use xlink:href="#DejaVuSans-3d" x="668.603516"/>
     <use xlink:href="#DejaVuSans-30" x="752.392578"/>
    </g>
   </g>
   <g id="legend_1">
    <g id="patch_7">
     <path d="M 117.88 168.312 
L 172.84 168.312 
Q 174.44 168.312 174.44 166.712 
L 174.44 97.057 
Q 174.44 95.457 172.84 95.457 
L 117.88 95.457 
Q 116.28 95.457 116.28 97.057 
L 116.28 166.712 
Q 116.28 168.312 117.88 168.312 
z
" style="fill: #ffffff; opacity: 0.8; stroke: #cccccc; stroke-linejoin: miter"/>
    </g>
    <g id="line2d_33">
     <path d="M 119.48 101.93575 
L 127.48 101.93575 
L 135.48 101.93575 
" style="fill: none; stroke: #1f77b4; stroke-width: 1.5; stroke-linecap: square"/>
    </g>
    <g id="text_12">
     <!-- $N_{\nu} = $$20$ -->
     <g transform="translate(141.88 104.73575) scale(0.08 -0.08)">
      <defs>
       <path id="DejaVuSans-Oblique-4e" d="M 1081 4666 
L 1931 4666 
L 3219 666 
L 4000 4666 
L 4616 4666 
L 3706 0 
L 2853 0 
L 1569 4025 
L 788 0 
L 172 0 
L 1081 4666 
z
" transform="scale(0.015625)"/>
       <path id="DejaVuSans-Oblique-3bd" d="M 959 0 
L 572 3500 
L 1191 3500 
L 1522 563 
Q 1972 950 2391 1488 
Q 2706 1891 2788 2241 
Q 2825 2406 2809 2719 
Q 2794 3091 2544 3500 
L 3125 3500 
L 3125 3500 
Q 3288 3222 3353 2834 
Q 3416 2478 3369 2234 
Q 3250 1622 2719 1075 
Q 2025 363 1572 0 
L 959 0 
z
" transform="scale(0.015625)"/>
      </defs>
      <use xlink:href="#DejaVuSans-Oblique-4e" transform="translate(0 0.78125)"/>
      <use xlink:href="#DejaVuSans-Oblique-3bd" transform="translate(74.804688 -15.625) scale(0.7)"/>
      <use xlink:href="#DejaVuSans-3d" transform="translate(136.123047 0.78125)"/>
      <use xlink:href="#DejaVuSans-32" transform="translate(239.394531 0.78125)"/>
      <use xlink:href="#DejaVuSans-30" transform="translate(303.017578 0.78125)"/>
     </g>
    </g>
    <g id="line2d_34">
     <path d="M 119.48 113.67825 
L 127.48 113.67825 
L 135.48 113.67825 
" style="fill: none; stroke: #ff7f0e; stroke-width: 1.5; stroke-linecap: square"/>
    </g>
    <g id="text_13">
     <!-- $N_{\nu} = $$22$ -->
     <g transform="translate(141.88 116.47825) scale(0.08 -0.08)">
      <use xlink:href="#DejaVuSans-Oblique-4e" transform="translate(0 0.78125)"/>
      <use xlink:href="#DejaVuSans-Oblique-3bd" transform="translate(74.804688 -15.625) scale(0.7)"/>
      <use xlink:href="#DejaVuSans-3d" transform="translate(136.123047 0.78125)"/>
      <use xlink:href="#DejaVuSans-32" transform="translate(239.394531 0.78125)"/>
      <use xlink:href="#DejaVuSans-32" transform="translate(303.017578 0.78125)"/>
     </g>
    </g>
    <g id="line2d_35">
     <path d="M 119.48 125.42075 
L 127.48 125.42075 
L 135.48 125.42075 
" style="fill: none; stroke: #2ca02c; stroke-width: 1.5; stroke-linecap: square"/>
    </g>
    <g id="text_14">
     <!-- $N_{\nu} = $$24$ -->
     <g transform="translate(141.88 128.22075) scale(0.08 -0.08)">
      <use xlink:href="#DejaVuSans-Oblique-4e" transform="translate(0 0.78125)"/>
      <use xlink:href="#DejaVuSans-Oblique-3bd" transform="translate(74.804688 -15.625) scale(0.7)"/>
      <use xlink:href="#DejaVuSans-3d" transform="translate(136.123047 0.78125)"/>
      <use xlink:href="#DejaVuSans-32" transform="translate(239.394531 0.78125)"/>
      <use xlink:href="#DejaVuSans-34" transform="translate(303.017578 0.78125)"/>
     </g>
    </g>
    <g id="line2d_36">
     <path d="M 119.48 137.16325 
L 127.48 137.16325 
L 135.48 137.16325 
" style="fill: none; stroke: #d62728; stroke-width: 1.5; stroke-linecap: square"/>
    </g>
    <g id="text_15">
     <!-- $N_{\nu} = $$26$ -->
     <g transform="translate(141.88 139.96325) scale(0.08 -0.08)">
      <use xlink:href="#DejaVuSans-Oblique-4e" transform="translate(0 0.78125)"/>
      <use xlink:href="#DejaVuSans-Oblique-3bd" transform="translate(74.804688 -15.625) scale(0.7)"/>
      <use xlink:href="#DejaVuSans-3d" transform="translate(136.123047 0.78125)"/>
      <use xlink:href="#DejaVuSans-32" transform="translate(239.394531 0.78125)"/>
      <use xlink:href="#DejaVuSans-36" transform="translate(303.017578 0.78125)"/>
     </g>
    </g>
    <g id="line2d_37">
     <path d="M 119.48 148.90575 
L 127.48 148.90575 
L 135.48 148.90575 
" style="fill: none; stroke: #9467bd; stroke-width: 1.5; stroke-linecap: square"/>
    </g>
    <g id="text_16">
     <!-- $N_{\nu} = $$28$ -->
     <g transform="translate(141.88 151.70575) scale(0.08 -0.08)">
      <use xlink:href="#DejaVuSans-Oblique-4e" transform="translate(0 0.78125)"/>
      <use xlink:href="#DejaVuSans-Oblique-3bd" transform="translate(74.804688 -15.625) scale(0.7)"/>
      <use xlink:href="#DejaVuSans-3d" transform="translate(136.123047 0.78125)"/>
      <use xlink:href="#DejaVuSans-32" transform="translate(239.394531 0.78125)"/>
      <use xlink:href="#DejaVuSans-38" transform="translate(303.017578 0.78125)"/>
     </g>
    </g>
    <g id="line2d_38">
     <path d="M 119.48 160.64825 
L 127.48 160.64825 
L 135.48 160.64825 
" style="fill: none; stroke: #8c564b; stroke-width: 1.5; stroke-linecap: square"/>
    </g>
    <g id="text_17">
     <!-- $N_{\nu} = $$30$ -->
     <g transform="translate(141.88 163.44825) scale(0.08 -0.08)">
      <defs>
       <path id="DejaVuSans-33" d="M 2597 2516 
Q 3050 2419 3304 2112 
Q 3559 1806 3559 1356 
Q 3559 666 3084 287 
Q 2609 -91 1734 -91 
Q 1441 -91 1130 -33 
Q 819 25 488 141 
L 488 750 
Q 750 597 1062 519 
Q 1375 441 1716 441 
Q 2309 441 2620 675 
Q 2931 909 2931 1356 
Q 2931 1769 2642 2001 
Q 2353 2234 1838 2234 
L 1294 2234 
L 1294 2753 
L 1863 2753 
Q 2328 2753 2575 2939 
Q 2822 3125 2822 3475 
Q 2822 3834 2567 4026 
Q 2313 4219 1838 4219 
Q 1578 4219 1281 4162 
Q 984 4106 628 3988 
L 628 4550 
Q 988 4650 1302 4700 
Q 1616 4750 1894 4750 
Q 2613 4750 3031 4423 
Q 3450 4097 3450 3541 
Q 3450 3153 3228 2886 
Q 3006 2619 2597 2516 
z
" transform="scale(0.015625)"/>
      </defs>
      <use xlink:href="#DejaVuSans-Oblique-4e" transform="translate(0 0.78125)"/>
      <use xlink:href="#DejaVuSans-Oblique-3bd" transform="translate(74.804688 -15.625) scale(0.7)"/>
      <use xlink:href="#DejaVuSans-3d" transform="translate(136.123047 0.78125)"/>
      <use xlink:href="#DejaVuSans-33" transform="translate(239.394531 0.78125)"/>
      <use xlink:href="#DejaVuSans-30" transform="translate(303.017578 0.78125)"/>
     </g>
    </g>
   </g>
  </g>
  <g id="axes_2">
   <g id="patch_8">
    <path d="M 297.02 172.312 
L 457.2 172.312 
L 457.2 32.562 
L 297.02 32.562 
z
" style="fill: #ffffff"/>
   </g>
   <g id="line2d_39">
    <path d="M 304.300909 165.959727 
L 307.272709 163.366963 
L 310.244508 160.774199 
L 313.216308 158.181434 
L 316.188108 155.58867 
L 319.159907 152.995905 
L 322.131707 150.403141 
L 325.103506 147.810377 
L 328.075306 145.217612 
L 331.047106 142.624848 
L 334.018905 140.032083 
L 336.990705 137.439319 
L 339.962505 134.846555 
L 342.934304 132.25379 
L 345.906104 129.661026 
L 348.877904 127.068262 
L 351.849703 124.475497 
L 354.821503 121.882733 
L 357.793302 119.289968 
L 360.765102 116.697204 
L 363.736902 114.10444 
L 366.708701 111.511675 
L 369.680501 108.918911 
L 372.652301 106.326147 
L 375.6241 103.733382 
L 378.5959 101.140618 
L 381.567699 98.547853 
L 384.539499 95.955089 
L 387.511299 93.362325 
L 390.483098 90.76956 
L 393.454898 88.176796 
L 396.426698 85.584032 
L 399.398497 82.991267 
L 402.370297 80.398503 
L 405.342096 77.805738 
L 408.313896 75.212974 
L 411.285696 72.62021 
L 414.257495 70.027445 
L 417.229295 67.434681 
L 420.201095 64.841917 
L 423.172894 62.249152 
L 426.144694 59.656388 
L 429.116494 57.063623 
L 432.088293 54.470859 
L 435.060093 51.878095 
L 438.031892 49.28533 
L 441.003692 46.692566 
L 443.975492 44.099801 
L 446.947291 41.507037 
L 449.919091 38.914273 
" clip-path="url(#pd5106662d6)" style="fill: none; stroke-dasharray: 3.7,1.6; stroke-dashoffset: 0; stroke: #000000"/>
   </g>
   <g id="line2d_40">
    <path d="M 304.300909 138.890519 
L 307.272709 138.877824 
L 310.244508 138.86513 
L 313.216308 138.852435 
L 316.188108 138.839741 
L 319.159907 138.827046 
L 322.131707 138.814352 
L 325.103506 138.801658 
L 328.075306 138.788963 
L 331.047106 138.776269 
L 334.018905 138.763574 
L 336.990705 138.75088 
L 339.962505 138.738185 
L 342.934304 138.725491 
L 345.906104 138.712796 
L 348.877904 138.700102 
L 351.849703 138.687407 
L 354.821503 138.674713 
L 357.793302 138.662018 
L 360.765102 138.649324 
L 363.736902 138.636629 
L 366.708701 138.623935 
L 369.680501 138.61124 
L 372.652301 138.598546 
L 375.6241 138.585851 
L 378.5959 138.573157 
L 381.567699 138.560462 
L 384.539499 138.547768 
L 387.511299 138.535073 
L 390.483098 138.522379 
L 393.454898 138.509684 
L 396.426698 138.49699 
L 399.398497 138.484295 
L 402.370297 138.471601 
L 405.342096 138.458906 
L 408.313896 138.446212 
L 411.285696 138.433517 
L 414.257495 138.420823 
L 417.229295 138.408128 
L 420.201095 138.395434 
L 423.172894 138.382739 
L 426.144694 138.370045 
L 429.116494 138.357351 
L 432.088293 138.344656 
L 435.060093 138.331962 
L 438.031892 138.319267 
L 441.003692 138.306573 
L 443.975492 138.293878 
L 446.947291 138.281184 
L 449.919091 138.268489 
" clip-path="url(#pd5106662d6)" style="fill: none; stroke-dasharray: 3.7,1.6; stroke-dashoffset: 0; stroke: #000000"/>
   </g>
   <g id="matplotlib.axis_3">
    <g id="xtick_5">
     <g id="line2d_41">
      <path d="M 304.300909 172.312 
L 304.300909 32.562 
" clip-path="url(#pd5106662d6)" style="fill: none; stroke: #b0b0b0; stroke-width: 0.8; stroke-linecap: square"/>
     </g>
     <g id="line2d_42">
      <g>
       <use xlink:href="#m12587da3c8" x="304.300909" y="172.312" style="stroke: #000000; stroke-width: 0.8"/>
      </g>
     </g>
     <g id="text_18">
      <!-- 0.00 -->
      <g transform="translate(293.168097 186.910438) scale(0.1 -0.1)">
       <use xlink:href="#DejaVuSans-30"/>
       <use xlink:href="#DejaVuSans-2e" x="63.623047"/>
       <use xlink:href="#DejaVuSans-30" x="95.410156"/>
       <use xlink:href="#DejaVuSans-30" x="159.033203"/>
      </g>
     </g>
    </g>
    <g id="xtick_6">
     <g id="line2d_43">
      <path d="M 362.548182 172.312 
L 362.548182 32.562 
" clip-path="url(#pd5106662d6)" style="fill: none; stroke: #b0b0b0; stroke-width: 0.8; stroke-linecap: square"/>
     </g>
     <g id="line2d_44">
      <g>
       <use xlink:href="#m12587da3c8" x="362.548182" y="172.312" style="stroke: #000000; stroke-width: 0.8"/>
      </g>
     </g>
     <g id="text_19">
      <!-- 0.02 -->
      <g transform="translate(351.415369 186.910438) scale(0.1 -0.1)">
       <use xlink:href="#DejaVuSans-30"/>
       <use xlink:href="#DejaVuSans-2e" x="63.623047"/>
       <use xlink:href="#DejaVuSans-30" x="95.410156"/>
       <use xlink:href="#DejaVuSans-32" x="159.033203"/>
      </g>
     </g>
    </g>
    <g id="xtick_7">
     <g id="line2d_45">
      <path d="M 420.795455 172.312 
L 420.795455 32.562 
" clip-path="url(#pd5106662d6)" style="fill: none; stroke: #b0b0b0; stroke-width: 0.8; stroke-linecap: square"/>
     </g>
     <g id="line2d_46">
      <g>
       <use xlink:href="#m12587da3c8" x="420.795455" y="172.312" style="stroke: #000000; stroke-width: 0.8"/>
      </g>
     </g>
     <g id="text_20">
      <!-- 0.04 -->
      <g transform="translate(409.662642 186.910438) scale(0.1 -0.1)">
       <use xlink:href="#DejaVuSans-30"/>
       <use xlink:href="#DejaVuSans-2e" x="63.623047"/>
       <use xlink:href="#DejaVuSans-30" x="95.410156"/>
       <use xlink:href="#DejaVuSans-34" x="159.033203"/>
      </g>
     </g>
    </g>
    <g id="text_21">
     <!-- $1/N_\nu$ -->
     <g transform="translate(366.41 200.588562) scale(0.1 -0.1)">
      <defs>
       <path id="DejaVuSans-2f" d="M 1625 4666 
L 2156 4666 
L 531 -594 
L 0 -594 
L 1625 4666 
z
" transform="scale(0.015625)"/>
      </defs>
      <use xlink:href="#DejaVuSans-31" transform="translate(0 0.09375)"/>
      <use xlink:href="#DejaVuSans-2f" transform="translate(63.623047 0.09375)"/>
      <use xlink:href="#DejaVuSans-Oblique-4e" transform="translate(97.314453 0.09375)"/>
      <use xlink:href="#DejaVuSans-Oblique-3bd" transform="translate(172.119141 -16.3125) scale(0.7)"/>
     </g>
    </g>
   </g>
   <g id="matplotlib.axis_4">
    <g id="ytick_6">
     <g id="line2d_47">
      <path d="M 297.02 171.536667 
L 457.2 171.536667 
" clip-path="url(#pd5106662d6)" style="fill: none; stroke: #b0b0b0; stroke-width: 0.8; stroke-linecap: square"/>
     </g>
     <g id="line2d_48">
      <g>
       <use xlink:href="#mf15e46c616" x="297.02" y="171.536667" style="stroke: #000000; stroke-width: 0.8"/>
      </g>
     </g>
     <g id="text_22">
      <!-- −0.030 -->
      <g transform="translate(253.012188 175.335886) scale(0.1 -0.1)">
       <use xlink:href="#DejaVuSans-2212"/>
       <use xlink:href="#DejaVuSans-30" x="83.789062"/>
       <use xlink:href="#DejaVuSans-2e" x="147.412109"/>
       <use xlink:href="#DejaVuSans-30" x="179.199219"/>
       <use xlink:href="#DejaVuSans-33" x="242.822266"/>
       <use xlink:href="#DejaVuSans-30" x="306.445312"/>
      </g>
     </g>
    </g>
    <g id="ytick_7">
     <g id="line2d_49">
      <path d="M 297.02 143.680959 
L 457.2 143.680959 
" clip-path="url(#pd5106662d6)" style="fill: none; stroke: #b0b0b0; stroke-width: 0.8; stroke-linecap: square"/>
     </g>
     <g id="line2d_50">
      <g>
       <use xlink:href="#mf15e46c616" x="297.02" y="143.680959" style="stroke: #000000; stroke-width: 0.8"/>
      </g>
     </g>
     <g id="text_23">
      <!-- −0.025 -->
      <g transform="translate(253.012188 147.480178) scale(0.1 -0.1)">
       <defs>
        <path id="DejaVuSans-35" d="M 691 4666 
L 3169 4666 
L 3169 4134 
L 1269 4134 
L 1269 2991 
Q 1406 3038 1543 3061 
Q 1681 3084 1819 3084 
Q 2600 3084 3056 2656 
Q 3513 2228 3513 1497 
Q 3513 744 3044 326 
Q 2575 -91 1722 -91 
Q 1428 -91 1123 -41 
Q 819 9 494 109 
L 494 744 
Q 775 591 1075 516 
Q 1375 441 1709 441 
Q 2250 441 2565 725 
Q 2881 1009 2881 1497 
Q 2881 1984 2565 2268 
Q 2250 2553 1709 2553 
Q 1456 2553 1204 2497 
Q 953 2441 691 2322 
L 691 4666 
z
" transform="scale(0.015625)"/>
       </defs>
       <use xlink:href="#DejaVuSans-2212"/>
       <use xlink:href="#DejaVuSans-30" x="83.789062"/>
       <use xlink:href="#DejaVuSans-2e" x="147.412109"/>
       <use xlink:href="#DejaVuSans-30" x="179.199219"/>
       <use xlink:href="#DejaVuSans-32" x="242.822266"/>
       <use xlink:href="#DejaVuSans-35" x="306.445312"/>
      </g>
     </g>
    </g>
    <g id="ytick_8">
     <g id="line2d_51">
      <path d="M 297.02 115.825251 
L 457.2 115.825251 
" clip-path="url(#pd5106662d6)" style="fill: none; stroke: #b0b0b0; stroke-width: 0.8; stroke-linecap: square"/>
     </g>
     <g id="line2d_52">
      <g>
       <use xlink:href="#mf15e46c616" x="297.02" y="115.825251" style="stroke: #000000; stroke-width: 0.8"/>
      </g>
     </g>
     <g id="text_24">
      <!-- −0.020 -->
      <g transform="translate(253.012188 119.62447) scale(0.1 -0.1)">
       <use xlink:href="#DejaVuSans-2212"/>
       <use xlink:href="#DejaVuSans-30" x="83.789062"/>
       <use xlink:href="#DejaVuSans-2e" x="147.412109"/>
       <use xlink:href="#DejaVuSans-30" x="179.199219"/>
       <use xlink:href="#DejaVuSans-32" x="242.822266"/>
       <use xlink:href="#DejaVuSans-30" x="306.445312"/>
      </g>
     </g>
    </g>
    <g id="ytick_9">
     <g id="line2d_53">
      <path d="M 297.02 87.969543 
L 457.2 87.969543 
" clip-path="url(#pd5106662d6)" style="fill: none; stroke: #b0b0b0; stroke-width: 0.8; stroke-linecap: square"/>
     </g>
     <g id="line2d_54">
      <g>
       <use xlink:href="#mf15e46c616" x="297.02" y="87.969543" style="stroke: #000000; stroke-width: 0.8"/>
      </g>
     </g>
     <g id="text_25">
      <!-- −0.015 -->
      <g transform="translate(253.012188 91.768762) scale(0.1 -0.1)">
       <use xlink:href="#DejaVuSans-2212"/>
       <use xlink:href="#DejaVuSans-30" x="83.789062"/>
       <use xlink:href="#DejaVuSans-2e" x="147.412109"/>
       <use xlink:href="#DejaVuSans-30" x="179.199219"/>
       <use xlink:href="#DejaVuSans-31" x="242.822266"/>
       <use xlink:href="#DejaVuSans-35" x="306.445312"/>
      </g>
     </g>
    </g>
    <g id="ytick_10">
     <g id="line2d_55">
      <path d="M 297.02 60.113835 
L 457.2 60.113835 
" clip-path="url(#pd5106662d6)" style="fill: none; stroke: #b0b0b0; stroke-width: 0.8; stroke-linecap: square"/>
     </g>
     <g id="line2d_56">
      <g>
       <use xlink:href="#mf15e46c616" x="297.02" y="60.113835" style="stroke: #000000; stroke-width: 0.8"/>
      </g>
     </g>
     <g id="text_26">
      <!-- −0.010 -->
      <g transform="translate(253.012188 63.913054) scale(0.1 -0.1)">
       <use xlink:href="#DejaVuSans-2212"/>
       <use xlink:href="#DejaVuSans-30" x="83.789062"/>
       <use xlink:href="#DejaVuSans-2e" x="147.412109"/>
       <use xlink:href="#DejaVuSans-30" x="179.199219"/>
       <use xlink:href="#DejaVuSans-31" x="242.822266"/>
       <use xlink:href="#DejaVuSans-30" x="306.445312"/>
      </g>
     </g>
    </g>
    <g id="text_27">
     <!-- $\chi(\mathbf{M})$ -->
     <g transform="translate(246.912188 114.287) rotate(-90) scale(0.1 -0.1)">
      <defs>
       <path id="DejaVuSans-Bold-4d" d="M 588 4666 
L 2119 4666 
L 3181 2169 
L 4250 4666 
L 5778 4666 
L 5778 0 
L 4641 0 
L 4641 3413 
L 3566 897 
L 2803 897 
L 1728 3413 
L 1728 0 
L 588 0 
L 588 4666 
z
" transform="scale(0.015625)"/>
      </defs>
      <use xlink:href="#DejaVuSans-Oblique-3c7" transform="translate(0 0.125)"/>
      <use xlink:href="#DejaVuSans-28" transform="translate(59.179688 0.125)"/>
      <use xlink:href="#DejaVuSans-Bold-4d" transform="translate(98.193359 0.125)"/>
      <use xlink:href="#DejaVuSans-29" transform="translate(197.705078 0.125)"/>
     </g>
    </g>
   </g>
   <g id="line2d_57">
    <defs>
     <path id="mbc60b6d71c" d="M 0 3 
C 0.795609 3 1.55874 2.683901 2.12132 2.12132 
C 2.683901 1.55874 3 0.795609 3 0 
C 3 -0.795609 2.683901 -1.55874 2.12132 -2.12132 
C 1.55874 -2.683901 0.795609 -3 0 -3 
C -0.795609 -3 -1.55874 -2.683901 -2.12132 -2.12132 
C -2.683901 -1.55874 -3 -0.795609 -3 0 
C -3 0.795609 -2.683901 1.55874 -2.12132 2.12132 
C -1.55874 2.683901 -0.795609 3 0 3 
z
" style="stroke: #1f77b4"/>
    </defs>
    <g clip-path="url(#pd5106662d6)">
     <use xlink:href="#mbc60b6d71c" x="449.919091" y="39.309084" style="fill: #1f77b4; stroke: #1f77b4"/>
    </g>
   </g>
   <g id="line2d_58">
    <defs>
     <path id="mc1c7f8a2cc" d="M 0 3 
C 0.795609 3 1.55874 2.683901 2.12132 2.12132 
C 2.683901 1.55874 3 0.795609 3 0 
C 3 -0.795609 2.683901 -1.55874 2.12132 -2.12132 
C 1.55874 -2.683901 0.795609 -3 0 -3 
C -0.795609 -3 -1.55874 -2.683901 -2.12132 -2.12132 
C -2.683901 -1.55874 -3 -0.795609 -3 0 
C -3 0.795609 -2.683901 1.55874 -2.12132 2.12132 
C -1.55874 2.683901 -0.795609 3 0 3 
z
" style="stroke: #ff7f0e"/>
    </defs>
    <g clip-path="url(#pd5106662d6)">
     <use xlink:href="#mc1c7f8a2cc" x="436.681074" y="50.173774" style="fill: #ff7f0e; stroke: #ff7f0e"/>
    </g>
   </g>
   <g id="line2d_59">
    <defs>
     <path id="m0631e33bf7" d="M 0 3 
C 0.795609 3 1.55874 2.683901 2.12132 2.12132 
C 2.683901 1.55874 3 0.795609 3 0 
C 3 -0.795609 2.683901 -1.55874 2.12132 -2.12132 
C 1.55874 -2.683901 0.795609 -3 0 -3 
C -0.795609 -3 -1.55874 -2.683901 -2.12132 -2.12132 
C -2.683901 -1.55874 -3 -0.795609 -3 0 
C -3 0.795609 -2.683901 1.55874 -2.12132 2.12132 
C -1.55874 2.683901 -0.795609 3 0 3 
z
" style="stroke: #2ca02c"/>
    </defs>
    <g clip-path="url(#pd5106662d6)">
     <use xlink:href="#m0631e33bf7" x="425.649394" y="59.788505" style="fill: #2ca02c; stroke: #2ca02c"/>
    </g>
   </g>
   <g id="line2d_60">
    <defs>
     <path id="mc2daaaa422" d="M 0 3 
C 0.795609 3 1.55874 2.683901 2.12132 2.12132 
C 2.683901 1.55874 3 0.795609 3 0 
C 3 -0.795609 2.683901 -1.55874 2.12132 -2.12132 
C 1.55874 -2.683901 0.795609 -3 0 -3 
C -0.795609 -3 -1.55874 -2.683901 -2.12132 -2.12132 
C -2.683901 -1.55874 -3 -0.795609 -3 0 
C -3 0.795609 -2.683901 1.55874 -2.12132 2.12132 
C -1.55874 2.683901 -0.795609 3 0 3 
z
" style="stroke: #d62728"/>
    </defs>
    <g clip-path="url(#pd5106662d6)">
     <use xlink:href="#mc2daaaa422" x="416.314895" y="68.016271" style="fill: #d62728; stroke: #d62728"/>
    </g>
   </g>
   <g id="line2d_61">
    <defs>
     <path id="mca28a4d96f" d="M 0 3 
C 0.795609 3 1.55874 2.683901 2.12132 2.12132 
C 2.683901 1.55874 3 0.795609 3 0 
C 3 -0.795609 2.683901 -1.55874 2.12132 -2.12132 
C 1.55874 -2.683901 0.795609 -3 0 -3 
C -0.795609 -3 -1.55874 -2.683901 -2.12132 -2.12132 
C -2.683901 -1.55874 -3 -0.795609 -3 0 
C -3 0.795609 -2.683901 1.55874 -2.12132 2.12132 
C -1.55874 2.683901 -0.795609 3 0 3 
z
" style="stroke: #9467bd"/>
    </defs>
    <g clip-path="url(#pd5106662d6)">
     <use xlink:href="#mca28a4d96f" x="408.313896" y="75.441757" style="fill: #9467bd; stroke: #9467bd"/>
    </g>
   </g>
   <g id="line2d_62">
    <defs>
     <path id="m85bf7c3d7a" d="M 0 3 
C 0.795609 3 1.55874 2.683901 2.12132 2.12132 
C 2.683901 1.55874 3 0.795609 3 0 
C 3 -0.795609 2.683901 -1.55874 2.12132 -2.12132 
C 1.55874 -2.683901 0.795609 -3 0 -3 
C -0.795609 -3 -1.55874 -2.683901 -2.12132 -2.12132 
C -2.683901 -1.55874 -3 -0.795609 -3 0 
C -3 0.795609 -2.683901 1.55874 -2.12132 2.12132 
C -1.55874 2.683901 -0.795609 3 0 3 
z
" style="stroke: #8c564b"/>
    </defs>
    <g clip-path="url(#pd5106662d6)">
     <use xlink:href="#m85bf7c3d7a" x="401.379697" y="81.445443" style="fill: #8c564b; stroke: #8c564b"/>
    </g>
   </g>
   <g id="line2d_63">
    <g clip-path="url(#pd5106662d6)">
     <use xlink:href="#ma0567b5465" x="304.300909" y="165.959727" style="fill: #ff0000; stroke: #ff0000"/>
    </g>
   </g>
   <g id="line2d_64">
    <defs>
     <path id="ma22c8d9be1" d="M 0 3 
C 0.795609 3 1.55874 2.683901 2.12132 2.12132 
C 2.683901 1.55874 3 0.795609 3 0 
C 3 -0.795609 2.683901 -1.55874 2.12132 -2.12132 
C 1.55874 -2.683901 0.795609 -3 0 -3 
C -0.795609 -3 -1.55874 -2.683901 -2.12132 -2.12132 
C -2.683901 -1.55874 -3 -0.795609 -3 0 
C -3 0.795609 -2.683901 1.55874 -2.12132 2.12132 
C -1.55874 2.683901 -0.795609 3 0 3 
z
" style="stroke: #000000"/>
    </defs>
    <g clip-path="url(#pd5106662d6)">
     <use xlink:href="#ma22c8d9be1" x="449.919091" y="138.261597" style="stroke: #000000"/>
    </g>
   </g>
   <g id="line2d_65">
    <g clip-path="url(#pd5106662d6)">
     <use xlink:href="#ma22c8d9be1" x="436.681074" y="138.329052" style="stroke: #000000"/>
    </g>
   </g>
   <g id="line2d_66">
    <g clip-path="url(#pd5106662d6)">
     <use xlink:href="#ma22c8d9be1" x="425.649394" y="138.377966" style="stroke: #000000"/>
    </g>
   </g>
   <g id="line2d_67">
    <g clip-path="url(#pd5106662d6)">
     <use xlink:href="#ma22c8d9be1" x="416.314895" y="138.415172" style="stroke: #000000"/>
    </g>
   </g>
   <g id="line2d_68">
    <g clip-path="url(#pd5106662d6)">
     <use xlink:href="#ma22c8d9be1" x="408.313896" y="138.446939" style="stroke: #000000"/>
    </g>
   </g>
   <g id="line2d_69">
    <g clip-path="url(#pd5106662d6)">
     <use xlink:href="#ma22c8d9be1" x="401.379697" y="138.469039" style="stroke: #000000"/>
    </g>
   </g>
   <g id="line2d_70">
    <g clip-path="url(#pd5106662d6)">
     <use xlink:href="#ma0567b5465" x="304.300909" y="138.890519" style="fill: #ff0000; stroke: #ff0000"/>
    </g>
   </g>
   <g id="patch_9">
    <path d="M 297.02 172.312 
L 297.02 32.562 
" style="fill: none; stroke: #000000; stroke-width: 0.8; stroke-linejoin: miter; stroke-linecap: square"/>
   </g>
   <g id="patch_10">
    <path d="M 457.2 172.312 
L 457.2 32.562 
" style="fill: none; stroke: #000000; stroke-width: 0.8; stroke-linejoin: miter; stroke-linecap: square"/>
   </g>
   <g id="patch_11">
    <path d="M 297.02 172.312 
L 457.2 172.312 
" style="fill: none; stroke: #000000; stroke-width: 0.8; stroke-linejoin: miter; stroke-linecap: square"/>
   </g>
   <g id="patch_12">
    <path d="M 297.02 32.562 
L 457.2 32.562 
" style="fill: none; stroke: #000000; stroke-width: 0.8; stroke-linejoin: miter; stroke-linecap: square"/>
   </g>
   <g id="text_28">
    <!-- $\lim_{n_\nu \rightarrow \infty} \, \chi(\mathbf{M}) \approx $$-0.0290$ -->
    <g transform="translate(314.89 24.162) scale(0.12 -0.12)">
     <defs>
      <path id="DejaVuSans-6c" d="M 603 4863 
L 1178 4863 
L 1178 0 
L 603 0 
L 603 4863 
z
" transform="scale(0.015625)"/>
      <path id="DejaVuSans-69" d="M 603 3500 
L 1178 3500 
L 1178 0 
L 603 0 
L 603 3500 
z
M 603 4863 
L 1178 4863 
L 1178 4134 
L 603 4134 
L 603 4863 
z
" transform="scale(0.015625)"/>
      <path id="DejaVuSans-6d" d="M 3328 2828 
Q 3544 3216 3844 3400 
Q 4144 3584 4550 3584 
Q 5097 3584 5394 3201 
Q 5691 2819 5691 2113 
L 5691 0 
L 5113 0 
L 5113 2094 
Q 5113 2597 4934 2840 
Q 4756 3084 4391 3084 
Q 3944 3084 3684 2787 
Q 3425 2491 3425 1978 
L 3425 0 
L 2847 0 
L 2847 2094 
Q 2847 2600 2669 2842 
Q 2491 3084 2119 3084 
Q 1678 3084 1418 2786 
Q 1159 2488 1159 1978 
L 1159 0 
L 581 0 
L 581 3500 
L 1159 3500 
L 1159 2956 
Q 1356 3278 1631 3431 
Q 1906 3584 2284 3584 
Q 2666 3584 2933 3390 
Q 3200 3197 3328 2828 
z
" transform="scale(0.015625)"/>
      <path id="DejaVuSans-Oblique-6e" d="M 3566 2113 
L 3156 0 
L 2578 0 
L 2988 2091 
Q 3016 2238 3031 2350 
Q 3047 2463 3047 2528 
Q 3047 2791 2881 2937 
Q 2716 3084 2419 3084 
Q 1956 3084 1622 2776 
Q 1288 2469 1184 1941 
L 800 0 
L 225 0 
L 903 3500 
L 1478 3500 
L 1363 2950 
Q 1603 3253 1940 3418 
Q 2278 3584 2650 3584 
Q 3113 3584 3367 3334 
Q 3622 3084 3622 2631 
Q 3622 2519 3608 2391 
Q 3594 2263 3566 2113 
z
" transform="scale(0.015625)"/>
      <path id="DejaVuSans-2192" d="M 5050 2147 
L 5050 1866 
L 3822 638 
L 3447 1013 
L 4175 1741 
L 366 1741 
L 366 2272 
L 4175 2272 
L 3447 3000 
L 3822 3375 
L 5050 2147 
z
" transform="scale(0.015625)"/>
      <path id="DejaVuSans-221e" d="M 2916 1091 
Q 2819 1203 2666 1466 
Q 2456 1091 2272 925 
Q 2041 725 1681 725 
Q 1259 725 981 1041 
Q 688 1372 688 1919 
Q 688 2444 981 2800 
Q 1244 3116 1688 3116 
Q 1916 3116 2084 3022 
Q 2281 2919 2416 2741 
Q 2541 2581 2666 2366 
Q 2875 2741 3059 2906 
Q 3291 3106 3650 3106 
Q 4072 3106 4350 2791 
Q 4644 2459 4644 1913 
Q 4644 1388 4350 1031 
Q 4088 716 3644 716 
Q 3416 716 3247 809 
Q 3078 894 2916 1091 
z
M 1647 1134 
Q 2163 1134 2472 1884 
Q 2075 2703 1647 2703 
Q 1334 2703 1175 2478 
Q 1003 2238 1003 1919 
Q 1003 1569 1175 1353 
Q 1350 1134 1647 1134 
z
M 3684 2697 
Q 3219 2697 2859 1947 
Q 3253 1128 3684 1128 
Q 3997 1128 4156 1353 
Q 4328 1594 4328 1913 
Q 4328 2263 4156 2478 
Q 3981 2697 3684 2697 
z
" transform="scale(0.015625)"/>
      <path id="DejaVuSans-2248" d="M 4684 1947 
L 4684 1388 
Q 4356 1144 4076 1036 
Q 3797 928 3494 928 
Q 3150 928 2694 1113 
Q 2663 1125 2641 1134 
Q 2622 1141 2575 1159 
Q 2091 1350 1797 1350 
Q 1522 1350 1253 1231 
Q 984 1113 678 850 
L 678 1409 
Q 1006 1653 1286 1761 
Q 1566 1869 1869 1869 
Q 2213 1869 2672 1684 
Q 2706 1669 2722 1663 
Q 2741 1656 2788 1638 
Q 3272 1447 3566 1447 
Q 3834 1447 4098 1564 
Q 4363 1681 4684 1947 
z
M 4684 3163 
L 4684 2606 
Q 4356 2359 4076 2251 
Q 3797 2144 3494 2144 
Q 3150 2144 2694 2328 
Q 2663 2341 2641 2350 
Q 2622 2356 2575 2375 
Q 2091 2566 1797 2566 
Q 1522 2566 1253 2447 
Q 984 2328 678 2069 
L 678 2625 
Q 1006 2869 1286 2976 
Q 1566 3084 1869 3084 
Q 2213 3084 2672 2900 
Q 2703 2888 2719 2881 
Q 2741 2872 2788 2853 
Q 3272 2663 3566 2663 
Q 3834 2663 4098 2780 
Q 4363 2897 4684 3163 
z
" transform="scale(0.015625)"/>
      <path id="DejaVuSans-39" d="M 703 97 
L 703 672 
Q 941 559 1184 500 
Q 1428 441 1663 441 
Q 2288 441 2617 861 
Q 2947 1281 2994 2138 
Q 2813 1869 2534 1725 
Q 2256 1581 1919 1581 
Q 1219 1581 811 2004 
Q 403 2428 403 3163 
Q 403 3881 828 4315 
Q 1253 4750 1959 4750 
Q 2769 4750 3195 4129 
Q 3622 3509 3622 2328 
Q 3622 1225 3098 567 
Q 2575 -91 1691 -91 
Q 1453 -91 1209 -44 
Q 966 3 703 97 
z
M 1959 2075 
Q 2384 2075 2632 2365 
Q 2881 2656 2881 3163 
Q 2881 3666 2632 3958 
Q 2384 4250 1959 4250 
Q 1534 4250 1286 3958 
Q 1038 3666 1038 3163 
Q 1038 2656 1286 2365 
Q 1534 2075 1959 2075 
z
" transform="scale(0.015625)"/>
     </defs>
     <use xlink:href="#DejaVuSans-6c" transform="translate(38 0.015625)"/>
     <use xlink:href="#DejaVuSans-69" transform="translate(65.783203 0.015625)"/>
     <use xlink:href="#DejaVuSans-6d" transform="translate(93.566406 0.015625)"/>
     <use xlink:href="#DejaVuSans-Oblique-6e" transform="translate(0 -57.934375) scale(0.7)"/>
     <use xlink:href="#DejaVuSans-Oblique-3bd" transform="translate(44.365234 -69.41875) scale(0.49)"/>
     <use xlink:href="#DejaVuSans-2192" transform="translate(98.653059 -57.934375) scale(0.7)"/>
     <use xlink:href="#DejaVuSans-221e" transform="translate(170.943098 -57.934375) scale(0.7)"/>
     <use xlink:href="#DejaVuSans-Oblique-3c7" transform="translate(245.489322 0.015625)"/>
     <use xlink:href="#DejaVuSans-28" transform="translate(304.669009 0.015625)"/>
     <use xlink:href="#DejaVuSans-Bold-4d" transform="translate(343.682681 0.015625)"/>
     <use xlink:href="#DejaVuSans-29" transform="translate(443.1944 0.015625)"/>
     <use xlink:href="#DejaVuSans-2248" transform="translate(501.690493 0.015625)"/>
     <use xlink:href="#DejaVuSans-2212" transform="translate(604.961978 0.015625)"/>
     <use xlink:href="#DejaVuSans-30" transform="translate(688.75104 0.015625)"/>
     <use xlink:href="#DejaVuSans-2e" transform="translate(752.374087 0.015625)"/>
     <use xlink:href="#DejaVuSans-30" transform="translate(784.161197 0.015625)"/>
     <use xlink:href="#DejaVuSans-32" transform="translate(847.784243 0.015625)"/>
     <use xlink:href="#DejaVuSans-39" transform="translate(909.65729 0.015625)"/>
     <use xlink:href="#DejaVuSans-30" transform="translate(973.280337 0.015625)"/>
    </g>
   </g>
   <g id="legend_2">
    <g id="patch_13">
     <path d="M 302.62 50.7045 
L 343.7025 50.7045 
Q 345.3025 50.7045 345.3025 49.1045 
L 345.3025 38.162 
Q 345.3025 36.562 343.7025 36.562 
L 302.62 36.562 
Q 301.02 36.562 301.02 38.162 
L 301.02 49.1045 
Q 301.02 50.7045 302.62 50.7045 
z
" style="fill: #ffffff; opacity: 0.8; stroke: #cccccc; stroke-linejoin: miter"/>
    </g>
    <g id="line2d_71">
     <g>
      <use xlink:href="#ma0567b5465" x="312.22" y="43.04075" style="fill: #ff0000; stroke: #ff0000"/>
     </g>
    </g>
    <g id="text_29">
     <!-- BSE -->
     <g transform="translate(326.62 45.84075) scale(0.08 -0.08)">
      <defs>
       <path id="DejaVuSans-42" d="M 1259 2228 
L 1259 519 
L 2272 519 
Q 2781 519 3026 730 
Q 3272 941 3272 1375 
Q 3272 1813 3026 2020 
Q 2781 2228 2272 2228 
L 1259 2228 
z
M 1259 4147 
L 1259 2741 
L 2194 2741 
Q 2656 2741 2882 2914 
Q 3109 3088 3109 3444 
Q 3109 3797 2882 3972 
Q 2656 4147 2194 4147 
L 1259 4147 
z
M 628 4666 
L 2241 4666 
Q 2963 4666 3353 4366 
Q 3744 4066 3744 3513 
Q 3744 3084 3544 2831 
Q 3344 2578 2956 2516 
Q 3422 2416 3680 2098 
Q 3938 1781 3938 1306 
Q 3938 681 3513 340 
Q 3088 0 2303 0 
L 628 0 
L 628 4666 
z
" transform="scale(0.015625)"/>
       <path id="DejaVuSans-53" d="M 3425 4513 
L 3425 3897 
Q 3066 4069 2747 4153 
Q 2428 4238 2131 4238 
Q 1616 4238 1336 4038 
Q 1056 3838 1056 3469 
Q 1056 3159 1242 3001 
Q 1428 2844 1947 2747 
L 2328 2669 
Q 3034 2534 3370 2195 
Q 3706 1856 3706 1288 
Q 3706 609 3251 259 
Q 2797 -91 1919 -91 
Q 1588 -91 1214 -16 
Q 841 59 441 206 
L 441 856 
Q 825 641 1194 531 
Q 1563 422 1919 422 
Q 2459 422 2753 634 
Q 3047 847 3047 1241 
Q 3047 1584 2836 1778 
Q 2625 1972 2144 2069 
L 1759 2144 
Q 1053 2284 737 2584 
Q 422 2884 422 3419 
Q 422 4038 858 4394 
Q 1294 4750 2059 4750 
Q 2388 4750 2728 4690 
Q 3069 4631 3425 4513 
z
" transform="scale(0.015625)"/>
       <path id="DejaVuSans-45" d="M 628 4666 
L 3578 4666 
L 3578 4134 
L 1259 4134 
L 1259 2753 
L 3481 2753 
L 3481 2222 
L 1259 2222 
L 1259 531 
L 3634 531 
L 3634 0 
L 628 0 
L 628 4666 
z
" transform="scale(0.015625)"/>
      </defs>
      <use xlink:href="#DejaVuSans-42"/>
      <use xlink:href="#DejaVuSans-53" x="66.853516"/>
      <use xlink:href="#DejaVuSans-45" x="130.330078"/>
     </g>
    </g>
   </g>
  </g>
 </g>
 <defs>
  <clipPath id="p1222d9bd7d">
   <rect x="65.27" y="32.562" width="160.18" height="139.75"/>
  </clipPath>
  <clipPath id="pd5106662d6">
   <rect x="297.02" y="32.562" width="160.18" height="139.75"/>
  </clipPath>
 </defs>
</svg>
