<?xml version="1.0" encoding="utf-8" standalone="no"?>
<!DOCTYPE svg PUBLIC "-//W3C//DTD SVG 1.1//EN"
  "http://www.w3.org/Graphics/SVG/1.1/DTD/svg11.dtd">
<svg xmlns:xlink="http://www.w3.org/1999/xlink" width="468pt" height="216pt" viewBox="0 0 468 216" xmlns="http://www.w3.org/2000/svg" version="1.1">
 <metadata>
  <rdf:RDF xmlns:dc="http://purl.org/dc/elements/1.1/" xmlns:cc="http://creativecommons.org/ns#" xmlns:rdf="http://www.w3.org/1999/02/22-rdf-syntax-ns#">
   <cc:Work>
    <dc:type rdf:resource="http://purl.org/dc/dcmitype/StillImage"/>
    <dc:date>2026-07-14T13:11:24.505179</dc:date>
    <dc:format>image/svg+xml</dc:format>
    <dc:creator>
     <cc:Agent>
      <dc:title>Matplotlib v3.9.1, https://matplotlib.org/</dc:title>
     </cc:Agent>
    </dc:creator>
   </cc:Work>
  </rdf:RDF>
 </metadata>
 <defs>
  <style type="text/css">*{stroke-linejoin: round; stroke-linecap: butt}</style>
 </defs>
 <g id="figure_1">
  <g id="patch_1">
   <path d="M 0 216 
L 468 216 
L 468 0 
L 0 0 
z
" style="fill: #ffffff"/>
  </g>
  <g id="axes_1">
   <g id="patch_2">
    <path d="M 71.57 172.312 
L 228.6 172.312 
L 228.6 32.562 
L 71.57 32.562 
z
" style="fill: #ffffff"/>
   </g>
   <g id="matplotlib.axis_1">
    <g id="xtick_1">
     <g id="line2d_1">
      <path d="M 78.707727 172.312 
L 78.707727 32.562 
" clip-path="url(#p610d218521)" style="fill: none; stroke: #b0b0b0; stroke-width: 0.8; stroke-linecap: square"/>
     </g>
     <g id="line2d_2">
      <defs>
       <path id="m5d5e4d3444" d="M 0 0 
L 0 3.5 
" style="stroke: #000000; stroke-width: 0.8"/>
      </defs>
      <g>
       <use xlink:href="#m5d5e4d3444" x="78.707727" y="172.312" style="stroke: #000000; stroke-width: 0.8"/>
      </g>
     </g>
     <g id="text_1">
      <!-- $\Gamma$ -->
      <g transform="translate(75.907727 186.910438) scale(0.1 -0.1)">
       <defs>
        <path id="DejaVuSans-393" d="M 628 0 
L 628 4666 
L 3531 4666 
L 3531 4134 
L 1259 4134 
L 1259 0 
L 628 0 
z
" transform="scale(0.015625)"/>
       </defs>
       <use xlink:href="#DejaVuSans-393" transform="translate(0 0.09375)"/>
      </g>
     </g>
    </g>
    <g id="xtick_2">
     <g id="line2d_3">
      <path d="M 137.838596 172.312 
L 137.838596 32.562 
" clip-path="url(#p610d218521)" style="fill: none; stroke: #b0b0b0; stroke-width: 0.8; stroke-linecap: square"/>
     </g>
     <g id="line2d_4">
      <g>
       <use xlink:href="#m5d5e4d3444" x="137.838596" y="172.312" style="stroke: #000000; stroke-width: 0.8"/>
      </g>
     </g>
     <g id="text_2">
      <!-- $M$ -->
      <g transform="translate(133.488596 186.910438) scale(0.1 -0.1)">
       <defs>
        <path id="DejaVuSans-Oblique-4d" d="M 1081 4666 
L 2028 4666 
L 2572 1522 
L 4378 4666 
L 5350 4666 
L 4441 0 
L 3828 0 
L 4622 4091 
L 2791 897 
L 2175 897 
L 1581 4103 
L 788 0 
L 172 0 
L 1081 4666 
z
" transform="scale(0.015625)"/>
       </defs>
       <use xlink:href="#DejaVuSans-Oblique-4d" transform="translate(0 0.09375)"/>
      </g>
     </g>
    </g>
    <g id="xtick_3">
     <g id="line2d_5">
      <path d="M 179.650434 172.312 
L 179.650434 32.562 
" clip-path="url(#p610d218521)" style="fill: none; stroke: #b0b0b0; stroke-width: 0.8; stroke-linecap: square"/>
     </g>
     <g id="line2d_6">
      <g>
       <use xlink:href="#m5d5e4d3444" x="179.650434" y="172.312" style="stroke: #000000; stroke-width: 0.8"/>
      </g>
     </g>
     <g id="text_3">
      <!-- $X$ -->
      <g transform="translate(176.200434 186.910438) scale(0.1 -0.1)">
       <defs>
        <path id="DejaVuSans-Oblique-58" d="M 878 4666 
L 1516 4666 
L 2316 2981 
L 3763 4666 
L 4500 4666 
L 2578 2438 
L 3738 0 
L 3103 0 
L 2163 1966 
L 459 0 
L -275 0 
L 1906 2509 
L 878 4666 
z
" transform="scale(0.015625)"/>
       </defs>
       <use xlink:href="#DejaVuSans-Oblique-58" transform="translate(0 0.09375)"/>
      </g>
     </g>
    </g>
    <g id="xtick_4">
     <g id="line2d_7">
      <path d="M 221.462273 172.312 
L 221.462273 32.562 
" clip-path="url(#p610d218521)" style="fill: none; stroke: #b0b0b0; stroke-width: 0.8; stroke-linecap: square"/>
     </g>
     <g id="line2d_8">
      <g>
       <use xlink:href="#m5d5e4d3444" x="221.462273" y="172.312" style="stroke: #000000; stroke-width: 0.8"/>
      </g>
     </g>
     <g id="text_4">
      <!-- $\Gamma$ -->
      <g transform="translate(218.662273 186.910438) scale(0.1 -0.1)">
       <use xlink:href="#DejaVuSans-393" transform="translate(0 0.09375)"/>
      </g>
     </g>
    </g>
   </g>
   <g id="matplotlib.axis_2">
    <g id="ytick_1">
     <g id="line2d_9">
      <path d="M 71.57 158.636069 
L 228.6 158.636069 
" clip-path="url(#p610d218521)" style="fill: none; stroke: #b0b0b0; stroke-width: 0.8; stroke-linecap: square"/>
     </g>
     <g id="line2d_10">
      <defs>
       <path id="me42c349d64" d="M 0 0 
L -3.5 0 
" style="stroke: #000000; stroke-width: 0.8"/>
      </defs>
      <g>
       <use xlink:href="#me42c349d64" x="71.57" y="158.636069" style="stroke: #000000; stroke-width: 0.8"/>
      </g>
     </g>
     <g id="text_5">
      <!-- −0.004 -->
      <g transform="translate(27.562188 162.435287) scale(0.1 -0.1)">
       <defs>
        <path id="DejaVuSans-2212" d="M 678 2272 
L 4684 2272 
L 4684 1741 
L 678 1741 
L 678 2272 
z
" transform="scale(0.015625)"/>
        <path id="DejaVuSans-30" d="M 2034 4250 
Q 1547 4250 1301 3770 
Q 1056 3291 1056 2328 
Q 1056 1369 1301 889 
Q 1547 409 2034 409 
Q 2525 409 2770 889 
Q 3016 1369 3016 2328 
Q 3016 3291 2770 3770 
Q 2525 4250 2034 4250 
z
M 2034 4750 
Q 2819 4750 3233 4129 
Q 3647 3509 3647 2328 
Q 3647 1150 3233 529 
Q 2819 -91 2034 -91 
Q 1250 -91 836 529 
Q 422 1150 422 2328 
Q 422 3509 836 4129 
Q 1250 4750 2034 4750 
z
" transform="scale(0.015625)"/>
        <path id="DejaVuSans-2e" d="M 684 794 
L 1344 794 
L 1344 0 
L 684 0 
L 684 794 
z
" transform="scale(0.015625)"/>
        <path id="DejaVuSans-34" d="M 2419 4116 
L 825 1625 
L 2419 1625 
L 2419 4116 
z
M 2253 4666 
L 3047 4666 
L 3047 1625 
L 3713 1625 
L 3713 1100 
L 3047 1100 
L 3047 0 
L 2419 0 
L 2419 1100 
L 313 1100 
L 313 1709 
L 2253 4666 
z
" transform="scale(0.015625)"/>
       </defs>
       <use xlink:href="#DejaVuSans-2212"/>
       <use xlink:href="#DejaVuSans-30" x="83.789062"/>
       <use xlink:href="#DejaVuSans-2e" x="147.412109"/>
       <use xlink:href="#DejaVuSans-30" x="179.199219"/>
       <use xlink:href="#DejaVuSans-30" x="242.822266"/>
       <use xlink:href="#DejaVuSans-34" x="306.445312"/>
      </g>
     </g>
    </g>
    <g id="ytick_2">
     <g id="line2d_11">
      <path d="M 71.57 132.319119 
L 228.6 132.319119 
" clip-path="url(#p610d218521)" style="fill: none; stroke: #b0b0b0; stroke-width: 0.8; stroke-linecap: square"/>
     </g>
     <g id="line2d_12">
      <g>
       <use xlink:href="#me42c349d64" x="71.57" y="132.319119" style="stroke: #000000; stroke-width: 0.8"/>
      </g>
     </g>
     <g id="text_6">
      <!-- −0.003 -->
      <g transform="translate(27.562188 136.118337) scale(0.1 -0.1)">
       <defs>
        <path id="DejaVuSans-33" d="M 2597 2516 
Q 3050 2419 3304 2112 
Q 3559 1806 3559 1356 
Q 3559 666 3084 287 
Q 2609 -91 1734 -91 
Q 1441 -91 1130 -33 
Q 819 25 488 141 
L 488 750 
Q 750 597 1062 519 
Q 1375 441 1716 441 
Q 2309 441 2620 675 
Q 2931 909 2931 1356 
Q 2931 1769 2642 2001 
Q 2353 2234 1838 2234 
L 1294 2234 
L 1294 2753 
L 1863 2753 
Q 2328 2753 2575 2939 
Q 2822 3125 2822 3475 
Q 2822 3834 2567 4026 
Q 2313 4219 1838 4219 
Q 1578 4219 1281 4162 
Q 984 4106 628 3988 
L 628 4550 
Q 988 4650 1302 4700 
Q 1616 4750 1894 4750 
Q 2613 4750 3031 4423 
Q 3450 4097 3450 3541 
Q 3450 3153 3228 2886 
Q 3006 2619 2597 2516 
z
" transform="scale(0.015625)"/>
       </defs>
       <use xlink:href="#DejaVuSans-2212"/>
       <use xlink:href="#DejaVuSans-30" x="83.789062"/>
       <use xlink:href="#DejaVuSans-2e" x="147.412109"/>
       <use xlink:href="#DejaVuSans-30" x="179.199219"/>
       <use xlink:href="#DejaVuSans-30" x="242.822266"/>
       <use xlink:href="#DejaVuSans-33" x="306.445312"/>
      </g>
     </g>
    </g>
    <g id="ytick_3">
     <g id="line2d_13">
      <path d="M 71.57 106.002169 
L 228.6 106.002169 
" clip-path="url(#p610d218521)" style="fill: none; stroke: #b0b0b0; stroke-width: 0.8; stroke-linecap: square"/>
     </g>
     <g id="line2d_14">
      <g>
       <use xlink:href="#me42c349d64" x="71.57" y="106.002169" style="stroke: #000000; stroke-width: 0.8"/>
      </g>
     </g>
     <g id="text_7">
      <!-- −0.002 -->
      <g transform="translate(27.562188 109.801387) scale(0.1 -0.1)">
       <defs>
        <path id="DejaVuSans-32" d="M 1228 531 
L 3431 531 
L 3431 0 
L 469 0 
L 469 531 
Q 828 903 1448 1529 
Q 2069 2156 2228 2338 
Q 2531 2678 2651 2914 
Q 2772 3150 2772 3378 
Q 2772 3750 2511 3984 
Q 2250 4219 1831 4219 
Q 1534 4219 1204 4116 
Q 875 4013 500 3803 
L 500 4441 
Q 881 4594 1212 4672 
Q 1544 4750 1819 4750 
Q 2544 4750 2975 4387 
Q 3406 4025 3406 3419 
Q 3406 3131 3298 2873 
Q 3191 2616 2906 2266 
Q 2828 2175 2409 1742 
Q 1991 1309 1228 531 
z
" transform="scale(0.015625)"/>
       </defs>
       <use xlink:href="#DejaVuSans-2212"/>
       <use xlink:href="#DejaVuSans-30" x="83.789062"/>
       <use xlink:href="#DejaVuSans-2e" x="147.412109"/>
       <use xlink:href="#DejaVuSans-30" x="179.199219"/>
       <use xlink:href="#DejaVuSans-30" x="242.822266"/>
       <use xlink:href="#DejaVuSans-32" x="306.445312"/>
      </g>
     </g>
    </g>
    <g id="ytick_4">
     <g id="line2d_15">
      <path d="M 71.57 79.685219 
L 228.6 79.685219 
" clip-path="url(#p610d218521)" style="fill: none; stroke: #b0b0b0; stroke-width: 0.8; stroke-linecap: square"/>
     </g>
     <g id="line2d_16">
      <g>
       <use xlink:href="#me42c349d64" x="71.57" y="79.685219" style="stroke: #000000; stroke-width: 0.8"/>
      </g>
     </g>
     <g id="text_8">
      <!-- −0.001 -->
      <g transform="translate(27.562188 83.484438) scale(0.1 -0.1)">
       <defs>
        <path id="DejaVuSans-31" d="M 794 531 
L 1825 531 
L 1825 4091 
L 703 3866 
L 703 4441 
L 1819 4666 
L 2450 4666 
L 2450 531 
L 3481 531 
L 3481 0 
L 794 0 
L 794 531 
z
" transform="scale(0.015625)"/>
       </defs>
       <use xlink:href="#DejaVuSans-2212"/>
       <use xlink:href="#DejaVuSans-30" x="83.789062"/>
       <use xlink:href="#DejaVuSans-2e" x="147.412109"/>
       <use xlink:href="#DejaVuSans-30" x="179.199219"/>
       <use xlink:href="#DejaVuSans-30" x="242.822266"/>
       <use xlink:href="#DejaVuSans-31" x="306.445312"/>
      </g>
     </g>
    </g>
    <g id="ytick_5">
     <g id="line2d_17">
      <path d="M 71.57 53.368269 
L 228.6 53.368269 
" clip-path="url(#p610d218521)" style="fill: none; stroke: #b0b0b0; stroke-width: 0.8; stroke-linecap: square"/>
     </g>
     <g id="line2d_18">
      <g>
       <use xlink:href="#me42c349d64" x="71.57" y="53.368269" style="stroke: #000000; stroke-width: 0.8"/>
      </g>
     </g>
     <g id="text_9">
      <!-- 0.000 -->
      <g transform="translate(35.941875 57.167488) scale(0.1 -0.1)">
       <use xlink:href="#DejaVuSans-30"/>
       <use xlink:href="#DejaVuSans-2e" x="63.623047"/>
       <use xlink:href="#DejaVuSans-30" x="95.410156"/>
       <use xlink:href="#DejaVuSans-30" x="159.033203"/>
       <use xlink:href="#DejaVuSans-30" x="222.65625"/>
      </g>
     </g>
    </g>
    <g id="text_10">
     <!-- $\chi(\mathbf{Q})$ -->
     <g transform="translate(21.462188 113.587) rotate(-90) scale(0.1 -0.1)">
      <defs>
       <path id="DejaVuSans-Oblique-3c7" d="M 1922 -781 
L 1691 416 
L 394 -1334 
L -284 -1334 
L 1553 1141 
L 1269 2613 
Q 1194 3006 713 3006 
L 559 3006 
L 653 3500 
L 872 3494 
Q 1675 3472 1775 2950 
L 2006 1753 
L 3303 3503 
L 3981 3503 
L 2144 1028 
L 2428 -444 
Q 2503 -838 2984 -838 
L 3138 -838 
L 3044 -1331 
L 2825 -1325 
Q 2022 -1303 1922 -781 
z
" transform="scale(0.015625)"/>
       <path id="DejaVuSans-28" d="M 1984 4856 
Q 1566 4138 1362 3434 
Q 1159 2731 1159 2009 
Q 1159 1288 1364 580 
Q 1569 -128 1984 -844 
L 1484 -844 
Q 1016 -109 783 600 
Q 550 1309 550 2009 
Q 550 2706 781 3412 
Q 1013 4119 1484 4856 
L 1984 4856 
z
" transform="scale(0.015625)"/>
       <path id="DejaVuSans-Bold-51" d="M 2847 -84 
L 2753 -84 
Q 1600 -84 959 553 
Q 319 1191 319 2328 
Q 319 3463 958 4106 
Q 1597 4750 2719 4750 
Q 3853 4750 4486 4112 
Q 5119 3475 5119 2328 
Q 5119 1541 4783 972 
Q 4447 403 3816 116 
L 4756 -934 
L 3609 -934 
L 2847 -84 
z
M 2719 3878 
Q 2169 3878 1866 3472 
Q 1563 3066 1563 2328 
Q 1563 1578 1859 1179 
Q 2156 781 2719 781 
Q 3272 781 3575 1187 
Q 3878 1594 3878 2328 
Q 3878 3066 3575 3472 
Q 3272 3878 2719 3878 
z
" transform="scale(0.015625)"/>
       <path id="DejaVuSans-29" d="M 513 4856 
L 1013 4856 
Q 1481 4119 1714 3412 
Q 1947 2706 1947 2009 
Q 1947 1309 1714 600 
Q 1481 -109 1013 -844 
L 513 -844 
Q 928 -128 1133 580 
Q 1338 1288 1338 2009 
Q 1338 2731 1133 3434 
Q 928 4138 513 4856 
z
" transform="scale(0.015625)"/>
      </defs>
      <use xlink:href="#DejaVuSans-Oblique-3c7" transform="translate(0 0.125)"/>
      <use xlink:href="#DejaVuSans-28" transform="translate(59.179688 0.125)"/>
      <use xlink:href="#DejaVuSans-Bold-51" transform="translate(98.193359 0.125)"/>
      <use xlink:href="#DejaVuSans-29" transform="translate(183.203125 0.125)"/>
     </g>
    </g>
   </g>
   <g id="line2d_19">
    <path d="M 78.707727 65.536244 
L 81.096853 59.862673 
L 83.485979 54.851975 
L 85.277824 51.528962 
L 87.069668 48.578816 
L 88.861513 46.001536 
L 90.653357 43.797121 
L 92.445202 41.965573 
L 93.042483 41.437916 
L 93.639765 41.082481 
L 96.028891 41.435045 
L 98.418017 42.056154 
L 100.807143 42.945809 
L 103.196269 44.104008 
L 105.585395 45.530753 
L 109.169084 47.888064 
L 110.960928 48.595477 
L 112.752773 49.096166 
L 114.544617 49.390131 
L 116.336462 49.477372 
L 118.128306 49.35789 
L 119.920151 49.031683 
L 121.711996 48.498753 
L 126.490248 46.59798 
L 131.2685 44.467149 
L 136.046752 42.067372 
L 137.838596 41.098118 
L 137.838596 41.098118 
L 148.819483 45.491674 
L 158.955686 51.509064 
L 169.514231 53.970601 
L 179.650434 54.057834 
L 179.650434 54.057834 
L 190.208979 49.322512 
L 200.345183 39.429306 
L 200.767524 39.379461 
L 210.903728 46.88012 
L 211.748411 48.271847 
L 221.462273 65.536244 
L 221.462273 65.536244 
" clip-path="url(#p610d218521)" style="fill: none; stroke: #1f77b4; stroke-width: 1.5; stroke-linecap: square"/>
   </g>
   <g id="line2d_20">
    <path d="M 78.707727 60.597239 
L 81.096853 55.557853 
L 83.485979 51.144842 
L 85.277824 48.246141 
L 87.069668 45.699777 
L 88.861513 43.505748 
L 90.653357 41.664055 
L 92.445202 40.174697 
L 93.042483 39.756542 
L 93.639765 39.537189 
L 96.028891 40.742226 
L 99.015298 42.534065 
L 102.001706 44.643173 
L 104.988113 47.069549 
L 109.169084 50.71651 
L 110.960928 51.779 
L 112.752773 52.627477 
L 114.544617 53.261941 
L 116.336462 53.682392 
L 118.128306 53.88883 
L 119.920151 53.881255 
L 121.711996 53.659668 
L 123.50384 53.217665 
L 127.684811 51.838902 
L 131.865781 50.251759 
L 136.644033 48.182722 
L 137.838596 47.622936 
L 137.838596 47.622936 
L 148.819483 51.39318 
L 158.955686 56.200972 
L 169.514231 57.827406 
L 179.650434 57.635541 
L 179.650434 57.635541 
L 190.208979 52.216826 
L 200.345183 40.077483 
L 200.767524 39.909694 
L 210.903728 43.995158 
L 211.748411 45.20859 
L 221.462273 60.597239 
L 221.462273 60.597239 
" clip-path="url(#p610d218521)" style="fill: none; stroke: #ff7f0e; stroke-width: 1.5; stroke-linecap: square"/>
   </g>
   <g id="line2d_21">
    <path d="M 78.707727 57.143993 
L 81.096853 52.633724 
L 82.888698 49.64205 
L 84.680542 46.985542 
L 86.472387 44.6642 
L 88.264231 42.678024 
L 90.056076 41.027015 
L 91.84792 39.711172 
L 93.042483 39.020147 
L 93.639765 38.914273 
L 97.223454 41.844363 
L 100.807143 45.107662 
L 104.390832 48.704171 
L 109.169084 53.738391 
L 110.960928 55.097377 
L 112.752773 56.236385 
L 114.544617 57.155413 
L 116.336462 57.854462 
L 118.128306 58.333532 
L 119.920151 58.592623 
L 121.711996 58.631735 
L 122.906559 58.535599 
L 125.892966 57.804613 
L 130.073937 56.578618 
L 134.254907 55.142215 
L 137.838596 53.743545 
L 137.838596 53.743545 
L 149.241825 57.148891 
L 158.955686 60.780132 
L 169.936573 61.695533 
L 179.650434 61.29152 
L 179.650434 61.29152 
L 190.208979 55.303888 
L 200.345183 41.289489 
L 200.767524 41.023202 
L 210.903728 42.255802 
L 211.748411 43.320434 
L 221.462273 57.143993 
L 221.462273 57.143993 
" clip-path="url(#p610d218521)" style="fill: none; stroke: #2ca02c; stroke-width: 1.5; stroke-linecap: square"/>
   </g>
   <g id="line2d_22">
    <path d="M 78.707727 56.774972 
L 81.096853 52.719094 
L 82.888698 50.051191 
L 84.680542 47.703865 
L 86.472387 45.677115 
L 88.264231 43.970942 
L 90.056076 42.585345 
L 91.84792 41.520325 
L 93.042483 40.988409 
L 93.639765 40.980492 
L 97.820735 45.476248 
L 102.001706 50.282612 
L 106.182676 55.399582 
L 108.571802 58.378526 
L 110.960928 60.58514 
L 112.752773 61.97732 
L 114.544617 63.14426 
L 116.336462 64.08596 
L 118.128306 64.802421 
L 119.920151 65.293641 
L 121.711996 65.559622 
L 122.906559 65.611809 
L 125.295685 65.183818 
L 129.476655 64.222832 
L 133.657626 63.049526 
L 137.838596 61.6639 
L 137.838596 61.6639 
L 150.931192 65.073649 
L 158.955686 67.367165 
L 170.358915 67.632842 
L 179.650434 67.05646 
L 179.650434 67.05646 
L 190.208979 60.570779 
L 200.345183 44.931423 
L 200.767524 44.580147 
L 210.903728 43.358243 
L 211.748411 44.295072 
L 221.462273 56.774972 
L 221.462273 56.774972 
" clip-path="url(#p610d218521)" style="fill: none; stroke: #d62728; stroke-width: 1.5; stroke-linecap: square"/>
   </g>
   <g id="line2d_23">
    <path d="M 78.707727 58.760582 
L 81.096853 55.097271 
L 82.888698 52.709463 
L 84.680542 50.629948 
L 86.472387 48.858727 
L 88.264231 47.395798 
L 90.056076 46.241162 
L 91.84792 45.39482 
L 93.042483 45.001866 
L 93.639765 45.079741 
L 99.61258 52.875712 
L 105.585395 61.061295 
L 108.571802 65.215853 
L 110.960928 67.738222 
L 113.350054 69.853286 
L 115.141899 71.172289 
L 116.933743 72.262183 
L 118.725588 73.122968 
L 120.517432 73.754643 
L 122.309277 74.157208 
L 122.906559 74.240484 
L 124.698403 74.037261 
L 128.879374 73.329041 
L 133.060344 72.408225 
L 137.241315 71.274814 
L 137.838596 71.095543 
L 158.955686 75.519994 
L 170.781257 75.127499 
L 179.650434 74.396495 
L 179.650434 74.396495 
L 190.208979 67.467202 
L 200.345183 50.397555 
L 200.767524 49.971987 
L 210.903728 46.614383 
L 211.326069 46.948534 
L 221.462273 58.760582 
L 221.462273 58.760582 
" clip-path="url(#p610d218521)" style="fill: none; stroke: #9467bd; stroke-width: 1.5; stroke-linecap: square"/>
   </g>
   <g id="line2d_24">
    <path d="M 78.707727 58.112968 
L 80.499572 55.580989 
L 82.291416 53.346143 
L 84.083261 51.408428 
L 85.875105 49.767847 
L 87.66695 48.424397 
L 89.458794 47.37808 
L 91.250639 46.628895 
L 93.042483 46.176842 
L 93.639765 46.33146 
L 103.196269 60.703616 
L 109.169084 69.627743 
L 111.55821 72.3203 
L 113.947336 74.598193 
L 115.73918 76.03449 
L 117.531025 77.237539 
L 119.322869 78.20734 
L 121.114714 78.943892 
L 122.906559 79.447196 
L 124.698403 79.331762 
L 128.879374 78.808919 
L 133.060344 78.072058 
L 137.241315 77.121179 
L 137.838596 76.967869 
L 137.838596 76.967869 
L 150.50885 79.202239 
L 158.955686 80.338594 
L 173.315307 79.176728 
L 179.650434 78.548768 
L 179.650434 78.548768 
L 190.208979 71.223334 
L 200.345183 52.874988 
L 200.767524 52.382892 
L 210.903728 47.110639 
L 211.326069 47.390788 
L 221.462273 58.112968 
L 221.462273 58.112968 
" clip-path="url(#p610d218521)" style="fill: none; stroke: #8c564b; stroke-width: 1.5; stroke-linecap: square"/>
   </g>
   <g id="line2d_25">
    <defs>
     <path id="mc6ceddae59" d="M -3 3 
L 3 -3 
M -3 -3 
L 3 3 
" style="stroke: #ff0000"/>
    </defs>
    <g clip-path="url(#p610d218521)">
     <use xlink:href="#mc6ceddae59" x="137.838596" y="147.780228" style="fill: #ff0000; stroke: #ff0000"/>
    </g>
   </g>
   <g id="line2d_26">
    <path d="M 78.707727 54.04717 
L 81.096853 55.827625 
L 83.485979 57.844879 
L 86.472387 60.699447 
L 89.458794 63.924016 
L 92.445202 67.518584 
L 93.042483 68.281898 
L 93.639765 69.532011 
L 97.223454 84.981753 
L 100.807143 99.317456 
L 103.79355 110.412871 
L 106.779958 120.734648 
L 108.571802 126.473551 
L 111.55821 134.706497 
L 113.947336 140.705932 
L 116.336462 146.183657 
L 118.725588 151.139674 
L 121.114714 155.573981 
L 122.906559 158.557341 
L 123.50384 159.03587 
L 127.684811 161.174278 
L 131.865781 163.075845 
L 136.046752 164.740573 
L 137.838596 165.381526 
L 137.838596 165.381526 
L 148.397141 162.739935 
L 160.222712 153.089812 
L 169.514231 146.388579 
L 179.650434 143.070422 
L 179.650434 143.070422 
L 189.786638 130.94338 
L 190.208979 130.184261 
L 201.612208 89.521575 
L 210.903728 59.529965 
L 211.326069 59.033333 
L 221.462273 54.04717 
L 221.462273 54.04717 
" clip-path="url(#p610d218521)" style="fill: none; stroke: #000000; stroke-width: 1.5; stroke-linecap: square"/>
   </g>
   <g id="line2d_27">
    <path d="M 78.707727 54.045234 
L 81.096853 55.823079 
L 83.485979 57.83801 
L 86.472387 60.690075 
L 89.458794 63.912588 
L 92.445202 67.505547 
L 93.042483 68.268593 
L 93.639765 69.518551 
L 97.223454 84.969739 
L 100.807143 99.308079 
L 103.79355 110.406604 
L 106.779958 120.732317 
L 108.571802 126.4742 
L 111.55821 134.714365 
L 113.947336 140.719843 
L 116.336462 146.203849 
L 118.725588 151.166385 
L 121.114714 155.60745 
L 122.906559 158.596034 
L 123.50384 159.075649 
L 127.684811 161.220136 
L 131.865781 163.127908 
L 136.046752 164.798967 
L 137.838596 165.442671 
L 137.838596 165.442671 
L 148.397141 162.789441 
L 160.222712 153.112995 
L 169.514231 146.395187 
L 179.650434 143.070247 
L 179.650434 143.070247 
L 189.786638 130.937201 
L 190.208979 130.177805 
L 201.612208 89.506802 
L 210.903728 59.519464 
L 211.326069 59.02314 
L 221.462273 54.045234 
L 221.462273 54.045234 
" clip-path="url(#p610d218521)" style="fill: none; stroke: #000000; stroke-width: 1.5; stroke-linecap: square"/>
   </g>
   <g id="line2d_28">
    <path d="M 78.707727 54.042755 
L 81.096853 55.81875 
L 83.485979 57.832041 
L 86.472387 60.682351 
L 89.458794 63.903435 
L 92.445202 67.495293 
L 93.042483 68.258157 
L 93.639765 69.508021 
L 97.223454 84.960448 
L 100.807143 99.30089 
L 103.79355 110.401827 
L 106.779958 120.730553 
L 108.571802 126.47469 
L 111.55821 134.720236 
L 113.947336 140.730211 
L 116.336462 146.218887 
L 118.725588 151.186265 
L 121.114714 155.632344 
L 122.906559 158.624801 
L 123.50384 159.105219 
L 127.684811 161.254202 
L 131.865781 163.166558 
L 136.046752 164.84229 
L 137.838596 165.488024 
L 137.838596 165.488024 
L 148.397141 162.826209 
L 160.222712 153.130284 
L 169.514231 146.40015 
L 179.650434 143.070134 
L 179.650434 143.070134 
L 189.786638 130.932566 
L 190.208979 130.172959 
L 201.612208 89.49548 
L 210.903728 59.510908 
L 211.326069 59.014798 
L 221.462273 54.042755 
L 221.462273 54.042755 
" clip-path="url(#p610d218521)" style="fill: none; stroke: #000000; stroke-width: 1.5; stroke-linecap: square"/>
   </g>
   <g id="line2d_29">
    <path d="M 78.707727 54.042003 
L 81.096853 55.816616 
L 83.485979 57.828674 
L 86.472387 60.677655 
L 89.458794 63.897644 
L 92.445202 67.488642 
L 93.042483 68.251363 
L 93.639765 69.501141 
L 97.223454 84.95428 
L 100.807143 99.296062 
L 103.79355 110.398595 
L 106.779958 120.729354 
L 108.571802 126.475038 
L 111.55821 134.72436 
L 113.947336 140.737499 
L 116.336462 146.229467 
L 118.725588 151.200263 
L 121.114714 155.649887 
L 122.906559 158.645087 
L 123.50384 159.126076 
L 127.684811 161.278265 
L 131.865781 163.193893 
L 136.046752 164.87296 
L 137.838596 165.520144 
L 137.838596 165.520144 
L 148.397141 162.852197 
L 160.222712 153.14244 
L 169.514231 146.40363 
L 179.650434 143.07007 
L 179.650434 143.07007 
L 189.786638 130.929364 
L 190.208979 130.169613 
L 201.612208 89.487853 
L 210.903728 59.50562 
L 211.326069 59.009673 
L 221.462273 54.042003 
L 221.462273 54.042003 
" clip-path="url(#p610d218521)" style="fill: none; stroke: #000000; stroke-width: 1.5; stroke-linecap: square"/>
   </g>
   <g id="line2d_30">
    <path d="M 78.707727 54.036994 
L 81.096853 55.810736 
L 83.485979 57.82204 
L 86.472387 60.670239 
L 89.458794 63.889628 
L 92.445202 67.480206 
L 93.042483 68.242864 
L 93.639765 69.492643 
L 97.223454 84.947086 
L 100.807143 99.290674 
L 103.79355 110.395095 
L 106.779958 120.728088 
L 108.571802 126.475379 
L 111.55821 134.728374 
L 113.947336 140.744576 
L 116.336462 146.239716 
L 118.725588 151.213795 
L 121.114714 155.666812 
L 122.906559 158.664628 
L 123.50384 159.146157 
L 127.684811 161.301353 
L 131.865781 163.22005 
L 136.046752 164.902249 
L 137.838596 165.550794 
L 137.838596 165.550794 
L 148.397141 162.87709 
L 160.222712 153.15421 
L 169.514231 146.407021 
L 179.650434 143.070013 
L 179.650434 143.070013 
L 189.786638 130.926202 
L 190.208979 130.166302 
L 201.612208 89.479496 
L 210.903728 59.497734 
L 211.326069 59.001879 
L 221.462273 54.036994 
L 221.462273 54.036994 
" clip-path="url(#p610d218521)" style="fill: none; stroke: #000000; stroke-width: 1.5; stroke-linecap: square"/>
   </g>
   <g id="line2d_31">
    <path d="M 78.707727 54.033093 
L 81.096853 55.806164 
L 83.485979 57.816885 
L 86.472387 60.664484 
L 89.458794 63.883414 
L 92.445202 67.473673 
L 93.042483 68.236284 
L 93.639765 69.486067 
L 97.223454 84.941532 
L 100.807143 99.286522 
L 103.79355 110.392401 
L 106.779958 120.727117 
L 108.571802 126.475638 
L 111.55821 134.731411 
L 113.947336 140.749921 
L 116.336462 146.247444 
L 118.725588 151.223981 
L 121.114714 155.679533 
L 122.906559 158.679299 
L 123.50384 159.161227 
L 127.684811 161.318631 
L 131.865781 163.239574 
L 136.046752 164.924056 
L 137.838596 165.573591 
L 137.838596 165.573591 
L 148.397141 162.895701 
L 160.222712 153.163119 
L 169.514231 146.409616 
L 179.650434 143.069975 
L 179.650434 143.069975 
L 189.786638 130.923778 
L 190.208979 130.163763 
L 201.612208 89.473047 
L 210.903728 59.491611 
L 211.326069 58.995828 
L 221.462273 54.033093 
L 221.462273 54.033093 
" clip-path="url(#p610d218521)" style="fill: none; stroke: #000000; stroke-width: 1.5; stroke-linecap: square"/>
   </g>
   <g id="line2d_32">
    <g clip-path="url(#p610d218521)">
     <use xlink:href="#mc6ceddae59" x="137.838596" y="165.959727" style="fill: #ff0000; stroke: #ff0000"/>
    </g>
   </g>
   <g id="patch_3">
    <path d="M 71.57 172.312 
L 71.57 32.562 
" style="fill: none; stroke: #000000; stroke-width: 0.8; stroke-linejoin: miter; stroke-linecap: square"/>
   </g>
   <g id="patch_4">
    <path d="M 228.6 172.312 
L 228.6 32.562 
" style="fill: none; stroke: #000000; stroke-width: 0.8; stroke-linejoin: miter; stroke-linecap: square"/>
   </g>
   <g id="patch_5">
    <path d="M 71.57 172.312 
L 228.6 172.312 
" style="fill: none; stroke: #000000; stroke-width: 0.8; stroke-linejoin: miter; stroke-linecap: square"/>
   </g>
   <g id="patch_6">
    <path d="M 71.57 32.562 
L 228.6 32.562 
" style="fill: none; stroke: #000000; stroke-width: 0.8; stroke-linejoin: miter; stroke-linecap: square"/>
   </g>
   <g id="text_11">
    <!-- (1, 1, 0, 0), w=3 -->
    <g transform="translate(101.125938 26.562) scale(0.12 -0.12)">
     <defs>
      <path id="DejaVuSans-2c" d="M 750 794 
L 1409 794 
L 1409 256 
L 897 -744 
L 494 -744 
L 750 256 
L 750 794 
z
" transform="scale(0.015625)"/>
      <path id="DejaVuSans-20" transform="scale(0.015625)"/>
      <path id="DejaVuSans-77" d="M 269 3500 
L 844 3500 
L 1563 769 
L 2278 3500 
L 2956 3500 
L 3675 769 
L 4391 3500 
L 4966 3500 
L 4050 0 
L 3372 0 
L 2619 2869 
L 1863 0 
L 1184 0 
L 269 3500 
z
" transform="scale(0.015625)"/>
      <path id="DejaVuSans-3d" d="M 678 2906 
L 4684 2906 
L 4684 2381 
L 678 2381 
L 678 2906 
z
M 678 1631 
L 4684 1631 
L 4684 1100 
L 678 1100 
L 678 1631 
z
" transform="scale(0.015625)"/>
     </defs>
     <use xlink:href="#DejaVuSans-28"/>
     <use xlink:href="#DejaVuSans-31" x="39.013672"/>
     <use xlink:href="#DejaVuSans-2c" x="102.636719"/>
     <use xlink:href="#DejaVuSans-20" x="134.423828"/>
     <use xlink:href="#DejaVuSans-31" x="166.210938"/>
     <use xlink:href="#DejaVuSans-2c" x="229.833984"/>
     <use xlink:href="#DejaVuSans-20" x="261.621094"/>
     <use xlink:href="#DejaVuSans-30" x="293.408203"/>
     <use xlink:href="#DejaVuSans-2c" x="357.03125"/>
     <use xlink:href="#DejaVuSans-20" x="388.818359"/>
     <use xlink:href="#DejaVuSans-30" x="420.605469"/>
     <use xlink:href="#DejaVuSans-29" x="484.228516"/>
     <use xlink:href="#DejaVuSans-2c" x="523.242188"/>
     <use xlink:href="#DejaVuSans-20" x="555.029297"/>
     <use xlink:href="#DejaVuSans-77" x="586.816406"/>
     <use xlink:href="#DejaVuSans-3d" x="668.603516"/>
     <use xlink:href="#DejaVuSans-33" x="752.392578"/>
    </g>
   </g>
   <g id="legend_1">
    <g id="patch_7">
     <path d="M 77.17 138.8645 
L 132.13 138.8645 
Q 133.73 138.8645 133.73 137.2645 
L 133.73 67.6095 
Q 133.73 66.0095 132.13 66.0095 
L 77.17 66.0095 
Q 75.57 66.0095 75.57 67.6095 
L 75.57 137.2645 
Q 75.57 138.8645 77.17 138.8645 
z
" style="fill: #ffffff; opacity: 0.8; stroke: #cccccc; stroke-linejoin: miter"/>
    </g>
    <g id="line2d_33">
     <path d="M 78.77 72.48825 
L 86.77 72.48825 
L 94.77 72.48825 
" style="fill: none; stroke: #1f77b4; stroke-width: 1.5; stroke-linecap: square"/>
    </g>
    <g id="text_12">
     <!-- $N_{\nu} = $$20$ -->
     <g transform="translate(101.17 75.28825) scale(0.08 -0.08)">
      <defs>
       <path id="DejaVuSans-Oblique-4e" d="M 1081 4666 
L 1931 4666 
L 3219 666 
L 4000 4666 
L 4616 4666 
L 3706 0 
L 2853 0 
L 1569 4025 
L 788 0 
L 172 0 
L 1081 4666 
z
" transform="scale(0.015625)"/>
       <path id="DejaVuSans-Oblique-3bd" d="M 959 0 
L 572 3500 
L 1191 3500 
L 1522 563 
Q 1972 950 2391 1488 
Q 2706 1891 2788 2241 
Q 2825 2406 2809 2719 
Q 2794 3091 2544 3500 
L 3125 3500 
L 3125 3500 
Q 3288 3222 3353 2834 
Q 3416 2478 3369 2234 
Q 3250 1622 2719 1075 
Q 2025 363 1572 0 
L 959 0 
z
" transform="scale(0.015625)"/>
      </defs>
      <use xlink:href="#DejaVuSans-Oblique-4e" transform="translate(0 0.78125)"/>
      <use xlink:href="#DejaVuSans-Oblique-3bd" transform="translate(74.804688 -15.625) scale(0.7)"/>
      <use xlink:href="#DejaVuSans-3d" transform="translate(136.123047 0.78125)"/>
      <use xlink:href="#DejaVuSans-32" transform="translate(239.394531 0.78125)"/>
      <use xlink:href="#DejaVuSans-30" transform="translate(303.017578 0.78125)"/>
     </g>
    </g>
    <g id="line2d_34">
     <path d="M 78.77 84.23075 
L 86.77 84.23075 
L 94.77 84.23075 
" style="fill: none; stroke: #ff7f0e; stroke-width: 1.5; stroke-linecap: square"/>
    </g>
    <g id="text_13">
     <!-- $N_{\nu} = $$22$ -->
     <g transform="translate(101.17 87.03075) scale(0.08 -0.08)">
      <use xlink:href="#DejaVuSans-Oblique-4e" transform="translate(0 0.78125)"/>
      <use xlink:href="#DejaVuSans-Oblique-3bd" transform="translate(74.804688 -15.625) scale(0.7)"/>
      <use xlink:href="#DejaVuSans-3d" transform="translate(136.123047 0.78125)"/>
      <use xlink:href="#DejaVuSans-32" transform="translate(239.394531 0.78125)"/>
      <use xlink:href="#DejaVuSans-32" transform="translate(303.017578 0.78125)"/>
     </g>
    </g>
    <g id="line2d_35">
     <path d="M 78.77 95.97325 
L 86.77 95.97325 
L 94.77 95.97325 
" style="fill: none; stroke: #2ca02c; stroke-width: 1.5; stroke-linecap: square"/>
    </g>
    <g id="text_14">
     <!-- $N_{\nu} = $$24$ -->
     <g transform="translate(101.17 98.77325) scale(0.08 -0.08)">
      <use xlink:href="#DejaVuSans-Oblique-4e" transform="translate(0 0.78125)"/>
      <use xlink:href="#DejaVuSans-Oblique-3bd" transform="translate(74.804688 -15.625) scale(0.7)"/>
      <use xlink:href="#DejaVuSans-3d" transform="translate(136.123047 0.78125)"/>
      <use xlink:href="#DejaVuSans-32" transform="translate(239.394531 0.78125)"/>
      <use xlink:href="#DejaVuSans-34" transform="translate(303.017578 0.78125)"/>
     </g>
    </g>
    <g id="line2d_36">
     <path d="M 78.77 107.71575 
L 86.77 107.71575 
L 94.77 107.71575 
" style="fill: none; stroke: #d62728; stroke-width: 1.5; stroke-linecap: square"/>
    </g>
    <g id="text_15">
     <!-- $N_{\nu} = $$26$ -->
     <g transform="translate(101.17 110.51575) scale(0.08 -0.08)">
      <defs>
       <path id="DejaVuSans-36" d="M 2113 2584 
Q 1688 2584 1439 2293 
Q 1191 2003 1191 1497 
Q 1191 994 1439 701 
Q 1688 409 2113 409 
Q 2538 409 2786 701 
Q 3034 994 3034 1497 
Q 3034 2003 2786 2293 
Q 2538 2584 2113 2584 
z
M 3366 4563 
L 3366 3988 
Q 3128 4100 2886 4159 
Q 2644 4219 2406 4219 
Q 1781 4219 1451 3797 
Q 1122 3375 1075 2522 
Q 1259 2794 1537 2939 
Q 1816 3084 2150 3084 
Q 2853 3084 3261 2657 
Q 3669 2231 3669 1497 
Q 3669 778 3244 343 
Q 2819 -91 2113 -91 
Q 1303 -91 875 529 
Q 447 1150 447 2328 
Q 447 3434 972 4092 
Q 1497 4750 2381 4750 
Q 2619 4750 2861 4703 
Q 3103 4656 3366 4563 
z
" transform="scale(0.015625)"/>
      </defs>
      <use xlink:href="#DejaVuSans-Oblique-4e" transform="translate(0 0.78125)"/>
      <use xlink:href="#DejaVuSans-Oblique-3bd" transform="translate(74.804688 -15.625) scale(0.7)"/>
      <use xlink:href="#DejaVuSans-3d" transform="translate(136.123047 0.78125)"/>
      <use xlink:href="#DejaVuSans-32" transform="translate(239.394531 0.78125)"/>
      <use xlink:href="#DejaVuSans-36" transform="translate(303.017578 0.78125)"/>
     </g>
    </g>
    <g id="line2d_37">
     <path d="M 78.77 119.45825 
L 86.77 119.45825 
L 94.77 119.45825 
" style="fill: none; stroke: #9467bd; stroke-width: 1.5; stroke-linecap: square"/>
    </g>
    <g id="text_16">
     <!-- $N_{\nu} = $$28$ -->
     <g transform="translate(101.17 122.25825) scale(0.08 -0.08)">
      <defs>
       <path id="DejaVuSans-38" d="M 2034 2216 
Q 1584 2216 1326 1975 
Q 1069 1734 1069 1313 
Q 1069 891 1326 650 
Q 1584 409 2034 409 
Q 2484 409 2743 651 
Q 3003 894 3003 1313 
Q 3003 1734 2745 1975 
Q 2488 2216 2034 2216 
z
M 1403 2484 
Q 997 2584 770 2862 
Q 544 3141 544 3541 
Q 544 4100 942 4425 
Q 1341 4750 2034 4750 
Q 2731 4750 3128 4425 
Q 3525 4100 3525 3541 
Q 3525 3141 3298 2862 
Q 3072 2584 2669 2484 
Q 3125 2378 3379 2068 
Q 3634 1759 3634 1313 
Q 3634 634 3220 271 
Q 2806 -91 2034 -91 
Q 1263 -91 848 271 
Q 434 634 434 1313 
Q 434 1759 690 2068 
Q 947 2378 1403 2484 
z
M 1172 3481 
Q 1172 3119 1398 2916 
Q 1625 2713 2034 2713 
Q 2441 2713 2670 2916 
Q 2900 3119 2900 3481 
Q 2900 3844 2670 4047 
Q 2441 4250 2034 4250 
Q 1625 4250 1398 4047 
Q 1172 3844 1172 3481 
z
" transform="scale(0.015625)"/>
      </defs>
      <use xlink:href="#DejaVuSans-Oblique-4e" transform="translate(0 0.78125)"/>
      <use xlink:href="#DejaVuSans-Oblique-3bd" transform="translate(74.804688 -15.625) scale(0.7)"/>
      <use xlink:href="#DejaVuSans-3d" transform="translate(136.123047 0.78125)"/>
      <use xlink:href="#DejaVuSans-32" transform="translate(239.394531 0.78125)"/>
      <use xlink:href="#DejaVuSans-38" transform="translate(303.017578 0.78125)"/>
     </g>
    </g>
    <g id="line2d_38">
     <path d="M 78.77 131.20075 
L 86.77 131.20075 
L 94.77 131.20075 
" style="fill: none; stroke: #8c564b; stroke-width: 1.5; stroke-linecap: square"/>
    </g>
    <g id="text_17">
     <!-- $N_{\nu} = $$30$ -->
     <g transform="translate(101.17 134.00075) scale(0.08 -0.08)">
      <use xlink:href="#DejaVuSans-Oblique-4e" transform="translate(0 0.78125)"/>
      <use xlink:href="#DejaVuSans-Oblique-3bd" transform="translate(74.804688 -15.625) scale(0.7)"/>
      <use xlink:href="#DejaVuSans-3d" transform="translate(136.123047 0.78125)"/>
      <use xlink:href="#DejaVuSans-33" transform="translate(239.394531 0.78125)"/>
      <use xlink:href="#DejaVuSans-30" transform="translate(303.017578 0.78125)"/>
     </g>
    </g>
   </g>
  </g>
  <g id="axes_2">
   <g id="patch_8">
    <path d="M 300.17 172.312 
L 457.2 172.312 
L 457.2 32.562 
L 300.17 32.562 
z
" style="fill: #ffffff"/>
   </g>
   <g id="line2d_39">
    <path d="M 307.307727 147.834206 
L 310.221085 145.61135 
L 313.134443 143.388495 
L 316.047801 141.165639 
L 318.96116 138.942783 
L 321.874518 136.719927 
L 324.787876 134.497072 
L 327.701234 132.274216 
L 330.614592 130.05136 
L 333.52795 127.828504 
L 336.441308 125.605648 
L 339.354666 123.382793 
L 342.268024 121.159937 
L 345.181382 118.937081 
L 348.09474 116.714225 
L 351.008098 114.491369 
L 353.921456 112.268514 
L 356.834814 110.045658 
L 359.748173 107.822802 
L 362.661531 105.599946 
L 365.574889 103.377091 
L 368.488247 101.154235 
L 371.401605 98.931379 
L 374.314963 96.708523 
L 377.228321 94.485667 
L 380.141679 92.262812 
L 383.055037 90.039956 
L 385.968395 87.8171 
L 388.881753 85.594244 
L 391.795111 83.371388 
L 394.708469 81.148533 
L 397.621827 78.925677 
L 400.535186 76.702821 
L 403.448544 74.479965 
L 406.361902 72.25711 
L 409.27526 70.034254 
L 412.188618 67.811398 
L 415.101976 65.588542 
L 418.015334 63.365686 
L 420.928692 61.142831 
L 423.84205 58.919975 
L 426.755408 56.697119 
L 429.668766 54.474263 
L 432.582124 52.251407 
L 435.495482 50.028552 
L 438.40884 47.805696 
L 441.322199 45.58284 
L 444.235557 43.359984 
L 447.148915 41.137129 
L 450.062273 38.914273 
" clip-path="url(#p425d150fd2)" style="fill: none; stroke-dasharray: 3.7,1.6; stroke-dashoffset: 0; stroke: #000000"/>
   </g>
   <g id="line2d_40">
    <path d="M 307.307727 165.959727 
L 310.221085 165.948076 
L 313.134443 165.936424 
L 316.047801 165.924773 
L 318.96116 165.913121 
L 321.874518 165.90147 
L 324.787876 165.889818 
L 327.701234 165.878167 
L 330.614592 165.866516 
L 333.52795 165.854864 
L 336.441308 165.843213 
L 339.354666 165.831561 
L 342.268024 165.81991 
L 345.181382 165.808258 
L 348.09474 165.796607 
L 351.008098 165.784955 
L 353.921456 165.773304 
L 356.834814 165.761652 
L 359.748173 165.750001 
L 362.661531 165.738349 
L 365.574889 165.726698 
L 368.488247 165.715047 
L 371.401605 165.703395 
L 374.314963 165.691744 
L 377.228321 165.680092 
L 380.141679 165.668441 
L 383.055037 165.656789 
L 385.968395 165.645138 
L 388.881753 165.633486 
L 391.795111 165.621835 
L 394.708469 165.610183 
L 397.621827 165.598532 
L 400.535186 165.58688 
L 403.448544 165.575229 
L 406.361902 165.563578 
L 409.27526 165.551926 
L 412.188618 165.540275 
L 415.101976 165.528623 
L 418.015334 165.516972 
L 420.928692 165.50532 
L 423.84205 165.493669 
L 426.755408 165.482017 
L 429.668766 165.470366 
L 432.582124 165.458714 
L 435.495482 165.447063 
L 438.40884 165.435411 
L 441.322199 165.42376 
L 444.235557 165.412109 
L 447.148915 165.400457 
L 450.062273 165.388806 
" clip-path="url(#p425d150fd2)" style="fill: none; stroke-dasharray: 3.7,1.6; stroke-dashoffset: 0; stroke: #000000"/>
   </g>
   <g id="matplotlib.axis_3">
    <g id="xtick_5">
     <g id="line2d_41">
      <path d="M 307.307727 172.312 
L 307.307727 32.562 
" clip-path="url(#p425d150fd2)" style="fill: none; stroke: #b0b0b0; stroke-width: 0.8; stroke-linecap: square"/>
     </g>
     <g id="line2d_42">
      <g>
       <use xlink:href="#m5d5e4d3444" x="307.307727" y="172.312" style="stroke: #000000; stroke-width: 0.8"/>
      </g>
     </g>
     <g id="text_18">
      <!-- 0.00 -->
      <g transform="translate(296.174915 186.910438) scale(0.1 -0.1)">
       <use xlink:href="#DejaVuSans-30"/>
       <use xlink:href="#DejaVuSans-2e" x="63.623047"/>
       <use xlink:href="#DejaVuSans-30" x="95.410156"/>
       <use xlink:href="#DejaVuSans-30" x="159.033203"/>
      </g>
     </g>
    </g>
    <g id="xtick_6">
     <g id="line2d_43">
      <path d="M 364.409545 172.312 
L 364.409545 32.562 
" clip-path="url(#p425d150fd2)" style="fill: none; stroke: #b0b0b0; stroke-width: 0.8; stroke-linecap: square"/>
     </g>
     <g id="line2d_44">
      <g>
       <use xlink:href="#m5d5e4d3444" x="364.409545" y="172.312" style="stroke: #000000; stroke-width: 0.8"/>
      </g>
     </g>
     <g id="text_19">
      <!-- 0.02 -->
      <g transform="translate(353.276733 186.910438) scale(0.1 -0.1)">
       <use xlink:href="#DejaVuSans-30"/>
       <use xlink:href="#DejaVuSans-2e" x="63.623047"/>
       <use xlink:href="#DejaVuSans-30" x="95.410156"/>
       <use xlink:href="#DejaVuSans-32" x="159.033203"/>
      </g>
     </g>
    </g>
    <g id="xtick_7">
     <g id="line2d_45">
      <path d="M 421.511364 172.312 
L 421.511364 32.562 
" clip-path="url(#p425d150fd2)" style="fill: none; stroke: #b0b0b0; stroke-width: 0.8; stroke-linecap: square"/>
     </g>
     <g id="line2d_46">
      <g>
       <use xlink:href="#m5d5e4d3444" x="421.511364" y="172.312" style="stroke: #000000; stroke-width: 0.8"/>
      </g>
     </g>
     <g id="text_20">
      <!-- 0.04 -->
      <g transform="translate(410.378551 186.910438) scale(0.1 -0.1)">
       <use xlink:href="#DejaVuSans-30"/>
       <use xlink:href="#DejaVuSans-2e" x="63.623047"/>
       <use xlink:href="#DejaVuSans-30" x="95.410156"/>
       <use xlink:href="#DejaVuSans-34" x="159.033203"/>
      </g>
     </g>
    </g>
    <g id="text_21">
     <!-- $1/N_\nu$ -->
     <g transform="translate(367.985 200.588562) scale(0.1 -0.1)">
      <defs>
       <path id="DejaVuSans-2f" d="M 1625 4666 
L 2156 4666 
L 531 -594 
L 0 -594 
L 1625 4666 
z
" transform="scale(0.015625)"/>
      </defs>
      <use xlink:href="#DejaVuSans-31" transform="translate(0 0.09375)"/>
      <use xlink:href="#DejaVuSans-2f" transform="translate(63.623047 0.09375)"/>
      <use xlink:href="#DejaVuSans-Oblique-4e" transform="translate(97.314453 0.09375)"/>
      <use xlink:href="#DejaVuSans-Oblique-3bd" transform="translate(172.119141 -16.3125) scale(0.7)"/>
     </g>
    </g>
   </g>
   <g id="matplotlib.axis_4">
    <g id="ytick_6">
     <g id="line2d_47">
      <path d="M 300.17 158.657814 
L 457.2 158.657814 
" clip-path="url(#p425d150fd2)" style="fill: none; stroke: #b0b0b0; stroke-width: 0.8; stroke-linecap: square"/>
     </g>
     <g id="line2d_48">
      <g>
       <use xlink:href="#me42c349d64" x="300.17" y="158.657814" style="stroke: #000000; stroke-width: 0.8"/>
      </g>
     </g>
     <g id="text_22">
      <!-- −0.004 -->
      <g transform="translate(256.162188 162.457032) scale(0.1 -0.1)">
       <use xlink:href="#DejaVuSans-2212"/>
       <use xlink:href="#DejaVuSans-30" x="83.789062"/>
       <use xlink:href="#DejaVuSans-2e" x="147.412109"/>
       <use xlink:href="#DejaVuSans-30" x="179.199219"/>
       <use xlink:href="#DejaVuSans-30" x="242.822266"/>
       <use xlink:href="#DejaVuSans-34" x="306.445312"/>
      </g>
     </g>
    </g>
    <g id="ytick_7">
     <g id="line2d_49">
      <path d="M 300.17 132.419003 
L 457.2 132.419003 
" clip-path="url(#p425d150fd2)" style="fill: none; stroke: #b0b0b0; stroke-width: 0.8; stroke-linecap: square"/>
     </g>
     <g id="line2d_50">
      <g>
       <use xlink:href="#me42c349d64" x="300.17" y="132.419003" style="stroke: #000000; stroke-width: 0.8"/>
      </g>
     </g>
     <g id="text_23">
      <!-- −0.003 -->
      <g transform="translate(256.162188 136.218222) scale(0.1 -0.1)">
       <use xlink:href="#DejaVuSans-2212"/>
       <use xlink:href="#DejaVuSans-30" x="83.789062"/>
       <use xlink:href="#DejaVuSans-2e" x="147.412109"/>
       <use xlink:href="#DejaVuSans-30" x="179.199219"/>
       <use xlink:href="#DejaVuSans-30" x="242.822266"/>
       <use xlink:href="#DejaVuSans-33" x="306.445312"/>
      </g>
     </g>
    </g>
    <g id="ytick_8">
     <g id="line2d_51">
      <path d="M 300.17 106.180193 
L 457.2 106.180193 
" clip-path="url(#p425d150fd2)" style="fill: none; stroke: #b0b0b0; stroke-width: 0.8; stroke-linecap: square"/>
     </g>
     <g id="line2d_52">
      <g>
       <use xlink:href="#me42c349d64" x="300.17" y="106.180193" style="stroke: #000000; stroke-width: 0.8"/>
      </g>
     </g>
     <g id="text_24">
      <!-- −0.002 -->
      <g transform="translate(256.162188 109.979411) scale(0.1 -0.1)">
       <use xlink:href="#DejaVuSans-2212"/>
       <use xlink:href="#DejaVuSans-30" x="83.789062"/>
       <use xlink:href="#DejaVuSans-2e" x="147.412109"/>
       <use xlink:href="#DejaVuSans-30" x="179.199219"/>
       <use xlink:href="#DejaVuSans-30" x="242.822266"/>
       <use xlink:href="#DejaVuSans-32" x="306.445312"/>
      </g>
     </g>
    </g>
    <g id="ytick_9">
     <g id="line2d_53">
      <path d="M 300.17 79.941382 
L 457.2 79.941382 
" clip-path="url(#p425d150fd2)" style="fill: none; stroke: #b0b0b0; stroke-width: 0.8; stroke-linecap: square"/>
     </g>
     <g id="line2d_54">
      <g>
       <use xlink:href="#me42c349d64" x="300.17" y="79.941382" style="stroke: #000000; stroke-width: 0.8"/>
      </g>
     </g>
     <g id="text_25">
      <!-- −0.001 -->
      <g transform="translate(256.162188 83.740601) scale(0.1 -0.1)">
       <use xlink:href="#DejaVuSans-2212"/>
       <use xlink:href="#DejaVuSans-30" x="83.789062"/>
       <use xlink:href="#DejaVuSans-2e" x="147.412109"/>
       <use xlink:href="#DejaVuSans-30" x="179.199219"/>
       <use xlink:href="#DejaVuSans-30" x="242.822266"/>
       <use xlink:href="#DejaVuSans-31" x="306.445312"/>
      </g>
     </g>
    </g>
    <g id="ytick_10">
     <g id="line2d_55">
      <path d="M 300.17 53.702572 
L 457.2 53.702572 
" clip-path="url(#p425d150fd2)" style="fill: none; stroke: #b0b0b0; stroke-width: 0.8; stroke-linecap: square"/>
     </g>
     <g id="line2d_56">
      <g>
       <use xlink:href="#me42c349d64" x="300.17" y="53.702572" style="stroke: #000000; stroke-width: 0.8"/>
      </g>
     </g>
     <g id="text_26">
      <!-- 0.000 -->
      <g transform="translate(264.541875 57.50179) scale(0.1 -0.1)">
       <use xlink:href="#DejaVuSans-30"/>
       <use xlink:href="#DejaVuSans-2e" x="63.623047"/>
       <use xlink:href="#DejaVuSans-30" x="95.410156"/>
       <use xlink:href="#DejaVuSans-30" x="159.033203"/>
       <use xlink:href="#DejaVuSans-30" x="222.65625"/>
      </g>
     </g>
    </g>
    <g id="text_27">
     <!-- $\chi(\mathbf{M})$ -->
     <g transform="translate(250.062188 114.287) rotate(-90) scale(0.1 -0.1)">
      <defs>
       <path id="DejaVuSans-Bold-4d" d="M 588 4666 
L 2119 4666 
L 3181 2169 
L 4250 4666 
L 5778 4666 
L 5778 0 
L 4641 0 
L 4641 3413 
L 3566 897 
L 2803 897 
L 1728 3413 
L 1728 0 
L 588 0 
L 588 4666 
z
" transform="scale(0.015625)"/>
      </defs>
      <use xlink:href="#DejaVuSans-Oblique-3c7" transform="translate(0 0.125)"/>
      <use xlink:href="#DejaVuSans-28" transform="translate(59.179688 0.125)"/>
      <use xlink:href="#DejaVuSans-Bold-4d" transform="translate(98.193359 0.125)"/>
      <use xlink:href="#DejaVuSans-29" transform="translate(197.705078 0.125)"/>
     </g>
    </g>
   </g>
   <g id="line2d_57">
    <defs>
     <path id="m21d5dc47b8" d="M 0 3 
C 0.795609 3 1.55874 2.683901 2.12132 2.12132 
C 2.683901 1.55874 3 0.795609 3 0 
C 3 -0.795609 2.683901 -1.55874 2.12132 -2.12132 
C 1.55874 -2.683901 0.795609 -3 0 -3 
C -0.795609 -3 -1.55874 -2.683901 -2.12132 -2.12132 
C -2.683901 -1.55874 -3 -0.795609 -3 0 
C -3 0.795609 -2.683901 1.55874 -2.12132 2.12132 
C -1.55874 2.683901 -0.795609 3 0 3 
z
" style="stroke: #1f77b4"/>
    </defs>
    <g clip-path="url(#p425d150fd2)">
     <use xlink:href="#m21d5dc47b8" x="450.062273" y="41.468853" style="fill: #1f77b4; stroke: #1f77b4"/>
    </g>
   </g>
   <g id="line2d_58">
    <defs>
     <path id="me01763272d" d="M 0 3 
C 0.795609 3 1.55874 2.683901 2.12132 2.12132 
C 2.683901 1.55874 3 0.795609 3 0 
C 3 -0.795609 2.683901 -1.55874 2.12132 -2.12132 
C 1.55874 -2.683901 0.795609 -3 0 -3 
C -0.795609 -3 -1.55874 -2.683901 -2.12132 -2.12132 
C -2.683901 -1.55874 -3 -0.795609 -3 0 
C -3 0.795609 -2.683901 1.55874 -2.12132 2.12132 
C -1.55874 2.683901 -0.795609 3 0 3 
z
" style="stroke: #ff7f0e"/>
    </defs>
    <g clip-path="url(#p425d150fd2)">
     <use xlink:href="#me01763272d" x="437.084587" y="47.974297" style="fill: #ff7f0e; stroke: #ff7f0e"/>
    </g>
   </g>
   <g id="line2d_59">
    <defs>
     <path id="m56fe9b6bde" d="M 0 3 
C 0.795609 3 1.55874 2.683901 2.12132 2.12132 
C 2.683901 1.55874 3 0.795609 3 0 
C 3 -0.795609 2.683901 -1.55874 2.12132 -2.12132 
C 1.55874 -2.683901 0.795609 -3 0 -3 
C -0.795609 -3 -1.55874 -2.683901 -2.12132 -2.12132 
C -2.683901 -1.55874 -3 -0.795609 -3 0 
C -3 0.795609 -2.683901 1.55874 -2.12132 2.12132 
C -1.55874 2.683901 -0.795609 3 0 3 
z
" style="stroke: #2ca02c"/>
    </defs>
    <g clip-path="url(#p425d150fd2)">
     <use xlink:href="#m56fe9b6bde" x="426.269848" y="54.076733" style="fill: #2ca02c; stroke: #2ca02c"/>
    </g>
   </g>
   <g id="line2d_60">
    <defs>
     <path id="m25e17f1174" d="M 0 3 
C 0.795609 3 1.55874 2.683901 2.12132 2.12132 
C 2.683901 1.55874 3 0.795609 3 0 
C 3 -0.795609 2.683901 -1.55874 2.12132 -2.12132 
C 1.55874 -2.683901 0.795609 -3 0 -3 
C -0.795609 -3 -1.55874 -2.683901 -2.12132 -2.12132 
C -2.683901 -1.55874 -3 -0.795609 -3 0 
C -3 0.795609 -2.683901 1.55874 -2.12132 2.12132 
C -1.55874 2.683901 -0.795609 3 0 3 
z
" style="stroke: #d62728"/>
    </defs>
    <g clip-path="url(#p425d150fd2)">
     <use xlink:href="#m25e17f1174" x="417.118916" y="61.973571" style="fill: #d62728; stroke: #d62728"/>
    </g>
   </g>
   <g id="line2d_61">
    <defs>
     <path id="m49a00e6708" d="M 0 3 
C 0.795609 3 1.55874 2.683901 2.12132 2.12132 
C 2.683901 1.55874 3 0.795609 3 0 
C 3 -0.795609 2.683901 -1.55874 2.12132 -2.12132 
C 1.55874 -2.683901 0.795609 -3 0 -3 
C -0.795609 -3 -1.55874 -2.683901 -2.12132 -2.12132 
C -2.683901 -1.55874 -3 -0.795609 -3 0 
C -3 0.795609 -2.683901 1.55874 -2.12132 2.12132 
C -1.55874 2.683901 -0.795609 3 0 3 
z
" style="stroke: #9467bd"/>
    </defs>
    <g clip-path="url(#p425d150fd2)">
     <use xlink:href="#m49a00e6708" x="409.27526" y="71.377211" style="fill: #9467bd; stroke: #9467bd"/>
    </g>
   </g>
   <g id="line2d_62">
    <defs>
     <path id="m46f5cf084b" d="M 0 3 
C 0.795609 3 1.55874 2.683901 2.12132 2.12132 
C 2.683901 1.55874 3 0.795609 3 0 
C 3 -0.795609 2.683901 -1.55874 2.12132 -2.12132 
C 1.55874 -2.683901 0.795609 -3 0 -3 
C -0.795609 -3 -1.55874 -2.683901 -2.12132 -2.12132 
C -2.683901 -1.55874 -3 -0.795609 -3 0 
C -3 0.795609 -2.683901 1.55874 -2.12132 2.12132 
C -1.55874 2.683901 -0.795609 3 0 3 
z
" style="stroke: #8c564b"/>
    </defs>
    <g clip-path="url(#p425d150fd2)">
     <use xlink:href="#m46f5cf084b" x="402.477424" y="77.2321" style="fill: #8c564b; stroke: #8c564b"/>
    </g>
   </g>
   <g id="line2d_63">
    <g clip-path="url(#p425d150fd2)">
     <use xlink:href="#mc6ceddae59" x="307.307727" y="147.834206" style="fill: #ff0000; stroke: #ff0000"/>
    </g>
   </g>
   <g id="line2d_64">
    <defs>
     <path id="m2d26329e18" d="M 0 3 
C 0.795609 3 1.55874 2.683901 2.12132 2.12132 
C 2.683901 1.55874 3 0.795609 3 0 
C 3 -0.795609 2.683901 -1.55874 2.12132 -2.12132 
C 1.55874 -2.683901 0.795609 -3 0 -3 
C -0.795609 -3 -1.55874 -2.683901 -2.12132 -2.12132 
C -2.683901 -1.55874 -3 -0.795609 -3 0 
C -3 0.795609 -2.683901 1.55874 -2.12132 2.12132 
C -1.55874 2.683901 -0.795609 3 0 3 
z
" style="stroke: #000000"/>
    </defs>
    <g clip-path="url(#p425d150fd2)">
     <use xlink:href="#m2d26329e18" x="450.062273" y="165.383242" style="stroke: #000000"/>
    </g>
   </g>
   <g id="line2d_65">
    <g clip-path="url(#p425d150fd2)">
     <use xlink:href="#m2d26329e18" x="437.084587" y="165.444206" style="stroke: #000000"/>
    </g>
   </g>
   <g id="line2d_66">
    <g clip-path="url(#p425d150fd2)">
     <use xlink:href="#m2d26329e18" x="426.269848" y="165.489424" style="stroke: #000000"/>
    </g>
   </g>
   <g id="line2d_67">
    <g clip-path="url(#p425d150fd2)">
     <use xlink:href="#m2d26329e18" x="417.118916" y="165.52145" style="stroke: #000000"/>
    </g>
   </g>
   <g id="line2d_68">
    <g clip-path="url(#p425d150fd2)">
     <use xlink:href="#m2d26329e18" x="409.27526" y="165.552008" style="stroke: #000000"/>
    </g>
   </g>
   <g id="line2d_69">
    <g clip-path="url(#p425d150fd2)">
     <use xlink:href="#m2d26329e18" x="402.477424" y="165.574738" style="stroke: #000000"/>
    </g>
   </g>
   <g id="line2d_70">
    <g clip-path="url(#p425d150fd2)">
     <use xlink:href="#mc6ceddae59" x="307.307727" y="165.959727" style="fill: #ff0000; stroke: #ff0000"/>
    </g>
   </g>
   <g id="patch_9">
    <path d="M 300.17 172.312 
L 300.17 32.562 
" style="fill: none; stroke: #000000; stroke-width: 0.8; stroke-linejoin: miter; stroke-linecap: square"/>
   </g>
   <g id="patch_10">
    <path d="M 457.2 172.312 
L 457.2 32.562 
" style="fill: none; stroke: #000000; stroke-width: 0.8; stroke-linejoin: miter; stroke-linecap: square"/>
   </g>
   <g id="patch_11">
    <path d="M 300.17 172.312 
L 457.2 172.312 
" style="fill: none; stroke: #000000; stroke-width: 0.8; stroke-linejoin: miter; stroke-linecap: square"/>
   </g>
   <g id="patch_12">
    <path d="M 300.17 32.562 
L 457.2 32.562 
" style="fill: none; stroke: #000000; stroke-width: 0.8; stroke-linejoin: miter; stroke-linecap: square"/>
   </g>
   <g id="text_28">
    <!-- $\lim_{n_\nu \rightarrow \infty} \, \chi(\mathbf{M}) \approx $$-0.0036$ -->
    <g transform="translate(316.345 24.162) scale(0.12 -0.12)">
     <defs>
      <path id="DejaVuSans-6c" d="M 603 4863 
L 1178 4863 
L 1178 0 
L 603 0 
L 603 4863 
z
" transform="scale(0.015625)"/>
      <path id="DejaVuSans-69" d="M 603 3500 
L 1178 3500 
L 1178 0 
L 603 0 
L 603 3500 
z
M 603 4863 
L 1178 4863 
L 1178 4134 
L 603 4134 
L 603 4863 
z
" transform="scale(0.015625)"/>
      <path id="DejaVuSans-6d" d="M 3328 2828 
Q 3544 3216 3844 3400 
Q 4144 3584 4550 3584 
Q 5097 3584 5394 3201 
Q 5691 2819 5691 2113 
L 5691 0 
L 5113 0 
L 5113 2094 
Q 5113 2597 4934 2840 
Q 4756 3084 4391 3084 
Q 3944 3084 3684 2787 
Q 3425 2491 3425 1978 
L 3425 0 
L 2847 0 
L 2847 2094 
Q 2847 2600 2669 2842 
Q 2491 3084 2119 3084 
Q 1678 3084 1418 2786 
Q 1159 2488 1159 1978 
L 1159 0 
L 581 0 
L 581 3500 
L 1159 3500 
L 1159 2956 
Q 1356 3278 1631 3431 
Q 1906 3584 2284 3584 
Q 2666 3584 2933 3390 
Q 3200 3197 3328 2828 
z
" transform="scale(0.015625)"/>
      <path id="DejaVuSans-Oblique-6e" d="M 3566 2113 
L 3156 0 
L 2578 0 
L 2988 2091 
Q 3016 2238 3031 2350 
Q 3047 2463 3047 2528 
Q 3047 2791 2881 2937 
Q 2716 3084 2419 3084 
Q 1956 3084 1622 2776 
Q 1288 2469 1184 1941 
L 800 0 
L 225 0 
L 903 3500 
L 1478 3500 
L 1363 2950 
Q 1603 3253 1940 3418 
Q 2278 3584 2650 3584 
Q 3113 3584 3367 3334 
Q 3622 3084 3622 2631 
Q 3622 2519 3608 2391 
Q 3594 2263 3566 2113 
z
" transform="scale(0.015625)"/>
      <path id="DejaVuSans-2192" d="M 5050 2147 
L 5050 1866 
L 3822 638 
L 3447 1013 
L 4175 1741 
L 366 1741 
L 366 2272 
L 4175 2272 
L 3447 3000 
L 3822 3375 
L 5050 2147 
z
" transform="scale(0.015625)"/>
      <path id="DejaVuSans-221e" d="M 2916 1091 
Q 2819 1203 2666 1466 
Q 2456 1091 2272 925 
Q 2041 725 1681 725 
Q 1259 725 981 1041 
Q 688 1372 688 1919 
Q 688 2444 981 2800 
Q 1244 3116 1688 3116 
Q 1916 3116 2084 3022 
Q 2281 2919 2416 2741 
Q 2541 2581 2666 2366 
Q 2875 2741 3059 2906 
Q 3291 3106 3650 3106 
Q 4072 3106 4350 2791 
Q 4644 2459 4644 1913 
Q 4644 1388 4350 1031 
Q 4088 716 3644 716 
Q 3416 716 3247 809 
Q 3078 894 2916 1091 
z
M 1647 1134 
Q 2163 1134 2472 1884 
Q 2075 2703 1647 2703 
Q 1334 2703 1175 2478 
Q 1003 2238 1003 1919 
Q 1003 1569 1175 1353 
Q 1350 1134 1647 1134 
z
M 3684 2697 
Q 3219 2697 2859 1947 
Q 3253 1128 3684 1128 
Q 3997 1128 4156 1353 
Q 4328 1594 4328 1913 
Q 4328 2263 4156 2478 
Q 3981 2697 3684 2697 
z
" transform="scale(0.015625)"/>
      <path id="DejaVuSans-2248" d="M 4684 1947 
L 4684 1388 
Q 4356 1144 4076 1036 
Q 3797 928 3494 928 
Q 3150 928 2694 1113 
Q 2663 1125 2641 1134 
Q 2622 1141 2575 1159 
Q 2091 1350 1797 1350 
Q 1522 1350 1253 1231 
Q 984 1113 678 850 
L 678 1409 
Q 1006 1653 1286 1761 
Q 1566 1869 1869 1869 
Q 2213 1869 2672 1684 
Q 2706 1669 2722 1663 
Q 2741 1656 2788 1638 
Q 3272 1447 3566 1447 
Q 3834 1447 4098 1564 
Q 4363 1681 4684 1947 
z
M 4684 3163 
L 4684 2606 
Q 4356 2359 4076 2251 
Q 3797 2144 3494 2144 
Q 3150 2144 2694 2328 
Q 2663 2341 2641 2350 
Q 2622 2356 2575 2375 
Q 2091 2566 1797 2566 
Q 1522 2566 1253 2447 
Q 984 2328 678 2069 
L 678 2625 
Q 1006 2869 1286 2976 
Q 1566 3084 1869 3084 
Q 2213 3084 2672 2900 
Q 2703 2888 2719 2881 
Q 2741 2872 2788 2853 
Q 3272 2663 3566 2663 
Q 3834 2663 4098 2780 
Q 4363 2897 4684 3163 
z
" transform="scale(0.015625)"/>
     </defs>
     <use xlink:href="#DejaVuSans-6c" transform="translate(38 0.015625)"/>
     <use xlink:href="#DejaVuSans-69" transform="translate(65.783203 0.015625)"/>
     <use xlink:href="#DejaVuSans-6d" transform="translate(93.566406 0.015625)"/>
     <use xlink:href="#DejaVuSans-Oblique-6e" transform="translate(0 -57.934375) scale(0.7)"/>
     <use xlink:href="#DejaVuSans-Oblique-3bd" transform="translate(44.365234 -69.41875) scale(0.49)"/>
     <use xlink:href="#DejaVuSans-2192" transform="translate(98.653059 -57.934375) scale(0.7)"/>
     <use xlink:href="#DejaVuSans-221e" transform="translate(170.943098 -57.934375) scale(0.7)"/>
     <use xlink:href="#DejaVuSans-Oblique-3c7" transform="translate(245.489322 0.015625)"/>
     <use xlink:href="#DejaVuSans-28" transform="translate(304.669009 0.015625)"/>
     <use xlink:href="#DejaVuSans-Bold-4d" transform="translate(343.682681 0.015625)"/>
     <use xlink:href="#DejaVuSans-29" transform="translate(443.1944 0.015625)"/>
     <use xlink:href="#DejaVuSans-2248" transform="translate(501.690493 0.015625)"/>
     <use xlink:href="#DejaVuSans-2212" transform="translate(604.961978 0.015625)"/>
     <use xlink:href="#DejaVuSans-30" transform="translate(688.75104 0.015625)"/>
     <use xlink:href="#DejaVuSans-2e" transform="translate(752.374087 0.015625)"/>
     <use xlink:href="#DejaVuSans-30" transform="translate(784.161197 0.015625)"/>
     <use xlink:href="#DejaVuSans-30" transform="translate(847.784243 0.015625)"/>
     <use xlink:href="#DejaVuSans-33" transform="translate(911.40729 0.015625)"/>
     <use xlink:href="#DejaVuSans-36" transform="translate(975.030337 0.015625)"/>
    </g>
   </g>
   <g id="legend_2">
    <g id="patch_13">
     <path d="M 305.77 50.7045 
L 346.8525 50.7045 
Q 348.4525 50.7045 348.4525 49.1045 
L 348.4525 38.162 
Q 348.4525 36.562 346.8525 36.562 
L 305.77 36.562 
Q 304.17 36.562 304.17 38.162 
L 304.17 49.1045 
Q 304.17 50.7045 305.77 50.7045 
z
" style="fill: #ffffff; opacity: 0.8; stroke: #cccccc; stroke-linejoin: miter"/>
    </g>
    <g id="line2d_71">
     <g>
      <use xlink:href="#mc6ceddae59" x="315.37" y="43.04075" style="fill: #ff0000; stroke: #ff0000"/>
     </g>
    </g>
    <g id="text_29">
     <!-- BSE -->
     <g transform="translate(329.77 45.84075) scale(0.08 -0.08)">
      <defs>
       <path id="DejaVuSans-42" d="M 1259 2228 
L 1259 519 
L 2272 519 
Q 2781 519 3026 730 
Q 3272 941 3272 1375 
Q 3272 1813 3026 2020 
Q 2781 2228 2272 2228 
L 1259 2228 
z
M 1259 4147 
L 1259 2741 
L 2194 2741 
Q 2656 2741 2882 2914 
Q 3109 3088 3109 3444 
Q 3109 3797 2882 3972 
Q 2656 4147 2194 4147 
L 1259 4147 
z
M 628 4666 
L 2241 4666 
Q 2963 4666 3353 4366 
Q 3744 4066 3744 3513 
Q 3744 3084 3544 2831 
Q 3344 2578 2956 2516 
Q 3422 2416 3680 2098 
Q 3938 1781 3938 1306 
Q 3938 681 3513 340 
Q 3088 0 2303 0 
L 628 0 
L 628 4666 
z
" transform="scale(0.015625)"/>
       <path id="DejaVuSans-53" d="M 3425 4513 
L 3425 3897 
Q 3066 4069 2747 4153 
Q 2428 4238 2131 4238 
Q 1616 4238 1336 4038 
Q 1056 3838 1056 3469 
Q 1056 3159 1242 3001 
Q 1428 2844 1947 2747 
L 2328 2669 
Q 3034 2534 3370 2195 
Q 3706 1856 3706 1288 
Q 3706 609 3251 259 
Q 2797 -91 1919 -91 
Q 1588 -91 1214 -16 
Q 841 59 441 206 
L 441 856 
Q 825 641 1194 531 
Q 1563 422 1919 422 
Q 2459 422 2753 634 
Q 3047 847 3047 1241 
Q 3047 1584 2836 1778 
Q 2625 1972 2144 2069 
L 1759 2144 
Q 1053 2284 737 2584 
Q 422 2884 422 3419 
Q 422 4038 858 4394 
Q 1294 4750 2059 4750 
Q 2388 4750 2728 4690 
Q 3069 4631 3425 4513 
z
" transform="scale(0.015625)"/>
       <path id="DejaVuSans-45" d="M 628 4666 
L 3578 4666 
L 3578 4134 
L 1259 4134 
L 1259 2753 
L 3481 2753 
L 3481 2222 
L 1259 2222 
L 1259 531 
L 3634 531 
L 3634 0 
L 628 0 
L 628 4666 
z
" transform="scale(0.015625)"/>
      </defs>
      <use xlink:href="#DejaVuSans-42"/>
      <use xlink:href="#DejaVuSans-53" x="66.853516"/>
      <use xlink:href="#DejaVuSans-45" x="130.330078"/>
     </g>
    </g>
   </g>
  </g>
 </g>
 <defs>
  <clipPath id="p610d218521">
   <rect x="71.57" y="32.562" width="157.03" height="139.75"/>
  </clipPath>
  <clipPath id="p425d150fd2">
   <rect x="300.17" y="32.562" width="157.03" height="139.75"/>
  </clipPath>
 </defs>
</svg>
