<?xml version="1.0" encoding="utf-8" standalone="no"?>
<!DOCTYPE svg PUBLIC "-//W3C//DTD SVG 1.1//EN"
  "http://www.w3.org/Graphics/SVG/1.1/DTD/svg11.dtd">
<svg xmlns:xlink="http://www.w3.org/1999/xlink" width="411.304375pt" height="314.667469pt" viewBox="0 0 411.304375 314.667469" xmlns="http://www.w3.org/2000/svg" version="1.1">
 <metadata>
  <rdf:RDF xmlns:dc="http://purl.org/dc/elements/1.1/" xmlns:cc="http://creativecommons.org/ns#" xmlns:rdf="http://www.w3.org/1999/02/22-rdf-syntax-ns#">
   <cc:Work>
    <dc:type rdf:resource="http://purl.org/dc/dcmitype/StillImage"/>
    <dc:date>2025-04-30T08:39:02.994940</dc:date>
    <dc:format>image/svg+xml</dc:format>
    <dc:creator>
     <cc:Agent>
      <dc:title>Matplotlib v3.10.1, https://matplotlib.org/</dc:title>
     </cc:Agent>
    </dc:creator>
   </cc:Work>
  </rdf:RDF>
 </metadata>
 <defs>
  <style type="text/css">*{stroke-linejoin: round; stroke-linecap: butt}</style>
 </defs>
 <g id="figure_1">
  <g id="patch_1">
   <path d="M 0 314.667469 
L 411.304375 314.667469 
L 411.304375 0 
L 0 0 
z
" style="fill: #ffffff"/>
  </g>
  <g id="axes_1">
   <g id="patch_2">
    <path d="M 43.803125 277.111219 
L 400.923125 277.111219 
L 400.923125 10.999219 
L 43.803125 10.999219 
z
" style="fill: #ffffff"/>
   </g>
   <g id="FillBetweenPolyCollection_1">
    <path d="M 76.999662 277.111219 
L 76.999662 256.695642 
L 78.460604 256.639245 
L 79.921545 256.432457 
L 81.382487 256.432457 
L 82.843429 256.507653 
L 84.304371 256.319664 
L 85.765313 256.169273 
L 87.226255 256.300865 
L 88.687197 256.037681 
L 90.148139 255.830893 
L 91.609081 255.943687 
L 93.070022 255.7181 
L 94.530964 255.680502 
L 95.991906 255.755698 
L 97.452848 255.605307 
L 98.91379 255.398519 
L 100.374732 255.323324 
L 101.835674 255.454916 
L 103.296616 255.135335 
L 104.757558 254.947346 
L 106.218499 255.022542 
L 107.679441 255.06014 
L 109.140383 254.966145 
L 110.601325 254.496173 
L 112.062267 254.533771 
L 113.523209 254.608967 
L 114.984151 254.420978 
L 116.445093 254.458576 
L 117.906035 254.326983 
L 119.366976 254.138995 
L 120.827918 253.894609 
L 122.28886 253.913408 
L 123.749802 253.951006 
L 125.210744 253.687822 
L 126.671686 253.593827 
L 128.132628 253.38704 
L 129.59357 253.518632 
L 131.054512 253.349442 
L 132.515453 253.311844 
L 133.976395 252.954666 
L 135.437337 253.067459 
L 136.898279 252.766677 
L 138.359221 252.87947 
L 139.820163 252.503493 
L 141.281105 252.503493 
L 142.742047 252.202711 
L 144.202989 252.259107 
L 145.66393 252.240308 
L 147.124872 251.977124 
L 148.585814 251.977124 
L 150.046756 251.71394 
L 151.507698 251.601147 
L 152.96864 251.469555 
L 154.429582 251.300365 
L 155.890524 251.337963 
L 157.351466 251.149974 
L 158.812407 251.225169 
L 160.273349 250.473214 
L 161.734291 250.623605 
L 163.195233 250.529611 
L 164.656175 250.623605 
L 166.117117 250.059639 
L 167.578059 250.022041 
L 169.039001 250.21003 
L 170.499943 249.758857 
L 171.960884 249.608466 
L 173.421826 249.740058 
L 174.882768 249.006902 
L 176.34371 249.420477 
L 177.804652 248.931707 
L 179.265594 248.762517 
L 180.726536 248.70612 
L 182.187478 248.856511 
L 183.64842 248.142154 
L 185.109361 248.04816 
L 186.570303 247.991763 
L 188.031245 247.954165 
L 189.492187 247.690981 
L 190.953129 247.239808 
L 192.414071 247.390199 
L 193.875013 247.352601 
L 195.335955 246.807434 
L 196.796897 246.563049 
L 198.257838 246.37506 
L 199.71878 246.149473 
L 201.179722 246.487853 
L 202.640664 245.773496 
L 204.101606 245.679501 
L 205.562548 245.453915 
L 207.02349 245.134334 
L 208.484432 245.171932 
L 209.945374 244.795954 
L 211.406316 244.833552 
L 212.867257 244.325983 
L 214.328199 243.780815 
L 215.789141 243.743217 
L 217.250083 243.555229 
L 218.711025 243.668022 
L 220.171967 243.104056 
L 221.632909 242.822073 
L 223.093851 242.464894 
L 224.554793 242.239307 
L 226.015734 242.389698 
L 227.476676 241.637744 
L 228.937618 241.750537 
L 230.39856 240.960984 
L 231.859502 240.603805 
L 233.320444 240.622604 
L 234.781386 240.585007 
L 236.242328 239.908247 
L 237.70327 239.438275 
L 239.164211 239.457074 
L 240.625153 239.269085 
L 242.086095 238.742717 
L 243.547037 237.877969 
L 245.007979 237.840371 
L 246.468921 237.671181 
L 247.929863 237.201209 
L 249.390805 236.86283 
L 250.851747 236.712439 
L 252.312688 236.336461 
L 253.77363 235.095735 
L 255.234572 235.133333 
L 256.695514 234.776155 
L 258.156456 234.230987 
L 259.617398 234.268585 
L 261.07834 233.17825 
L 262.539282 233.065457 
L 264.000224 232.050318 
L 265.461165 232.238307 
L 266.922107 231.072776 
L 268.383049 230.978782 
L 269.843991 230.264425 
L 271.304933 230.245626 
L 272.765875 228.704118 
L 274.226817 228.591325 
L 275.687759 228.365738 
L 277.148701 227.01222 
L 278.609642 226.880627 
L 280.070584 225.602304 
L 281.531526 225.245125 
L 282.992468 224.568366 
L 284.45341 224.023199 
L 285.914352 222.763674 
L 287.375294 222.105713 
L 288.836236 221.278563 
L 290.297178 220.31982 
L 291.758119 219.436273 
L 293.219061 218.646721 
L 294.680003 217.368397 
L 296.140945 216.672839 
L 297.601887 215.187728 
L 299.062829 214.435773 
L 300.523771 212.856667 
L 301.984713 211.879126 
L 303.445655 210.375216 
L 304.906596 208.833708 
L 306.367538 207.668178 
L 307.82848 205.957481 
L 309.289422 204.021197 
L 310.750364 202.554884 
L 312.211306 200.355416 
L 313.672248 198.926702 
L 315.13319 196.294859 
L 316.594132 193.587822 
L 318.055073 191.294359 
L 319.516015 188.474528 
L 320.976957 185.034334 
L 322.437899 182.158106 
L 323.898841 177.2516 
L 325.359783 173.191043 
L 326.820725 168.472526 
L 328.281667 162.193702 
L 329.742609 154.147784 
L 331.20355 145.349911 
L 332.664492 132.435084 
L 334.125434 111.323949 
L 335.586376 52.0323 
L 337.047318 85.719883 
L 338.50826 119.839839 
L 339.969202 133.036648 
L 341.430144 142.86846 
L 342.891086 150.143624 
L 344.352027 156.084068 
L 345.812969 161.573339 
L 347.273911 165.182723 
L 348.734853 168.998894 
L 350.195795 172.175904 
L 351.656737 174.75135 
L 353.117679 178.003555 
L 354.578621 179.808247 
L 356.039563 182.139307 
L 357.500504 184.357574 
L 358.961446 185.955479 
L 360.422388 187.797768 
L 361.88333 189.452069 
L 363.344272 190.824387 
L 364.805214 192.253102 
L 366.266156 193.77581 
L 367.727098 194.960139 
L 367.727098 277.111219 
L 367.727098 277.111219 
L 366.266156 277.111219 
L 364.805214 277.111219 
L 363.344272 277.111219 
L 361.88333 277.111219 
L 360.422388 277.111219 
L 358.961446 277.111219 
L 357.500504 277.111219 
L 356.039563 277.111219 
L 354.578621 277.111219 
L 353.117679 277.111219 
L 351.656737 277.111219 
L 350.195795 277.111219 
L 348.734853 277.111219 
L 347.273911 277.111219 
L 345.812969 277.111219 
L 344.352027 277.111219 
L 342.891086 277.111219 
L 341.430144 277.111219 
L 339.969202 277.111219 
L 338.50826 277.111219 
L 337.047318 277.111219 
L 335.586376 277.111219 
L 334.125434 277.111219 
L 332.664492 277.111219 
L 331.20355 277.111219 
L 329.742609 277.111219 
L 328.281667 277.111219 
L 326.820725 277.111219 
L 325.359783 277.111219 
L 323.898841 277.111219 
L 322.437899 277.111219 
L 320.976957 277.111219 
L 319.516015 277.111219 
L 318.055073 277.111219 
L 316.594132 277.111219 
L 315.13319 277.111219 
L 313.672248 277.111219 
L 312.211306 277.111219 
L 310.750364 277.111219 
L 309.289422 277.111219 
L 307.82848 277.111219 
L 306.367538 277.111219 
L 304.906596 277.111219 
L 303.445655 277.111219 
L 301.984713 277.111219 
L 300.523771 277.111219 
L 299.062829 277.111219 
L 297.601887 277.111219 
L 296.140945 277.111219 
L 294.680003 277.111219 
L 293.219061 277.111219 
L 291.758119 277.111219 
L 290.297178 277.111219 
L 288.836236 277.111219 
L 287.375294 277.111219 
L 285.914352 277.111219 
L 284.45341 277.111219 
L 282.992468 277.111219 
L 281.531526 277.111219 
L 280.070584 277.111219 
L 278.609642 277.111219 
L 277.148701 277.111219 
L 275.687759 277.111219 
L 274.226817 277.111219 
L 272.765875 277.111219 
L 271.304933 277.111219 
L 269.843991 277.111219 
L 268.383049 277.111219 
L 266.922107 277.111219 
L 265.461165 277.111219 
L 264.000224 277.111219 
L 262.539282 277.111219 
L 261.07834 277.111219 
L 259.617398 277.111219 
L 258.156456 277.111219 
L 256.695514 277.111219 
L 255.234572 277.111219 
L 253.77363 277.111219 
L 252.312688 277.111219 
L 250.851747 277.111219 
L 249.390805 277.111219 
L 247.929863 277.111219 
L 246.468921 277.111219 
L 245.007979 277.111219 
L 243.547037 277.111219 
L 242.086095 277.111219 
L 240.625153 277.111219 
L 239.164211 277.111219 
L 237.70327 277.111219 
L 236.242328 277.111219 
L 234.781386 277.111219 
L 233.320444 277.111219 
L 231.859502 277.111219 
L 230.39856 277.111219 
L 228.937618 277.111219 
L 227.476676 277.111219 
L 226.015734 277.111219 
L 224.554793 277.111219 
L 223.093851 277.111219 
L 221.632909 277.111219 
L 220.171967 277.111219 
L 218.711025 277.111219 
L 217.250083 277.111219 
L 215.789141 277.111219 
L 214.328199 277.111219 
L 212.867257 277.111219 
L 211.406316 277.111219 
L 209.945374 277.111219 
L 208.484432 277.111219 
L 207.02349 277.111219 
L 205.562548 277.111219 
L 204.101606 277.111219 
L 202.640664 277.111219 
L 201.179722 277.111219 
L 199.71878 277.111219 
L 198.257838 277.111219 
L 196.796897 277.111219 
L 195.335955 277.111219 
L 193.875013 277.111219 
L 192.414071 277.111219 
L 190.953129 277.111219 
L 189.492187 277.111219 
L 188.031245 277.111219 
L 186.570303 277.111219 
L 185.109361 277.111219 
L 183.64842 277.111219 
L 182.187478 277.111219 
L 180.726536 277.111219 
L 179.265594 277.111219 
L 177.804652 277.111219 
L 176.34371 277.111219 
L 174.882768 277.111219 
L 173.421826 277.111219 
L 171.960884 277.111219 
L 170.499943 277.111219 
L 169.039001 277.111219 
L 167.578059 277.111219 
L 166.117117 277.111219 
L 164.656175 277.111219 
L 163.195233 277.111219 
L 161.734291 277.111219 
L 160.273349 277.111219 
L 158.812407 277.111219 
L 157.351466 277.111219 
L 155.890524 277.111219 
L 154.429582 277.111219 
L 152.96864 277.111219 
L 151.507698 277.111219 
L 150.046756 277.111219 
L 148.585814 277.111219 
L 147.124872 277.111219 
L 145.66393 277.111219 
L 144.202989 277.111219 
L 142.742047 277.111219 
L 141.281105 277.111219 
L 139.820163 277.111219 
L 138.359221 277.111219 
L 136.898279 277.111219 
L 135.437337 277.111219 
L 133.976395 277.111219 
L 132.515453 277.111219 
L 131.054512 277.111219 
L 129.59357 277.111219 
L 128.132628 277.111219 
L 126.671686 277.111219 
L 125.210744 277.111219 
L 123.749802 277.111219 
L 122.28886 277.111219 
L 120.827918 277.111219 
L 119.366976 277.111219 
L 117.906035 277.111219 
L 116.445093 277.111219 
L 114.984151 277.111219 
L 113.523209 277.111219 
L 112.062267 277.111219 
L 110.601325 277.111219 
L 109.140383 277.111219 
L 107.679441 277.111219 
L 106.218499 277.111219 
L 104.757558 277.111219 
L 103.296616 277.111219 
L 101.835674 277.111219 
L 100.374732 277.111219 
L 98.91379 277.111219 
L 97.452848 277.111219 
L 95.991906 277.111219 
L 94.530964 277.111219 
L 93.070022 277.111219 
L 91.609081 277.111219 
L 90.148139 277.111219 
L 88.687197 277.111219 
L 87.226255 277.111219 
L 85.765313 277.111219 
L 84.304371 277.111219 
L 82.843429 277.111219 
L 81.382487 277.111219 
L 79.921545 277.111219 
L 78.460604 277.111219 
L 76.999662 277.111219 
z
" clip-path="url(#p49aa222a52)" style="fill: #1f77b4; fill-opacity: 0.25"/>
   </g>
   <g id="matplotlib.axis_1">
    <g id="xtick_1">
     <g id="line2d_1">
      <path d="M 76.26858 277.111219 
L 76.26858 10.999219 
" clip-path="url(#p49aa222a52)" style="fill: none; stroke: #b0b0b0; stroke-width: 0.8; stroke-linecap: square"/>
     </g>
     <g id="line2d_2">
      <defs>
       <path id="mb10b8baede" d="M 0 0 
L 0 3.5 
" style="stroke: #000000; stroke-width: 0.8"/>
      </defs>
      <g>
       <use xlink:href="#mb10b8baede" x="76.26858" y="277.111219" style="stroke: #000000; stroke-width: 0.8"/>
      </g>
     </g>
     <g id="text_1">
      <!-- −6 -->
      <g transform="translate(68.897486 291.709656) scale(0.1 -0.1)">
       <defs>
        <path id="DejaVuSans-2212" d="M 678 2272 
L 4684 2272 
L 4684 1741 
L 678 1741 
L 678 2272 
z
" transform="scale(0.015625)"/>
        <path id="DejaVuSans-36" d="M 2113 2584 
Q 1688 2584 1439 2293 
Q 1191 2003 1191 1497 
Q 1191 994 1439 701 
Q 1688 409 2113 409 
Q 2538 409 2786 701 
Q 3034 994 3034 1497 
Q 3034 2003 2786 2293 
Q 2538 2584 2113 2584 
z
M 3366 4563 
L 3366 3988 
Q 3128 4100 2886 4159 
Q 2644 4219 2406 4219 
Q 1781 4219 1451 3797 
Q 1122 3375 1075 2522 
Q 1259 2794 1537 2939 
Q 1816 3084 2150 3084 
Q 2853 3084 3261 2657 
Q 3669 2231 3669 1497 
Q 3669 778 3244 343 
Q 2819 -91 2113 -91 
Q 1303 -91 875 529 
Q 447 1150 447 2328 
Q 447 3434 972 4092 
Q 1497 4750 2381 4750 
Q 2619 4750 2861 4703 
Q 3103 4656 3366 4563 
z
" transform="scale(0.015625)"/>
       </defs>
       <use xlink:href="#DejaVuSans-2212"/>
       <use xlink:href="#DejaVuSans-36" transform="translate(83.789062 0)"/>
      </g>
     </g>
    </g>
    <g id="xtick_2">
     <g id="line2d_3">
      <path d="M 141.199489 277.111219 
L 141.199489 10.999219 
" clip-path="url(#p49aa222a52)" style="fill: none; stroke: #b0b0b0; stroke-width: 0.8; stroke-linecap: square"/>
     </g>
     <g id="line2d_4">
      <g>
       <use xlink:href="#mb10b8baede" x="141.199489" y="277.111219" style="stroke: #000000; stroke-width: 0.8"/>
      </g>
     </g>
     <g id="text_2">
      <!-- −4 -->
      <g transform="translate(133.828395 291.709656) scale(0.1 -0.1)">
       <defs>
        <path id="DejaVuSans-34" d="M 2419 4116 
L 825 1625 
L 2419 1625 
L 2419 4116 
z
M 2253 4666 
L 3047 4666 
L 3047 1625 
L 3713 1625 
L 3713 1100 
L 3047 1100 
L 3047 0 
L 2419 0 
L 2419 1100 
L 313 1100 
L 313 1709 
L 2253 4666 
z
" transform="scale(0.015625)"/>
       </defs>
       <use xlink:href="#DejaVuSans-2212"/>
       <use xlink:href="#DejaVuSans-34" transform="translate(83.789062 0)"/>
      </g>
     </g>
    </g>
    <g id="xtick_3">
     <g id="line2d_5">
      <path d="M 206.130398 277.111219 
L 206.130398 10.999219 
" clip-path="url(#p49aa222a52)" style="fill: none; stroke: #b0b0b0; stroke-width: 0.8; stroke-linecap: square"/>
     </g>
     <g id="line2d_6">
      <g>
       <use xlink:href="#mb10b8baede" x="206.130398" y="277.111219" style="stroke: #000000; stroke-width: 0.8"/>
      </g>
     </g>
     <g id="text_3">
      <!-- −2 -->
      <g transform="translate(198.759304 291.709656) scale(0.1 -0.1)">
       <defs>
        <path id="DejaVuSans-32" d="M 1228 531 
L 3431 531 
L 3431 0 
L 469 0 
L 469 531 
Q 828 903 1448 1529 
Q 2069 2156 2228 2338 
Q 2531 2678 2651 2914 
Q 2772 3150 2772 3378 
Q 2772 3750 2511 3984 
Q 2250 4219 1831 4219 
Q 1534 4219 1204 4116 
Q 875 4013 500 3803 
L 500 4441 
Q 881 4594 1212 4672 
Q 1544 4750 1819 4750 
Q 2544 4750 2975 4387 
Q 3406 4025 3406 3419 
Q 3406 3131 3298 2873 
Q 3191 2616 2906 2266 
Q 2828 2175 2409 1742 
Q 1991 1309 1228 531 
z
" transform="scale(0.015625)"/>
       </defs>
       <use xlink:href="#DejaVuSans-2212"/>
       <use xlink:href="#DejaVuSans-32" transform="translate(83.789062 0)"/>
      </g>
     </g>
    </g>
    <g id="xtick_4">
     <g id="line2d_7">
      <path d="M 271.061307 277.111219 
L 271.061307 10.999219 
" clip-path="url(#p49aa222a52)" style="fill: none; stroke: #b0b0b0; stroke-width: 0.8; stroke-linecap: square"/>
     </g>
     <g id="line2d_8">
      <g>
       <use xlink:href="#mb10b8baede" x="271.061307" y="277.111219" style="stroke: #000000; stroke-width: 0.8"/>
      </g>
     </g>
     <g id="text_4">
      <!-- 0 -->
      <g transform="translate(267.880057 291.709656) scale(0.1 -0.1)">
       <defs>
        <path id="DejaVuSans-30" d="M 2034 4250 
Q 1547 4250 1301 3770 
Q 1056 3291 1056 2328 
Q 1056 1369 1301 889 
Q 1547 409 2034 409 
Q 2525 409 2770 889 
Q 3016 1369 3016 2328 
Q 3016 3291 2770 3770 
Q 2525 4250 2034 4250 
z
M 2034 4750 
Q 2819 4750 3233 4129 
Q 3647 3509 3647 2328 
Q 3647 1150 3233 529 
Q 2819 -91 2034 -91 
Q 1250 -91 836 529 
Q 422 1150 422 2328 
Q 422 3509 836 4129 
Q 1250 4750 2034 4750 
z
" transform="scale(0.015625)"/>
       </defs>
       <use xlink:href="#DejaVuSans-30"/>
      </g>
     </g>
    </g>
    <g id="xtick_5">
     <g id="line2d_9">
      <path d="M 335.992216 277.111219 
L 335.992216 10.999219 
" clip-path="url(#p49aa222a52)" style="fill: none; stroke: #b0b0b0; stroke-width: 0.8; stroke-linecap: square"/>
     </g>
     <g id="line2d_10">
      <g>
       <use xlink:href="#mb10b8baede" x="335.992216" y="277.111219" style="stroke: #000000; stroke-width: 0.8"/>
      </g>
     </g>
     <g id="text_5">
      <!-- 2 -->
      <g transform="translate(332.810966 291.709656) scale(0.1 -0.1)">
       <use xlink:href="#DejaVuSans-32"/>
      </g>
     </g>
    </g>
    <g id="xtick_6">
     <g id="line2d_11">
      <path d="M 400.923125 277.111219 
L 400.923125 10.999219 
" clip-path="url(#p49aa222a52)" style="fill: none; stroke: #b0b0b0; stroke-width: 0.8; stroke-linecap: square"/>
     </g>
     <g id="line2d_12">
      <g>
       <use xlink:href="#mb10b8baede" x="400.923125" y="277.111219" style="stroke: #000000; stroke-width: 0.8"/>
      </g>
     </g>
     <g id="text_6">
      <!-- 4 -->
      <g transform="translate(397.741875 291.709656) scale(0.1 -0.1)">
       <use xlink:href="#DejaVuSans-34"/>
      </g>
     </g>
    </g>
    <g id="text_7">
     <!-- Energy $\varepsilon$ -->
     <g transform="translate(200.463125 305.367469) scale(0.1 -0.1)">
      <defs>
       <path id="DejaVuSans-45" d="M 628 4666 
L 3578 4666 
L 3578 4134 
L 1259 4134 
L 1259 2753 
L 3481 2753 
L 3481 2222 
L 1259 2222 
L 1259 531 
L 3634 531 
L 3634 0 
L 628 0 
L 628 4666 
z
" transform="scale(0.015625)"/>
       <path id="DejaVuSans-6e" d="M 3513 2113 
L 3513 0 
L 2938 0 
L 2938 2094 
Q 2938 2591 2744 2837 
Q 2550 3084 2163 3084 
Q 1697 3084 1428 2787 
Q 1159 2491 1159 1978 
L 1159 0 
L 581 0 
L 581 3500 
L 1159 3500 
L 1159 2956 
Q 1366 3272 1645 3428 
Q 1925 3584 2291 3584 
Q 2894 3584 3203 3211 
Q 3513 2838 3513 2113 
z
" transform="scale(0.015625)"/>
       <path id="DejaVuSans-65" d="M 3597 1894 
L 3597 1613 
L 953 1613 
Q 991 1019 1311 708 
Q 1631 397 2203 397 
Q 2534 397 2845 478 
Q 3156 559 3463 722 
L 3463 178 
Q 3153 47 2828 -22 
Q 2503 -91 2169 -91 
Q 1331 -91 842 396 
Q 353 884 353 1716 
Q 353 2575 817 3079 
Q 1281 3584 2069 3584 
Q 2775 3584 3186 3129 
Q 3597 2675 3597 1894 
z
M 3022 2063 
Q 3016 2534 2758 2815 
Q 2500 3097 2075 3097 
Q 1594 3097 1305 2825 
Q 1016 2553 972 2059 
L 3022 2063 
z
" transform="scale(0.015625)"/>
       <path id="DejaVuSans-72" d="M 2631 2963 
Q 2534 3019 2420 3045 
Q 2306 3072 2169 3072 
Q 1681 3072 1420 2755 
Q 1159 2438 1159 1844 
L 1159 0 
L 581 0 
L 581 3500 
L 1159 3500 
L 1159 2956 
Q 1341 3275 1631 3429 
Q 1922 3584 2338 3584 
Q 2397 3584 2469 3576 
Q 2541 3569 2628 3553 
L 2631 2963 
z
" transform="scale(0.015625)"/>
       <path id="DejaVuSans-67" d="M 2906 1791 
Q 2906 2416 2648 2759 
Q 2391 3103 1925 3103 
Q 1463 3103 1205 2759 
Q 947 2416 947 1791 
Q 947 1169 1205 825 
Q 1463 481 1925 481 
Q 2391 481 2648 825 
Q 2906 1169 2906 1791 
z
M 3481 434 
Q 3481 -459 3084 -895 
Q 2688 -1331 1869 -1331 
Q 1566 -1331 1297 -1286 
Q 1028 -1241 775 -1147 
L 775 -588 
Q 1028 -725 1275 -790 
Q 1522 -856 1778 -856 
Q 2344 -856 2625 -561 
Q 2906 -266 2906 331 
L 2906 616 
Q 2728 306 2450 153 
Q 2172 0 1784 0 
Q 1141 0 747 490 
Q 353 981 353 1791 
Q 353 2603 747 3093 
Q 1141 3584 1784 3584 
Q 2172 3584 2450 3431 
Q 2728 3278 2906 2969 
L 2906 3500 
L 3481 3500 
L 3481 434 
z
" transform="scale(0.015625)"/>
       <path id="DejaVuSans-79" d="M 2059 -325 
Q 1816 -950 1584 -1140 
Q 1353 -1331 966 -1331 
L 506 -1331 
L 506 -850 
L 844 -850 
Q 1081 -850 1212 -737 
Q 1344 -625 1503 -206 
L 1606 56 
L 191 3500 
L 800 3500 
L 1894 763 
L 2988 3500 
L 3597 3500 
L 2059 -325 
z
" transform="scale(0.015625)"/>
       <path id="DejaVuSans-20" transform="scale(0.015625)"/>
       <path id="DejaVuSans-Oblique-3b5" d="M 1263 1888 
Q 925 1963 778 2166 
Q 669 2309 669 2503 
Q 669 3034 1175 3344 
Q 1575 3588 2188 3588 
Q 2425 3588 2684 3550 
Q 2944 3513 3234 3438 
L 3134 2916 
Q 2847 3006 2606 3047 
Q 2359 3088 2138 3088 
Q 1766 3088 1522 2944 
Q 1228 2772 1228 2522 
Q 1228 2356 1381 2241 
Q 1563 2103 1925 2103 
L 2409 2103 
L 2319 1628 
L 1856 1628 
Q 1425 1628 1172 1469 
Q 828 1253 828 916 
Q 828 703 1013 563 
Q 1244 388 1716 388 
Q 2006 388 2284 444 
Q 2563 503 2806 619 
L 2700 84 
Q 2403 -3 2131 -47 
Q 1859 -91 1609 -91 
Q 866 -91 516 194 
Q 250 413 250 781 
Q 250 1278 600 1584 
Q 859 1813 1263 1888 
z
" transform="scale(0.015625)"/>
      </defs>
      <use xlink:href="#DejaVuSans-45" transform="translate(0 0.09375)"/>
      <use xlink:href="#DejaVuSans-6e" transform="translate(63.183594 0.09375)"/>
      <use xlink:href="#DejaVuSans-65" transform="translate(126.5625 0.09375)"/>
      <use xlink:href="#DejaVuSans-72" transform="translate(188.085938 0.09375)"/>
      <use xlink:href="#DejaVuSans-67" transform="translate(229.199219 0.09375)"/>
      <use xlink:href="#DejaVuSans-79" transform="translate(292.675781 0.09375)"/>
      <use xlink:href="#DejaVuSans-20" transform="translate(351.855469 0.09375)"/>
      <use xlink:href="#DejaVuSans-Oblique-3b5" transform="translate(383.642578 0.09375)"/>
     </g>
    </g>
   </g>
   <g id="matplotlib.axis_2">
    <g id="ytick_1">
     <g id="line2d_13">
      <path d="M 43.803125 277.111219 
L 400.923125 277.111219 
" clip-path="url(#p49aa222a52)" style="fill: none; stroke: #b0b0b0; stroke-width: 0.8; stroke-linecap: square"/>
     </g>
     <g id="line2d_14">
      <defs>
       <path id="ma5febedae7" d="M 0 0 
L -3.5 0 
" style="stroke: #000000; stroke-width: 0.8"/>
      </defs>
      <g>
       <use xlink:href="#ma5febedae7" x="43.803125" y="277.111219" style="stroke: #000000; stroke-width: 0.8"/>
      </g>
     </g>
     <g id="text_8">
      <!-- 0.0 -->
      <g transform="translate(20.9 280.910438) scale(0.1 -0.1)">
       <defs>
        <path id="DejaVuSans-2e" d="M 684 794 
L 1344 794 
L 1344 0 
L 684 0 
L 684 794 
z
" transform="scale(0.015625)"/>
       </defs>
       <use xlink:href="#DejaVuSans-30"/>
       <use xlink:href="#DejaVuSans-2e" transform="translate(63.623047 0)"/>
       <use xlink:href="#DejaVuSans-30" transform="translate(95.410156 0)"/>
      </g>
     </g>
    </g>
    <g id="ytick_2">
     <g id="line2d_15">
      <path d="M 43.803125 232.759219 
L 400.923125 232.759219 
" clip-path="url(#p49aa222a52)" style="fill: none; stroke: #b0b0b0; stroke-width: 0.8; stroke-linecap: square"/>
     </g>
     <g id="line2d_16">
      <g>
       <use xlink:href="#ma5febedae7" x="43.803125" y="232.759219" style="stroke: #000000; stroke-width: 0.8"/>
      </g>
     </g>
     <g id="text_9">
      <!-- 0.1 -->
      <g transform="translate(20.9 236.558437) scale(0.1 -0.1)">
       <defs>
        <path id="DejaVuSans-31" d="M 794 531 
L 1825 531 
L 1825 4091 
L 703 3866 
L 703 4441 
L 1819 4666 
L 2450 4666 
L 2450 531 
L 3481 531 
L 3481 0 
L 794 0 
L 794 531 
z
" transform="scale(0.015625)"/>
       </defs>
       <use xlink:href="#DejaVuSans-30"/>
       <use xlink:href="#DejaVuSans-2e" transform="translate(63.623047 0)"/>
       <use xlink:href="#DejaVuSans-31" transform="translate(95.410156 0)"/>
      </g>
     </g>
    </g>
    <g id="ytick_3">
     <g id="line2d_17">
      <path d="M 43.803125 188.407219 
L 400.923125 188.407219 
" clip-path="url(#p49aa222a52)" style="fill: none; stroke: #b0b0b0; stroke-width: 0.8; stroke-linecap: square"/>
     </g>
     <g id="line2d_18">
      <g>
       <use xlink:href="#ma5febedae7" x="43.803125" y="188.407219" style="stroke: #000000; stroke-width: 0.8"/>
      </g>
     </g>
     <g id="text_10">
      <!-- 0.2 -->
      <g transform="translate(20.9 192.206437) scale(0.1 -0.1)">
       <use xlink:href="#DejaVuSans-30"/>
       <use xlink:href="#DejaVuSans-2e" transform="translate(63.623047 0)"/>
       <use xlink:href="#DejaVuSans-32" transform="translate(95.410156 0)"/>
      </g>
     </g>
    </g>
    <g id="ytick_4">
     <g id="line2d_19">
      <path d="M 43.803125 144.055219 
L 400.923125 144.055219 
" clip-path="url(#p49aa222a52)" style="fill: none; stroke: #b0b0b0; stroke-width: 0.8; stroke-linecap: square"/>
     </g>
     <g id="line2d_20">
      <g>
       <use xlink:href="#ma5febedae7" x="43.803125" y="144.055219" style="stroke: #000000; stroke-width: 0.8"/>
      </g>
     </g>
     <g id="text_11">
      <!-- 0.3 -->
      <g transform="translate(20.9 147.854437) scale(0.1 -0.1)">
       <defs>
        <path id="DejaVuSans-33" d="M 2597 2516 
Q 3050 2419 3304 2112 
Q 3559 1806 3559 1356 
Q 3559 666 3084 287 
Q 2609 -91 1734 -91 
Q 1441 -91 1130 -33 
Q 819 25 488 141 
L 488 750 
Q 750 597 1062 519 
Q 1375 441 1716 441 
Q 2309 441 2620 675 
Q 2931 909 2931 1356 
Q 2931 1769 2642 2001 
Q 2353 2234 1838 2234 
L 1294 2234 
L 1294 2753 
L 1863 2753 
Q 2328 2753 2575 2939 
Q 2822 3125 2822 3475 
Q 2822 3834 2567 4026 
Q 2313 4219 1838 4219 
Q 1578 4219 1281 4162 
Q 984 4106 628 3988 
L 628 4550 
Q 988 4650 1302 4700 
Q 1616 4750 1894 4750 
Q 2613 4750 3031 4423 
Q 3450 4097 3450 3541 
Q 3450 3153 3228 2886 
Q 3006 2619 2597 2516 
z
" transform="scale(0.015625)"/>
       </defs>
       <use xlink:href="#DejaVuSans-30"/>
       <use xlink:href="#DejaVuSans-2e" transform="translate(63.623047 0)"/>
       <use xlink:href="#DejaVuSans-33" transform="translate(95.410156 0)"/>
      </g>
     </g>
    </g>
    <g id="ytick_5">
     <g id="line2d_21">
      <path d="M 43.803125 99.703219 
L 400.923125 99.703219 
" clip-path="url(#p49aa222a52)" style="fill: none; stroke: #b0b0b0; stroke-width: 0.8; stroke-linecap: square"/>
     </g>
     <g id="line2d_22">
      <g>
       <use xlink:href="#ma5febedae7" x="43.803125" y="99.703219" style="stroke: #000000; stroke-width: 0.8"/>
      </g>
     </g>
     <g id="text_12">
      <!-- 0.4 -->
      <g transform="translate(20.9 103.502437) scale(0.1 -0.1)">
       <use xlink:href="#DejaVuSans-30"/>
       <use xlink:href="#DejaVuSans-2e" transform="translate(63.623047 0)"/>
       <use xlink:href="#DejaVuSans-34" transform="translate(95.410156 0)"/>
      </g>
     </g>
    </g>
    <g id="ytick_6">
     <g id="line2d_23">
      <path d="M 43.803125 55.351219 
L 400.923125 55.351219 
" clip-path="url(#p49aa222a52)" style="fill: none; stroke: #b0b0b0; stroke-width: 0.8; stroke-linecap: square"/>
     </g>
     <g id="line2d_24">
      <g>
       <use xlink:href="#ma5febedae7" x="43.803125" y="55.351219" style="stroke: #000000; stroke-width: 0.8"/>
      </g>
     </g>
     <g id="text_13">
      <!-- 0.5 -->
      <g transform="translate(20.9 59.150438) scale(0.1 -0.1)">
       <defs>
        <path id="DejaVuSans-35" d="M 691 4666 
L 3169 4666 
L 3169 4134 
L 1269 4134 
L 1269 2991 
Q 1406 3038 1543 3061 
Q 1681 3084 1819 3084 
Q 2600 3084 3056 2656 
Q 3513 2228 3513 1497 
Q 3513 744 3044 326 
Q 2575 -91 1722 -91 
Q 1428 -91 1123 -41 
Q 819 9 494 109 
L 494 744 
Q 775 591 1075 516 
Q 1375 441 1709 441 
Q 2250 441 2565 725 
Q 2881 1009 2881 1497 
Q 2881 1984 2565 2268 
Q 2250 2553 1709 2553 
Q 1456 2553 1204 2497 
Q 953 2441 691 2322 
L 691 4666 
z
" transform="scale(0.015625)"/>
       </defs>
       <use xlink:href="#DejaVuSans-30"/>
       <use xlink:href="#DejaVuSans-2e" transform="translate(63.623047 0)"/>
       <use xlink:href="#DejaVuSans-35" transform="translate(95.410156 0)"/>
      </g>
     </g>
    </g>
    <g id="ytick_7">
     <g id="line2d_25">
      <path d="M 43.803125 10.999219 
L 400.923125 10.999219 
" clip-path="url(#p49aa222a52)" style="fill: none; stroke: #b0b0b0; stroke-width: 0.8; stroke-linecap: square"/>
     </g>
     <g id="line2d_26">
      <g>
       <use xlink:href="#ma5febedae7" x="43.803125" y="10.999219" style="stroke: #000000; stroke-width: 0.8"/>
      </g>
     </g>
     <g id="text_14">
      <!-- 0.6 -->
      <g transform="translate(20.9 14.798437) scale(0.1 -0.1)">
       <use xlink:href="#DejaVuSans-30"/>
       <use xlink:href="#DejaVuSans-2e" transform="translate(63.623047 0)"/>
       <use xlink:href="#DejaVuSans-36" transform="translate(95.410156 0)"/>
      </g>
     </g>
    </g>
    <g id="text_15">
     <!-- Density of states $\rho(\varepsilon)$ -->
     <g transform="translate(14.8 197.705219) rotate(-90) scale(0.1 -0.1)">
      <defs>
       <path id="DejaVuSans-44" d="M 1259 4147 
L 1259 519 
L 2022 519 
Q 2988 519 3436 956 
Q 3884 1394 3884 2338 
Q 3884 3275 3436 3711 
Q 2988 4147 2022 4147 
L 1259 4147 
z
M 628 4666 
L 1925 4666 
Q 3281 4666 3915 4102 
Q 4550 3538 4550 2338 
Q 4550 1131 3912 565 
Q 3275 0 1925 0 
L 628 0 
L 628 4666 
z
" transform="scale(0.015625)"/>
       <path id="DejaVuSans-73" d="M 2834 3397 
L 2834 2853 
Q 2591 2978 2328 3040 
Q 2066 3103 1784 3103 
Q 1356 3103 1142 2972 
Q 928 2841 928 2578 
Q 928 2378 1081 2264 
Q 1234 2150 1697 2047 
L 1894 2003 
Q 2506 1872 2764 1633 
Q 3022 1394 3022 966 
Q 3022 478 2636 193 
Q 2250 -91 1575 -91 
Q 1294 -91 989 -36 
Q 684 19 347 128 
L 347 722 
Q 666 556 975 473 
Q 1284 391 1588 391 
Q 1994 391 2212 530 
Q 2431 669 2431 922 
Q 2431 1156 2273 1281 
Q 2116 1406 1581 1522 
L 1381 1569 
Q 847 1681 609 1914 
Q 372 2147 372 2553 
Q 372 3047 722 3315 
Q 1072 3584 1716 3584 
Q 2034 3584 2315 3537 
Q 2597 3491 2834 3397 
z
" transform="scale(0.015625)"/>
       <path id="DejaVuSans-69" d="M 603 3500 
L 1178 3500 
L 1178 0 
L 603 0 
L 603 3500 
z
M 603 4863 
L 1178 4863 
L 1178 4134 
L 603 4134 
L 603 4863 
z
" transform="scale(0.015625)"/>
       <path id="DejaVuSans-74" d="M 1172 4494 
L 1172 3500 
L 2356 3500 
L 2356 3053 
L 1172 3053 
L 1172 1153 
Q 1172 725 1289 603 
Q 1406 481 1766 481 
L 2356 481 
L 2356 0 
L 1766 0 
Q 1100 0 847 248 
Q 594 497 594 1153 
L 594 3053 
L 172 3053 
L 172 3500 
L 594 3500 
L 594 4494 
L 1172 4494 
z
" transform="scale(0.015625)"/>
       <path id="DejaVuSans-6f" d="M 1959 3097 
Q 1497 3097 1228 2736 
Q 959 2375 959 1747 
Q 959 1119 1226 758 
Q 1494 397 1959 397 
Q 2419 397 2687 759 
Q 2956 1122 2956 1747 
Q 2956 2369 2687 2733 
Q 2419 3097 1959 3097 
z
M 1959 3584 
Q 2709 3584 3137 3096 
Q 3566 2609 3566 1747 
Q 3566 888 3137 398 
Q 2709 -91 1959 -91 
Q 1206 -91 779 398 
Q 353 888 353 1747 
Q 353 2609 779 3096 
Q 1206 3584 1959 3584 
z
" transform="scale(0.015625)"/>
       <path id="DejaVuSans-66" d="M 2375 4863 
L 2375 4384 
L 1825 4384 
Q 1516 4384 1395 4259 
Q 1275 4134 1275 3809 
L 1275 3500 
L 2222 3500 
L 2222 3053 
L 1275 3053 
L 1275 0 
L 697 0 
L 697 3053 
L 147 3053 
L 147 3500 
L 697 3500 
L 697 3744 
Q 697 4328 969 4595 
Q 1241 4863 1831 4863 
L 2375 4863 
z
" transform="scale(0.015625)"/>
       <path id="DejaVuSans-61" d="M 2194 1759 
Q 1497 1759 1228 1600 
Q 959 1441 959 1056 
Q 959 750 1161 570 
Q 1363 391 1709 391 
Q 2188 391 2477 730 
Q 2766 1069 2766 1631 
L 2766 1759 
L 2194 1759 
z
M 3341 1997 
L 3341 0 
L 2766 0 
L 2766 531 
Q 2569 213 2275 61 
Q 1981 -91 1556 -91 
Q 1019 -91 701 211 
Q 384 513 384 1019 
Q 384 1609 779 1909 
Q 1175 2209 1959 2209 
L 2766 2209 
L 2766 2266 
Q 2766 2663 2505 2880 
Q 2244 3097 1772 3097 
Q 1472 3097 1187 3025 
Q 903 2953 641 2809 
L 641 3341 
Q 956 3463 1253 3523 
Q 1550 3584 1831 3584 
Q 2591 3584 2966 3190 
Q 3341 2797 3341 1997 
z
" transform="scale(0.015625)"/>
       <path id="DejaVuSans-Oblique-3c1" d="M 1203 2875 
Q 1453 3194 1981 3475 
Q 2188 3584 2756 3584 
Q 3394 3584 3694 3078 
Q 3994 2572 3834 1747 
Q 3672 922 3175 415 
Q 2678 -91 2041 -91 
Q 1656 -91 1409 63 
Q 1163 213 1044 525 
L 681 -1331 
L 103 -1331 
L 697 1716 
Q 838 2438 1203 2875 
z
M 3238 1747 
Q 3359 2381 3169 2744 
Q 2978 3103 2522 3103 
Q 2066 3103 1734 2744 
Q 1403 2381 1281 1747 
Q 1156 1113 1347 750 
Q 1538 391 1994 391 
Q 2450 391 2781 750 
Q 3113 1113 3238 1747 
z
" transform="scale(0.015625)"/>
       <path id="DejaVuSans-28" d="M 1984 4856 
Q 1566 4138 1362 3434 
Q 1159 2731 1159 2009 
Q 1159 1288 1364 580 
Q 1569 -128 1984 -844 
L 1484 -844 
Q 1016 -109 783 600 
Q 550 1309 550 2009 
Q 550 2706 781 3412 
Q 1013 4119 1484 4856 
L 1984 4856 
z
" transform="scale(0.015625)"/>
       <path id="DejaVuSans-29" d="M 513 4856 
L 1013 4856 
Q 1481 4119 1714 3412 
Q 1947 2706 1947 2009 
Q 1947 1309 1714 600 
Q 1481 -109 1013 -844 
L 513 -844 
Q 928 -128 1133 580 
Q 1338 1288 1338 2009 
Q 1338 2731 1133 3434 
Q 928 4138 513 4856 
z
" transform="scale(0.015625)"/>
      </defs>
      <use xlink:href="#DejaVuSans-44" transform="translate(0 0.015625)"/>
      <use xlink:href="#DejaVuSans-65" transform="translate(77.001953 0.015625)"/>
      <use xlink:href="#DejaVuSans-6e" transform="translate(138.525391 0.015625)"/>
      <use xlink:href="#DejaVuSans-73" transform="translate(201.904297 0.015625)"/>
      <use xlink:href="#DejaVuSans-69" transform="translate(254.003906 0.015625)"/>
      <use xlink:href="#DejaVuSans-74" transform="translate(281.787109 0.015625)"/>
      <use xlink:href="#DejaVuSans-79" transform="translate(320.996094 0.015625)"/>
      <use xlink:href="#DejaVuSans-20" transform="translate(380.175781 0.015625)"/>
      <use xlink:href="#DejaVuSans-6f" transform="translate(411.962891 0.015625)"/>
      <use xlink:href="#DejaVuSans-66" transform="translate(473.144531 0.015625)"/>
      <use xlink:href="#DejaVuSans-20" transform="translate(508.349609 0.015625)"/>
      <use xlink:href="#DejaVuSans-73" transform="translate(540.136719 0.015625)"/>
      <use xlink:href="#DejaVuSans-74" transform="translate(592.236328 0.015625)"/>
      <use xlink:href="#DejaVuSans-61" transform="translate(631.445312 0.015625)"/>
      <use xlink:href="#DejaVuSans-74" transform="translate(692.724609 0.015625)"/>
      <use xlink:href="#DejaVuSans-65" transform="translate(731.933594 0.015625)"/>
      <use xlink:href="#DejaVuSans-73" transform="translate(793.457031 0.015625)"/>
      <use xlink:href="#DejaVuSans-20" transform="translate(845.556641 0.015625)"/>
      <use xlink:href="#DejaVuSans-Oblique-3c1" transform="translate(877.34375 0.015625)"/>
      <use xlink:href="#DejaVuSans-28" transform="translate(940.820312 0.015625)"/>
      <use xlink:href="#DejaVuSans-Oblique-3b5" transform="translate(979.833984 0.015625)"/>
      <use xlink:href="#DejaVuSans-29" transform="translate(1033.886719 0.015625)"/>
     </g>
    </g>
   </g>
   <g id="line2d_27">
    <path d="M 335.992216 277.111219 
L 335.992216 10.999219 
" clip-path="url(#p49aa222a52)" style="fill: none; stroke-dasharray: 7.4,3.2; stroke-dashoffset: 0; stroke: #000000; stroke-width: 2"/>
   </g>
   <g id="line2d_28">
    <path d="M 76.999662 256.695642 
L 78.460604 256.639245 
L 79.921545 256.432457 
L 82.843429 256.507653 
L 85.765313 256.169273 
L 87.226255 256.300865 
L 90.148139 255.830893 
L 91.609081 255.943687 
L 93.070022 255.7181 
L 94.530964 255.680502 
L 95.991906 255.755698 
L 100.374732 255.323324 
L 101.835674 255.454916 
L 103.296616 255.135335 
L 104.757558 254.947346 
L 107.679441 255.06014 
L 109.140383 254.966145 
L 110.601325 254.496173 
L 113.523209 254.608967 
L 114.984151 254.420978 
L 116.445093 254.458576 
L 119.366976 254.138995 
L 120.827918 253.894609 
L 123.749802 253.951006 
L 125.210744 253.687822 
L 126.671686 253.593827 
L 128.132628 253.38704 
L 129.59357 253.518632 
L 131.054512 253.349442 
L 132.515453 253.311844 
L 133.976395 252.954666 
L 135.437337 253.067459 
L 136.898279 252.766677 
L 138.359221 252.87947 
L 139.820163 252.503493 
L 141.281105 252.503493 
L 142.742047 252.202711 
L 145.66393 252.240308 
L 147.124872 251.977124 
L 148.585814 251.977124 
L 150.046756 251.71394 
L 157.351466 251.149974 
L 158.812407 251.225169 
L 160.273349 250.473214 
L 161.734291 250.623605 
L 163.195233 250.529611 
L 164.656175 250.623605 
L 166.117117 250.059639 
L 167.578059 250.022041 
L 169.039001 250.21003 
L 170.499943 249.758857 
L 171.960884 249.608466 
L 173.421826 249.740058 
L 174.882768 249.006902 
L 176.34371 249.420477 
L 177.804652 248.931707 
L 179.265594 248.762517 
L 180.726536 248.70612 
L 182.187478 248.856511 
L 183.64842 248.142154 
L 189.492187 247.690981 
L 190.953129 247.239808 
L 192.414071 247.390199 
L 193.875013 247.352601 
L 195.335955 246.807434 
L 199.71878 246.149473 
L 201.179722 246.487853 
L 202.640664 245.773496 
L 204.101606 245.679501 
L 207.02349 245.134334 
L 208.484432 245.171932 
L 209.945374 244.795954 
L 211.406316 244.833552 
L 214.328199 243.780815 
L 215.789141 243.743217 
L 217.250083 243.555229 
L 218.711025 243.668022 
L 220.171967 243.104056 
L 224.554793 242.239307 
L 226.015734 242.389698 
L 227.476676 241.637744 
L 228.937618 241.750537 
L 230.39856 240.960984 
L 231.859502 240.603805 
L 234.781386 240.585007 
L 236.242328 239.908247 
L 237.70327 239.438275 
L 239.164211 239.457074 
L 240.625153 239.269085 
L 242.086095 238.742717 
L 243.547037 237.877969 
L 245.007979 237.840371 
L 246.468921 237.671181 
L 247.929863 237.201209 
L 249.390805 236.86283 
L 250.851747 236.712439 
L 252.312688 236.336461 
L 253.77363 235.095735 
L 255.234572 235.133333 
L 256.695514 234.776155 
L 258.156456 234.230987 
L 259.617398 234.268585 
L 261.07834 233.17825 
L 262.539282 233.065457 
L 264.000224 232.050318 
L 265.461165 232.238307 
L 266.922107 231.072776 
L 268.383049 230.978782 
L 269.843991 230.264425 
L 271.304933 230.245626 
L 272.765875 228.704118 
L 274.226817 228.591325 
L 275.687759 228.365738 
L 277.148701 227.01222 
L 278.609642 226.880627 
L 280.070584 225.602304 
L 281.531526 225.245125 
L 282.992468 224.568366 
L 284.45341 224.023199 
L 285.914352 222.763674 
L 287.375294 222.105713 
L 288.836236 221.278563 
L 291.758119 219.436273 
L 293.219061 218.646721 
L 294.680003 217.368397 
L 296.140945 216.672839 
L 297.601887 215.187728 
L 299.062829 214.435773 
L 300.523771 212.856667 
L 301.984713 211.879126 
L 304.906596 208.833708 
L 306.367538 207.668178 
L 307.82848 205.957481 
L 309.289422 204.021197 
L 310.750364 202.554884 
L 312.211306 200.355416 
L 313.672248 198.926702 
L 316.594132 193.587822 
L 318.055073 191.294359 
L 319.516015 188.474528 
L 320.976957 185.034334 
L 322.437899 182.158106 
L 323.898841 177.2516 
L 325.359783 173.191043 
L 326.820725 168.472526 
L 328.281667 162.193702 
L 329.742609 154.147784 
L 331.20355 145.349911 
L 332.664492 132.435084 
L 334.125434 111.323949 
L 335.586376 52.0323 
L 338.50826 119.839839 
L 339.969202 133.036648 
L 341.430144 142.86846 
L 342.891086 150.143624 
L 345.812969 161.573339 
L 350.195795 172.175904 
L 351.656737 174.75135 
L 353.117679 178.003555 
L 354.578621 179.808247 
L 357.500504 184.357574 
L 358.961446 185.955479 
L 360.422388 187.797768 
L 361.88333 189.452069 
L 364.805214 192.253102 
L 366.266156 193.77581 
L 367.727098 194.960139 
L 367.727098 194.960139 
" clip-path="url(#p49aa222a52)" style="fill: none; stroke: #1f77b4; stroke-width: 2; stroke-linecap: square"/>
   </g>
   <g id="patch_3">
    <path d="M 43.803125 277.111219 
L 43.803125 10.999219 
" style="fill: none; stroke: #000000; stroke-width: 0.8; stroke-linejoin: miter; stroke-linecap: square"/>
   </g>
   <g id="patch_4">
    <path d="M 400.923125 277.111219 
L 400.923125 10.999219 
" style="fill: none; stroke: #000000; stroke-width: 0.8; stroke-linejoin: miter; stroke-linecap: square"/>
   </g>
   <g id="patch_5">
    <path d="M 43.803125 277.111219 
L 400.923125 277.111219 
" style="fill: none; stroke: #000000; stroke-width: 0.8; stroke-linejoin: miter; stroke-linecap: square"/>
   </g>
   <g id="patch_6">
    <path d="M 43.803125 10.999219 
L 400.923125 10.999219 
" style="fill: none; stroke: #000000; stroke-width: 0.8; stroke-linejoin: miter; stroke-linecap: square"/>
   </g>
   <g id="legend_1">
    <g id="patch_7">
     <path d="M 50.803125 33.699219 
L 186.403125 33.699219 
Q 188.403125 33.699219 188.403125 31.699219 
L 188.403125 17.999219 
Q 188.403125 15.999219 186.403125 15.999219 
L 50.803125 15.999219 
Q 48.803125 15.999219 48.803125 17.999219 
L 48.803125 31.699219 
Q 48.803125 33.699219 50.803125 33.699219 
z
" style="fill: #ffffff; opacity: 0.8; stroke: #cccccc; stroke-linejoin: miter"/>
    </g>
    <g id="line2d_29">
     <path d="M 52.803125 24.099219 
L 62.803125 24.099219 
L 72.803125 24.099219 
" style="fill: none; stroke-dasharray: 7.4,3.2; stroke-dashoffset: 0; stroke: #000000; stroke-width: 2"/>
    </g>
    <g id="text_16">
     <!-- Chemical potential $\mu$ -->
     <g transform="translate(80.803125 27.599219) scale(0.1 -0.1)">
      <defs>
       <path id="DejaVuSans-43" d="M 4122 4306 
L 4122 3641 
Q 3803 3938 3442 4084 
Q 3081 4231 2675 4231 
Q 1875 4231 1450 3742 
Q 1025 3253 1025 2328 
Q 1025 1406 1450 917 
Q 1875 428 2675 428 
Q 3081 428 3442 575 
Q 3803 722 4122 1019 
L 4122 359 
Q 3791 134 3420 21 
Q 3050 -91 2638 -91 
Q 1578 -91 968 557 
Q 359 1206 359 2328 
Q 359 3453 968 4101 
Q 1578 4750 2638 4750 
Q 3056 4750 3426 4639 
Q 3797 4528 4122 4306 
z
" transform="scale(0.015625)"/>
       <path id="DejaVuSans-68" d="M 3513 2113 
L 3513 0 
L 2938 0 
L 2938 2094 
Q 2938 2591 2744 2837 
Q 2550 3084 2163 3084 
Q 1697 3084 1428 2787 
Q 1159 2491 1159 1978 
L 1159 0 
L 581 0 
L 581 4863 
L 1159 4863 
L 1159 2956 
Q 1366 3272 1645 3428 
Q 1925 3584 2291 3584 
Q 2894 3584 3203 3211 
Q 3513 2838 3513 2113 
z
" transform="scale(0.015625)"/>
       <path id="DejaVuSans-6d" d="M 3328 2828 
Q 3544 3216 3844 3400 
Q 4144 3584 4550 3584 
Q 5097 3584 5394 3201 
Q 5691 2819 5691 2113 
L 5691 0 
L 5113 0 
L 5113 2094 
Q 5113 2597 4934 2840 
Q 4756 3084 4391 3084 
Q 3944 3084 3684 2787 
Q 3425 2491 3425 1978 
L 3425 0 
L 2847 0 
L 2847 2094 
Q 2847 2600 2669 2842 
Q 2491 3084 2119 3084 
Q 1678 3084 1418 2786 
Q 1159 2488 1159 1978 
L 1159 0 
L 581 0 
L 581 3500 
L 1159 3500 
L 1159 2956 
Q 1356 3278 1631 3431 
Q 1906 3584 2284 3584 
Q 2666 3584 2933 3390 
Q 3200 3197 3328 2828 
z
" transform="scale(0.015625)"/>
       <path id="DejaVuSans-63" d="M 3122 3366 
L 3122 2828 
Q 2878 2963 2633 3030 
Q 2388 3097 2138 3097 
Q 1578 3097 1268 2742 
Q 959 2388 959 1747 
Q 959 1106 1268 751 
Q 1578 397 2138 397 
Q 2388 397 2633 464 
Q 2878 531 3122 666 
L 3122 134 
Q 2881 22 2623 -34 
Q 2366 -91 2075 -91 
Q 1284 -91 818 406 
Q 353 903 353 1747 
Q 353 2603 823 3093 
Q 1294 3584 2113 3584 
Q 2378 3584 2631 3529 
Q 2884 3475 3122 3366 
z
" transform="scale(0.015625)"/>
       <path id="DejaVuSans-6c" d="M 603 4863 
L 1178 4863 
L 1178 0 
L 603 0 
L 603 4863 
z
" transform="scale(0.015625)"/>
       <path id="DejaVuSans-70" d="M 1159 525 
L 1159 -1331 
L 581 -1331 
L 581 3500 
L 1159 3500 
L 1159 2969 
Q 1341 3281 1617 3432 
Q 1894 3584 2278 3584 
Q 2916 3584 3314 3078 
Q 3713 2572 3713 1747 
Q 3713 922 3314 415 
Q 2916 -91 2278 -91 
Q 1894 -91 1617 61 
Q 1341 213 1159 525 
z
M 3116 1747 
Q 3116 2381 2855 2742 
Q 2594 3103 2138 3103 
Q 1681 3103 1420 2742 
Q 1159 2381 1159 1747 
Q 1159 1113 1420 752 
Q 1681 391 2138 391 
Q 2594 391 2855 752 
Q 3116 1113 3116 1747 
z
" transform="scale(0.015625)"/>
       <path id="DejaVuSans-Oblique-3bc" d="M -84 -1331 
L 856 3500 
L 1434 3500 
L 1009 1322 
Q 997 1256 987 1175 
Q 978 1094 978 1013 
Q 978 722 1161 565 
Q 1344 409 1684 409 
Q 2147 409 2431 671 
Q 2716 934 2816 1459 
L 3213 3500 
L 3788 3500 
L 3266 809 
Q 3253 750 3248 706 
Q 3244 663 3244 628 
Q 3244 531 3283 486 
Q 3322 441 3406 441 
Q 3438 441 3492 456 
Q 3547 472 3647 513 
L 3559 50 
Q 3422 -19 3297 -55 
Q 3172 -91 3053 -91 
Q 2847 -91 2730 40 
Q 2613 172 2613 403 
Q 2438 153 2195 31 
Q 1953 -91 1625 -91 
Q 1334 -91 1117 43 
Q 900 178 831 397 
L 494 -1331 
L -84 -1331 
z
" transform="scale(0.015625)"/>
      </defs>
      <use xlink:href="#DejaVuSans-43" transform="translate(0 0.015625)"/>
      <use xlink:href="#DejaVuSans-68" transform="translate(69.824219 0.015625)"/>
      <use xlink:href="#DejaVuSans-65" transform="translate(133.203125 0.015625)"/>
      <use xlink:href="#DejaVuSans-6d" transform="translate(194.726562 0.015625)"/>
      <use xlink:href="#DejaVuSans-69" transform="translate(292.138672 0.015625)"/>
      <use xlink:href="#DejaVuSans-63" transform="translate(319.921875 0.015625)"/>
      <use xlink:href="#DejaVuSans-61" transform="translate(374.902344 0.015625)"/>
      <use xlink:href="#DejaVuSans-6c" transform="translate(436.181641 0.015625)"/>
      <use xlink:href="#DejaVuSans-20" transform="translate(463.964844 0.015625)"/>
      <use xlink:href="#DejaVuSans-70" transform="translate(495.751953 0.015625)"/>
      <use xlink:href="#DejaVuSans-6f" transform="translate(559.228516 0.015625)"/>
      <use xlink:href="#DejaVuSans-74" transform="translate(620.410156 0.015625)"/>
      <use xlink:href="#DejaVuSans-65" transform="translate(659.619141 0.015625)"/>
      <use xlink:href="#DejaVuSans-6e" transform="translate(721.142578 0.015625)"/>
      <use xlink:href="#DejaVuSans-74" transform="translate(784.521484 0.015625)"/>
      <use xlink:href="#DejaVuSans-69" transform="translate(823.730469 0.015625)"/>
      <use xlink:href="#DejaVuSans-61" transform="translate(851.513672 0.015625)"/>
      <use xlink:href="#DejaVuSans-6c" transform="translate(912.792969 0.015625)"/>
      <use xlink:href="#DejaVuSans-20" transform="translate(940.576172 0.015625)"/>
      <use xlink:href="#DejaVuSans-Oblique-3bc" transform="translate(972.363281 0.015625)"/>
     </g>
    </g>
   </g>
  </g>
 </g>
 <defs>
  <clipPath id="p49aa222a52">
   <rect x="43.803125" y="10.999219" width="357.12" height="266.112"/>
  </clipPath>
 </defs>
</svg>
