<?xml version="1.0" encoding="utf-8" standalone="no"?>
<!DOCTYPE svg PUBLIC "-//W3C//DTD SVG 1.1//EN"
  "http://www.w3.org/Graphics/SVG/1.1/DTD/svg11.dtd">
<svg xmlns:xlink="http://www.w3.org/1999/xlink" width="709.5125pt" height="364.569827pt" viewBox="0 0 709.5125 364.569827" xmlns="http://www.w3.org/2000/svg" version="1.1">
 <metadata>
  <rdf:RDF xmlns:dc="http://purl.org/dc/elements/1.1/" xmlns:cc="http://creativecommons.org/ns#" xmlns:rdf="http://www.w3.org/1999/02/22-rdf-syntax-ns#">
   <cc:Work>
    <dc:type rdf:resource="http://purl.org/dc/dcmitype/StillImage"/>
    <dc:date>2025-04-30T08:43:29.925189</dc:date>
    <dc:format>image/svg+xml</dc:format>
    <dc:creator>
     <cc:Agent>
      <dc:title>Matplotlib v3.10.1, https://matplotlib.org/</dc:title>
     </cc:Agent>
    </dc:creator>
   </cc:Work>
  </rdf:RDF>
 </metadata>
 <defs>
  <style type="text/css">*{stroke-linejoin: round; stroke-linecap: butt}</style>
 </defs>
 <g id="figure_1">
  <g id="patch_1">
   <path d="M 0 364.569827 
L 709.5125 364.569827 
L 709.5125 0 
L 0 0 
z
" style="fill: #ffffff"/>
  </g>
  <g id="axes_1">
   <g id="patch_2">
    <path d="M 34.2625 327.013577 
L 338.957952 327.013577 
L 338.957952 22.318125 
L 34.2625 22.318125 
z
" style="fill: #ffffff"/>
   </g>
   <g id="matplotlib.axis_1">
    <g id="xtick_1">
     <g id="line2d_1">
      <path d="M 48.112293 327.013577 
L 48.112293 22.318125 
" clip-path="url(#p508cc36489)" style="fill: none; stroke: #b0b0b0; stroke-width: 0.8; stroke-linecap: square"/>
     </g>
     <g id="line2d_2">
      <defs>
       <path id="m06e29d7eff" d="M 0 0 
L 0 3.5 
" style="stroke: #000000; stroke-width: 0.8"/>
      </defs>
      <g>
       <use xlink:href="#m06e29d7eff" x="48.112293" y="327.013577" style="stroke: #000000; stroke-width: 0.8"/>
      </g>
     </g>
     <g id="text_1">
      <!-- $\Gamma$ -->
      <g transform="translate(45.312293 341.612014) scale(0.1 -0.1)">
       <defs>
        <path id="DejaVuSans-393" d="M 628 0 
L 628 4666 
L 3531 4666 
L 3531 4134 
L 1259 4134 
L 1259 0 
L 628 0 
z
" transform="scale(0.015625)"/>
       </defs>
       <use xlink:href="#DejaVuSans-393" transform="translate(0 0.09375)"/>
      </g>
     </g>
    </g>
    <g id="xtick_2">
     <g id="line2d_3">
      <path d="M 149.499817 327.013577 
L 149.499817 22.318125 
" clip-path="url(#p508cc36489)" style="fill: none; stroke: #b0b0b0; stroke-width: 0.8; stroke-linecap: square"/>
     </g>
     <g id="line2d_4">
      <g>
       <use xlink:href="#m06e29d7eff" x="149.499817" y="327.013577" style="stroke: #000000; stroke-width: 0.8"/>
      </g>
     </g>
     <g id="text_2">
      <!-- $M$ -->
      <g transform="translate(145.149817 341.612014) scale(0.1 -0.1)">
       <defs>
        <path id="DejaVuSans-Oblique-4d" d="M 1081 4666 
L 2028 4666 
L 2572 1522 
L 4378 4666 
L 5350 4666 
L 4441 0 
L 3828 0 
L 4622 4091 
L 2791 897 
L 2175 897 
L 1581 4103 
L 788 0 
L 172 0 
L 1081 4666 
z
" transform="scale(0.015625)"/>
       </defs>
       <use xlink:href="#DejaVuSans-Oblique-4d" transform="translate(0 0.09375)"/>
      </g>
     </g>
    </g>
    <g id="xtick_3">
     <g id="line2d_5">
      <path d="M 208.035931 327.013577 
L 208.035931 22.318125 
" clip-path="url(#p508cc36489)" style="fill: none; stroke: #b0b0b0; stroke-width: 0.8; stroke-linecap: square"/>
     </g>
     <g id="line2d_6">
      <g>
       <use xlink:href="#m06e29d7eff" x="208.035931" y="327.013577" style="stroke: #000000; stroke-width: 0.8"/>
      </g>
     </g>
     <g id="text_3">
      <!-- $K$ -->
      <g transform="translate(204.735931 341.612014) scale(0.1 -0.1)">
       <defs>
        <path id="DejaVuSans-Oblique-4b" d="M 1081 4666 
L 1716 4666 
L 1331 2700 
L 3781 4666 
L 4622 4666 
L 1850 2438 
L 3878 0 
L 3109 0 
L 1247 2272 
L 806 0 
L 172 0 
L 1081 4666 
z
" transform="scale(0.015625)"/>
       </defs>
       <use xlink:href="#DejaVuSans-Oblique-4b" transform="translate(0 0.09375)"/>
      </g>
     </g>
    </g>
    <g id="xtick_4">
     <g id="line2d_7">
      <path d="M 325.108159 327.013577 
L 325.108159 22.318125 
" clip-path="url(#p508cc36489)" style="fill: none; stroke: #b0b0b0; stroke-width: 0.8; stroke-linecap: square"/>
     </g>
     <g id="line2d_8">
      <g>
       <use xlink:href="#m06e29d7eff" x="325.108159" y="327.013577" style="stroke: #000000; stroke-width: 0.8"/>
      </g>
     </g>
     <g id="text_4">
      <!-- $\Gamma$ -->
      <g transform="translate(322.308159 341.612014) scale(0.1 -0.1)">
       <use xlink:href="#DejaVuSans-393" transform="translate(0 0.09375)"/>
      </g>
     </g>
    </g>
    <g id="text_5">
     <!-- $\mathbf{k}$ -->
     <g transform="translate(183.260226 355.290139) scale(0.1 -0.1)">
      <defs>
       <path id="DejaVuSans-Bold-6b" d="M 538 4863 
L 1656 4863 
L 1656 2216 
L 2944 3500 
L 4244 3500 
L 2534 1894 
L 4378 0 
L 3022 0 
L 1656 1459 
L 1656 0 
L 538 0 
L 538 4863 
z
" transform="scale(0.015625)"/>
      </defs>
      <use xlink:href="#DejaVuSans-Bold-6b" transform="translate(0 0.015625)"/>
     </g>
    </g>
   </g>
   <g id="matplotlib.axis_2">
    <g id="ytick_1">
     <g id="line2d_9">
      <path d="M 34.2625 327.013577 
L 338.957952 327.013577 
" clip-path="url(#p508cc36489)" style="fill: none; stroke: #b0b0b0; stroke-width: 0.8; stroke-linecap: square"/>
     </g>
     <g id="line2d_10">
      <defs>
       <path id="m952a71977a" d="M 0 0 
L -3.5 0 
" style="stroke: #000000; stroke-width: 0.8"/>
      </defs>
      <g>
       <use xlink:href="#m952a71977a" x="34.2625" y="327.013577" style="stroke: #000000; stroke-width: 0.8"/>
      </g>
     </g>
     <g id="text_6">
      <!-- 0 -->
      <g transform="translate(20.9 330.812796) scale(0.1 -0.1)">
       <defs>
        <path id="DejaVuSans-30" d="M 2034 4250 
Q 1547 4250 1301 3770 
Q 1056 3291 1056 2328 
Q 1056 1369 1301 889 
Q 1547 409 2034 409 
Q 2525 409 2770 889 
Q 3016 1369 3016 2328 
Q 3016 3291 2770 3770 
Q 2525 4250 2034 4250 
z
M 2034 4750 
Q 2819 4750 3233 4129 
Q 3647 3509 3647 2328 
Q 3647 1150 3233 529 
Q 2819 -91 2034 -91 
Q 1250 -91 836 529 
Q 422 1150 422 2328 
Q 422 3509 836 4129 
Q 1250 4750 2034 4750 
z
" transform="scale(0.015625)"/>
       </defs>
       <use xlink:href="#DejaVuSans-30"/>
      </g>
     </g>
    </g>
    <g id="ytick_2">
     <g id="line2d_11">
      <path d="M 34.2625 273.942727 
L 338.957952 273.942727 
" clip-path="url(#p508cc36489)" style="fill: none; stroke: #b0b0b0; stroke-width: 0.8; stroke-linecap: square"/>
     </g>
     <g id="line2d_12">
      <g>
       <use xlink:href="#m952a71977a" x="34.2625" y="273.942727" style="stroke: #000000; stroke-width: 0.8"/>
      </g>
     </g>
     <g id="text_7">
      <!-- 1 -->
      <g transform="translate(20.9 277.741946) scale(0.1 -0.1)">
       <defs>
        <path id="DejaVuSans-31" d="M 794 531 
L 1825 531 
L 1825 4091 
L 703 3866 
L 703 4441 
L 1819 4666 
L 2450 4666 
L 2450 531 
L 3481 531 
L 3481 0 
L 794 0 
L 794 531 
z
" transform="scale(0.015625)"/>
       </defs>
       <use xlink:href="#DejaVuSans-31"/>
      </g>
     </g>
    </g>
    <g id="ytick_3">
     <g id="line2d_13">
      <path d="M 34.2625 220.871877 
L 338.957952 220.871877 
" clip-path="url(#p508cc36489)" style="fill: none; stroke: #b0b0b0; stroke-width: 0.8; stroke-linecap: square"/>
     </g>
     <g id="line2d_14">
      <g>
       <use xlink:href="#m952a71977a" x="34.2625" y="220.871877" style="stroke: #000000; stroke-width: 0.8"/>
      </g>
     </g>
     <g id="text_8">
      <!-- 2 -->
      <g transform="translate(20.9 224.671096) scale(0.1 -0.1)">
       <defs>
        <path id="DejaVuSans-32" d="M 1228 531 
L 3431 531 
L 3431 0 
L 469 0 
L 469 531 
Q 828 903 1448 1529 
Q 2069 2156 2228 2338 
Q 2531 2678 2651 2914 
Q 2772 3150 2772 3378 
Q 2772 3750 2511 3984 
Q 2250 4219 1831 4219 
Q 1534 4219 1204 4116 
Q 875 4013 500 3803 
L 500 4441 
Q 881 4594 1212 4672 
Q 1544 4750 1819 4750 
Q 2544 4750 2975 4387 
Q 3406 4025 3406 3419 
Q 3406 3131 3298 2873 
Q 3191 2616 2906 2266 
Q 2828 2175 2409 1742 
Q 1991 1309 1228 531 
z
" transform="scale(0.015625)"/>
       </defs>
       <use xlink:href="#DejaVuSans-32"/>
      </g>
     </g>
    </g>
    <g id="ytick_4">
     <g id="line2d_15">
      <path d="M 34.2625 167.801027 
L 338.957952 167.801027 
" clip-path="url(#p508cc36489)" style="fill: none; stroke: #b0b0b0; stroke-width: 0.8; stroke-linecap: square"/>
     </g>
     <g id="line2d_16">
      <g>
       <use xlink:href="#m952a71977a" x="34.2625" y="167.801027" style="stroke: #000000; stroke-width: 0.8"/>
      </g>
     </g>
     <g id="text_9">
      <!-- 3 -->
      <g transform="translate(20.9 171.600246) scale(0.1 -0.1)">
       <defs>
        <path id="DejaVuSans-33" d="M 2597 2516 
Q 3050 2419 3304 2112 
Q 3559 1806 3559 1356 
Q 3559 666 3084 287 
Q 2609 -91 1734 -91 
Q 1441 -91 1130 -33 
Q 819 25 488 141 
L 488 750 
Q 750 597 1062 519 
Q 1375 441 1716 441 
Q 2309 441 2620 675 
Q 2931 909 2931 1356 
Q 2931 1769 2642 2001 
Q 2353 2234 1838 2234 
L 1294 2234 
L 1294 2753 
L 1863 2753 
Q 2328 2753 2575 2939 
Q 2822 3125 2822 3475 
Q 2822 3834 2567 4026 
Q 2313 4219 1838 4219 
Q 1578 4219 1281 4162 
Q 984 4106 628 3988 
L 628 4550 
Q 988 4650 1302 4700 
Q 1616 4750 1894 4750 
Q 2613 4750 3031 4423 
Q 3450 4097 3450 3541 
Q 3450 3153 3228 2886 
Q 3006 2619 2597 2516 
z
" transform="scale(0.015625)"/>
       </defs>
       <use xlink:href="#DejaVuSans-33"/>
      </g>
     </g>
    </g>
    <g id="ytick_5">
     <g id="line2d_17">
      <path d="M 34.2625 114.730177 
L 338.957952 114.730177 
" clip-path="url(#p508cc36489)" style="fill: none; stroke: #b0b0b0; stroke-width: 0.8; stroke-linecap: square"/>
     </g>
     <g id="line2d_18">
      <g>
       <use xlink:href="#m952a71977a" x="34.2625" y="114.730177" style="stroke: #000000; stroke-width: 0.8"/>
      </g>
     </g>
     <g id="text_10">
      <!-- 4 -->
      <g transform="translate(20.9 118.529396) scale(0.1 -0.1)">
       <defs>
        <path id="DejaVuSans-34" d="M 2419 4116 
L 825 1625 
L 2419 1625 
L 2419 4116 
z
M 2253 4666 
L 3047 4666 
L 3047 1625 
L 3713 1625 
L 3713 1100 
L 3047 1100 
L 3047 0 
L 2419 0 
L 2419 1100 
L 313 1100 
L 313 1709 
L 2253 4666 
z
" transform="scale(0.015625)"/>
       </defs>
       <use xlink:href="#DejaVuSans-34"/>
      </g>
     </g>
    </g>
    <g id="ytick_6">
     <g id="line2d_19">
      <path d="M 34.2625 61.659327 
L 338.957952 61.659327 
" clip-path="url(#p508cc36489)" style="fill: none; stroke: #b0b0b0; stroke-width: 0.8; stroke-linecap: square"/>
     </g>
     <g id="line2d_20">
      <g>
       <use xlink:href="#m952a71977a" x="34.2625" y="61.659327" style="stroke: #000000; stroke-width: 0.8"/>
      </g>
     </g>
     <g id="text_11">
      <!-- 5 -->
      <g transform="translate(20.9 65.458546) scale(0.1 -0.1)">
       <defs>
        <path id="DejaVuSans-35" d="M 691 4666 
L 3169 4666 
L 3169 4134 
L 1269 4134 
L 1269 2991 
Q 1406 3038 1543 3061 
Q 1681 3084 1819 3084 
Q 2600 3084 3056 2656 
Q 3513 2228 3513 1497 
Q 3513 744 3044 326 
Q 2575 -91 1722 -91 
Q 1428 -91 1123 -41 
Q 819 9 494 109 
L 494 744 
Q 775 591 1075 516 
Q 1375 441 1709 441 
Q 2250 441 2565 725 
Q 2881 1009 2881 1497 
Q 2881 1984 2565 2268 
Q 2250 2553 1709 2553 
Q 1456 2553 1204 2497 
Q 953 2441 691 2322 
L 691 4666 
z
" transform="scale(0.015625)"/>
       </defs>
       <use xlink:href="#DejaVuSans-35"/>
      </g>
     </g>
    </g>
    <g id="text_12">
     <!-- Re[$\chi(i\omega = 0, \mathbf{k}$] -->
     <g transform="translate(14.8 210.815851) rotate(-90) scale(0.1 -0.1)">
      <defs>
       <path id="DejaVuSans-52" d="M 2841 2188 
Q 3044 2119 3236 1894 
Q 3428 1669 3622 1275 
L 4263 0 
L 3584 0 
L 2988 1197 
Q 2756 1666 2539 1819 
Q 2322 1972 1947 1972 
L 1259 1972 
L 1259 0 
L 628 0 
L 628 4666 
L 2053 4666 
Q 2853 4666 3247 4331 
Q 3641 3997 3641 3322 
Q 3641 2881 3436 2590 
Q 3231 2300 2841 2188 
z
M 1259 4147 
L 1259 2491 
L 2053 2491 
Q 2509 2491 2742 2702 
Q 2975 2913 2975 3322 
Q 2975 3731 2742 3939 
Q 2509 4147 2053 4147 
L 1259 4147 
z
" transform="scale(0.015625)"/>
       <path id="DejaVuSans-65" d="M 3597 1894 
L 3597 1613 
L 953 1613 
Q 991 1019 1311 708 
Q 1631 397 2203 397 
Q 2534 397 2845 478 
Q 3156 559 3463 722 
L 3463 178 
Q 3153 47 2828 -22 
Q 2503 -91 2169 -91 
Q 1331 -91 842 396 
Q 353 884 353 1716 
Q 353 2575 817 3079 
Q 1281 3584 2069 3584 
Q 2775 3584 3186 3129 
Q 3597 2675 3597 1894 
z
M 3022 2063 
Q 3016 2534 2758 2815 
Q 2500 3097 2075 3097 
Q 1594 3097 1305 2825 
Q 1016 2553 972 2059 
L 3022 2063 
z
" transform="scale(0.015625)"/>
       <path id="DejaVuSans-5b" d="M 550 4863 
L 1875 4863 
L 1875 4416 
L 1125 4416 
L 1125 -397 
L 1875 -397 
L 1875 -844 
L 550 -844 
L 550 4863 
z
" transform="scale(0.015625)"/>
       <path id="DejaVuSans-Oblique-3c7" d="M 1922 -781 
L 1691 416 
L 394 -1334 
L -284 -1334 
L 1553 1141 
L 1269 2613 
Q 1194 3006 713 3006 
L 559 3006 
L 653 3500 
L 872 3494 
Q 1675 3472 1775 2950 
L 2006 1753 
L 3303 3503 
L 3981 3503 
L 2144 1028 
L 2428 -444 
Q 2503 -838 2984 -838 
L 3138 -838 
L 3044 -1331 
L 2825 -1325 
Q 2022 -1303 1922 -781 
z
" transform="scale(0.015625)"/>
       <path id="DejaVuSans-28" d="M 1984 4856 
Q 1566 4138 1362 3434 
Q 1159 2731 1159 2009 
Q 1159 1288 1364 580 
Q 1569 -128 1984 -844 
L 1484 -844 
Q 1016 -109 783 600 
Q 550 1309 550 2009 
Q 550 2706 781 3412 
Q 1013 4119 1484 4856 
L 1984 4856 
z
" transform="scale(0.015625)"/>
       <path id="DejaVuSans-Oblique-69" d="M 1172 4863 
L 1747 4863 
L 1606 4134 
L 1031 4134 
L 1172 4863 
z
M 909 3500 
L 1484 3500 
L 800 0 
L 225 0 
L 909 3500 
z
" transform="scale(0.015625)"/>
       <path id="DejaVuSans-Oblique-3c9" d="M 1369 -91 
Q 72 -91 434 1766 
Q 575 2500 1256 3500 
L 1875 3500 
Q 1231 2500 1088 1750 
Q 819 397 1519 397 
Q 2166 397 2478 2078 
L 3009 2078 
Q 2669 388 3316 397 
Q 4013 403 4275 1750 
Q 4419 2500 4169 3500 
L 4788 3500 
Q 5075 2500 4934 1766 
Q 4578 -94 3278 -91 
Q 2428 -88 2503 844 
Q 2194 -91 1369 -91 
z
" transform="scale(0.015625)"/>
       <path id="DejaVuSans-3d" d="M 678 2906 
L 4684 2906 
L 4684 2381 
L 678 2381 
L 678 2906 
z
M 678 1631 
L 4684 1631 
L 4684 1100 
L 678 1100 
L 678 1631 
z
" transform="scale(0.015625)"/>
       <path id="DejaVuSans-2c" d="M 750 794 
L 1409 794 
L 1409 256 
L 897 -744 
L 494 -744 
L 750 256 
L 750 794 
z
" transform="scale(0.015625)"/>
       <path id="DejaVuSans-5d" d="M 1947 4863 
L 1947 -844 
L 622 -844 
L 622 -397 
L 1369 -397 
L 1369 4416 
L 622 4416 
L 622 4863 
L 1947 4863 
z
" transform="scale(0.015625)"/>
      </defs>
      <use xlink:href="#DejaVuSans-52" transform="translate(0 0.015625)"/>
      <use xlink:href="#DejaVuSans-65" transform="translate(69.482422 0.015625)"/>
      <use xlink:href="#DejaVuSans-5b" transform="translate(131.005859 0.015625)"/>
      <use xlink:href="#DejaVuSans-Oblique-3c7" transform="translate(170.019531 0.015625)"/>
      <use xlink:href="#DejaVuSans-28" transform="translate(229.199219 0.015625)"/>
      <use xlink:href="#DejaVuSans-Oblique-69" transform="translate(268.212891 0.015625)"/>
      <use xlink:href="#DejaVuSans-Oblique-3c9" transform="translate(295.996094 0.015625)"/>
      <use xlink:href="#DejaVuSans-3d" transform="translate(399.21875 0.015625)"/>
      <use xlink:href="#DejaVuSans-30" transform="translate(502.490234 0.015625)"/>
      <use xlink:href="#DejaVuSans-2c" transform="translate(566.113281 0.015625)"/>
      <use xlink:href="#DejaVuSans-Bold-6b" transform="translate(617.382812 0.015625)"/>
      <use xlink:href="#DejaVuSans-5d" transform="translate(683.886719 0.015625)"/>
     </g>
    </g>
   </g>
   <g id="line2d_21">
    <path d="M 48.112293 284.916698 
L 52.208759 284.966818 
L 57.329341 284.999323 
L 60.40169 285.201232 
L 64.498156 285.744148 
L 72.691087 286.922157 
L 76.787552 287.265368 
L 80.884018 287.425182 
L 84.980484 287.4211 
L 90.101066 287.209637 
L 95.221648 286.775209 
L 100.34223 286.128877 
L 105.462812 285.266318 
L 110.583394 284.176761 
L 115.703976 282.873899 
L 129.017489 279.200411 
L 132.089838 278.66387 
L 135.162187 278.365757 
L 139.258653 278.288533 
L 149.499817 278.542305 
L 149.499817 278.542305 
L 151.273638 280.17675 
L 153.638734 284.768108 
L 155.412556 288.166341 
L 157.186377 291.082888 
L 158.960199 293.508597 
L 161.325294 296.140465 
L 163.099116 297.788188 
L 164.872938 299.210132 
L 167.238033 300.822546 
L 169.011855 301.852968 
L 171.37695 303.064089 
L 174.924594 304.529276 
L 178.472237 305.699052 
L 182.01988 306.638836 
L 185.567523 307.394033 
L 189.115167 307.996796 
L 192.66281 308.470107 
L 196.801727 308.884464 
L 202.123192 309.209035 
L 207.444657 309.33246 
L 211.583574 309.293574 
L 217.496313 309.004665 
L 222.226504 308.578607 
L 226.956695 307.930659 
L 231.686886 307.016504 
L 235.234529 306.129183 
L 238.782172 305.051024 
L 244.694911 302.949425 
L 249.425102 301.38168 
L 252.972745 300.496323 
L 257.702937 299.669146 
L 273.076057 297.369459 
L 277.806248 296.438712 
L 283.718987 295.006949 
L 287.26663 293.99202 
L 290.814274 292.844484 
L 294.361917 291.562862 
L 299.092108 289.688943 
L 305.004847 287.314784 
L 307.369942 286.499215 
L 310.917586 285.593505 
L 314.465229 285.12281 
L 319.19542 284.994739 
L 323.925611 284.958293 
L 325.108159 284.916698 
L 325.108159 284.916698 
" clip-path="url(#p508cc36489)" style="fill: none; stroke: #1f77b4; stroke-width: 1.5; stroke-linecap: square"/>
   </g>
   <g id="line2d_22">
    <path d="M 48.112293 314.378922 
L 71.66697 314.554881 
L 87.028716 314.608575 
L 103.414579 314.444714 
L 125.94514 313.964369 
L 137.21042 313.841184 
L 150.682365 313.941928 
L 152.456186 314.168376 
L 164.872938 316.069266 
L 171.968224 316.768234 
L 180.837332 317.377729 
L 190.888988 317.812319 
L 200.940644 318.036846 
L 212.766122 318.060719 
L 223.409052 317.858035 
L 232.869434 317.465926 
L 243.512363 316.779711 
L 251.790198 316.315039 
L 262.433128 316.037124 
L 282.536439 315.511759 
L 300.274656 314.794601 
L 310.917586 314.440613 
L 321.560515 314.387449 
L 325.108159 314.378922 
L 325.108159 314.378922 
" clip-path="url(#p508cc36489)" style="fill: none; stroke: #ff7f0e; stroke-width: 1.5; stroke-linecap: square"/>
   </g>
   <g id="line2d_23">
    <path d="M 48.112293 177.179206 
L 50.160526 178.061619 
L 54.256992 177.597198 
L 56.305224 177.789135 
L 58.353457 178.754013 
L 59.377574 179.65359 
L 60.40169 180.719032 
L 62.449923 183.627681 
L 64.498156 187.146731 
L 68.594621 194.299422 
L 70.642854 197.325672 
L 71.66697 198.669443 
L 73.715203 200.896374 
L 75.763436 202.593754 
L 77.811669 203.804287 
L 79.859902 204.571913 
L 81.908134 204.933166 
L 83.956367 204.903307 
L 86.0046 204.512158 
L 88.052833 203.768202 
L 90.101066 202.672514 
L 92.149298 201.219245 
L 94.197531 199.395775 
L 96.245764 197.18253 
L 98.293997 194.552489 
L 100.34223 191.470389 
L 102.390462 187.891617 
L 104.438695 183.76085 
L 106.486928 179.010525 
L 108.535161 173.559396 
L 109.559277 170.611077 
L 111.60751 163.950755 
L 113.655743 156.330896 
L 115.703976 147.630405 
L 117.752208 137.695795 
L 119.800441 126.49413 
L 122.87279 107.361296 
L 126.969256 79.519465 
L 129.017489 66.08474 
L 130.041605 59.843582 
L 132.089838 49.327909 
L 133.113954 45.170243 
L 134.138071 41.837418 
L 135.162187 39.255997 
L 136.186304 37.640668 
L 137.21042 36.568651 
L 138.234536 36.402156 
L 139.258653 36.537199 
L 141.306886 38.242001 
L 145.403351 43.060071 
L 147.451584 44.723194 
L 149.499817 45.330013 
L 149.499817 45.330013 
L 151.273638 92.614249 
L 153.04746 158.130655 
L 154.230008 187.216903 
L 154.821282 201.04194 
L 156.003829 219.078381 
L 156.595103 227.344766 
L 157.777651 238.915685 
L 158.960199 248.542336 
L 160.73402 258.969879 
L 162.507842 266.586604 
L 164.281664 272.479378 
L 166.646759 278.328778 
L 167.829307 280.848028 
L 170.194402 284.75339 
L 171.968224 287.204728 
L 174.33332 289.883497 
L 175.515867 291.053626 
L 178.472237 293.493736 
L 180.837332 295.067785 
L 183.793702 296.682689 
L 186.158797 297.768604 
L 190.297714 299.223325 
L 193.845358 300.160404 
L 197.984275 300.934971 
L 201.531918 301.37404 
L 205.670835 301.641542 
L 209.218478 301.671872 
L 212.766122 301.518002 
L 216.313765 301.169747 
L 219.861408 300.607776 
L 223.409052 299.800697 
L 226.956695 298.701202 
L 230.504338 297.240589 
L 234.051981 295.325748 
L 237.599625 292.851075 
L 241.147268 289.753995 
L 250.60765 280.372061 
L 252.972745 278.535887 
L 255.337841 277.000958 
L 258.885484 275.096101 
L 267.163319 270.820475 
L 270.710962 268.634117 
L 274.258605 266.068359 
L 277.806248 263.01369 
L 281.353892 259.338163 
L 284.901535 254.874118 
L 288.449178 249.385561 
L 291.996821 242.602058 
L 295.544465 234.224155 
L 297.90956 227.495061 
L 299.092108 224.00328 
L 301.457204 216.102068 
L 305.004847 203.576112 
L 307.369942 195.423031 
L 309.735038 188.33896 
L 310.917586 185.400632 
L 312.100133 183.193071 
L 313.282681 181.240656 
L 314.465229 179.756694 
L 315.647777 179.01918 
L 316.830324 178.452804 
L 318.012872 178.120777 
L 320.377968 178.257646 
L 321.560515 178.369629 
L 322.743063 178.100467 
L 323.925611 177.703659 
L 325.108159 177.179206 
L 325.108159 177.179206 
" clip-path="url(#p508cc36489)" style="fill: none; stroke: #2ca02c; stroke-width: 1.5; stroke-linecap: square"/>
   </g>
   <g id="patch_3">
    <path d="M 34.2625 327.013577 
L 34.2625 22.318125 
" style="fill: none; stroke: #000000; stroke-width: 0.8; stroke-linejoin: miter; stroke-linecap: square"/>
   </g>
   <g id="patch_4">
    <path d="M 338.957952 327.013577 
L 338.957952 22.318125 
" style="fill: none; stroke: #000000; stroke-width: 0.8; stroke-linejoin: miter; stroke-linecap: square"/>
   </g>
   <g id="patch_5">
    <path d="M 34.2625 327.013577 
L 338.957952 327.013577 
" style="fill: none; stroke: #000000; stroke-width: 0.8; stroke-linejoin: miter; stroke-linecap: square"/>
   </g>
   <g id="patch_6">
    <path d="M 34.2625 22.318125 
L 338.957952 22.318125 
" style="fill: none; stroke: #000000; stroke-width: 0.8; stroke-linejoin: miter; stroke-linecap: square"/>
   </g>
   <g id="text_13">
    <!-- Absolute comparison -->
    <g transform="translate(123.446163 16.318125) scale(0.12 -0.12)">
     <defs>
      <path id="DejaVuSans-41" d="M 2188 4044 
L 1331 1722 
L 3047 1722 
L 2188 4044 
z
M 1831 4666 
L 2547 4666 
L 4325 0 
L 3669 0 
L 3244 1197 
L 1141 1197 
L 716 0 
L 50 0 
L 1831 4666 
z
" transform="scale(0.015625)"/>
      <path id="DejaVuSans-62" d="M 3116 1747 
Q 3116 2381 2855 2742 
Q 2594 3103 2138 3103 
Q 1681 3103 1420 2742 
Q 1159 2381 1159 1747 
Q 1159 1113 1420 752 
Q 1681 391 2138 391 
Q 2594 391 2855 752 
Q 3116 1113 3116 1747 
z
M 1159 2969 
Q 1341 3281 1617 3432 
Q 1894 3584 2278 3584 
Q 2916 3584 3314 3078 
Q 3713 2572 3713 1747 
Q 3713 922 3314 415 
Q 2916 -91 2278 -91 
Q 1894 -91 1617 61 
Q 1341 213 1159 525 
L 1159 0 
L 581 0 
L 581 4863 
L 1159 4863 
L 1159 2969 
z
" transform="scale(0.015625)"/>
      <path id="DejaVuSans-73" d="M 2834 3397 
L 2834 2853 
Q 2591 2978 2328 3040 
Q 2066 3103 1784 3103 
Q 1356 3103 1142 2972 
Q 928 2841 928 2578 
Q 928 2378 1081 2264 
Q 1234 2150 1697 2047 
L 1894 2003 
Q 2506 1872 2764 1633 
Q 3022 1394 3022 966 
Q 3022 478 2636 193 
Q 2250 -91 1575 -91 
Q 1294 -91 989 -36 
Q 684 19 347 128 
L 347 722 
Q 666 556 975 473 
Q 1284 391 1588 391 
Q 1994 391 2212 530 
Q 2431 669 2431 922 
Q 2431 1156 2273 1281 
Q 2116 1406 1581 1522 
L 1381 1569 
Q 847 1681 609 1914 
Q 372 2147 372 2553 
Q 372 3047 722 3315 
Q 1072 3584 1716 3584 
Q 2034 3584 2315 3537 
Q 2597 3491 2834 3397 
z
" transform="scale(0.015625)"/>
      <path id="DejaVuSans-6f" d="M 1959 3097 
Q 1497 3097 1228 2736 
Q 959 2375 959 1747 
Q 959 1119 1226 758 
Q 1494 397 1959 397 
Q 2419 397 2687 759 
Q 2956 1122 2956 1747 
Q 2956 2369 2687 2733 
Q 2419 3097 1959 3097 
z
M 1959 3584 
Q 2709 3584 3137 3096 
Q 3566 2609 3566 1747 
Q 3566 888 3137 398 
Q 2709 -91 1959 -91 
Q 1206 -91 779 398 
Q 353 888 353 1747 
Q 353 2609 779 3096 
Q 1206 3584 1959 3584 
z
" transform="scale(0.015625)"/>
      <path id="DejaVuSans-6c" d="M 603 4863 
L 1178 4863 
L 1178 0 
L 603 0 
L 603 4863 
z
" transform="scale(0.015625)"/>
      <path id="DejaVuSans-75" d="M 544 1381 
L 544 3500 
L 1119 3500 
L 1119 1403 
Q 1119 906 1312 657 
Q 1506 409 1894 409 
Q 2359 409 2629 706 
Q 2900 1003 2900 1516 
L 2900 3500 
L 3475 3500 
L 3475 0 
L 2900 0 
L 2900 538 
Q 2691 219 2414 64 
Q 2138 -91 1772 -91 
Q 1169 -91 856 284 
Q 544 659 544 1381 
z
M 1991 3584 
L 1991 3584 
z
" transform="scale(0.015625)"/>
      <path id="DejaVuSans-74" d="M 1172 4494 
L 1172 3500 
L 2356 3500 
L 2356 3053 
L 1172 3053 
L 1172 1153 
Q 1172 725 1289 603 
Q 1406 481 1766 481 
L 2356 481 
L 2356 0 
L 1766 0 
Q 1100 0 847 248 
Q 594 497 594 1153 
L 594 3053 
L 172 3053 
L 172 3500 
L 594 3500 
L 594 4494 
L 1172 4494 
z
" transform="scale(0.015625)"/>
      <path id="DejaVuSans-20" transform="scale(0.015625)"/>
      <path id="DejaVuSans-63" d="M 3122 3366 
L 3122 2828 
Q 2878 2963 2633 3030 
Q 2388 3097 2138 3097 
Q 1578 3097 1268 2742 
Q 959 2388 959 1747 
Q 959 1106 1268 751 
Q 1578 397 2138 397 
Q 2388 397 2633 464 
Q 2878 531 3122 666 
L 3122 134 
Q 2881 22 2623 -34 
Q 2366 -91 2075 -91 
Q 1284 -91 818 406 
Q 353 903 353 1747 
Q 353 2603 823 3093 
Q 1294 3584 2113 3584 
Q 2378 3584 2631 3529 
Q 2884 3475 3122 3366 
z
" transform="scale(0.015625)"/>
      <path id="DejaVuSans-6d" d="M 3328 2828 
Q 3544 3216 3844 3400 
Q 4144 3584 4550 3584 
Q 5097 3584 5394 3201 
Q 5691 2819 5691 2113 
L 5691 0 
L 5113 0 
L 5113 2094 
Q 5113 2597 4934 2840 
Q 4756 3084 4391 3084 
Q 3944 3084 3684 2787 
Q 3425 2491 3425 1978 
L 3425 0 
L 2847 0 
L 2847 2094 
Q 2847 2600 2669 2842 
Q 2491 3084 2119 3084 
Q 1678 3084 1418 2786 
Q 1159 2488 1159 1978 
L 1159 0 
L 581 0 
L 581 3500 
L 1159 3500 
L 1159 2956 
Q 1356 3278 1631 3431 
Q 1906 3584 2284 3584 
Q 2666 3584 2933 3390 
Q 3200 3197 3328 2828 
z
" transform="scale(0.015625)"/>
      <path id="DejaVuSans-70" d="M 1159 525 
L 1159 -1331 
L 581 -1331 
L 581 3500 
L 1159 3500 
L 1159 2969 
Q 1341 3281 1617 3432 
Q 1894 3584 2278 3584 
Q 2916 3584 3314 3078 
Q 3713 2572 3713 1747 
Q 3713 922 3314 415 
Q 2916 -91 2278 -91 
Q 1894 -91 1617 61 
Q 1341 213 1159 525 
z
M 3116 1747 
Q 3116 2381 2855 2742 
Q 2594 3103 2138 3103 
Q 1681 3103 1420 2742 
Q 1159 2381 1159 1747 
Q 1159 1113 1420 752 
Q 1681 391 2138 391 
Q 2594 391 2855 752 
Q 3116 1113 3116 1747 
z
" transform="scale(0.015625)"/>
      <path id="DejaVuSans-61" d="M 2194 1759 
Q 1497 1759 1228 1600 
Q 959 1441 959 1056 
Q 959 750 1161 570 
Q 1363 391 1709 391 
Q 2188 391 2477 730 
Q 2766 1069 2766 1631 
L 2766 1759 
L 2194 1759 
z
M 3341 1997 
L 3341 0 
L 2766 0 
L 2766 531 
Q 2569 213 2275 61 
Q 1981 -91 1556 -91 
Q 1019 -91 701 211 
Q 384 513 384 1019 
Q 384 1609 779 1909 
Q 1175 2209 1959 2209 
L 2766 2209 
L 2766 2266 
Q 2766 2663 2505 2880 
Q 2244 3097 1772 3097 
Q 1472 3097 1187 3025 
Q 903 2953 641 2809 
L 641 3341 
Q 956 3463 1253 3523 
Q 1550 3584 1831 3584 
Q 2591 3584 2966 3190 
Q 3341 2797 3341 1997 
z
" transform="scale(0.015625)"/>
      <path id="DejaVuSans-72" d="M 2631 2963 
Q 2534 3019 2420 3045 
Q 2306 3072 2169 3072 
Q 1681 3072 1420 2755 
Q 1159 2438 1159 1844 
L 1159 0 
L 581 0 
L 581 3500 
L 1159 3500 
L 1159 2956 
Q 1341 3275 1631 3429 
Q 1922 3584 2338 3584 
Q 2397 3584 2469 3576 
Q 2541 3569 2628 3553 
L 2631 2963 
z
" transform="scale(0.015625)"/>
      <path id="DejaVuSans-69" d="M 603 3500 
L 1178 3500 
L 1178 0 
L 603 0 
L 603 3500 
z
M 603 4863 
L 1178 4863 
L 1178 4134 
L 603 4134 
L 603 4863 
z
" transform="scale(0.015625)"/>
      <path id="DejaVuSans-6e" d="M 3513 2113 
L 3513 0 
L 2938 0 
L 2938 2094 
Q 2938 2591 2744 2837 
Q 2550 3084 2163 3084 
Q 1697 3084 1428 2787 
Q 1159 2491 1159 1978 
L 1159 0 
L 581 0 
L 581 3500 
L 1159 3500 
L 1159 2956 
Q 1366 3272 1645 3428 
Q 1925 3584 2291 3584 
Q 2894 3584 3203 3211 
Q 3513 2838 3513 2113 
z
" transform="scale(0.015625)"/>
     </defs>
     <use xlink:href="#DejaVuSans-41"/>
     <use xlink:href="#DejaVuSans-62" transform="translate(68.408203 0)"/>
     <use xlink:href="#DejaVuSans-73" transform="translate(131.884766 0)"/>
     <use xlink:href="#DejaVuSans-6f" transform="translate(183.984375 0)"/>
     <use xlink:href="#DejaVuSans-6c" transform="translate(245.166016 0)"/>
     <use xlink:href="#DejaVuSans-75" transform="translate(272.949219 0)"/>
     <use xlink:href="#DejaVuSans-74" transform="translate(336.328125 0)"/>
     <use xlink:href="#DejaVuSans-65" transform="translate(375.537109 0)"/>
     <use xlink:href="#DejaVuSans-20" transform="translate(437.060547 0)"/>
     <use xlink:href="#DejaVuSans-63" transform="translate(468.847656 0)"/>
     <use xlink:href="#DejaVuSans-6f" transform="translate(523.828125 0)"/>
     <use xlink:href="#DejaVuSans-6d" transform="translate(585.009766 0)"/>
     <use xlink:href="#DejaVuSans-70" transform="translate(682.421875 0)"/>
     <use xlink:href="#DejaVuSans-61" transform="translate(745.898438 0)"/>
     <use xlink:href="#DejaVuSans-72" transform="translate(807.177734 0)"/>
     <use xlink:href="#DejaVuSans-69" transform="translate(848.291016 0)"/>
     <use xlink:href="#DejaVuSans-73" transform="translate(876.074219 0)"/>
     <use xlink:href="#DejaVuSans-6f" transform="translate(928.173828 0)"/>
     <use xlink:href="#DejaVuSans-6e" transform="translate(989.355469 0)"/>
    </g>
   </g>
   <g id="legend_1">
    <g id="patch_7">
     <path d="M 285.457952 75.413437 
L 331.957952 75.413437 
Q 333.957952 75.413437 333.957952 73.413437 
L 333.957952 29.318125 
Q 333.957952 27.318125 331.957952 27.318125 
L 285.457952 27.318125 
Q 283.457952 27.318125 283.457952 29.318125 
L 283.457952 73.413437 
Q 283.457952 75.413437 285.457952 75.413437 
z
" style="fill: #ffffff; opacity: 0.8; stroke: #cccccc; stroke-linejoin: miter"/>
    </g>
    <g id="line2d_24">
     <path d="M 287.457952 35.416562 
L 297.457952 35.416562 
L 307.457952 35.416562 
" style="fill: none; stroke: #1f77b4; stroke-width: 1.5; stroke-linecap: square"/>
    </g>
    <g id="text_14">
     <!-- $\chi_0$ -->
     <g transform="translate(315.457952 38.916562) scale(0.1 -0.1)">
      <use xlink:href="#DejaVuSans-Oblique-3c7" transform="translate(0 0.265625)"/>
      <use xlink:href="#DejaVuSans-30" transform="translate(59.179688 -16.140625) scale(0.7)"/>
     </g>
    </g>
    <g id="line2d_25">
     <path d="M 287.457952 50.115 
L 297.457952 50.115 
L 307.457952 50.115 
" style="fill: none; stroke: #ff7f0e; stroke-width: 1.5; stroke-linecap: square"/>
    </g>
    <g id="text_15">
     <!-- $\chi_{ch}$ -->
     <g transform="translate(315.457952 53.615) scale(0.1 -0.1)">
      <defs>
       <path id="DejaVuSans-Oblique-63" d="M 3431 3366 
L 3316 2797 
Q 3109 2947 2876 3022 
Q 2644 3097 2394 3097 
Q 2119 3097 1870 3000 
Q 1622 2903 1453 2725 
Q 1184 2453 1037 2087 
Q 891 1722 891 1331 
Q 891 859 1127 628 
Q 1363 397 1844 397 
Q 2081 397 2348 469 
Q 2616 541 2906 684 
L 2797 116 
Q 2547 13 2283 -39 
Q 2019 -91 1741 -91 
Q 1044 -91 669 257 
Q 294 606 294 1253 
Q 294 1797 489 2255 
Q 684 2713 1069 3078 
Q 1331 3328 1684 3456 
Q 2038 3584 2456 3584 
Q 2700 3584 2940 3529 
Q 3181 3475 3431 3366 
z
" transform="scale(0.015625)"/>
       <path id="DejaVuSans-Oblique-68" d="M 3566 2113 
L 3156 0 
L 2578 0 
L 2988 2091 
Q 3016 2238 3031 2350 
Q 3047 2463 3047 2528 
Q 3047 2791 2881 2937 
Q 2716 3084 2419 3084 
Q 1956 3084 1617 2771 
Q 1278 2459 1178 1941 
L 800 0 
L 225 0 
L 1172 4863 
L 1747 4863 
L 1375 2950 
Q 1594 3244 1934 3414 
Q 2275 3584 2650 3584 
Q 3113 3584 3367 3334 
Q 3622 3084 3622 2631 
Q 3622 2519 3608 2391 
Q 3594 2263 3566 2113 
z
" transform="scale(0.015625)"/>
      </defs>
      <use xlink:href="#DejaVuSans-Oblique-3c7" transform="translate(0 0.265625)"/>
      <use xlink:href="#DejaVuSans-Oblique-63" transform="translate(59.179688 -16.140625) scale(0.7)"/>
      <use xlink:href="#DejaVuSans-Oblique-68" transform="translate(97.666016 -16.140625) scale(0.7)"/>
     </g>
    </g>
    <g id="line2d_26">
     <path d="M 287.457952 64.813438 
L 297.457952 64.813438 
L 307.457952 64.813438 
" style="fill: none; stroke: #2ca02c; stroke-width: 1.5; stroke-linecap: square"/>
    </g>
    <g id="text_16">
     <!-- $\chi_{sp}$ -->
     <g transform="translate(315.457952 68.313438) scale(0.1 -0.1)">
      <defs>
       <path id="DejaVuSans-Oblique-73" d="M 3200 3397 
L 3091 2853 
Q 2863 2978 2609 3040 
Q 2356 3103 2088 3103 
Q 1634 3103 1373 2948 
Q 1113 2794 1113 2528 
Q 1113 2219 1719 2053 
Q 1766 2041 1788 2034 
L 1972 1978 
Q 2547 1819 2739 1644 
Q 2931 1469 2931 1166 
Q 2931 609 2489 259 
Q 2047 -91 1331 -91 
Q 1053 -91 747 -37 
Q 441 16 72 128 
L 184 722 
Q 500 559 806 475 
Q 1113 391 1394 391 
Q 1816 391 2080 572 
Q 2344 753 2344 1031 
Q 2344 1331 1650 1516 
L 1591 1531 
L 1394 1581 
Q 956 1697 753 1886 
Q 550 2075 550 2369 
Q 550 2928 970 3256 
Q 1391 3584 2113 3584 
Q 2397 3584 2667 3537 
Q 2938 3491 3200 3397 
z
" transform="scale(0.015625)"/>
       <path id="DejaVuSans-Oblique-70" d="M 3175 2156 
Q 3175 2616 2975 2859 
Q 2775 3103 2400 3103 
Q 2144 3103 1911 2972 
Q 1678 2841 1497 2591 
Q 1319 2344 1212 1994 
Q 1106 1644 1106 1300 
Q 1106 863 1306 627 
Q 1506 391 1875 391 
Q 2147 391 2380 519 
Q 2613 647 2778 891 
Q 2956 1147 3065 1494 
Q 3175 1841 3175 2156 
z
M 1394 2969 
Q 1625 3272 1939 3428 
Q 2253 3584 2638 3584 
Q 3175 3584 3472 3232 
Q 3769 2881 3769 2247 
Q 3769 1728 3584 1258 
Q 3400 788 3053 416 
Q 2822 169 2531 39 
Q 2241 -91 1919 -91 
Q 1547 -91 1294 64 
Q 1041 219 916 525 
L 556 -1331 
L -19 -1331 
L 922 3500 
L 1497 3500 
L 1394 2969 
z
" transform="scale(0.015625)"/>
      </defs>
      <use xlink:href="#DejaVuSans-Oblique-3c7" transform="translate(0 0.265625)"/>
      <use xlink:href="#DejaVuSans-Oblique-73" transform="translate(59.179688 -16.140625) scale(0.7)"/>
      <use xlink:href="#DejaVuSans-Oblique-70" transform="translate(95.649414 -16.140625) scale(0.7)"/>
     </g>
    </g>
   </g>
  </g>
  <g id="axes_2">
   <g id="patch_8">
    <path d="M 397.617048 327.013577 
L 702.3125 327.013577 
L 702.3125 22.318125 
L 397.617048 22.318125 
z
" style="fill: #ffffff"/>
   </g>
   <g id="matplotlib.axis_3">
    <g id="xtick_5">
     <g id="line2d_27">
      <path d="M 411.466841 327.013577 
L 411.466841 22.318125 
" clip-path="url(#p8fad77f3b7)" style="fill: none; stroke: #b0b0b0; stroke-width: 0.8; stroke-linecap: square"/>
     </g>
     <g id="line2d_28">
      <g>
       <use xlink:href="#m06e29d7eff" x="411.466841" y="327.013577" style="stroke: #000000; stroke-width: 0.8"/>
      </g>
     </g>
     <g id="text_17">
      <!-- $\Gamma$ -->
      <g transform="translate(408.666841 341.612014) scale(0.1 -0.1)">
       <use xlink:href="#DejaVuSans-393" transform="translate(0 0.09375)"/>
      </g>
     </g>
    </g>
    <g id="xtick_6">
     <g id="line2d_29">
      <path d="M 512.854365 327.013577 
L 512.854365 22.318125 
" clip-path="url(#p8fad77f3b7)" style="fill: none; stroke: #b0b0b0; stroke-width: 0.8; stroke-linecap: square"/>
     </g>
     <g id="line2d_30">
      <g>
       <use xlink:href="#m06e29d7eff" x="512.854365" y="327.013577" style="stroke: #000000; stroke-width: 0.8"/>
      </g>
     </g>
     <g id="text_18">
      <!-- $M$ -->
      <g transform="translate(508.504365 341.612014) scale(0.1 -0.1)">
       <use xlink:href="#DejaVuSans-Oblique-4d" transform="translate(0 0.09375)"/>
      </g>
     </g>
    </g>
    <g id="xtick_7">
     <g id="line2d_31">
      <path d="M 571.390479 327.013577 
L 571.390479 22.318125 
" clip-path="url(#p8fad77f3b7)" style="fill: none; stroke: #b0b0b0; stroke-width: 0.8; stroke-linecap: square"/>
     </g>
     <g id="line2d_32">
      <g>
       <use xlink:href="#m06e29d7eff" x="571.390479" y="327.013577" style="stroke: #000000; stroke-width: 0.8"/>
      </g>
     </g>
     <g id="text_19">
      <!-- $K$ -->
      <g transform="translate(568.090479 341.612014) scale(0.1 -0.1)">
       <use xlink:href="#DejaVuSans-Oblique-4b" transform="translate(0 0.09375)"/>
      </g>
     </g>
    </g>
    <g id="xtick_8">
     <g id="line2d_33">
      <path d="M 688.462707 327.013577 
L 688.462707 22.318125 
" clip-path="url(#p8fad77f3b7)" style="fill: none; stroke: #b0b0b0; stroke-width: 0.8; stroke-linecap: square"/>
     </g>
     <g id="line2d_34">
      <g>
       <use xlink:href="#m06e29d7eff" x="688.462707" y="327.013577" style="stroke: #000000; stroke-width: 0.8"/>
      </g>
     </g>
     <g id="text_20">
      <!-- $\Gamma$ -->
      <g transform="translate(685.662707 341.612014) scale(0.1 -0.1)">
       <use xlink:href="#DejaVuSans-393" transform="translate(0 0.09375)"/>
      </g>
     </g>
    </g>
    <g id="text_21">
     <!-- $\mathbf{k}$ -->
     <g transform="translate(546.614774 355.290139) scale(0.1 -0.1)">
      <use xlink:href="#DejaVuSans-Bold-6b" transform="translate(0 0.015625)"/>
     </g>
    </g>
   </g>
   <g id="matplotlib.axis_4">
    <g id="ytick_7">
     <g id="line2d_35">
      <path d="M 397.617048 327.013577 
L 702.3125 327.013577 
" clip-path="url(#p8fad77f3b7)" style="fill: none; stroke: #b0b0b0; stroke-width: 0.8; stroke-linecap: square"/>
     </g>
     <g id="line2d_36">
      <g>
       <use xlink:href="#m952a71977a" x="397.617048" y="327.013577" style="stroke: #000000; stroke-width: 0.8"/>
      </g>
     </g>
     <g id="text_22">
      <!-- $\mathdefault{10^{-1}}$ -->
      <g transform="translate(367.117048 330.812796) scale(0.1 -0.1)">
       <defs>
        <path id="DejaVuSans-2212" d="M 678 2272 
L 4684 2272 
L 4684 1741 
L 678 1741 
L 678 2272 
z
" transform="scale(0.015625)"/>
       </defs>
       <use xlink:href="#DejaVuSans-31" transform="translate(0 0.684375)"/>
       <use xlink:href="#DejaVuSans-30" transform="translate(63.623047 0.684375)"/>
       <use xlink:href="#DejaVuSans-2212" transform="translate(128.203125 38.965625) scale(0.7)"/>
       <use xlink:href="#DejaVuSans-31" transform="translate(186.855469 38.965625) scale(0.7)"/>
      </g>
     </g>
    </g>
    <g id="ytick_8">
     <g id="line2d_37">
      <path d="M 397.617048 174.665851 
L 702.3125 174.665851 
" clip-path="url(#p8fad77f3b7)" style="fill: none; stroke: #b0b0b0; stroke-width: 0.8; stroke-linecap: square"/>
     </g>
     <g id="line2d_38">
      <g>
       <use xlink:href="#m952a71977a" x="397.617048" y="174.665851" style="stroke: #000000; stroke-width: 0.8"/>
      </g>
     </g>
     <g id="text_23">
      <!-- $\mathdefault{10^{0}}$ -->
      <g transform="translate(373.017048 178.46507) scale(0.1 -0.1)">
       <use xlink:href="#DejaVuSans-31" transform="translate(0 0.765625)"/>
       <use xlink:href="#DejaVuSans-30" transform="translate(63.623047 0.765625)"/>
       <use xlink:href="#DejaVuSans-30" transform="translate(128.203125 39.046875) scale(0.7)"/>
      </g>
     </g>
    </g>
    <g id="ytick_9">
     <g id="line2d_39">
      <path d="M 397.617048 22.318125 
L 702.3125 22.318125 
" clip-path="url(#p8fad77f3b7)" style="fill: none; stroke: #b0b0b0; stroke-width: 0.8; stroke-linecap: square"/>
     </g>
     <g id="line2d_40">
      <g>
       <use xlink:href="#m952a71977a" x="397.617048" y="22.318125" style="stroke: #000000; stroke-width: 0.8"/>
      </g>
     </g>
     <g id="text_24">
      <!-- $\mathdefault{10^{1}}$ -->
      <g transform="translate(373.017048 26.117344) scale(0.1 -0.1)">
       <use xlink:href="#DejaVuSans-31" transform="translate(0 0.684375)"/>
       <use xlink:href="#DejaVuSans-30" transform="translate(63.623047 0.684375)"/>
       <use xlink:href="#DejaVuSans-31" transform="translate(128.203125 38.965625) scale(0.7)"/>
      </g>
     </g>
    </g>
    <g id="ytick_10">
     <g id="line2d_41">
      <defs>
       <path id="m533c073a65" d="M 0 0 
L -2 0 
" style="stroke: #000000; stroke-width: 0.6"/>
      </defs>
      <g>
       <use xlink:href="#m533c073a65" x="397.617048" y="281.152342" style="stroke: #000000; stroke-width: 0.6"/>
      </g>
     </g>
    </g>
    <g id="ytick_11">
     <g id="line2d_42">
      <g>
       <use xlink:href="#m533c073a65" x="397.617048" y="254.325239" style="stroke: #000000; stroke-width: 0.6"/>
      </g>
     </g>
    </g>
    <g id="ytick_12">
     <g id="line2d_43">
      <g>
       <use xlink:href="#m533c073a65" x="397.617048" y="235.291106" style="stroke: #000000; stroke-width: 0.6"/>
      </g>
     </g>
    </g>
    <g id="ytick_13">
     <g id="line2d_44">
      <g>
       <use xlink:href="#m533c073a65" x="397.617048" y="220.527086" style="stroke: #000000; stroke-width: 0.6"/>
      </g>
     </g>
    </g>
    <g id="ytick_14">
     <g id="line2d_45">
      <g>
       <use xlink:href="#m533c073a65" x="397.617048" y="208.464003" style="stroke: #000000; stroke-width: 0.6"/>
      </g>
     </g>
    </g>
    <g id="ytick_15">
     <g id="line2d_46">
      <g>
       <use xlink:href="#m533c073a65" x="397.617048" y="198.264812" style="stroke: #000000; stroke-width: 0.6"/>
      </g>
     </g>
    </g>
    <g id="ytick_16">
     <g id="line2d_47">
      <g>
       <use xlink:href="#m533c073a65" x="397.617048" y="189.429871" style="stroke: #000000; stroke-width: 0.6"/>
      </g>
     </g>
    </g>
    <g id="ytick_17">
     <g id="line2d_48">
      <g>
       <use xlink:href="#m533c073a65" x="397.617048" y="181.636901" style="stroke: #000000; stroke-width: 0.6"/>
      </g>
     </g>
    </g>
    <g id="ytick_18">
     <g id="line2d_49">
      <g>
       <use xlink:href="#m533c073a65" x="397.617048" y="128.804616" style="stroke: #000000; stroke-width: 0.6"/>
      </g>
     </g>
    </g>
    <g id="ytick_19">
     <g id="line2d_50">
      <g>
       <use xlink:href="#m533c073a65" x="397.617048" y="101.977513" style="stroke: #000000; stroke-width: 0.6"/>
      </g>
     </g>
    </g>
    <g id="ytick_20">
     <g id="line2d_51">
      <g>
       <use xlink:href="#m533c073a65" x="397.617048" y="82.94338" style="stroke: #000000; stroke-width: 0.6"/>
      </g>
     </g>
    </g>
    <g id="ytick_21">
     <g id="line2d_52">
      <g>
       <use xlink:href="#m533c073a65" x="397.617048" y="68.17936" style="stroke: #000000; stroke-width: 0.6"/>
      </g>
     </g>
    </g>
    <g id="ytick_22">
     <g id="line2d_53">
      <g>
       <use xlink:href="#m533c073a65" x="397.617048" y="56.116278" style="stroke: #000000; stroke-width: 0.6"/>
      </g>
     </g>
    </g>
    <g id="ytick_23">
     <g id="line2d_54">
      <g>
       <use xlink:href="#m533c073a65" x="397.617048" y="45.917086" style="stroke: #000000; stroke-width: 0.6"/>
      </g>
     </g>
    </g>
    <g id="ytick_24">
     <g id="line2d_55">
      <g>
       <use xlink:href="#m533c073a65" x="397.617048" y="37.082145" style="stroke: #000000; stroke-width: 0.6"/>
      </g>
     </g>
    </g>
    <g id="ytick_25">
     <g id="line2d_56">
      <g>
       <use xlink:href="#m533c073a65" x="397.617048" y="29.289175" style="stroke: #000000; stroke-width: 0.6"/>
      </g>
     </g>
    </g>
    <g id="text_25">
     <!-- Re[$\chi(i\omega = 0, \mathbf{k}$] -->
     <g transform="translate(361.017048 210.815851) rotate(-90) scale(0.1 -0.1)">
      <use xlink:href="#DejaVuSans-52" transform="translate(0 0.015625)"/>
      <use xlink:href="#DejaVuSans-65" transform="translate(69.482422 0.015625)"/>
      <use xlink:href="#DejaVuSans-5b" transform="translate(131.005859 0.015625)"/>
      <use xlink:href="#DejaVuSans-Oblique-3c7" transform="translate(170.019531 0.015625)"/>
      <use xlink:href="#DejaVuSans-28" transform="translate(229.199219 0.015625)"/>
      <use xlink:href="#DejaVuSans-Oblique-69" transform="translate(268.212891 0.015625)"/>
      <use xlink:href="#DejaVuSans-Oblique-3c9" transform="translate(295.996094 0.015625)"/>
      <use xlink:href="#DejaVuSans-3d" transform="translate(399.21875 0.015625)"/>
      <use xlink:href="#DejaVuSans-30" transform="translate(502.490234 0.015625)"/>
      <use xlink:href="#DejaVuSans-2c" transform="translate(566.113281 0.015625)"/>
      <use xlink:href="#DejaVuSans-Bold-6b" transform="translate(617.382812 0.015625)"/>
      <use xlink:href="#DejaVuSans-5d" transform="translate(683.886719 0.015625)"/>
     </g>
    </g>
   </g>
   <g id="line2d_57">
    <path d="M 411.466841 189.992969 
L 414.539191 190.089681 
L 419.659773 190.068909 
L 422.732122 190.30504 
L 425.804471 190.82485 
L 429.900937 191.832726 
L 435.021519 193.035205 
L 439.117984 193.685231 
L 443.21445 194.026268 
L 447.310915 194.084324 
L 451.407381 193.886595 
L 455.503846 193.45365 
L 459.600312 192.797563 
L 463.696778 191.926121 
L 467.793243 190.84451 
L 471.889709 189.557732 
L 475.986174 188.07594 
L 481.106756 185.998936 
L 489.299688 182.589663 
L 492.372037 181.568504 
L 494.42027 181.040574 
L 496.468502 180.658594 
L 499.540852 180.361061 
L 502.613201 180.318531 
L 512.854365 180.664029 
L 512.854365 180.664029 
L 514.628186 182.933546 
L 516.402008 187.95562 
L 520.540925 200.472109 
L 523.497295 207.920399 
L 525.271116 211.778236 
L 527.044938 215.295347 
L 528.81876 218.471893 
L 530.592581 221.391425 
L 531.775129 223.192233 
L 534.731498 227.311101 
L 538.279142 231.487996 
L 541.235511 234.451383 
L 543.009333 236.056763 
L 545.965702 238.468215 
L 550.104619 241.237207 
L 553.060989 242.89985 
L 557.199906 244.718602 
L 560.747549 245.902579 
L 564.295192 246.740614 
L 568.434109 247.27553 
L 571.390479 247.41402 
L 571.390479 247.41402 
L 574.938122 247.243129 
L 578.485765 246.731629 
L 582.033409 245.86596 
L 585.581052 244.626001 
L 589.128695 242.984529 
L 591.493791 241.631481 
L 593.858886 240.116488 
L 597.406529 237.412417 
L 600.954173 234.227579 
L 610.414555 224.757395 
L 612.77965 222.819204 
L 615.144746 221.211841 
L 617.509841 219.989047 
L 619.874937 218.977558 
L 624.605128 217.341709 
L 631.700414 214.981555 
L 636.430605 213.19726 
L 639.978249 211.68067 
L 643.525892 209.994644 
L 647.073535 208.123867 
L 649.438631 206.768074 
L 652.986274 204.574816 
L 657.716465 201.361902 
L 662.446656 197.953798 
L 667.176847 194.623313 
L 669.541943 193.162498 
L 671.907038 191.981346 
L 674.272134 191.065351 
L 676.637229 190.510733 
L 679.002325 190.224007 
L 682.549968 190.115739 
L 687.280159 190.058375 
L 688.462707 189.992969 
L 688.462707 189.992969 
" clip-path="url(#p8fad77f3b7)" style="fill: none; stroke: #1f77b4; stroke-width: 1.5; stroke-linecap: square"/>
   </g>
   <g id="line2d_58">
    <path d="M 411.466841 269.623069 
L 426.828587 269.943878 
L 439.117984 270.753051 
L 446.286799 270.878628 
L 452.431497 270.787461 
L 459.600312 270.477452 
L 467.793243 269.880054 
L 475.986174 269.054026 
L 494.42027 267.061153 
L 499.540852 266.876575 
L 506.709666 266.908653 
L 512.854365 266.958645 
L 512.854365 266.958645 
L 514.628186 267.582768 
L 516.402008 269.023239 
L 524.088569 276.028029 
L 528.227486 279.125751 
L 531.775129 281.447888 
L 535.322772 283.492335 
L 539.461689 285.555999 
L 543.009333 287.084785 
L 546.556976 288.405068 
L 550.695893 289.696533 
L 554.243536 290.603819 
L 557.79118 291.334359 
L 561.338823 291.893305 
L 565.47774 292.332778 
L 569.616657 292.548387 
L 573.755574 292.526527 
L 577.303218 292.327453 
L 580.850861 291.954 
L 584.398504 291.400333 
L 587.946147 290.65901 
L 591.493791 289.721312 
L 595.041434 288.579194 
L 598.589077 287.233185 
L 603.319268 285.177796 
L 609.232007 282.561892 
L 612.77965 281.290462 
L 616.327294 280.369684 
L 619.874937 279.727687 
L 626.970223 278.781454 
L 636.430605 277.48006 
L 643.525892 276.286559 
L 649.438631 275.120783 
L 657.716465 273.247664 
L 668.359395 270.813961 
L 671.907038 270.227211 
L 675.454681 269.857288 
L 679.002325 269.692523 
L 688.462707 269.623069 
L 688.462707 269.623069 
" clip-path="url(#p8fad77f3b7)" style="fill: none; stroke: #ff7f0e; stroke-width: 1.5; stroke-linecap: square"/>
   </g>
   <g id="line2d_59">
    <path d="M 411.466841 105.99429 
L 413.515074 106.385097 
L 418.635656 106.212417 
L 419.659773 106.264172 
L 421.708005 106.693372 
L 423.756238 107.576165 
L 425.804471 108.904895 
L 427.852704 110.548979 
L 432.973286 114.821343 
L 435.021519 116.237454 
L 437.069751 117.395555 
L 439.117984 118.292083 
L 441.166217 118.938971 
L 443.21445 119.352478 
L 446.286799 119.539886 
L 448.335032 119.429064 
L 450.383264 119.125716 
L 452.431497 118.635235 
L 454.47973 117.960679 
L 456.527963 117.10301 
L 458.576196 116.061258 
L 460.624428 114.832614 
L 462.672661 113.41247 
L 464.720894 111.794426 
L 466.769127 109.97031 
L 469.841476 106.807945 
L 471.889709 104.414859 
L 473.937942 101.774492 
L 475.986174 98.875292 
L 478.034407 95.709553 
L 480.08264 92.277995 
L 482.130873 88.596739 
L 485.203222 82.732651 
L 489.299688 74.681565 
L 491.34792 70.961422 
L 493.396153 67.728162 
L 495.444386 65.173933 
L 496.468502 64.190635 
L 497.492619 63.412831 
L 498.516735 62.81661 
L 499.540852 62.446238 
L 500.564968 62.201579 
L 502.613201 62.194414 
L 504.661434 62.583873 
L 509.782016 63.895137 
L 510.806132 64.085771 
L 512.854365 64.228152 
L 512.854365 64.228152 
L 514.036913 72.063222 
L 514.628186 76.386284 
L 515.810734 89.948127 
L 516.402008 98.076126 
L 518.767104 122.829933 
L 520.540925 137.325909 
L 522.906021 151.907429 
L 524.088569 158.222677 
L 527.044938 170.605008 
L 528.227486 174.754778 
L 530.001307 180.373202 
L 531.775129 185.344265 
L 534.140224 191.096557 
L 535.322772 193.69049 
L 538.279142 199.419794 
L 540.644237 203.280666 
L 543.009333 206.683338 
L 545.374428 209.701462 
L 547.14825 211.681918 
L 549.513345 214.094176 
L 553.652262 217.47001 
L 556.608632 219.419134 
L 559.565001 220.92798 
L 561.338823 221.676043 
L 563.703918 222.495095 
L 565.47774 222.939091 
L 567.842836 223.391119 
L 571.390479 223.63625 
L 571.390479 223.63625 
L 574.938122 223.391315 
L 578.485765 222.656478 
L 582.033409 221.406987 
L 584.398504 220.237873 
L 586.7636 218.859112 
L 589.128695 217.193243 
L 591.493791 215.180776 
L 593.858886 212.910253 
L 597.406529 208.78619 
L 600.954173 203.810942 
L 605.684364 195.995291 
L 609.232007 189.98716 
L 611.597103 186.299703 
L 613.962198 183.210027 
L 615.144746 181.825391 
L 617.509841 179.584745 
L 619.874937 177.713982 
L 623.42258 175.365969 
L 630.517867 170.883519 
L 635.248058 167.41843 
L 637.613153 165.512252 
L 641.160796 162.276452 
L 644.70844 158.581759 
L 648.256083 154.355334 
L 652.986274 147.646251 
L 655.35137 143.960826 
L 660.081561 135.401268 
L 665.994299 123.519919 
L 669.541943 116.61158 
L 671.907038 112.776861 
L 673.089586 111.115379 
L 674.272134 109.728103 
L 676.637229 107.812498 
L 677.819777 107.142359 
L 680.184872 106.559088 
L 681.36742 106.41138 
L 686.097611 106.402355 
L 688.462707 105.99429 
L 688.462707 105.99429 
" clip-path="url(#p8fad77f3b7)" style="fill: none; stroke: #2ca02c; stroke-width: 1.5; stroke-linecap: square"/>
   </g>
   <g id="line2d_60"/>
   <g id="patch_9">
    <path d="M 397.617048 327.013577 
L 397.617048 22.318125 
" style="fill: none; stroke: #000000; stroke-width: 0.8; stroke-linejoin: miter; stroke-linecap: square"/>
   </g>
   <g id="patch_10">
    <path d="M 702.3125 327.013577 
L 702.3125 22.318125 
" style="fill: none; stroke: #000000; stroke-width: 0.8; stroke-linejoin: miter; stroke-linecap: square"/>
   </g>
   <g id="patch_11">
    <path d="M 397.617048 327.013577 
L 702.3125 327.013577 
" style="fill: none; stroke: #000000; stroke-width: 0.8; stroke-linejoin: miter; stroke-linecap: square"/>
   </g>
   <g id="patch_12">
    <path d="M 397.617048 22.318125 
L 702.3125 22.318125 
" style="fill: none; stroke: #000000; stroke-width: 0.8; stroke-linejoin: miter; stroke-linecap: square"/>
   </g>
   <g id="text_26">
    <!-- Absolute comparison -->
    <g transform="translate(486.800712 16.318125) scale(0.12 -0.12)">
     <use xlink:href="#DejaVuSans-41"/>
     <use xlink:href="#DejaVuSans-62" transform="translate(68.408203 0)"/>
     <use xlink:href="#DejaVuSans-73" transform="translate(131.884766 0)"/>
     <use xlink:href="#DejaVuSans-6f" transform="translate(183.984375 0)"/>
     <use xlink:href="#DejaVuSans-6c" transform="translate(245.166016 0)"/>
     <use xlink:href="#DejaVuSans-75" transform="translate(272.949219 0)"/>
     <use xlink:href="#DejaVuSans-74" transform="translate(336.328125 0)"/>
     <use xlink:href="#DejaVuSans-65" transform="translate(375.537109 0)"/>
     <use xlink:href="#DejaVuSans-20" transform="translate(437.060547 0)"/>
     <use xlink:href="#DejaVuSans-63" transform="translate(468.847656 0)"/>
     <use xlink:href="#DejaVuSans-6f" transform="translate(523.828125 0)"/>
     <use xlink:href="#DejaVuSans-6d" transform="translate(585.009766 0)"/>
     <use xlink:href="#DejaVuSans-70" transform="translate(682.421875 0)"/>
     <use xlink:href="#DejaVuSans-61" transform="translate(745.898438 0)"/>
     <use xlink:href="#DejaVuSans-72" transform="translate(807.177734 0)"/>
     <use xlink:href="#DejaVuSans-69" transform="translate(848.291016 0)"/>
     <use xlink:href="#DejaVuSans-73" transform="translate(876.074219 0)"/>
     <use xlink:href="#DejaVuSans-6f" transform="translate(928.173828 0)"/>
     <use xlink:href="#DejaVuSans-6e" transform="translate(989.355469 0)"/>
    </g>
   </g>
   <g id="legend_2">
    <g id="patch_13">
     <path d="M 648.8125 75.413437 
L 695.3125 75.413437 
Q 697.3125 75.413437 697.3125 73.413437 
L 697.3125 29.318125 
Q 697.3125 27.318125 695.3125 27.318125 
L 648.8125 27.318125 
Q 646.8125 27.318125 646.8125 29.318125 
L 646.8125 73.413437 
Q 646.8125 75.413437 648.8125 75.413437 
z
" style="fill: #ffffff; opacity: 0.8; stroke: #cccccc; stroke-linejoin: miter"/>
    </g>
    <g id="line2d_61">
     <path d="M 650.8125 35.416562 
L 660.8125 35.416562 
L 670.8125 35.416562 
" style="fill: none; stroke: #1f77b4; stroke-width: 1.5; stroke-linecap: square"/>
    </g>
    <g id="text_27">
     <!-- $\chi_0$ -->
     <g transform="translate(678.8125 38.916562) scale(0.1 -0.1)">
      <use xlink:href="#DejaVuSans-Oblique-3c7" transform="translate(0 0.265625)"/>
      <use xlink:href="#DejaVuSans-30" transform="translate(59.179688 -16.140625) scale(0.7)"/>
     </g>
    </g>
    <g id="line2d_62">
     <path d="M 650.8125 50.115 
L 660.8125 50.115 
L 670.8125 50.115 
" style="fill: none; stroke: #ff7f0e; stroke-width: 1.5; stroke-linecap: square"/>
    </g>
    <g id="text_28">
     <!-- $\chi_{ch}$ -->
     <g transform="translate(678.8125 53.615) scale(0.1 -0.1)">
      <use xlink:href="#DejaVuSans-Oblique-3c7" transform="translate(0 0.265625)"/>
      <use xlink:href="#DejaVuSans-Oblique-63" transform="translate(59.179688 -16.140625) scale(0.7)"/>
      <use xlink:href="#DejaVuSans-Oblique-68" transform="translate(97.666016 -16.140625) scale(0.7)"/>
     </g>
    </g>
    <g id="line2d_63">
     <path d="M 650.8125 64.813438 
L 660.8125 64.813438 
L 670.8125 64.813438 
" style="fill: none; stroke: #2ca02c; stroke-width: 1.5; stroke-linecap: square"/>
    </g>
    <g id="text_29">
     <!-- $\chi_{sp}$ -->
     <g transform="translate(678.8125 68.313438) scale(0.1 -0.1)">
      <use xlink:href="#DejaVuSans-Oblique-3c7" transform="translate(0 0.265625)"/>
      <use xlink:href="#DejaVuSans-Oblique-73" transform="translate(59.179688 -16.140625) scale(0.7)"/>
      <use xlink:href="#DejaVuSans-Oblique-70" transform="translate(95.649414 -16.140625) scale(0.7)"/>
     </g>
    </g>
   </g>
  </g>
 </g>
 <defs>
  <clipPath id="p508cc36489">
   <rect x="34.2625" y="22.318125" width="304.695452" height="304.695452"/>
  </clipPath>
  <clipPath id="p8fad77f3b7">
   <rect x="397.617048" y="22.318125" width="304.695452" height="304.695452"/>
  </clipPath>
 </defs>
</svg>
