<?xml version="1.0" encoding="utf-8" standalone="no"?>
<!DOCTYPE svg PUBLIC "-//W3C//DTD SVG 1.1//EN"
  "http://www.w3.org/Graphics/SVG/1.1/DTD/svg11.dtd">
<svg xmlns:xlink="http://www.w3.org/1999/xlink" width="712.745625pt" height="339.656154pt" viewBox="0 0 712.745625 339.656154" xmlns="http://www.w3.org/2000/svg" version="1.1">
 <metadata>
  <rdf:RDF xmlns:dc="http://purl.org/dc/elements/1.1/" xmlns:cc="http://creativecommons.org/ns#" xmlns:rdf="http://www.w3.org/1999/02/22-rdf-syntax-ns#">
   <cc:Work>
    <dc:type rdf:resource="http://purl.org/dc/dcmitype/StillImage"/>
    <dc:date>2025-03-27T17:16:55.391189</dc:date>
    <dc:format>image/svg+xml</dc:format>
    <dc:creator>
     <cc:Agent>
      <dc:title>Matplotlib v3.6.3, https://matplotlib.org/</dc:title>
     </cc:Agent>
    </dc:creator>
   </cc:Work>
  </rdf:RDF>
 </metadata>
 <defs>
  <style type="text/css">*{stroke-linejoin: round; stroke-linecap: butt}</style>
 </defs>
 <g id="figure_1">
  <g id="patch_1">
   <path d="M 0 339.656154 
L 712.745625 339.656154 
L 712.745625 0 
L 0 0 
z
" style="fill: #ffffff"/>
  </g>
  <g id="axes_1">
   <g id="patch_2">
    <path d="M 36.465625 302.099904 
L 316.247404 302.099904 
L 316.247404 22.318125 
L 36.465625 22.318125 
z
" style="fill: #ffffff"/>
   </g>
   <g id="matplotlib.axis_1">
    <g id="xtick_1">
     <g id="line2d_1">
      <path d="M 49.182979 302.099904 
L 49.182979 22.318125 
" clip-path="url(#pa2d5187a6d)" style="fill: none; stroke: #b0b0b0; stroke-width: 0.8; stroke-linecap: square"/>
     </g>
     <g id="line2d_2">
      <defs>
       <path id="mef496c0055" d="M 0 0 
L 0 3.5 
" style="stroke: #000000; stroke-width: 0.8"/>
      </defs>
      <g>
       <use xlink:href="#mef496c0055" x="49.182979" y="302.099904" style="stroke: #000000; stroke-width: 0.8"/>
      </g>
     </g>
     <g id="text_1">
      <!-- $\Gamma$ -->
      <g transform="translate(46.382979 316.698342) scale(0.1 -0.1)">
       <defs>
        <path id="DejaVuSans-393" d="M 628 0 
L 628 4666 
L 3531 4666 
L 3531 4134 
L 1259 4134 
L 1259 0 
L 628 0 
z
" transform="scale(0.015625)"/>
       </defs>
       <use xlink:href="#DejaVuSans-393" transform="translate(0 0.09375)"/>
      </g>
     </g>
    </g>
    <g id="xtick_2">
     <g id="line2d_3">
      <path d="M 142.280468 302.099904 
L 142.280468 22.318125 
" clip-path="url(#pa2d5187a6d)" style="fill: none; stroke: #b0b0b0; stroke-width: 0.8; stroke-linecap: square"/>
     </g>
     <g id="line2d_4">
      <g>
       <use xlink:href="#mef496c0055" x="142.280468" y="302.099904" style="stroke: #000000; stroke-width: 0.8"/>
      </g>
     </g>
     <g id="text_2">
      <!-- $M$ -->
      <g transform="translate(137.930468 316.698342) scale(0.1 -0.1)">
       <defs>
        <path id="DejaVuSans-Oblique-4d" d="M 1081 4666 
L 2028 4666 
L 2572 1522 
L 4378 4666 
L 5350 4666 
L 4441 0 
L 3828 0 
L 4622 4091 
L 2791 897 
L 2175 897 
L 1581 4103 
L 788 0 
L 172 0 
L 1081 4666 
z
" transform="scale(0.015625)"/>
       </defs>
       <use xlink:href="#DejaVuSans-Oblique-4d" transform="translate(0 0.09375)"/>
      </g>
     </g>
    </g>
    <g id="xtick_3">
     <g id="line2d_5">
      <path d="M 196.030329 302.099904 
L 196.030329 22.318125 
" clip-path="url(#pa2d5187a6d)" style="fill: none; stroke: #b0b0b0; stroke-width: 0.8; stroke-linecap: square"/>
     </g>
     <g id="line2d_6">
      <g>
       <use xlink:href="#mef496c0055" x="196.030329" y="302.099904" style="stroke: #000000; stroke-width: 0.8"/>
      </g>
     </g>
     <g id="text_3">
      <!-- $K$ -->
      <g transform="translate(192.730329 316.698342) scale(0.1 -0.1)">
       <defs>
        <path id="DejaVuSans-Oblique-4b" d="M 1081 4666 
L 1716 4666 
L 1331 2700 
L 3781 4666 
L 4622 4666 
L 1850 2438 
L 3878 0 
L 3109 0 
L 1247 2272 
L 806 0 
L 172 0 
L 1081 4666 
z
" transform="scale(0.015625)"/>
       </defs>
       <use xlink:href="#DejaVuSans-Oblique-4b" transform="translate(0 0.09375)"/>
      </g>
     </g>
    </g>
    <g id="xtick_4">
     <g id="line2d_7">
      <path d="M 303.530051 302.099904 
L 303.530051 22.318125 
" clip-path="url(#pa2d5187a6d)" style="fill: none; stroke: #b0b0b0; stroke-width: 0.8; stroke-linecap: square"/>
     </g>
     <g id="line2d_8">
      <g>
       <use xlink:href="#mef496c0055" x="303.530051" y="302.099904" style="stroke: #000000; stroke-width: 0.8"/>
      </g>
     </g>
     <g id="text_4">
      <!-- $\Gamma$ -->
      <g transform="translate(300.730051 316.698342) scale(0.1 -0.1)">
       <use xlink:href="#DejaVuSans-393" transform="translate(0 0.09375)"/>
      </g>
     </g>
    </g>
    <g id="text_5">
     <!-- $\mathbf{k}$ -->
     <g transform="translate(173.006515 330.376467) scale(0.1 -0.1)">
      <defs>
       <path id="DejaVuSans-Bold-6b" d="M 538 4863 
L 1656 4863 
L 1656 2216 
L 2944 3500 
L 4244 3500 
L 2534 1894 
L 4378 0 
L 3022 0 
L 1656 1459 
L 1656 0 
L 538 0 
L 538 4863 
z
" transform="scale(0.015625)"/>
      </defs>
      <use xlink:href="#DejaVuSans-Bold-6b" transform="translate(0 0.015625)"/>
     </g>
    </g>
   </g>
   <g id="matplotlib.axis_2">
    <g id="ytick_1">
     <g id="line2d_9">
      <path d="M 36.465625 296.851184 
L 316.247404 296.851184 
" clip-path="url(#pa2d5187a6d)" style="fill: none; stroke: #b0b0b0; stroke-width: 0.8; stroke-linecap: square"/>
     </g>
     <g id="line2d_10">
      <defs>
       <path id="me2ae007cce" d="M 0 0 
L -3.5 0 
" style="stroke: #000000; stroke-width: 0.8"/>
      </defs>
      <g>
       <use xlink:href="#me2ae007cce" x="36.465625" y="296.851184" style="stroke: #000000; stroke-width: 0.8"/>
      </g>
     </g>
     <g id="text_6">
      <!-- 0.16 -->
      <g transform="translate(7.2 300.650403) scale(0.1 -0.1)">
       <defs>
        <path id="DejaVuSans-30" d="M 2034 4250 
Q 1547 4250 1301 3770 
Q 1056 3291 1056 2328 
Q 1056 1369 1301 889 
Q 1547 409 2034 409 
Q 2525 409 2770 889 
Q 3016 1369 3016 2328 
Q 3016 3291 2770 3770 
Q 2525 4250 2034 4250 
z
M 2034 4750 
Q 2819 4750 3233 4129 
Q 3647 3509 3647 2328 
Q 3647 1150 3233 529 
Q 2819 -91 2034 -91 
Q 1250 -91 836 529 
Q 422 1150 422 2328 
Q 422 3509 836 4129 
Q 1250 4750 2034 4750 
z
" transform="scale(0.015625)"/>
        <path id="DejaVuSans-2e" d="M 684 794 
L 1344 794 
L 1344 0 
L 684 0 
L 684 794 
z
" transform="scale(0.015625)"/>
        <path id="DejaVuSans-31" d="M 794 531 
L 1825 531 
L 1825 4091 
L 703 3866 
L 703 4441 
L 1819 4666 
L 2450 4666 
L 2450 531 
L 3481 531 
L 3481 0 
L 794 0 
L 794 531 
z
" transform="scale(0.015625)"/>
        <path id="DejaVuSans-36" d="M 2113 2584 
Q 1688 2584 1439 2293 
Q 1191 2003 1191 1497 
Q 1191 994 1439 701 
Q 1688 409 2113 409 
Q 2538 409 2786 701 
Q 3034 994 3034 1497 
Q 3034 2003 2786 2293 
Q 2538 2584 2113 2584 
z
M 3366 4563 
L 3366 3988 
Q 3128 4100 2886 4159 
Q 2644 4219 2406 4219 
Q 1781 4219 1451 3797 
Q 1122 3375 1075 2522 
Q 1259 2794 1537 2939 
Q 1816 3084 2150 3084 
Q 2853 3084 3261 2657 
Q 3669 2231 3669 1497 
Q 3669 778 3244 343 
Q 2819 -91 2113 -91 
Q 1303 -91 875 529 
Q 447 1150 447 2328 
Q 447 3434 972 4092 
Q 1497 4750 2381 4750 
Q 2619 4750 2861 4703 
Q 3103 4656 3366 4563 
z
" transform="scale(0.015625)"/>
       </defs>
       <use xlink:href="#DejaVuSans-30"/>
       <use xlink:href="#DejaVuSans-2e" x="63.623047"/>
       <use xlink:href="#DejaVuSans-31" x="95.410156"/>
       <use xlink:href="#DejaVuSans-36" x="159.033203"/>
      </g>
     </g>
    </g>
    <g id="ytick_2">
     <g id="line2d_11">
      <path d="M 36.465625 265.174454 
L 316.247404 265.174454 
" clip-path="url(#pa2d5187a6d)" style="fill: none; stroke: #b0b0b0; stroke-width: 0.8; stroke-linecap: square"/>
     </g>
     <g id="line2d_12">
      <g>
       <use xlink:href="#me2ae007cce" x="36.465625" y="265.174454" style="stroke: #000000; stroke-width: 0.8"/>
      </g>
     </g>
     <g id="text_7">
      <!-- 0.17 -->
      <g transform="translate(7.2 268.973672) scale(0.1 -0.1)">
       <defs>
        <path id="DejaVuSans-37" d="M 525 4666 
L 3525 4666 
L 3525 4397 
L 1831 0 
L 1172 0 
L 2766 4134 
L 525 4134 
L 525 4666 
z
" transform="scale(0.015625)"/>
       </defs>
       <use xlink:href="#DejaVuSans-30"/>
       <use xlink:href="#DejaVuSans-2e" x="63.623047"/>
       <use xlink:href="#DejaVuSans-31" x="95.410156"/>
       <use xlink:href="#DejaVuSans-37" x="159.033203"/>
      </g>
     </g>
    </g>
    <g id="ytick_3">
     <g id="line2d_13">
      <path d="M 36.465625 233.497723 
L 316.247404 233.497723 
" clip-path="url(#pa2d5187a6d)" style="fill: none; stroke: #b0b0b0; stroke-width: 0.8; stroke-linecap: square"/>
     </g>
     <g id="line2d_14">
      <g>
       <use xlink:href="#me2ae007cce" x="36.465625" y="233.497723" style="stroke: #000000; stroke-width: 0.8"/>
      </g>
     </g>
     <g id="text_8">
      <!-- 0.18 -->
      <g transform="translate(7.2 237.296942) scale(0.1 -0.1)">
       <defs>
        <path id="DejaVuSans-38" d="M 2034 2216 
Q 1584 2216 1326 1975 
Q 1069 1734 1069 1313 
Q 1069 891 1326 650 
Q 1584 409 2034 409 
Q 2484 409 2743 651 
Q 3003 894 3003 1313 
Q 3003 1734 2745 1975 
Q 2488 2216 2034 2216 
z
M 1403 2484 
Q 997 2584 770 2862 
Q 544 3141 544 3541 
Q 544 4100 942 4425 
Q 1341 4750 2034 4750 
Q 2731 4750 3128 4425 
Q 3525 4100 3525 3541 
Q 3525 3141 3298 2862 
Q 3072 2584 2669 2484 
Q 3125 2378 3379 2068 
Q 3634 1759 3634 1313 
Q 3634 634 3220 271 
Q 2806 -91 2034 -91 
Q 1263 -91 848 271 
Q 434 634 434 1313 
Q 434 1759 690 2068 
Q 947 2378 1403 2484 
z
M 1172 3481 
Q 1172 3119 1398 2916 
Q 1625 2713 2034 2713 
Q 2441 2713 2670 2916 
Q 2900 3119 2900 3481 
Q 2900 3844 2670 4047 
Q 2441 4250 2034 4250 
Q 1625 4250 1398 4047 
Q 1172 3844 1172 3481 
z
" transform="scale(0.015625)"/>
       </defs>
       <use xlink:href="#DejaVuSans-30"/>
       <use xlink:href="#DejaVuSans-2e" x="63.623047"/>
       <use xlink:href="#DejaVuSans-31" x="95.410156"/>
       <use xlink:href="#DejaVuSans-38" x="159.033203"/>
      </g>
     </g>
    </g>
    <g id="ytick_4">
     <g id="line2d_15">
      <path d="M 36.465625 201.820993 
L 316.247404 201.820993 
" clip-path="url(#pa2d5187a6d)" style="fill: none; stroke: #b0b0b0; stroke-width: 0.8; stroke-linecap: square"/>
     </g>
     <g id="line2d_16">
      <g>
       <use xlink:href="#me2ae007cce" x="36.465625" y="201.820993" style="stroke: #000000; stroke-width: 0.8"/>
      </g>
     </g>
     <g id="text_9">
      <!-- 0.19 -->
      <g transform="translate(7.2 205.620212) scale(0.1 -0.1)">
       <defs>
        <path id="DejaVuSans-39" d="M 703 97 
L 703 672 
Q 941 559 1184 500 
Q 1428 441 1663 441 
Q 2288 441 2617 861 
Q 2947 1281 2994 2138 
Q 2813 1869 2534 1725 
Q 2256 1581 1919 1581 
Q 1219 1581 811 2004 
Q 403 2428 403 3163 
Q 403 3881 828 4315 
Q 1253 4750 1959 4750 
Q 2769 4750 3195 4129 
Q 3622 3509 3622 2328 
Q 3622 1225 3098 567 
Q 2575 -91 1691 -91 
Q 1453 -91 1209 -44 
Q 966 3 703 97 
z
M 1959 2075 
Q 2384 2075 2632 2365 
Q 2881 2656 2881 3163 
Q 2881 3666 2632 3958 
Q 2384 4250 1959 4250 
Q 1534 4250 1286 3958 
Q 1038 3666 1038 3163 
Q 1038 2656 1286 2365 
Q 1534 2075 1959 2075 
z
" transform="scale(0.015625)"/>
       </defs>
       <use xlink:href="#DejaVuSans-30"/>
       <use xlink:href="#DejaVuSans-2e" x="63.623047"/>
       <use xlink:href="#DejaVuSans-31" x="95.410156"/>
       <use xlink:href="#DejaVuSans-39" x="159.033203"/>
      </g>
     </g>
    </g>
    <g id="ytick_5">
     <g id="line2d_17">
      <path d="M 36.465625 170.144263 
L 316.247404 170.144263 
" clip-path="url(#pa2d5187a6d)" style="fill: none; stroke: #b0b0b0; stroke-width: 0.8; stroke-linecap: square"/>
     </g>
     <g id="line2d_18">
      <g>
       <use xlink:href="#me2ae007cce" x="36.465625" y="170.144263" style="stroke: #000000; stroke-width: 0.8"/>
      </g>
     </g>
     <g id="text_10">
      <!-- 0.20 -->
      <g transform="translate(7.2 173.943481) scale(0.1 -0.1)">
       <defs>
        <path id="DejaVuSans-32" d="M 1228 531 
L 3431 531 
L 3431 0 
L 469 0 
L 469 531 
Q 828 903 1448 1529 
Q 2069 2156 2228 2338 
Q 2531 2678 2651 2914 
Q 2772 3150 2772 3378 
Q 2772 3750 2511 3984 
Q 2250 4219 1831 4219 
Q 1534 4219 1204 4116 
Q 875 4013 500 3803 
L 500 4441 
Q 881 4594 1212 4672 
Q 1544 4750 1819 4750 
Q 2544 4750 2975 4387 
Q 3406 4025 3406 3419 
Q 3406 3131 3298 2873 
Q 3191 2616 2906 2266 
Q 2828 2175 2409 1742 
Q 1991 1309 1228 531 
z
" transform="scale(0.015625)"/>
       </defs>
       <use xlink:href="#DejaVuSans-30"/>
       <use xlink:href="#DejaVuSans-2e" x="63.623047"/>
       <use xlink:href="#DejaVuSans-32" x="95.410156"/>
       <use xlink:href="#DejaVuSans-30" x="159.033203"/>
      </g>
     </g>
    </g>
    <g id="ytick_6">
     <g id="line2d_19">
      <path d="M 36.465625 138.467532 
L 316.247404 138.467532 
" clip-path="url(#pa2d5187a6d)" style="fill: none; stroke: #b0b0b0; stroke-width: 0.8; stroke-linecap: square"/>
     </g>
     <g id="line2d_20">
      <g>
       <use xlink:href="#me2ae007cce" x="36.465625" y="138.467532" style="stroke: #000000; stroke-width: 0.8"/>
      </g>
     </g>
     <g id="text_11">
      <!-- 0.21 -->
      <g transform="translate(7.2 142.266751) scale(0.1 -0.1)">
       <use xlink:href="#DejaVuSans-30"/>
       <use xlink:href="#DejaVuSans-2e" x="63.623047"/>
       <use xlink:href="#DejaVuSans-32" x="95.410156"/>
       <use xlink:href="#DejaVuSans-31" x="159.033203"/>
      </g>
     </g>
    </g>
    <g id="ytick_7">
     <g id="line2d_21">
      <path d="M 36.465625 106.790802 
L 316.247404 106.790802 
" clip-path="url(#pa2d5187a6d)" style="fill: none; stroke: #b0b0b0; stroke-width: 0.8; stroke-linecap: square"/>
     </g>
     <g id="line2d_22">
      <g>
       <use xlink:href="#me2ae007cce" x="36.465625" y="106.790802" style="stroke: #000000; stroke-width: 0.8"/>
      </g>
     </g>
     <g id="text_12">
      <!-- 0.22 -->
      <g transform="translate(7.2 110.590021) scale(0.1 -0.1)">
       <use xlink:href="#DejaVuSans-30"/>
       <use xlink:href="#DejaVuSans-2e" x="63.623047"/>
       <use xlink:href="#DejaVuSans-32" x="95.410156"/>
       <use xlink:href="#DejaVuSans-32" x="159.033203"/>
      </g>
     </g>
    </g>
    <g id="ytick_8">
     <g id="line2d_23">
      <path d="M 36.465625 75.114072 
L 316.247404 75.114072 
" clip-path="url(#pa2d5187a6d)" style="fill: none; stroke: #b0b0b0; stroke-width: 0.8; stroke-linecap: square"/>
     </g>
     <g id="line2d_24">
      <g>
       <use xlink:href="#me2ae007cce" x="36.465625" y="75.114072" style="stroke: #000000; stroke-width: 0.8"/>
      </g>
     </g>
     <g id="text_13">
      <!-- 0.23 -->
      <g transform="translate(7.2 78.913291) scale(0.1 -0.1)">
       <defs>
        <path id="DejaVuSans-33" d="M 2597 2516 
Q 3050 2419 3304 2112 
Q 3559 1806 3559 1356 
Q 3559 666 3084 287 
Q 2609 -91 1734 -91 
Q 1441 -91 1130 -33 
Q 819 25 488 141 
L 488 750 
Q 750 597 1062 519 
Q 1375 441 1716 441 
Q 2309 441 2620 675 
Q 2931 909 2931 1356 
Q 2931 1769 2642 2001 
Q 2353 2234 1838 2234 
L 1294 2234 
L 1294 2753 
L 1863 2753 
Q 2328 2753 2575 2939 
Q 2822 3125 2822 3475 
Q 2822 3834 2567 4026 
Q 2313 4219 1838 4219 
Q 1578 4219 1281 4162 
Q 984 4106 628 3988 
L 628 4550 
Q 988 4650 1302 4700 
Q 1616 4750 1894 4750 
Q 2613 4750 3031 4423 
Q 3450 4097 3450 3541 
Q 3450 3153 3228 2886 
Q 3006 2619 2597 2516 
z
" transform="scale(0.015625)"/>
       </defs>
       <use xlink:href="#DejaVuSans-30"/>
       <use xlink:href="#DejaVuSans-2e" x="63.623047"/>
       <use xlink:href="#DejaVuSans-32" x="95.410156"/>
       <use xlink:href="#DejaVuSans-33" x="159.033203"/>
      </g>
     </g>
    </g>
    <g id="ytick_9">
     <g id="line2d_25">
      <path d="M 36.465625 43.437342 
L 316.247404 43.437342 
" clip-path="url(#pa2d5187a6d)" style="fill: none; stroke: #b0b0b0; stroke-width: 0.8; stroke-linecap: square"/>
     </g>
     <g id="line2d_26">
      <g>
       <use xlink:href="#me2ae007cce" x="36.465625" y="43.437342" style="stroke: #000000; stroke-width: 0.8"/>
      </g>
     </g>
     <g id="text_14">
      <!-- 0.24 -->
      <g transform="translate(7.2 47.23656) scale(0.1 -0.1)">
       <defs>
        <path id="DejaVuSans-34" d="M 2419 4116 
L 825 1625 
L 2419 1625 
L 2419 4116 
z
M 2253 4666 
L 3047 4666 
L 3047 1625 
L 3713 1625 
L 3713 1100 
L 3047 1100 
L 3047 0 
L 2419 0 
L 2419 1100 
L 313 1100 
L 313 1709 
L 2253 4666 
z
" transform="scale(0.015625)"/>
       </defs>
       <use xlink:href="#DejaVuSans-30"/>
       <use xlink:href="#DejaVuSans-2e" x="63.623047"/>
       <use xlink:href="#DejaVuSans-32" x="95.410156"/>
       <use xlink:href="#DejaVuSans-34" x="159.033203"/>
      </g>
     </g>
    </g>
   </g>
   <g id="line2d_27">
    <path d="M 49.182979 165.691549 
L 63.288659 165.54575 
L 76.45396 165.149862 
L 89.619262 164.498374 
L 100.903806 163.737197 
L 113.128729 162.701667 
L 126.294031 161.331139 
L 137.578575 159.946329 
L 142.823396 159.355351 
L 152.596098 160.004731 
L 161.282944 160.383121 
L 171.055646 160.584413 
L 180.28542 160.559373 
L 190.058122 160.300829 
L 197.116185 160.143556 
L 212.318166 161.626339 
L 227.520147 162.875235 
L 241.636272 163.825989 
L 256.838252 164.630827 
L 272.040233 165.209908 
L 288.32807 165.577637 
L 303.530051 165.691549 
L 303.530051 165.691549 
" clip-path="url(#pa2d5187a6d)" style="fill: none; stroke: #1f77b4; stroke-width: 1.5; stroke-linecap: square"/>
   </g>
   <g id="line2d_28">
    <path d="M 49.182979 289.382551 
L 66.109795 289.245679 
L 81.155854 288.898992 
L 98.08267 288.248202 
L 112.18835 287.497012 
L 126.294031 286.552758 
L 141.34009 285.328859 
L 142.823396 285.272989 
L 155.310738 285.783264 
L 167.798079 286.042811 
L 180.28542 286.052682 
L 192.229834 285.828096 
L 197.116185 285.783345 
L 216.661589 286.99147 
L 236.206993 287.949341 
L 255.752397 288.661283 
L 275.297801 289.130207 
L 293.757349 289.351369 
L 303.530051 289.382551 
L 303.530051 289.382551 
" clip-path="url(#pa2d5187a6d)" style="fill: none; stroke: #ff7f0e; stroke-width: 1.5; stroke-linecap: square"/>
   </g>
   <g id="line2d_29">
    <path d="M 49.182979 44.096366 
L 61.407902 43.939132 
L 70.811688 43.610755 
L 80.215475 43.099469 
L 89.619262 42.404425 
L 99.023049 41.524456 
L 109.367214 40.339055 
L 119.71138 38.926259 
L 130.055545 37.281405 
L 139.459332 35.583155 
L 142.280468 35.035479 
L 142.280468 35.035479 
L 149.881459 35.799872 
L 158.568305 36.419489 
L 166.169295 36.744941 
L 174.856142 36.867747 
L 183.542988 36.724799 
L 191.686906 36.349198 
L 196.030329 36.055698 
L 196.030329 36.055698 
L 209.060598 37.90338 
L 222.090868 39.503422 
L 234.035281 40.75743 
L 245.979695 41.809358 
L 257.924108 42.661175 
L 269.868522 43.314449 
L 281.812935 43.770355 
L 294.843205 44.042268 
L 303.530051 44.096366 
L 303.530051 44.096366 
" clip-path="url(#pa2d5187a6d)" style="fill: none; stroke: #2ca02c; stroke-width: 1.5; stroke-linecap: square"/>
   </g>
   <g id="patch_3">
    <path d="M 36.465625 302.099904 
L 36.465625 22.318125 
" style="fill: none; stroke: #000000; stroke-width: 0.8; stroke-linejoin: miter; stroke-linecap: square"/>
   </g>
   <g id="patch_4">
    <path d="M 316.247404 302.099904 
L 316.247404 22.318125 
" style="fill: none; stroke: #000000; stroke-width: 0.8; stroke-linejoin: miter; stroke-linecap: square"/>
   </g>
   <g id="patch_5">
    <path d="M 36.465625 302.099904 
L 316.247404 302.099904 
" style="fill: none; stroke: #000000; stroke-width: 0.8; stroke-linejoin: miter; stroke-linecap: square"/>
   </g>
   <g id="patch_6">
    <path d="M 36.465625 22.318125 
L 316.247404 22.318125 
" style="fill: none; stroke: #000000; stroke-width: 0.8; stroke-linejoin: miter; stroke-linecap: square"/>
   </g>
   <g id="text_15">
    <!-- Absolute comparison -->
    <g transform="translate(113.192452 16.318125) scale(0.12 -0.12)">
     <defs>
      <path id="DejaVuSans-41" d="M 2188 4044 
L 1331 1722 
L 3047 1722 
L 2188 4044 
z
M 1831 4666 
L 2547 4666 
L 4325 0 
L 3669 0 
L 3244 1197 
L 1141 1197 
L 716 0 
L 50 0 
L 1831 4666 
z
" transform="scale(0.015625)"/>
      <path id="DejaVuSans-62" d="M 3116 1747 
Q 3116 2381 2855 2742 
Q 2594 3103 2138 3103 
Q 1681 3103 1420 2742 
Q 1159 2381 1159 1747 
Q 1159 1113 1420 752 
Q 1681 391 2138 391 
Q 2594 391 2855 752 
Q 3116 1113 3116 1747 
z
M 1159 2969 
Q 1341 3281 1617 3432 
Q 1894 3584 2278 3584 
Q 2916 3584 3314 3078 
Q 3713 2572 3713 1747 
Q 3713 922 3314 415 
Q 2916 -91 2278 -91 
Q 1894 -91 1617 61 
Q 1341 213 1159 525 
L 1159 0 
L 581 0 
L 581 4863 
L 1159 4863 
L 1159 2969 
z
" transform="scale(0.015625)"/>
      <path id="DejaVuSans-73" d="M 2834 3397 
L 2834 2853 
Q 2591 2978 2328 3040 
Q 2066 3103 1784 3103 
Q 1356 3103 1142 2972 
Q 928 2841 928 2578 
Q 928 2378 1081 2264 
Q 1234 2150 1697 2047 
L 1894 2003 
Q 2506 1872 2764 1633 
Q 3022 1394 3022 966 
Q 3022 478 2636 193 
Q 2250 -91 1575 -91 
Q 1294 -91 989 -36 
Q 684 19 347 128 
L 347 722 
Q 666 556 975 473 
Q 1284 391 1588 391 
Q 1994 391 2212 530 
Q 2431 669 2431 922 
Q 2431 1156 2273 1281 
Q 2116 1406 1581 1522 
L 1381 1569 
Q 847 1681 609 1914 
Q 372 2147 372 2553 
Q 372 3047 722 3315 
Q 1072 3584 1716 3584 
Q 2034 3584 2315 3537 
Q 2597 3491 2834 3397 
z
" transform="scale(0.015625)"/>
      <path id="DejaVuSans-6f" d="M 1959 3097 
Q 1497 3097 1228 2736 
Q 959 2375 959 1747 
Q 959 1119 1226 758 
Q 1494 397 1959 397 
Q 2419 397 2687 759 
Q 2956 1122 2956 1747 
Q 2956 2369 2687 2733 
Q 2419 3097 1959 3097 
z
M 1959 3584 
Q 2709 3584 3137 3096 
Q 3566 2609 3566 1747 
Q 3566 888 3137 398 
Q 2709 -91 1959 -91 
Q 1206 -91 779 398 
Q 353 888 353 1747 
Q 353 2609 779 3096 
Q 1206 3584 1959 3584 
z
" transform="scale(0.015625)"/>
      <path id="DejaVuSans-6c" d="M 603 4863 
L 1178 4863 
L 1178 0 
L 603 0 
L 603 4863 
z
" transform="scale(0.015625)"/>
      <path id="DejaVuSans-75" d="M 544 1381 
L 544 3500 
L 1119 3500 
L 1119 1403 
Q 1119 906 1312 657 
Q 1506 409 1894 409 
Q 2359 409 2629 706 
Q 2900 1003 2900 1516 
L 2900 3500 
L 3475 3500 
L 3475 0 
L 2900 0 
L 2900 538 
Q 2691 219 2414 64 
Q 2138 -91 1772 -91 
Q 1169 -91 856 284 
Q 544 659 544 1381 
z
M 1991 3584 
L 1991 3584 
z
" transform="scale(0.015625)"/>
      <path id="DejaVuSans-74" d="M 1172 4494 
L 1172 3500 
L 2356 3500 
L 2356 3053 
L 1172 3053 
L 1172 1153 
Q 1172 725 1289 603 
Q 1406 481 1766 481 
L 2356 481 
L 2356 0 
L 1766 0 
Q 1100 0 847 248 
Q 594 497 594 1153 
L 594 3053 
L 172 3053 
L 172 3500 
L 594 3500 
L 594 4494 
L 1172 4494 
z
" transform="scale(0.015625)"/>
      <path id="DejaVuSans-65" d="M 3597 1894 
L 3597 1613 
L 953 1613 
Q 991 1019 1311 708 
Q 1631 397 2203 397 
Q 2534 397 2845 478 
Q 3156 559 3463 722 
L 3463 178 
Q 3153 47 2828 -22 
Q 2503 -91 2169 -91 
Q 1331 -91 842 396 
Q 353 884 353 1716 
Q 353 2575 817 3079 
Q 1281 3584 2069 3584 
Q 2775 3584 3186 3129 
Q 3597 2675 3597 1894 
z
M 3022 2063 
Q 3016 2534 2758 2815 
Q 2500 3097 2075 3097 
Q 1594 3097 1305 2825 
Q 1016 2553 972 2059 
L 3022 2063 
z
" transform="scale(0.015625)"/>
      <path id="DejaVuSans-20" transform="scale(0.015625)"/>
      <path id="DejaVuSans-63" d="M 3122 3366 
L 3122 2828 
Q 2878 2963 2633 3030 
Q 2388 3097 2138 3097 
Q 1578 3097 1268 2742 
Q 959 2388 959 1747 
Q 959 1106 1268 751 
Q 1578 397 2138 397 
Q 2388 397 2633 464 
Q 2878 531 3122 666 
L 3122 134 
Q 2881 22 2623 -34 
Q 2366 -91 2075 -91 
Q 1284 -91 818 406 
Q 353 903 353 1747 
Q 353 2603 823 3093 
Q 1294 3584 2113 3584 
Q 2378 3584 2631 3529 
Q 2884 3475 3122 3366 
z
" transform="scale(0.015625)"/>
      <path id="DejaVuSans-6d" d="M 3328 2828 
Q 3544 3216 3844 3400 
Q 4144 3584 4550 3584 
Q 5097 3584 5394 3201 
Q 5691 2819 5691 2113 
L 5691 0 
L 5113 0 
L 5113 2094 
Q 5113 2597 4934 2840 
Q 4756 3084 4391 3084 
Q 3944 3084 3684 2787 
Q 3425 2491 3425 1978 
L 3425 0 
L 2847 0 
L 2847 2094 
Q 2847 2600 2669 2842 
Q 2491 3084 2119 3084 
Q 1678 3084 1418 2786 
Q 1159 2488 1159 1978 
L 1159 0 
L 581 0 
L 581 3500 
L 1159 3500 
L 1159 2956 
Q 1356 3278 1631 3431 
Q 1906 3584 2284 3584 
Q 2666 3584 2933 3390 
Q 3200 3197 3328 2828 
z
" transform="scale(0.015625)"/>
      <path id="DejaVuSans-70" d="M 1159 525 
L 1159 -1331 
L 581 -1331 
L 581 3500 
L 1159 3500 
L 1159 2969 
Q 1341 3281 1617 3432 
Q 1894 3584 2278 3584 
Q 2916 3584 3314 3078 
Q 3713 2572 3713 1747 
Q 3713 922 3314 415 
Q 2916 -91 2278 -91 
Q 1894 -91 1617 61 
Q 1341 213 1159 525 
z
M 3116 1747 
Q 3116 2381 2855 2742 
Q 2594 3103 2138 3103 
Q 1681 3103 1420 2742 
Q 1159 2381 1159 1747 
Q 1159 1113 1420 752 
Q 1681 391 2138 391 
Q 2594 391 2855 752 
Q 3116 1113 3116 1747 
z
" transform="scale(0.015625)"/>
      <path id="DejaVuSans-61" d="M 2194 1759 
Q 1497 1759 1228 1600 
Q 959 1441 959 1056 
Q 959 750 1161 570 
Q 1363 391 1709 391 
Q 2188 391 2477 730 
Q 2766 1069 2766 1631 
L 2766 1759 
L 2194 1759 
z
M 3341 1997 
L 3341 0 
L 2766 0 
L 2766 531 
Q 2569 213 2275 61 
Q 1981 -91 1556 -91 
Q 1019 -91 701 211 
Q 384 513 384 1019 
Q 384 1609 779 1909 
Q 1175 2209 1959 2209 
L 2766 2209 
L 2766 2266 
Q 2766 2663 2505 2880 
Q 2244 3097 1772 3097 
Q 1472 3097 1187 3025 
Q 903 2953 641 2809 
L 641 3341 
Q 956 3463 1253 3523 
Q 1550 3584 1831 3584 
Q 2591 3584 2966 3190 
Q 3341 2797 3341 1997 
z
" transform="scale(0.015625)"/>
      <path id="DejaVuSans-72" d="M 2631 2963 
Q 2534 3019 2420 3045 
Q 2306 3072 2169 3072 
Q 1681 3072 1420 2755 
Q 1159 2438 1159 1844 
L 1159 0 
L 581 0 
L 581 3500 
L 1159 3500 
L 1159 2956 
Q 1341 3275 1631 3429 
Q 1922 3584 2338 3584 
Q 2397 3584 2469 3576 
Q 2541 3569 2628 3553 
L 2631 2963 
z
" transform="scale(0.015625)"/>
      <path id="DejaVuSans-69" d="M 603 3500 
L 1178 3500 
L 1178 0 
L 603 0 
L 603 3500 
z
M 603 4863 
L 1178 4863 
L 1178 4134 
L 603 4134 
L 603 4863 
z
" transform="scale(0.015625)"/>
      <path id="DejaVuSans-6e" d="M 3513 2113 
L 3513 0 
L 2938 0 
L 2938 2094 
Q 2938 2591 2744 2837 
Q 2550 3084 2163 3084 
Q 1697 3084 1428 2787 
Q 1159 2491 1159 1978 
L 1159 0 
L 581 0 
L 581 3500 
L 1159 3500 
L 1159 2956 
Q 1366 3272 1645 3428 
Q 1925 3584 2291 3584 
Q 2894 3584 3203 3211 
Q 3513 2838 3513 2113 
z
" transform="scale(0.015625)"/>
     </defs>
     <use xlink:href="#DejaVuSans-41"/>
     <use xlink:href="#DejaVuSans-62" x="68.408203"/>
     <use xlink:href="#DejaVuSans-73" x="131.884766"/>
     <use xlink:href="#DejaVuSans-6f" x="183.984375"/>
     <use xlink:href="#DejaVuSans-6c" x="245.166016"/>
     <use xlink:href="#DejaVuSans-75" x="272.949219"/>
     <use xlink:href="#DejaVuSans-74" x="336.328125"/>
     <use xlink:href="#DejaVuSans-65" x="375.537109"/>
     <use xlink:href="#DejaVuSans-20" x="437.060547"/>
     <use xlink:href="#DejaVuSans-63" x="468.847656"/>
     <use xlink:href="#DejaVuSans-6f" x="523.828125"/>
     <use xlink:href="#DejaVuSans-6d" x="585.009766"/>
     <use xlink:href="#DejaVuSans-70" x="682.421875"/>
     <use xlink:href="#DejaVuSans-61" x="745.898438"/>
     <use xlink:href="#DejaVuSans-72" x="807.177734"/>
     <use xlink:href="#DejaVuSans-69" x="848.291016"/>
     <use xlink:href="#DejaVuSans-73" x="876.074219"/>
     <use xlink:href="#DejaVuSans-6f" x="928.173828"/>
     <use xlink:href="#DejaVuSans-6e" x="989.355469"/>
    </g>
   </g>
   <g id="legend_1">
    <g id="patch_7">
     <path d="M 323.247404 75.413437 
L 369.747404 75.413437 
Q 371.747404 75.413437 371.747404 73.413437 
L 371.747404 29.318125 
Q 371.747404 27.318125 369.747404 27.318125 
L 323.247404 27.318125 
Q 321.247404 27.318125 321.247404 29.318125 
L 321.247404 73.413437 
Q 321.247404 75.413437 323.247404 75.413437 
z
" style="fill: #ffffff; opacity: 0.8; stroke: #cccccc; stroke-linejoin: miter"/>
    </g>
    <g id="line2d_30">
     <path d="M 325.247404 35.416562 
L 335.247404 35.416562 
L 345.247404 35.416562 
" style="fill: none; stroke: #1f77b4; stroke-width: 1.5; stroke-linecap: square"/>
    </g>
    <g id="text_16">
     <!-- $\chi_0$ -->
     <g transform="translate(353.247404 38.916562) scale(0.1 -0.1)">
      <defs>
       <path id="DejaVuSans-Oblique-3c7" d="M 1922 -781 
L 1691 416 
L 394 -1334 
L -284 -1334 
L 1553 1141 
L 1269 2613 
Q 1194 3006 713 3006 
L 559 3006 
L 653 3500 
L 872 3494 
Q 1675 3472 1775 2950 
L 2006 1753 
L 3303 3503 
L 3981 3503 
L 2144 1028 
L 2428 -444 
Q 2503 -838 2984 -838 
L 3138 -838 
L 3044 -1331 
L 2825 -1325 
Q 2022 -1303 1922 -781 
z
" transform="scale(0.015625)"/>
      </defs>
      <use xlink:href="#DejaVuSans-Oblique-3c7" transform="translate(0 0.265625)"/>
      <use xlink:href="#DejaVuSans-30" transform="translate(59.179688 -16.140625) scale(0.7)"/>
     </g>
    </g>
    <g id="line2d_31">
     <path d="M 325.247404 50.115 
L 335.247404 50.115 
L 345.247404 50.115 
" style="fill: none; stroke: #ff7f0e; stroke-width: 1.5; stroke-linecap: square"/>
    </g>
    <g id="text_17">
     <!-- $\chi_{ch}$ -->
     <g transform="translate(353.247404 53.615) scale(0.1 -0.1)">
      <defs>
       <path id="DejaVuSans-Oblique-63" d="M 3431 3366 
L 3316 2797 
Q 3109 2947 2876 3022 
Q 2644 3097 2394 3097 
Q 2119 3097 1870 3000 
Q 1622 2903 1453 2725 
Q 1184 2453 1037 2087 
Q 891 1722 891 1331 
Q 891 859 1127 628 
Q 1363 397 1844 397 
Q 2081 397 2348 469 
Q 2616 541 2906 684 
L 2797 116 
Q 2547 13 2283 -39 
Q 2019 -91 1741 -91 
Q 1044 -91 669 257 
Q 294 606 294 1253 
Q 294 1797 489 2255 
Q 684 2713 1069 3078 
Q 1331 3328 1684 3456 
Q 2038 3584 2456 3584 
Q 2700 3584 2940 3529 
Q 3181 3475 3431 3366 
z
" transform="scale(0.015625)"/>
       <path id="DejaVuSans-Oblique-68" d="M 3566 2113 
L 3156 0 
L 2578 0 
L 2988 2091 
Q 3016 2238 3031 2350 
Q 3047 2463 3047 2528 
Q 3047 2791 2881 2937 
Q 2716 3084 2419 3084 
Q 1956 3084 1617 2771 
Q 1278 2459 1178 1941 
L 800 0 
L 225 0 
L 1172 4863 
L 1747 4863 
L 1375 2950 
Q 1594 3244 1934 3414 
Q 2275 3584 2650 3584 
Q 3113 3584 3367 3334 
Q 3622 3084 3622 2631 
Q 3622 2519 3608 2391 
Q 3594 2263 3566 2113 
z
" transform="scale(0.015625)"/>
      </defs>
      <use xlink:href="#DejaVuSans-Oblique-3c7" transform="translate(0 0.265625)"/>
      <use xlink:href="#DejaVuSans-Oblique-63" transform="translate(59.179688 -16.140625) scale(0.7)"/>
      <use xlink:href="#DejaVuSans-Oblique-68" transform="translate(97.666016 -16.140625) scale(0.7)"/>
     </g>
    </g>
    <g id="line2d_32">
     <path d="M 325.247404 64.813437 
L 335.247404 64.813437 
L 345.247404 64.813437 
" style="fill: none; stroke: #2ca02c; stroke-width: 1.5; stroke-linecap: square"/>
    </g>
    <g id="text_18">
     <!-- $\chi_{sp}$ -->
     <g transform="translate(353.247404 68.313437) scale(0.1 -0.1)">
      <defs>
       <path id="DejaVuSans-Oblique-73" d="M 3200 3397 
L 3091 2853 
Q 2863 2978 2609 3040 
Q 2356 3103 2088 3103 
Q 1634 3103 1373 2948 
Q 1113 2794 1113 2528 
Q 1113 2219 1719 2053 
Q 1766 2041 1788 2034 
L 1972 1978 
Q 2547 1819 2739 1644 
Q 2931 1469 2931 1166 
Q 2931 609 2489 259 
Q 2047 -91 1331 -91 
Q 1053 -91 747 -37 
Q 441 16 72 128 
L 184 722 
Q 500 559 806 475 
Q 1113 391 1394 391 
Q 1816 391 2080 572 
Q 2344 753 2344 1031 
Q 2344 1331 1650 1516 
L 1591 1531 
L 1394 1581 
Q 956 1697 753 1886 
Q 550 2075 550 2369 
Q 550 2928 970 3256 
Q 1391 3584 2113 3584 
Q 2397 3584 2667 3537 
Q 2938 3491 3200 3397 
z
" transform="scale(0.015625)"/>
       <path id="DejaVuSans-Oblique-70" d="M 3175 2156 
Q 3175 2616 2975 2859 
Q 2775 3103 2400 3103 
Q 2144 3103 1911 2972 
Q 1678 2841 1497 2591 
Q 1319 2344 1212 1994 
Q 1106 1644 1106 1300 
Q 1106 863 1306 627 
Q 1506 391 1875 391 
Q 2147 391 2380 519 
Q 2613 647 2778 891 
Q 2956 1147 3065 1494 
Q 3175 1841 3175 2156 
z
M 1394 2969 
Q 1625 3272 1939 3428 
Q 2253 3584 2638 3584 
Q 3175 3584 3472 3232 
Q 3769 2881 3769 2247 
Q 3769 1728 3584 1258 
Q 3400 788 3053 416 
Q 2822 169 2531 39 
Q 2241 -91 1919 -91 
Q 1547 -91 1294 64 
Q 1041 219 916 525 
L 556 -1331 
L -19 -1331 
L 922 3500 
L 1497 3500 
L 1394 2969 
z
" transform="scale(0.015625)"/>
      </defs>
      <use xlink:href="#DejaVuSans-Oblique-3c7" transform="translate(0 0.265625)"/>
      <use xlink:href="#DejaVuSans-Oblique-73" transform="translate(59.179688 -16.140625) scale(0.7)"/>
      <use xlink:href="#DejaVuSans-Oblique-70" transform="translate(95.649414 -16.140625) scale(0.7)"/>
     </g>
    </g>
   </g>
  </g>
  <g id="axes_2">
   <g id="patch_8">
    <path d="M 425.763846 302.099904 
L 705.545625 302.099904 
L 705.545625 22.318125 
L 425.763846 22.318125 
z
" style="fill: #ffffff"/>
   </g>
   <g id="matplotlib.axis_3">
    <g id="xtick_5">
     <g id="line2d_33">
      <path d="M 438.481199 302.099904 
L 438.481199 22.318125 
" clip-path="url(#p6d63302b5c)" style="fill: none; stroke: #b0b0b0; stroke-width: 0.8; stroke-linecap: square"/>
     </g>
     <g id="line2d_34">
      <g>
       <use xlink:href="#mef496c0055" x="438.481199" y="302.099904" style="stroke: #000000; stroke-width: 0.8"/>
      </g>
     </g>
     <g id="text_19">
      <!-- $\Gamma$ -->
      <g transform="translate(435.681199 316.698342) scale(0.1 -0.1)">
       <use xlink:href="#DejaVuSans-393" transform="translate(0 0.09375)"/>
      </g>
     </g>
    </g>
    <g id="xtick_6">
     <g id="line2d_35">
      <path d="M 531.578689 302.099904 
L 531.578689 22.318125 
" clip-path="url(#p6d63302b5c)" style="fill: none; stroke: #b0b0b0; stroke-width: 0.8; stroke-linecap: square"/>
     </g>
     <g id="line2d_36">
      <g>
       <use xlink:href="#mef496c0055" x="531.578689" y="302.099904" style="stroke: #000000; stroke-width: 0.8"/>
      </g>
     </g>
     <g id="text_20">
      <!-- $M$ -->
      <g transform="translate(527.228689 316.698342) scale(0.1 -0.1)">
       <use xlink:href="#DejaVuSans-Oblique-4d" transform="translate(0 0.09375)"/>
      </g>
     </g>
    </g>
    <g id="xtick_7">
     <g id="line2d_37">
      <path d="M 585.32855 302.099904 
L 585.32855 22.318125 
" clip-path="url(#p6d63302b5c)" style="fill: none; stroke: #b0b0b0; stroke-width: 0.8; stroke-linecap: square"/>
     </g>
     <g id="line2d_38">
      <g>
       <use xlink:href="#mef496c0055" x="585.32855" y="302.099904" style="stroke: #000000; stroke-width: 0.8"/>
      </g>
     </g>
     <g id="text_21">
      <!-- $K$ -->
      <g transform="translate(582.02855 316.698342) scale(0.1 -0.1)">
       <use xlink:href="#DejaVuSans-Oblique-4b" transform="translate(0 0.09375)"/>
      </g>
     </g>
    </g>
    <g id="xtick_8">
     <g id="line2d_39">
      <path d="M 692.828271 302.099904 
L 692.828271 22.318125 
" clip-path="url(#p6d63302b5c)" style="fill: none; stroke: #b0b0b0; stroke-width: 0.8; stroke-linecap: square"/>
     </g>
     <g id="line2d_40">
      <g>
       <use xlink:href="#mef496c0055" x="692.828271" y="302.099904" style="stroke: #000000; stroke-width: 0.8"/>
      </g>
     </g>
     <g id="text_22">
      <!-- $\Gamma$ -->
      <g transform="translate(690.028271 316.698342) scale(0.1 -0.1)">
       <use xlink:href="#DejaVuSans-393" transform="translate(0 0.09375)"/>
      </g>
     </g>
    </g>
    <g id="text_23">
     <!-- $\mathbf{k}$ -->
     <g transform="translate(562.304735 330.376467) scale(0.1 -0.1)">
      <use xlink:href="#DejaVuSans-Bold-6b" transform="translate(0 0.015625)"/>
     </g>
    </g>
   </g>
   <g id="matplotlib.axis_4">
    <g id="ytick_10">
     <g id="line2d_41">
      <path d="M 425.763846 289.382551 
L 705.545625 289.382551 
" clip-path="url(#p6d63302b5c)" style="fill: none; stroke: #b0b0b0; stroke-width: 0.8; stroke-linecap: square"/>
     </g>
     <g id="line2d_42">
      <g>
       <use xlink:href="#me2ae007cce" x="425.763846" y="289.382551" style="stroke: #000000; stroke-width: 0.8"/>
      </g>
     </g>
     <g id="text_24">
      <!-- 0.0000 -->
      <g transform="translate(383.773221 293.181769) scale(0.1 -0.1)">
       <use xlink:href="#DejaVuSans-30"/>
       <use xlink:href="#DejaVuSans-2e" x="63.623047"/>
       <use xlink:href="#DejaVuSans-30" x="95.410156"/>
       <use xlink:href="#DejaVuSans-30" x="159.033203"/>
       <use xlink:href="#DejaVuSans-30" x="222.65625"/>
       <use xlink:href="#DejaVuSans-30" x="286.279297"/>
      </g>
     </g>
    </g>
    <g id="ytick_11">
     <g id="line2d_43">
      <path d="M 425.763846 244.922867 
L 705.545625 244.922867 
" clip-path="url(#p6d63302b5c)" style="fill: none; stroke: #b0b0b0; stroke-width: 0.8; stroke-linecap: square"/>
     </g>
     <g id="line2d_44">
      <g>
       <use xlink:href="#me2ae007cce" x="425.763846" y="244.922867" style="stroke: #000000; stroke-width: 0.8"/>
      </g>
     </g>
     <g id="text_25">
      <!-- 0.0005 -->
      <g transform="translate(383.773221 248.722085) scale(0.1 -0.1)">
       <defs>
        <path id="DejaVuSans-35" d="M 691 4666 
L 3169 4666 
L 3169 4134 
L 1269 4134 
L 1269 2991 
Q 1406 3038 1543 3061 
Q 1681 3084 1819 3084 
Q 2600 3084 3056 2656 
Q 3513 2228 3513 1497 
Q 3513 744 3044 326 
Q 2575 -91 1722 -91 
Q 1428 -91 1123 -41 
Q 819 9 494 109 
L 494 744 
Q 775 591 1075 516 
Q 1375 441 1709 441 
Q 2250 441 2565 725 
Q 2881 1009 2881 1497 
Q 2881 1984 2565 2268 
Q 2250 2553 1709 2553 
Q 1456 2553 1204 2497 
Q 953 2441 691 2322 
L 691 4666 
z
" transform="scale(0.015625)"/>
       </defs>
       <use xlink:href="#DejaVuSans-30"/>
       <use xlink:href="#DejaVuSans-2e" x="63.623047"/>
       <use xlink:href="#DejaVuSans-30" x="95.410156"/>
       <use xlink:href="#DejaVuSans-30" x="159.033203"/>
       <use xlink:href="#DejaVuSans-30" x="222.65625"/>
       <use xlink:href="#DejaVuSans-35" x="286.279297"/>
      </g>
     </g>
    </g>
    <g id="ytick_12">
     <g id="line2d_45">
      <path d="M 425.763846 200.463183 
L 705.545625 200.463183 
" clip-path="url(#p6d63302b5c)" style="fill: none; stroke: #b0b0b0; stroke-width: 0.8; stroke-linecap: square"/>
     </g>
     <g id="line2d_46">
      <g>
       <use xlink:href="#me2ae007cce" x="425.763846" y="200.463183" style="stroke: #000000; stroke-width: 0.8"/>
      </g>
     </g>
     <g id="text_26">
      <!-- 0.0010 -->
      <g transform="translate(383.773221 204.262401) scale(0.1 -0.1)">
       <use xlink:href="#DejaVuSans-30"/>
       <use xlink:href="#DejaVuSans-2e" x="63.623047"/>
       <use xlink:href="#DejaVuSans-30" x="95.410156"/>
       <use xlink:href="#DejaVuSans-30" x="159.033203"/>
       <use xlink:href="#DejaVuSans-31" x="222.65625"/>
       <use xlink:href="#DejaVuSans-30" x="286.279297"/>
      </g>
     </g>
    </g>
    <g id="ytick_13">
     <g id="line2d_47">
      <path d="M 425.763846 156.003498 
L 705.545625 156.003498 
" clip-path="url(#p6d63302b5c)" style="fill: none; stroke: #b0b0b0; stroke-width: 0.8; stroke-linecap: square"/>
     </g>
     <g id="line2d_48">
      <g>
       <use xlink:href="#me2ae007cce" x="425.763846" y="156.003498" style="stroke: #000000; stroke-width: 0.8"/>
      </g>
     </g>
     <g id="text_27">
      <!-- 0.0015 -->
      <g transform="translate(383.773221 159.802717) scale(0.1 -0.1)">
       <use xlink:href="#DejaVuSans-30"/>
       <use xlink:href="#DejaVuSans-2e" x="63.623047"/>
       <use xlink:href="#DejaVuSans-30" x="95.410156"/>
       <use xlink:href="#DejaVuSans-30" x="159.033203"/>
       <use xlink:href="#DejaVuSans-31" x="222.65625"/>
       <use xlink:href="#DejaVuSans-35" x="286.279297"/>
      </g>
     </g>
    </g>
    <g id="ytick_14">
     <g id="line2d_49">
      <path d="M 425.763846 111.543814 
L 705.545625 111.543814 
" clip-path="url(#p6d63302b5c)" style="fill: none; stroke: #b0b0b0; stroke-width: 0.8; stroke-linecap: square"/>
     </g>
     <g id="line2d_50">
      <g>
       <use xlink:href="#me2ae007cce" x="425.763846" y="111.543814" style="stroke: #000000; stroke-width: 0.8"/>
      </g>
     </g>
     <g id="text_28">
      <!-- 0.0020 -->
      <g transform="translate(383.773221 115.343033) scale(0.1 -0.1)">
       <use xlink:href="#DejaVuSans-30"/>
       <use xlink:href="#DejaVuSans-2e" x="63.623047"/>
       <use xlink:href="#DejaVuSans-30" x="95.410156"/>
       <use xlink:href="#DejaVuSans-30" x="159.033203"/>
       <use xlink:href="#DejaVuSans-32" x="222.65625"/>
       <use xlink:href="#DejaVuSans-30" x="286.279297"/>
      </g>
     </g>
    </g>
    <g id="ytick_15">
     <g id="line2d_51">
      <path d="M 425.763846 67.08413 
L 705.545625 67.08413 
" clip-path="url(#p6d63302b5c)" style="fill: none; stroke: #b0b0b0; stroke-width: 0.8; stroke-linecap: square"/>
     </g>
     <g id="line2d_52">
      <g>
       <use xlink:href="#me2ae007cce" x="425.763846" y="67.08413" style="stroke: #000000; stroke-width: 0.8"/>
      </g>
     </g>
     <g id="text_29">
      <!-- 0.0025 -->
      <g transform="translate(383.773221 70.883349) scale(0.1 -0.1)">
       <use xlink:href="#DejaVuSans-30"/>
       <use xlink:href="#DejaVuSans-2e" x="63.623047"/>
       <use xlink:href="#DejaVuSans-30" x="95.410156"/>
       <use xlink:href="#DejaVuSans-30" x="159.033203"/>
       <use xlink:href="#DejaVuSans-32" x="222.65625"/>
       <use xlink:href="#DejaVuSans-35" x="286.279297"/>
      </g>
     </g>
    </g>
    <g id="ytick_16">
     <g id="line2d_53">
      <path d="M 425.763846 22.624446 
L 705.545625 22.624446 
" clip-path="url(#p6d63302b5c)" style="fill: none; stroke: #b0b0b0; stroke-width: 0.8; stroke-linecap: square"/>
     </g>
     <g id="line2d_54">
      <g>
       <use xlink:href="#me2ae007cce" x="425.763846" y="22.624446" style="stroke: #000000; stroke-width: 0.8"/>
      </g>
     </g>
     <g id="text_30">
      <!-- 0.0030 -->
      <g transform="translate(383.773221 26.423665) scale(0.1 -0.1)">
       <use xlink:href="#DejaVuSans-30"/>
       <use xlink:href="#DejaVuSans-2e" x="63.623047"/>
       <use xlink:href="#DejaVuSans-30" x="95.410156"/>
       <use xlink:href="#DejaVuSans-30" x="159.033203"/>
       <use xlink:href="#DejaVuSans-33" x="222.65625"/>
       <use xlink:href="#DejaVuSans-30" x="286.279297"/>
      </g>
     </g>
    </g>
   </g>
   <g id="line2d_55">
    <path d="M 438.481199 289.382551 
L 443.183093 288.919747 
L 446.944607 287.873362 
L 448.825365 287.135936 
L 450.706122 286.268966 
L 452.58688 285.289854 
L 456.348394 282.832747 
L 459.16953 280.600694 
L 461.990666 278.048464 
L 465.752181 274.176914 
L 470.454075 268.489534 
L 475.155968 261.87156 
L 479.857861 254.339138 
L 484.559755 245.892624 
L 489.261648 236.528908 
L 493.963542 226.244515 
L 497.725056 217.388554 
L 502.42695 205.453925 
L 508.069222 189.827192 
L 511.830737 178.738984 
L 517.473009 160.866072 
L 521.234524 148.248229 
L 525.936417 131.575322 
L 530.63831 113.942573 
L 531.578689 110.292269 
L 531.578689 110.292269 
L 534.293329 116.168886 
L 537.550896 122.495538 
L 540.265535 127.153699 
L 542.437247 130.592406 
L 544.608958 133.641937 
L 547.323598 136.985507 
L 549.495309 139.318523 
L 550.581165 140.370314 
L 553.295805 142.605444 
L 554.924588 143.703941 
L 557.0963 144.890065 
L 559.268011 145.718614 
L 561.982651 146.342093 
L 563.068506 146.414127 
L 565.240218 146.362481 
L 566.326074 146.246406 
L 569.040713 145.493918 
L 570.126569 145.083078 
L 572.298281 143.932693 
L 573.927064 142.913605 
L 575.555848 141.652356 
L 577.727559 139.748022 
L 578.813415 138.652272 
L 581.528055 135.585056 
L 583.156838 133.470163 
L 585.32855 130.423006 
L 585.32855 130.423006 
L 590.757829 146.191893 
L 596.187108 161.159685 
L 600.530531 172.48834 
L 604.873954 183.328826 
L 608.131521 191.074807 
L 612.474944 200.941694 
L 615.732511 208.014548 
L 618.990079 214.774797 
L 623.333502 223.308364 
L 627.676925 231.364057 
L 630.934492 237.014639 
L 635.277915 244.114932 
L 638.535483 249.13595 
L 642.878906 255.291831 
L 647.222329 260.970171 
L 650.479896 264.901713 
L 654.823319 269.63563 
L 658.080887 272.889519 
L 661.338454 275.862465 
L 665.681877 279.297576 
L 670.0253 282.265847 
L 673.282867 284.153596 
L 677.626291 286.184932 
L 680.883858 287.425771 
L 684.141425 288.311278 
L 686.313137 288.738649 
L 689.570704 289.187623 
L 692.828271 289.382551 
L 692.828271 289.382551 
" clip-path="url(#p6d63302b5c)" style="fill: none; stroke: #1f77b4; stroke-width: 1.5; stroke-linecap: square"/>
   </g>
   <g id="line2d_56">
    <path d="M 438.481199 289.382551 
L 443.183093 289.081807 
L 447.884986 288.19544 
L 452.58688 286.723095 
L 456.348394 285.126567 
L 459.16953 283.676342 
L 462.931045 281.40923 
L 465.752181 279.503033 
L 470.454075 275.808619 
L 475.155968 271.510288 
L 479.857861 266.61878 
L 484.559755 261.134616 
L 489.261648 255.056102 
L 493.963542 248.381344 
L 498.665435 241.108253 
L 502.42695 234.892351 
L 508.069222 224.757774 
L 511.830737 217.568599 
L 517.473009 205.984242 
L 521.234524 197.808595 
L 525.936417 187.008967 
L 530.63831 175.591849 
L 531.578689 173.228816 
L 531.578689 173.228816 
L 534.293329 177.033048 
L 537.550896 181.1293 
L 540.808463 184.725733 
L 542.980175 186.889108 
L 546.78067 190.12069 
L 550.038237 192.391388 
L 553.295805 194.153162 
L 555.467516 195.074635 
L 558.725083 196.072487 
L 561.982651 196.573701 
L 563.611434 196.628829 
L 565.240218 196.586994 
L 566.869002 196.426552 
L 569.040713 196.024332 
L 570.669497 195.588194 
L 572.298281 195.013009 
L 573.927064 194.352741 
L 576.098776 193.246271 
L 578.270487 191.976816 
L 582.070983 189.182568 
L 585.32855 186.262718 
L 585.32855 186.262718 
L 590.757829 196.476507 
L 596.187108 206.17455 
L 600.530531 213.516828 
L 604.873954 220.544318 
L 608.131521 225.566824 
L 612.474944 231.965724 
L 616.818367 238.052952 
L 621.16179 243.75964 
L 625.505213 249.151083 
L 629.848637 254.184651 
L 635.277915 259.980563 
L 639.621339 264.268048 
L 642.878906 267.237444 
L 647.222329 270.924922 
L 650.479896 273.478296 
L 654.823319 276.553091 
L 659.166742 279.323716 
L 662.42431 281.170138 
L 666.767733 283.330533 
L 670.0253 284.758234 
L 673.282867 285.98479 
L 677.626291 287.304703 
L 681.969714 288.322217 
L 686.313137 288.964125 
L 689.570704 289.255881 
L 692.828271 289.382551 
L 692.828271 289.382551 
" clip-path="url(#p6d63302b5c)" style="fill: none; stroke: #ff7f0e; stroke-width: 1.5; stroke-linecap: square"/>
   </g>
   <g id="line2d_57">
    <path d="M 438.481199 289.382551 
L 442.242714 288.897974 
L 443.183093 288.726519 
L 446.944607 287.243225 
L 447.884986 286.792956 
L 451.646501 284.310207 
L 453.527258 282.741513 
L 455.408016 281.00055 
L 457.288773 279.088685 
L 461.050288 274.603183 
L 463.871424 270.645282 
L 466.69256 266.255635 
L 470.454075 259.759925 
L 475.155968 250.374045 
L 479.857861 239.689644 
L 484.559755 227.706604 
L 489.261648 214.419812 
L 493.023163 202.87661 
L 497.725056 187.252134 
L 502.42695 170.306607 
L 508.069222 148.112099 
L 511.830737 132.35934 
L 517.473009 106.959582 
L 521.234524 89.022283 
L 525.936417 65.312868 
L 530.63831 40.229357 
L 531.578689 35.035479 
L 531.578689 35.035479 
L 534.293329 43.397114 
L 537.550896 52.397595 
L 540.265535 59.023684 
L 542.437247 63.915077 
L 544.608958 68.252022 
L 547.323598 73.007216 
L 549.495309 76.324962 
L 550.581165 77.820783 
L 552.752877 80.381929 
L 554.38166 82.07634 
L 556.010444 83.415062 
L 557.639228 84.567652 
L 558.725083 85.212064 
L 561.439723 86.161606 
L 562.525579 86.41416 
L 565.240218 86.340981 
L 566.326074 86.176144 
L 568.497785 85.348358 
L 570.126569 84.522066 
L 571.755353 83.334067 
L 573.927064 81.437206 
L 575.01292 80.297507 
L 578.270487 76.221566 
L 581.528055 71.015571 
L 582.61391 69.037792 
L 585.32855 63.673922 
L 585.32855 63.673922 
L 589.671973 81.723731 
L 595.101252 103.233633 
L 599.444675 119.514544 
L 603.788098 135.081385 
L 608.131521 149.884245 
L 612.474944 163.898487 
L 615.732511 173.942506 
L 618.990079 183.541175 
L 623.333502 195.65569 
L 627.676925 207.08988 
L 630.934492 215.109034 
L 635.277915 225.184234 
L 638.535483 232.30812 
L 642.878906 241.041014 
L 646.136473 247.162211 
L 650.479896 254.671653 
L 653.737464 259.794851 
L 658.080887 265.999393 
L 661.338454 270.214943 
L 665.681877 275.085455 
L 668.939444 278.330677 
L 672.197012 281.120273 
L 674.368723 282.722676 
L 677.626291 284.849737 
L 680.883858 286.608739 
L 683.055569 287.473164 
L 685.227281 288.211719 
L 688.484848 288.952687 
L 691.742416 289.301543 
L 692.828271 289.382551 
L 692.828271 289.382551 
" clip-path="url(#p6d63302b5c)" style="fill: none; stroke: #2ca02c; stroke-width: 1.5; stroke-linecap: square"/>
   </g>
   <g id="patch_9">
    <path d="M 425.763846 302.099904 
L 425.763846 22.318125 
" style="fill: none; stroke: #000000; stroke-width: 0.8; stroke-linejoin: miter; stroke-linecap: square"/>
   </g>
   <g id="patch_10">
    <path d="M 705.545625 302.099904 
L 705.545625 22.318125 
" style="fill: none; stroke: #000000; stroke-width: 0.8; stroke-linejoin: miter; stroke-linecap: square"/>
   </g>
   <g id="patch_11">
    <path d="M 425.763846 302.099904 
L 705.545625 302.099904 
" style="fill: none; stroke: #000000; stroke-width: 0.8; stroke-linejoin: miter; stroke-linecap: square"/>
   </g>
   <g id="patch_12">
    <path d="M 425.763846 22.318125 
L 705.545625 22.318125 
" style="fill: none; stroke: #000000; stroke-width: 0.8; stroke-linejoin: miter; stroke-linecap: square"/>
   </g>
   <g id="text_31">
    <!-- Relative comparison -->
    <g transform="translate(504.517548 16.318125) scale(0.12 -0.12)">
     <defs>
      <path id="DejaVuSans-52" d="M 2841 2188 
Q 3044 2119 3236 1894 
Q 3428 1669 3622 1275 
L 4263 0 
L 3584 0 
L 2988 1197 
Q 2756 1666 2539 1819 
Q 2322 1972 1947 1972 
L 1259 1972 
L 1259 0 
L 628 0 
L 628 4666 
L 2053 4666 
Q 2853 4666 3247 4331 
Q 3641 3997 3641 3322 
Q 3641 2881 3436 2590 
Q 3231 2300 2841 2188 
z
M 1259 4147 
L 1259 2491 
L 2053 2491 
Q 2509 2491 2742 2702 
Q 2975 2913 2975 3322 
Q 2975 3731 2742 3939 
Q 2509 4147 2053 4147 
L 1259 4147 
z
" transform="scale(0.015625)"/>
      <path id="DejaVuSans-76" d="M 191 3500 
L 800 3500 
L 1894 563 
L 2988 3500 
L 3597 3500 
L 2284 0 
L 1503 0 
L 191 3500 
z
" transform="scale(0.015625)"/>
     </defs>
     <use xlink:href="#DejaVuSans-52"/>
     <use xlink:href="#DejaVuSans-65" x="64.982422"/>
     <use xlink:href="#DejaVuSans-6c" x="126.505859"/>
     <use xlink:href="#DejaVuSans-61" x="154.289062"/>
     <use xlink:href="#DejaVuSans-74" x="215.568359"/>
     <use xlink:href="#DejaVuSans-69" x="254.777344"/>
     <use xlink:href="#DejaVuSans-76" x="282.560547"/>
     <use xlink:href="#DejaVuSans-65" x="341.740234"/>
     <use xlink:href="#DejaVuSans-20" x="403.263672"/>
     <use xlink:href="#DejaVuSans-63" x="435.050781"/>
     <use xlink:href="#DejaVuSans-6f" x="490.03125"/>
     <use xlink:href="#DejaVuSans-6d" x="551.212891"/>
     <use xlink:href="#DejaVuSans-70" x="648.625"/>
     <use xlink:href="#DejaVuSans-61" x="712.101562"/>
     <use xlink:href="#DejaVuSans-72" x="773.380859"/>
     <use xlink:href="#DejaVuSans-69" x="814.494141"/>
     <use xlink:href="#DejaVuSans-73" x="842.277344"/>
     <use xlink:href="#DejaVuSans-6f" x="894.376953"/>
     <use xlink:href="#DejaVuSans-6e" x="955.558594"/>
    </g>
   </g>
   <g id="legend_2">
    <g id="patch_13">
     <path d="M 652.045625 75.413437 
L 698.545625 75.413437 
Q 700.545625 75.413437 700.545625 73.413437 
L 700.545625 29.318125 
Q 700.545625 27.318125 698.545625 27.318125 
L 652.045625 27.318125 
Q 650.045625 27.318125 650.045625 29.318125 
L 650.045625 73.413437 
Q 650.045625 75.413437 652.045625 75.413437 
z
" style="fill: #ffffff; opacity: 0.8; stroke: #cccccc; stroke-linejoin: miter"/>
    </g>
    <g id="line2d_58">
     <path d="M 654.045625 35.416562 
L 664.045625 35.416562 
L 674.045625 35.416562 
" style="fill: none; stroke: #1f77b4; stroke-width: 1.5; stroke-linecap: square"/>
    </g>
    <g id="text_32">
     <!-- $\chi_0$ -->
     <g transform="translate(682.045625 38.916562) scale(0.1 -0.1)">
      <use xlink:href="#DejaVuSans-Oblique-3c7" transform="translate(0 0.265625)"/>
      <use xlink:href="#DejaVuSans-30" transform="translate(59.179688 -16.140625) scale(0.7)"/>
     </g>
    </g>
    <g id="line2d_59">
     <path d="M 654.045625 50.115 
L 664.045625 50.115 
L 674.045625 50.115 
" style="fill: none; stroke: #ff7f0e; stroke-width: 1.5; stroke-linecap: square"/>
    </g>
    <g id="text_33">
     <!-- $\chi_{ch}$ -->
     <g transform="translate(682.045625 53.615) scale(0.1 -0.1)">
      <use xlink:href="#DejaVuSans-Oblique-3c7" transform="translate(0 0.265625)"/>
      <use xlink:href="#DejaVuSans-Oblique-63" transform="translate(59.179688 -16.140625) scale(0.7)"/>
      <use xlink:href="#DejaVuSans-Oblique-68" transform="translate(97.666016 -16.140625) scale(0.7)"/>
     </g>
    </g>
    <g id="line2d_60">
     <path d="M 654.045625 64.813437 
L 664.045625 64.813437 
L 674.045625 64.813437 
" style="fill: none; stroke: #2ca02c; stroke-width: 1.5; stroke-linecap: square"/>
    </g>
    <g id="text_34">
     <!-- $\chi_{sp}$ -->
     <g transform="translate(682.045625 68.313437) scale(0.1 -0.1)">
      <use xlink:href="#DejaVuSans-Oblique-3c7" transform="translate(0 0.265625)"/>
      <use xlink:href="#DejaVuSans-Oblique-73" transform="translate(59.179688 -16.140625) scale(0.7)"/>
      <use xlink:href="#DejaVuSans-Oblique-70" transform="translate(95.649414 -16.140625) scale(0.7)"/>
     </g>
    </g>
   </g>
  </g>
 </g>
 <defs>
  <clipPath id="pa2d5187a6d">
   <rect x="36.465625" y="22.318125" width="279.781779" height="279.781779"/>
  </clipPath>
  <clipPath id="p6d63302b5c">
   <rect x="425.763846" y="22.318125" width="279.781779" height="279.781779"/>
  </clipPath>
 </defs>
</svg>
