<?xml version="1.0" encoding="utf-8" standalone="no"?>
<!DOCTYPE svg PUBLIC "-//W3C//DTD SVG 1.1//EN"
  "http://www.w3.org/Graphics/SVG/1.1/DTD/svg11.dtd">
<!-- Created with matplotlib (http://matplotlib.org/) -->
<svg height="263.638125pt" version="1.1" viewBox="0 0 375.603125 263.638125" width="375.603125pt" xmlns="http://www.w3.org/2000/svg" xmlns:xlink="http://www.w3.org/1999/xlink">
 <defs>
  <style type="text/css">
*{stroke-linecap:butt;stroke-linejoin:round;}
  </style>
 </defs>
 <g id="figure_1">
  <g id="patch_1">
   <path d="M 0 263.638125 
L 375.603125 263.638125 
L 375.603125 0 
L 0 0 
z
" style="fill:none;"/>
  </g>
  <g id="axes_1">
   <g id="patch_2">
    <path d="M 30.103125 239.76 
L 364.903125 239.76 
L 364.903125 22.32 
L 30.103125 22.32 
z
" style="fill:#ffffff;"/>
   </g>
   <g id="matplotlib.axis_1">
    <g id="xtick_1">
     <g id="line2d_1">
      <path clip-path="url(#pfacd0a19f2)" d="M 30.103125 239.76 
L 30.103125 22.32 
" style="fill:none;stroke:#b0b0b0;stroke-linecap:square;stroke-width:0.8;"/>
     </g>
     <g id="line2d_2">
      <defs>
       <path d="M 0 0 
L 0 3.5 
" id="mdecab8168a" style="stroke:#000000;stroke-width:0.8;"/>
      </defs>
      <g>
       <use style="stroke:#000000;stroke-width:0.8;" x="30.103125" xlink:href="#mdecab8168a" y="239.76"/>
      </g>
     </g>
     <g id="text_1">
      <!-- $\Gamma$ -->
      <defs>
       <path d="M 9.8125 0 
L 9.8125 72.90625 
L 55.171875 72.90625 
L 55.171875 64.59375 
L 19.671875 64.59375 
L 19.671875 0 
z
" id="DejaVuSans-393"/>
      </defs>
      <g transform="translate(27.303125 254.358438)scale(0.1 -0.1)">
       <use transform="translate(0 0.09375)" xlink:href="#DejaVuSans-393"/>
      </g>
     </g>
    </g>
    <g id="xtick_2">
     <g id="line2d_3">
      <path clip-path="url(#pfacd0a19f2)" d="M 168.781826 239.76 
L 168.781826 22.32 
" style="fill:none;stroke:#b0b0b0;stroke-linecap:square;stroke-width:0.8;"/>
     </g>
     <g id="line2d_4">
      <g>
       <use style="stroke:#000000;stroke-width:0.8;" x="168.781826" xlink:href="#mdecab8168a" y="239.76"/>
      </g>
     </g>
     <g id="text_2">
      <!-- $X$ -->
      <defs>
       <path d="M 13.71875 72.90625 
L 23.6875 72.90625 
L 36.1875 46.578125 
L 58.796875 72.90625 
L 70.3125 72.90625 
L 40.28125 38.09375 
L 58.40625 0 
L 48.484375 0 
L 33.796875 30.71875 
L 7.171875 0 
L -4.296875 0 
L 29.78125 39.203125 
z
" id="DejaVuSans-Oblique-58"/>
      </defs>
      <g transform="translate(165.331826 254.358438)scale(0.1 -0.1)">
       <use transform="translate(0 0.09375)" xlink:href="#DejaVuSans-Oblique-58"/>
      </g>
     </g>
    </g>
    <g id="xtick_3">
     <g id="line2d_5">
      <path clip-path="url(#pfacd0a19f2)" d="M 266.842475 239.76 
L 266.842475 22.32 
" style="fill:none;stroke:#b0b0b0;stroke-linecap:square;stroke-width:0.8;"/>
     </g>
     <g id="line2d_6">
      <g>
       <use style="stroke:#000000;stroke-width:0.8;" x="266.842475" xlink:href="#mdecab8168a" y="239.76"/>
      </g>
     </g>
     <g id="text_3">
      <!-- $M$ -->
      <defs>
       <path d="M 16.890625 72.90625 
L 31.6875 72.90625 
L 40.1875 23.78125 
L 68.40625 72.90625 
L 83.59375 72.90625 
L 69.390625 0 
L 59.8125 0 
L 72.21875 63.921875 
L 43.609375 14.015625 
L 33.984375 14.015625 
L 24.703125 64.109375 
L 12.3125 0 
L 2.6875 0 
z
" id="DejaVuSans-Oblique-4d"/>
      </defs>
      <g transform="translate(262.492475 254.358438)scale(0.1 -0.1)">
       <use transform="translate(0 0.09375)" xlink:href="#DejaVuSans-Oblique-4d"/>
      </g>
     </g>
    </g>
    <g id="xtick_4">
     <g id="line2d_7">
      <path clip-path="url(#pfacd0a19f2)" d="M 364.903125 239.76 
L 364.903125 22.32 
" style="fill:none;stroke:#b0b0b0;stroke-linecap:square;stroke-width:0.8;"/>
     </g>
     <g id="line2d_8">
      <g>
       <use style="stroke:#000000;stroke-width:0.8;" x="364.903125" xlink:href="#mdecab8168a" y="239.76"/>
      </g>
     </g>
     <g id="text_4">
      <!-- $\Gamma$ -->
      <g transform="translate(362.103125 254.358438)scale(0.1 -0.1)">
       <use transform="translate(0 0.09375)" xlink:href="#DejaVuSans-393"/>
      </g>
     </g>
    </g>
   </g>
   <g id="matplotlib.axis_2">
    <g id="ytick_1">
     <g id="line2d_9">
      <path clip-path="url(#pfacd0a19f2)" d="M 30.103125 226.738291 
L 364.903125 226.738291 
" style="fill:none;stroke:#b0b0b0;stroke-linecap:square;stroke-width:0.8;"/>
     </g>
     <g id="line2d_10">
      <defs>
       <path d="M 0 0 
L -3.5 0 
" id="mcd343dbb93" style="stroke:#000000;stroke-width:0.8;"/>
      </defs>
      <g>
       <use style="stroke:#000000;stroke-width:0.8;" x="30.103125" xlink:href="#mcd343dbb93" y="226.738291"/>
      </g>
     </g>
     <g id="text_5">
      <!-- 0.1 -->
      <defs>
       <path d="M 31.78125 66.40625 
Q 24.171875 66.40625 20.328125 58.90625 
Q 16.5 51.421875 16.5 36.375 
Q 16.5 21.390625 20.328125 13.890625 
Q 24.171875 6.390625 31.78125 6.390625 
Q 39.453125 6.390625 43.28125 13.890625 
Q 47.125 21.390625 47.125 36.375 
Q 47.125 51.421875 43.28125 58.90625 
Q 39.453125 66.40625 31.78125 66.40625 
z
M 31.78125 74.21875 
Q 44.046875 74.21875 50.515625 64.515625 
Q 56.984375 54.828125 56.984375 36.375 
Q 56.984375 17.96875 50.515625 8.265625 
Q 44.046875 -1.421875 31.78125 -1.421875 
Q 19.53125 -1.421875 13.0625 8.265625 
Q 6.59375 17.96875 6.59375 36.375 
Q 6.59375 54.828125 13.0625 64.515625 
Q 19.53125 74.21875 31.78125 74.21875 
z
" id="DejaVuSans-30"/>
       <path d="M 10.6875 12.40625 
L 21 12.40625 
L 21 0 
L 10.6875 0 
z
" id="DejaVuSans-2e"/>
       <path d="M 12.40625 8.296875 
L 28.515625 8.296875 
L 28.515625 63.921875 
L 10.984375 60.40625 
L 10.984375 69.390625 
L 28.421875 72.90625 
L 38.28125 72.90625 
L 38.28125 8.296875 
L 54.390625 8.296875 
L 54.390625 0 
L 12.40625 0 
z
" id="DejaVuSans-31"/>
      </defs>
      <g transform="translate(7.2 230.53751)scale(0.1 -0.1)">
       <use xlink:href="#DejaVuSans-30"/>
       <use x="63.623047" xlink:href="#DejaVuSans-2e"/>
       <use x="95.410156" xlink:href="#DejaVuSans-31"/>
      </g>
     </g>
    </g>
    <g id="ytick_2">
     <g id="line2d_11">
      <path clip-path="url(#pfacd0a19f2)" d="M 30.103125 179.714915 
L 364.903125 179.714915 
" style="fill:none;stroke:#b0b0b0;stroke-linecap:square;stroke-width:0.8;"/>
     </g>
     <g id="line2d_12">
      <g>
       <use style="stroke:#000000;stroke-width:0.8;" x="30.103125" xlink:href="#mcd343dbb93" y="179.714915"/>
      </g>
     </g>
     <g id="text_6">
      <!-- 0.2 -->
      <defs>
       <path d="M 19.1875 8.296875 
L 53.609375 8.296875 
L 53.609375 0 
L 7.328125 0 
L 7.328125 8.296875 
Q 12.9375 14.109375 22.625 23.890625 
Q 32.328125 33.6875 34.8125 36.53125 
Q 39.546875 41.84375 41.421875 45.53125 
Q 43.3125 49.21875 43.3125 52.78125 
Q 43.3125 58.59375 39.234375 62.25 
Q 35.15625 65.921875 28.609375 65.921875 
Q 23.96875 65.921875 18.8125 64.3125 
Q 13.671875 62.703125 7.8125 59.421875 
L 7.8125 69.390625 
Q 13.765625 71.78125 18.9375 73 
Q 24.125 74.21875 28.421875 74.21875 
Q 39.75 74.21875 46.484375 68.546875 
Q 53.21875 62.890625 53.21875 53.421875 
Q 53.21875 48.921875 51.53125 44.890625 
Q 49.859375 40.875 45.40625 35.40625 
Q 44.1875 33.984375 37.640625 27.21875 
Q 31.109375 20.453125 19.1875 8.296875 
z
" id="DejaVuSans-32"/>
      </defs>
      <g transform="translate(7.2 183.514133)scale(0.1 -0.1)">
       <use xlink:href="#DejaVuSans-30"/>
       <use x="63.623047" xlink:href="#DejaVuSans-2e"/>
       <use x="95.410156" xlink:href="#DejaVuSans-32"/>
      </g>
     </g>
    </g>
    <g id="ytick_3">
     <g id="line2d_13">
      <path clip-path="url(#pfacd0a19f2)" d="M 30.103125 132.691538 
L 364.903125 132.691538 
" style="fill:none;stroke:#b0b0b0;stroke-linecap:square;stroke-width:0.8;"/>
     </g>
     <g id="line2d_14">
      <g>
       <use style="stroke:#000000;stroke-width:0.8;" x="30.103125" xlink:href="#mcd343dbb93" y="132.691538"/>
      </g>
     </g>
     <g id="text_7">
      <!-- 0.3 -->
      <defs>
       <path d="M 40.578125 39.3125 
Q 47.65625 37.796875 51.625 33 
Q 55.609375 28.21875 55.609375 21.1875 
Q 55.609375 10.40625 48.1875 4.484375 
Q 40.765625 -1.421875 27.09375 -1.421875 
Q 22.515625 -1.421875 17.65625 -0.515625 
Q 12.796875 0.390625 7.625 2.203125 
L 7.625 11.71875 
Q 11.71875 9.328125 16.59375 8.109375 
Q 21.484375 6.890625 26.8125 6.890625 
Q 36.078125 6.890625 40.9375 10.546875 
Q 45.796875 14.203125 45.796875 21.1875 
Q 45.796875 27.640625 41.28125 31.265625 
Q 36.765625 34.90625 28.71875 34.90625 
L 20.21875 34.90625 
L 20.21875 43.015625 
L 29.109375 43.015625 
Q 36.375 43.015625 40.234375 45.921875 
Q 44.09375 48.828125 44.09375 54.296875 
Q 44.09375 59.90625 40.109375 62.90625 
Q 36.140625 65.921875 28.71875 65.921875 
Q 24.65625 65.921875 20.015625 65.03125 
Q 15.375 64.15625 9.8125 62.3125 
L 9.8125 71.09375 
Q 15.4375 72.65625 20.34375 73.4375 
Q 25.25 74.21875 29.59375 74.21875 
Q 40.828125 74.21875 47.359375 69.109375 
Q 53.90625 64.015625 53.90625 55.328125 
Q 53.90625 49.265625 50.4375 45.09375 
Q 46.96875 40.921875 40.578125 39.3125 
z
" id="DejaVuSans-33"/>
      </defs>
      <g transform="translate(7.2 136.490757)scale(0.1 -0.1)">
       <use xlink:href="#DejaVuSans-30"/>
       <use x="63.623047" xlink:href="#DejaVuSans-2e"/>
       <use x="95.410156" xlink:href="#DejaVuSans-33"/>
      </g>
     </g>
    </g>
    <g id="ytick_4">
     <g id="line2d_15">
      <path clip-path="url(#pfacd0a19f2)" d="M 30.103125 85.668162 
L 364.903125 85.668162 
" style="fill:none;stroke:#b0b0b0;stroke-linecap:square;stroke-width:0.8;"/>
     </g>
     <g id="line2d_16">
      <g>
       <use style="stroke:#000000;stroke-width:0.8;" x="30.103125" xlink:href="#mcd343dbb93" y="85.668162"/>
      </g>
     </g>
     <g id="text_8">
      <!-- 0.4 -->
      <defs>
       <path d="M 37.796875 64.3125 
L 12.890625 25.390625 
L 37.796875 25.390625 
z
M 35.203125 72.90625 
L 47.609375 72.90625 
L 47.609375 25.390625 
L 58.015625 25.390625 
L 58.015625 17.1875 
L 47.609375 17.1875 
L 47.609375 0 
L 37.796875 0 
L 37.796875 17.1875 
L 4.890625 17.1875 
L 4.890625 26.703125 
z
" id="DejaVuSans-34"/>
      </defs>
      <g transform="translate(7.2 89.46738)scale(0.1 -0.1)">
       <use xlink:href="#DejaVuSans-30"/>
       <use x="63.623047" xlink:href="#DejaVuSans-2e"/>
       <use x="95.410156" xlink:href="#DejaVuSans-34"/>
      </g>
     </g>
    </g>
    <g id="ytick_5">
     <g id="line2d_17">
      <path clip-path="url(#pfacd0a19f2)" d="M 30.103125 38.644785 
L 364.903125 38.644785 
" style="fill:none;stroke:#b0b0b0;stroke-linecap:square;stroke-width:0.8;"/>
     </g>
     <g id="line2d_18">
      <g>
       <use style="stroke:#000000;stroke-width:0.8;" x="30.103125" xlink:href="#mcd343dbb93" y="38.644785"/>
      </g>
     </g>
     <g id="text_9">
      <!-- 0.5 -->
      <defs>
       <path d="M 10.796875 72.90625 
L 49.515625 72.90625 
L 49.515625 64.59375 
L 19.828125 64.59375 
L 19.828125 46.734375 
Q 21.96875 47.46875 24.109375 47.828125 
Q 26.265625 48.1875 28.421875 48.1875 
Q 40.625 48.1875 47.75 41.5 
Q 54.890625 34.8125 54.890625 23.390625 
Q 54.890625 11.625 47.5625 5.09375 
Q 40.234375 -1.421875 26.90625 -1.421875 
Q 22.3125 -1.421875 17.546875 -0.640625 
Q 12.796875 0.140625 7.71875 1.703125 
L 7.71875 11.625 
Q 12.109375 9.234375 16.796875 8.0625 
Q 21.484375 6.890625 26.703125 6.890625 
Q 35.15625 6.890625 40.078125 11.328125 
Q 45.015625 15.765625 45.015625 23.390625 
Q 45.015625 31 40.078125 35.4375 
Q 35.15625 39.890625 26.703125 39.890625 
Q 22.75 39.890625 18.8125 39.015625 
Q 14.890625 38.140625 10.796875 36.28125 
z
" id="DejaVuSans-35"/>
      </defs>
      <g transform="translate(7.2 42.444004)scale(0.1 -0.1)">
       <use xlink:href="#DejaVuSans-30"/>
       <use x="63.623047" xlink:href="#DejaVuSans-2e"/>
       <use x="95.410156" xlink:href="#DejaVuSans-35"/>
      </g>
     </g>
    </g>
   </g>
   <g id="line2d_19">
    <path clip-path="url(#pfacd0a19f2)" d="M 30.103125 219.9949 
L 41.309485 219.762582 
L 49.714254 219.307694 
L 58.119024 218.586425 
L 63.722204 217.917686 
L 72.126974 216.702314 
L 74.928564 216.251948 
L 77.730154 215.786461 
L 80.531743 215.161622 
L 81.932538 214.789446 
L 86.134923 214.020628 
L 88.936513 213.252215 
L 90.337308 212.78558 
L 94.539693 211.840163 
L 97.341283 210.914284 
L 98.742078 210.342795 
L 100.142873 209.903671 
L 102.944463 209.168642 
L 105.746053 208.065522 
L 108.547643 206.756089 
L 111.349232 205.901535 
L 114.150822 204.591295 
L 116.952412 202.904207 
L 118.353207 202.467428 
L 119.754002 201.89247 
L 121.154797 201.179333 
L 122.555592 200.328016 
L 123.956387 199.33852 
L 125.357182 198.210845 
L 128.158772 196.929388 
L 129.559567 196.064198 
L 130.960362 195.033877 
L 132.361157 193.838425 
L 133.761952 192.477841 
L 136.563542 190.692915 
L 137.964337 189.613542 
L 139.365132 188.338877 
L 140.765927 186.868919 
L 142.166722 185.203668 
L 143.567516 183.860502 
L 144.968311 182.699972 
L 146.369106 181.312819 
L 147.769901 179.699042 
L 149.170696 177.858643 
L 151.972286 173.88841 
L 153.373081 172.409419 
L 154.773876 170.703965 
L 156.174671 168.772048 
L 157.575466 166.61367 
L 160.377056 161.933291 
L 163.178646 159.753055 
L 165.980236 157.313524 
L 168.781826 154.614698 
L 168.781826 154.614698 
L 174.724895 158.857408 
L 176.705919 162.019856 
L 181.658477 170.515457 
L 187.601546 181.780836 
L 193.544616 191.914763 
L 199.487686 200.319925 
L 205.430755 207.061479 
L 211.373825 212.44271 
L 214.34536 214.623761 
L 218.307406 217.382091 
L 224.250476 220.716602 
L 231.184057 223.720311 
L 237.127127 225.737163 
L 243.070197 227.291969 
L 250.003778 228.587052 
L 255.946848 229.328355 
L 261.889917 229.747901 
L 268.823499 229.84605 
L 275.75708 229.645813 
L 281.70015 229.270445 
L 287.643219 228.701354 
L 293.586289 227.928102 
L 300.51987 226.766529 
L 306.46294 225.567784 
L 316.368056 223.307293 
L 324.292149 221.583668 
L 329.244707 220.702852 
L 335.187777 219.994734 
L 342.121358 219.670329 
L 350.045451 219.729107 
L 364.903125 219.9949 
L 364.903125 219.9949 
" style="fill:none;stroke:#1f77b4;stroke-linecap:square;stroke-width:1.5;"/>
   </g>
   <g id="line2d_20">
    <path clip-path="url(#pfacd0a19f2)" d="M 30.103125 216.734651 
L 39.90869 216.54026 
L 49.714254 215.960931 
L 56.718229 215.288865 
L 60.920614 214.807971 
L 70.726179 213.310529 
L 74.928564 212.506021 
L 77.730154 211.977284 
L 80.531743 211.26718 
L 81.932538 210.844116 
L 84.734128 210.31183 
L 87.535718 209.560433 
L 91.738103 208.204407 
L 94.539693 207.474735 
L 97.341283 206.412309 
L 98.742078 205.756313 
L 100.142873 205.25167 
L 102.944463 204.403587 
L 105.746053 203.129442 
L 108.547643 201.615779 
L 109.948438 201.185465 
L 111.349232 200.622152 
L 112.750027 199.92584 
L 114.150822 199.09653 
L 116.952412 197.130536 
L 118.353207 196.6183 
L 119.754002 195.942994 
L 121.154797 195.104619 
L 122.555592 194.103174 
L 123.956387 192.93866 
L 125.357182 191.611076 
L 126.757977 190.922064 
L 128.158772 190.089982 
L 129.559567 189.06031 
L 130.960362 187.833046 
L 132.361157 186.408192 
L 133.761952 184.785746 
L 136.563542 182.638742 
L 137.964337 181.334079 
L 139.365132 179.791435 
L 140.765927 178.01081 
L 142.166722 175.992205 
L 143.567516 174.355647 
L 144.968311 172.928092 
L 146.369106 171.217426 
L 147.769901 169.22365 
L 149.170696 166.946762 
L 151.972286 162.019064 
L 153.373081 160.154132 
L 154.773876 157.996666 
L 156.174671 155.546668 
L 157.575466 152.804137 
L 160.377056 146.840652 
L 163.178646 144.016468 
L 165.980236 140.846363 
L 168.781826 137.330338 
L 168.781826 137.330338 
L 174.724895 142.863815 
L 176.705919 146.918812 
L 181.658477 157.764586 
L 187.601546 171.799153 
L 193.544616 184.108763 
L 199.487686 194.098364 
L 205.430755 201.968554 
L 210.383313 207.137294 
L 212.364337 209.038506 
L 218.307406 213.785538 
L 224.250476 217.545412 
L 231.184057 220.907153 
L 237.127127 223.15241 
L 243.070197 224.87629 
L 250.003778 226.30747 
L 255.946848 227.124905 
L 261.889917 227.586924 
L 268.823499 227.694938 
L 275.75708 227.474529 
L 281.70015 227.061083 
L 287.643219 226.433596 
L 293.586289 225.579725 
L 299.529359 224.499998 
L 306.46294 222.964166 
L 315.377544 220.702366 
L 323.301637 218.731296 
L 329.244707 217.530307 
L 335.187777 216.734442 
L 342.121358 216.369391 
L 349.054939 216.409574 
L 364.903125 216.734651 
L 364.903125 216.734651 
" style="fill:none;stroke:#ff7f0e;stroke-linecap:square;stroke-width:1.5;"/>
   </g>
   <g id="line2d_21">
    <path clip-path="url(#pfacd0a19f2)" d="M 30.103125 213.053497 
L 39.90869 212.833139 
L 48.313459 212.296969 
L 53.916639 211.742765 
L 62.321409 210.639258 
L 72.126974 208.821833 
L 73.527769 208.462885 
L 76.329359 207.961211 
L 79.130948 207.251259 
L 83.333333 206.044751 
L 86.134923 205.324345 
L 88.936513 204.313897 
L 90.337308 203.699907 
L 94.539693 202.446908 
L 97.341283 201.215333 
L 98.742078 200.454597 
L 100.142873 199.868594 
L 101.543668 199.43626 
L 102.944463 198.879206 
L 104.345258 198.19743 
L 107.146848 196.459718 
L 108.547643 195.621239 
L 109.948438 195.115063 
L 111.349232 194.451588 
L 112.750027 193.630812 
L 114.150822 192.652736 
L 116.952412 190.332468 
L 118.353207 189.723378 
L 119.754002 188.918946 
L 121.154797 187.919174 
L 122.555592 186.72406 
L 123.956387 185.333605 
L 125.357182 183.747809 
L 126.757977 182.918261 
L 128.158772 181.912922 
L 129.559567 180.666938 
L 130.960362 179.180309 
L 132.361157 177.453035 
L 133.761952 175.485116 
L 136.563542 172.853344 
L 137.964337 171.244629 
L 139.365132 169.339576 
L 140.765927 167.138187 
L 142.166722 164.640461 
L 143.567516 162.602518 
L 144.968311 160.803781 
L 146.369106 158.641445 
L 147.769901 156.115508 
L 149.170696 153.22597 
L 151.972286 146.94685 
L 153.373081 144.522264 
L 154.773876 141.705569 
L 156.174671 138.496766 
L 157.575466 134.895855 
L 160.377056 127.038127 
L 163.178646 123.235895 
L 165.980236 118.949936 
L 168.781826 114.180252 
L 168.781826 114.180252 
L 174.724895 121.697573 
L 176.705919 127.084862 
L 182.648988 144.443061 
L 187.601546 159.384538 
L 193.544616 174.655896 
L 199.487686 186.725003 
L 205.430755 196.033311 
L 209.392802 200.854537 
L 211.373825 203.242822 
L 213.354848 205.176685 
L 218.307406 209.69869 
L 224.250476 213.970885 
L 230.193546 217.323331 
L 237.127127 220.273547 
L 243.070197 222.195663 
L 249.013266 223.618994 
L 255.946848 224.691507 
L 261.889917 225.202792 
L 268.823499 225.322236 
L 274.766568 225.13767 
L 281.70015 224.620821 
L 287.643219 223.925464 
L 293.586289 222.977675 
L 299.529359 221.776595 
L 306.46294 220.063097 
L 314.387033 217.819515 
L 323.301637 215.310761 
L 329.244707 213.954225 
L 335.187777 213.053231 
L 341.130846 212.646132 
L 349.054939 212.684954 
L 364.903125 213.053497 
L 364.903125 213.053497 
" style="fill:none;stroke:#2ca02c;stroke-linecap:square;stroke-width:1.5;"/>
   </g>
   <g id="line2d_22">
    <path clip-path="url(#pfacd0a19f2)" d="M 30.103125 208.864304 
L 39.90869 208.612406 
L 48.313459 207.998989 
L 53.916639 207.364075 
L 60.920614 206.35687 
L 69.325384 204.738108 
L 77.730154 202.629781 
L 80.531743 201.687064 
L 81.932538 201.125086 
L 84.734128 200.413458 
L 87.535718 199.405924 
L 91.738103 197.583599 
L 94.539693 196.593479 
L 97.341283 195.148884 
L 98.742078 194.256158 
L 100.142873 193.567401 
L 101.543668 193.056809 
L 102.944463 192.398194 
L 104.345258 191.591554 
L 105.746053 190.63689 
L 108.547643 188.540223 
L 109.948438 187.936195 
L 111.349232 187.143243 
L 112.750027 186.161367 
L 114.150822 184.990568 
L 116.952412 182.210827 
L 118.353207 181.474555 
L 119.754002 180.500055 
L 121.154797 179.287326 
L 122.555592 177.836369 
L 123.956387 176.147184 
L 125.357182 174.21977 
L 126.757977 173.201807 
L 128.158772 171.962813 
L 129.559567 170.424362 
L 130.960362 168.586454 
L 132.361157 166.449089 
L 133.761952 164.012268 
L 136.563542 160.710498 
L 137.964337 158.677407 
L 139.365132 156.265247 
L 140.765927 153.474018 
L 142.166722 150.303719 
L 143.567516 147.695934 
L 144.968311 145.359573 
L 146.369106 142.539376 
L 147.769901 139.235343 
L 149.170696 135.447476 
L 151.972286 127.172378 
L 153.373081 123.891776 
L 154.773876 120.05905 
L 156.174671 115.674201 
L 157.575466 110.737229 
L 160.377056 99.913105 
L 163.178646 94.520009 
L 165.980236 88.405071 
L 168.781826 81.56829 
L 168.781826 81.56829 
L 174.724895 92.364843 
L 176.705919 99.869598 
L 187.601546 143.522734 
L 193.544616 162.973176 
L 199.487686 177.847321 
L 205.430755 189.027847 
L 209.392802 194.710298 
L 211.373825 197.522955 
L 213.354848 199.772936 
L 218.307406 205.013917 
L 224.250476 209.910831 
L 230.193546 213.720002 
L 237.127127 217.047333 
L 243.070197 219.203964 
L 249.013266 220.794873 
L 255.946848 221.990184 
L 261.889917 222.559056 
L 268.823499 222.691846 
L 274.766568 222.486617 
L 280.709638 222.02079 
L 286.652708 221.294704 
L 293.586289 220.078495 
L 299.529359 218.734386 
L 305.472428 217.110979 
L 313.396521 214.608035 
L 323.301637 211.436764 
L 329.244707 209.89238 
L 335.187777 208.863962 
L 341.130846 208.398562 
L 349.054939 208.442955 
L 363.912613 208.853091 
L 364.903125 208.864304 
L 364.903125 208.864304 
" style="fill:none;stroke:#d62728;stroke-linecap:square;stroke-width:1.5;"/>
   </g>
   <g id="line2d_23">
    <path clip-path="url(#pfacd0a19f2)" d="M 30.103125 204.054104 
L 39.90869 203.763376 
L 48.313459 203.054732 
L 53.916639 202.3201 
L 60.920614 201.152482 
L 69.325384 199.270301 
L 72.126974 198.415546 
L 73.527769 197.932944 
L 76.329359 197.254142 
L 79.130948 196.291592 
L 81.932538 195.045296 
L 84.734128 194.207928 
L 87.535718 193.020171 
L 91.738103 190.868859 
L 93.138898 190.34859 
L 94.539693 189.692812 
L 95.940488 188.901523 
L 97.341283 187.974725 
L 98.742078 186.912416 
L 100.142873 186.09129 
L 101.543668 185.479088 
L 102.944463 184.688362 
L 104.345258 183.719112 
L 105.746053 182.571339 
L 108.547643 180.047907 
L 109.948438 179.314625 
L 111.349232 178.350211 
L 112.750027 177.154663 
L 114.150822 175.727982 
L 116.952412 172.337368 
L 118.353207 171.429454 
L 119.754002 170.224589 
L 121.154797 168.722775 
L 122.555592 166.924009 
L 123.956387 164.828294 
L 125.357182 162.435628 
L 126.757977 161.156839 
L 128.158772 159.592026 
L 129.559567 157.644454 
L 130.960362 155.314121 
L 132.361157 152.601029 
L 133.761952 149.505176 
L 136.563542 145.239913 
L 137.964337 142.588975 
L 139.365132 139.436156 
L 140.765927 135.781457 
L 142.166722 131.624878 
L 143.567516 128.169049 
L 144.968311 125.011557 
L 146.369106 121.179179 
L 147.769901 116.671915 
L 149.170696 111.489765 
L 151.972286 100.086424 
L 153.373081 95.399312 
L 154.773876 89.879325 
L 156.174671 83.526462 
L 157.575466 76.340724 
L 160.377056 60.481844 
L 163.178646 52.240588 
L 165.980236 42.814518 
L 168.781826 32.203636 
L 168.781826 32.203636 
L 174.724895 49.008569 
L 176.705919 60.183105 
L 182.648988 95.018846 
L 187.601546 122.543764 
L 193.544616 148.165432 
L 199.487686 166.952579 
L 205.430755 180.633834 
L 209.392802 187.43124 
L 211.373825 190.792469 
L 213.354848 193.443186 
L 218.307406 199.589581 
L 224.250476 205.259099 
L 230.193546 209.625154 
L 236.136615 212.977978 
L 242.079685 215.507927 
L 247.032243 217.074237 
L 249.013266 217.633632 
L 254.956336 218.851384 
L 261.889917 219.610873 
L 267.832987 219.782301 
L 274.766568 219.529812 
L 280.709638 219.008371 
L 286.652708 218.19451 
L 292.595777 217.06084 
L 298.538847 215.603979 
L 305.472428 213.47886 
L 312.40601 211.008991 
L 323.301637 207.012717 
L 329.244707 205.238578 
L 335.187777 204.05366 
L 341.130846 203.516475 
L 348.064428 203.528823 
L 363.912613 204.041166 
L 364.903125 204.054104 
L 364.903125 204.054104 
" style="fill:none;stroke:#9467bd;stroke-linecap:square;stroke-width:1.5;"/>
   </g>
   <g id="patch_3">
    <path d="M 30.103125 239.76 
L 30.103125 22.32 
" style="fill:none;stroke:#000000;stroke-linecap:square;stroke-linejoin:miter;stroke-width:0.8;"/>
   </g>
   <g id="patch_4">
    <path d="M 364.903125 239.76 
L 364.903125 22.32 
" style="fill:none;stroke:#000000;stroke-linecap:square;stroke-linejoin:miter;stroke-width:0.8;"/>
   </g>
   <g id="patch_5">
    <path d="M 30.103125 239.76 
L 364.903125 239.76 
" style="fill:none;stroke:#000000;stroke-linecap:square;stroke-linejoin:miter;stroke-width:0.8;"/>
   </g>
   <g id="patch_6">
    <path d="M 30.103125 22.32 
L 364.903125 22.32 
" style="fill:none;stroke:#000000;stroke-linecap:square;stroke-linejoin:miter;stroke-width:0.8;"/>
   </g>
   <g id="text_10">
    <!-- Spin-response $\chi_{S_z S_z}(\mathbf{q}, \omega=0)$ -->
    <defs>
     <path d="M 53.515625 70.515625 
L 53.515625 60.890625 
Q 47.90625 63.578125 42.921875 64.890625 
Q 37.9375 66.21875 33.296875 66.21875 
Q 25.25 66.21875 20.875 63.09375 
Q 16.5 59.96875 16.5 54.203125 
Q 16.5 49.359375 19.40625 46.890625 
Q 22.3125 44.4375 30.421875 42.921875 
L 36.375 41.703125 
Q 47.40625 39.59375 52.65625 34.296875 
Q 57.90625 29 57.90625 20.125 
Q 57.90625 9.515625 50.796875 4.046875 
Q 43.703125 -1.421875 29.984375 -1.421875 
Q 24.8125 -1.421875 18.96875 -0.25 
Q 13.140625 0.921875 6.890625 3.21875 
L 6.890625 13.375 
Q 12.890625 10.015625 18.65625 8.296875 
Q 24.421875 6.59375 29.984375 6.59375 
Q 38.421875 6.59375 43.015625 9.90625 
Q 47.609375 13.234375 47.609375 19.390625 
Q 47.609375 24.75 44.3125 27.78125 
Q 41.015625 30.8125 33.5 32.328125 
L 27.484375 33.5 
Q 16.453125 35.6875 11.515625 40.375 
Q 6.59375 45.0625 6.59375 53.421875 
Q 6.59375 63.09375 13.40625 68.65625 
Q 20.21875 74.21875 32.171875 74.21875 
Q 37.3125 74.21875 42.625 73.28125 
Q 47.953125 72.359375 53.515625 70.515625 
z
" id="DejaVuSans-53"/>
     <path d="M 18.109375 8.203125 
L 18.109375 -20.796875 
L 9.078125 -20.796875 
L 9.078125 54.6875 
L 18.109375 54.6875 
L 18.109375 46.390625 
Q 20.953125 51.265625 25.265625 53.625 
Q 29.59375 56 35.59375 56 
Q 45.5625 56 51.78125 48.09375 
Q 58.015625 40.1875 58.015625 27.296875 
Q 58.015625 14.40625 51.78125 6.484375 
Q 45.5625 -1.421875 35.59375 -1.421875 
Q 29.59375 -1.421875 25.265625 0.953125 
Q 20.953125 3.328125 18.109375 8.203125 
z
M 48.6875 27.296875 
Q 48.6875 37.203125 44.609375 42.84375 
Q 40.53125 48.484375 33.40625 48.484375 
Q 26.265625 48.484375 22.1875 42.84375 
Q 18.109375 37.203125 18.109375 27.296875 
Q 18.109375 17.390625 22.1875 11.75 
Q 26.265625 6.109375 33.40625 6.109375 
Q 40.53125 6.109375 44.609375 11.75 
Q 48.6875 17.390625 48.6875 27.296875 
z
" id="DejaVuSans-70"/>
     <path d="M 9.421875 54.6875 
L 18.40625 54.6875 
L 18.40625 0 
L 9.421875 0 
z
M 9.421875 75.984375 
L 18.40625 75.984375 
L 18.40625 64.59375 
L 9.421875 64.59375 
z
" id="DejaVuSans-69"/>
     <path d="M 54.890625 33.015625 
L 54.890625 0 
L 45.90625 0 
L 45.90625 32.71875 
Q 45.90625 40.484375 42.875 44.328125 
Q 39.84375 48.1875 33.796875 48.1875 
Q 26.515625 48.1875 22.3125 43.546875 
Q 18.109375 38.921875 18.109375 30.90625 
L 18.109375 0 
L 9.078125 0 
L 9.078125 54.6875 
L 18.109375 54.6875 
L 18.109375 46.1875 
Q 21.34375 51.125 25.703125 53.5625 
Q 30.078125 56 35.796875 56 
Q 45.21875 56 50.046875 50.171875 
Q 54.890625 44.34375 54.890625 33.015625 
z
" id="DejaVuSans-6e"/>
     <path d="M 4.890625 31.390625 
L 31.203125 31.390625 
L 31.203125 23.390625 
L 4.890625 23.390625 
z
" id="DejaVuSans-2d"/>
     <path d="M 41.109375 46.296875 
Q 39.59375 47.171875 37.8125 47.578125 
Q 36.03125 48 33.890625 48 
Q 26.265625 48 22.1875 43.046875 
Q 18.109375 38.09375 18.109375 28.8125 
L 18.109375 0 
L 9.078125 0 
L 9.078125 54.6875 
L 18.109375 54.6875 
L 18.109375 46.1875 
Q 20.953125 51.171875 25.484375 53.578125 
Q 30.03125 56 36.53125 56 
Q 37.453125 56 38.578125 55.875 
Q 39.703125 55.765625 41.0625 55.515625 
z
" id="DejaVuSans-72"/>
     <path d="M 56.203125 29.59375 
L 56.203125 25.203125 
L 14.890625 25.203125 
Q 15.484375 15.921875 20.484375 11.0625 
Q 25.484375 6.203125 34.421875 6.203125 
Q 39.59375 6.203125 44.453125 7.46875 
Q 49.3125 8.734375 54.109375 11.28125 
L 54.109375 2.78125 
Q 49.265625 0.734375 44.1875 -0.34375 
Q 39.109375 -1.421875 33.890625 -1.421875 
Q 20.796875 -1.421875 13.15625 6.1875 
Q 5.515625 13.8125 5.515625 26.8125 
Q 5.515625 40.234375 12.765625 48.109375 
Q 20.015625 56 32.328125 56 
Q 43.359375 56 49.78125 48.890625 
Q 56.203125 41.796875 56.203125 29.59375 
z
M 47.21875 32.234375 
Q 47.125 39.59375 43.09375 43.984375 
Q 39.0625 48.390625 32.421875 48.390625 
Q 24.90625 48.390625 20.390625 44.140625 
Q 15.875 39.890625 15.1875 32.171875 
z
" id="DejaVuSans-65"/>
     <path d="M 44.28125 53.078125 
L 44.28125 44.578125 
Q 40.484375 46.53125 36.375 47.5 
Q 32.28125 48.484375 27.875 48.484375 
Q 21.1875 48.484375 17.84375 46.4375 
Q 14.5 44.390625 14.5 40.28125 
Q 14.5 37.15625 16.890625 35.375 
Q 19.28125 33.59375 26.515625 31.984375 
L 29.59375 31.296875 
Q 39.15625 29.25 43.1875 25.515625 
Q 47.21875 21.78125 47.21875 15.09375 
Q 47.21875 7.46875 41.1875 3.015625 
Q 35.15625 -1.421875 24.609375 -1.421875 
Q 20.21875 -1.421875 15.453125 -0.5625 
Q 10.6875 0.296875 5.421875 2 
L 5.421875 11.28125 
Q 10.40625 8.6875 15.234375 7.390625 
Q 20.0625 6.109375 24.8125 6.109375 
Q 31.15625 6.109375 34.5625 8.28125 
Q 37.984375 10.453125 37.984375 14.40625 
Q 37.984375 18.0625 35.515625 20.015625 
Q 33.0625 21.96875 24.703125 23.78125 
L 21.578125 24.515625 
Q 13.234375 26.265625 9.515625 29.90625 
Q 5.8125 33.546875 5.8125 39.890625 
Q 5.8125 47.609375 11.28125 51.796875 
Q 16.75 56 26.8125 56 
Q 31.78125 56 36.171875 55.265625 
Q 40.578125 54.546875 44.28125 53.078125 
z
" id="DejaVuSans-73"/>
     <path d="M 30.609375 48.390625 
Q 23.390625 48.390625 19.1875 42.75 
Q 14.984375 37.109375 14.984375 27.296875 
Q 14.984375 17.484375 19.15625 11.84375 
Q 23.34375 6.203125 30.609375 6.203125 
Q 37.796875 6.203125 41.984375 11.859375 
Q 46.1875 17.53125 46.1875 27.296875 
Q 46.1875 37.015625 41.984375 42.703125 
Q 37.796875 48.390625 30.609375 48.390625 
z
M 30.609375 56 
Q 42.328125 56 49.015625 48.375 
Q 55.71875 40.765625 55.71875 27.296875 
Q 55.71875 13.875 49.015625 6.21875 
Q 42.328125 -1.421875 30.609375 -1.421875 
Q 18.84375 -1.421875 12.171875 6.21875 
Q 5.515625 13.875 5.515625 27.296875 
Q 5.515625 40.765625 12.171875 48.375 
Q 18.84375 56 30.609375 56 
z
" id="DejaVuSans-6f"/>
     <path id="DejaVuSans-20"/>
     <path d="M 30.03125 -12.203125 
L 26.421875 6.5 
L 6.15625 -20.84375 
L -4.4375 -20.84375 
L 24.265625 17.828125 
L 19.828125 40.828125 
Q 18.65625 46.96875 11.140625 46.96875 
L 8.734375 46.96875 
L 10.203125 54.6875 
L 13.625 54.59375 
Q 26.171875 54.25 27.734375 46.09375 
L 31.34375 27.390625 
L 51.609375 54.734375 
L 62.203125 54.734375 
L 33.5 16.0625 
L 37.9375 -6.9375 
Q 39.109375 -13.09375 46.625 -13.09375 
L 49.03125 -13.09375 
L 47.5625 -20.796875 
L 44.140625 -20.703125 
Q 31.59375 -20.359375 30.03125 -12.203125 
z
" id="DejaVuSans-Oblique-3c7"/>
     <path d="M 60.296875 70.515625 
L 58.40625 60.890625 
Q 53.46875 63.53125 48.609375 64.875 
Q 43.75 66.21875 39.203125 66.21875 
Q 30.375 66.21875 25.140625 62.359375 
Q 19.921875 58.5 19.921875 52.09375 
Q 19.921875 48.578125 21.84375 46.703125 
Q 23.78125 44.828125 31.78125 42.671875 
L 37.703125 41.21875 
Q 47.703125 38.625 51.609375 34.640625 
Q 55.515625 30.671875 55.515625 23.484375 
Q 55.515625 12.453125 46.84375 5.515625 
Q 38.1875 -1.421875 24.03125 -1.421875 
Q 18.21875 -1.421875 12.359375 -0.265625 
Q 6.5 0.875 0.59375 3.21875 
L 2.59375 13.375 
Q 8.015625 10.015625 13.453125 8.296875 
Q 18.890625 6.59375 24.3125 6.59375 
Q 33.546875 6.59375 39.109375 10.6875 
Q 44.671875 14.796875 44.671875 21.390625 
Q 44.671875 25.78125 42.453125 28.046875 
Q 40.234375 30.328125 32.90625 32.171875 
L 27 33.6875 
Q 16.890625 36.328125 13.203125 39.765625 
Q 9.515625 43.21875 9.515625 49.421875 
Q 9.515625 60.296875 17.890625 67.25 
Q 26.265625 74.21875 39.703125 74.21875 
Q 44.921875 74.21875 50.046875 73.28125 
Q 55.171875 72.359375 60.296875 70.515625 
z
" id="DejaVuSans-Oblique-53"/>
     <path d="M 11.625 54.6875 
L 54.296875 54.6875 
L 52.6875 46.484375 
L 11.53125 7.171875 
L 45.515625 7.171875 
L 44.09375 0 
L -0.296875 0 
L 1.3125 8.203125 
L 42.484375 47.515625 
L 10.203125 47.515625 
z
" id="DejaVuSans-Oblique-7a"/>
     <path d="M 31 75.875 
Q 24.46875 64.65625 21.28125 53.65625 
Q 18.109375 42.671875 18.109375 31.390625 
Q 18.109375 20.125 21.3125 9.0625 
Q 24.515625 -2 31 -13.1875 
L 23.1875 -13.1875 
Q 15.875 -1.703125 12.234375 9.375 
Q 8.59375 20.453125 8.59375 31.390625 
Q 8.59375 42.28125 12.203125 53.3125 
Q 15.828125 64.359375 23.1875 75.875 
z
" id="DejaVuSans-28"/>
     <path d="M 34.078125 43.3125 
Q 28.515625 43.3125 25.5625 39.203125 
Q 22.609375 35.109375 22.609375 27.296875 
Q 22.609375 19.484375 25.5625 15.375 
Q 28.515625 11.28125 34.078125 11.28125 
Q 39.703125 11.28125 42.65625 15.375 
Q 45.609375 19.484375 45.609375 27.296875 
Q 45.609375 35.109375 42.65625 39.203125 
Q 39.703125 43.3125 34.078125 43.3125 
z
M 45.609375 7.90625 
Q 42 3.078125 37.640625 0.828125 
Q 33.296875 -1.421875 27.59375 -1.421875 
Q 17.484375 -1.421875 10.984375 6.609375 
Q 4.5 14.65625 4.5 27.296875 
Q 4.5 39.9375 10.984375 47.921875 
Q 17.484375 55.90625 27.59375 55.90625 
Q 33.296875 55.90625 37.640625 53.65625 
Q 42 51.421875 45.609375 46.578125 
L 45.609375 54.6875 
L 63.1875 54.6875 
L 63.1875 -20.796875 
L 45.609375 -20.796875 
z
" id="DejaVuSans-Bold-71"/>
     <path d="M 11.71875 12.40625 
L 22.015625 12.40625 
L 22.015625 4 
L 14.015625 -11.625 
L 7.71875 -11.625 
L 11.71875 4 
z
" id="DejaVuSans-2c"/>
     <path d="M 21.390625 -1.421875 
Q 1.125 -1.421875 6.78125 27.59375 
Q 8.984375 39.0625 19.625 54.6875 
L 29.296875 54.6875 
Q 19.234375 39.0625 17 27.34375 
Q 12.796875 6.203125 23.734375 6.203125 
Q 33.84375 6.203125 38.71875 32.46875 
L 47.015625 32.46875 
Q 41.703125 6.0625 51.8125 6.203125 
Q 62.703125 6.296875 66.796875 27.34375 
Q 69.046875 39.0625 65.140625 54.6875 
L 74.8125 54.6875 
Q 79.296875 39.0625 77.09375 27.59375 
Q 71.53125 -1.46875 51.21875 -1.421875 
Q 37.9375 -1.375 39.109375 13.1875 
Q 34.28125 -1.421875 21.390625 -1.421875 
z
" id="DejaVuSans-Oblique-3c9"/>
     <path d="M 10.59375 45.40625 
L 73.1875 45.40625 
L 73.1875 37.203125 
L 10.59375 37.203125 
z
M 10.59375 25.484375 
L 73.1875 25.484375 
L 73.1875 17.1875 
L 10.59375 17.1875 
z
" id="DejaVuSans-3d"/>
     <path d="M 8.015625 75.875 
L 15.828125 75.875 
Q 23.140625 64.359375 26.78125 53.3125 
Q 30.421875 42.28125 30.421875 31.390625 
Q 30.421875 20.453125 26.78125 9.375 
Q 23.140625 -1.703125 15.828125 -13.1875 
L 8.015625 -13.1875 
Q 14.5 -2 17.703125 9.0625 
Q 20.90625 20.125 20.90625 31.390625 
Q 20.90625 42.671875 17.703125 53.65625 
Q 14.5 64.65625 8.015625 75.875 
z
" id="DejaVuSans-29"/>
    </defs>
    <g transform="translate(112.303125 16.32)scale(0.12 -0.12)">
     <use transform="translate(0 0.015625)" xlink:href="#DejaVuSans-53"/>
     <use transform="translate(63.476562 0.015625)" xlink:href="#DejaVuSans-70"/>
     <use transform="translate(126.953125 0.015625)" xlink:href="#DejaVuSans-69"/>
     <use transform="translate(154.736328 0.015625)" xlink:href="#DejaVuSans-6e"/>
     <use transform="translate(218.115234 0.015625)" xlink:href="#DejaVuSans-2d"/>
     <use transform="translate(254.199219 0.015625)" xlink:href="#DejaVuSans-72"/>
     <use transform="translate(295.3125 0.015625)" xlink:href="#DejaVuSans-65"/>
     <use transform="translate(356.835938 0.015625)" xlink:href="#DejaVuSans-73"/>
     <use transform="translate(408.935547 0.015625)" xlink:href="#DejaVuSans-70"/>
     <use transform="translate(472.412109 0.015625)" xlink:href="#DejaVuSans-6f"/>
     <use transform="translate(533.59375 0.015625)" xlink:href="#DejaVuSans-6e"/>
     <use transform="translate(596.972656 0.015625)" xlink:href="#DejaVuSans-73"/>
     <use transform="translate(649.072266 0.015625)" xlink:href="#DejaVuSans-65"/>
     <use transform="translate(710.595703 0.015625)" xlink:href="#DejaVuSans-20"/>
     <use transform="translate(742.382812 0.015625)" xlink:href="#DejaVuSans-Oblique-3c7"/>
     <use transform="translate(801.5625 -16.390625)scale(0.7)" xlink:href="#DejaVuSans-Oblique-53"/>
     <use transform="translate(845.996094 -27.875)scale(0.49)" xlink:href="#DejaVuSans-Oblique-7a"/>
     <use transform="translate(873.630371 -16.390625)scale(0.7)" xlink:href="#DejaVuSans-Oblique-53"/>
     <use transform="translate(918.063965 -27.875)scale(0.49)" xlink:href="#DejaVuSans-Oblique-7a"/>
     <use transform="translate(948.432617 0.015625)" xlink:href="#DejaVuSans-28"/>
     <use transform="translate(987.446289 0.015625)" xlink:href="#DejaVuSans-Bold-71"/>
     <use transform="translate(1059.02832 0.015625)" xlink:href="#DejaVuSans-2c"/>
     <use transform="translate(1110.297852 0.015625)" xlink:href="#DejaVuSans-Oblique-3c9"/>
     <use transform="translate(1213.520508 0.015625)" xlink:href="#DejaVuSans-3d"/>
     <use transform="translate(1316.791992 0.015625)" xlink:href="#DejaVuSans-30"/>
     <use transform="translate(1380.415039 0.015625)" xlink:href="#DejaVuSans-29"/>
    </g>
   </g>
   <g id="legend_1">
    <g id="patch_7">
     <path d="M 284.003125 103.710625 
L 357.903125 103.710625 
Q 359.903125 103.710625 359.903125 101.710625 
L 359.903125 29.32 
Q 359.903125 27.32 357.903125 27.32 
L 284.003125 27.32 
Q 282.003125 27.32 282.003125 29.32 
L 282.003125 101.710625 
Q 282.003125 103.710625 284.003125 103.710625 
z
" style="fill:#ffffff;opacity:0.8;stroke:#cccccc;stroke-linejoin:miter;"/>
    </g>
    <g id="line2d_24">
     <path d="M 286.003125 35.418437 
L 306.003125 35.418437 
" style="fill:none;stroke:#1f77b4;stroke-linecap:square;stroke-width:1.5;"/>
    </g>
    <g id="line2d_25"/>
    <g id="text_11">
     <!-- $U=0$ -->
     <defs>
      <path d="M 15.484375 72.90625 
L 25.390625 72.90625 
L 16.796875 28.609375 
Q 16.265625 25.640625 16.046875 23.703125 
Q 15.828125 21.78125 15.828125 20.3125 
Q 15.828125 13.578125 19.578125 10.078125 
Q 23.34375 6.59375 30.609375 6.59375 
Q 40.046875 6.59375 45.28125 11.765625 
Q 50.53125 16.9375 52.78125 28.609375 
L 61.375 72.90625 
L 71.296875 72.90625 
L 62.5 27.390625 
Q 59.625 12.640625 51.5625 5.609375 
Q 43.5 -1.421875 29.5 -1.421875 
Q 18.5625 -1.421875 12.1875 4.078125 
Q 5.8125 9.578125 5.8125 19 
Q 5.8125 20.703125 6.046875 22.828125 
Q 6.296875 24.953125 6.78125 27.390625 
z
" id="DejaVuSans-Oblique-55"/>
     </defs>
     <g transform="translate(314.003125 38.918437)scale(0.1 -0.1)">
      <use transform="translate(0 0.78125)" xlink:href="#DejaVuSans-Oblique-55"/>
      <use transform="translate(92.675781 0.78125)" xlink:href="#DejaVuSans-3d"/>
      <use transform="translate(195.947266 0.78125)" xlink:href="#DejaVuSans-30"/>
     </g>
    </g>
    <g id="line2d_26">
     <path d="M 286.003125 50.096562 
L 306.003125 50.096562 
" style="fill:none;stroke:#ff7f0e;stroke-linecap:square;stroke-width:1.5;"/>
    </g>
    <g id="line2d_27"/>
    <g id="text_12">
     <!-- $U=1.00$ -->
     <g transform="translate(314.003125 53.596562)scale(0.1 -0.1)">
      <use transform="translate(0 0.78125)" xlink:href="#DejaVuSans-Oblique-55"/>
      <use transform="translate(92.675781 0.78125)" xlink:href="#DejaVuSans-3d"/>
      <use transform="translate(195.947266 0.78125)" xlink:href="#DejaVuSans-31"/>
      <use transform="translate(259.570312 0.78125)" xlink:href="#DejaVuSans-2e"/>
      <use transform="translate(291.357422 0.78125)" xlink:href="#DejaVuSans-30"/>
      <use transform="translate(354.980469 0.78125)" xlink:href="#DejaVuSans-30"/>
     </g>
    </g>
    <g id="line2d_28">
     <path d="M 286.003125 64.774687 
L 306.003125 64.774687 
" style="fill:none;stroke:#2ca02c;stroke-linecap:square;stroke-width:1.5;"/>
    </g>
    <g id="line2d_29"/>
    <g id="text_13">
     <!-- $U=2.00$ -->
     <g transform="translate(314.003125 68.274687)scale(0.1 -0.1)">
      <use transform="translate(0 0.78125)" xlink:href="#DejaVuSans-Oblique-55"/>
      <use transform="translate(92.675781 0.78125)" xlink:href="#DejaVuSans-3d"/>
      <use transform="translate(195.947266 0.78125)" xlink:href="#DejaVuSans-32"/>
      <use transform="translate(259.570312 0.78125)" xlink:href="#DejaVuSans-2e"/>
      <use transform="translate(291.357422 0.78125)" xlink:href="#DejaVuSans-30"/>
      <use transform="translate(354.980469 0.78125)" xlink:href="#DejaVuSans-30"/>
     </g>
    </g>
    <g id="line2d_30">
     <path d="M 286.003125 79.452812 
L 306.003125 79.452812 
" style="fill:none;stroke:#d62728;stroke-linecap:square;stroke-width:1.5;"/>
    </g>
    <g id="line2d_31"/>
    <g id="text_14">
     <!-- $U=3.00$ -->
     <g transform="translate(314.003125 82.952812)scale(0.1 -0.1)">
      <use transform="translate(0 0.78125)" xlink:href="#DejaVuSans-Oblique-55"/>
      <use transform="translate(92.675781 0.78125)" xlink:href="#DejaVuSans-3d"/>
      <use transform="translate(195.947266 0.78125)" xlink:href="#DejaVuSans-33"/>
      <use transform="translate(259.570312 0.78125)" xlink:href="#DejaVuSans-2e"/>
      <use transform="translate(291.357422 0.78125)" xlink:href="#DejaVuSans-30"/>
      <use transform="translate(354.980469 0.78125)" xlink:href="#DejaVuSans-30"/>
     </g>
    </g>
    <g id="line2d_32">
     <path d="M 286.003125 94.130937 
L 306.003125 94.130937 
" style="fill:none;stroke:#9467bd;stroke-linecap:square;stroke-width:1.5;"/>
    </g>
    <g id="line2d_33"/>
    <g id="text_15">
     <!-- $U=4.00$ -->
     <g transform="translate(314.003125 97.630937)scale(0.1 -0.1)">
      <use transform="translate(0 0.78125)" xlink:href="#DejaVuSans-Oblique-55"/>
      <use transform="translate(92.675781 0.78125)" xlink:href="#DejaVuSans-3d"/>
      <use transform="translate(195.947266 0.78125)" xlink:href="#DejaVuSans-34"/>
      <use transform="translate(259.570312 0.78125)" xlink:href="#DejaVuSans-2e"/>
      <use transform="translate(291.357422 0.78125)" xlink:href="#DejaVuSans-30"/>
      <use transform="translate(354.980469 0.78125)" xlink:href="#DejaVuSans-30"/>
     </g>
    </g>
   </g>
  </g>
 </g>
 <defs>
  <clipPath id="pfacd0a19f2">
   <rect height="217.44" width="334.8" x="30.103125" y="22.32"/>
  </clipPath>
 </defs>
</svg>
