<?xml version="1.0" encoding="utf-8" standalone="no"?>
<!DOCTYPE svg PUBLIC "-//W3C//DTD SVG 1.1//EN"
  "http://www.w3.org/Graphics/SVG/1.1/DTD/svg11.dtd">
<!-- Created with matplotlib (http://matplotlib.org/) -->
<svg height="350.39625pt" version="1.1" viewBox="0 0 420.560937 350.39625" width="420.560937pt" xmlns="http://www.w3.org/2000/svg" xmlns:xlink="http://www.w3.org/1999/xlink">
 <defs>
  <style type="text/css">
*{stroke-linecap:butt;stroke-linejoin:round;}
  </style>
 </defs>
 <g id="figure_1">
  <g id="patch_1">
   <path d="M 0 350.39625 
L 420.560937 350.39625 
L 420.560937 0 
L 0 0 
z
" style="fill:none;"/>
  </g>
  <g id="axes_1">
   <g id="patch_2">
    <path d="M 58.523438 312.84 
L 409.860937 312.84 
L 409.860937 22.44 
L 58.523438 22.44 
z
" style="fill:#ffffff;"/>
   </g>
   <g id="matplotlib.axis_1">
    <g id="xtick_1">
     <g id="line2d_1">
      <defs>
       <path d="M 0 0 
L 0 3.5 
" id="m17961681df" style="stroke:#000000;stroke-width:0.8;"/>
      </defs>
      <g>
       <use style="stroke:#000000;stroke-width:0.8;" x="106.433097" xlink:href="#m17961681df" y="312.84"/>
      </g>
     </g>
     <g id="text_1">
      <!-- −0.4 -->
      <defs>
       <path d="M 10.59375 35.5 
L 73.1875 35.5 
L 73.1875 27.203125 
L 10.59375 27.203125 
z
" id="DejaVuSans-2212"/>
       <path d="M 31.78125 66.40625 
Q 24.171875 66.40625 20.328125 58.90625 
Q 16.5 51.421875 16.5 36.375 
Q 16.5 21.390625 20.328125 13.890625 
Q 24.171875 6.390625 31.78125 6.390625 
Q 39.453125 6.390625 43.28125 13.890625 
Q 47.125 21.390625 47.125 36.375 
Q 47.125 51.421875 43.28125 58.90625 
Q 39.453125 66.40625 31.78125 66.40625 
z
M 31.78125 74.21875 
Q 44.046875 74.21875 50.515625 64.515625 
Q 56.984375 54.828125 56.984375 36.375 
Q 56.984375 17.96875 50.515625 8.265625 
Q 44.046875 -1.421875 31.78125 -1.421875 
Q 19.53125 -1.421875 13.0625 8.265625 
Q 6.59375 17.96875 6.59375 36.375 
Q 6.59375 54.828125 13.0625 64.515625 
Q 19.53125 74.21875 31.78125 74.21875 
z
" id="DejaVuSans-30"/>
       <path d="M 10.6875 12.40625 
L 21 12.40625 
L 21 0 
L 10.6875 0 
z
" id="DejaVuSans-2e"/>
       <path d="M 37.796875 64.3125 
L 12.890625 25.390625 
L 37.796875 25.390625 
z
M 35.203125 72.90625 
L 47.609375 72.90625 
L 47.609375 25.390625 
L 58.015625 25.390625 
L 58.015625 17.1875 
L 47.609375 17.1875 
L 47.609375 0 
L 37.796875 0 
L 37.796875 17.1875 
L 4.890625 17.1875 
L 4.890625 26.703125 
z
" id="DejaVuSans-34"/>
      </defs>
      <g transform="translate(94.29169 327.438437)scale(0.1 -0.1)">
       <use xlink:href="#DejaVuSans-2212"/>
       <use x="83.789062" xlink:href="#DejaVuSans-30"/>
       <use x="147.412109" xlink:href="#DejaVuSans-2e"/>
       <use x="179.199219" xlink:href="#DejaVuSans-34"/>
      </g>
     </g>
    </g>
    <g id="xtick_2">
     <g id="line2d_2">
      <g>
       <use style="stroke:#000000;stroke-width:0.8;" x="170.312642" xlink:href="#m17961681df" y="312.84"/>
      </g>
     </g>
     <g id="text_2">
      <!-- −0.2 -->
      <defs>
       <path d="M 19.1875 8.296875 
L 53.609375 8.296875 
L 53.609375 0 
L 7.328125 0 
L 7.328125 8.296875 
Q 12.9375 14.109375 22.625 23.890625 
Q 32.328125 33.6875 34.8125 36.53125 
Q 39.546875 41.84375 41.421875 45.53125 
Q 43.3125 49.21875 43.3125 52.78125 
Q 43.3125 58.59375 39.234375 62.25 
Q 35.15625 65.921875 28.609375 65.921875 
Q 23.96875 65.921875 18.8125 64.3125 
Q 13.671875 62.703125 7.8125 59.421875 
L 7.8125 69.390625 
Q 13.765625 71.78125 18.9375 73 
Q 24.125 74.21875 28.421875 74.21875 
Q 39.75 74.21875 46.484375 68.546875 
Q 53.21875 62.890625 53.21875 53.421875 
Q 53.21875 48.921875 51.53125 44.890625 
Q 49.859375 40.875 45.40625 35.40625 
Q 44.1875 33.984375 37.640625 27.21875 
Q 31.109375 20.453125 19.1875 8.296875 
z
" id="DejaVuSans-32"/>
      </defs>
      <g transform="translate(158.171236 327.438437)scale(0.1 -0.1)">
       <use xlink:href="#DejaVuSans-2212"/>
       <use x="83.789062" xlink:href="#DejaVuSans-30"/>
       <use x="147.412109" xlink:href="#DejaVuSans-2e"/>
       <use x="179.199219" xlink:href="#DejaVuSans-32"/>
      </g>
     </g>
    </g>
    <g id="xtick_3">
     <g id="line2d_3">
      <g>
       <use style="stroke:#000000;stroke-width:0.8;" x="234.192187" xlink:href="#m17961681df" y="312.84"/>
      </g>
     </g>
     <g id="text_3">
      <!-- 0.0 -->
      <g transform="translate(226.240625 327.438437)scale(0.1 -0.1)">
       <use xlink:href="#DejaVuSans-30"/>
       <use x="63.623047" xlink:href="#DejaVuSans-2e"/>
       <use x="95.410156" xlink:href="#DejaVuSans-30"/>
      </g>
     </g>
    </g>
    <g id="xtick_4">
     <g id="line2d_4">
      <g>
       <use style="stroke:#000000;stroke-width:0.8;" x="298.071733" xlink:href="#m17961681df" y="312.84"/>
      </g>
     </g>
     <g id="text_4">
      <!-- 0.2 -->
      <g transform="translate(290.12017 327.438437)scale(0.1 -0.1)">
       <use xlink:href="#DejaVuSans-30"/>
       <use x="63.623047" xlink:href="#DejaVuSans-2e"/>
       <use x="95.410156" xlink:href="#DejaVuSans-32"/>
      </g>
     </g>
    </g>
    <g id="xtick_5">
     <g id="line2d_5">
      <g>
       <use style="stroke:#000000;stroke-width:0.8;" x="361.951278" xlink:href="#m17961681df" y="312.84"/>
      </g>
     </g>
     <g id="text_5">
      <!-- 0.4 -->
      <g transform="translate(353.999716 327.438437)scale(0.1 -0.1)">
       <use xlink:href="#DejaVuSans-30"/>
       <use x="63.623047" xlink:href="#DejaVuSans-2e"/>
       <use x="95.410156" xlink:href="#DejaVuSans-34"/>
      </g>
     </g>
    </g>
    <g id="text_6">
     <!-- $m$ -->
     <defs>
      <path d="M 89.796875 33.015625 
L 83.40625 0 
L 74.421875 0 
L 80.71875 32.71875 
Q 81.109375 34.8125 81.296875 36.328125 
Q 81.5 37.84375 81.5 38.921875 
Q 81.5 43.3125 79.046875 45.75 
Q 76.609375 48.1875 72.21875 48.1875 
Q 65.671875 48.1875 60.546875 43.28125 
Q 55.421875 38.375 53.90625 30.515625 
L 47.90625 0 
L 38.921875 0 
L 45.3125 32.71875 
Q 45.703125 34.515625 45.890625 36.046875 
Q 46.09375 37.59375 46.09375 38.8125 
Q 46.09375 43.265625 43.65625 45.71875 
Q 41.21875 48.1875 36.921875 48.1875 
Q 30.28125 48.1875 25.140625 43.28125 
Q 20.015625 38.375 18.5 30.515625 
L 12.5 0 
L 3.515625 0 
L 14.203125 54.6875 
L 23.1875 54.6875 
L 21.484375 46.1875 
Q 25.140625 50.984375 30.046875 53.484375 
Q 34.96875 56 40.578125 56 
Q 46.53125 56 50.359375 52.875 
Q 54.203125 49.75 54.984375 44.1875 
Q 59.078125 49.953125 64.46875 52.96875 
Q 69.875 56 75.875 56 
Q 82.90625 56 86.734375 51.953125 
Q 90.578125 47.90625 90.578125 40.484375 
Q 90.578125 38.875 90.375 36.9375 
Q 90.1875 35.015625 89.796875 33.015625 
z
" id="DejaVuSans-Oblique-6d"/>
     </defs>
     <g transform="translate(229.292187 341.116562)scale(0.1 -0.1)">
      <use xlink:href="#DejaVuSans-Oblique-6d"/>
     </g>
    </g>
   </g>
   <g id="matplotlib.axis_2">
    <g id="ytick_1">
     <g id="line2d_6">
      <defs>
       <path d="M 0 0 
L -3.5 0 
" id="m6d2f3fbcd1" style="stroke:#000000;stroke-width:0.8;"/>
      </defs>
      <g>
       <use style="stroke:#000000;stroke-width:0.8;" x="58.523438" xlink:href="#m6d2f3fbcd1" y="299.455516"/>
      </g>
     </g>
     <g id="text_7">
      <!-- −1.25 -->
      <defs>
       <path d="M 12.40625 8.296875 
L 28.515625 8.296875 
L 28.515625 63.921875 
L 10.984375 60.40625 
L 10.984375 69.390625 
L 28.421875 72.90625 
L 38.28125 72.90625 
L 38.28125 8.296875 
L 54.390625 8.296875 
L 54.390625 0 
L 12.40625 0 
z
" id="DejaVuSans-31"/>
       <path d="M 10.796875 72.90625 
L 49.515625 72.90625 
L 49.515625 64.59375 
L 19.828125 64.59375 
L 19.828125 46.734375 
Q 21.96875 47.46875 24.109375 47.828125 
Q 26.265625 48.1875 28.421875 48.1875 
Q 40.625 48.1875 47.75 41.5 
Q 54.890625 34.8125 54.890625 23.390625 
Q 54.890625 11.625 47.5625 5.09375 
Q 40.234375 -1.421875 26.90625 -1.421875 
Q 22.3125 -1.421875 17.546875 -0.640625 
Q 12.796875 0.140625 7.71875 1.703125 
L 7.71875 11.625 
Q 12.109375 9.234375 16.796875 8.0625 
Q 21.484375 6.890625 26.703125 6.890625 
Q 35.15625 6.890625 40.078125 11.328125 
Q 45.015625 15.765625 45.015625 23.390625 
Q 45.015625 31 40.078125 35.4375 
Q 35.15625 39.890625 26.703125 39.890625 
Q 22.75 39.890625 18.8125 39.015625 
Q 14.890625 38.140625 10.796875 36.28125 
z
" id="DejaVuSans-35"/>
      </defs>
      <g transform="translate(20.878125 303.254735)scale(0.1 -0.1)">
       <use xlink:href="#DejaVuSans-2212"/>
       <use x="83.789062" xlink:href="#DejaVuSans-31"/>
       <use x="147.412109" xlink:href="#DejaVuSans-2e"/>
       <use x="179.199219" xlink:href="#DejaVuSans-32"/>
       <use x="242.822266" xlink:href="#DejaVuSans-35"/>
      </g>
     </g>
    </g>
    <g id="ytick_2">
     <g id="line2d_7">
      <g>
       <use style="stroke:#000000;stroke-width:0.8;" x="58.523438" xlink:href="#m6d2f3fbcd1" y="266.454703"/>
      </g>
     </g>
     <g id="text_8">
      <!-- −1.00 -->
      <g transform="translate(20.878125 270.253921)scale(0.1 -0.1)">
       <use xlink:href="#DejaVuSans-2212"/>
       <use x="83.789062" xlink:href="#DejaVuSans-31"/>
       <use x="147.412109" xlink:href="#DejaVuSans-2e"/>
       <use x="179.199219" xlink:href="#DejaVuSans-30"/>
       <use x="242.822266" xlink:href="#DejaVuSans-30"/>
      </g>
     </g>
    </g>
    <g id="ytick_3">
     <g id="line2d_8">
      <g>
       <use style="stroke:#000000;stroke-width:0.8;" x="58.523438" xlink:href="#m6d2f3fbcd1" y="233.453889"/>
      </g>
     </g>
     <g id="text_9">
      <!-- −0.75 -->
      <defs>
       <path d="M 8.203125 72.90625 
L 55.078125 72.90625 
L 55.078125 68.703125 
L 28.609375 0 
L 18.3125 0 
L 43.21875 64.59375 
L 8.203125 64.59375 
z
" id="DejaVuSans-37"/>
      </defs>
      <g transform="translate(20.878125 237.253108)scale(0.1 -0.1)">
       <use xlink:href="#DejaVuSans-2212"/>
       <use x="83.789062" xlink:href="#DejaVuSans-30"/>
       <use x="147.412109" xlink:href="#DejaVuSans-2e"/>
       <use x="179.199219" xlink:href="#DejaVuSans-37"/>
       <use x="242.822266" xlink:href="#DejaVuSans-35"/>
      </g>
     </g>
    </g>
    <g id="ytick_4">
     <g id="line2d_9">
      <g>
       <use style="stroke:#000000;stroke-width:0.8;" x="58.523438" xlink:href="#m6d2f3fbcd1" y="200.453076"/>
      </g>
     </g>
     <g id="text_10">
      <!-- −0.50 -->
      <g transform="translate(20.878125 204.252295)scale(0.1 -0.1)">
       <use xlink:href="#DejaVuSans-2212"/>
       <use x="83.789062" xlink:href="#DejaVuSans-30"/>
       <use x="147.412109" xlink:href="#DejaVuSans-2e"/>
       <use x="179.199219" xlink:href="#DejaVuSans-35"/>
       <use x="242.822266" xlink:href="#DejaVuSans-30"/>
      </g>
     </g>
    </g>
    <g id="ytick_5">
     <g id="line2d_10">
      <g>
       <use style="stroke:#000000;stroke-width:0.8;" x="58.523438" xlink:href="#m6d2f3fbcd1" y="167.452263"/>
      </g>
     </g>
     <g id="text_11">
      <!-- −0.25 -->
      <g transform="translate(20.878125 171.251482)scale(0.1 -0.1)">
       <use xlink:href="#DejaVuSans-2212"/>
       <use x="83.789062" xlink:href="#DejaVuSans-30"/>
       <use x="147.412109" xlink:href="#DejaVuSans-2e"/>
       <use x="179.199219" xlink:href="#DejaVuSans-32"/>
       <use x="242.822266" xlink:href="#DejaVuSans-35"/>
      </g>
     </g>
    </g>
    <g id="ytick_6">
     <g id="line2d_11">
      <g>
       <use style="stroke:#000000;stroke-width:0.8;" x="58.523438" xlink:href="#m6d2f3fbcd1" y="134.45145"/>
      </g>
     </g>
     <g id="text_12">
      <!-- 0.00 -->
      <g transform="translate(29.257813 138.250668)scale(0.1 -0.1)">
       <use xlink:href="#DejaVuSans-30"/>
       <use x="63.623047" xlink:href="#DejaVuSans-2e"/>
       <use x="95.410156" xlink:href="#DejaVuSans-30"/>
       <use x="159.033203" xlink:href="#DejaVuSans-30"/>
      </g>
     </g>
    </g>
    <g id="ytick_7">
     <g id="line2d_12">
      <g>
       <use style="stroke:#000000;stroke-width:0.8;" x="58.523438" xlink:href="#m6d2f3fbcd1" y="101.450636"/>
      </g>
     </g>
     <g id="text_13">
      <!-- 0.25 -->
      <g transform="translate(29.257813 105.249855)scale(0.1 -0.1)">
       <use xlink:href="#DejaVuSans-30"/>
       <use x="63.623047" xlink:href="#DejaVuSans-2e"/>
       <use x="95.410156" xlink:href="#DejaVuSans-32"/>
       <use x="159.033203" xlink:href="#DejaVuSans-35"/>
      </g>
     </g>
    </g>
    <g id="ytick_8">
     <g id="line2d_13">
      <g>
       <use style="stroke:#000000;stroke-width:0.8;" x="58.523438" xlink:href="#m6d2f3fbcd1" y="68.449823"/>
      </g>
     </g>
     <g id="text_14">
      <!-- 0.50 -->
      <g transform="translate(29.257813 72.249042)scale(0.1 -0.1)">
       <use xlink:href="#DejaVuSans-30"/>
       <use x="63.623047" xlink:href="#DejaVuSans-2e"/>
       <use x="95.410156" xlink:href="#DejaVuSans-35"/>
       <use x="159.033203" xlink:href="#DejaVuSans-30"/>
      </g>
     </g>
    </g>
    <g id="ytick_9">
     <g id="line2d_14">
      <g>
       <use style="stroke:#000000;stroke-width:0.8;" x="58.523438" xlink:href="#m6d2f3fbcd1" y="35.44901"/>
      </g>
     </g>
     <g id="text_15">
      <!-- 0.75 -->
      <g transform="translate(29.257813 39.248228)scale(0.1 -0.1)">
       <use xlink:href="#DejaVuSans-30"/>
       <use x="63.623047" xlink:href="#DejaVuSans-2e"/>
       <use x="95.410156" xlink:href="#DejaVuSans-37"/>
       <use x="159.033203" xlink:href="#DejaVuSans-35"/>
      </g>
     </g>
    </g>
    <g id="text_16">
     <!-- $E[m]$ -->
     <defs>
      <path d="M 16.890625 72.90625 
L 62.984375 72.90625 
L 61.375 64.59375 
L 25.09375 64.59375 
L 20.90625 43.015625 
L 55.71875 43.015625 
L 54.109375 34.71875 
L 19.28125 34.71875 
L 14.203125 8.296875 
L 51.3125 8.296875 
L 49.703125 0 
L 2.6875 0 
z
" id="DejaVuSans-Oblique-45"/>
      <path d="M 8.59375 75.984375 
L 29.296875 75.984375 
L 29.296875 69 
L 17.578125 69 
L 17.578125 -6.203125 
L 29.296875 -6.203125 
L 29.296875 -13.1875 
L 8.59375 -13.1875 
z
" id="DejaVuSans-5b"/>
      <path d="M 30.421875 75.984375 
L 30.421875 -13.1875 
L 9.71875 -13.1875 
L 9.71875 -6.203125 
L 21.390625 -6.203125 
L 21.390625 69 
L 9.71875 69 
L 9.71875 75.984375 
z
" id="DejaVuSans-5d"/>
     </defs>
     <g transform="translate(14.798438 179.59)rotate(-90)scale(0.1 -0.1)">
      <use transform="translate(0 0.015625)" xlink:href="#DejaVuSans-Oblique-45"/>
      <use transform="translate(63.183594 0.015625)" xlink:href="#DejaVuSans-5b"/>
      <use transform="translate(102.197266 0.015625)" xlink:href="#DejaVuSans-Oblique-6d"/>
      <use transform="translate(199.609375 0.015625)" xlink:href="#DejaVuSans-5d"/>
     </g>
    </g>
   </g>
   <g id="line2d_15">
    <path clip-path="url(#p824b1ae6fe)" d="M 74.493324 299.64 
L 77.719564 299.64 
L 80.945803 299.64 
L 84.172043 299.64 
L 87.398283 299.64 
L 90.624522 299.64 
L 93.850762 299.64 
L 97.077002 299.64 
L 100.303241 299.64 
L 103.529481 299.64 
L 106.755721 299.64 
L 109.98196 299.64 
L 113.2082 299.64 
L 116.43444 299.64 
L 119.660679 299.64 
L 122.886919 299.64 
L 126.113159 299.64 
L 129.339398 299.64 
L 132.565638 299.64 
L 135.791878 299.64 
L 139.018117 299.64 
L 142.244357 299.64 
L 145.470597 299.64 
L 148.696836 299.64 
L 151.923076 299.64 
L 155.149316 299.64 
L 158.375555 299.64 
L 161.601795 299.64 
L 164.828035 299.64 
L 168.054274 299.64 
L 171.280514 299.64 
L 174.506754 299.64 
L 177.732993 299.64 
L 180.959233 299.64 
L 184.185473 299.64 
L 187.411712 299.64 
L 190.637952 299.64 
L 193.864192 299.64 
L 197.090431 299.64 
L 200.316671 299.64 
L 203.542911 299.64 
L 206.76915 299.64 
L 209.99539 299.64 
L 213.22163 299.64 
L 216.447869 299.64 
L 219.674109 299.64 
L 222.900349 299.64 
L 226.126588 299.64 
L 229.352828 299.64 
L 232.579068 299.64 
L 235.805307 299.64 
L 239.031547 299.64 
L 242.257787 299.64 
L 245.484026 299.64 
L 248.710266 299.64 
L 251.936506 299.64 
L 255.162745 299.64 
L 258.388985 299.64 
L 261.615225 299.64 
L 264.841464 299.64 
L 268.067704 299.64 
L 271.293944 299.64 
L 274.520183 299.64 
L 277.746423 299.64 
L 280.972663 299.64 
L 284.198902 299.64 
L 287.425142 299.64 
L 290.651382 299.64 
L 293.877621 299.64 
L 297.103861 299.64 
L 300.330101 299.64 
L 303.55634 299.64 
L 306.78258 299.64 
L 310.00882 299.64 
L 313.235059 299.64 
L 316.461299 299.64 
L 319.687539 299.64 
L 322.913778 299.64 
L 326.140018 299.64 
L 329.366258 299.64 
L 332.592497 299.64 
L 335.818737 299.64 
L 339.044977 299.64 
L 342.271216 299.64 
L 345.497456 299.64 
L 348.723696 299.64 
L 351.949935 299.64 
L 355.176175 299.64 
L 358.402415 299.64 
L 361.628654 299.64 
L 364.854894 299.64 
L 368.081134 299.64 
L 371.307373 299.64 
L 374.533613 299.64 
L 377.759853 299.64 
L 380.986092 299.64 
L 384.212332 299.64 
L 387.438572 299.64 
L 390.664811 299.64 
L 393.891051 299.64 
" style="fill:none;stroke:#1f77b4;stroke-linecap:square;stroke-width:0.5;"/>
   </g>
   <g id="line2d_16">
    <path clip-path="url(#p824b1ae6fe)" d="M 74.493324 238.778387 
L 77.719564 239.891973 
L 80.945803 240.982894 
L 84.172043 242.051145 
L 87.398283 243.096722 
L 90.624522 244.119622 
L 93.850762 245.119842 
L 97.077002 246.097377 
L 100.303241 247.052224 
L 103.529481 247.98438 
L 106.755721 248.893842 
L 109.98196 249.780607 
L 113.2082 250.64467 
L 116.43444 251.486031 
L 119.660679 252.304685 
L 122.886919 253.100629 
L 126.113159 253.873862 
L 129.339398 254.624381 
L 132.565638 255.352182 
L 135.791878 256.057264 
L 139.018117 256.739624 
L 142.244357 257.39926 
L 145.470597 258.03617 
L 148.696836 258.650351 
L 151.923076 259.241802 
L 155.149316 259.810521 
L 158.375555 260.356505 
L 161.601795 260.879753 
L 164.828035 261.380264 
L 168.054274 261.858035 
L 171.280514 262.313066 
L 174.506754 262.745354 
L 177.732993 263.154898 
L 180.959233 263.541697 
L 184.185473 263.905749 
L 187.411712 264.247054 
L 190.637952 264.56561 
L 193.864192 264.861417 
L 197.090431 265.134472 
L 200.316671 265.384777 
L 203.542911 265.612329 
L 206.76915 265.817127 
L 209.99539 265.999172 
L 213.22163 266.158463 
L 216.447869 266.294999 
L 219.674109 266.408779 
L 222.900349 266.499804 
L 226.126588 266.568073 
L 229.352828 266.613586 
L 232.579068 266.636342 
L 235.805307 266.636342 
L 239.031547 266.613586 
L 242.257787 266.568073 
L 245.484026 266.499804 
L 248.710266 266.408779 
L 251.936506 266.294999 
L 255.162745 266.158463 
L 258.388985 265.999172 
L 261.615225 265.817127 
L 264.841464 265.612329 
L 268.067704 265.384777 
L 271.293944 265.134472 
L 274.520183 264.861417 
L 277.746423 264.56561 
L 280.972663 264.247054 
L 284.198902 263.905749 
L 287.425142 263.541697 
L 290.651382 263.154898 
L 293.877621 262.745354 
L 297.103861 262.313066 
L 300.330101 261.858035 
L 303.55634 261.380264 
L 306.78258 260.879753 
L 310.00882 260.356505 
L 313.235059 259.810521 
L 316.461299 259.241802 
L 319.687539 258.650351 
L 322.913778 258.03617 
L 326.140018 257.39926 
L 329.366258 256.739624 
L 332.592497 256.057264 
L 335.818737 255.352182 
L 339.044977 254.624381 
L 342.271216 253.873862 
L 345.497456 253.100629 
L 348.723696 252.304685 
L 351.949935 251.486031 
L 355.176175 250.64467 
L 358.402415 249.780607 
L 361.628654 248.893842 
L 364.854894 247.98438 
L 368.081134 247.052224 
L 371.307373 246.097377 
L 374.533613 245.119842 
L 377.759853 244.119622 
L 380.986092 243.096722 
L 384.212332 242.051145 
L 387.438572 240.982894 
L 390.664811 239.891973 
L 393.891051 238.778387 
" style="fill:none;stroke:#ff7f0e;stroke-linecap:square;stroke-width:0.5;"/>
   </g>
   <g id="line2d_17">
    <path clip-path="url(#p824b1ae6fe)" d="M 74.493324 188.454729 
L 77.719564 190.246708 
L 80.945803 192.003618 
L 84.172043 193.725319 
L 87.398283 195.411683 
L 90.624522 197.062589 
L 93.850762 198.677927 
L 97.077002 200.257593 
L 100.303241 201.80149 
L 103.529481 203.309529 
L 106.755721 204.781626 
L 109.98196 206.2177 
L 113.2082 207.617679 
L 116.43444 208.981493 
L 119.660679 210.309077 
L 122.886919 211.600369 
L 126.113159 212.855311 
L 129.339398 214.073849 
L 132.565638 215.255931 
L 135.791878 216.401508 
L 139.018117 217.510534 
L 142.244357 218.582966 
L 145.470597 219.618761 
L 148.696836 220.617881 
L 151.923076 221.580289 
L 155.149316 222.505949 
L 158.375555 223.394827 
L 161.601795 224.246894 
L 164.828035 225.062117 
L 168.054274 225.84047 
L 171.280514 226.581925 
L 174.506754 227.286458 
L 177.732993 227.954044 
L 180.959233 228.584662 
L 184.185473 229.17829 
L 187.411712 229.734909 
L 190.637952 230.2545 
L 193.864192 230.737048 
L 197.090431 231.182535 
L 200.316671 231.590949 
L 203.542911 231.962276 
L 206.76915 232.296503 
L 209.99539 232.593621 
L 213.22163 232.853619 
L 216.447869 233.07649 
L 219.674109 233.262227 
L 222.900349 233.410823 
L 226.126588 233.522275 
L 229.352828 233.596577 
L 232.579068 233.633729 
L 235.805307 233.633729 
L 239.031547 233.596577 
L 242.257787 233.522275 
L 245.484026 233.410823 
L 248.710266 233.262227 
L 251.936506 233.07649 
L 255.162745 232.853619 
L 258.388985 232.593621 
L 261.615225 232.296503 
L 264.841464 231.962276 
L 268.067704 231.590949 
L 271.293944 231.182535 
L 274.520183 230.737048 
L 277.746423 230.2545 
L 280.972663 229.734909 
L 284.198902 229.17829 
L 287.425142 228.584662 
L 290.651382 227.954044 
L 293.877621 227.286458 
L 297.103861 226.581925 
L 300.330101 225.84047 
L 303.55634 225.062117 
L 306.78258 224.246894 
L 310.00882 223.394827 
L 313.235059 222.505949 
L 316.461299 221.580289 
L 319.687539 220.617881 
L 322.913778 219.618761 
L 326.140018 218.582966 
L 329.366258 217.510534 
L 332.592497 216.401508 
L 335.818737 215.255931 
L 339.044977 214.073849 
L 342.271216 212.855311 
L 345.497456 211.600369 
L 348.723696 210.309077 
L 351.949935 208.981493 
L 355.176175 207.617679 
L 358.402415 206.2177 
L 361.628654 204.781626 
L 364.854894 203.309529 
L 368.081134 201.80149 
L 371.307373 200.257593 
L 374.533613 198.677927 
L 377.759853 197.062589 
L 380.986092 195.411683 
L 384.212332 193.725319 
L 387.438572 192.003618 
L 390.664811 190.246708 
L 393.891051 188.454729 
" style="fill:none;stroke:#2ca02c;stroke-linecap:square;stroke-width:0.5;"/>
   </g>
   <g id="line2d_18">
    <path clip-path="url(#p824b1ae6fe)" d="M 74.493324 150.185406 
L 77.719564 152.032172 
L 80.945803 153.864799 
L 84.172043 155.680201 
L 87.398283 157.475569 
L 90.624522 159.24837 
L 93.850762 160.996331 
L 97.077002 162.717424 
L 100.303241 164.409845 
L 103.529481 166.071995 
L 106.755721 167.70246 
L 109.98196 169.29999 
L 113.2082 170.863484 
L 116.43444 172.39197 
L 119.660679 173.884589 
L 122.886919 175.340583 
L 126.113159 176.759282 
L 129.339398 178.140092 
L 132.565638 179.482485 
L 135.791878 180.785991 
L 139.018117 182.05019 
L 142.244357 183.274708 
L 145.470597 184.459206 
L 148.696836 185.603381 
L 151.923076 186.706956 
L 155.149316 187.769682 
L 158.375555 188.791332 
L 161.601795 189.771698 
L 164.828035 190.71059 
L 168.054274 191.607834 
L 171.280514 192.463269 
L 174.506754 193.276748 
L 177.732993 194.048134 
L 180.959233 194.777303 
L 184.185473 195.464138 
L 187.411712 196.108533 
L 190.637952 196.710389 
L 193.864192 197.269618 
L 197.090431 197.786135 
L 200.316671 198.259866 
L 203.542911 198.690742 
L 206.76915 199.078703 
L 209.99539 199.423693 
L 213.22163 199.725665 
L 216.447869 199.984575 
L 219.674109 200.200388 
L 222.900349 200.373073 
L 226.126588 200.502609 
L 229.352828 200.588975 
L 232.579068 200.632162 
L 235.805307 200.632162 
L 239.031547 200.588975 
L 242.257787 200.502609 
L 245.484026 200.373073 
L 248.710266 200.200388 
L 251.936506 199.984575 
L 255.162745 199.725665 
L 258.388985 199.423693 
L 261.615225 199.078703 
L 264.841464 198.690742 
L 268.067704 198.259866 
L 271.293944 197.786135 
L 274.520183 197.269618 
L 277.746423 196.710389 
L 280.972663 196.108533 
L 284.198902 195.464138 
L 287.425142 194.777303 
L 290.651382 194.048134 
L 293.877621 193.276748 
L 297.103861 192.463269 
L 300.330101 191.607834 
L 303.55634 190.71059 
L 306.78258 189.771698 
L 310.00882 188.791332 
L 313.235059 187.769682 
L 316.461299 186.706956 
L 319.687539 185.603381 
L 322.913778 184.459206 
L 326.140018 183.274708 
L 329.366258 182.05019 
L 332.592497 180.785991 
L 335.818737 179.482485 
L 339.044977 178.140092 
L 342.271216 176.759282 
L 345.497456 175.340583 
L 348.723696 173.884589 
L 351.949935 172.39197 
L 355.176175 170.863484 
L 358.402415 169.29999 
L 361.628654 167.70246 
L 364.854894 166.071995 
L 368.081134 164.409845 
L 371.307373 162.717424 
L 374.533613 160.996331 
L 377.759853 159.24837 
L 380.986092 157.475569 
L 384.212332 155.680201 
L 387.438572 153.864799 
L 390.664811 152.032172 
L 393.891051 150.185406 
" style="fill:none;stroke:#d62728;stroke-linecap:square;stroke-width:0.5;"/>
   </g>
   <g id="line2d_19">
    <path clip-path="url(#p824b1ae6fe)" d="M 74.493324 131.781771 
L 77.719564 132.207534 
L 80.945803 132.695992 
L 84.172043 133.257864 
L 87.398283 133.899441 
L 90.624522 134.622667 
L 93.850762 135.425596 
L 97.077002 136.303109 
L 100.303241 137.24774 
L 103.529481 138.250519 
L 106.755721 139.301711 
L 109.98196 140.391433 
L 113.2082 141.510098 
L 116.43444 142.648729 
L 119.660679 143.799138 
L 122.886919 144.954004 
L 126.113159 146.106891 
L 129.339398 147.252204 
L 132.565638 148.385131 
L 135.791878 149.501559 
L 139.018117 150.59799 
L 142.244357 151.67146 
L 145.470597 152.71946 
L 148.696836 153.739865 
L 151.923076 154.730876 
L 155.149316 155.690964 
L 158.375555 156.618826 
L 161.601795 157.513348 
L 164.828035 158.373569 
L 168.054274 159.19866 
L 171.280514 159.987897 
L 174.506754 160.740649 
L 177.732993 161.45636 
L 180.959233 162.134536 
L 184.185473 162.774739 
L 187.411712 163.376579 
L 190.637952 163.939705 
L 193.864192 164.463804 
L 197.090431 164.948592 
L 200.316671 165.393818 
L 203.542911 165.799254 
L 206.76915 166.1647 
L 209.99539 166.489977 
L 213.22163 166.774929 
L 216.447869 167.019421 
L 219.674109 167.223337 
L 222.900349 167.386583 
L 226.126588 167.509083 
L 229.352828 167.590781 
L 232.579068 167.631639 
L 235.805307 167.631639 
L 239.031547 167.590781 
L 242.257787 167.509083 
L 245.484026 167.386583 
L 248.710266 167.223337 
L 251.936506 167.019421 
L 255.162745 166.774929 
L 258.388985 166.489977 
L 261.615225 166.1647 
L 264.841464 165.799254 
L 268.067704 165.393818 
L 271.293944 164.948592 
L 274.520183 164.463804 
L 277.746423 163.939705 
L 280.972663 163.376579 
L 284.198902 162.774739 
L 287.425142 162.134536 
L 290.651382 161.45636 
L 293.877621 160.740649 
L 297.103861 159.987897 
L 300.330101 159.19866 
L 303.55634 158.373569 
L 306.78258 157.513348 
L 310.00882 156.618826 
L 313.235059 155.690964 
L 316.461299 154.730876 
L 319.687539 153.739865 
L 322.913778 152.71946 
L 326.140018 151.67146 
L 329.366258 150.59799 
L 332.592497 149.501559 
L 335.818737 148.385131 
L 339.044977 147.252204 
L 342.271216 146.106891 
L 345.497456 144.954004 
L 348.723696 143.799138 
L 351.949935 142.648729 
L 355.176175 141.510098 
L 358.402415 140.391433 
L 361.628654 139.301711 
L 364.854894 138.250519 
L 368.081134 137.24774 
L 371.307373 136.303109 
L 374.533613 135.425596 
L 377.759853 134.622667 
L 380.986092 133.899441 
L 384.212332 133.257864 
L 387.438572 132.695992 
L 390.664811 132.207534 
L 393.891051 131.781771 
" style="fill:none;stroke:#9467bd;stroke-linecap:square;stroke-width:0.5;"/>
   </g>
   <g id="line2d_20">
    <path clip-path="url(#p824b1ae6fe)" d="M 74.493324 132.864144 
L 77.719564 132.536831 
L 80.945803 132.056926 
L 84.172043 131.434135 
L 87.398283 130.683443 
L 90.624522 129.826054 
L 93.850762 128.889856 
L 97.077002 127.909082 
L 100.303241 126.922872 
L 103.529481 125.972668 
L 106.755721 125.098702 
L 109.98196 124.336194 
L 113.2082 123.712075 
L 116.43444 123.24297 
L 119.660679 122.934791 
L 122.886919 122.783841 
L 126.113159 122.778933 
L 129.339398 122.903932 
L 132.565638 123.140164 
L 135.791878 123.468385 
L 139.018117 123.870162 
L 142.244357 124.328718 
L 145.470597 124.829328 
L 148.696836 125.359414 
L 151.923076 125.908437 
L 155.149316 126.467687 
L 158.375555 127.030039 
L 161.601795 127.589691 
L 164.828035 128.141932 
L 168.054274 128.682938 
L 171.280514 129.209593 
L 174.506754 129.719347 
L 177.732993 130.210099 
L 180.959233 130.680103 
L 184.185473 131.127898 
L 187.411712 131.552245 
L 190.637952 131.952091 
L 193.864192 132.326527 
L 197.090431 132.674766 
L 200.316671 132.996125 
L 203.542911 133.290004 
L 206.76915 133.555883 
L 209.99539 133.793306 
L 213.22163 134.001879 
L 216.447869 134.181266 
L 219.674109 134.33118 
L 222.900349 134.451389 
L 226.126588 134.541707 
L 229.352828 134.601995 
L 232.579068 134.632162 
L 235.805307 134.632162 
L 239.031547 134.601995 
L 242.257787 134.541707 
L 245.484026 134.451389 
L 248.710266 134.33118 
L 251.936506 134.181266 
L 255.162745 134.001879 
L 258.388985 133.793306 
L 261.615225 133.555883 
L 264.841464 133.290004 
L 268.067704 132.996125 
L 271.293944 132.674766 
L 274.520183 132.326527 
L 277.746423 131.952091 
L 280.972663 131.552245 
L 284.198902 131.127898 
L 287.425142 130.680103 
L 290.651382 130.210099 
L 293.877621 129.719347 
L 297.103861 129.209593 
L 300.330101 128.682938 
L 303.55634 128.141932 
L 306.78258 127.589691 
L 310.00882 127.030039 
L 313.235059 126.467687 
L 316.461299 125.908437 
L 319.687539 125.359414 
L 322.913778 124.829328 
L 326.140018 124.328718 
L 329.366258 123.870162 
L 332.592497 123.468385 
L 335.818737 123.140164 
L 339.044977 122.903932 
L 342.271216 122.778933 
L 345.497456 122.783841 
L 348.723696 122.934791 
L 351.949935 123.24297 
L 355.176175 123.712075 
L 358.402415 124.336194 
L 361.628654 125.098702 
L 364.854894 125.972668 
L 368.081134 126.922872 
L 371.307373 127.909082 
L 374.533613 128.889856 
L 377.759853 129.826054 
L 380.986092 130.683443 
L 384.212332 131.434135 
L 387.438572 132.056926 
L 390.664811 132.536831 
L 393.891051 132.864144 
" style="fill:none;stroke:#8c564b;stroke-linecap:square;stroke-width:0.5;"/>
   </g>
   <g id="line2d_21">
    <path clip-path="url(#p824b1ae6fe)" d="M 74.493324 134.2018 
L 77.719564 134.051701 
L 80.945803 133.722348 
L 84.172043 133.210026 
L 87.398283 132.510642 
L 90.624522 131.619948 
L 93.850762 130.533944 
L 97.077002 129.249587 
L 100.303241 127.765881 
L 103.529481 126.08548 
L 106.755721 124.216845 
L 109.98196 122.176852 
L 113.2082 119.99352 
L 116.43444 117.708096 
L 119.660679 115.375443 
L 122.886919 113.061569 
L 126.113159 110.837748 
L 129.339398 108.771922 
L 132.565638 106.919526 
L 135.791878 105.316556 
L 139.018117 103.976935 
L 142.244357 102.894478 
L 145.470597 102.048038 
L 148.696836 101.407727 
L 151.923076 100.940496 
L 155.149316 100.614158 
L 158.375555 100.399758 
L 161.601795 100.272598 
L 164.828035 100.21237 
L 168.054274 100.20279 
L 171.280514 100.231004 
L 174.506754 100.286967 
L 177.732993 100.362853 
L 180.959233 100.45256 
L 184.185473 100.551306 
L 187.411712 100.655309 
L 190.637952 100.761548 
L 193.864192 100.867574 
L 197.090431 100.97138 
L 200.316671 101.071299 
L 203.542911 101.165931 
L 206.76915 101.254091 
L 209.99539 101.334774 
L 213.22163 101.407123 
L 216.447869 101.470418 
L 219.674109 101.524055 
L 222.900349 101.567543 
L 226.126588 101.600493 
L 229.352828 101.622619 
L 232.579068 101.633729 
L 235.805307 101.633729 
L 239.031547 101.622619 
L 242.257787 101.600493 
L 245.484026 101.567543 
L 248.710266 101.524055 
L 251.936506 101.470418 
L 255.162745 101.407123 
L 258.388985 101.334774 
L 261.615225 101.254091 
L 264.841464 101.165931 
L 268.067704 101.071299 
L 271.293944 100.97138 
L 274.520183 100.867574 
L 277.746423 100.761548 
L 280.972663 100.655309 
L 284.198902 100.551306 
L 287.425142 100.45256 
L 290.651382 100.362853 
L 293.877621 100.286967 
L 297.103861 100.231004 
L 300.330101 100.20279 
L 303.55634 100.21237 
L 306.78258 100.272598 
L 310.00882 100.399758 
L 313.235059 100.614158 
L 316.461299 100.940496 
L 319.687539 101.407727 
L 322.913778 102.048038 
L 326.140018 102.894478 
L 329.366258 103.976935 
L 332.592497 105.316556 
L 335.818737 106.919526 
L 339.044977 108.771922 
L 342.271216 110.837748 
L 345.497456 113.061569 
L 348.723696 115.375443 
L 351.949935 117.708096 
L 355.176175 119.99352 
L 358.402415 122.176852 
L 361.628654 124.216845 
L 364.854894 126.08548 
L 368.081134 127.765881 
L 371.307373 129.249587 
L 374.533613 130.533944 
L 377.759853 131.619948 
L 380.986092 132.510642 
L 384.212332 133.210026 
L 387.438572 133.722348 
L 390.664811 134.051701 
L 393.891051 134.2018 
" style="fill:none;stroke:#e377c2;stroke-linecap:square;stroke-width:0.5;"/>
   </g>
   <g id="line2d_22">
    <path clip-path="url(#p824b1ae6fe)" d="M 74.493324 134.421543 
L 77.719564 134.316467 
L 80.945803 134.019057 
L 84.172043 133.528054 
L 87.398283 132.841813 
L 90.624522 131.958203 
L 93.850762 130.874494 
L 97.077002 129.587241 
L 100.303241 128.09217 
L 103.529481 126.384125 
L 106.755721 124.457096 
L 109.98196 122.304473 
L 113.2082 119.919638 
L 116.43444 117.29716 
L 119.660679 114.434871 
L 122.886919 111.337142 
L 126.113159 108.019525 
L 129.339398 104.514448 
L 132.565638 100.876724 
L 135.791878 97.186349 
L 139.018117 93.545312 
L 142.244357 90.066162 
L 145.470597 86.853789 
L 148.696836 83.986447 
L 151.923076 81.503797 
L 155.149316 79.406259 
L 158.375555 77.663983 
L 161.601795 76.229917 
L 164.828035 75.051705 
L 168.054274 74.079777 
L 171.280514 73.271473 
L 174.506754 72.592239 
L 177.732993 72.015167 
L 180.959233 71.519803 
L 184.185473 71.090801 
L 187.411712 70.716694 
L 190.637952 70.388887 
L 193.864192 70.100873 
L 197.090431 69.847662 
L 200.316671 69.625356 
L 203.542911 69.430862 
L 206.76915 69.26168 
L 209.99539 69.115762 
L 213.22163 68.991421 
L 216.447869 68.88726 
L 219.674109 68.80213 
L 222.900349 68.735105 
L 226.126588 68.685459 
L 229.352828 68.652656 
L 232.579068 68.636342 
L 235.805307 68.636342 
L 239.031547 68.652656 
L 242.257787 68.685459 
L 245.484026 68.735105 
L 248.710266 68.80213 
L 251.936506 68.88726 
L 255.162745 68.991421 
L 258.388985 69.115762 
L 261.615225 69.26168 
L 264.841464 69.430862 
L 268.067704 69.625356 
L 271.293944 69.847662 
L 274.520183 70.100873 
L 277.746423 70.388887 
L 280.972663 70.716694 
L 284.198902 71.090801 
L 287.425142 71.519803 
L 290.651382 72.015167 
L 293.877621 72.592239 
L 297.103861 73.271473 
L 300.330101 74.079777 
L 303.55634 75.051705 
L 306.78258 76.229917 
L 310.00882 77.663983 
L 313.235059 79.406259 
L 316.461299 81.503797 
L 319.687539 83.986447 
L 322.913778 86.853789 
L 326.140018 90.066162 
L 329.366258 93.545312 
L 332.592497 97.186349 
L 335.818737 100.876724 
L 339.044977 104.514448 
L 342.271216 108.019525 
L 345.497456 111.337142 
L 348.723696 114.434871 
L 351.949935 117.29716 
L 355.176175 119.919638 
L 358.402415 122.304473 
L 361.628654 124.457096 
L 364.854894 126.384125 
L 368.081134 128.09217 
L 371.307373 129.587241 
L 374.533613 130.874494 
L 377.759853 131.958203 
L 380.986092 132.841813 
L 384.212332 133.528054 
L 387.438572 134.019057 
L 390.664811 134.316467 
L 393.891051 134.421543 
" style="fill:none;stroke:#7f7f7f;stroke-linecap:square;stroke-width:0.5;"/>
   </g>
   <g id="line2d_23">
    <path clip-path="url(#p824b1ae6fe)" d="M 74.493324 134.448228 
L 77.719564 134.339062 
L 80.945803 134.01379 
L 84.172043 133.47215 
L 87.398283 132.713778 
L 90.624522 131.73816 
L 93.850762 130.544579 
L 97.077002 129.132037 
L 100.303241 127.499161 
L 103.529481 125.644065 
L 106.755721 123.564193 
L 109.98196 121.256122 
L 113.2082 118.715332 
L 116.43444 115.935987 
L 119.660679 112.910767 
L 122.886919 109.630884 
L 126.113159 106.086501 
L 129.339398 102.267932 
L 132.565638 98.16821 
L 135.791878 93.787786 
L 139.018117 89.142054 
L 142.244357 84.271661 
L 145.470597 79.253458 
L 148.696836 74.206688 
L 151.923076 69.286451 
L 155.149316 64.659394 
L 158.375555 60.46715 
L 161.601795 56.794431 
L 164.828035 53.658139 
L 168.054274 51.019783 
L 171.280514 48.80982 
L 174.506754 46.950526 
L 177.732993 45.37063 
L 180.959233 44.011615 
L 184.185473 42.828546 
L 187.411712 41.788266 
L 190.637952 40.866825 
L 193.864192 40.04705 
L 197.090431 39.316574 
L 200.316671 38.666381 
L 203.542911 38.089762 
L 206.76915 37.581618 
L 209.99539 37.137979 
L 213.22163 36.755699 
L 216.447869 36.432251 
L 219.674109 36.165607 
L 222.900349 35.954148 
L 226.126588 35.796621 
L 229.352828 35.692107 
L 232.579068 35.64 
L 235.805307 35.64 
L 239.031547 35.692107 
L 242.257787 35.796621 
L 245.484026 35.954148 
L 248.710266 36.165607 
L 251.936506 36.432251 
L 255.162745 36.755699 
L 258.388985 37.137979 
L 261.615225 37.581618 
L 264.841464 38.089762 
L 268.067704 38.666381 
L 271.293944 39.316574 
L 274.520183 40.04705 
L 277.746423 40.866825 
L 280.972663 41.788266 
L 284.198902 42.828546 
L 287.425142 44.011615 
L 290.651382 45.37063 
L 293.877621 46.950526 
L 297.103861 48.80982 
L 300.330101 51.019783 
L 303.55634 53.658139 
L 306.78258 56.794431 
L 310.00882 60.46715 
L 313.235059 64.659394 
L 316.461299 69.286451 
L 319.687539 74.206688 
L 322.913778 79.253458 
L 326.140018 84.271661 
L 329.366258 89.142054 
L 332.592497 93.787786 
L 335.818737 98.16821 
L 339.044977 102.267932 
L 342.271216 106.086501 
L 345.497456 109.630884 
L 348.723696 112.910767 
L 351.949935 115.935987 
L 355.176175 118.715332 
L 358.402415 121.256122 
L 361.628654 123.564193 
L 364.854894 125.644065 
L 368.081134 127.499161 
L 371.307373 129.132037 
L 374.533613 130.544579 
L 377.759853 131.73816 
L 380.986092 132.713778 
L 384.212332 133.47215 
L 387.438572 134.01379 
L 390.664811 134.339062 
L 393.891051 134.448228 
" style="fill:none;stroke:#bcbd22;stroke-linecap:square;stroke-width:0.5;"/>
   </g>
   <g id="patch_3">
    <path d="M 58.523438 312.84 
L 58.523438 22.44 
" style="fill:none;stroke:#000000;stroke-linecap:square;stroke-linejoin:miter;stroke-width:0.8;"/>
   </g>
   <g id="patch_4">
    <path d="M 409.860937 312.84 
L 409.860937 22.44 
" style="fill:none;stroke:#000000;stroke-linecap:square;stroke-linejoin:miter;stroke-width:0.8;"/>
   </g>
   <g id="patch_5">
    <path d="M 58.523438 312.84 
L 409.860937 312.84 
" style="fill:none;stroke:#000000;stroke-linecap:square;stroke-linejoin:miter;stroke-width:0.8;"/>
   </g>
   <g id="patch_6">
    <path d="M 58.523438 22.44 
L 409.860937 22.44 
" style="fill:none;stroke:#000000;stroke-linecap:square;stroke-linejoin:miter;stroke-width:0.8;"/>
   </g>
   <g id="text_17">
    <!-- $\beta=5.00$, $n=1.00$, $t=1.00$ -->
    <defs>
     <path d="M 13.625 3.375 
L 8.9375 -20.796875 
L -0.09375 -20.796875 
L 14.5 54.34375 
Q 18.84375 76.609375 39.65625 76.609375 
Q 60.75 76.609375 57.171875 57.8125 
Q 54.734375 44.4375 45.21875 39.546875 
Q 58.015625 35.15625 55.515625 22.125 
Q 51.125 -1.078125 27.484375 -1.03125 
Q 17.140625 -0.984375 13.625 3.375 
z
M 15.921875 15.09375 
Q 19.671875 6.59375 29.296875 6.640625 
Q 43.359375 6.640625 46.34375 21.96875 
Q 49.03125 35.75 26.171875 34.671875 
L 27.78125 42.96875 
Q 45.453125 42.671875 48.53125 58.59375 
Q 50.640625 69.34375 39.203125 69.28125 
Q 26.421875 69.28125 23.484375 54.046875 
z
" id="DejaVuSans-Oblique-3b2"/>
     <path d="M 10.59375 45.40625 
L 73.1875 45.40625 
L 73.1875 37.203125 
L 10.59375 37.203125 
z
M 10.59375 25.484375 
L 73.1875 25.484375 
L 73.1875 17.1875 
L 10.59375 17.1875 
z
" id="DejaVuSans-3d"/>
     <path d="M 11.71875 12.40625 
L 22.015625 12.40625 
L 22.015625 4 
L 14.015625 -11.625 
L 7.71875 -11.625 
L 11.71875 4 
z
" id="DejaVuSans-2c"/>
     <path id="DejaVuSans-20"/>
     <path d="M 55.71875 33.015625 
L 49.3125 0 
L 40.28125 0 
L 46.6875 32.671875 
Q 47.125 34.96875 47.359375 36.71875 
Q 47.609375 38.484375 47.609375 39.5 
Q 47.609375 43.609375 45.015625 45.890625 
Q 42.4375 48.1875 37.796875 48.1875 
Q 30.5625 48.1875 25.34375 43.375 
Q 20.125 38.578125 18.5 30.328125 
L 12.5 0 
L 3.515625 0 
L 14.109375 54.6875 
L 23.09375 54.6875 
L 21.296875 46.09375 
Q 25.046875 50.828125 30.3125 53.40625 
Q 35.59375 56 41.40625 56 
Q 48.640625 56 52.609375 52.09375 
Q 56.59375 48.1875 56.59375 41.109375 
Q 56.59375 39.359375 56.375 37.359375 
Q 56.15625 35.359375 55.71875 33.015625 
z
" id="DejaVuSans-Oblique-6e"/>
     <path d="M 42.28125 54.6875 
L 40.921875 47.703125 
L 23 47.703125 
L 17.1875 18.015625 
Q 16.890625 16.359375 16.75 15.234375 
Q 16.609375 14.109375 16.609375 13.484375 
Q 16.609375 10.359375 18.484375 8.9375 
Q 20.359375 7.515625 24.515625 7.515625 
L 33.59375 7.515625 
L 32.078125 0 
L 23.484375 0 
Q 15.484375 0 11.546875 3.125 
Q 7.625 6.25 7.625 12.59375 
Q 7.625 13.71875 7.765625 15.0625 
Q 7.90625 16.40625 8.203125 18.015625 
L 14.015625 47.703125 
L 6.390625 47.703125 
L 7.8125 54.6875 
L 15.28125 54.6875 
L 18.3125 70.21875 
L 27.296875 70.21875 
L 24.3125 54.6875 
z
" id="DejaVuSans-Oblique-74"/>
    </defs>
    <g transform="translate(154.392187 16.44)scale(0.12 -0.12)">
     <use transform="translate(0 0.390625)" xlink:href="#DejaVuSans-Oblique-3b2"/>
     <use transform="translate(83.300781 0.390625)" xlink:href="#DejaVuSans-3d"/>
     <use transform="translate(186.572266 0.390625)" xlink:href="#DejaVuSans-35"/>
     <use transform="translate(250.195312 0.390625)" xlink:href="#DejaVuSans-2e"/>
     <use transform="translate(281.982422 0.390625)" xlink:href="#DejaVuSans-30"/>
     <use transform="translate(345.605469 0.390625)" xlink:href="#DejaVuSans-30"/>
     <use transform="translate(409.228516 0.390625)" xlink:href="#DejaVuSans-2c"/>
     <use transform="translate(441.015625 0.390625)" xlink:href="#DejaVuSans-20"/>
     <use transform="translate(472.802734 0.390625)" xlink:href="#DejaVuSans-Oblique-6e"/>
     <use transform="translate(555.664062 0.390625)" xlink:href="#DejaVuSans-3d"/>
     <use transform="translate(658.935547 0.390625)" xlink:href="#DejaVuSans-31"/>
     <use transform="translate(722.558594 0.390625)" xlink:href="#DejaVuSans-2e"/>
     <use transform="translate(754.345703 0.390625)" xlink:href="#DejaVuSans-30"/>
     <use transform="translate(817.96875 0.390625)" xlink:href="#DejaVuSans-30"/>
     <use transform="translate(881.591797 0.390625)" xlink:href="#DejaVuSans-2c"/>
     <use transform="translate(913.378906 0.390625)" xlink:href="#DejaVuSans-20"/>
     <use transform="translate(945.166016 0.390625)" xlink:href="#DejaVuSans-Oblique-74"/>
     <use transform="translate(1003.857422 0.390625)" xlink:href="#DejaVuSans-3d"/>
     <use transform="translate(1107.128906 0.390625)" xlink:href="#DejaVuSans-31"/>
     <use transform="translate(1170.751953 0.390625)" xlink:href="#DejaVuSans-2e"/>
     <use transform="translate(1202.539062 0.390625)" xlink:href="#DejaVuSans-30"/>
     <use transform="translate(1266.162109 0.390625)" xlink:href="#DejaVuSans-30"/>
    </g>
   </g>
   <g id="legend_1">
    <g id="patch_7">
     <path d="M 332.896875 162.543125 
L 402.860937 162.543125 
Q 404.860937 162.543125 404.860937 160.543125 
L 404.860937 29.44 
Q 404.860937 27.44 402.860937 27.44 
L 332.896875 27.44 
Q 330.896875 27.44 330.896875 29.44 
L 330.896875 160.543125 
Q 330.896875 162.543125 332.896875 162.543125 
z
" style="fill:#ffffff;opacity:0.8;stroke:#cccccc;stroke-linejoin:miter;"/>
    </g>
    <g id="line2d_24">
     <path d="M 334.896875 35.538437 
L 354.896875 35.538437 
" style="fill:none;stroke:#1f77b4;stroke-linecap:square;stroke-width:0.5;"/>
    </g>
    <g id="line2d_25"/>
    <g id="text_18">
     <!-- U=0.00 -->
     <defs>
      <path d="M 8.6875 72.90625 
L 18.609375 72.90625 
L 18.609375 28.609375 
Q 18.609375 16.890625 22.84375 11.734375 
Q 27.09375 6.59375 36.625 6.59375 
Q 46.09375 6.59375 50.34375 11.734375 
Q 54.59375 16.890625 54.59375 28.609375 
L 54.59375 72.90625 
L 64.5 72.90625 
L 64.5 27.390625 
Q 64.5 13.140625 57.4375 5.859375 
Q 50.390625 -1.421875 36.625 -1.421875 
Q 22.796875 -1.421875 15.734375 5.859375 
Q 8.6875 13.140625 8.6875 27.390625 
z
" id="DejaVuSans-55"/>
     </defs>
     <g transform="translate(362.896875 39.038437)scale(0.1 -0.1)">
      <use xlink:href="#DejaVuSans-55"/>
      <use x="73.193359" xlink:href="#DejaVuSans-3d"/>
      <use x="156.982422" xlink:href="#DejaVuSans-30"/>
      <use x="220.605469" xlink:href="#DejaVuSans-2e"/>
      <use x="252.392578" xlink:href="#DejaVuSans-30"/>
      <use x="316.015625" xlink:href="#DejaVuSans-30"/>
     </g>
    </g>
    <g id="line2d_26">
     <path d="M 334.896875 50.216562 
L 354.896875 50.216562 
" style="fill:none;stroke:#ff7f0e;stroke-linecap:square;stroke-width:0.5;"/>
    </g>
    <g id="line2d_27"/>
    <g id="text_19">
     <!-- U=1.00 -->
     <g transform="translate(362.896875 53.716562)scale(0.1 -0.1)">
      <use xlink:href="#DejaVuSans-55"/>
      <use x="73.193359" xlink:href="#DejaVuSans-3d"/>
      <use x="156.982422" xlink:href="#DejaVuSans-31"/>
      <use x="220.605469" xlink:href="#DejaVuSans-2e"/>
      <use x="252.392578" xlink:href="#DejaVuSans-30"/>
      <use x="316.015625" xlink:href="#DejaVuSans-30"/>
     </g>
    </g>
    <g id="line2d_28">
     <path d="M 334.896875 64.894687 
L 354.896875 64.894687 
" style="fill:none;stroke:#2ca02c;stroke-linecap:square;stroke-width:0.5;"/>
    </g>
    <g id="line2d_29"/>
    <g id="text_20">
     <!-- U=2.00 -->
     <g transform="translate(362.896875 68.394687)scale(0.1 -0.1)">
      <use xlink:href="#DejaVuSans-55"/>
      <use x="73.193359" xlink:href="#DejaVuSans-3d"/>
      <use x="156.982422" xlink:href="#DejaVuSans-32"/>
      <use x="220.605469" xlink:href="#DejaVuSans-2e"/>
      <use x="252.392578" xlink:href="#DejaVuSans-30"/>
      <use x="316.015625" xlink:href="#DejaVuSans-30"/>
     </g>
    </g>
    <g id="line2d_30">
     <path d="M 334.896875 79.572812 
L 354.896875 79.572812 
" style="fill:none;stroke:#d62728;stroke-linecap:square;stroke-width:0.5;"/>
    </g>
    <g id="line2d_31"/>
    <g id="text_21">
     <!-- U=3.00 -->
     <defs>
      <path d="M 40.578125 39.3125 
Q 47.65625 37.796875 51.625 33 
Q 55.609375 28.21875 55.609375 21.1875 
Q 55.609375 10.40625 48.1875 4.484375 
Q 40.765625 -1.421875 27.09375 -1.421875 
Q 22.515625 -1.421875 17.65625 -0.515625 
Q 12.796875 0.390625 7.625 2.203125 
L 7.625 11.71875 
Q 11.71875 9.328125 16.59375 8.109375 
Q 21.484375 6.890625 26.8125 6.890625 
Q 36.078125 6.890625 40.9375 10.546875 
Q 45.796875 14.203125 45.796875 21.1875 
Q 45.796875 27.640625 41.28125 31.265625 
Q 36.765625 34.90625 28.71875 34.90625 
L 20.21875 34.90625 
L 20.21875 43.015625 
L 29.109375 43.015625 
Q 36.375 43.015625 40.234375 45.921875 
Q 44.09375 48.828125 44.09375 54.296875 
Q 44.09375 59.90625 40.109375 62.90625 
Q 36.140625 65.921875 28.71875 65.921875 
Q 24.65625 65.921875 20.015625 65.03125 
Q 15.375 64.15625 9.8125 62.3125 
L 9.8125 71.09375 
Q 15.4375 72.65625 20.34375 73.4375 
Q 25.25 74.21875 29.59375 74.21875 
Q 40.828125 74.21875 47.359375 69.109375 
Q 53.90625 64.015625 53.90625 55.328125 
Q 53.90625 49.265625 50.4375 45.09375 
Q 46.96875 40.921875 40.578125 39.3125 
z
" id="DejaVuSans-33"/>
     </defs>
     <g transform="translate(362.896875 83.072812)scale(0.1 -0.1)">
      <use xlink:href="#DejaVuSans-55"/>
      <use x="73.193359" xlink:href="#DejaVuSans-3d"/>
      <use x="156.982422" xlink:href="#DejaVuSans-33"/>
      <use x="220.605469" xlink:href="#DejaVuSans-2e"/>
      <use x="252.392578" xlink:href="#DejaVuSans-30"/>
      <use x="316.015625" xlink:href="#DejaVuSans-30"/>
     </g>
    </g>
    <g id="line2d_32">
     <path d="M 334.896875 94.250937 
L 354.896875 94.250937 
" style="fill:none;stroke:#9467bd;stroke-linecap:square;stroke-width:0.5;"/>
    </g>
    <g id="line2d_33"/>
    <g id="text_22">
     <!-- U=4.00 -->
     <g transform="translate(362.896875 97.750937)scale(0.1 -0.1)">
      <use xlink:href="#DejaVuSans-55"/>
      <use x="73.193359" xlink:href="#DejaVuSans-3d"/>
      <use x="156.982422" xlink:href="#DejaVuSans-34"/>
      <use x="220.605469" xlink:href="#DejaVuSans-2e"/>
      <use x="252.392578" xlink:href="#DejaVuSans-30"/>
      <use x="316.015625" xlink:href="#DejaVuSans-30"/>
     </g>
    </g>
    <g id="line2d_34">
     <path d="M 334.896875 108.929062 
L 354.896875 108.929062 
" style="fill:none;stroke:#8c564b;stroke-linecap:square;stroke-width:0.5;"/>
    </g>
    <g id="line2d_35"/>
    <g id="text_23">
     <!-- U=5.00 -->
     <g transform="translate(362.896875 112.429062)scale(0.1 -0.1)">
      <use xlink:href="#DejaVuSans-55"/>
      <use x="73.193359" xlink:href="#DejaVuSans-3d"/>
      <use x="156.982422" xlink:href="#DejaVuSans-35"/>
      <use x="220.605469" xlink:href="#DejaVuSans-2e"/>
      <use x="252.392578" xlink:href="#DejaVuSans-30"/>
      <use x="316.015625" xlink:href="#DejaVuSans-30"/>
     </g>
    </g>
    <g id="line2d_36">
     <path d="M 334.896875 123.607187 
L 354.896875 123.607187 
" style="fill:none;stroke:#e377c2;stroke-linecap:square;stroke-width:0.5;"/>
    </g>
    <g id="line2d_37"/>
    <g id="text_24">
     <!-- U=6.00 -->
     <defs>
      <path d="M 33.015625 40.375 
Q 26.375 40.375 22.484375 35.828125 
Q 18.609375 31.296875 18.609375 23.390625 
Q 18.609375 15.53125 22.484375 10.953125 
Q 26.375 6.390625 33.015625 6.390625 
Q 39.65625 6.390625 43.53125 10.953125 
Q 47.40625 15.53125 47.40625 23.390625 
Q 47.40625 31.296875 43.53125 35.828125 
Q 39.65625 40.375 33.015625 40.375 
z
M 52.59375 71.296875 
L 52.59375 62.3125 
Q 48.875 64.0625 45.09375 64.984375 
Q 41.3125 65.921875 37.59375 65.921875 
Q 27.828125 65.921875 22.671875 59.328125 
Q 17.53125 52.734375 16.796875 39.40625 
Q 19.671875 43.65625 24.015625 45.921875 
Q 28.375 48.1875 33.59375 48.1875 
Q 44.578125 48.1875 50.953125 41.515625 
Q 57.328125 34.859375 57.328125 23.390625 
Q 57.328125 12.15625 50.6875 5.359375 
Q 44.046875 -1.421875 33.015625 -1.421875 
Q 20.359375 -1.421875 13.671875 8.265625 
Q 6.984375 17.96875 6.984375 36.375 
Q 6.984375 53.65625 15.1875 63.9375 
Q 23.390625 74.21875 37.203125 74.21875 
Q 40.921875 74.21875 44.703125 73.484375 
Q 48.484375 72.75 52.59375 71.296875 
z
" id="DejaVuSans-36"/>
     </defs>
     <g transform="translate(362.896875 127.107187)scale(0.1 -0.1)">
      <use xlink:href="#DejaVuSans-55"/>
      <use x="73.193359" xlink:href="#DejaVuSans-3d"/>
      <use x="156.982422" xlink:href="#DejaVuSans-36"/>
      <use x="220.605469" xlink:href="#DejaVuSans-2e"/>
      <use x="252.392578" xlink:href="#DejaVuSans-30"/>
      <use x="316.015625" xlink:href="#DejaVuSans-30"/>
     </g>
    </g>
    <g id="line2d_38">
     <path d="M 334.896875 138.285312 
L 354.896875 138.285312 
" style="fill:none;stroke:#7f7f7f;stroke-linecap:square;stroke-width:0.5;"/>
    </g>
    <g id="line2d_39"/>
    <g id="text_25">
     <!-- U=7.00 -->
     <g transform="translate(362.896875 141.785312)scale(0.1 -0.1)">
      <use xlink:href="#DejaVuSans-55"/>
      <use x="73.193359" xlink:href="#DejaVuSans-3d"/>
      <use x="156.982422" xlink:href="#DejaVuSans-37"/>
      <use x="220.605469" xlink:href="#DejaVuSans-2e"/>
      <use x="252.392578" xlink:href="#DejaVuSans-30"/>
      <use x="316.015625" xlink:href="#DejaVuSans-30"/>
     </g>
    </g>
    <g id="line2d_40">
     <path d="M 334.896875 152.963437 
L 354.896875 152.963437 
" style="fill:none;stroke:#bcbd22;stroke-linecap:square;stroke-width:0.5;"/>
    </g>
    <g id="line2d_41"/>
    <g id="text_26">
     <!-- U=8.00 -->
     <defs>
      <path d="M 31.78125 34.625 
Q 24.75 34.625 20.71875 30.859375 
Q 16.703125 27.09375 16.703125 20.515625 
Q 16.703125 13.921875 20.71875 10.15625 
Q 24.75 6.390625 31.78125 6.390625 
Q 38.8125 6.390625 42.859375 10.171875 
Q 46.921875 13.96875 46.921875 20.515625 
Q 46.921875 27.09375 42.890625 30.859375 
Q 38.875 34.625 31.78125 34.625 
z
M 21.921875 38.8125 
Q 15.578125 40.375 12.03125 44.71875 
Q 8.5 49.078125 8.5 55.328125 
Q 8.5 64.0625 14.71875 69.140625 
Q 20.953125 74.21875 31.78125 74.21875 
Q 42.671875 74.21875 48.875 69.140625 
Q 55.078125 64.0625 55.078125 55.328125 
Q 55.078125 49.078125 51.53125 44.71875 
Q 48 40.375 41.703125 38.8125 
Q 48.828125 37.15625 52.796875 32.3125 
Q 56.78125 27.484375 56.78125 20.515625 
Q 56.78125 9.90625 50.3125 4.234375 
Q 43.84375 -1.421875 31.78125 -1.421875 
Q 19.734375 -1.421875 13.25 4.234375 
Q 6.78125 9.90625 6.78125 20.515625 
Q 6.78125 27.484375 10.78125 32.3125 
Q 14.796875 37.15625 21.921875 38.8125 
z
M 18.3125 54.390625 
Q 18.3125 48.734375 21.84375 45.5625 
Q 25.390625 42.390625 31.78125 42.390625 
Q 38.140625 42.390625 41.71875 45.5625 
Q 45.3125 48.734375 45.3125 54.390625 
Q 45.3125 60.0625 41.71875 63.234375 
Q 38.140625 66.40625 31.78125 66.40625 
Q 25.390625 66.40625 21.84375 63.234375 
Q 18.3125 60.0625 18.3125 54.390625 
z
" id="DejaVuSans-38"/>
     </defs>
     <g transform="translate(362.896875 156.463437)scale(0.1 -0.1)">
      <use xlink:href="#DejaVuSans-55"/>
      <use x="73.193359" xlink:href="#DejaVuSans-3d"/>
      <use x="156.982422" xlink:href="#DejaVuSans-38"/>
      <use x="220.605469" xlink:href="#DejaVuSans-2e"/>
      <use x="252.392578" xlink:href="#DejaVuSans-30"/>
      <use x="316.015625" xlink:href="#DejaVuSans-30"/>
     </g>
    </g>
   </g>
  </g>
 </g>
 <defs>
  <clipPath id="p824b1ae6fe">
   <rect height="290.4" width="351.3375" x="58.523438" y="22.44"/>
  </clipPath>
 </defs>
</svg>
