<?xml version="1.0" encoding="utf-8" standalone="no"?>
<!DOCTYPE svg PUBLIC "-//W3C//DTD SVG 1.1//EN"
  "http://www.w3.org/Graphics/SVG/1.1/DTD/svg11.dtd">
<!-- Created with matplotlib (http://matplotlib.org/) -->
<svg height="263.638125pt" version="1.1" viewBox="0 0 375.603125 263.638125" width="375.603125pt" xmlns="http://www.w3.org/2000/svg" xmlns:xlink="http://www.w3.org/1999/xlink">
 <defs>
  <style type="text/css">
*{stroke-linecap:butt;stroke-linejoin:round;}
  </style>
 </defs>
 <g id="figure_1">
  <g id="patch_1">
   <path d="M 0 263.638125 
L 375.603125 263.638125 
L 375.603125 0 
L 0 0 
z
" style="fill:none;"/>
  </g>
  <g id="axes_1">
   <g id="patch_2">
    <path d="M 30.103125 239.76 
L 364.903125 239.76 
L 364.903125 22.32 
L 30.103125 22.32 
z
" style="fill:#ffffff;"/>
   </g>
   <g id="matplotlib.axis_1">
    <g id="xtick_1">
     <g id="line2d_1">
      <path clip-path="url(#pc5acd8c32e)" d="M 30.103125 239.76 
L 30.103125 22.32 
" style="fill:none;stroke:#b0b0b0;stroke-linecap:square;stroke-width:0.8;"/>
     </g>
     <g id="line2d_2">
      <defs>
       <path d="M 0 0 
L 0 3.5 
" id="mad72b0be13" style="stroke:#000000;stroke-width:0.8;"/>
      </defs>
      <g>
       <use style="stroke:#000000;stroke-width:0.8;" x="30.103125" xlink:href="#mad72b0be13" y="239.76"/>
      </g>
     </g>
     <g id="text_1">
      <!-- $\Gamma$ -->
      <defs>
       <path d="M 9.8125 0 
L 9.8125 72.90625 
L 55.171875 72.90625 
L 55.171875 64.59375 
L 19.671875 64.59375 
L 19.671875 0 
z
" id="DejaVuSans-393"/>
      </defs>
      <g transform="translate(27.303125 254.358438)scale(0.1 -0.1)">
       <use transform="translate(0 0.09375)" xlink:href="#DejaVuSans-393"/>
      </g>
     </g>
    </g>
    <g id="xtick_2">
     <g id="line2d_3">
      <path clip-path="url(#pc5acd8c32e)" d="M 168.781826 239.76 
L 168.781826 22.32 
" style="fill:none;stroke:#b0b0b0;stroke-linecap:square;stroke-width:0.8;"/>
     </g>
     <g id="line2d_4">
      <g>
       <use style="stroke:#000000;stroke-width:0.8;" x="168.781826" xlink:href="#mad72b0be13" y="239.76"/>
      </g>
     </g>
     <g id="text_2">
      <!-- $M$ -->
      <defs>
       <path d="M 16.890625 72.90625 
L 31.6875 72.90625 
L 40.1875 23.78125 
L 68.40625 72.90625 
L 83.59375 72.90625 
L 69.390625 0 
L 59.8125 0 
L 72.21875 63.921875 
L 43.609375 14.015625 
L 33.984375 14.015625 
L 24.703125 64.109375 
L 12.3125 0 
L 2.6875 0 
z
" id="DejaVuSans-Oblique-4d"/>
      </defs>
      <g transform="translate(164.431826 254.358438)scale(0.1 -0.1)">
       <use transform="translate(0 0.09375)" xlink:href="#DejaVuSans-Oblique-4d"/>
      </g>
     </g>
    </g>
    <g id="xtick_3">
     <g id="line2d_5">
      <path clip-path="url(#pc5acd8c32e)" d="M 266.842475 239.76 
L 266.842475 22.32 
" style="fill:none;stroke:#b0b0b0;stroke-linecap:square;stroke-width:0.8;"/>
     </g>
     <g id="line2d_6">
      <g>
       <use style="stroke:#000000;stroke-width:0.8;" x="266.842475" xlink:href="#mad72b0be13" y="239.76"/>
      </g>
     </g>
     <g id="text_3">
      <!-- $X$ -->
      <defs>
       <path d="M 13.71875 72.90625 
L 23.6875 72.90625 
L 36.1875 46.578125 
L 58.796875 72.90625 
L 70.3125 72.90625 
L 40.28125 38.09375 
L 58.40625 0 
L 48.484375 0 
L 33.796875 30.71875 
L 7.171875 0 
L -4.296875 0 
L 29.78125 39.203125 
z
" id="DejaVuSans-Oblique-58"/>
      </defs>
      <g transform="translate(263.392475 254.358438)scale(0.1 -0.1)">
       <use transform="translate(0 0.09375)" xlink:href="#DejaVuSans-Oblique-58"/>
      </g>
     </g>
    </g>
    <g id="xtick_4">
     <g id="line2d_7">
      <path clip-path="url(#pc5acd8c32e)" d="M 364.903125 239.76 
L 364.903125 22.32 
" style="fill:none;stroke:#b0b0b0;stroke-linecap:square;stroke-width:0.8;"/>
     </g>
     <g id="line2d_8">
      <g>
       <use style="stroke:#000000;stroke-width:0.8;" x="364.903125" xlink:href="#mad72b0be13" y="239.76"/>
      </g>
     </g>
     <g id="text_4">
      <!-- $\Gamma$ -->
      <g transform="translate(362.103125 254.358438)scale(0.1 -0.1)">
       <use transform="translate(0 0.09375)" xlink:href="#DejaVuSans-393"/>
      </g>
     </g>
    </g>
   </g>
   <g id="matplotlib.axis_2">
    <g id="ytick_1">
     <g id="line2d_9">
      <path clip-path="url(#pc5acd8c32e)" d="M 30.103125 226.734513 
L 364.903125 226.734513 
" style="fill:none;stroke:#b0b0b0;stroke-linecap:square;stroke-width:0.8;"/>
     </g>
     <g id="line2d_10">
      <defs>
       <path d="M 0 0 
L -3.5 0 
" id="m2288ffe958" style="stroke:#000000;stroke-width:0.8;"/>
      </defs>
      <g>
       <use style="stroke:#000000;stroke-width:0.8;" x="30.103125" xlink:href="#m2288ffe958" y="226.734513"/>
      </g>
     </g>
     <g id="text_5">
      <!-- 0.1 -->
      <defs>
       <path d="M 31.78125 66.40625 
Q 24.171875 66.40625 20.328125 58.90625 
Q 16.5 51.421875 16.5 36.375 
Q 16.5 21.390625 20.328125 13.890625 
Q 24.171875 6.390625 31.78125 6.390625 
Q 39.453125 6.390625 43.28125 13.890625 
Q 47.125 21.390625 47.125 36.375 
Q 47.125 51.421875 43.28125 58.90625 
Q 39.453125 66.40625 31.78125 66.40625 
z
M 31.78125 74.21875 
Q 44.046875 74.21875 50.515625 64.515625 
Q 56.984375 54.828125 56.984375 36.375 
Q 56.984375 17.96875 50.515625 8.265625 
Q 44.046875 -1.421875 31.78125 -1.421875 
Q 19.53125 -1.421875 13.0625 8.265625 
Q 6.59375 17.96875 6.59375 36.375 
Q 6.59375 54.828125 13.0625 64.515625 
Q 19.53125 74.21875 31.78125 74.21875 
z
" id="DejaVuSans-30"/>
       <path d="M 10.6875 12.40625 
L 21 12.40625 
L 21 0 
L 10.6875 0 
z
" id="DejaVuSans-2e"/>
       <path d="M 12.40625 8.296875 
L 28.515625 8.296875 
L 28.515625 63.921875 
L 10.984375 60.40625 
L 10.984375 69.390625 
L 28.421875 72.90625 
L 38.28125 72.90625 
L 38.28125 8.296875 
L 54.390625 8.296875 
L 54.390625 0 
L 12.40625 0 
z
" id="DejaVuSans-31"/>
      </defs>
      <g transform="translate(7.2 230.533732)scale(0.1 -0.1)">
       <use xlink:href="#DejaVuSans-30"/>
       <use x="63.623047" xlink:href="#DejaVuSans-2e"/>
       <use x="95.410156" xlink:href="#DejaVuSans-31"/>
      </g>
     </g>
    </g>
    <g id="ytick_2">
     <g id="line2d_11">
      <path clip-path="url(#pc5acd8c32e)" d="M 30.103125 179.710403 
L 364.903125 179.710403 
" style="fill:none;stroke:#b0b0b0;stroke-linecap:square;stroke-width:0.8;"/>
     </g>
     <g id="line2d_12">
      <g>
       <use style="stroke:#000000;stroke-width:0.8;" x="30.103125" xlink:href="#m2288ffe958" y="179.710403"/>
      </g>
     </g>
     <g id="text_6">
      <!-- 0.2 -->
      <defs>
       <path d="M 19.1875 8.296875 
L 53.609375 8.296875 
L 53.609375 0 
L 7.328125 0 
L 7.328125 8.296875 
Q 12.9375 14.109375 22.625 23.890625 
Q 32.328125 33.6875 34.8125 36.53125 
Q 39.546875 41.84375 41.421875 45.53125 
Q 43.3125 49.21875 43.3125 52.78125 
Q 43.3125 58.59375 39.234375 62.25 
Q 35.15625 65.921875 28.609375 65.921875 
Q 23.96875 65.921875 18.8125 64.3125 
Q 13.671875 62.703125 7.8125 59.421875 
L 7.8125 69.390625 
Q 13.765625 71.78125 18.9375 73 
Q 24.125 74.21875 28.421875 74.21875 
Q 39.75 74.21875 46.484375 68.546875 
Q 53.21875 62.890625 53.21875 53.421875 
Q 53.21875 48.921875 51.53125 44.890625 
Q 49.859375 40.875 45.40625 35.40625 
Q 44.1875 33.984375 37.640625 27.21875 
Q 31.109375 20.453125 19.1875 8.296875 
z
" id="DejaVuSans-32"/>
      </defs>
      <g transform="translate(7.2 183.509622)scale(0.1 -0.1)">
       <use xlink:href="#DejaVuSans-30"/>
       <use x="63.623047" xlink:href="#DejaVuSans-2e"/>
       <use x="95.410156" xlink:href="#DejaVuSans-32"/>
      </g>
     </g>
    </g>
    <g id="ytick_3">
     <g id="line2d_13">
      <path clip-path="url(#pc5acd8c32e)" d="M 30.103125 132.686294 
L 364.903125 132.686294 
" style="fill:none;stroke:#b0b0b0;stroke-linecap:square;stroke-width:0.8;"/>
     </g>
     <g id="line2d_14">
      <g>
       <use style="stroke:#000000;stroke-width:0.8;" x="30.103125" xlink:href="#m2288ffe958" y="132.686294"/>
      </g>
     </g>
     <g id="text_7">
      <!-- 0.3 -->
      <defs>
       <path d="M 40.578125 39.3125 
Q 47.65625 37.796875 51.625 33 
Q 55.609375 28.21875 55.609375 21.1875 
Q 55.609375 10.40625 48.1875 4.484375 
Q 40.765625 -1.421875 27.09375 -1.421875 
Q 22.515625 -1.421875 17.65625 -0.515625 
Q 12.796875 0.390625 7.625 2.203125 
L 7.625 11.71875 
Q 11.71875 9.328125 16.59375 8.109375 
Q 21.484375 6.890625 26.8125 6.890625 
Q 36.078125 6.890625 40.9375 10.546875 
Q 45.796875 14.203125 45.796875 21.1875 
Q 45.796875 27.640625 41.28125 31.265625 
Q 36.765625 34.90625 28.71875 34.90625 
L 20.21875 34.90625 
L 20.21875 43.015625 
L 29.109375 43.015625 
Q 36.375 43.015625 40.234375 45.921875 
Q 44.09375 48.828125 44.09375 54.296875 
Q 44.09375 59.90625 40.109375 62.90625 
Q 36.140625 65.921875 28.71875 65.921875 
Q 24.65625 65.921875 20.015625 65.03125 
Q 15.375 64.15625 9.8125 62.3125 
L 9.8125 71.09375 
Q 15.4375 72.65625 20.34375 73.4375 
Q 25.25 74.21875 29.59375 74.21875 
Q 40.828125 74.21875 47.359375 69.109375 
Q 53.90625 64.015625 53.90625 55.328125 
Q 53.90625 49.265625 50.4375 45.09375 
Q 46.96875 40.921875 40.578125 39.3125 
z
" id="DejaVuSans-33"/>
      </defs>
      <g transform="translate(7.2 136.485513)scale(0.1 -0.1)">
       <use xlink:href="#DejaVuSans-30"/>
       <use x="63.623047" xlink:href="#DejaVuSans-2e"/>
       <use x="95.410156" xlink:href="#DejaVuSans-33"/>
      </g>
     </g>
    </g>
    <g id="ytick_4">
     <g id="line2d_15">
      <path clip-path="url(#pc5acd8c32e)" d="M 30.103125 85.662184 
L 364.903125 85.662184 
" style="fill:none;stroke:#b0b0b0;stroke-linecap:square;stroke-width:0.8;"/>
     </g>
     <g id="line2d_16">
      <g>
       <use style="stroke:#000000;stroke-width:0.8;" x="30.103125" xlink:href="#m2288ffe958" y="85.662184"/>
      </g>
     </g>
     <g id="text_8">
      <!-- 0.4 -->
      <defs>
       <path d="M 37.796875 64.3125 
L 12.890625 25.390625 
L 37.796875 25.390625 
z
M 35.203125 72.90625 
L 47.609375 72.90625 
L 47.609375 25.390625 
L 58.015625 25.390625 
L 58.015625 17.1875 
L 47.609375 17.1875 
L 47.609375 0 
L 37.796875 0 
L 37.796875 17.1875 
L 4.890625 17.1875 
L 4.890625 26.703125 
z
" id="DejaVuSans-34"/>
      </defs>
      <g transform="translate(7.2 89.461403)scale(0.1 -0.1)">
       <use xlink:href="#DejaVuSans-30"/>
       <use x="63.623047" xlink:href="#DejaVuSans-2e"/>
       <use x="95.410156" xlink:href="#DejaVuSans-34"/>
      </g>
     </g>
    </g>
    <g id="ytick_5">
     <g id="line2d_17">
      <path clip-path="url(#pc5acd8c32e)" d="M 30.103125 38.638075 
L 364.903125 38.638075 
" style="fill:none;stroke:#b0b0b0;stroke-linecap:square;stroke-width:0.8;"/>
     </g>
     <g id="line2d_18">
      <g>
       <use style="stroke:#000000;stroke-width:0.8;" x="30.103125" xlink:href="#m2288ffe958" y="38.638075"/>
      </g>
     </g>
     <g id="text_9">
      <!-- 0.5 -->
      <defs>
       <path d="M 10.796875 72.90625 
L 49.515625 72.90625 
L 49.515625 64.59375 
L 19.828125 64.59375 
L 19.828125 46.734375 
Q 21.96875 47.46875 24.109375 47.828125 
Q 26.265625 48.1875 28.421875 48.1875 
Q 40.625 48.1875 47.75 41.5 
Q 54.890625 34.8125 54.890625 23.390625 
Q 54.890625 11.625 47.5625 5.09375 
Q 40.234375 -1.421875 26.90625 -1.421875 
Q 22.3125 -1.421875 17.546875 -0.640625 
Q 12.796875 0.140625 7.71875 1.703125 
L 7.71875 11.625 
Q 12.109375 9.234375 16.796875 8.0625 
Q 21.484375 6.890625 26.703125 6.890625 
Q 35.15625 6.890625 40.078125 11.328125 
Q 45.015625 15.765625 45.015625 23.390625 
Q 45.015625 31 40.078125 35.4375 
Q 35.15625 39.890625 26.703125 39.890625 
Q 22.75 39.890625 18.8125 39.015625 
Q 14.890625 38.140625 10.796875 36.28125 
z
" id="DejaVuSans-35"/>
      </defs>
      <g transform="translate(7.2 42.437294)scale(0.1 -0.1)">
       <use xlink:href="#DejaVuSans-30"/>
       <use x="63.623047" xlink:href="#DejaVuSans-2e"/>
       <use x="95.410156" xlink:href="#DejaVuSans-35"/>
      </g>
     </g>
    </g>
   </g>
   <g id="line2d_19">
    <path clip-path="url(#pc5acd8c32e)" d="M 30.103125 220.008317 
L 39.90869 219.829348 
L 48.313459 219.403068 
L 56.718229 218.707013 
L 63.722204 217.911307 
L 72.126974 216.679782 
L 83.333333 214.506822 
L 88.936513 213.169203 
L 100.142873 209.841476 
L 102.944463 208.873161 
L 109.948438 206.191583 
L 115.551617 203.646067 
L 116.952412 202.879576 
L 118.353207 202.269285 
L 123.956387 199.165511 
L 125.357182 198.198176 
L 126.757977 197.43886 
L 128.158772 196.539907 
L 129.559567 195.477023 
L 132.361157 193.602678 
L 133.761952 192.42985 
L 136.563542 190.299985 
L 139.365132 187.806593 
L 140.765927 186.565117 
L 146.369106 180.687946 
L 149.170696 177.479513 
L 154.773876 169.989937 
L 156.174671 167.904112 
L 157.575466 166.047543 
L 160.377056 161.835747 
L 163.178646 158.499258 
L 164.579441 156.747203 
L 168.781826 154.611453 
L 168.781826 154.611453 
L 171.753361 155.726358 
L 174.724895 158.7912 
L 177.69643 163.297544 
L 180.667965 168.650948 
L 189.58257 185.351405 
L 192.554104 190.336937 
L 194.535128 193.408785 
L 197.506662 197.671714 
L 200.478197 201.50828 
L 203.449732 204.947393 
L 206.421267 208.024096 
L 209.392802 210.774417 
L 212.364337 213.232674 
L 216.326383 216.097275 
L 219.297918 217.989349 
L 222.269453 219.680927 
L 225.240988 221.19229 
L 229.203034 222.95923 
L 232.174569 224.112458 
L 235.146104 225.135153 
L 238.117639 226.037775 
L 242.079685 227.07875 
L 247.032243 228.107863 
L 250.99429 228.758293 
L 255.946848 229.345844 
L 260.899406 229.720341 
L 266.842475 229.876364 
L 266.842475 229.876364 
L 274.766568 229.705844 
L 280.709638 229.363146 
L 286.652708 228.826222 
L 292.595777 228.087657 
L 298.538847 227.143183 
L 305.472428 225.791496 
L 312.40601 224.23326 
L 324.292149 221.550717 
L 328.254195 220.825726 
L 334.197265 220.054243 
L 340.140335 219.686755 
L 346.083404 219.640785 
L 355.98852 219.877733 
L 364.903125 220.008317 
L 364.903125 220.008317 
" style="fill:none;stroke:#1f77b4;stroke-linecap:square;stroke-width:1.5;"/>
   </g>
   <g id="line2d_20">
    <path clip-path="url(#pc5acd8c32e)" d="M 30.103125 216.750179 
L 38.507895 216.604303 
L 46.912664 216.169127 
L 53.916639 215.581372 
L 60.920614 214.770846 
L 66.523794 213.966625 
L 73.527769 212.699819 
L 76.329359 212.153823 
L 87.535718 209.38922 
L 91.738103 208.128982 
L 95.940488 206.730594 
L 98.742078 205.707758 
L 102.944463 204.064544 
L 109.948438 200.961099 
L 115.551617 197.997413 
L 116.952412 197.102339 
L 118.353207 196.387362 
L 119.754002 195.511829 
L 121.154797 194.48883 
L 122.555592 193.70233 
L 123.956387 192.738386 
L 125.357182 191.596997 
L 126.757977 190.697605 
L 128.158772 189.631183 
L 129.559567 188.369201 
L 132.361157 186.132671 
L 133.761952 184.73035 
L 136.563542 182.170149 
L 139.365132 179.159692 
L 140.765927 177.65206 
L 146.369106 170.46301 
L 149.170696 166.49388 
L 153.373081 159.658382 
L 160.377056 146.716057 
L 163.178646 142.395823 
L 164.579441 140.120313 
L 168.781826 137.327339 
L 168.781826 137.327339 
L 171.753361 138.78713 
L 174.724895 142.779033 
L 177.69643 148.594247 
L 180.667965 155.421097 
L 187.601546 171.838645 
L 191.563593 180.240469 
L 193.544616 184.129625 
L 197.506662 190.968885 
L 200.478197 195.491822 
L 203.449732 199.512234 
L 206.421267 203.082072 
L 209.392802 206.251929 
L 212.364337 209.068321 
L 215.335871 211.572674 
L 219.297918 214.472767 
L 222.269453 216.380916 
L 225.240988 218.079606 
L 228.212522 219.590541 
L 232.174569 221.345331 
L 235.146104 222.48395 
L 238.117639 223.486719 
L 241.089173 224.364338 
L 245.05122 225.363534 
L 250.003778 226.329657 
L 253.965824 226.918157 
L 257.927871 227.342904 
L 263.870941 227.68513 
L 270.804522 227.677876 
L 276.747591 227.440352 
L 282.690661 226.993703 
L 289.624242 226.192629 
L 295.567312 225.263001 
L 301.510382 224.105181 
L 308.443963 222.49217 
L 328.254195 217.668831 
L 333.206753 216.927152 
L 336.178288 216.627551 
L 340.140335 216.388318 
L 346.083404 216.336568 
L 354.998009 216.573574 
L 363.912613 216.744078 
L 364.903125 216.750179 
L 364.903125 216.750179 
" style="fill:none;stroke:#ff7f0e;stroke-linecap:square;stroke-width:1.5;"/>
   </g>
   <g id="line2d_21">
    <path clip-path="url(#pc5acd8c32e)" d="M 30.103125 213.07156 
L 38.507895 212.906224 
L 45.51187 212.515551 
L 52.515844 211.897996 
L 59.519819 211.02914 
L 66.523794 209.907141 
L 72.126974 208.794078 
L 80.531743 206.75797 
L 91.738103 203.20541 
L 94.539693 202.12277 
L 98.742078 200.399378 
L 102.944463 198.486092 
L 108.547643 195.556559 
L 109.948438 194.85276 
L 115.551617 191.358677 
L 116.952412 190.299724 
L 118.353207 189.450615 
L 119.754002 188.409694 
L 121.154797 187.192455 
L 122.555592 186.2525 
L 123.956387 185.099008 
L 125.357182 183.731982 
L 126.757977 182.649842 
L 128.158772 181.364381 
L 129.559567 179.841626 
L 130.960362 178.569719 
L 132.361157 177.126778 
L 133.761952 175.420361 
L 136.563542 172.284837 
L 139.365132 168.577979 
L 140.765927 166.70841 
L 144.968311 160.234298 
L 149.170696 152.676646 
L 153.373081 143.89355 
L 158.976261 130.510088 
L 160.377056 126.872848 
L 161.777851 124.090305 
L 164.579441 117.985487 
L 168.781826 114.177692 
L 168.781826 114.177692 
L 171.753361 116.171174 
L 174.724895 121.584518 
L 176.705919 126.727431 
L 178.686942 132.302652 
L 187.601546 159.44302 
L 190.573081 167.474456 
L 193.544616 174.684926 
L 196.516151 181.083448 
L 199.487686 186.727872 
L 203.449732 193.144222 
L 206.421267 197.336119 
L 209.392802 201.029447 
L 212.364337 204.288391 
L 215.335871 207.168618 
L 218.307406 209.717756 
L 222.269453 212.651848 
L 225.240988 214.574997 
L 228.212522 216.279363 
L 231.184057 217.78793 
L 235.146104 219.526923 
L 238.117639 220.647483 
L 241.089173 221.626121 
L 244.060708 222.473724 
L 248.022755 223.423064 
L 251.984801 224.164578 
L 256.937359 224.828146 
L 260.899406 225.169993 
L 266.842475 225.359857 
L 266.842475 225.359857 
L 273.776057 225.200866 
L 279.719126 224.823336 
L 285.662196 224.209634 
L 291.605266 223.348924 
L 297.548335 222.231963 
L 304.481917 220.601528 
L 311.415498 218.690279 
L 325.28266 214.780928 
L 330.235219 213.740186 
L 333.206753 213.272027 
L 336.178288 212.932556 
L 339.149823 212.717109 
L 343.11187 212.591428 
L 349.054939 212.669447 
L 364.903125 213.07156 
L 364.903125 213.07156 
" style="fill:none;stroke:#2ca02c;stroke-linecap:square;stroke-width:1.5;"/>
   </g>
   <g id="line2d_22">
    <path clip-path="url(#pc5acd8c32e)" d="M 30.103125 208.88545 
L 38.507895 208.696481 
L 45.51187 208.249673 
L 51.115049 207.704855 
L 56.718229 206.980244 
L 62.321409 206.071808 
L 67.924589 204.950534 
L 76.329359 202.866119 
L 86.134923 199.660239 
L 88.936513 198.652522 
L 98.742078 194.192695 
L 102.944463 191.936832 
L 107.146848 189.418877 
L 114.150822 184.576613 
L 118.353207 181.147293 
L 119.754002 179.889273 
L 121.154797 178.416719 
L 122.555592 177.273581 
L 123.956387 175.868587 
L 125.357182 174.20174 
L 126.757977 172.874907 
L 128.158772 171.295261 
L 129.559567 169.421676 
L 130.960362 167.847962 
L 132.361157 166.056831 
L 133.761952 163.935484 
L 136.563542 160.006337 
L 142.166722 150.151364 
L 144.968311 144.639182 
L 149.170696 134.770015 
L 153.373081 123.069245 
L 157.575466 109.6176 
L 160.377056 99.68251 
L 161.777851 95.747005 
L 164.579441 87.062478 
L 167.381031 83.458949 
L 168.781826 81.56656 
L 168.781826 81.56656 
L 171.753361 84.450456 
L 173.734384 89.568202 
L 174.724895 92.205644 
L 177.69643 103.178412 
L 181.658477 119.773244 
L 185.620523 136.015853 
L 187.601546 143.612031 
L 190.573081 153.924495 
L 193.544616 163.014421 
L 196.516151 170.950617 
L 199.487686 177.852174 
L 202.459221 183.841841 
L 206.421267 190.572571 
L 209.392802 194.930735 
L 212.364337 198.745444 
L 215.335871 202.093028 
L 218.307406 205.037346 
L 221.278941 207.631626 
L 225.240988 210.599444 
L 228.212522 212.536926 
L 231.184057 214.245572 
L 234.155592 215.749563 
L 238.117639 217.468304 
L 241.089173 218.566467 
L 244.060708 219.515635 
L 247.032243 220.326819 
L 250.99429 221.215948 
L 254.956336 221.887822 
L 259.908894 222.439743 
L 263.870941 222.680583 
L 269.81401 222.701883 
L 276.747591 222.379549 
L 282.690661 221.829365 
L 288.633731 221.00938 
L 294.5768 219.906146 
L 300.51987 218.511064 
L 307.453451 216.528749 
L 315.377544 213.95138 
L 323.301637 211.409956 
L 327.263684 210.322884 
L 330.235219 209.648827 
L 333.206753 209.114417 
L 336.178288 208.726555 
L 339.149823 208.480241 
L 342.121358 208.359767 
L 346.083404 208.349309 
L 353.016986 208.576272 
L 362.922102 208.869648 
L 364.903125 208.88545 
L 364.903125 208.88545 
" style="fill:none;stroke:#d62728;stroke-linecap:square;stroke-width:1.5;"/>
   </g>
   <g id="line2d_23">
    <path clip-path="url(#pc5acd8c32e)" d="M 30.103125 204.079048 
L 38.507895 203.860994 
L 45.51187 203.345019 
L 51.115049 202.715175 
L 56.718229 201.876251 
L 62.321409 200.822476 
L 67.924589 199.518836 
L 74.928564 197.541172 
L 80.531743 195.624819 
L 88.936513 192.133512 
L 91.738103 190.750704 
L 93.138898 190.063698 
L 101.543668 185.144151 
L 107.146848 181.109249 
L 114.150822 175.232111 
L 115.551617 173.848152 
L 116.952412 172.290762 
L 118.353207 171.029339 
L 119.754002 169.478464 
L 121.154797 167.660943 
L 122.555592 166.240833 
L 123.956387 164.492111 
L 125.357182 162.414777 
L 126.757977 160.749772 
L 128.158772 158.76203 
L 129.559567 156.400749 
L 130.960362 154.403471 
L 132.361157 152.120998 
L 133.761952 149.412662 
L 135.162747 146.998958 
L 136.563542 144.345288 
L 140.765927 135.132011 
L 144.968311 124.072478 
L 149.170696 110.640772 
L 153.373081 94.280365 
L 157.575466 74.866209 
L 160.377056 60.136472 
L 161.777851 54.148371 
L 164.579441 40.821085 
L 167.381031 35.177804 
L 168.781826 32.203636 
L 168.781826 32.203636 
L 171.753361 36.741151 
L 173.734384 44.677428 
L 174.724895 48.766335 
L 177.69643 65.362956 
L 184.630011 106.985866 
L 187.601546 122.686161 
L 190.573081 136.411793 
L 193.544616 148.225768 
L 196.516151 158.329311 
L 199.487686 166.960343 
L 202.459221 174.335814 
L 205.430755 180.652715 
L 208.40229 186.104179 
L 211.373825 190.827827 
L 214.34536 194.9365 
L 217.316895 198.522415 
L 220.28843 201.660929 
L 223.259964 204.413728 
L 225.240988 206.051152 
L 228.212522 208.273084 
L 231.184057 210.224438 
L 234.155592 211.935783 
L 237.127127 213.432455 
L 241.089173 215.12524 
L 244.060708 216.195387 
L 247.032243 217.108147 
L 250.003778 217.874584 
L 253.965824 218.69 
L 257.927871 219.276265 
L 262.880429 219.690948 
L 266.842475 219.806975 
L 266.842475 219.806975 
L 272.785545 219.665124 
L 278.728615 219.240289 
L 283.681173 218.658112 
L 288.633731 217.874977 
L 294.5768 216.635205 
L 300.51987 215.063053 
L 306.46294 213.167219 
L 313.396521 210.643636 
L 323.301637 206.982857 
L 327.263684 205.734484 
L 330.235219 204.958843 
L 333.206753 204.343057 
L 335.187777 204.024101 
L 339.149823 203.611343 
L 342.121358 203.47222 
L 346.083404 203.460141 
L 353.016986 203.722232 
L 361.93159 204.051703 
L 364.903125 204.079048 
L 364.903125 204.079048 
" style="fill:none;stroke:#9467bd;stroke-linecap:square;stroke-width:1.5;"/>
   </g>
   <g id="patch_3">
    <path d="M 30.103125 239.76 
L 30.103125 22.32 
" style="fill:none;stroke:#000000;stroke-linecap:square;stroke-linejoin:miter;stroke-width:0.8;"/>
   </g>
   <g id="patch_4">
    <path d="M 364.903125 239.76 
L 364.903125 22.32 
" style="fill:none;stroke:#000000;stroke-linecap:square;stroke-linejoin:miter;stroke-width:0.8;"/>
   </g>
   <g id="patch_5">
    <path d="M 30.103125 239.76 
L 364.903125 239.76 
" style="fill:none;stroke:#000000;stroke-linecap:square;stroke-linejoin:miter;stroke-width:0.8;"/>
   </g>
   <g id="patch_6">
    <path d="M 30.103125 22.32 
L 364.903125 22.32 
" style="fill:none;stroke:#000000;stroke-linecap:square;stroke-linejoin:miter;stroke-width:0.8;"/>
   </g>
   <g id="text_10">
    <!-- Spin-response $\chi_{S_z S_z}(\mathbf{q}, \omega=0)$ -->
    <defs>
     <path d="M 53.515625 70.515625 
L 53.515625 60.890625 
Q 47.90625 63.578125 42.921875 64.890625 
Q 37.9375 66.21875 33.296875 66.21875 
Q 25.25 66.21875 20.875 63.09375 
Q 16.5 59.96875 16.5 54.203125 
Q 16.5 49.359375 19.40625 46.890625 
Q 22.3125 44.4375 30.421875 42.921875 
L 36.375 41.703125 
Q 47.40625 39.59375 52.65625 34.296875 
Q 57.90625 29 57.90625 20.125 
Q 57.90625 9.515625 50.796875 4.046875 
Q 43.703125 -1.421875 29.984375 -1.421875 
Q 24.8125 -1.421875 18.96875 -0.25 
Q 13.140625 0.921875 6.890625 3.21875 
L 6.890625 13.375 
Q 12.890625 10.015625 18.65625 8.296875 
Q 24.421875 6.59375 29.984375 6.59375 
Q 38.421875 6.59375 43.015625 9.90625 
Q 47.609375 13.234375 47.609375 19.390625 
Q 47.609375 24.75 44.3125 27.78125 
Q 41.015625 30.8125 33.5 32.328125 
L 27.484375 33.5 
Q 16.453125 35.6875 11.515625 40.375 
Q 6.59375 45.0625 6.59375 53.421875 
Q 6.59375 63.09375 13.40625 68.65625 
Q 20.21875 74.21875 32.171875 74.21875 
Q 37.3125 74.21875 42.625 73.28125 
Q 47.953125 72.359375 53.515625 70.515625 
z
" id="DejaVuSans-53"/>
     <path d="M 18.109375 8.203125 
L 18.109375 -20.796875 
L 9.078125 -20.796875 
L 9.078125 54.6875 
L 18.109375 54.6875 
L 18.109375 46.390625 
Q 20.953125 51.265625 25.265625 53.625 
Q 29.59375 56 35.59375 56 
Q 45.5625 56 51.78125 48.09375 
Q 58.015625 40.1875 58.015625 27.296875 
Q 58.015625 14.40625 51.78125 6.484375 
Q 45.5625 -1.421875 35.59375 -1.421875 
Q 29.59375 -1.421875 25.265625 0.953125 
Q 20.953125 3.328125 18.109375 8.203125 
z
M 48.6875 27.296875 
Q 48.6875 37.203125 44.609375 42.84375 
Q 40.53125 48.484375 33.40625 48.484375 
Q 26.265625 48.484375 22.1875 42.84375 
Q 18.109375 37.203125 18.109375 27.296875 
Q 18.109375 17.390625 22.1875 11.75 
Q 26.265625 6.109375 33.40625 6.109375 
Q 40.53125 6.109375 44.609375 11.75 
Q 48.6875 17.390625 48.6875 27.296875 
z
" id="DejaVuSans-70"/>
     <path d="M 9.421875 54.6875 
L 18.40625 54.6875 
L 18.40625 0 
L 9.421875 0 
z
M 9.421875 75.984375 
L 18.40625 75.984375 
L 18.40625 64.59375 
L 9.421875 64.59375 
z
" id="DejaVuSans-69"/>
     <path d="M 54.890625 33.015625 
L 54.890625 0 
L 45.90625 0 
L 45.90625 32.71875 
Q 45.90625 40.484375 42.875 44.328125 
Q 39.84375 48.1875 33.796875 48.1875 
Q 26.515625 48.1875 22.3125 43.546875 
Q 18.109375 38.921875 18.109375 30.90625 
L 18.109375 0 
L 9.078125 0 
L 9.078125 54.6875 
L 18.109375 54.6875 
L 18.109375 46.1875 
Q 21.34375 51.125 25.703125 53.5625 
Q 30.078125 56 35.796875 56 
Q 45.21875 56 50.046875 50.171875 
Q 54.890625 44.34375 54.890625 33.015625 
z
" id="DejaVuSans-6e"/>
     <path d="M 4.890625 31.390625 
L 31.203125 31.390625 
L 31.203125 23.390625 
L 4.890625 23.390625 
z
" id="DejaVuSans-2d"/>
     <path d="M 41.109375 46.296875 
Q 39.59375 47.171875 37.8125 47.578125 
Q 36.03125 48 33.890625 48 
Q 26.265625 48 22.1875 43.046875 
Q 18.109375 38.09375 18.109375 28.8125 
L 18.109375 0 
L 9.078125 0 
L 9.078125 54.6875 
L 18.109375 54.6875 
L 18.109375 46.1875 
Q 20.953125 51.171875 25.484375 53.578125 
Q 30.03125 56 36.53125 56 
Q 37.453125 56 38.578125 55.875 
Q 39.703125 55.765625 41.0625 55.515625 
z
" id="DejaVuSans-72"/>
     <path d="M 56.203125 29.59375 
L 56.203125 25.203125 
L 14.890625 25.203125 
Q 15.484375 15.921875 20.484375 11.0625 
Q 25.484375 6.203125 34.421875 6.203125 
Q 39.59375 6.203125 44.453125 7.46875 
Q 49.3125 8.734375 54.109375 11.28125 
L 54.109375 2.78125 
Q 49.265625 0.734375 44.1875 -0.34375 
Q 39.109375 -1.421875 33.890625 -1.421875 
Q 20.796875 -1.421875 13.15625 6.1875 
Q 5.515625 13.8125 5.515625 26.8125 
Q 5.515625 40.234375 12.765625 48.109375 
Q 20.015625 56 32.328125 56 
Q 43.359375 56 49.78125 48.890625 
Q 56.203125 41.796875 56.203125 29.59375 
z
M 47.21875 32.234375 
Q 47.125 39.59375 43.09375 43.984375 
Q 39.0625 48.390625 32.421875 48.390625 
Q 24.90625 48.390625 20.390625 44.140625 
Q 15.875 39.890625 15.1875 32.171875 
z
" id="DejaVuSans-65"/>
     <path d="M 44.28125 53.078125 
L 44.28125 44.578125 
Q 40.484375 46.53125 36.375 47.5 
Q 32.28125 48.484375 27.875 48.484375 
Q 21.1875 48.484375 17.84375 46.4375 
Q 14.5 44.390625 14.5 40.28125 
Q 14.5 37.15625 16.890625 35.375 
Q 19.28125 33.59375 26.515625 31.984375 
L 29.59375 31.296875 
Q 39.15625 29.25 43.1875 25.515625 
Q 47.21875 21.78125 47.21875 15.09375 
Q 47.21875 7.46875 41.1875 3.015625 
Q 35.15625 -1.421875 24.609375 -1.421875 
Q 20.21875 -1.421875 15.453125 -0.5625 
Q 10.6875 0.296875 5.421875 2 
L 5.421875 11.28125 
Q 10.40625 8.6875 15.234375 7.390625 
Q 20.0625 6.109375 24.8125 6.109375 
Q 31.15625 6.109375 34.5625 8.28125 
Q 37.984375 10.453125 37.984375 14.40625 
Q 37.984375 18.0625 35.515625 20.015625 
Q 33.0625 21.96875 24.703125 23.78125 
L 21.578125 24.515625 
Q 13.234375 26.265625 9.515625 29.90625 
Q 5.8125 33.546875 5.8125 39.890625 
Q 5.8125 47.609375 11.28125 51.796875 
Q 16.75 56 26.8125 56 
Q 31.78125 56 36.171875 55.265625 
Q 40.578125 54.546875 44.28125 53.078125 
z
" id="DejaVuSans-73"/>
     <path d="M 30.609375 48.390625 
Q 23.390625 48.390625 19.1875 42.75 
Q 14.984375 37.109375 14.984375 27.296875 
Q 14.984375 17.484375 19.15625 11.84375 
Q 23.34375 6.203125 30.609375 6.203125 
Q 37.796875 6.203125 41.984375 11.859375 
Q 46.1875 17.53125 46.1875 27.296875 
Q 46.1875 37.015625 41.984375 42.703125 
Q 37.796875 48.390625 30.609375 48.390625 
z
M 30.609375 56 
Q 42.328125 56 49.015625 48.375 
Q 55.71875 40.765625 55.71875 27.296875 
Q 55.71875 13.875 49.015625 6.21875 
Q 42.328125 -1.421875 30.609375 -1.421875 
Q 18.84375 -1.421875 12.171875 6.21875 
Q 5.515625 13.875 5.515625 27.296875 
Q 5.515625 40.765625 12.171875 48.375 
Q 18.84375 56 30.609375 56 
z
" id="DejaVuSans-6f"/>
     <path id="DejaVuSans-20"/>
     <path d="M 30.03125 -12.203125 
L 26.421875 6.5 
L 6.15625 -20.84375 
L -4.4375 -20.84375 
L 24.265625 17.828125 
L 19.828125 40.828125 
Q 18.65625 46.96875 11.140625 46.96875 
L 8.734375 46.96875 
L 10.203125 54.6875 
L 13.625 54.59375 
Q 26.171875 54.25 27.734375 46.09375 
L 31.34375 27.390625 
L 51.609375 54.734375 
L 62.203125 54.734375 
L 33.5 16.0625 
L 37.9375 -6.9375 
Q 39.109375 -13.09375 46.625 -13.09375 
L 49.03125 -13.09375 
L 47.5625 -20.796875 
L 44.140625 -20.703125 
Q 31.59375 -20.359375 30.03125 -12.203125 
z
" id="DejaVuSans-Oblique-3c7"/>
     <path d="M 60.296875 70.515625 
L 58.40625 60.890625 
Q 53.46875 63.53125 48.609375 64.875 
Q 43.75 66.21875 39.203125 66.21875 
Q 30.375 66.21875 25.140625 62.359375 
Q 19.921875 58.5 19.921875 52.09375 
Q 19.921875 48.578125 21.84375 46.703125 
Q 23.78125 44.828125 31.78125 42.671875 
L 37.703125 41.21875 
Q 47.703125 38.625 51.609375 34.640625 
Q 55.515625 30.671875 55.515625 23.484375 
Q 55.515625 12.453125 46.84375 5.515625 
Q 38.1875 -1.421875 24.03125 -1.421875 
Q 18.21875 -1.421875 12.359375 -0.265625 
Q 6.5 0.875 0.59375 3.21875 
L 2.59375 13.375 
Q 8.015625 10.015625 13.453125 8.296875 
Q 18.890625 6.59375 24.3125 6.59375 
Q 33.546875 6.59375 39.109375 10.6875 
Q 44.671875 14.796875 44.671875 21.390625 
Q 44.671875 25.78125 42.453125 28.046875 
Q 40.234375 30.328125 32.90625 32.171875 
L 27 33.6875 
Q 16.890625 36.328125 13.203125 39.765625 
Q 9.515625 43.21875 9.515625 49.421875 
Q 9.515625 60.296875 17.890625 67.25 
Q 26.265625 74.21875 39.703125 74.21875 
Q 44.921875 74.21875 50.046875 73.28125 
Q 55.171875 72.359375 60.296875 70.515625 
z
" id="DejaVuSans-Oblique-53"/>
     <path d="M 11.625 54.6875 
L 54.296875 54.6875 
L 52.6875 46.484375 
L 11.53125 7.171875 
L 45.515625 7.171875 
L 44.09375 0 
L -0.296875 0 
L 1.3125 8.203125 
L 42.484375 47.515625 
L 10.203125 47.515625 
z
" id="DejaVuSans-Oblique-7a"/>
     <path d="M 31 75.875 
Q 24.46875 64.65625 21.28125 53.65625 
Q 18.109375 42.671875 18.109375 31.390625 
Q 18.109375 20.125 21.3125 9.0625 
Q 24.515625 -2 31 -13.1875 
L 23.1875 -13.1875 
Q 15.875 -1.703125 12.234375 9.375 
Q 8.59375 20.453125 8.59375 31.390625 
Q 8.59375 42.28125 12.203125 53.3125 
Q 15.828125 64.359375 23.1875 75.875 
z
" id="DejaVuSans-28"/>
     <path d="M 34.078125 43.3125 
Q 28.515625 43.3125 25.5625 39.203125 
Q 22.609375 35.109375 22.609375 27.296875 
Q 22.609375 19.484375 25.5625 15.375 
Q 28.515625 11.28125 34.078125 11.28125 
Q 39.703125 11.28125 42.65625 15.375 
Q 45.609375 19.484375 45.609375 27.296875 
Q 45.609375 35.109375 42.65625 39.203125 
Q 39.703125 43.3125 34.078125 43.3125 
z
M 45.609375 7.90625 
Q 42 3.078125 37.640625 0.828125 
Q 33.296875 -1.421875 27.59375 -1.421875 
Q 17.484375 -1.421875 10.984375 6.609375 
Q 4.5 14.65625 4.5 27.296875 
Q 4.5 39.9375 10.984375 47.921875 
Q 17.484375 55.90625 27.59375 55.90625 
Q 33.296875 55.90625 37.640625 53.65625 
Q 42 51.421875 45.609375 46.578125 
L 45.609375 54.6875 
L 63.1875 54.6875 
L 63.1875 -20.796875 
L 45.609375 -20.796875 
z
" id="DejaVuSans-Bold-71"/>
     <path d="M 11.71875 12.40625 
L 22.015625 12.40625 
L 22.015625 4 
L 14.015625 -11.625 
L 7.71875 -11.625 
L 11.71875 4 
z
" id="DejaVuSans-2c"/>
     <path d="M 21.390625 -1.421875 
Q 1.125 -1.421875 6.78125 27.59375 
Q 8.984375 39.0625 19.625 54.6875 
L 29.296875 54.6875 
Q 19.234375 39.0625 17 27.34375 
Q 12.796875 6.203125 23.734375 6.203125 
Q 33.84375 6.203125 38.71875 32.46875 
L 47.015625 32.46875 
Q 41.703125 6.0625 51.8125 6.203125 
Q 62.703125 6.296875 66.796875 27.34375 
Q 69.046875 39.0625 65.140625 54.6875 
L 74.8125 54.6875 
Q 79.296875 39.0625 77.09375 27.59375 
Q 71.53125 -1.46875 51.21875 -1.421875 
Q 37.9375 -1.375 39.109375 13.1875 
Q 34.28125 -1.421875 21.390625 -1.421875 
z
" id="DejaVuSans-Oblique-3c9"/>
     <path d="M 10.59375 45.40625 
L 73.1875 45.40625 
L 73.1875 37.203125 
L 10.59375 37.203125 
z
M 10.59375 25.484375 
L 73.1875 25.484375 
L 73.1875 17.1875 
L 10.59375 17.1875 
z
" id="DejaVuSans-3d"/>
     <path d="M 8.015625 75.875 
L 15.828125 75.875 
Q 23.140625 64.359375 26.78125 53.3125 
Q 30.421875 42.28125 30.421875 31.390625 
Q 30.421875 20.453125 26.78125 9.375 
Q 23.140625 -1.703125 15.828125 -13.1875 
L 8.015625 -13.1875 
Q 14.5 -2 17.703125 9.0625 
Q 20.90625 20.125 20.90625 31.390625 
Q 20.90625 42.671875 17.703125 53.65625 
Q 14.5 64.65625 8.015625 75.875 
z
" id="DejaVuSans-29"/>
    </defs>
    <g transform="translate(112.303125 16.32)scale(0.12 -0.12)">
     <use transform="translate(0 0.015625)" xlink:href="#DejaVuSans-53"/>
     <use transform="translate(63.476562 0.015625)" xlink:href="#DejaVuSans-70"/>
     <use transform="translate(126.953125 0.015625)" xlink:href="#DejaVuSans-69"/>
     <use transform="translate(154.736328 0.015625)" xlink:href="#DejaVuSans-6e"/>
     <use transform="translate(218.115234 0.015625)" xlink:href="#DejaVuSans-2d"/>
     <use transform="translate(254.199219 0.015625)" xlink:href="#DejaVuSans-72"/>
     <use transform="translate(295.3125 0.015625)" xlink:href="#DejaVuSans-65"/>
     <use transform="translate(356.835938 0.015625)" xlink:href="#DejaVuSans-73"/>
     <use transform="translate(408.935547 0.015625)" xlink:href="#DejaVuSans-70"/>
     <use transform="translate(472.412109 0.015625)" xlink:href="#DejaVuSans-6f"/>
     <use transform="translate(533.59375 0.015625)" xlink:href="#DejaVuSans-6e"/>
     <use transform="translate(596.972656 0.015625)" xlink:href="#DejaVuSans-73"/>
     <use transform="translate(649.072266 0.015625)" xlink:href="#DejaVuSans-65"/>
     <use transform="translate(710.595703 0.015625)" xlink:href="#DejaVuSans-20"/>
     <use transform="translate(742.382812 0.015625)" xlink:href="#DejaVuSans-Oblique-3c7"/>
     <use transform="translate(801.5625 -16.390625)scale(0.7)" xlink:href="#DejaVuSans-Oblique-53"/>
     <use transform="translate(845.996094 -27.875)scale(0.49)" xlink:href="#DejaVuSans-Oblique-7a"/>
     <use transform="translate(873.630371 -16.390625)scale(0.7)" xlink:href="#DejaVuSans-Oblique-53"/>
     <use transform="translate(918.063965 -27.875)scale(0.49)" xlink:href="#DejaVuSans-Oblique-7a"/>
     <use transform="translate(948.432617 0.015625)" xlink:href="#DejaVuSans-28"/>
     <use transform="translate(987.446289 0.015625)" xlink:href="#DejaVuSans-Bold-71"/>
     <use transform="translate(1059.02832 0.015625)" xlink:href="#DejaVuSans-2c"/>
     <use transform="translate(1110.297852 0.015625)" xlink:href="#DejaVuSans-Oblique-3c9"/>
     <use transform="translate(1213.520508 0.015625)" xlink:href="#DejaVuSans-3d"/>
     <use transform="translate(1316.791992 0.015625)" xlink:href="#DejaVuSans-30"/>
     <use transform="translate(1380.415039 0.015625)" xlink:href="#DejaVuSans-29"/>
    </g>
   </g>
   <g id="legend_1">
    <g id="patch_7">
     <path d="M 284.003125 103.710625 
L 357.903125 103.710625 
Q 359.903125 103.710625 359.903125 101.710625 
L 359.903125 29.32 
Q 359.903125 27.32 357.903125 27.32 
L 284.003125 27.32 
Q 282.003125 27.32 282.003125 29.32 
L 282.003125 101.710625 
Q 282.003125 103.710625 284.003125 103.710625 
z
" style="fill:#ffffff;opacity:0.8;stroke:#cccccc;stroke-linejoin:miter;"/>
    </g>
    <g id="line2d_24">
     <path d="M 286.003125 35.418437 
L 306.003125 35.418437 
" style="fill:none;stroke:#1f77b4;stroke-linecap:square;stroke-width:1.5;"/>
    </g>
    <g id="line2d_25"/>
    <g id="text_11">
     <!-- $U=0$ -->
     <defs>
      <path d="M 15.484375 72.90625 
L 25.390625 72.90625 
L 16.796875 28.609375 
Q 16.265625 25.640625 16.046875 23.703125 
Q 15.828125 21.78125 15.828125 20.3125 
Q 15.828125 13.578125 19.578125 10.078125 
Q 23.34375 6.59375 30.609375 6.59375 
Q 40.046875 6.59375 45.28125 11.765625 
Q 50.53125 16.9375 52.78125 28.609375 
L 61.375 72.90625 
L 71.296875 72.90625 
L 62.5 27.390625 
Q 59.625 12.640625 51.5625 5.609375 
Q 43.5 -1.421875 29.5 -1.421875 
Q 18.5625 -1.421875 12.1875 4.078125 
Q 5.8125 9.578125 5.8125 19 
Q 5.8125 20.703125 6.046875 22.828125 
Q 6.296875 24.953125 6.78125 27.390625 
z
" id="DejaVuSans-Oblique-55"/>
     </defs>
     <g transform="translate(314.003125 38.918437)scale(0.1 -0.1)">
      <use transform="translate(0 0.78125)" xlink:href="#DejaVuSans-Oblique-55"/>
      <use transform="translate(92.675781 0.78125)" xlink:href="#DejaVuSans-3d"/>
      <use transform="translate(195.947266 0.78125)" xlink:href="#DejaVuSans-30"/>
     </g>
    </g>
    <g id="line2d_26">
     <path d="M 286.003125 50.096562 
L 306.003125 50.096562 
" style="fill:none;stroke:#ff7f0e;stroke-linecap:square;stroke-width:1.5;"/>
    </g>
    <g id="line2d_27"/>
    <g id="text_12">
     <!-- $U=1.00$ -->
     <g transform="translate(314.003125 53.596562)scale(0.1 -0.1)">
      <use transform="translate(0 0.78125)" xlink:href="#DejaVuSans-Oblique-55"/>
      <use transform="translate(92.675781 0.78125)" xlink:href="#DejaVuSans-3d"/>
      <use transform="translate(195.947266 0.78125)" xlink:href="#DejaVuSans-31"/>
      <use transform="translate(259.570312 0.78125)" xlink:href="#DejaVuSans-2e"/>
      <use transform="translate(291.357422 0.78125)" xlink:href="#DejaVuSans-30"/>
      <use transform="translate(354.980469 0.78125)" xlink:href="#DejaVuSans-30"/>
     </g>
    </g>
    <g id="line2d_28">
     <path d="M 286.003125 64.774687 
L 306.003125 64.774687 
" style="fill:none;stroke:#2ca02c;stroke-linecap:square;stroke-width:1.5;"/>
    </g>
    <g id="line2d_29"/>
    <g id="text_13">
     <!-- $U=2.00$ -->
     <g transform="translate(314.003125 68.274687)scale(0.1 -0.1)">
      <use transform="translate(0 0.78125)" xlink:href="#DejaVuSans-Oblique-55"/>
      <use transform="translate(92.675781 0.78125)" xlink:href="#DejaVuSans-3d"/>
      <use transform="translate(195.947266 0.78125)" xlink:href="#DejaVuSans-32"/>
      <use transform="translate(259.570312 0.78125)" xlink:href="#DejaVuSans-2e"/>
      <use transform="translate(291.357422 0.78125)" xlink:href="#DejaVuSans-30"/>
      <use transform="translate(354.980469 0.78125)" xlink:href="#DejaVuSans-30"/>
     </g>
    </g>
    <g id="line2d_30">
     <path d="M 286.003125 79.452812 
L 306.003125 79.452812 
" style="fill:none;stroke:#d62728;stroke-linecap:square;stroke-width:1.5;"/>
    </g>
    <g id="line2d_31"/>
    <g id="text_14">
     <!-- $U=3.00$ -->
     <g transform="translate(314.003125 82.952812)scale(0.1 -0.1)">
      <use transform="translate(0 0.78125)" xlink:href="#DejaVuSans-Oblique-55"/>
      <use transform="translate(92.675781 0.78125)" xlink:href="#DejaVuSans-3d"/>
      <use transform="translate(195.947266 0.78125)" xlink:href="#DejaVuSans-33"/>
      <use transform="translate(259.570312 0.78125)" xlink:href="#DejaVuSans-2e"/>
      <use transform="translate(291.357422 0.78125)" xlink:href="#DejaVuSans-30"/>
      <use transform="translate(354.980469 0.78125)" xlink:href="#DejaVuSans-30"/>
     </g>
    </g>
    <g id="line2d_32">
     <path d="M 286.003125 94.130937 
L 306.003125 94.130937 
" style="fill:none;stroke:#9467bd;stroke-linecap:square;stroke-width:1.5;"/>
    </g>
    <g id="line2d_33"/>
    <g id="text_15">
     <!-- $U=4.00$ -->
     <g transform="translate(314.003125 97.630937)scale(0.1 -0.1)">
      <use transform="translate(0 0.78125)" xlink:href="#DejaVuSans-Oblique-55"/>
      <use transform="translate(92.675781 0.78125)" xlink:href="#DejaVuSans-3d"/>
      <use transform="translate(195.947266 0.78125)" xlink:href="#DejaVuSans-34"/>
      <use transform="translate(259.570312 0.78125)" xlink:href="#DejaVuSans-2e"/>
      <use transform="translate(291.357422 0.78125)" xlink:href="#DejaVuSans-30"/>
      <use transform="translate(354.980469 0.78125)" xlink:href="#DejaVuSans-30"/>
     </g>
    </g>
   </g>
  </g>
 </g>
 <defs>
  <clipPath id="pc5acd8c32e">
   <rect height="217.44" width="334.8" x="30.103125" y="22.32"/>
  </clipPath>
 </defs>
</svg>
