<?xml version="1.0" encoding="utf-8" standalone="no"?>
<!DOCTYPE svg PUBLIC "-//W3C//DTD SVG 1.1//EN"
  "http://www.w3.org/Graphics/SVG/1.1/DTD/svg11.dtd">
<svg xmlns:xlink="http://www.w3.org/1999/xlink" width="709.485625pt" height="356.604827pt" viewBox="0 0 709.485625 356.604827" xmlns="http://www.w3.org/2000/svg" version="1.1">
 <metadata>
  <rdf:RDF xmlns:dc="http://purl.org/dc/elements/1.1/" xmlns:cc="http://creativecommons.org/ns#" xmlns:rdf="http://www.w3.org/1999/02/22-rdf-syntax-ns#">
   <cc:Work>
    <dc:type rdf:resource="http://purl.org/dc/dcmitype/StillImage"/>
    <dc:date>2025-06-01T10:37:24.221432</dc:date>
    <dc:format>image/svg+xml</dc:format>
    <dc:creator>
     <cc:Agent>
      <dc:title>Matplotlib v3.10.1, https://matplotlib.org/</dc:title>
     </cc:Agent>
    </dc:creator>
   </cc:Work>
  </rdf:RDF>
 </metadata>
 <defs>
  <style type="text/css">*{stroke-linejoin: round; stroke-linecap: butt}</style>
 </defs>
 <g id="figure_1">
  <g id="patch_1">
   <path d="M 0 356.604827 
L 709.485625 356.604827 
L 709.485625 0 
L 0 0 
z
" style="fill: #ffffff"/>
  </g>
  <g id="axes_1">
   <g id="patch_2">
    <path d="M 50.165625 319.048577 
L 346.896077 319.048577 
L 346.896077 22.318125 
L 50.165625 22.318125 
z
" style="fill: #ffffff"/>
   </g>
   <g id="matplotlib.axis_1">
    <g id="xtick_1">
     <g id="line2d_1">
      <path d="M 63.653373 319.048577 
L 63.653373 22.318125 
" clip-path="url(#p69a0adae35)" style="fill: none; stroke: #b0b0b0; stroke-width: 0.8; stroke-linecap: square"/>
     </g>
     <g id="line2d_2">
      <defs>
       <path id="mffc876fe0f" d="M 0 0 
L 0 3.5 
" style="stroke: #000000; stroke-width: 0.8"/>
      </defs>
      <g>
       <use xlink:href="#mffc876fe0f" x="63.653373" y="319.048577" style="stroke: #000000; stroke-width: 0.8"/>
      </g>
     </g>
     <g id="text_1">
      <!-- $\Gamma$ -->
      <g transform="translate(60.853373 333.647014) scale(0.1 -0.1)">
       <defs>
        <path id="DejaVuSans-393" d="M 628 0 
L 628 4666 
L 3531 4666 
L 3531 4134 
L 1259 4134 
L 1259 0 
L 628 0 
z
" transform="scale(0.015625)"/>
       </defs>
       <use xlink:href="#DejaVuSans-393" transform="translate(0 0.09375)"/>
      </g>
     </g>
    </g>
    <g id="xtick_2">
     <g id="line2d_3">
      <path d="M 162.39054 319.048577 
L 162.39054 22.318125 
" clip-path="url(#p69a0adae35)" style="fill: none; stroke: #b0b0b0; stroke-width: 0.8; stroke-linecap: square"/>
     </g>
     <g id="line2d_4">
      <g>
       <use xlink:href="#mffc876fe0f" x="162.39054" y="319.048577" style="stroke: #000000; stroke-width: 0.8"/>
      </g>
     </g>
     <g id="text_2">
      <!-- $M$ -->
      <g transform="translate(158.04054 333.647014) scale(0.1 -0.1)">
       <defs>
        <path id="DejaVuSans-Oblique-4d" d="M 1081 4666 
L 2028 4666 
L 2572 1522 
L 4378 4666 
L 5350 4666 
L 4441 0 
L 3828 0 
L 4622 4091 
L 2791 897 
L 2175 897 
L 1581 4103 
L 788 0 
L 172 0 
L 1081 4666 
z
" transform="scale(0.015625)"/>
       </defs>
       <use xlink:href="#DejaVuSans-Oblique-4d" transform="translate(0 0.09375)"/>
      </g>
     </g>
    </g>
    <g id="xtick_3">
     <g id="line2d_5">
      <path d="M 219.396469 319.048577 
L 219.396469 22.318125 
" clip-path="url(#p69a0adae35)" style="fill: none; stroke: #b0b0b0; stroke-width: 0.8; stroke-linecap: square"/>
     </g>
     <g id="line2d_6">
      <g>
       <use xlink:href="#mffc876fe0f" x="219.396469" y="319.048577" style="stroke: #000000; stroke-width: 0.8"/>
      </g>
     </g>
     <g id="text_3">
      <!-- $K$ -->
      <g transform="translate(216.096469 333.647014) scale(0.1 -0.1)">
       <defs>
        <path id="DejaVuSans-Oblique-4b" d="M 1081 4666 
L 1716 4666 
L 1331 2700 
L 3781 4666 
L 4622 4666 
L 1850 2438 
L 3878 0 
L 3109 0 
L 1247 2272 
L 806 0 
L 172 0 
L 1081 4666 
z
" transform="scale(0.015625)"/>
       </defs>
       <use xlink:href="#DejaVuSans-Oblique-4b" transform="translate(0 0.09375)"/>
      </g>
     </g>
    </g>
    <g id="xtick_4">
     <g id="line2d_7">
      <path d="M 333.408329 319.048577 
L 333.408329 22.318125 
" clip-path="url(#p69a0adae35)" style="fill: none; stroke: #b0b0b0; stroke-width: 0.8; stroke-linecap: square"/>
     </g>
     <g id="line2d_8">
      <g>
       <use xlink:href="#mffc876fe0f" x="333.408329" y="319.048577" style="stroke: #000000; stroke-width: 0.8"/>
      </g>
     </g>
     <g id="text_4">
      <!-- $\Gamma$ -->
      <g transform="translate(330.608329 333.647014) scale(0.1 -0.1)">
       <use xlink:href="#DejaVuSans-393" transform="translate(0 0.09375)"/>
      </g>
     </g>
    </g>
    <g id="text_5">
     <!-- $\mathbf{k}$ -->
     <g transform="translate(195.180851 347.325139) scale(0.1 -0.1)">
      <defs>
       <path id="DejaVuSans-Bold-6b" d="M 538 4863 
L 1656 4863 
L 1656 2216 
L 2944 3500 
L 4244 3500 
L 2534 1894 
L 4378 0 
L 3022 0 
L 1656 1459 
L 1656 0 
L 538 0 
L 538 4863 
z
" transform="scale(0.015625)"/>
      </defs>
      <use xlink:href="#DejaVuSans-Bold-6b" transform="translate(0 0.015625)"/>
     </g>
    </g>
   </g>
   <g id="matplotlib.axis_2">
    <g id="ytick_1">
     <g id="line2d_9">
      <path d="M 50.165625 319.048577 
L 346.896077 319.048577 
" clip-path="url(#p69a0adae35)" style="fill: none; stroke: #b0b0b0; stroke-width: 0.8; stroke-linecap: square"/>
     </g>
     <g id="line2d_10">
      <defs>
       <path id="m927a44fd29" d="M 0 0 
L -3.5 0 
" style="stroke: #000000; stroke-width: 0.8"/>
      </defs>
      <g>
       <use xlink:href="#m927a44fd29" x="50.165625" y="319.048577" style="stroke: #000000; stroke-width: 0.8"/>
      </g>
     </g>
     <g id="text_6">
      <!-- 0.0 -->
      <g transform="translate(27.2625 322.847796) scale(0.1 -0.1)">
       <defs>
        <path id="DejaVuSans-30" d="M 2034 4250 
Q 1547 4250 1301 3770 
Q 1056 3291 1056 2328 
Q 1056 1369 1301 889 
Q 1547 409 2034 409 
Q 2525 409 2770 889 
Q 3016 1369 3016 2328 
Q 3016 3291 2770 3770 
Q 2525 4250 2034 4250 
z
M 2034 4750 
Q 2819 4750 3233 4129 
Q 3647 3509 3647 2328 
Q 3647 1150 3233 529 
Q 2819 -91 2034 -91 
Q 1250 -91 836 529 
Q 422 1150 422 2328 
Q 422 3509 836 4129 
Q 1250 4750 2034 4750 
z
" transform="scale(0.015625)"/>
        <path id="DejaVuSans-2e" d="M 684 794 
L 1344 794 
L 1344 0 
L 684 0 
L 684 794 
z
" transform="scale(0.015625)"/>
       </defs>
       <use xlink:href="#DejaVuSans-30"/>
       <use xlink:href="#DejaVuSans-2e" transform="translate(63.623047 0)"/>
       <use xlink:href="#DejaVuSans-30" transform="translate(95.410156 0)"/>
      </g>
     </g>
    </g>
    <g id="ytick_2">
     <g id="line2d_11">
      <path d="M 50.165625 281.09307 
L 346.896077 281.09307 
" clip-path="url(#p69a0adae35)" style="fill: none; stroke: #b0b0b0; stroke-width: 0.8; stroke-linecap: square"/>
     </g>
     <g id="line2d_12">
      <g>
       <use xlink:href="#m927a44fd29" x="50.165625" y="281.09307" style="stroke: #000000; stroke-width: 0.8"/>
      </g>
     </g>
     <g id="text_7">
      <!-- 2.5 -->
      <g transform="translate(27.2625 284.892289) scale(0.1 -0.1)">
       <defs>
        <path id="DejaVuSans-32" d="M 1228 531 
L 3431 531 
L 3431 0 
L 469 0 
L 469 531 
Q 828 903 1448 1529 
Q 2069 2156 2228 2338 
Q 2531 2678 2651 2914 
Q 2772 3150 2772 3378 
Q 2772 3750 2511 3984 
Q 2250 4219 1831 4219 
Q 1534 4219 1204 4116 
Q 875 4013 500 3803 
L 500 4441 
Q 881 4594 1212 4672 
Q 1544 4750 1819 4750 
Q 2544 4750 2975 4387 
Q 3406 4025 3406 3419 
Q 3406 3131 3298 2873 
Q 3191 2616 2906 2266 
Q 2828 2175 2409 1742 
Q 1991 1309 1228 531 
z
" transform="scale(0.015625)"/>
        <path id="DejaVuSans-35" d="M 691 4666 
L 3169 4666 
L 3169 4134 
L 1269 4134 
L 1269 2991 
Q 1406 3038 1543 3061 
Q 1681 3084 1819 3084 
Q 2600 3084 3056 2656 
Q 3513 2228 3513 1497 
Q 3513 744 3044 326 
Q 2575 -91 1722 -91 
Q 1428 -91 1123 -41 
Q 819 9 494 109 
L 494 744 
Q 775 591 1075 516 
Q 1375 441 1709 441 
Q 2250 441 2565 725 
Q 2881 1009 2881 1497 
Q 2881 1984 2565 2268 
Q 2250 2553 1709 2553 
Q 1456 2553 1204 2497 
Q 953 2441 691 2322 
L 691 4666 
z
" transform="scale(0.015625)"/>
       </defs>
       <use xlink:href="#DejaVuSans-32"/>
       <use xlink:href="#DejaVuSans-2e" transform="translate(63.623047 0)"/>
       <use xlink:href="#DejaVuSans-35" transform="translate(95.410156 0)"/>
      </g>
     </g>
    </g>
    <g id="ytick_3">
     <g id="line2d_13">
      <path d="M 50.165625 243.137564 
L 346.896077 243.137564 
" clip-path="url(#p69a0adae35)" style="fill: none; stroke: #b0b0b0; stroke-width: 0.8; stroke-linecap: square"/>
     </g>
     <g id="line2d_14">
      <g>
       <use xlink:href="#m927a44fd29" x="50.165625" y="243.137564" style="stroke: #000000; stroke-width: 0.8"/>
      </g>
     </g>
     <g id="text_8">
      <!-- 5.0 -->
      <g transform="translate(27.2625 246.936782) scale(0.1 -0.1)">
       <use xlink:href="#DejaVuSans-35"/>
       <use xlink:href="#DejaVuSans-2e" transform="translate(63.623047 0)"/>
       <use xlink:href="#DejaVuSans-30" transform="translate(95.410156 0)"/>
      </g>
     </g>
    </g>
    <g id="ytick_4">
     <g id="line2d_15">
      <path d="M 50.165625 205.182057 
L 346.896077 205.182057 
" clip-path="url(#p69a0adae35)" style="fill: none; stroke: #b0b0b0; stroke-width: 0.8; stroke-linecap: square"/>
     </g>
     <g id="line2d_16">
      <g>
       <use xlink:href="#m927a44fd29" x="50.165625" y="205.182057" style="stroke: #000000; stroke-width: 0.8"/>
      </g>
     </g>
     <g id="text_9">
      <!-- 7.5 -->
      <g transform="translate(27.2625 208.981276) scale(0.1 -0.1)">
       <defs>
        <path id="DejaVuSans-37" d="M 525 4666 
L 3525 4666 
L 3525 4397 
L 1831 0 
L 1172 0 
L 2766 4134 
L 525 4134 
L 525 4666 
z
" transform="scale(0.015625)"/>
       </defs>
       <use xlink:href="#DejaVuSans-37"/>
       <use xlink:href="#DejaVuSans-2e" transform="translate(63.623047 0)"/>
       <use xlink:href="#DejaVuSans-35" transform="translate(95.410156 0)"/>
      </g>
     </g>
    </g>
    <g id="ytick_5">
     <g id="line2d_17">
      <path d="M 50.165625 167.22655 
L 346.896077 167.22655 
" clip-path="url(#p69a0adae35)" style="fill: none; stroke: #b0b0b0; stroke-width: 0.8; stroke-linecap: square"/>
     </g>
     <g id="line2d_18">
      <g>
       <use xlink:href="#m927a44fd29" x="50.165625" y="167.22655" style="stroke: #000000; stroke-width: 0.8"/>
      </g>
     </g>
     <g id="text_10">
      <!-- 10.0 -->
      <g transform="translate(20.9 171.025769) scale(0.1 -0.1)">
       <defs>
        <path id="DejaVuSans-31" d="M 794 531 
L 1825 531 
L 1825 4091 
L 703 3866 
L 703 4441 
L 1819 4666 
L 2450 4666 
L 2450 531 
L 3481 531 
L 3481 0 
L 794 0 
L 794 531 
z
" transform="scale(0.015625)"/>
       </defs>
       <use xlink:href="#DejaVuSans-31"/>
       <use xlink:href="#DejaVuSans-30" transform="translate(63.623047 0)"/>
       <use xlink:href="#DejaVuSans-2e" transform="translate(127.246094 0)"/>
       <use xlink:href="#DejaVuSans-30" transform="translate(159.033203 0)"/>
      </g>
     </g>
    </g>
    <g id="ytick_6">
     <g id="line2d_19">
      <path d="M 50.165625 129.271043 
L 346.896077 129.271043 
" clip-path="url(#p69a0adae35)" style="fill: none; stroke: #b0b0b0; stroke-width: 0.8; stroke-linecap: square"/>
     </g>
     <g id="line2d_20">
      <g>
       <use xlink:href="#m927a44fd29" x="50.165625" y="129.271043" style="stroke: #000000; stroke-width: 0.8"/>
      </g>
     </g>
     <g id="text_11">
      <!-- 12.5 -->
      <g transform="translate(20.9 133.070262) scale(0.1 -0.1)">
       <use xlink:href="#DejaVuSans-31"/>
       <use xlink:href="#DejaVuSans-32" transform="translate(63.623047 0)"/>
       <use xlink:href="#DejaVuSans-2e" transform="translate(127.246094 0)"/>
       <use xlink:href="#DejaVuSans-35" transform="translate(159.033203 0)"/>
      </g>
     </g>
    </g>
    <g id="ytick_7">
     <g id="line2d_21">
      <path d="M 50.165625 91.315537 
L 346.896077 91.315537 
" clip-path="url(#p69a0adae35)" style="fill: none; stroke: #b0b0b0; stroke-width: 0.8; stroke-linecap: square"/>
     </g>
     <g id="line2d_22">
      <g>
       <use xlink:href="#m927a44fd29" x="50.165625" y="91.315537" style="stroke: #000000; stroke-width: 0.8"/>
      </g>
     </g>
     <g id="text_12">
      <!-- 15.0 -->
      <g transform="translate(20.9 95.114755) scale(0.1 -0.1)">
       <use xlink:href="#DejaVuSans-31"/>
       <use xlink:href="#DejaVuSans-35" transform="translate(63.623047 0)"/>
       <use xlink:href="#DejaVuSans-2e" transform="translate(127.246094 0)"/>
       <use xlink:href="#DejaVuSans-30" transform="translate(159.033203 0)"/>
      </g>
     </g>
    </g>
    <g id="ytick_8">
     <g id="line2d_23">
      <path d="M 50.165625 53.36003 
L 346.896077 53.36003 
" clip-path="url(#p69a0adae35)" style="fill: none; stroke: #b0b0b0; stroke-width: 0.8; stroke-linecap: square"/>
     </g>
     <g id="line2d_24">
      <g>
       <use xlink:href="#m927a44fd29" x="50.165625" y="53.36003" style="stroke: #000000; stroke-width: 0.8"/>
      </g>
     </g>
     <g id="text_13">
      <!-- 17.5 -->
      <g transform="translate(20.9 57.159249) scale(0.1 -0.1)">
       <use xlink:href="#DejaVuSans-31"/>
       <use xlink:href="#DejaVuSans-37" transform="translate(63.623047 0)"/>
       <use xlink:href="#DejaVuSans-2e" transform="translate(127.246094 0)"/>
       <use xlink:href="#DejaVuSans-35" transform="translate(159.033203 0)"/>
      </g>
     </g>
    </g>
    <g id="text_14">
     <!-- Re[$\chi(i\omega = 0, \mathbf{k}$] -->
     <g transform="translate(14.8 206.833351) rotate(-90) scale(0.1 -0.1)">
      <defs>
       <path id="DejaVuSans-52" d="M 2841 2188 
Q 3044 2119 3236 1894 
Q 3428 1669 3622 1275 
L 4263 0 
L 3584 0 
L 2988 1197 
Q 2756 1666 2539 1819 
Q 2322 1972 1947 1972 
L 1259 1972 
L 1259 0 
L 628 0 
L 628 4666 
L 2053 4666 
Q 2853 4666 3247 4331 
Q 3641 3997 3641 3322 
Q 3641 2881 3436 2590 
Q 3231 2300 2841 2188 
z
M 1259 4147 
L 1259 2491 
L 2053 2491 
Q 2509 2491 2742 2702 
Q 2975 2913 2975 3322 
Q 2975 3731 2742 3939 
Q 2509 4147 2053 4147 
L 1259 4147 
z
" transform="scale(0.015625)"/>
       <path id="DejaVuSans-65" d="M 3597 1894 
L 3597 1613 
L 953 1613 
Q 991 1019 1311 708 
Q 1631 397 2203 397 
Q 2534 397 2845 478 
Q 3156 559 3463 722 
L 3463 178 
Q 3153 47 2828 -22 
Q 2503 -91 2169 -91 
Q 1331 -91 842 396 
Q 353 884 353 1716 
Q 353 2575 817 3079 
Q 1281 3584 2069 3584 
Q 2775 3584 3186 3129 
Q 3597 2675 3597 1894 
z
M 3022 2063 
Q 3016 2534 2758 2815 
Q 2500 3097 2075 3097 
Q 1594 3097 1305 2825 
Q 1016 2553 972 2059 
L 3022 2063 
z
" transform="scale(0.015625)"/>
       <path id="DejaVuSans-5b" d="M 550 4863 
L 1875 4863 
L 1875 4416 
L 1125 4416 
L 1125 -397 
L 1875 -397 
L 1875 -844 
L 550 -844 
L 550 4863 
z
" transform="scale(0.015625)"/>
       <path id="DejaVuSans-Oblique-3c7" d="M 1922 -781 
L 1691 416 
L 394 -1334 
L -284 -1334 
L 1553 1141 
L 1269 2613 
Q 1194 3006 713 3006 
L 559 3006 
L 653 3500 
L 872 3494 
Q 1675 3472 1775 2950 
L 2006 1753 
L 3303 3503 
L 3981 3503 
L 2144 1028 
L 2428 -444 
Q 2503 -838 2984 -838 
L 3138 -838 
L 3044 -1331 
L 2825 -1325 
Q 2022 -1303 1922 -781 
z
" transform="scale(0.015625)"/>
       <path id="DejaVuSans-28" d="M 1984 4856 
Q 1566 4138 1362 3434 
Q 1159 2731 1159 2009 
Q 1159 1288 1364 580 
Q 1569 -128 1984 -844 
L 1484 -844 
Q 1016 -109 783 600 
Q 550 1309 550 2009 
Q 550 2706 781 3412 
Q 1013 4119 1484 4856 
L 1984 4856 
z
" transform="scale(0.015625)"/>
       <path id="DejaVuSans-Oblique-69" d="M 1172 4863 
L 1747 4863 
L 1606 4134 
L 1031 4134 
L 1172 4863 
z
M 909 3500 
L 1484 3500 
L 800 0 
L 225 0 
L 909 3500 
z
" transform="scale(0.015625)"/>
       <path id="DejaVuSans-Oblique-3c9" d="M 1369 -91 
Q 72 -91 434 1766 
Q 575 2500 1256 3500 
L 1875 3500 
Q 1231 2500 1088 1750 
Q 819 397 1519 397 
Q 2166 397 2478 2078 
L 3009 2078 
Q 2669 388 3316 397 
Q 4013 403 4275 1750 
Q 4419 2500 4169 3500 
L 4788 3500 
Q 5075 2500 4934 1766 
Q 4578 -94 3278 -91 
Q 2428 -88 2503 844 
Q 2194 -91 1369 -91 
z
" transform="scale(0.015625)"/>
       <path id="DejaVuSans-3d" d="M 678 2906 
L 4684 2906 
L 4684 2381 
L 678 2381 
L 678 2906 
z
M 678 1631 
L 4684 1631 
L 4684 1100 
L 678 1100 
L 678 1631 
z
" transform="scale(0.015625)"/>
       <path id="DejaVuSans-2c" d="M 750 794 
L 1409 794 
L 1409 256 
L 897 -744 
L 494 -744 
L 750 256 
L 750 794 
z
" transform="scale(0.015625)"/>
       <path id="DejaVuSans-5d" d="M 1947 4863 
L 1947 -844 
L 622 -844 
L 622 -397 
L 1369 -397 
L 1369 4416 
L 622 4416 
L 622 4863 
L 1947 4863 
z
" transform="scale(0.015625)"/>
      </defs>
      <use xlink:href="#DejaVuSans-52" transform="translate(0 0.015625)"/>
      <use xlink:href="#DejaVuSans-65" transform="translate(69.482422 0.015625)"/>
      <use xlink:href="#DejaVuSans-5b" transform="translate(131.005859 0.015625)"/>
      <use xlink:href="#DejaVuSans-Oblique-3c7" transform="translate(170.019531 0.015625)"/>
      <use xlink:href="#DejaVuSans-28" transform="translate(229.199219 0.015625)"/>
      <use xlink:href="#DejaVuSans-Oblique-69" transform="translate(268.212891 0.015625)"/>
      <use xlink:href="#DejaVuSans-Oblique-3c9" transform="translate(295.996094 0.015625)"/>
      <use xlink:href="#DejaVuSans-3d" transform="translate(399.21875 0.015625)"/>
      <use xlink:href="#DejaVuSans-30" transform="translate(502.490234 0.015625)"/>
      <use xlink:href="#DejaVuSans-2c" transform="translate(566.113281 0.015625)"/>
      <use xlink:href="#DejaVuSans-Bold-6b" transform="translate(617.382812 0.015625)"/>
      <use xlink:href="#DejaVuSans-5d" transform="translate(683.886719 0.015625)"/>
     </g>
    </g>
   </g>
   <g id="line2d_25">
    <path d="M 63.653373 305.74085 
L 65.648063 305.975869 
L 74.624169 306.132753 
L 90.581691 306.909626 
L 99.557797 306.949756 
L 108.533903 306.761563 
L 117.510009 306.354994 
L 126.486115 305.711066 
L 134.464876 304.91214 
L 148.427708 303.385235 
L 153.414434 303.2207 
L 162.39054 303.258935 
L 162.39054 303.258935 
L 164.117992 304.221029 
L 166.997079 306.672113 
L 168.148714 307.472595 
L 170.451984 308.712355 
L 172.755254 309.663012 
L 175.058524 310.399552 
L 178.513429 311.246345 
L 183.119969 312.055098 
L 187.150691 312.575593 
L 193.484683 313.148861 
L 200.394493 313.558641 
L 209.031755 313.855531 
L 219.396469 313.973921 
L 219.396469 313.973921 
L 229.761184 313.850324 
L 238.974264 313.491855 
L 245.884073 313.001837 
L 252.793883 312.262287 
L 258.552058 311.657126 
L 264.310232 311.329649 
L 287.342931 310.302101 
L 296.556011 309.597414 
L 303.465821 308.867811 
L 309.223995 308.093951 
L 320.740345 306.433219 
L 324.19525 306.189553 
L 328.801789 306.102708 
L 331.105059 306.002206 
L 333.408329 305.74085 
L 333.408329 305.74085 
" clip-path="url(#p69a0adae35)" style="fill: none; stroke: #1f77b4; stroke-width: 1.5; stroke-linecap: square"/>
   </g>
   <g id="line2d_26">
    <path d="M 63.653373 315.402815 
L 84.59762 315.480718 
L 112.523284 315.471143 
L 165.269627 315.369799 
L 173.906889 315.825817 
L 185.423239 316.182355 
L 201.546128 316.438394 
L 222.851374 316.521321 
L 242.429168 316.363509 
L 276.978217 315.933594 
L 308.07236 315.62246 
L 327.650154 315.430914 
L 333.408329 315.402815 
L 333.408329 315.402815 
" clip-path="url(#p69a0adae35)" style="fill: none; stroke: #ff7f0e; stroke-width: 1.5; stroke-linecap: square"/>
   </g>
   <g id="line2d_27">
    <path d="M 63.653373 254.649063 
L 65.648063 259.793158 
L 66.645408 259.913708 
L 68.640098 259.922484 
L 69.637444 259.987651 
L 71.632134 260.612302 
L 73.626824 261.948027 
L 75.621514 263.912144 
L 80.60824 269.382317 
L 82.60293 271.15019 
L 84.59762 272.569821 
L 86.592311 273.674658 
L 88.587001 274.51052 
L 90.581691 275.117757 
L 93.573726 275.64661 
L 95.568417 275.797343 
L 97.563107 275.792389 
L 99.557797 275.638857 
L 101.552487 275.339743 
L 103.547178 274.894407 
L 105.541868 274.29878 
L 107.536558 273.545343 
L 109.531248 272.6229 
L 111.525939 271.516121 
L 113.520629 270.204834 
L 115.515319 268.662978 
L 117.510009 266.857131 
L 119.504699 264.74443 
L 121.49939 262.269633 
L 123.49408 259.360954 
L 125.48877 255.924089 
L 127.48346 251.833629 
L 129.478151 246.920689 
L 131.472841 240.91016 
L 133.467531 233.501532 
L 135.462221 224.245311 
L 137.456912 212.53636 
L 139.451602 197.604627 
L 141.446292 178.596006 
L 143.440982 154.880762 
L 145.435673 126.761842 
L 149.425053 68.624565 
L 150.422398 57.017215 
L 151.419743 48.368783 
L 152.417088 41.462351 
L 153.414434 38.38832 
L 154.411779 36.327958 
L 155.409124 37.308602 
L 156.406469 38.594097 
L 158.401159 43.766092 
L 160.395849 48.234458 
L 162.39054 49.971971 
L 162.39054 49.971971 
L 164.117992 189.096842 
L 165.269627 233.150825 
L 165.845444 254.00769 
L 166.421262 263.442325 
L 167.572897 277.11239 
L 168.148714 281.338867 
L 169.300349 287.76111 
L 169.876167 290.106281 
L 171.603619 295.276139 
L 173.331072 298.736012 
L 175.058524 301.181544 
L 176.785976 303.037099 
L 179.089246 304.84131 
L 180.816699 305.915759 
L 183.119969 307.049408 
L 184.847421 307.73704 
L 187.150691 308.507013 
L 190.605596 309.386267 
L 194.636318 310.146554 
L 200.394493 310.887374 
L 205.57685 311.327099 
L 212.48666 311.664334 
L 220.548104 311.76561 
L 227.457914 311.617357 
L 233.216089 311.299402 
L 238.974264 310.738253 
L 243.580803 310.054287 
L 247.035708 309.33043 
L 250.490613 308.384413 
L 259.703693 305.569844 
L 263.158597 304.918852 
L 271.220042 303.838461 
L 276.978217 302.987172 
L 282.736391 301.892558 
L 287.342931 300.771203 
L 291.949471 299.304624 
L 295.404376 297.922501 
L 297.707646 296.850214 
L 301.162551 294.831218 
L 304.617455 292.230836 
L 306.920725 290.008483 
L 308.07236 288.82796 
L 310.37563 285.912678 
L 311.527265 284.352193 
L 313.830535 280.615587 
L 316.133805 276.510759 
L 319.58871 269.992055 
L 321.89198 266.351528 
L 323.043615 264.881101 
L 324.19525 263.94007 
L 325.346884 263.150087 
L 326.498519 262.58148 
L 329.953424 262.147715 
L 331.105059 260.268062 
L 332.256694 257.768511 
L 333.408329 254.649063 
L 333.408329 254.649063 
" clip-path="url(#p69a0adae35)" style="fill: none; stroke: #2ca02c; stroke-width: 1.5; stroke-linecap: square"/>
   </g>
   <g id="patch_3">
    <path d="M 50.165625 319.048577 
L 50.165625 22.318125 
" style="fill: none; stroke: #000000; stroke-width: 0.8; stroke-linejoin: miter; stroke-linecap: square"/>
   </g>
   <g id="patch_4">
    <path d="M 346.896077 319.048577 
L 346.896077 22.318125 
" style="fill: none; stroke: #000000; stroke-width: 0.8; stroke-linejoin: miter; stroke-linecap: square"/>
   </g>
   <g id="patch_5">
    <path d="M 50.165625 319.048577 
L 346.896077 319.048577 
" style="fill: none; stroke: #000000; stroke-width: 0.8; stroke-linejoin: miter; stroke-linecap: square"/>
   </g>
   <g id="patch_6">
    <path d="M 50.165625 22.318125 
L 346.896077 22.318125 
" style="fill: none; stroke: #000000; stroke-width: 0.8; stroke-linejoin: miter; stroke-linecap: square"/>
   </g>
   <g id="text_15">
    <!-- Linear scale -->
    <g transform="translate(162.515851 16.318125) scale(0.12 -0.12)">
     <defs>
      <path id="DejaVuSans-4c" d="M 628 4666 
L 1259 4666 
L 1259 531 
L 3531 531 
L 3531 0 
L 628 0 
L 628 4666 
z
" transform="scale(0.015625)"/>
      <path id="DejaVuSans-69" d="M 603 3500 
L 1178 3500 
L 1178 0 
L 603 0 
L 603 3500 
z
M 603 4863 
L 1178 4863 
L 1178 4134 
L 603 4134 
L 603 4863 
z
" transform="scale(0.015625)"/>
      <path id="DejaVuSans-6e" d="M 3513 2113 
L 3513 0 
L 2938 0 
L 2938 2094 
Q 2938 2591 2744 2837 
Q 2550 3084 2163 3084 
Q 1697 3084 1428 2787 
Q 1159 2491 1159 1978 
L 1159 0 
L 581 0 
L 581 3500 
L 1159 3500 
L 1159 2956 
Q 1366 3272 1645 3428 
Q 1925 3584 2291 3584 
Q 2894 3584 3203 3211 
Q 3513 2838 3513 2113 
z
" transform="scale(0.015625)"/>
      <path id="DejaVuSans-61" d="M 2194 1759 
Q 1497 1759 1228 1600 
Q 959 1441 959 1056 
Q 959 750 1161 570 
Q 1363 391 1709 391 
Q 2188 391 2477 730 
Q 2766 1069 2766 1631 
L 2766 1759 
L 2194 1759 
z
M 3341 1997 
L 3341 0 
L 2766 0 
L 2766 531 
Q 2569 213 2275 61 
Q 1981 -91 1556 -91 
Q 1019 -91 701 211 
Q 384 513 384 1019 
Q 384 1609 779 1909 
Q 1175 2209 1959 2209 
L 2766 2209 
L 2766 2266 
Q 2766 2663 2505 2880 
Q 2244 3097 1772 3097 
Q 1472 3097 1187 3025 
Q 903 2953 641 2809 
L 641 3341 
Q 956 3463 1253 3523 
Q 1550 3584 1831 3584 
Q 2591 3584 2966 3190 
Q 3341 2797 3341 1997 
z
" transform="scale(0.015625)"/>
      <path id="DejaVuSans-72" d="M 2631 2963 
Q 2534 3019 2420 3045 
Q 2306 3072 2169 3072 
Q 1681 3072 1420 2755 
Q 1159 2438 1159 1844 
L 1159 0 
L 581 0 
L 581 3500 
L 1159 3500 
L 1159 2956 
Q 1341 3275 1631 3429 
Q 1922 3584 2338 3584 
Q 2397 3584 2469 3576 
Q 2541 3569 2628 3553 
L 2631 2963 
z
" transform="scale(0.015625)"/>
      <path id="DejaVuSans-20" transform="scale(0.015625)"/>
      <path id="DejaVuSans-73" d="M 2834 3397 
L 2834 2853 
Q 2591 2978 2328 3040 
Q 2066 3103 1784 3103 
Q 1356 3103 1142 2972 
Q 928 2841 928 2578 
Q 928 2378 1081 2264 
Q 1234 2150 1697 2047 
L 1894 2003 
Q 2506 1872 2764 1633 
Q 3022 1394 3022 966 
Q 3022 478 2636 193 
Q 2250 -91 1575 -91 
Q 1294 -91 989 -36 
Q 684 19 347 128 
L 347 722 
Q 666 556 975 473 
Q 1284 391 1588 391 
Q 1994 391 2212 530 
Q 2431 669 2431 922 
Q 2431 1156 2273 1281 
Q 2116 1406 1581 1522 
L 1381 1569 
Q 847 1681 609 1914 
Q 372 2147 372 2553 
Q 372 3047 722 3315 
Q 1072 3584 1716 3584 
Q 2034 3584 2315 3537 
Q 2597 3491 2834 3397 
z
" transform="scale(0.015625)"/>
      <path id="DejaVuSans-63" d="M 3122 3366 
L 3122 2828 
Q 2878 2963 2633 3030 
Q 2388 3097 2138 3097 
Q 1578 3097 1268 2742 
Q 959 2388 959 1747 
Q 959 1106 1268 751 
Q 1578 397 2138 397 
Q 2388 397 2633 464 
Q 2878 531 3122 666 
L 3122 134 
Q 2881 22 2623 -34 
Q 2366 -91 2075 -91 
Q 1284 -91 818 406 
Q 353 903 353 1747 
Q 353 2603 823 3093 
Q 1294 3584 2113 3584 
Q 2378 3584 2631 3529 
Q 2884 3475 3122 3366 
z
" transform="scale(0.015625)"/>
      <path id="DejaVuSans-6c" d="M 603 4863 
L 1178 4863 
L 1178 0 
L 603 0 
L 603 4863 
z
" transform="scale(0.015625)"/>
     </defs>
     <use xlink:href="#DejaVuSans-4c"/>
     <use xlink:href="#DejaVuSans-69" transform="translate(55.712891 0)"/>
     <use xlink:href="#DejaVuSans-6e" transform="translate(83.496094 0)"/>
     <use xlink:href="#DejaVuSans-65" transform="translate(146.875 0)"/>
     <use xlink:href="#DejaVuSans-61" transform="translate(208.398438 0)"/>
     <use xlink:href="#DejaVuSans-72" transform="translate(269.677734 0)"/>
     <use xlink:href="#DejaVuSans-20" transform="translate(310.791016 0)"/>
     <use xlink:href="#DejaVuSans-73" transform="translate(342.578125 0)"/>
     <use xlink:href="#DejaVuSans-63" transform="translate(394.677734 0)"/>
     <use xlink:href="#DejaVuSans-61" transform="translate(449.658203 0)"/>
     <use xlink:href="#DejaVuSans-6c" transform="translate(510.9375 0)"/>
     <use xlink:href="#DejaVuSans-65" transform="translate(538.720703 0)"/>
    </g>
   </g>
   <g id="legend_1">
    <g id="patch_7">
     <path d="M 293.396077 75.413437 
L 339.896077 75.413437 
Q 341.896077 75.413437 341.896077 73.413437 
L 341.896077 29.318125 
Q 341.896077 27.318125 339.896077 27.318125 
L 293.396077 27.318125 
Q 291.396077 27.318125 291.396077 29.318125 
L 291.396077 73.413437 
Q 291.396077 75.413437 293.396077 75.413437 
z
" style="fill: #ffffff; opacity: 0.8; stroke: #cccccc; stroke-linejoin: miter"/>
    </g>
    <g id="line2d_28">
     <path d="M 295.396077 35.416562 
L 305.396077 35.416562 
L 315.396077 35.416562 
" style="fill: none; stroke: #1f77b4; stroke-width: 1.5; stroke-linecap: square"/>
    </g>
    <g id="text_16">
     <!-- $\chi_0$ -->
     <g transform="translate(323.396077 38.916562) scale(0.1 -0.1)">
      <use xlink:href="#DejaVuSans-Oblique-3c7" transform="translate(0 0.265625)"/>
      <use xlink:href="#DejaVuSans-30" transform="translate(59.179688 -16.140625) scale(0.7)"/>
     </g>
    </g>
    <g id="line2d_29">
     <path d="M 295.396077 50.115 
L 305.396077 50.115 
L 315.396077 50.115 
" style="fill: none; stroke: #ff7f0e; stroke-width: 1.5; stroke-linecap: square"/>
    </g>
    <g id="text_17">
     <!-- $\chi_{ch}$ -->
     <g transform="translate(323.396077 53.615) scale(0.1 -0.1)">
      <defs>
       <path id="DejaVuSans-Oblique-63" d="M 3431 3366 
L 3316 2797 
Q 3109 2947 2876 3022 
Q 2644 3097 2394 3097 
Q 2119 3097 1870 3000 
Q 1622 2903 1453 2725 
Q 1184 2453 1037 2087 
Q 891 1722 891 1331 
Q 891 859 1127 628 
Q 1363 397 1844 397 
Q 2081 397 2348 469 
Q 2616 541 2906 684 
L 2797 116 
Q 2547 13 2283 -39 
Q 2019 -91 1741 -91 
Q 1044 -91 669 257 
Q 294 606 294 1253 
Q 294 1797 489 2255 
Q 684 2713 1069 3078 
Q 1331 3328 1684 3456 
Q 2038 3584 2456 3584 
Q 2700 3584 2940 3529 
Q 3181 3475 3431 3366 
z
" transform="scale(0.015625)"/>
       <path id="DejaVuSans-Oblique-68" d="M 3566 2113 
L 3156 0 
L 2578 0 
L 2988 2091 
Q 3016 2238 3031 2350 
Q 3047 2463 3047 2528 
Q 3047 2791 2881 2937 
Q 2716 3084 2419 3084 
Q 1956 3084 1617 2771 
Q 1278 2459 1178 1941 
L 800 0 
L 225 0 
L 1172 4863 
L 1747 4863 
L 1375 2950 
Q 1594 3244 1934 3414 
Q 2275 3584 2650 3584 
Q 3113 3584 3367 3334 
Q 3622 3084 3622 2631 
Q 3622 2519 3608 2391 
Q 3594 2263 3566 2113 
z
" transform="scale(0.015625)"/>
      </defs>
      <use xlink:href="#DejaVuSans-Oblique-3c7" transform="translate(0 0.265625)"/>
      <use xlink:href="#DejaVuSans-Oblique-63" transform="translate(59.179688 -16.140625) scale(0.7)"/>
      <use xlink:href="#DejaVuSans-Oblique-68" transform="translate(97.666016 -16.140625) scale(0.7)"/>
     </g>
    </g>
    <g id="line2d_30">
     <path d="M 295.396077 64.813437 
L 305.396077 64.813437 
L 315.396077 64.813437 
" style="fill: none; stroke: #2ca02c; stroke-width: 1.5; stroke-linecap: square"/>
    </g>
    <g id="text_18">
     <!-- $\chi_{sp}$ -->
     <g transform="translate(323.396077 68.313437) scale(0.1 -0.1)">
      <defs>
       <path id="DejaVuSans-Oblique-73" d="M 3200 3397 
L 3091 2853 
Q 2863 2978 2609 3040 
Q 2356 3103 2088 3103 
Q 1634 3103 1373 2948 
Q 1113 2794 1113 2528 
Q 1113 2219 1719 2053 
Q 1766 2041 1788 2034 
L 1972 1978 
Q 2547 1819 2739 1644 
Q 2931 1469 2931 1166 
Q 2931 609 2489 259 
Q 2047 -91 1331 -91 
Q 1053 -91 747 -37 
Q 441 16 72 128 
L 184 722 
Q 500 559 806 475 
Q 1113 391 1394 391 
Q 1816 391 2080 572 
Q 2344 753 2344 1031 
Q 2344 1331 1650 1516 
L 1591 1531 
L 1394 1581 
Q 956 1697 753 1886 
Q 550 2075 550 2369 
Q 550 2928 970 3256 
Q 1391 3584 2113 3584 
Q 2397 3584 2667 3537 
Q 2938 3491 3200 3397 
z
" transform="scale(0.015625)"/>
       <path id="DejaVuSans-Oblique-70" d="M 3175 2156 
Q 3175 2616 2975 2859 
Q 2775 3103 2400 3103 
Q 2144 3103 1911 2972 
Q 1678 2841 1497 2591 
Q 1319 2344 1212 1994 
Q 1106 1644 1106 1300 
Q 1106 863 1306 627 
Q 1506 391 1875 391 
Q 2147 391 2380 519 
Q 2613 647 2778 891 
Q 2956 1147 3065 1494 
Q 3175 1841 3175 2156 
z
M 1394 2969 
Q 1625 3272 1939 3428 
Q 2253 3584 2638 3584 
Q 3175 3584 3472 3232 
Q 3769 2881 3769 2247 
Q 3769 1728 3584 1258 
Q 3400 788 3053 416 
Q 2822 169 2531 39 
Q 2241 -91 1919 -91 
Q 1547 -91 1294 64 
Q 1041 219 916 525 
L 556 -1331 
L -19 -1331 
L 922 3500 
L 1497 3500 
L 1394 2969 
z
" transform="scale(0.015625)"/>
      </defs>
      <use xlink:href="#DejaVuSans-Oblique-3c7" transform="translate(0 0.265625)"/>
      <use xlink:href="#DejaVuSans-Oblique-73" transform="translate(59.179688 -16.140625) scale(0.7)"/>
      <use xlink:href="#DejaVuSans-Oblique-70" transform="translate(95.649414 -16.140625) scale(0.7)"/>
     </g>
    </g>
   </g>
  </g>
  <g id="axes_2">
   <g id="patch_8">
    <path d="M 405.555173 319.048577 
L 702.285625 319.048577 
L 702.285625 22.318125 
L 405.555173 22.318125 
z
" style="fill: #ffffff"/>
   </g>
   <g id="matplotlib.axis_3">
    <g id="xtick_5">
     <g id="line2d_31">
      <path d="M 419.042921 319.048577 
L 419.042921 22.318125 
" clip-path="url(#pf64b391569)" style="fill: none; stroke: #b0b0b0; stroke-width: 0.8; stroke-linecap: square"/>
     </g>
     <g id="line2d_32">
      <g>
       <use xlink:href="#mffc876fe0f" x="419.042921" y="319.048577" style="stroke: #000000; stroke-width: 0.8"/>
      </g>
     </g>
     <g id="text_19">
      <!-- $\Gamma$ -->
      <g transform="translate(416.242921 333.647014) scale(0.1 -0.1)">
       <use xlink:href="#DejaVuSans-393" transform="translate(0 0.09375)"/>
      </g>
     </g>
    </g>
    <g id="xtick_6">
     <g id="line2d_33">
      <path d="M 517.780088 319.048577 
L 517.780088 22.318125 
" clip-path="url(#pf64b391569)" style="fill: none; stroke: #b0b0b0; stroke-width: 0.8; stroke-linecap: square"/>
     </g>
     <g id="line2d_34">
      <g>
       <use xlink:href="#mffc876fe0f" x="517.780088" y="319.048577" style="stroke: #000000; stroke-width: 0.8"/>
      </g>
     </g>
     <g id="text_20">
      <!-- $M$ -->
      <g transform="translate(513.430088 333.647014) scale(0.1 -0.1)">
       <use xlink:href="#DejaVuSans-Oblique-4d" transform="translate(0 0.09375)"/>
      </g>
     </g>
    </g>
    <g id="xtick_7">
     <g id="line2d_35">
      <path d="M 574.786018 319.048577 
L 574.786018 22.318125 
" clip-path="url(#pf64b391569)" style="fill: none; stroke: #b0b0b0; stroke-width: 0.8; stroke-linecap: square"/>
     </g>
     <g id="line2d_36">
      <g>
       <use xlink:href="#mffc876fe0f" x="574.786018" y="319.048577" style="stroke: #000000; stroke-width: 0.8"/>
      </g>
     </g>
     <g id="text_21">
      <!-- $K$ -->
      <g transform="translate(571.486018 333.647014) scale(0.1 -0.1)">
       <use xlink:href="#DejaVuSans-Oblique-4b" transform="translate(0 0.09375)"/>
      </g>
     </g>
    </g>
    <g id="xtick_8">
     <g id="line2d_37">
      <path d="M 688.797877 319.048577 
L 688.797877 22.318125 
" clip-path="url(#pf64b391569)" style="fill: none; stroke: #b0b0b0; stroke-width: 0.8; stroke-linecap: square"/>
     </g>
     <g id="line2d_38">
      <g>
       <use xlink:href="#mffc876fe0f" x="688.797877" y="319.048577" style="stroke: #000000; stroke-width: 0.8"/>
      </g>
     </g>
     <g id="text_22">
      <!-- $\Gamma$ -->
      <g transform="translate(685.997877 333.647014) scale(0.1 -0.1)">
       <use xlink:href="#DejaVuSans-393" transform="translate(0 0.09375)"/>
      </g>
     </g>
    </g>
    <g id="text_23">
     <!-- $\mathbf{k}$ -->
     <g transform="translate(550.570399 347.325139) scale(0.1 -0.1)">
      <use xlink:href="#DejaVuSans-Bold-6b" transform="translate(0 0.015625)"/>
     </g>
    </g>
   </g>
   <g id="matplotlib.axis_4">
    <g id="ytick_9">
     <g id="line2d_39">
      <path d="M 405.555173 319.048577 
L 702.285625 319.048577 
" clip-path="url(#pf64b391569)" style="fill: none; stroke: #b0b0b0; stroke-width: 0.8; stroke-linecap: square"/>
     </g>
     <g id="line2d_40">
      <g>
       <use xlink:href="#m927a44fd29" x="405.555173" y="319.048577" style="stroke: #000000; stroke-width: 0.8"/>
      </g>
     </g>
     <g id="text_24">
      <!-- $\mathdefault{10^{-1}}$ -->
      <g transform="translate(375.055173 322.847796) scale(0.1 -0.1)">
       <defs>
        <path id="DejaVuSans-2212" d="M 678 2272 
L 4684 2272 
L 4684 1741 
L 678 1741 
L 678 2272 
z
" transform="scale(0.015625)"/>
       </defs>
       <use xlink:href="#DejaVuSans-31" transform="translate(0 0.684375)"/>
       <use xlink:href="#DejaVuSans-30" transform="translate(63.623047 0.684375)"/>
       <use xlink:href="#DejaVuSans-2212" transform="translate(128.203125 38.965625) scale(0.7)"/>
       <use xlink:href="#DejaVuSans-31" transform="translate(186.855469 38.965625) scale(0.7)"/>
      </g>
     </g>
    </g>
    <g id="ytick_10">
     <g id="line2d_41">
      <path d="M 405.555173 220.138426 
L 702.285625 220.138426 
" clip-path="url(#pf64b391569)" style="fill: none; stroke: #b0b0b0; stroke-width: 0.8; stroke-linecap: square"/>
     </g>
     <g id="line2d_42">
      <g>
       <use xlink:href="#m927a44fd29" x="405.555173" y="220.138426" style="stroke: #000000; stroke-width: 0.8"/>
      </g>
     </g>
     <g id="text_25">
      <!-- $\mathdefault{10^{0}}$ -->
      <g transform="translate(380.955173 223.937645) scale(0.1 -0.1)">
       <use xlink:href="#DejaVuSans-31" transform="translate(0 0.765625)"/>
       <use xlink:href="#DejaVuSans-30" transform="translate(63.623047 0.765625)"/>
       <use xlink:href="#DejaVuSans-30" transform="translate(128.203125 39.046875) scale(0.7)"/>
      </g>
     </g>
    </g>
    <g id="ytick_11">
     <g id="line2d_43">
      <path d="M 405.555173 121.228276 
L 702.285625 121.228276 
" clip-path="url(#pf64b391569)" style="fill: none; stroke: #b0b0b0; stroke-width: 0.8; stroke-linecap: square"/>
     </g>
     <g id="line2d_44">
      <g>
       <use xlink:href="#m927a44fd29" x="405.555173" y="121.228276" style="stroke: #000000; stroke-width: 0.8"/>
      </g>
     </g>
     <g id="text_26">
      <!-- $\mathdefault{10^{1}}$ -->
      <g transform="translate(380.955173 125.027494) scale(0.1 -0.1)">
       <use xlink:href="#DejaVuSans-31" transform="translate(0 0.684375)"/>
       <use xlink:href="#DejaVuSans-30" transform="translate(63.623047 0.684375)"/>
       <use xlink:href="#DejaVuSans-31" transform="translate(128.203125 38.965625) scale(0.7)"/>
      </g>
     </g>
    </g>
    <g id="ytick_12">
     <g id="line2d_45">
      <path d="M 405.555173 22.318125 
L 702.285625 22.318125 
" clip-path="url(#pf64b391569)" style="fill: none; stroke: #b0b0b0; stroke-width: 0.8; stroke-linecap: square"/>
     </g>
     <g id="line2d_46">
      <g>
       <use xlink:href="#m927a44fd29" x="405.555173" y="22.318125" style="stroke: #000000; stroke-width: 0.8"/>
      </g>
     </g>
     <g id="text_27">
      <!-- $\mathdefault{10^{2}}$ -->
      <g transform="translate(380.955173 26.117344) scale(0.1 -0.1)">
       <use xlink:href="#DejaVuSans-31" transform="translate(0 0.765625)"/>
       <use xlink:href="#DejaVuSans-30" transform="translate(63.623047 0.765625)"/>
       <use xlink:href="#DejaVuSans-32" transform="translate(128.203125 39.046875) scale(0.7)"/>
      </g>
     </g>
    </g>
    <g id="ytick_13">
     <g id="line2d_47">
      <defs>
       <path id="m7ed0335805" d="M 0 0 
L -2 0 
" style="stroke: #000000; stroke-width: 0.6"/>
      </defs>
      <g>
       <use xlink:href="#m7ed0335805" x="405.555173" y="289.273655" style="stroke: #000000; stroke-width: 0.6"/>
      </g>
     </g>
    </g>
    <g id="ytick_14">
     <g id="line2d_48">
      <g>
       <use xlink:href="#m7ed0335805" x="405.555173" y="271.856442" style="stroke: #000000; stroke-width: 0.6"/>
      </g>
     </g>
    </g>
    <g id="ytick_15">
     <g id="line2d_49">
      <g>
       <use xlink:href="#m7ed0335805" x="405.555173" y="259.498732" style="stroke: #000000; stroke-width: 0.6"/>
      </g>
     </g>
    </g>
    <g id="ytick_16">
     <g id="line2d_50">
      <g>
       <use xlink:href="#m7ed0335805" x="405.555173" y="249.913349" style="stroke: #000000; stroke-width: 0.6"/>
      </g>
     </g>
    </g>
    <g id="ytick_17">
     <g id="line2d_51">
      <g>
       <use xlink:href="#m7ed0335805" x="405.555173" y="242.08152" style="stroke: #000000; stroke-width: 0.6"/>
      </g>
     </g>
    </g>
    <g id="ytick_18">
     <g id="line2d_52">
      <g>
       <use xlink:href="#m7ed0335805" x="405.555173" y="235.459802" style="stroke: #000000; stroke-width: 0.6"/>
      </g>
     </g>
    </g>
    <g id="ytick_19">
     <g id="line2d_53">
      <g>
       <use xlink:href="#m7ed0335805" x="405.555173" y="229.72381" style="stroke: #000000; stroke-width: 0.6"/>
      </g>
     </g>
    </g>
    <g id="ytick_20">
     <g id="line2d_54">
      <g>
       <use xlink:href="#m7ed0335805" x="405.555173" y="224.664307" style="stroke: #000000; stroke-width: 0.6"/>
      </g>
     </g>
    </g>
    <g id="ytick_21">
     <g id="line2d_55">
      <g>
       <use xlink:href="#m7ed0335805" x="405.555173" y="190.363504" style="stroke: #000000; stroke-width: 0.6"/>
      </g>
     </g>
    </g>
    <g id="ytick_22">
     <g id="line2d_56">
      <g>
       <use xlink:href="#m7ed0335805" x="405.555173" y="172.946291" style="stroke: #000000; stroke-width: 0.6"/>
      </g>
     </g>
    </g>
    <g id="ytick_23">
     <g id="line2d_57">
      <g>
       <use xlink:href="#m7ed0335805" x="405.555173" y="160.588582" style="stroke: #000000; stroke-width: 0.6"/>
      </g>
     </g>
    </g>
    <g id="ytick_24">
     <g id="line2d_58">
      <g>
       <use xlink:href="#m7ed0335805" x="405.555173" y="151.003198" style="stroke: #000000; stroke-width: 0.6"/>
      </g>
     </g>
    </g>
    <g id="ytick_25">
     <g id="line2d_59">
      <g>
       <use xlink:href="#m7ed0335805" x="405.555173" y="143.171369" style="stroke: #000000; stroke-width: 0.6"/>
      </g>
     </g>
    </g>
    <g id="ytick_26">
     <g id="line2d_60">
      <g>
       <use xlink:href="#m7ed0335805" x="405.555173" y="136.549652" style="stroke: #000000; stroke-width: 0.6"/>
      </g>
     </g>
    </g>
    <g id="ytick_27">
     <g id="line2d_61">
      <g>
       <use xlink:href="#m7ed0335805" x="405.555173" y="130.81366" style="stroke: #000000; stroke-width: 0.6"/>
      </g>
     </g>
    </g>
    <g id="ytick_28">
     <g id="line2d_62">
      <g>
       <use xlink:href="#m7ed0335805" x="405.555173" y="125.754156" style="stroke: #000000; stroke-width: 0.6"/>
      </g>
     </g>
    </g>
    <g id="ytick_29">
     <g id="line2d_63">
      <g>
       <use xlink:href="#m7ed0335805" x="405.555173" y="91.453353" style="stroke: #000000; stroke-width: 0.6"/>
      </g>
     </g>
    </g>
    <g id="ytick_30">
     <g id="line2d_64">
      <g>
       <use xlink:href="#m7ed0335805" x="405.555173" y="74.03614" style="stroke: #000000; stroke-width: 0.6"/>
      </g>
     </g>
    </g>
    <g id="ytick_31">
     <g id="line2d_65">
      <g>
       <use xlink:href="#m7ed0335805" x="405.555173" y="61.678431" style="stroke: #000000; stroke-width: 0.6"/>
      </g>
     </g>
    </g>
    <g id="ytick_32">
     <g id="line2d_66">
      <g>
       <use xlink:href="#m7ed0335805" x="405.555173" y="52.093047" style="stroke: #000000; stroke-width: 0.6"/>
      </g>
     </g>
    </g>
    <g id="ytick_33">
     <g id="line2d_67">
      <g>
       <use xlink:href="#m7ed0335805" x="405.555173" y="44.261218" style="stroke: #000000; stroke-width: 0.6"/>
      </g>
     </g>
    </g>
    <g id="ytick_34">
     <g id="line2d_68">
      <g>
       <use xlink:href="#m7ed0335805" x="405.555173" y="37.639501" style="stroke: #000000; stroke-width: 0.6"/>
      </g>
     </g>
    </g>
    <g id="ytick_35">
     <g id="line2d_69">
      <g>
       <use xlink:href="#m7ed0335805" x="405.555173" y="31.903509" style="stroke: #000000; stroke-width: 0.6"/>
      </g>
     </g>
    </g>
    <g id="ytick_36">
     <g id="line2d_70">
      <g>
       <use xlink:href="#m7ed0335805" x="405.555173" y="26.844005" style="stroke: #000000; stroke-width: 0.6"/>
      </g>
     </g>
    </g>
    <g id="text_28">
     <!-- Re[$\chi(i\omega = 0, \mathbf{k}$] -->
     <g transform="translate(368.955173 206.833351) rotate(-90) scale(0.1 -0.1)">
      <use xlink:href="#DejaVuSans-52" transform="translate(0 0.015625)"/>
      <use xlink:href="#DejaVuSans-65" transform="translate(69.482422 0.015625)"/>
      <use xlink:href="#DejaVuSans-5b" transform="translate(131.005859 0.015625)"/>
      <use xlink:href="#DejaVuSans-Oblique-3c7" transform="translate(170.019531 0.015625)"/>
      <use xlink:href="#DejaVuSans-28" transform="translate(229.199219 0.015625)"/>
      <use xlink:href="#DejaVuSans-Oblique-69" transform="translate(268.212891 0.015625)"/>
      <use xlink:href="#DejaVuSans-Oblique-3c9" transform="translate(295.996094 0.015625)"/>
      <use xlink:href="#DejaVuSans-3d" transform="translate(399.21875 0.015625)"/>
      <use xlink:href="#DejaVuSans-30" transform="translate(502.490234 0.015625)"/>
      <use xlink:href="#DejaVuSans-2c" transform="translate(566.113281 0.015625)"/>
      <use xlink:href="#DejaVuSans-Bold-6b" transform="translate(617.382812 0.015625)"/>
      <use xlink:href="#DejaVuSans-5d" transform="translate(683.886719 0.015625)"/>
     </g>
    </g>
   </g>
   <g id="line2d_71">
    <path d="M 419.042921 225.799142 
L 421.037611 226.564542 
L 428.019027 226.799421 
L 431.011062 227.266804 
L 440.984514 229.235754 
L 444.973894 229.669297 
L 448.963274 229.892293 
L 452.952655 229.932567 
L 456.942035 229.808248 
L 461.928761 229.439979 
L 466.915487 228.840103 
L 471.902212 228.018445 
L 476.888938 226.976398 
L 481.875663 225.70311 
L 486.862389 224.210561 
L 493.843805 221.784554 
L 498.83053 220.050395 
L 501.822566 219.210982 
L 504.814601 218.647363 
L 507.806636 218.376053 
L 511.796017 218.350929 
L 517.780088 218.453244 
L 517.780088 218.453244 
L 519.50754 221.153784 
L 522.386627 228.915537 
L 523.538262 231.787761 
L 525.841532 236.653747 
L 527.568985 239.798564 
L 529.296437 242.586852 
L 531.02389 245.07944 
L 532.751342 247.33038 
L 535.630429 250.661393 
L 539.661152 254.455308 
L 543.116057 257.167048 
L 546.570961 259.446322 
L 550.601684 261.628738 
L 554.056588 263.172134 
L 557.511493 264.437108 
L 561.542216 265.585464 
L 564.421303 266.221916 
L 569.027843 266.89322 
L 572.482748 267.14685 
L 574.786018 267.212551 
L 574.786018 267.212551 
L 579.392557 266.997976 
L 582.847462 266.58179 
L 586.302367 265.92118 
L 589.757272 264.998843 
L 593.212177 263.795219 
L 596.667081 262.283087 
L 600.121986 260.416222 
L 603.576891 258.163687 
L 610.486701 253.062243 
L 612.789971 251.675184 
L 613.941606 251.058242 
L 616.244876 250.163489 
L 618.548145 249.47438 
L 623.154685 248.466146 
L 632.367765 246.573997 
L 639.277575 244.841042 
L 645.035749 243.076925 
L 648.490654 241.85818 
L 651.945559 240.499036 
L 655.400464 238.984899 
L 658.855369 237.30471 
L 662.310273 235.458823 
L 665.765178 233.475241 
L 672.674988 229.55184 
L 674.978258 228.495778 
L 677.281528 227.733595 
L 678.433163 227.445073 
L 681.888068 227.028383 
L 685.342972 226.954091 
L 687.646242 226.265447 
L 688.797877 225.799142 
L 688.797877 225.799142 
" clip-path="url(#pf64b391569)" style="fill: none; stroke: #1f77b4; stroke-width: 1.5; stroke-linecap: square"/>
   </g>
   <g id="line2d_72">
    <path d="M 419.042921 281.417858 
L 422.034956 281.633815 
L 429.016372 281.727805 
L 437.992478 282.248075 
L 444.973894 282.513297 
L 452.952655 282.590368 
L 460.931416 282.472803 
L 469.907522 282.138839 
L 479.880973 281.539028 
L 489.854424 280.722942 
L 501.822566 279.711275 
L 506.809291 279.524037 
L 513.790707 279.513347 
L 517.780088 279.527051 
L 517.780088 279.527051 
L 519.50754 280.195388 
L 527.568985 285.740244 
L 530.448072 287.333453 
L 534.478794 289.26163 
L 537.933699 290.693822 
L 541.964422 292.137185 
L 545.419326 293.20015 
L 548.874231 294.119053 
L 552.904954 295.027028 
L 556.935676 295.771447 
L 563.269668 296.60705 
L 567.30039 296.95609 
L 571.90693 297.169235 
L 577.089287 297.181222 
L 581.695827 296.989563 
L 586.302367 296.577526 
L 590.908907 295.94591 
L 595.515447 295.088116 
L 600.121986 293.969977 
L 605.880161 292.206488 
L 610.486701 290.756711 
L 613.941606 289.934533 
L 617.396511 289.421877 
L 623.154685 288.904946 
L 636.974305 287.753908 
L 645.035749 286.882732 
L 651.945559 285.971193 
L 658.855369 284.890341 
L 666.916813 283.455718 
L 673.826623 282.317072 
L 677.281528 281.957016 
L 680.736433 281.786522 
L 687.646242 281.547033 
L 688.797877 281.417858 
L 688.797877 281.417858 
" clip-path="url(#pf64b391569)" style="fill: none; stroke: #ff7f0e; stroke-width: 1.5; stroke-linecap: square"/>
   </g>
   <g id="line2d_73">
    <path d="M 419.042921 158.067579 
L 421.037611 161.643627 
L 422.034956 161.731106 
L 424.029646 161.737482 
L 425.026992 161.784853 
L 427.021682 162.241593 
L 429.016372 163.234872 
L 431.011062 164.738467 
L 437.992478 170.783635 
L 439.987168 172.076035 
L 441.981859 173.109468 
L 443.976549 173.90817 
L 446.968584 174.704092 
L 448.963274 175.018125 
L 450.957965 175.167569 
L 452.952655 175.162649 
L 454.947345 175.010452 
L 456.942035 174.715479 
L 458.936726 174.280027 
L 460.931416 173.704434 
L 462.926106 172.987217 
L 464.920796 172.125118 
L 466.915487 171.113069 
L 468.910177 169.944082 
L 471.902212 167.870235 
L 473.896902 166.258633 
L 475.891593 164.445197 
L 477.886283 162.409632 
L 479.880973 160.126813 
L 481.875663 157.565625 
L 482.873009 156.229504 
L 485.865044 151.445641 
L 486.862389 149.760904 
L 489.854424 143.635119 
L 490.851769 141.456538 
L 493.843805 133.624255 
L 495.838495 127.692812 
L 497.833185 121.221739 
L 502.819911 104.797907 
L 503.817256 102.090224 
L 504.814601 99.731026 
L 505.811946 97.784741 
L 506.809291 96.389854 
L 507.806636 95.307572 
L 508.803982 94.834484 
L 509.801327 94.52029 
L 511.796017 94.865991 
L 515.785397 96.368543 
L 517.780088 96.645032 
L 517.780088 96.645032 
L 518.355905 104.734655 
L 518.931723 114.755188 
L 519.50754 127.909924 
L 520.659175 145.693997 
L 521.234993 157.641882 
L 522.386627 169.995318 
L 522.962445 176.493912 
L 524.11408 184.871957 
L 524.689897 189.077116 
L 525.841532 195.22488 
L 526.993167 200.876768 
L 529.296437 209.432191 
L 530.448072 213.143733 
L 532.751342 219.144374 
L 534.478794 222.989438 
L 536.206247 226.367476 
L 538.509517 230.245423 
L 539.661152 231.985846 
L 542.540239 235.808736 
L 544.843509 238.367438 
L 547.722596 241.140389 
L 550.025866 243.070355 
L 554.056588 245.815011 
L 556.935676 247.436092 
L 560.966398 249.181845 
L 564.421303 250.307759 
L 568.452025 251.185272 
L 571.331113 251.574071 
L 574.786018 251.735518 
L 574.786018 251.735518 
L 578.240922 251.573189 
L 581.695827 251.083525 
L 585.150732 250.245344 
L 588.605637 249.028038 
L 592.060542 247.392944 
L 594.363812 246.024877 
L 596.667081 244.474684 
L 600.121986 241.615249 
L 603.576891 238.073306 
L 612.789971 227.184562 
L 613.941606 226.10101 
L 616.244876 224.482272 
L 617.396511 223.787139 
L 619.69978 222.710228 
L 623.154685 221.348922 
L 628.91286 219.17137 
L 633.5194 217.185727 
L 636.974305 215.489902 
L 640.429209 213.566441 
L 642.732479 212.168345 
L 647.339019 208.852844 
L 649.642289 207.020694 
L 654.248829 202.571827 
L 656.552099 200.080239 
L 660.007004 195.698974 
L 663.461908 190.567402 
L 666.916813 184.634684 
L 674.978258 169.757357 
L 677.281528 166.682286 
L 678.433163 165.500082 
L 680.736433 164.148823 
L 681.888068 163.714075 
L 685.342972 163.385359 
L 686.494607 161.989287 
L 687.646242 160.200414 
L 688.797877 158.067579 
L 688.797877 158.067579 
" clip-path="url(#pf64b391569)" style="fill: none; stroke: #2ca02c; stroke-width: 1.5; stroke-linecap: square"/>
   </g>
   <g id="line2d_74"/>
   <g id="patch_9">
    <path d="M 405.555173 319.048577 
L 405.555173 22.318125 
" style="fill: none; stroke: #000000; stroke-width: 0.8; stroke-linejoin: miter; stroke-linecap: square"/>
   </g>
   <g id="patch_10">
    <path d="M 702.285625 319.048577 
L 702.285625 22.318125 
" style="fill: none; stroke: #000000; stroke-width: 0.8; stroke-linejoin: miter; stroke-linecap: square"/>
   </g>
   <g id="patch_11">
    <path d="M 405.555173 319.048577 
L 702.285625 319.048577 
" style="fill: none; stroke: #000000; stroke-width: 0.8; stroke-linejoin: miter; stroke-linecap: square"/>
   </g>
   <g id="patch_12">
    <path d="M 405.555173 22.318125 
L 702.285625 22.318125 
" style="fill: none; stroke: #000000; stroke-width: 0.8; stroke-linejoin: miter; stroke-linecap: square"/>
   </g>
   <g id="text_29">
    <!-- Semilog y-axis -->
    <g transform="translate(510.222587 16.318125) scale(0.12 -0.12)">
     <defs>
      <path id="DejaVuSans-53" d="M 3425 4513 
L 3425 3897 
Q 3066 4069 2747 4153 
Q 2428 4238 2131 4238 
Q 1616 4238 1336 4038 
Q 1056 3838 1056 3469 
Q 1056 3159 1242 3001 
Q 1428 2844 1947 2747 
L 2328 2669 
Q 3034 2534 3370 2195 
Q 3706 1856 3706 1288 
Q 3706 609 3251 259 
Q 2797 -91 1919 -91 
Q 1588 -91 1214 -16 
Q 841 59 441 206 
L 441 856 
Q 825 641 1194 531 
Q 1563 422 1919 422 
Q 2459 422 2753 634 
Q 3047 847 3047 1241 
Q 3047 1584 2836 1778 
Q 2625 1972 2144 2069 
L 1759 2144 
Q 1053 2284 737 2584 
Q 422 2884 422 3419 
Q 422 4038 858 4394 
Q 1294 4750 2059 4750 
Q 2388 4750 2728 4690 
Q 3069 4631 3425 4513 
z
" transform="scale(0.015625)"/>
      <path id="DejaVuSans-6d" d="M 3328 2828 
Q 3544 3216 3844 3400 
Q 4144 3584 4550 3584 
Q 5097 3584 5394 3201 
Q 5691 2819 5691 2113 
L 5691 0 
L 5113 0 
L 5113 2094 
Q 5113 2597 4934 2840 
Q 4756 3084 4391 3084 
Q 3944 3084 3684 2787 
Q 3425 2491 3425 1978 
L 3425 0 
L 2847 0 
L 2847 2094 
Q 2847 2600 2669 2842 
Q 2491 3084 2119 3084 
Q 1678 3084 1418 2786 
Q 1159 2488 1159 1978 
L 1159 0 
L 581 0 
L 581 3500 
L 1159 3500 
L 1159 2956 
Q 1356 3278 1631 3431 
Q 1906 3584 2284 3584 
Q 2666 3584 2933 3390 
Q 3200 3197 3328 2828 
z
" transform="scale(0.015625)"/>
      <path id="DejaVuSans-6f" d="M 1959 3097 
Q 1497 3097 1228 2736 
Q 959 2375 959 1747 
Q 959 1119 1226 758 
Q 1494 397 1959 397 
Q 2419 397 2687 759 
Q 2956 1122 2956 1747 
Q 2956 2369 2687 2733 
Q 2419 3097 1959 3097 
z
M 1959 3584 
Q 2709 3584 3137 3096 
Q 3566 2609 3566 1747 
Q 3566 888 3137 398 
Q 2709 -91 1959 -91 
Q 1206 -91 779 398 
Q 353 888 353 1747 
Q 353 2609 779 3096 
Q 1206 3584 1959 3584 
z
" transform="scale(0.015625)"/>
      <path id="DejaVuSans-67" d="M 2906 1791 
Q 2906 2416 2648 2759 
Q 2391 3103 1925 3103 
Q 1463 3103 1205 2759 
Q 947 2416 947 1791 
Q 947 1169 1205 825 
Q 1463 481 1925 481 
Q 2391 481 2648 825 
Q 2906 1169 2906 1791 
z
M 3481 434 
Q 3481 -459 3084 -895 
Q 2688 -1331 1869 -1331 
Q 1566 -1331 1297 -1286 
Q 1028 -1241 775 -1147 
L 775 -588 
Q 1028 -725 1275 -790 
Q 1522 -856 1778 -856 
Q 2344 -856 2625 -561 
Q 2906 -266 2906 331 
L 2906 616 
Q 2728 306 2450 153 
Q 2172 0 1784 0 
Q 1141 0 747 490 
Q 353 981 353 1791 
Q 353 2603 747 3093 
Q 1141 3584 1784 3584 
Q 2172 3584 2450 3431 
Q 2728 3278 2906 2969 
L 2906 3500 
L 3481 3500 
L 3481 434 
z
" transform="scale(0.015625)"/>
      <path id="DejaVuSans-79" d="M 2059 -325 
Q 1816 -950 1584 -1140 
Q 1353 -1331 966 -1331 
L 506 -1331 
L 506 -850 
L 844 -850 
Q 1081 -850 1212 -737 
Q 1344 -625 1503 -206 
L 1606 56 
L 191 3500 
L 800 3500 
L 1894 763 
L 2988 3500 
L 3597 3500 
L 2059 -325 
z
" transform="scale(0.015625)"/>
      <path id="DejaVuSans-2d" d="M 313 2009 
L 1997 2009 
L 1997 1497 
L 313 1497 
L 313 2009 
z
" transform="scale(0.015625)"/>
      <path id="DejaVuSans-78" d="M 3513 3500 
L 2247 1797 
L 3578 0 
L 2900 0 
L 1881 1375 
L 863 0 
L 184 0 
L 1544 1831 
L 300 3500 
L 978 3500 
L 1906 2253 
L 2834 3500 
L 3513 3500 
z
" transform="scale(0.015625)"/>
     </defs>
     <use xlink:href="#DejaVuSans-53"/>
     <use xlink:href="#DejaVuSans-65" transform="translate(63.476562 0)"/>
     <use xlink:href="#DejaVuSans-6d" transform="translate(125 0)"/>
     <use xlink:href="#DejaVuSans-69" transform="translate(222.412109 0)"/>
     <use xlink:href="#DejaVuSans-6c" transform="translate(250.195312 0)"/>
     <use xlink:href="#DejaVuSans-6f" transform="translate(277.978516 0)"/>
     <use xlink:href="#DejaVuSans-67" transform="translate(339.160156 0)"/>
     <use xlink:href="#DejaVuSans-20" transform="translate(402.636719 0)"/>
     <use xlink:href="#DejaVuSans-79" transform="translate(434.423828 0)"/>
     <use xlink:href="#DejaVuSans-2d" transform="translate(491.853516 0)"/>
     <use xlink:href="#DejaVuSans-61" transform="translate(527.9375 0)"/>
     <use xlink:href="#DejaVuSans-78" transform="translate(589.216797 0)"/>
     <use xlink:href="#DejaVuSans-69" transform="translate(648.396484 0)"/>
     <use xlink:href="#DejaVuSans-73" transform="translate(676.179688 0)"/>
    </g>
   </g>
   <g id="legend_2">
    <g id="patch_13">
     <path d="M 648.785625 75.413437 
L 695.285625 75.413437 
Q 697.285625 75.413437 697.285625 73.413437 
L 697.285625 29.318125 
Q 697.285625 27.318125 695.285625 27.318125 
L 648.785625 27.318125 
Q 646.785625 27.318125 646.785625 29.318125 
L 646.785625 73.413437 
Q 646.785625 75.413437 648.785625 75.413437 
z
" style="fill: #ffffff; opacity: 0.8; stroke: #cccccc; stroke-linejoin: miter"/>
    </g>
    <g id="line2d_75">
     <path d="M 650.785625 35.416562 
L 660.785625 35.416562 
L 670.785625 35.416562 
" style="fill: none; stroke: #1f77b4; stroke-width: 1.5; stroke-linecap: square"/>
    </g>
    <g id="text_30">
     <!-- $\chi_0$ -->
     <g transform="translate(678.785625 38.916562) scale(0.1 -0.1)">
      <use xlink:href="#DejaVuSans-Oblique-3c7" transform="translate(0 0.265625)"/>
      <use xlink:href="#DejaVuSans-30" transform="translate(59.179688 -16.140625) scale(0.7)"/>
     </g>
    </g>
    <g id="line2d_76">
     <path d="M 650.785625 50.115 
L 660.785625 50.115 
L 670.785625 50.115 
" style="fill: none; stroke: #ff7f0e; stroke-width: 1.5; stroke-linecap: square"/>
    </g>
    <g id="text_31">
     <!-- $\chi_{ch}$ -->
     <g transform="translate(678.785625 53.615) scale(0.1 -0.1)">
      <use xlink:href="#DejaVuSans-Oblique-3c7" transform="translate(0 0.265625)"/>
      <use xlink:href="#DejaVuSans-Oblique-63" transform="translate(59.179688 -16.140625) scale(0.7)"/>
      <use xlink:href="#DejaVuSans-Oblique-68" transform="translate(97.666016 -16.140625) scale(0.7)"/>
     </g>
    </g>
    <g id="line2d_77">
     <path d="M 650.785625 64.813437 
L 660.785625 64.813437 
L 670.785625 64.813437 
" style="fill: none; stroke: #2ca02c; stroke-width: 1.5; stroke-linecap: square"/>
    </g>
    <g id="text_32">
     <!-- $\chi_{sp}$ -->
     <g transform="translate(678.785625 68.313437) scale(0.1 -0.1)">
      <use xlink:href="#DejaVuSans-Oblique-3c7" transform="translate(0 0.265625)"/>
      <use xlink:href="#DejaVuSans-Oblique-73" transform="translate(59.179688 -16.140625) scale(0.7)"/>
      <use xlink:href="#DejaVuSans-Oblique-70" transform="translate(95.649414 -16.140625) scale(0.7)"/>
     </g>
    </g>
   </g>
  </g>
 </g>
 <defs>
  <clipPath id="p69a0adae35">
   <rect x="50.165625" y="22.318125" width="296.730452" height="296.730452"/>
  </clipPath>
  <clipPath id="pf64b391569">
   <rect x="405.555173" y="22.318125" width="296.730452" height="296.730452"/>
  </clipPath>
 </defs>
</svg>
