<?xml version="1.0" encoding="utf-8" standalone="no"?>
<!DOCTYPE svg PUBLIC "-//W3C//DTD SVG 1.1//EN"
  "http://www.w3.org/Graphics/SVG/1.1/DTD/svg11.dtd">
<svg xmlns:xlink="http://www.w3.org/1999/xlink" width="712.718125pt" height="335.471154pt" viewBox="0 0 712.718125 335.471154" xmlns="http://www.w3.org/2000/svg" version="1.1">
 <metadata>
  <rdf:RDF xmlns:dc="http://purl.org/dc/elements/1.1/" xmlns:cc="http://creativecommons.org/ns#" xmlns:rdf="http://www.w3.org/1999/02/22-rdf-syntax-ns#">
   <cc:Work>
    <dc:type rdf:resource="http://purl.org/dc/dcmitype/StillImage"/>
    <dc:date>2025-04-09T11:48:26.109401</dc:date>
    <dc:format>image/svg+xml</dc:format>
    <dc:creator>
     <cc:Agent>
      <dc:title>Matplotlib v3.6.3, https://matplotlib.org/</dc:title>
     </cc:Agent>
    </dc:creator>
   </cc:Work>
  </rdf:RDF>
 </metadata>
 <defs>
  <style type="text/css">*{stroke-linejoin: round; stroke-linecap: butt}</style>
 </defs>
 <g id="figure_1">
  <g id="patch_1">
   <path d="M 0 335.471154 
L 712.718125 335.471154 
L 712.718125 0 
L 0 0 
z
" style="fill: #ffffff"/>
  </g>
  <g id="axes_1">
   <g id="patch_2">
    <path d="M 42.828125 297.914904 
L 318.424904 297.914904 
L 318.424904 22.318125 
L 42.828125 22.318125 
z
" style="fill: #ffffff"/>
   </g>
   <g id="matplotlib.axis_1">
    <g id="xtick_1">
     <g id="line2d_1">
      <path d="M 55.355251 297.914904 
L 55.355251 22.318125 
" clip-path="url(#p7ca1cba6f8)" style="fill: none; stroke: #b0b0b0; stroke-width: 0.8; stroke-linecap: square"/>
     </g>
     <g id="line2d_2">
      <defs>
       <path id="mbfbb52d9b5" d="M 0 0 
L 0 3.5 
" style="stroke: #000000; stroke-width: 0.8"/>
      </defs>
      <g>
       <use xlink:href="#mbfbb52d9b5" x="55.355251" y="297.914904" style="stroke: #000000; stroke-width: 0.8"/>
      </g>
     </g>
     <g id="text_1">
      <!-- $\Gamma$ -->
      <g transform="translate(52.555251 312.513342) scale(0.1 -0.1)">
       <defs>
        <path id="DejaVuSans-393" d="M 628 0 
L 628 4666 
L 3531 4666 
L 3531 4134 
L 1259 4134 
L 1259 0 
L 628 0 
z
" transform="scale(0.015625)"/>
       </defs>
       <use xlink:href="#DejaVuSans-393" transform="translate(0 0.09375)"/>
      </g>
     </g>
    </g>
    <g id="xtick_2">
     <g id="line2d_3">
      <path d="M 147.060181 297.914904 
L 147.060181 22.318125 
" clip-path="url(#p7ca1cba6f8)" style="fill: none; stroke: #b0b0b0; stroke-width: 0.8; stroke-linecap: square"/>
     </g>
     <g id="line2d_4">
      <g>
       <use xlink:href="#mbfbb52d9b5" x="147.060181" y="297.914904" style="stroke: #000000; stroke-width: 0.8"/>
      </g>
     </g>
     <g id="text_2">
      <!-- $M$ -->
      <g transform="translate(142.710181 312.513342) scale(0.1 -0.1)">
       <defs>
        <path id="DejaVuSans-Oblique-4d" d="M 1081 4666 
L 2028 4666 
L 2572 1522 
L 4378 4666 
L 5350 4666 
L 4441 0 
L 3828 0 
L 4622 4091 
L 2791 897 
L 2175 897 
L 1581 4103 
L 788 0 
L 172 0 
L 1081 4666 
z
" transform="scale(0.015625)"/>
       </defs>
       <use xlink:href="#DejaVuSans-Oblique-4d" transform="translate(0 0.09375)"/>
      </g>
     </g>
    </g>
    <g id="xtick_3">
     <g id="line2d_5">
      <path d="M 200.006047 297.914904 
L 200.006047 22.318125 
" clip-path="url(#p7ca1cba6f8)" style="fill: none; stroke: #b0b0b0; stroke-width: 0.8; stroke-linecap: square"/>
     </g>
     <g id="line2d_6">
      <g>
       <use xlink:href="#mbfbb52d9b5" x="200.006047" y="297.914904" style="stroke: #000000; stroke-width: 0.8"/>
      </g>
     </g>
     <g id="text_3">
      <!-- $K$ -->
      <g transform="translate(196.706047 312.513342) scale(0.1 -0.1)">
       <defs>
        <path id="DejaVuSans-Oblique-4b" d="M 1081 4666 
L 1716 4666 
L 1331 2700 
L 3781 4666 
L 4622 4666 
L 1850 2438 
L 3878 0 
L 3109 0 
L 1247 2272 
L 806 0 
L 172 0 
L 1081 4666 
z
" transform="scale(0.015625)"/>
       </defs>
       <use xlink:href="#DejaVuSans-Oblique-4b" transform="translate(0 0.09375)"/>
      </g>
     </g>
    </g>
    <g id="xtick_4">
     <g id="line2d_7">
      <path d="M 305.897778 297.914904 
L 305.897778 22.318125 
" clip-path="url(#p7ca1cba6f8)" style="fill: none; stroke: #b0b0b0; stroke-width: 0.8; stroke-linecap: square"/>
     </g>
     <g id="line2d_8">
      <g>
       <use xlink:href="#mbfbb52d9b5" x="305.897778" y="297.914904" style="stroke: #000000; stroke-width: 0.8"/>
      </g>
     </g>
     <g id="text_4">
      <!-- $\Gamma$ -->
      <g transform="translate(303.097778 312.513342) scale(0.1 -0.1)">
       <use xlink:href="#DejaVuSans-393" transform="translate(0 0.09375)"/>
      </g>
     </g>
    </g>
    <g id="text_5">
     <!-- $\mathbf{k}$ -->
     <g transform="translate(177.276515 326.191467) scale(0.1 -0.1)">
      <defs>
       <path id="DejaVuSans-Bold-6b" d="M 538 4863 
L 1656 4863 
L 1656 2216 
L 2944 3500 
L 4244 3500 
L 2534 1894 
L 4378 0 
L 3022 0 
L 1656 1459 
L 1656 0 
L 538 0 
L 538 4863 
z
" transform="scale(0.015625)"/>
      </defs>
      <use xlink:href="#DejaVuSans-Bold-6b" transform="translate(0 0.015625)"/>
     </g>
    </g>
   </g>
   <g id="matplotlib.axis_2">
    <g id="ytick_1">
     <g id="line2d_9">
      <path d="M 42.828125 283.768641 
L 318.424904 283.768641 
" clip-path="url(#p7ca1cba6f8)" style="fill: none; stroke: #b0b0b0; stroke-width: 0.8; stroke-linecap: square"/>
     </g>
     <g id="line2d_10">
      <defs>
       <path id="m569e84c86f" d="M 0 0 
L -3.5 0 
" style="stroke: #000000; stroke-width: 0.8"/>
      </defs>
      <g>
       <use xlink:href="#m569e84c86f" x="42.828125" y="283.768641" style="stroke: #000000; stroke-width: 0.8"/>
      </g>
     </g>
     <g id="text_6">
      <!-- 0.200 -->
      <g transform="translate(7.2 287.56786) scale(0.1 -0.1)">
       <defs>
        <path id="DejaVuSans-30" d="M 2034 4250 
Q 1547 4250 1301 3770 
Q 1056 3291 1056 2328 
Q 1056 1369 1301 889 
Q 1547 409 2034 409 
Q 2525 409 2770 889 
Q 3016 1369 3016 2328 
Q 3016 3291 2770 3770 
Q 2525 4250 2034 4250 
z
M 2034 4750 
Q 2819 4750 3233 4129 
Q 3647 3509 3647 2328 
Q 3647 1150 3233 529 
Q 2819 -91 2034 -91 
Q 1250 -91 836 529 
Q 422 1150 422 2328 
Q 422 3509 836 4129 
Q 1250 4750 2034 4750 
z
" transform="scale(0.015625)"/>
        <path id="DejaVuSans-2e" d="M 684 794 
L 1344 794 
L 1344 0 
L 684 0 
L 684 794 
z
" transform="scale(0.015625)"/>
        <path id="DejaVuSans-32" d="M 1228 531 
L 3431 531 
L 3431 0 
L 469 0 
L 469 531 
Q 828 903 1448 1529 
Q 2069 2156 2228 2338 
Q 2531 2678 2651 2914 
Q 2772 3150 2772 3378 
Q 2772 3750 2511 3984 
Q 2250 4219 1831 4219 
Q 1534 4219 1204 4116 
Q 875 4013 500 3803 
L 500 4441 
Q 881 4594 1212 4672 
Q 1544 4750 1819 4750 
Q 2544 4750 2975 4387 
Q 3406 4025 3406 3419 
Q 3406 3131 3298 2873 
Q 3191 2616 2906 2266 
Q 2828 2175 2409 1742 
Q 1991 1309 1228 531 
z
" transform="scale(0.015625)"/>
       </defs>
       <use xlink:href="#DejaVuSans-30"/>
       <use xlink:href="#DejaVuSans-2e" x="63.623047"/>
       <use xlink:href="#DejaVuSans-32" x="95.410156"/>
       <use xlink:href="#DejaVuSans-30" x="159.033203"/>
       <use xlink:href="#DejaVuSans-30" x="222.65625"/>
      </g>
     </g>
    </g>
    <g id="ytick_2">
     <g id="line2d_11">
      <path d="M 42.828125 247.676599 
L 318.424904 247.676599 
" clip-path="url(#p7ca1cba6f8)" style="fill: none; stroke: #b0b0b0; stroke-width: 0.8; stroke-linecap: square"/>
     </g>
     <g id="line2d_12">
      <g>
       <use xlink:href="#m569e84c86f" x="42.828125" y="247.676599" style="stroke: #000000; stroke-width: 0.8"/>
      </g>
     </g>
     <g id="text_7">
      <!-- 0.225 -->
      <g transform="translate(7.2 251.475817) scale(0.1 -0.1)">
       <defs>
        <path id="DejaVuSans-35" d="M 691 4666 
L 3169 4666 
L 3169 4134 
L 1269 4134 
L 1269 2991 
Q 1406 3038 1543 3061 
Q 1681 3084 1819 3084 
Q 2600 3084 3056 2656 
Q 3513 2228 3513 1497 
Q 3513 744 3044 326 
Q 2575 -91 1722 -91 
Q 1428 -91 1123 -41 
Q 819 9 494 109 
L 494 744 
Q 775 591 1075 516 
Q 1375 441 1709 441 
Q 2250 441 2565 725 
Q 2881 1009 2881 1497 
Q 2881 1984 2565 2268 
Q 2250 2553 1709 2553 
Q 1456 2553 1204 2497 
Q 953 2441 691 2322 
L 691 4666 
z
" transform="scale(0.015625)"/>
       </defs>
       <use xlink:href="#DejaVuSans-30"/>
       <use xlink:href="#DejaVuSans-2e" x="63.623047"/>
       <use xlink:href="#DejaVuSans-32" x="95.410156"/>
       <use xlink:href="#DejaVuSans-32" x="159.033203"/>
       <use xlink:href="#DejaVuSans-35" x="222.65625"/>
      </g>
     </g>
    </g>
    <g id="ytick_3">
     <g id="line2d_13">
      <path d="M 42.828125 211.584557 
L 318.424904 211.584557 
" clip-path="url(#p7ca1cba6f8)" style="fill: none; stroke: #b0b0b0; stroke-width: 0.8; stroke-linecap: square"/>
     </g>
     <g id="line2d_14">
      <g>
       <use xlink:href="#m569e84c86f" x="42.828125" y="211.584557" style="stroke: #000000; stroke-width: 0.8"/>
      </g>
     </g>
     <g id="text_8">
      <!-- 0.250 -->
      <g transform="translate(7.2 215.383775) scale(0.1 -0.1)">
       <use xlink:href="#DejaVuSans-30"/>
       <use xlink:href="#DejaVuSans-2e" x="63.623047"/>
       <use xlink:href="#DejaVuSans-32" x="95.410156"/>
       <use xlink:href="#DejaVuSans-35" x="159.033203"/>
       <use xlink:href="#DejaVuSans-30" x="222.65625"/>
      </g>
     </g>
    </g>
    <g id="ytick_4">
     <g id="line2d_15">
      <path d="M 42.828125 175.492514 
L 318.424904 175.492514 
" clip-path="url(#p7ca1cba6f8)" style="fill: none; stroke: #b0b0b0; stroke-width: 0.8; stroke-linecap: square"/>
     </g>
     <g id="line2d_16">
      <g>
       <use xlink:href="#m569e84c86f" x="42.828125" y="175.492514" style="stroke: #000000; stroke-width: 0.8"/>
      </g>
     </g>
     <g id="text_9">
      <!-- 0.275 -->
      <g transform="translate(7.2 179.291733) scale(0.1 -0.1)">
       <defs>
        <path id="DejaVuSans-37" d="M 525 4666 
L 3525 4666 
L 3525 4397 
L 1831 0 
L 1172 0 
L 2766 4134 
L 525 4134 
L 525 4666 
z
" transform="scale(0.015625)"/>
       </defs>
       <use xlink:href="#DejaVuSans-30"/>
       <use xlink:href="#DejaVuSans-2e" x="63.623047"/>
       <use xlink:href="#DejaVuSans-32" x="95.410156"/>
       <use xlink:href="#DejaVuSans-37" x="159.033203"/>
       <use xlink:href="#DejaVuSans-35" x="222.65625"/>
      </g>
     </g>
    </g>
    <g id="ytick_5">
     <g id="line2d_17">
      <path d="M 42.828125 139.400472 
L 318.424904 139.400472 
" clip-path="url(#p7ca1cba6f8)" style="fill: none; stroke: #b0b0b0; stroke-width: 0.8; stroke-linecap: square"/>
     </g>
     <g id="line2d_18">
      <g>
       <use xlink:href="#m569e84c86f" x="42.828125" y="139.400472" style="stroke: #000000; stroke-width: 0.8"/>
      </g>
     </g>
     <g id="text_10">
      <!-- 0.300 -->
      <g transform="translate(7.2 143.199691) scale(0.1 -0.1)">
       <defs>
        <path id="DejaVuSans-33" d="M 2597 2516 
Q 3050 2419 3304 2112 
Q 3559 1806 3559 1356 
Q 3559 666 3084 287 
Q 2609 -91 1734 -91 
Q 1441 -91 1130 -33 
Q 819 25 488 141 
L 488 750 
Q 750 597 1062 519 
Q 1375 441 1716 441 
Q 2309 441 2620 675 
Q 2931 909 2931 1356 
Q 2931 1769 2642 2001 
Q 2353 2234 1838 2234 
L 1294 2234 
L 1294 2753 
L 1863 2753 
Q 2328 2753 2575 2939 
Q 2822 3125 2822 3475 
Q 2822 3834 2567 4026 
Q 2313 4219 1838 4219 
Q 1578 4219 1281 4162 
Q 984 4106 628 3988 
L 628 4550 
Q 988 4650 1302 4700 
Q 1616 4750 1894 4750 
Q 2613 4750 3031 4423 
Q 3450 4097 3450 3541 
Q 3450 3153 3228 2886 
Q 3006 2619 2597 2516 
z
" transform="scale(0.015625)"/>
       </defs>
       <use xlink:href="#DejaVuSans-30"/>
       <use xlink:href="#DejaVuSans-2e" x="63.623047"/>
       <use xlink:href="#DejaVuSans-33" x="95.410156"/>
       <use xlink:href="#DejaVuSans-30" x="159.033203"/>
       <use xlink:href="#DejaVuSans-30" x="222.65625"/>
      </g>
     </g>
    </g>
    <g id="ytick_6">
     <g id="line2d_19">
      <path d="M 42.828125 103.30843 
L 318.424904 103.30843 
" clip-path="url(#p7ca1cba6f8)" style="fill: none; stroke: #b0b0b0; stroke-width: 0.8; stroke-linecap: square"/>
     </g>
     <g id="line2d_20">
      <g>
       <use xlink:href="#m569e84c86f" x="42.828125" y="103.30843" style="stroke: #000000; stroke-width: 0.8"/>
      </g>
     </g>
     <g id="text_11">
      <!-- 0.325 -->
      <g transform="translate(7.2 107.107649) scale(0.1 -0.1)">
       <use xlink:href="#DejaVuSans-30"/>
       <use xlink:href="#DejaVuSans-2e" x="63.623047"/>
       <use xlink:href="#DejaVuSans-33" x="95.410156"/>
       <use xlink:href="#DejaVuSans-32" x="159.033203"/>
       <use xlink:href="#DejaVuSans-35" x="222.65625"/>
      </g>
     </g>
    </g>
    <g id="ytick_7">
     <g id="line2d_21">
      <path d="M 42.828125 67.216388 
L 318.424904 67.216388 
" clip-path="url(#p7ca1cba6f8)" style="fill: none; stroke: #b0b0b0; stroke-width: 0.8; stroke-linecap: square"/>
     </g>
     <g id="line2d_22">
      <g>
       <use xlink:href="#m569e84c86f" x="42.828125" y="67.216388" style="stroke: #000000; stroke-width: 0.8"/>
      </g>
     </g>
     <g id="text_12">
      <!-- 0.350 -->
      <g transform="translate(7.2 71.015607) scale(0.1 -0.1)">
       <use xlink:href="#DejaVuSans-30"/>
       <use xlink:href="#DejaVuSans-2e" x="63.623047"/>
       <use xlink:href="#DejaVuSans-33" x="95.410156"/>
       <use xlink:href="#DejaVuSans-35" x="159.033203"/>
       <use xlink:href="#DejaVuSans-30" x="222.65625"/>
      </g>
     </g>
    </g>
    <g id="ytick_8">
     <g id="line2d_23">
      <path d="M 42.828125 31.124346 
L 318.424904 31.124346 
" clip-path="url(#p7ca1cba6f8)" style="fill: none; stroke: #b0b0b0; stroke-width: 0.8; stroke-linecap: square"/>
     </g>
     <g id="line2d_24">
      <g>
       <use xlink:href="#m569e84c86f" x="42.828125" y="31.124346" style="stroke: #000000; stroke-width: 0.8"/>
      </g>
     </g>
     <g id="text_13">
      <!-- 0.375 -->
      <g transform="translate(7.2 34.923565) scale(0.1 -0.1)">
       <use xlink:href="#DejaVuSans-30"/>
       <use xlink:href="#DejaVuSans-2e" x="63.623047"/>
       <use xlink:href="#DejaVuSans-33" x="95.410156"/>
       <use xlink:href="#DejaVuSans-37" x="159.033203"/>
       <use xlink:href="#DejaVuSans-35" x="222.65625"/>
      </g>
     </g>
    </g>
   </g>
   <g id="line2d_25">
    <path d="M 55.355251 165.706778 
L 56.281564 166.428614 
L 57.207876 166.920912 
L 59.986813 167.714174 
L 60.913126 167.640226 
L 63.692063 167.699744 
L 75.734125 167.467397 
L 89.628811 166.95342 
L 102.597185 166.235476 
L 115.565559 165.283478 
L 127.60762 164.185053 
L 140.575994 162.764755 
L 147.594988 161.99843 
L 158.291122 162.647118 
L 168.987257 163.02753 
L 177.544164 163.133153 
L 179.683391 162.966046 
L 180.753004 162.775273 
L 182.892231 163.101091 
L 184.496652 162.73428 
L 186.635878 163.010537 
L 189.844719 163.006094 
L 201.07566 162.721485 
L 217.119862 164.162677 
L 232.09445 165.282795 
L 248.138652 166.243188 
L 264.182853 166.965701 
L 280.227055 167.451946 
L 295.201643 167.697564 
L 301.619324 167.330271 
L 302.688938 167.061095 
L 305.897778 165.706778 
L 305.897778 165.706778 
" clip-path="url(#p7ca1cba6f8)" style="fill: none; stroke: #1f77b4; stroke-width: 1.5; stroke-linecap: square"/>
   </g>
   <g id="line2d_26">
    <path d="M 55.355251 284.3793 
L 57.207876 284.98897 
L 59.986813 285.387778 
L 62.765751 285.385517 
L 81.291999 285.175503 
L 98.891935 284.759374 
L 116.491871 284.128363 
L 134.091807 283.276606 
L 148.664601 282.561682 
L 162.034769 282.929107 
L 176.474551 283.092687 
L 179.683391 283.007116 
L 181.287811 282.950077 
L 182.892231 283.0746 
L 184.496652 282.891306 
L 187.705492 283.044355 
L 195.727593 282.927686 
L 201.07566 282.884915 
L 223.537542 283.859141 
L 244.929811 284.561587 
L 267.391694 285.06969 
L 289.853576 285.347141 
L 297.34087 285.320241 
L 302.688938 285.059484 
L 305.897778 284.3793 
L 305.897778 284.3793 
" clip-path="url(#p7ca1cba6f8)" style="fill: none; stroke: #ff7f0e; stroke-width: 1.5; stroke-linecap: square"/>
   </g>
   <g id="line2d_27">
    <path d="M 55.355251 41.25586 
L 56.281564 42.48566 
L 57.207876 43.324394 
L 59.060501 44.169513 
L 59.986813 44.674192 
L 60.913126 44.548403 
L 62.765751 44.66658 
L 72.955187 44.373669 
L 83.144624 43.841748 
L 92.407748 43.14974 
L 101.670872 42.25674 
L 110.933996 41.159557 
L 120.197121 39.855487 
L 129.460245 38.336697 
L 139.649681 36.412297 
L 147.594988 34.913753 
L 155.617088 35.788624 
L 162.569576 36.338554 
L 170.05687 36.717808 
L 177.009357 36.868238 
L 179.148584 36.734858 
L 180.753004 36.245253 
L 181.822618 36.602586 
L 182.357425 36.815764 
L 182.892231 36.803198 
L 184.496652 36.175046 
L 186.635878 36.648186 
L 188.775105 36.680352 
L 194.123173 36.404941 
L 200.006047 35.97309 
L 200.006047 35.97309 
L 211.771794 37.847023 
L 223.537542 39.484782 
L 235.30329 40.892301 
L 247.069038 42.074376 
L 258.834786 43.035676 
L 271.670148 43.836831 
L 283.435896 44.347606 
L 295.201643 44.645965 
L 301.619324 44.021127 
L 302.688938 43.562794 
L 304.828165 42.089087 
L 305.897778 41.25586 
L 305.897778 41.25586 
" clip-path="url(#p7ca1cba6f8)" style="fill: none; stroke: #2ca02c; stroke-width: 1.5; stroke-linecap: square"/>
   </g>
   <g id="patch_3">
    <path d="M 42.828125 297.914904 
L 42.828125 22.318125 
" style="fill: none; stroke: #000000; stroke-width: 0.8; stroke-linejoin: miter; stroke-linecap: square"/>
   </g>
   <g id="patch_4">
    <path d="M 318.424904 297.914904 
L 318.424904 22.318125 
" style="fill: none; stroke: #000000; stroke-width: 0.8; stroke-linejoin: miter; stroke-linecap: square"/>
   </g>
   <g id="patch_5">
    <path d="M 42.828125 297.914904 
L 318.424904 297.914904 
" style="fill: none; stroke: #000000; stroke-width: 0.8; stroke-linejoin: miter; stroke-linecap: square"/>
   </g>
   <g id="patch_6">
    <path d="M 42.828125 22.318125 
L 318.424904 22.318125 
" style="fill: none; stroke: #000000; stroke-width: 0.8; stroke-linejoin: miter; stroke-linecap: square"/>
   </g>
   <g id="text_14">
    <!-- Absolute comparison -->
    <g transform="translate(117.462452 16.318125) scale(0.12 -0.12)">
     <defs>
      <path id="DejaVuSans-41" d="M 2188 4044 
L 1331 1722 
L 3047 1722 
L 2188 4044 
z
M 1831 4666 
L 2547 4666 
L 4325 0 
L 3669 0 
L 3244 1197 
L 1141 1197 
L 716 0 
L 50 0 
L 1831 4666 
z
" transform="scale(0.015625)"/>
      <path id="DejaVuSans-62" d="M 3116 1747 
Q 3116 2381 2855 2742 
Q 2594 3103 2138 3103 
Q 1681 3103 1420 2742 
Q 1159 2381 1159 1747 
Q 1159 1113 1420 752 
Q 1681 391 2138 391 
Q 2594 391 2855 752 
Q 3116 1113 3116 1747 
z
M 1159 2969 
Q 1341 3281 1617 3432 
Q 1894 3584 2278 3584 
Q 2916 3584 3314 3078 
Q 3713 2572 3713 1747 
Q 3713 922 3314 415 
Q 2916 -91 2278 -91 
Q 1894 -91 1617 61 
Q 1341 213 1159 525 
L 1159 0 
L 581 0 
L 581 4863 
L 1159 4863 
L 1159 2969 
z
" transform="scale(0.015625)"/>
      <path id="DejaVuSans-73" d="M 2834 3397 
L 2834 2853 
Q 2591 2978 2328 3040 
Q 2066 3103 1784 3103 
Q 1356 3103 1142 2972 
Q 928 2841 928 2578 
Q 928 2378 1081 2264 
Q 1234 2150 1697 2047 
L 1894 2003 
Q 2506 1872 2764 1633 
Q 3022 1394 3022 966 
Q 3022 478 2636 193 
Q 2250 -91 1575 -91 
Q 1294 -91 989 -36 
Q 684 19 347 128 
L 347 722 
Q 666 556 975 473 
Q 1284 391 1588 391 
Q 1994 391 2212 530 
Q 2431 669 2431 922 
Q 2431 1156 2273 1281 
Q 2116 1406 1581 1522 
L 1381 1569 
Q 847 1681 609 1914 
Q 372 2147 372 2553 
Q 372 3047 722 3315 
Q 1072 3584 1716 3584 
Q 2034 3584 2315 3537 
Q 2597 3491 2834 3397 
z
" transform="scale(0.015625)"/>
      <path id="DejaVuSans-6f" d="M 1959 3097 
Q 1497 3097 1228 2736 
Q 959 2375 959 1747 
Q 959 1119 1226 758 
Q 1494 397 1959 397 
Q 2419 397 2687 759 
Q 2956 1122 2956 1747 
Q 2956 2369 2687 2733 
Q 2419 3097 1959 3097 
z
M 1959 3584 
Q 2709 3584 3137 3096 
Q 3566 2609 3566 1747 
Q 3566 888 3137 398 
Q 2709 -91 1959 -91 
Q 1206 -91 779 398 
Q 353 888 353 1747 
Q 353 2609 779 3096 
Q 1206 3584 1959 3584 
z
" transform="scale(0.015625)"/>
      <path id="DejaVuSans-6c" d="M 603 4863 
L 1178 4863 
L 1178 0 
L 603 0 
L 603 4863 
z
" transform="scale(0.015625)"/>
      <path id="DejaVuSans-75" d="M 544 1381 
L 544 3500 
L 1119 3500 
L 1119 1403 
Q 1119 906 1312 657 
Q 1506 409 1894 409 
Q 2359 409 2629 706 
Q 2900 1003 2900 1516 
L 2900 3500 
L 3475 3500 
L 3475 0 
L 2900 0 
L 2900 538 
Q 2691 219 2414 64 
Q 2138 -91 1772 -91 
Q 1169 -91 856 284 
Q 544 659 544 1381 
z
M 1991 3584 
L 1991 3584 
z
" transform="scale(0.015625)"/>
      <path id="DejaVuSans-74" d="M 1172 4494 
L 1172 3500 
L 2356 3500 
L 2356 3053 
L 1172 3053 
L 1172 1153 
Q 1172 725 1289 603 
Q 1406 481 1766 481 
L 2356 481 
L 2356 0 
L 1766 0 
Q 1100 0 847 248 
Q 594 497 594 1153 
L 594 3053 
L 172 3053 
L 172 3500 
L 594 3500 
L 594 4494 
L 1172 4494 
z
" transform="scale(0.015625)"/>
      <path id="DejaVuSans-65" d="M 3597 1894 
L 3597 1613 
L 953 1613 
Q 991 1019 1311 708 
Q 1631 397 2203 397 
Q 2534 397 2845 478 
Q 3156 559 3463 722 
L 3463 178 
Q 3153 47 2828 -22 
Q 2503 -91 2169 -91 
Q 1331 -91 842 396 
Q 353 884 353 1716 
Q 353 2575 817 3079 
Q 1281 3584 2069 3584 
Q 2775 3584 3186 3129 
Q 3597 2675 3597 1894 
z
M 3022 2063 
Q 3016 2534 2758 2815 
Q 2500 3097 2075 3097 
Q 1594 3097 1305 2825 
Q 1016 2553 972 2059 
L 3022 2063 
z
" transform="scale(0.015625)"/>
      <path id="DejaVuSans-20" transform="scale(0.015625)"/>
      <path id="DejaVuSans-63" d="M 3122 3366 
L 3122 2828 
Q 2878 2963 2633 3030 
Q 2388 3097 2138 3097 
Q 1578 3097 1268 2742 
Q 959 2388 959 1747 
Q 959 1106 1268 751 
Q 1578 397 2138 397 
Q 2388 397 2633 464 
Q 2878 531 3122 666 
L 3122 134 
Q 2881 22 2623 -34 
Q 2366 -91 2075 -91 
Q 1284 -91 818 406 
Q 353 903 353 1747 
Q 353 2603 823 3093 
Q 1294 3584 2113 3584 
Q 2378 3584 2631 3529 
Q 2884 3475 3122 3366 
z
" transform="scale(0.015625)"/>
      <path id="DejaVuSans-6d" d="M 3328 2828 
Q 3544 3216 3844 3400 
Q 4144 3584 4550 3584 
Q 5097 3584 5394 3201 
Q 5691 2819 5691 2113 
L 5691 0 
L 5113 0 
L 5113 2094 
Q 5113 2597 4934 2840 
Q 4756 3084 4391 3084 
Q 3944 3084 3684 2787 
Q 3425 2491 3425 1978 
L 3425 0 
L 2847 0 
L 2847 2094 
Q 2847 2600 2669 2842 
Q 2491 3084 2119 3084 
Q 1678 3084 1418 2786 
Q 1159 2488 1159 1978 
L 1159 0 
L 581 0 
L 581 3500 
L 1159 3500 
L 1159 2956 
Q 1356 3278 1631 3431 
Q 1906 3584 2284 3584 
Q 2666 3584 2933 3390 
Q 3200 3197 3328 2828 
z
" transform="scale(0.015625)"/>
      <path id="DejaVuSans-70" d="M 1159 525 
L 1159 -1331 
L 581 -1331 
L 581 3500 
L 1159 3500 
L 1159 2969 
Q 1341 3281 1617 3432 
Q 1894 3584 2278 3584 
Q 2916 3584 3314 3078 
Q 3713 2572 3713 1747 
Q 3713 922 3314 415 
Q 2916 -91 2278 -91 
Q 1894 -91 1617 61 
Q 1341 213 1159 525 
z
M 3116 1747 
Q 3116 2381 2855 2742 
Q 2594 3103 2138 3103 
Q 1681 3103 1420 2742 
Q 1159 2381 1159 1747 
Q 1159 1113 1420 752 
Q 1681 391 2138 391 
Q 2594 391 2855 752 
Q 3116 1113 3116 1747 
z
" transform="scale(0.015625)"/>
      <path id="DejaVuSans-61" d="M 2194 1759 
Q 1497 1759 1228 1600 
Q 959 1441 959 1056 
Q 959 750 1161 570 
Q 1363 391 1709 391 
Q 2188 391 2477 730 
Q 2766 1069 2766 1631 
L 2766 1759 
L 2194 1759 
z
M 3341 1997 
L 3341 0 
L 2766 0 
L 2766 531 
Q 2569 213 2275 61 
Q 1981 -91 1556 -91 
Q 1019 -91 701 211 
Q 384 513 384 1019 
Q 384 1609 779 1909 
Q 1175 2209 1959 2209 
L 2766 2209 
L 2766 2266 
Q 2766 2663 2505 2880 
Q 2244 3097 1772 3097 
Q 1472 3097 1187 3025 
Q 903 2953 641 2809 
L 641 3341 
Q 956 3463 1253 3523 
Q 1550 3584 1831 3584 
Q 2591 3584 2966 3190 
Q 3341 2797 3341 1997 
z
" transform="scale(0.015625)"/>
      <path id="DejaVuSans-72" d="M 2631 2963 
Q 2534 3019 2420 3045 
Q 2306 3072 2169 3072 
Q 1681 3072 1420 2755 
Q 1159 2438 1159 1844 
L 1159 0 
L 581 0 
L 581 3500 
L 1159 3500 
L 1159 2956 
Q 1341 3275 1631 3429 
Q 1922 3584 2338 3584 
Q 2397 3584 2469 3576 
Q 2541 3569 2628 3553 
L 2631 2963 
z
" transform="scale(0.015625)"/>
      <path id="DejaVuSans-69" d="M 603 3500 
L 1178 3500 
L 1178 0 
L 603 0 
L 603 3500 
z
M 603 4863 
L 1178 4863 
L 1178 4134 
L 603 4134 
L 603 4863 
z
" transform="scale(0.015625)"/>
      <path id="DejaVuSans-6e" d="M 3513 2113 
L 3513 0 
L 2938 0 
L 2938 2094 
Q 2938 2591 2744 2837 
Q 2550 3084 2163 3084 
Q 1697 3084 1428 2787 
Q 1159 2491 1159 1978 
L 1159 0 
L 581 0 
L 581 3500 
L 1159 3500 
L 1159 2956 
Q 1366 3272 1645 3428 
Q 1925 3584 2291 3584 
Q 2894 3584 3203 3211 
Q 3513 2838 3513 2113 
z
" transform="scale(0.015625)"/>
     </defs>
     <use xlink:href="#DejaVuSans-41"/>
     <use xlink:href="#DejaVuSans-62" x="68.408203"/>
     <use xlink:href="#DejaVuSans-73" x="131.884766"/>
     <use xlink:href="#DejaVuSans-6f" x="183.984375"/>
     <use xlink:href="#DejaVuSans-6c" x="245.166016"/>
     <use xlink:href="#DejaVuSans-75" x="272.949219"/>
     <use xlink:href="#DejaVuSans-74" x="336.328125"/>
     <use xlink:href="#DejaVuSans-65" x="375.537109"/>
     <use xlink:href="#DejaVuSans-20" x="437.060547"/>
     <use xlink:href="#DejaVuSans-63" x="468.847656"/>
     <use xlink:href="#DejaVuSans-6f" x="523.828125"/>
     <use xlink:href="#DejaVuSans-6d" x="585.009766"/>
     <use xlink:href="#DejaVuSans-70" x="682.421875"/>
     <use xlink:href="#DejaVuSans-61" x="745.898438"/>
     <use xlink:href="#DejaVuSans-72" x="807.177734"/>
     <use xlink:href="#DejaVuSans-69" x="848.291016"/>
     <use xlink:href="#DejaVuSans-73" x="876.074219"/>
     <use xlink:href="#DejaVuSans-6f" x="928.173828"/>
     <use xlink:href="#DejaVuSans-6e" x="989.355469"/>
    </g>
   </g>
   <g id="legend_1">
    <g id="patch_7">
     <path d="M 325.424904 75.413437 
L 371.924904 75.413437 
Q 373.924904 75.413437 373.924904 73.413437 
L 373.924904 29.318125 
Q 373.924904 27.318125 371.924904 27.318125 
L 325.424904 27.318125 
Q 323.424904 27.318125 323.424904 29.318125 
L 323.424904 73.413437 
Q 323.424904 75.413437 325.424904 75.413437 
z
" style="fill: #ffffff; opacity: 0.8; stroke: #cccccc; stroke-linejoin: miter"/>
    </g>
    <g id="line2d_28">
     <path d="M 327.424904 35.416562 
L 337.424904 35.416562 
L 347.424904 35.416562 
" style="fill: none; stroke: #1f77b4; stroke-width: 1.5; stroke-linecap: square"/>
    </g>
    <g id="text_15">
     <!-- $\chi_0$ -->
     <g transform="translate(355.424904 38.916562) scale(0.1 -0.1)">
      <defs>
       <path id="DejaVuSans-Oblique-3c7" d="M 1922 -781 
L 1691 416 
L 394 -1334 
L -284 -1334 
L 1553 1141 
L 1269 2613 
Q 1194 3006 713 3006 
L 559 3006 
L 653 3500 
L 872 3494 
Q 1675 3472 1775 2950 
L 2006 1753 
L 3303 3503 
L 3981 3503 
L 2144 1028 
L 2428 -444 
Q 2503 -838 2984 -838 
L 3138 -838 
L 3044 -1331 
L 2825 -1325 
Q 2022 -1303 1922 -781 
z
" transform="scale(0.015625)"/>
      </defs>
      <use xlink:href="#DejaVuSans-Oblique-3c7" transform="translate(0 0.265625)"/>
      <use xlink:href="#DejaVuSans-30" transform="translate(59.179688 -16.140625) scale(0.7)"/>
     </g>
    </g>
    <g id="line2d_29">
     <path d="M 327.424904 50.115 
L 337.424904 50.115 
L 347.424904 50.115 
" style="fill: none; stroke: #ff7f0e; stroke-width: 1.5; stroke-linecap: square"/>
    </g>
    <g id="text_16">
     <!-- $\chi_{ch}$ -->
     <g transform="translate(355.424904 53.615) scale(0.1 -0.1)">
      <defs>
       <path id="DejaVuSans-Oblique-63" d="M 3431 3366 
L 3316 2797 
Q 3109 2947 2876 3022 
Q 2644 3097 2394 3097 
Q 2119 3097 1870 3000 
Q 1622 2903 1453 2725 
Q 1184 2453 1037 2087 
Q 891 1722 891 1331 
Q 891 859 1127 628 
Q 1363 397 1844 397 
Q 2081 397 2348 469 
Q 2616 541 2906 684 
L 2797 116 
Q 2547 13 2283 -39 
Q 2019 -91 1741 -91 
Q 1044 -91 669 257 
Q 294 606 294 1253 
Q 294 1797 489 2255 
Q 684 2713 1069 3078 
Q 1331 3328 1684 3456 
Q 2038 3584 2456 3584 
Q 2700 3584 2940 3529 
Q 3181 3475 3431 3366 
z
" transform="scale(0.015625)"/>
       <path id="DejaVuSans-Oblique-68" d="M 3566 2113 
L 3156 0 
L 2578 0 
L 2988 2091 
Q 3016 2238 3031 2350 
Q 3047 2463 3047 2528 
Q 3047 2791 2881 2937 
Q 2716 3084 2419 3084 
Q 1956 3084 1617 2771 
Q 1278 2459 1178 1941 
L 800 0 
L 225 0 
L 1172 4863 
L 1747 4863 
L 1375 2950 
Q 1594 3244 1934 3414 
Q 2275 3584 2650 3584 
Q 3113 3584 3367 3334 
Q 3622 3084 3622 2631 
Q 3622 2519 3608 2391 
Q 3594 2263 3566 2113 
z
" transform="scale(0.015625)"/>
      </defs>
      <use xlink:href="#DejaVuSans-Oblique-3c7" transform="translate(0 0.265625)"/>
      <use xlink:href="#DejaVuSans-Oblique-63" transform="translate(59.179688 -16.140625) scale(0.7)"/>
      <use xlink:href="#DejaVuSans-Oblique-68" transform="translate(97.666016 -16.140625) scale(0.7)"/>
     </g>
    </g>
    <g id="line2d_30">
     <path d="M 327.424904 64.813438 
L 337.424904 64.813438 
L 347.424904 64.813438 
" style="fill: none; stroke: #2ca02c; stroke-width: 1.5; stroke-linecap: square"/>
    </g>
    <g id="text_17">
     <!-- $\chi_{sp}$ -->
     <g transform="translate(355.424904 68.313438) scale(0.1 -0.1)">
      <defs>
       <path id="DejaVuSans-Oblique-73" d="M 3200 3397 
L 3091 2853 
Q 2863 2978 2609 3040 
Q 2356 3103 2088 3103 
Q 1634 3103 1373 2948 
Q 1113 2794 1113 2528 
Q 1113 2219 1719 2053 
Q 1766 2041 1788 2034 
L 1972 1978 
Q 2547 1819 2739 1644 
Q 2931 1469 2931 1166 
Q 2931 609 2489 259 
Q 2047 -91 1331 -91 
Q 1053 -91 747 -37 
Q 441 16 72 128 
L 184 722 
Q 500 559 806 475 
Q 1113 391 1394 391 
Q 1816 391 2080 572 
Q 2344 753 2344 1031 
Q 2344 1331 1650 1516 
L 1591 1531 
L 1394 1581 
Q 956 1697 753 1886 
Q 550 2075 550 2369 
Q 550 2928 970 3256 
Q 1391 3584 2113 3584 
Q 2397 3584 2667 3537 
Q 2938 3491 3200 3397 
z
" transform="scale(0.015625)"/>
       <path id="DejaVuSans-Oblique-70" d="M 3175 2156 
Q 3175 2616 2975 2859 
Q 2775 3103 2400 3103 
Q 2144 3103 1911 2972 
Q 1678 2841 1497 2591 
Q 1319 2344 1212 1994 
Q 1106 1644 1106 1300 
Q 1106 863 1306 627 
Q 1506 391 1875 391 
Q 2147 391 2380 519 
Q 2613 647 2778 891 
Q 2956 1147 3065 1494 
Q 3175 1841 3175 2156 
z
M 1394 2969 
Q 1625 3272 1939 3428 
Q 2253 3584 2638 3584 
Q 3175 3584 3472 3232 
Q 3769 2881 3769 2247 
Q 3769 1728 3584 1258 
Q 3400 788 3053 416 
Q 2822 169 2531 39 
Q 2241 -91 1919 -91 
Q 1547 -91 1294 64 
Q 1041 219 916 525 
L 556 -1331 
L -19 -1331 
L 922 3500 
L 1497 3500 
L 1394 2969 
z
" transform="scale(0.015625)"/>
      </defs>
      <use xlink:href="#DejaVuSans-Oblique-3c7" transform="translate(0 0.265625)"/>
      <use xlink:href="#DejaVuSans-Oblique-73" transform="translate(59.179688 -16.140625) scale(0.7)"/>
      <use xlink:href="#DejaVuSans-Oblique-70" transform="translate(95.649414 -16.140625) scale(0.7)"/>
     </g>
    </g>
   </g>
  </g>
  <g id="axes_2">
   <g id="patch_8">
    <path d="M 429.921346 297.914904 
L 705.518125 297.914904 
L 705.518125 22.318125 
L 429.921346 22.318125 
z
" style="fill: #ffffff"/>
   </g>
   <g id="matplotlib.axis_3">
    <g id="xtick_5">
     <g id="line2d_31">
      <path d="M 442.448472 297.914904 
L 442.448472 22.318125 
" clip-path="url(#pd55a5cfe9b)" style="fill: none; stroke: #b0b0b0; stroke-width: 0.8; stroke-linecap: square"/>
     </g>
     <g id="line2d_32">
      <g>
       <use xlink:href="#mbfbb52d9b5" x="442.448472" y="297.914904" style="stroke: #000000; stroke-width: 0.8"/>
      </g>
     </g>
     <g id="text_18">
      <!-- $\Gamma$ -->
      <g transform="translate(439.648472 312.513342) scale(0.1 -0.1)">
       <use xlink:href="#DejaVuSans-393" transform="translate(0 0.09375)"/>
      </g>
     </g>
    </g>
    <g id="xtick_6">
     <g id="line2d_33">
      <path d="M 534.153402 297.914904 
L 534.153402 22.318125 
" clip-path="url(#pd55a5cfe9b)" style="fill: none; stroke: #b0b0b0; stroke-width: 0.8; stroke-linecap: square"/>
     </g>
     <g id="line2d_34">
      <g>
       <use xlink:href="#mbfbb52d9b5" x="534.153402" y="297.914904" style="stroke: #000000; stroke-width: 0.8"/>
      </g>
     </g>
     <g id="text_19">
      <!-- $M$ -->
      <g transform="translate(529.803402 312.513342) scale(0.1 -0.1)">
       <use xlink:href="#DejaVuSans-Oblique-4d" transform="translate(0 0.09375)"/>
      </g>
     </g>
    </g>
    <g id="xtick_7">
     <g id="line2d_35">
      <path d="M 587.099267 297.914904 
L 587.099267 22.318125 
" clip-path="url(#pd55a5cfe9b)" style="fill: none; stroke: #b0b0b0; stroke-width: 0.8; stroke-linecap: square"/>
     </g>
     <g id="line2d_36">
      <g>
       <use xlink:href="#mbfbb52d9b5" x="587.099267" y="297.914904" style="stroke: #000000; stroke-width: 0.8"/>
      </g>
     </g>
     <g id="text_20">
      <!-- $K$ -->
      <g transform="translate(583.799267 312.513342) scale(0.1 -0.1)">
       <use xlink:href="#DejaVuSans-Oblique-4b" transform="translate(0 0.09375)"/>
      </g>
     </g>
    </g>
    <g id="xtick_8">
     <g id="line2d_37">
      <path d="M 692.990999 297.914904 
L 692.990999 22.318125 
" clip-path="url(#pd55a5cfe9b)" style="fill: none; stroke: #b0b0b0; stroke-width: 0.8; stroke-linecap: square"/>
     </g>
     <g id="line2d_38">
      <g>
       <use xlink:href="#mbfbb52d9b5" x="692.990999" y="297.914904" style="stroke: #000000; stroke-width: 0.8"/>
      </g>
     </g>
     <g id="text_21">
      <!-- $\Gamma$ -->
      <g transform="translate(690.190999 312.513342) scale(0.1 -0.1)">
       <use xlink:href="#DejaVuSans-393" transform="translate(0 0.09375)"/>
      </g>
     </g>
    </g>
    <g id="text_22">
     <!-- $\mathbf{k}$ -->
     <g transform="translate(564.369735 326.191467) scale(0.1 -0.1)">
      <use xlink:href="#DejaVuSans-Bold-6b" transform="translate(0 0.015625)"/>
     </g>
    </g>
   </g>
   <g id="matplotlib.axis_4">
    <g id="ytick_9">
     <g id="line2d_39">
      <path d="M 429.921346 271.85323 
L 705.518125 271.85323 
" clip-path="url(#pd55a5cfe9b)" style="fill: none; stroke: #b0b0b0; stroke-width: 0.8; stroke-linecap: square"/>
     </g>
     <g id="line2d_40">
      <g>
       <use xlink:href="#m569e84c86f" x="429.921346" y="271.85323" style="stroke: #000000; stroke-width: 0.8"/>
      </g>
     </g>
     <g id="text_23">
      <!-- −0.002 -->
      <g transform="translate(385.913533 275.652449) scale(0.1 -0.1)">
       <defs>
        <path id="DejaVuSans-2212" d="M 678 2272 
L 4684 2272 
L 4684 1741 
L 678 1741 
L 678 2272 
z
" transform="scale(0.015625)"/>
       </defs>
       <use xlink:href="#DejaVuSans-2212"/>
       <use xlink:href="#DejaVuSans-30" x="83.789062"/>
       <use xlink:href="#DejaVuSans-2e" x="147.412109"/>
       <use xlink:href="#DejaVuSans-30" x="179.199219"/>
       <use xlink:href="#DejaVuSans-30" x="242.822266"/>
       <use xlink:href="#DejaVuSans-32" x="306.445312"/>
      </g>
     </g>
    </g>
    <g id="ytick_10">
     <g id="line2d_41">
      <path d="M 429.921346 235.053369 
L 705.518125 235.053369 
" clip-path="url(#pd55a5cfe9b)" style="fill: none; stroke: #b0b0b0; stroke-width: 0.8; stroke-linecap: square"/>
     </g>
     <g id="line2d_42">
      <g>
       <use xlink:href="#m569e84c86f" x="429.921346" y="235.053369" style="stroke: #000000; stroke-width: 0.8"/>
      </g>
     </g>
     <g id="text_24">
      <!-- −0.001 -->
      <g transform="translate(385.913533 238.852587) scale(0.1 -0.1)">
       <defs>
        <path id="DejaVuSans-31" d="M 794 531 
L 1825 531 
L 1825 4091 
L 703 3866 
L 703 4441 
L 1819 4666 
L 2450 4666 
L 2450 531 
L 3481 531 
L 3481 0 
L 794 0 
L 794 531 
z
" transform="scale(0.015625)"/>
       </defs>
       <use xlink:href="#DejaVuSans-2212"/>
       <use xlink:href="#DejaVuSans-30" x="83.789062"/>
       <use xlink:href="#DejaVuSans-2e" x="147.412109"/>
       <use xlink:href="#DejaVuSans-30" x="179.199219"/>
       <use xlink:href="#DejaVuSans-30" x="242.822266"/>
       <use xlink:href="#DejaVuSans-31" x="306.445312"/>
      </g>
     </g>
    </g>
    <g id="ytick_11">
     <g id="line2d_43">
      <path d="M 429.921346 198.253508 
L 705.518125 198.253508 
" clip-path="url(#pd55a5cfe9b)" style="fill: none; stroke: #b0b0b0; stroke-width: 0.8; stroke-linecap: square"/>
     </g>
     <g id="line2d_44">
      <g>
       <use xlink:href="#m569e84c86f" x="429.921346" y="198.253508" style="stroke: #000000; stroke-width: 0.8"/>
      </g>
     </g>
     <g id="text_25">
      <!-- 0.000 -->
      <g transform="translate(394.293221 202.052726) scale(0.1 -0.1)">
       <use xlink:href="#DejaVuSans-30"/>
       <use xlink:href="#DejaVuSans-2e" x="63.623047"/>
       <use xlink:href="#DejaVuSans-30" x="95.410156"/>
       <use xlink:href="#DejaVuSans-30" x="159.033203"/>
       <use xlink:href="#DejaVuSans-30" x="222.65625"/>
      </g>
     </g>
    </g>
    <g id="ytick_12">
     <g id="line2d_45">
      <path d="M 429.921346 161.453647 
L 705.518125 161.453647 
" clip-path="url(#pd55a5cfe9b)" style="fill: none; stroke: #b0b0b0; stroke-width: 0.8; stroke-linecap: square"/>
     </g>
     <g id="line2d_46">
      <g>
       <use xlink:href="#m569e84c86f" x="429.921346" y="161.453647" style="stroke: #000000; stroke-width: 0.8"/>
      </g>
     </g>
     <g id="text_26">
      <!-- 0.001 -->
      <g transform="translate(394.293221 165.252865) scale(0.1 -0.1)">
       <use xlink:href="#DejaVuSans-30"/>
       <use xlink:href="#DejaVuSans-2e" x="63.623047"/>
       <use xlink:href="#DejaVuSans-30" x="95.410156"/>
       <use xlink:href="#DejaVuSans-30" x="159.033203"/>
       <use xlink:href="#DejaVuSans-31" x="222.65625"/>
      </g>
     </g>
    </g>
    <g id="ytick_13">
     <g id="line2d_47">
      <path d="M 429.921346 124.653785 
L 705.518125 124.653785 
" clip-path="url(#pd55a5cfe9b)" style="fill: none; stroke: #b0b0b0; stroke-width: 0.8; stroke-linecap: square"/>
     </g>
     <g id="line2d_48">
      <g>
       <use xlink:href="#m569e84c86f" x="429.921346" y="124.653785" style="stroke: #000000; stroke-width: 0.8"/>
      </g>
     </g>
     <g id="text_27">
      <!-- 0.002 -->
      <g transform="translate(394.293221 128.453004) scale(0.1 -0.1)">
       <use xlink:href="#DejaVuSans-30"/>
       <use xlink:href="#DejaVuSans-2e" x="63.623047"/>
       <use xlink:href="#DejaVuSans-30" x="95.410156"/>
       <use xlink:href="#DejaVuSans-30" x="159.033203"/>
       <use xlink:href="#DejaVuSans-32" x="222.65625"/>
      </g>
     </g>
    </g>
    <g id="ytick_14">
     <g id="line2d_49">
      <path d="M 429.921346 87.853924 
L 705.518125 87.853924 
" clip-path="url(#pd55a5cfe9b)" style="fill: none; stroke: #b0b0b0; stroke-width: 0.8; stroke-linecap: square"/>
     </g>
     <g id="line2d_50">
      <g>
       <use xlink:href="#m569e84c86f" x="429.921346" y="87.853924" style="stroke: #000000; stroke-width: 0.8"/>
      </g>
     </g>
     <g id="text_28">
      <!-- 0.003 -->
      <g transform="translate(394.293221 91.653143) scale(0.1 -0.1)">
       <use xlink:href="#DejaVuSans-30"/>
       <use xlink:href="#DejaVuSans-2e" x="63.623047"/>
       <use xlink:href="#DejaVuSans-30" x="95.410156"/>
       <use xlink:href="#DejaVuSans-30" x="159.033203"/>
       <use xlink:href="#DejaVuSans-33" x="222.65625"/>
      </g>
     </g>
    </g>
    <g id="ytick_15">
     <g id="line2d_51">
      <path d="M 429.921346 51.054063 
L 705.518125 51.054063 
" clip-path="url(#pd55a5cfe9b)" style="fill: none; stroke: #b0b0b0; stroke-width: 0.8; stroke-linecap: square"/>
     </g>
     <g id="line2d_52">
      <g>
       <use xlink:href="#m569e84c86f" x="429.921346" y="51.054063" style="stroke: #000000; stroke-width: 0.8"/>
      </g>
     </g>
     <g id="text_29">
      <!-- 0.004 -->
      <g transform="translate(394.293221 54.853282) scale(0.1 -0.1)">
       <defs>
        <path id="DejaVuSans-34" d="M 2419 4116 
L 825 1625 
L 2419 1625 
L 2419 4116 
z
M 2253 4666 
L 3047 4666 
L 3047 1625 
L 3713 1625 
L 3713 1100 
L 3047 1100 
L 3047 0 
L 2419 0 
L 2419 1100 
L 313 1100 
L 313 1709 
L 2253 4666 
z
" transform="scale(0.015625)"/>
       </defs>
       <use xlink:href="#DejaVuSans-30"/>
       <use xlink:href="#DejaVuSans-2e" x="63.623047"/>
       <use xlink:href="#DejaVuSans-30" x="95.410156"/>
       <use xlink:href="#DejaVuSans-30" x="159.033203"/>
       <use xlink:href="#DejaVuSans-34" x="222.65625"/>
      </g>
     </g>
    </g>
   </g>
   <g id="line2d_53">
    <path d="M 442.448472 198.253508 
L 443.374784 216.653313 
L 444.301097 229.202137 
L 446.153722 241.860305 
L 447.080034 249.422606 
L 448.006347 247.537656 
L 448.932659 248.623903 
L 449.858971 249.308256 
L 452.637909 248.458359 
L 454.490533 247.74785 
L 457.269471 246.464485 
L 459.122096 245.458935 
L 461.901033 243.738709 
L 463.753658 242.43251 
L 466.532595 240.275248 
L 468.38522 238.664378 
L 471.164157 236.068856 
L 473.943094 233.166695 
L 477.648344 228.897767 
L 480.427281 225.41068 
L 484.132531 220.279882 
L 486.911468 216.160539 
L 489.690405 211.730181 
L 493.395655 205.398678 
L 497.100905 198.630702 
L 501.732467 189.415865 
L 506.364029 179.418478 
L 510.069279 170.879279 
L 514.700841 159.464304 
L 519.332403 147.266607 
L 524.890277 131.517401 
L 528.595527 120.413057 
L 533.227089 105.73465 
L 534.153402 102.708439 
L 534.153402 102.708439 
L 536.827435 107.578084 
L 539.501469 111.981637 
L 541.640696 115.250894 
L 544.849536 119.599162 
L 546.988763 122.133261 
L 550.197603 125.431488 
L 552.33683 127.337565 
L 555.010864 129.257995 
L 556.615284 130.270367 
L 558.754511 131.337057 
L 560.358931 132.020496 
L 561.963351 132.501707 
L 563.032965 132.732865 
L 564.102578 132.801183 
L 564.637385 132.651058 
L 566.241805 130.815773 
L 567.846225 123.528597 
L 568.381032 125.482388 
L 569.450645 132.020228 
L 569.985452 131.833789 
L 571.055065 124.677654 
L 571.589872 122.483688 
L 573.194292 128.997164 
L 574.263906 129.920659 
L 574.798713 130.291832 
L 575.333519 130.245201 
L 576.937939 129.412297 
L 580.14678 126.918781 
L 583.890427 123.256776 
L 587.099267 119.478962 
L 587.099267 119.478962 
L 592.447334 132.575126 
L 597.795402 144.982523 
L 602.073856 154.359024 
L 606.352309 163.319424 
L 609.56115 169.714831 
L 613.839603 177.852902 
L 617.048444 183.679764 
L 620.257284 189.244547 
L 624.535738 196.261486 
L 628.814192 202.876704 
L 632.023032 207.513369 
L 636.301486 213.333165 
L 639.510326 217.444467 
L 643.78878 222.484408 
L 648.067234 227.128958 
L 651.276074 230.343816 
L 655.554528 234.21593 
L 658.763368 236.873713 
L 661.972209 239.301857 
L 666.250662 242.109638 
L 670.529116 244.527059 
L 673.737957 246.077268 
L 678.01641 247.73983 
L 682.294864 248.999212 
L 685.503705 244.444767 
L 688.712545 239.636808 
L 689.782158 232.775446 
L 691.921385 210.720655 
L 692.990999 198.253508 
L 692.990999 198.253508 
" clip-path="url(#pd55a5cfe9b)" style="fill: none; stroke: #1f77b4; stroke-width: 1.5; stroke-linecap: square"/>
   </g>
   <g id="line2d_54">
    <path d="M 442.448472 198.253508 
L 443.374784 207.492857 
L 444.301097 213.794172 
L 446.153722 220.15703 
L 447.080034 223.959906 
L 448.006347 223.01198 
L 448.932659 223.558177 
L 449.858971 223.902262 
L 453.564221 223.314489 
L 458.195783 222.243321 
L 462.827345 220.795619 
L 467.458907 218.974905 
L 472.090469 216.779578 
L 476.722032 214.209041 
L 481.353594 211.263247 
L 485.058843 208.642027 
L 489.690405 205.016726 
L 494.321967 201.00948 
L 498.027217 197.531607 
L 502.658779 192.842318 
L 507.290341 187.766351 
L 511.921903 182.295007 
L 516.553466 176.420754 
L 521.185028 170.145514 
L 525.81659 163.475349 
L 530.448152 156.40833 
L 534.153402 150.451398 
L 534.153402 150.451398 
L 536.827435 152.881437 
L 540.036275 155.506706 
L 543.245116 157.826421 
L 545.919149 159.520764 
L 549.12799 161.287665 
L 552.871637 162.952053 
L 556.080477 164.058815 
L 559.289318 164.877421 
L 562.498158 165.40565 
L 564.102578 165.479391 
L 564.637385 165.404371 
L 566.241805 164.487267 
L 567.846225 160.846181 
L 568.381032 161.822217 
L 569.450645 165.089208 
L 569.985452 164.996331 
L 571.055065 161.420688 
L 571.589872 160.324106 
L 573.194292 163.578404 
L 574.263906 164.039944 
L 574.798713 164.225391 
L 575.868326 164.081504 
L 577.472746 163.586042 
L 580.14678 162.539751 
L 584.425234 160.400924 
L 587.099267 158.823321 
L 587.099267 158.823321 
L 592.447334 165.366553 
L 597.795402 171.569981 
L 603.143469 177.411703 
L 608.491536 182.899107 
L 613.839603 188.025454 
L 618.118057 191.899665 
L 622.396511 195.528584 
L 627.744578 199.76555 
L 632.023032 202.90007 
L 637.371099 206.52432 
L 640.57994 208.53699 
L 644.858393 211.019924 
L 649.136847 213.307481 
L 652.345688 214.869745 
L 656.624141 216.769973 
L 660.902595 218.475088 
L 665.181049 219.946091 
L 669.459503 221.219217 
L 674.80757 222.496903 
L 679.086024 223.285088 
L 682.294864 223.746784 
L 685.503705 221.456641 
L 688.712545 219.038879 
L 689.782158 215.591592 
L 691.921385 204.514154 
L 692.990999 198.253508 
L 692.990999 198.253508 
" clip-path="url(#pd55a5cfe9b)" style="fill: none; stroke: #ff7f0e; stroke-width: 1.5; stroke-linecap: square"/>
   </g>
   <g id="line2d_55">
    <path d="M 442.448472 198.253508 
L 443.374784 229.601464 
L 444.301097 250.981037 
L 446.153722 272.523359 
L 447.080034 285.387778 
L 448.006347 282.18137 
L 448.932659 284.029378 
L 449.858971 285.193751 
L 451.711596 284.302746 
L 454.490533 282.54043 
L 456.343158 281.150314 
L 459.122096 278.647906 
L 460.97472 276.746301 
L 462.827345 274.69052 
L 466.532595 269.830614 
L 468.38522 267.090009 
L 471.164157 262.673693 
L 473.016782 259.412413 
L 475.795719 254.243402 
L 478.574656 248.539154 
L 482.279906 240.258415 
L 485.058843 233.528531 
L 488.764093 223.76624 
L 491.54303 216.007786 
L 495.24828 204.750308 
L 497.100905 198.896589 
L 501.732467 183.177188 
L 506.364029 166.113182 
L 510.069279 151.530398 
L 514.700841 132.024604 
L 519.332403 111.166753 
L 524.890277 84.21352 
L 528.595527 65.194629 
L 533.227089 40.034962 
L 534.153402 34.845251 
L 534.153402 34.845251 
L 536.292628 41.566798 
L 538.431855 47.858008 
L 542.175502 57.629683 
L 545.384343 64.935783 
L 549.12799 72.04655 
L 552.33683 77.056285 
L 554.476057 79.735281 
L 556.615284 82.078687 
L 558.219704 83.470558 
L 560.358931 85.075266 
L 561.428544 85.659154 
L 563.032965 86.294325 
L 564.102578 86.411751 
L 564.637385 86.154677 
L 566.241805 83.011864 
L 567.846225 70.531706 
L 568.381032 73.878486 
L 569.450645 85.074177 
L 569.985452 84.753872 
L 571.055065 72.498254 
L 571.589872 68.742098 
L 573.194292 79.89794 
L 573.729099 80.802583 
L 574.798713 82.114861 
L 575.333519 82.035104 
L 576.403133 81.169864 
L 577.472746 79.923545 
L 579.611973 77.085384 
L 580.681587 75.468462 
L 583.890427 70.066695 
L 587.099267 63.594174 
L 587.099267 63.594174 
L 591.377721 81.653408 
L 596.725788 103.128048 
L 601.004242 119.351253 
L 605.282696 134.837401 
L 609.56115 149.5407 
L 613.839603 163.439821 
L 617.048444 173.38759 
L 620.257284 182.884709 
L 624.535738 194.855563 
L 628.814192 206.136775 
L 632.023032 214.041089 
L 636.301486 223.959338 
L 639.510326 230.964013 
L 643.78878 239.548302 
L 646.99762 245.559521 
L 651.276074 252.929979 
L 654.484915 257.960252 
L 658.763368 264.043209 
L 661.972209 268.174624 
L 666.250662 272.951149 
L 669.459503 276.123075 
L 672.668343 278.858302 
L 674.80757 280.443265 
L 678.01641 282.526787 
L 681.225251 284.226607 
L 682.294864 284.668271 
L 684.434091 279.564702 
L 688.712545 268.740962 
L 689.782158 257.05791 
L 691.921385 219.492704 
L 692.990999 198.253508 
L 692.990999 198.253508 
" clip-path="url(#pd55a5cfe9b)" style="fill: none; stroke: #2ca02c; stroke-width: 1.5; stroke-linecap: square"/>
   </g>
   <g id="patch_9">
    <path d="M 429.921346 297.914904 
L 429.921346 22.318125 
" style="fill: none; stroke: #000000; stroke-width: 0.8; stroke-linejoin: miter; stroke-linecap: square"/>
   </g>
   <g id="patch_10">
    <path d="M 705.518125 297.914904 
L 705.518125 22.318125 
" style="fill: none; stroke: #000000; stroke-width: 0.8; stroke-linejoin: miter; stroke-linecap: square"/>
   </g>
   <g id="patch_11">
    <path d="M 429.921346 297.914904 
L 705.518125 297.914904 
" style="fill: none; stroke: #000000; stroke-width: 0.8; stroke-linejoin: miter; stroke-linecap: square"/>
   </g>
   <g id="patch_12">
    <path d="M 429.921346 22.318125 
L 705.518125 22.318125 
" style="fill: none; stroke: #000000; stroke-width: 0.8; stroke-linejoin: miter; stroke-linecap: square"/>
   </g>
   <g id="text_30">
    <!-- Relative comparison -->
    <g transform="translate(506.582548 16.318125) scale(0.12 -0.12)">
     <defs>
      <path id="DejaVuSans-52" d="M 2841 2188 
Q 3044 2119 3236 1894 
Q 3428 1669 3622 1275 
L 4263 0 
L 3584 0 
L 2988 1197 
Q 2756 1666 2539 1819 
Q 2322 1972 1947 1972 
L 1259 1972 
L 1259 0 
L 628 0 
L 628 4666 
L 2053 4666 
Q 2853 4666 3247 4331 
Q 3641 3997 3641 3322 
Q 3641 2881 3436 2590 
Q 3231 2300 2841 2188 
z
M 1259 4147 
L 1259 2491 
L 2053 2491 
Q 2509 2491 2742 2702 
Q 2975 2913 2975 3322 
Q 2975 3731 2742 3939 
Q 2509 4147 2053 4147 
L 1259 4147 
z
" transform="scale(0.015625)"/>
      <path id="DejaVuSans-76" d="M 191 3500 
L 800 3500 
L 1894 563 
L 2988 3500 
L 3597 3500 
L 2284 0 
L 1503 0 
L 191 3500 
z
" transform="scale(0.015625)"/>
     </defs>
     <use xlink:href="#DejaVuSans-52"/>
     <use xlink:href="#DejaVuSans-65" x="64.982422"/>
     <use xlink:href="#DejaVuSans-6c" x="126.505859"/>
     <use xlink:href="#DejaVuSans-61" x="154.289062"/>
     <use xlink:href="#DejaVuSans-74" x="215.568359"/>
     <use xlink:href="#DejaVuSans-69" x="254.777344"/>
     <use xlink:href="#DejaVuSans-76" x="282.560547"/>
     <use xlink:href="#DejaVuSans-65" x="341.740234"/>
     <use xlink:href="#DejaVuSans-20" x="403.263672"/>
     <use xlink:href="#DejaVuSans-63" x="435.050781"/>
     <use xlink:href="#DejaVuSans-6f" x="490.03125"/>
     <use xlink:href="#DejaVuSans-6d" x="551.212891"/>
     <use xlink:href="#DejaVuSans-70" x="648.625"/>
     <use xlink:href="#DejaVuSans-61" x="712.101562"/>
     <use xlink:href="#DejaVuSans-72" x="773.380859"/>
     <use xlink:href="#DejaVuSans-69" x="814.494141"/>
     <use xlink:href="#DejaVuSans-73" x="842.277344"/>
     <use xlink:href="#DejaVuSans-6f" x="894.376953"/>
     <use xlink:href="#DejaVuSans-6e" x="955.558594"/>
    </g>
   </g>
   <g id="legend_2">
    <g id="patch_13">
     <path d="M 652.018125 75.413437 
L 698.518125 75.413437 
Q 700.518125 75.413437 700.518125 73.413437 
L 700.518125 29.318125 
Q 700.518125 27.318125 698.518125 27.318125 
L 652.018125 27.318125 
Q 650.018125 27.318125 650.018125 29.318125 
L 650.018125 73.413437 
Q 650.018125 75.413437 652.018125 75.413437 
z
" style="fill: #ffffff; opacity: 0.8; stroke: #cccccc; stroke-linejoin: miter"/>
    </g>
    <g id="line2d_56">
     <path d="M 654.018125 35.416562 
L 664.018125 35.416562 
L 674.018125 35.416562 
" style="fill: none; stroke: #1f77b4; stroke-width: 1.5; stroke-linecap: square"/>
    </g>
    <g id="text_31">
     <!-- $\chi_0$ -->
     <g transform="translate(682.018125 38.916562) scale(0.1 -0.1)">
      <use xlink:href="#DejaVuSans-Oblique-3c7" transform="translate(0 0.265625)"/>
      <use xlink:href="#DejaVuSans-30" transform="translate(59.179688 -16.140625) scale(0.7)"/>
     </g>
    </g>
    <g id="line2d_57">
     <path d="M 654.018125 50.115 
L 664.018125 50.115 
L 674.018125 50.115 
" style="fill: none; stroke: #ff7f0e; stroke-width: 1.5; stroke-linecap: square"/>
    </g>
    <g id="text_32">
     <!-- $\chi_{ch}$ -->
     <g transform="translate(682.018125 53.615) scale(0.1 -0.1)">
      <use xlink:href="#DejaVuSans-Oblique-3c7" transform="translate(0 0.265625)"/>
      <use xlink:href="#DejaVuSans-Oblique-63" transform="translate(59.179688 -16.140625) scale(0.7)"/>
      <use xlink:href="#DejaVuSans-Oblique-68" transform="translate(97.666016 -16.140625) scale(0.7)"/>
     </g>
    </g>
    <g id="line2d_58">
     <path d="M 654.018125 64.813438 
L 664.018125 64.813438 
L 674.018125 64.813438 
" style="fill: none; stroke: #2ca02c; stroke-width: 1.5; stroke-linecap: square"/>
    </g>
    <g id="text_33">
     <!-- $\chi_{sp}$ -->
     <g transform="translate(682.018125 68.313438) scale(0.1 -0.1)">
      <use xlink:href="#DejaVuSans-Oblique-3c7" transform="translate(0 0.265625)"/>
      <use xlink:href="#DejaVuSans-Oblique-73" transform="translate(59.179688 -16.140625) scale(0.7)"/>
      <use xlink:href="#DejaVuSans-Oblique-70" transform="translate(95.649414 -16.140625) scale(0.7)"/>
     </g>
    </g>
   </g>
  </g>
 </g>
 <defs>
  <clipPath id="p7ca1cba6f8">
   <rect x="42.828125" y="22.318125" width="275.596779" height="275.596779"/>
  </clipPath>
  <clipPath id="pd55a5cfe9b">
   <rect x="429.921346" y="22.318125" width="275.596779" height="275.596779"/>
  </clipPath>
 </defs>
</svg>
