<?xml version="1.0" encoding="utf-8" standalone="no"?>
<!DOCTYPE svg PUBLIC "-//W3C//DTD SVG 1.1//EN"
  "http://www.w3.org/Graphics/SVG/1.1/DTD/svg11.dtd">
<!-- Created with matplotlib (http://matplotlib.org/) -->
<svg height="265.995469pt" version="1.1" viewBox="0 0 396.365625 265.995469" width="396.365625pt" xmlns="http://www.w3.org/2000/svg" xmlns:xlink="http://www.w3.org/1999/xlink">
 <defs>
  <style type="text/css">
*{stroke-linecap:butt;stroke-linejoin:round;}
  </style>
 </defs>
 <g id="figure_1">
  <g id="patch_1">
   <path d="M 0 265.995469 
L 396.365625 265.995469 
L 396.365625 0 
L 0 0 
z
" style="fill:none;"/>
  </g>
  <g id="axes_1">
   <g id="patch_2">
    <path d="M 50.865625 228.439219 
L 385.665625 228.439219 
L 385.665625 10.999219 
L 50.865625 10.999219 
z
" style="fill:#ffffff;"/>
   </g>
   <g id="matplotlib.axis_1">
    <g id="xtick_1">
     <g id="line2d_1">
      <defs>
       <path d="M 0 0 
L 0 3.5 
" id="me45a6bbc82" style="stroke:#000000;stroke-width:0.8;"/>
      </defs>
      <g>
       <use style="stroke:#000000;stroke-width:0.8;" x="66.083807" xlink:href="#me45a6bbc82" y="228.439219"/>
      </g>
     </g>
     <g id="text_1">
      <!-- 0 -->
      <defs>
       <path d="M 31.78125 66.40625 
Q 24.171875 66.40625 20.328125 58.90625 
Q 16.5 51.421875 16.5 36.375 
Q 16.5 21.390625 20.328125 13.890625 
Q 24.171875 6.390625 31.78125 6.390625 
Q 39.453125 6.390625 43.28125 13.890625 
Q 47.125 21.390625 47.125 36.375 
Q 47.125 51.421875 43.28125 58.90625 
Q 39.453125 66.40625 31.78125 66.40625 
z
M 31.78125 74.21875 
Q 44.046875 74.21875 50.515625 64.515625 
Q 56.984375 54.828125 56.984375 36.375 
Q 56.984375 17.96875 50.515625 8.265625 
Q 44.046875 -1.421875 31.78125 -1.421875 
Q 19.53125 -1.421875 13.0625 8.265625 
Q 6.59375 17.96875 6.59375 36.375 
Q 6.59375 54.828125 13.0625 64.515625 
Q 19.53125 74.21875 31.78125 74.21875 
z
" id="DejaVuSans-30"/>
      </defs>
      <g transform="translate(62.902557 243.037656)scale(0.1 -0.1)">
       <use xlink:href="#DejaVuSans-30"/>
      </g>
     </g>
    </g>
    <g id="xtick_2">
     <g id="line2d_2">
      <g>
       <use style="stroke:#000000;stroke-width:0.8;" x="126.956534" xlink:href="#me45a6bbc82" y="228.439219"/>
      </g>
     </g>
     <g id="text_2">
      <!-- 2 -->
      <defs>
       <path d="M 19.1875 8.296875 
L 53.609375 8.296875 
L 53.609375 0 
L 7.328125 0 
L 7.328125 8.296875 
Q 12.9375 14.109375 22.625 23.890625 
Q 32.328125 33.6875 34.8125 36.53125 
Q 39.546875 41.84375 41.421875 45.53125 
Q 43.3125 49.21875 43.3125 52.78125 
Q 43.3125 58.59375 39.234375 62.25 
Q 35.15625 65.921875 28.609375 65.921875 
Q 23.96875 65.921875 18.8125 64.3125 
Q 13.671875 62.703125 7.8125 59.421875 
L 7.8125 69.390625 
Q 13.765625 71.78125 18.9375 73 
Q 24.125 74.21875 28.421875 74.21875 
Q 39.75 74.21875 46.484375 68.546875 
Q 53.21875 62.890625 53.21875 53.421875 
Q 53.21875 48.921875 51.53125 44.890625 
Q 49.859375 40.875 45.40625 35.40625 
Q 44.1875 33.984375 37.640625 27.21875 
Q 31.109375 20.453125 19.1875 8.296875 
z
" id="DejaVuSans-32"/>
      </defs>
      <g transform="translate(123.775284 243.037656)scale(0.1 -0.1)">
       <use xlink:href="#DejaVuSans-32"/>
      </g>
     </g>
    </g>
    <g id="xtick_3">
     <g id="line2d_3">
      <g>
       <use style="stroke:#000000;stroke-width:0.8;" x="187.829261" xlink:href="#me45a6bbc82" y="228.439219"/>
      </g>
     </g>
     <g id="text_3">
      <!-- 4 -->
      <defs>
       <path d="M 37.796875 64.3125 
L 12.890625 25.390625 
L 37.796875 25.390625 
z
M 35.203125 72.90625 
L 47.609375 72.90625 
L 47.609375 25.390625 
L 58.015625 25.390625 
L 58.015625 17.1875 
L 47.609375 17.1875 
L 47.609375 0 
L 37.796875 0 
L 37.796875 17.1875 
L 4.890625 17.1875 
L 4.890625 26.703125 
z
" id="DejaVuSans-34"/>
      </defs>
      <g transform="translate(184.648011 243.037656)scale(0.1 -0.1)">
       <use xlink:href="#DejaVuSans-34"/>
      </g>
     </g>
    </g>
    <g id="xtick_4">
     <g id="line2d_4">
      <g>
       <use style="stroke:#000000;stroke-width:0.8;" x="248.701989" xlink:href="#me45a6bbc82" y="228.439219"/>
      </g>
     </g>
     <g id="text_4">
      <!-- 6 -->
      <defs>
       <path d="M 33.015625 40.375 
Q 26.375 40.375 22.484375 35.828125 
Q 18.609375 31.296875 18.609375 23.390625 
Q 18.609375 15.53125 22.484375 10.953125 
Q 26.375 6.390625 33.015625 6.390625 
Q 39.65625 6.390625 43.53125 10.953125 
Q 47.40625 15.53125 47.40625 23.390625 
Q 47.40625 31.296875 43.53125 35.828125 
Q 39.65625 40.375 33.015625 40.375 
z
M 52.59375 71.296875 
L 52.59375 62.3125 
Q 48.875 64.0625 45.09375 64.984375 
Q 41.3125 65.921875 37.59375 65.921875 
Q 27.828125 65.921875 22.671875 59.328125 
Q 17.53125 52.734375 16.796875 39.40625 
Q 19.671875 43.65625 24.015625 45.921875 
Q 28.375 48.1875 33.59375 48.1875 
Q 44.578125 48.1875 50.953125 41.515625 
Q 57.328125 34.859375 57.328125 23.390625 
Q 57.328125 12.15625 50.6875 5.359375 
Q 44.046875 -1.421875 33.015625 -1.421875 
Q 20.359375 -1.421875 13.671875 8.265625 
Q 6.984375 17.96875 6.984375 36.375 
Q 6.984375 53.65625 15.1875 63.9375 
Q 23.390625 74.21875 37.203125 74.21875 
Q 40.921875 74.21875 44.703125 73.484375 
Q 48.484375 72.75 52.59375 71.296875 
z
" id="DejaVuSans-36"/>
      </defs>
      <g transform="translate(245.520739 243.037656)scale(0.1 -0.1)">
       <use xlink:href="#DejaVuSans-36"/>
      </g>
     </g>
    </g>
    <g id="xtick_5">
     <g id="line2d_5">
      <g>
       <use style="stroke:#000000;stroke-width:0.8;" x="309.574716" xlink:href="#me45a6bbc82" y="228.439219"/>
      </g>
     </g>
     <g id="text_5">
      <!-- 8 -->
      <defs>
       <path d="M 31.78125 34.625 
Q 24.75 34.625 20.71875 30.859375 
Q 16.703125 27.09375 16.703125 20.515625 
Q 16.703125 13.921875 20.71875 10.15625 
Q 24.75 6.390625 31.78125 6.390625 
Q 38.8125 6.390625 42.859375 10.171875 
Q 46.921875 13.96875 46.921875 20.515625 
Q 46.921875 27.09375 42.890625 30.859375 
Q 38.875 34.625 31.78125 34.625 
z
M 21.921875 38.8125 
Q 15.578125 40.375 12.03125 44.71875 
Q 8.5 49.078125 8.5 55.328125 
Q 8.5 64.0625 14.71875 69.140625 
Q 20.953125 74.21875 31.78125 74.21875 
Q 42.671875 74.21875 48.875 69.140625 
Q 55.078125 64.0625 55.078125 55.328125 
Q 55.078125 49.078125 51.53125 44.71875 
Q 48 40.375 41.703125 38.8125 
Q 48.828125 37.15625 52.796875 32.3125 
Q 56.78125 27.484375 56.78125 20.515625 
Q 56.78125 9.90625 50.3125 4.234375 
Q 43.84375 -1.421875 31.78125 -1.421875 
Q 19.734375 -1.421875 13.25 4.234375 
Q 6.78125 9.90625 6.78125 20.515625 
Q 6.78125 27.484375 10.78125 32.3125 
Q 14.796875 37.15625 21.921875 38.8125 
z
M 18.3125 54.390625 
Q 18.3125 48.734375 21.84375 45.5625 
Q 25.390625 42.390625 31.78125 42.390625 
Q 38.140625 42.390625 41.71875 45.5625 
Q 45.3125 48.734375 45.3125 54.390625 
Q 45.3125 60.0625 41.71875 63.234375 
Q 38.140625 66.40625 31.78125 66.40625 
Q 25.390625 66.40625 21.84375 63.234375 
Q 18.3125 60.0625 18.3125 54.390625 
z
" id="DejaVuSans-38"/>
      </defs>
      <g transform="translate(306.393466 243.037656)scale(0.1 -0.1)">
       <use xlink:href="#DejaVuSans-38"/>
      </g>
     </g>
    </g>
    <g id="xtick_6">
     <g id="line2d_6">
      <g>
       <use style="stroke:#000000;stroke-width:0.8;" x="370.447443" xlink:href="#me45a6bbc82" y="228.439219"/>
      </g>
     </g>
     <g id="text_6">
      <!-- 10 -->
      <defs>
       <path d="M 12.40625 8.296875 
L 28.515625 8.296875 
L 28.515625 63.921875 
L 10.984375 60.40625 
L 10.984375 69.390625 
L 28.421875 72.90625 
L 38.28125 72.90625 
L 38.28125 8.296875 
L 54.390625 8.296875 
L 54.390625 0 
L 12.40625 0 
z
" id="DejaVuSans-31"/>
      </defs>
      <g transform="translate(364.084943 243.037656)scale(0.1 -0.1)">
       <use xlink:href="#DejaVuSans-31"/>
       <use x="63.623047" xlink:href="#DejaVuSans-30"/>
      </g>
     </g>
    </g>
    <g id="text_7">
     <!-- $\tau$ -->
     <defs>
      <path d="M 32.859375 9.96875 
Q 34.1875 7.625 39.453125 7.625 
L 43.75 7.625 
L 42.28125 0 
L 36.921875 0 
Q 28.125 0 25 4.6875 
Q 21.921875 9.46875 23.96875 19.828125 
L 29 45.703125 
L 8.453125 45.703125 
L 10.203125 54.6875 
L 60.640625 54.6875 
L 58.890625 45.703125 
L 38.1875 45.703125 
L 33.015625 19.28125 
Q 31.640625 12.203125 32.859375 9.96875 
z
" id="DejaVuSans-Oblique-3c4"/>
     </defs>
     <g transform="translate(215.215625 256.715781)scale(0.1 -0.1)">
      <use transform="translate(0 0.3125)" xlink:href="#DejaVuSans-Oblique-3c4"/>
     </g>
    </g>
   </g>
   <g id="matplotlib.axis_2">
    <g id="ytick_1">
     <g id="line2d_7">
      <defs>
       <path d="M 0 0 
L -3.5 0 
" id="m2f2e63bd56" style="stroke:#000000;stroke-width:0.8;"/>
      </defs>
      <g>
       <use style="stroke:#000000;stroke-width:0.8;" x="50.865625" xlink:href="#m2f2e63bd56" y="228.439219"/>
      </g>
     </g>
     <g id="text_8">
      <!-- 0.00 -->
      <defs>
       <path d="M 10.6875 12.40625 
L 21 12.40625 
L 21 0 
L 10.6875 0 
z
" id="DejaVuSans-2e"/>
      </defs>
      <g transform="translate(21.6 232.238437)scale(0.1 -0.1)">
       <use xlink:href="#DejaVuSans-30"/>
       <use x="63.623047" xlink:href="#DejaVuSans-2e"/>
       <use x="95.410156" xlink:href="#DejaVuSans-30"/>
       <use x="159.033203" xlink:href="#DejaVuSans-30"/>
      </g>
     </g>
    </g>
    <g id="ytick_2">
     <g id="line2d_8">
      <g>
       <use style="stroke:#000000;stroke-width:0.8;" x="50.865625" xlink:href="#m2f2e63bd56" y="184.951219"/>
      </g>
     </g>
     <g id="text_9">
      <!-- 0.05 -->
      <defs>
       <path d="M 10.796875 72.90625 
L 49.515625 72.90625 
L 49.515625 64.59375 
L 19.828125 64.59375 
L 19.828125 46.734375 
Q 21.96875 47.46875 24.109375 47.828125 
Q 26.265625 48.1875 28.421875 48.1875 
Q 40.625 48.1875 47.75 41.5 
Q 54.890625 34.8125 54.890625 23.390625 
Q 54.890625 11.625 47.5625 5.09375 
Q 40.234375 -1.421875 26.90625 -1.421875 
Q 22.3125 -1.421875 17.546875 -0.640625 
Q 12.796875 0.140625 7.71875 1.703125 
L 7.71875 11.625 
Q 12.109375 9.234375 16.796875 8.0625 
Q 21.484375 6.890625 26.703125 6.890625 
Q 35.15625 6.890625 40.078125 11.328125 
Q 45.015625 15.765625 45.015625 23.390625 
Q 45.015625 31 40.078125 35.4375 
Q 35.15625 39.890625 26.703125 39.890625 
Q 22.75 39.890625 18.8125 39.015625 
Q 14.890625 38.140625 10.796875 36.28125 
z
" id="DejaVuSans-35"/>
      </defs>
      <g transform="translate(21.6 188.750437)scale(0.1 -0.1)">
       <use xlink:href="#DejaVuSans-30"/>
       <use x="63.623047" xlink:href="#DejaVuSans-2e"/>
       <use x="95.410156" xlink:href="#DejaVuSans-30"/>
       <use x="159.033203" xlink:href="#DejaVuSans-35"/>
      </g>
     </g>
    </g>
    <g id="ytick_3">
     <g id="line2d_9">
      <g>
       <use style="stroke:#000000;stroke-width:0.8;" x="50.865625" xlink:href="#m2f2e63bd56" y="141.463219"/>
      </g>
     </g>
     <g id="text_10">
      <!-- 0.10 -->
      <g transform="translate(21.6 145.262437)scale(0.1 -0.1)">
       <use xlink:href="#DejaVuSans-30"/>
       <use x="63.623047" xlink:href="#DejaVuSans-2e"/>
       <use x="95.410156" xlink:href="#DejaVuSans-31"/>
       <use x="159.033203" xlink:href="#DejaVuSans-30"/>
      </g>
     </g>
    </g>
    <g id="ytick_4">
     <g id="line2d_10">
      <g>
       <use style="stroke:#000000;stroke-width:0.8;" x="50.865625" xlink:href="#m2f2e63bd56" y="97.975219"/>
      </g>
     </g>
     <g id="text_11">
      <!-- 0.15 -->
      <g transform="translate(21.6 101.774437)scale(0.1 -0.1)">
       <use xlink:href="#DejaVuSans-30"/>
       <use x="63.623047" xlink:href="#DejaVuSans-2e"/>
       <use x="95.410156" xlink:href="#DejaVuSans-31"/>
       <use x="159.033203" xlink:href="#DejaVuSans-35"/>
      </g>
     </g>
    </g>
    <g id="ytick_5">
     <g id="line2d_11">
      <g>
       <use style="stroke:#000000;stroke-width:0.8;" x="50.865625" xlink:href="#m2f2e63bd56" y="54.487219"/>
      </g>
     </g>
     <g id="text_12">
      <!-- 0.20 -->
      <g transform="translate(21.6 58.286437)scale(0.1 -0.1)">
       <use xlink:href="#DejaVuSans-30"/>
       <use x="63.623047" xlink:href="#DejaVuSans-2e"/>
       <use x="95.410156" xlink:href="#DejaVuSans-32"/>
       <use x="159.033203" xlink:href="#DejaVuSans-30"/>
      </g>
     </g>
    </g>
    <g id="ytick_6">
     <g id="line2d_12">
      <g>
       <use style="stroke:#000000;stroke-width:0.8;" x="50.865625" xlink:href="#m2f2e63bd56" y="10.999219"/>
      </g>
     </g>
     <g id="text_13">
      <!-- 0.25 -->
      <g transform="translate(21.6 14.798437)scale(0.1 -0.1)">
       <use xlink:href="#DejaVuSans-30"/>
       <use x="63.623047" xlink:href="#DejaVuSans-2e"/>
       <use x="95.410156" xlink:href="#DejaVuSans-32"/>
       <use x="159.033203" xlink:href="#DejaVuSans-35"/>
      </g>
     </g>
    </g>
    <g id="text_14">
     <!-- $\chi_{S_z S_z}(\tau)$ -->
     <defs>
      <path d="M 30.03125 -12.203125 
L 26.421875 6.5 
L 6.15625 -20.84375 
L -4.4375 -20.84375 
L 24.265625 17.828125 
L 19.828125 40.828125 
Q 18.65625 46.96875 11.140625 46.96875 
L 8.734375 46.96875 
L 10.203125 54.6875 
L 13.625 54.59375 
Q 26.171875 54.25 27.734375 46.09375 
L 31.34375 27.390625 
L 51.609375 54.734375 
L 62.203125 54.734375 
L 33.5 16.0625 
L 37.9375 -6.9375 
Q 39.109375 -13.09375 46.625 -13.09375 
L 49.03125 -13.09375 
L 47.5625 -20.796875 
L 44.140625 -20.703125 
Q 31.59375 -20.359375 30.03125 -12.203125 
z
" id="DejaVuSans-Oblique-3c7"/>
      <path d="M 60.296875 70.515625 
L 58.40625 60.890625 
Q 53.46875 63.53125 48.609375 64.875 
Q 43.75 66.21875 39.203125 66.21875 
Q 30.375 66.21875 25.140625 62.359375 
Q 19.921875 58.5 19.921875 52.09375 
Q 19.921875 48.578125 21.84375 46.703125 
Q 23.78125 44.828125 31.78125 42.671875 
L 37.703125 41.21875 
Q 47.703125 38.625 51.609375 34.640625 
Q 55.515625 30.671875 55.515625 23.484375 
Q 55.515625 12.453125 46.84375 5.515625 
Q 38.1875 -1.421875 24.03125 -1.421875 
Q 18.21875 -1.421875 12.359375 -0.265625 
Q 6.5 0.875 0.59375 3.21875 
L 2.59375 13.375 
Q 8.015625 10.015625 13.453125 8.296875 
Q 18.890625 6.59375 24.3125 6.59375 
Q 33.546875 6.59375 39.109375 10.6875 
Q 44.671875 14.796875 44.671875 21.390625 
Q 44.671875 25.78125 42.453125 28.046875 
Q 40.234375 30.328125 32.90625 32.171875 
L 27 33.6875 
Q 16.890625 36.328125 13.203125 39.765625 
Q 9.515625 43.21875 9.515625 49.421875 
Q 9.515625 60.296875 17.890625 67.25 
Q 26.265625 74.21875 39.703125 74.21875 
Q 44.921875 74.21875 50.046875 73.28125 
Q 55.171875 72.359375 60.296875 70.515625 
z
" id="DejaVuSans-Oblique-53"/>
      <path d="M 11.625 54.6875 
L 54.296875 54.6875 
L 52.6875 46.484375 
L 11.53125 7.171875 
L 45.515625 7.171875 
L 44.09375 0 
L -0.296875 0 
L 1.3125 8.203125 
L 42.484375 47.515625 
L 10.203125 47.515625 
z
" id="DejaVuSans-Oblique-7a"/>
      <path d="M 31 75.875 
Q 24.46875 64.65625 21.28125 53.65625 
Q 18.109375 42.671875 18.109375 31.390625 
Q 18.109375 20.125 21.3125 9.0625 
Q 24.515625 -2 31 -13.1875 
L 23.1875 -13.1875 
Q 15.875 -1.703125 12.234375 9.375 
Q 8.59375 20.453125 8.59375 31.390625 
Q 8.59375 42.28125 12.203125 53.3125 
Q 15.828125 64.359375 23.1875 75.875 
z
" id="DejaVuSans-28"/>
      <path d="M 8.015625 75.875 
L 15.828125 75.875 
Q 23.140625 64.359375 26.78125 53.3125 
Q 30.421875 42.28125 30.421875 31.390625 
Q 30.421875 20.453125 26.78125 9.375 
Q 23.140625 -1.703125 15.828125 -13.1875 
L 8.015625 -13.1875 
Q 14.5 -2 17.703125 9.0625 
Q 20.90625 20.125 20.90625 31.390625 
Q 20.90625 42.671875 17.703125 53.65625 
Q 14.5 64.65625 8.015625 75.875 
z
" id="DejaVuSans-29"/>
     </defs>
     <g transform="translate(14.8 136.969219)rotate(-90)scale(0.1 -0.1)">
      <use transform="translate(0 0.125)" xlink:href="#DejaVuSans-Oblique-3c7"/>
      <use transform="translate(59.179688 -16.28125)scale(0.7)" xlink:href="#DejaVuSans-Oblique-53"/>
      <use transform="translate(103.613281 -27.765625)scale(0.49)" xlink:href="#DejaVuSans-Oblique-7a"/>
      <use transform="translate(131.247559 -16.28125)scale(0.7)" xlink:href="#DejaVuSans-Oblique-53"/>
      <use transform="translate(175.681152 -27.765625)scale(0.49)" xlink:href="#DejaVuSans-Oblique-7a"/>
      <use transform="translate(206.049805 0.125)" xlink:href="#DejaVuSans-28"/>
      <use transform="translate(245.063477 0.125)" xlink:href="#DejaVuSans-Oblique-3c4"/>
      <use transform="translate(305.268555 0.125)" xlink:href="#DejaVuSans-29"/>
     </g>
    </g>
   </g>
   <g id="line2d_13">
    <path clip-path="url(#pb873bfc473)" d="M 66.083807 50.400854 
L 66.846623 52.989993 
L 67.609439 71.011239 
L 68.372255 58.091314 
L 69.135071 67.246591 
L 69.897887 66.477345 
L 70.660704 73.994651 
L 71.42352 76.315825 
L 72.186336 82.049263 
L 72.949152 85.839971 
L 73.711968 77.780409 
L 74.474784 89.805148 
L 75.2376 90.747776 
L 76.000417 87.65425 
L 76.763233 95.769447 
L 77.526049 98.860703 
L 78.288865 98.2452 
L 79.051681 102.078351 
L 79.814497 104.142165 
L 80.577313 109.980641 
L 81.340129 107.272549 
L 82.102946 115.544345 
L 82.865762 112.962473 
L 83.628578 114.191656 
L 84.391394 104.992559 
L 85.15421 112.534369 
L 85.917026 118.047831 
L 86.679842 125.386535 
L 87.442658 120.416259 
L 88.205475 123.899707 
L 88.968291 125.327918 
L 89.731107 125.448791 
L 90.493923 132.293758 
L 91.256739 126.523458 
L 92.019555 129.283593 
L 92.782371 130.026453 
L 93.545188 132.844443 
L 94.308004 137.252432 
L 95.07082 133.600892 
L 96.596452 139.229206 
L 97.359268 131.763068 
L 98.122084 140.13292 
L 98.8849 143.23488 
L 99.647717 142.541849 
L 100.410533 142.865973 
L 101.173349 142.327185 
L 101.936165 147.458059 
L 102.698981 145.723465 
L 103.461797 150.019037 
L 104.224613 149.513984 
L 104.98743 152.393807 
L 105.750246 148.683644 
L 106.513062 148.909106 
L 107.275878 157.926918 
L 108.038694 153.491592 
L 108.80151 153.767382 
L 109.564326 152.415826 
L 110.327142 151.969252 
L 111.089959 154.988081 
L 111.852775 155.840445 
L 112.615591 154.79687 
L 113.378407 159.911192 
L 114.141223 158.892124 
L 114.904039 158.574235 
L 115.666855 163.691186 
L 116.429671 156.025058 
L 117.192488 161.868546 
L 117.955304 172.6043 
L 118.71812 161.817095 
L 119.480936 160.723182 
L 120.243752 153.043543 
L 121.006568 171.235301 
L 121.769384 167.198844 
L 122.532201 167.28677 
L 123.295017 167.143433 
L 124.057833 161.216785 
L 124.820649 169.126171 
L 125.583465 169.723837 
L 126.346281 161.853538 
L 127.109097 167.323854 
L 127.871913 168.520317 
L 128.63473 172.870035 
L 129.397546 168.630133 
L 130.160362 168.774883 
L 130.923178 172.940217 
L 131.685994 168.318055 
L 132.44881 178.264536 
L 133.211626 181.366273 
L 133.974442 178.158306 
L 134.737259 176.842593 
L 135.500075 176.577684 
L 136.262891 172.943093 
L 137.025707 174.908598 
L 137.788523 176.12883 
L 138.551339 176.326093 
L 139.314155 178.993727 
L 140.076972 180.890935 
L 140.839788 179.274179 
L 141.602604 179.524692 
L 142.36542 178.733357 
L 143.128236 175.884929 
L 143.891052 176.76003 
L 144.653868 182.364464 
L 145.416684 179.844908 
L 146.179501 181.422706 
L 146.942317 176.092768 
L 147.705133 183.842247 
L 148.467949 179.723386 
L 149.230765 176.885259 
L 149.993581 180.407204 
L 150.756397 183.101104 
L 151.519214 181.549401 
L 152.28203 186.844319 
L 153.044846 180.395096 
L 153.807662 181.465869 
L 154.570478 184.321208 
L 155.333294 183.886088 
L 156.09611 185.118319 
L 156.858926 184.603077 
L 157.621743 184.311368 
L 158.384559 183.73099 
L 159.147375 185.553581 
L 159.910191 188.506051 
L 160.673007 182.820379 
L 161.435823 178.335835 
L 162.198639 184.279762 
L 162.961455 183.596124 
L 163.724272 188.822116 
L 164.487088 189.53619 
L 165.249904 186.183171 
L 166.01272 181.43668 
L 166.775536 179.207078 
L 167.538352 192.009574 
L 168.301168 190.204503 
L 169.063985 185.315035 
L 169.826801 193.353497 
L 170.589617 190.966424 
L 171.352433 192.645988 
L 172.115249 187.268643 
L 172.878065 187.775624 
L 173.640881 194.143303 
L 174.403697 186.912079 
L 175.166514 188.814789 
L 175.92933 192.017187 
L 176.692146 188.646309 
L 177.454962 191.177577 
L 178.217778 188.646166 
L 178.980594 196.175587 
L 179.74341 186.17315 
L 180.506227 188.383525 
L 181.269043 189.088247 
L 182.031859 195.342854 
L 182.794675 198.023585 
L 183.557491 194.209789 
L 184.320307 199.0392 
L 185.083123 192.017876 
L 185.845939 191.447368 
L 186.608756 191.022401 
L 187.371572 191.789104 
L 188.134388 186.357009 
L 188.897204 199.235885 
L 189.66002 189.232795 
L 190.422836 199.470051 
L 191.185652 192.862856 
L 191.948468 192.819721 
L 192.711285 188.451022 
L 193.474101 195.964112 
L 194.236917 193.452925 
L 194.999733 193.530508 
L 195.762549 189.914843 
L 196.525365 193.842218 
L 197.288181 187.513946 
L 198.050998 193.014066 
L 198.813814 194.22802 
L 199.57663 192.463022 
L 200.339446 197.716651 
L 201.102262 196.722809 
L 201.865078 194.283269 
L 202.627894 196.602687 
L 203.39071 187.385168 
L 204.153527 197.374964 
L 204.916343 193.928044 
L 205.679159 191.610064 
L 206.441975 194.560374 
L 207.204791 192.742318 
L 207.967607 199.404738 
L 208.730423 191.218943 
L 209.493239 188.965878 
L 210.256056 195.373324 
L 211.018872 197.163065 
L 211.781688 197.555696 
L 212.544504 190.9749 
L 213.30732 197.665776 
L 214.070136 195.541076 
L 214.832952 195.112338 
L 215.595769 195.632465 
L 216.358585 192.825843 
L 217.121401 186.02913 
L 217.884217 193.109102 
L 218.647033 189.47837 
L 219.409849 190.112762 
L 220.935481 199.863852 
L 221.698298 196.475622 
L 222.461114 190.446206 
L 223.22393 191.614538 
L 223.986746 194.17934 
L 224.749562 192.566696 
L 225.512378 197.157573 
L 226.275194 193.840547 
L 227.038011 193.346303 
L 227.800827 195.467918 
L 228.563643 184.877665 
L 230.089275 199.498831 
L 230.852091 194.529842 
L 231.614907 197.83532 
L 232.377723 199.099341 
L 233.14054 193.57004 
L 233.903356 193.281235 
L 234.666172 193.180473 
L 235.428988 194.414242 
L 236.191804 193.475466 
L 236.95462 190.057565 
L 237.717436 194.705788 
L 238.480252 190.31202 
L 239.243069 196.611944 
L 240.005885 191.699632 
L 240.768701 193.378698 
L 241.531517 185.857035 
L 242.294333 188.143314 
L 243.057149 193.308634 
L 243.819965 192.759039 
L 244.582782 194.603365 
L 245.345598 192.271962 
L 246.108414 193.364242 
L 246.87123 191.669547 
L 247.634046 192.573439 
L 248.396862 193.819855 
L 249.159678 187.372006 
L 249.922494 186.18304 
L 250.685311 190.479868 
L 251.448127 191.035347 
L 252.210943 185.749017 
L 253.736575 195.348072 
L 254.499391 191.868339 
L 255.262207 185.644483 
L 256.025023 193.535235 
L 256.78784 188.906925 
L 257.550656 189.805135 
L 258.313472 194.263979 
L 259.076288 184.067292 
L 259.839104 191.31887 
L 260.60192 190.891152 
L 261.364736 189.948518 
L 262.127553 183.647894 
L 262.890369 190.458119 
L 263.653185 187.323549 
L 264.416001 189.049603 
L 265.178817 191.953482 
L 265.941633 191.576758 
L 266.704449 187.982842 
L 267.467265 187.373441 
L 268.230082 188.06211 
L 268.992898 190.568533 
L 269.755714 189.142774 
L 270.51853 189.682496 
L 271.281346 186.185823 
L 272.044162 188.271507 
L 272.806978 186.755378 
L 273.569795 185.687377 
L 274.332611 186.693796 
L 275.095427 189.716122 
L 275.858243 178.175437 
L 276.621059 187.197994 
L 277.383875 185.467198 
L 278.146691 181.360284 
L 278.909507 182.192469 
L 279.672324 180.286136 
L 280.43514 188.57652 
L 281.197956 184.412737 
L 281.960772 185.815915 
L 282.723588 185.177386 
L 283.486404 182.284026 
L 284.24922 180.777964 
L 285.012036 185.230463 
L 285.774853 184.667778 
L 286.537669 180.529337 
L 287.300485 186.910847 
L 288.063301 180.427639 
L 288.826117 183.733939 
L 289.588933 178.666245 
L 290.351749 176.26961 
L 291.114566 181.664277 
L 291.877382 178.538767 
L 292.640198 187.314218 
L 293.403014 183.472233 
L 294.16583 184.362169 
L 294.928646 174.337862 
L 295.691462 183.207844 
L 296.454278 175.50268 
L 297.217095 180.57789 
L 297.979911 181.152708 
L 298.742727 183.743098 
L 299.505543 175.604835 
L 300.268359 177.924592 
L 301.031175 173.933917 
L 301.793991 173.580955 
L 302.556808 168.740167 
L 303.319624 175.924495 
L 304.08244 172.517127 
L 304.845256 174.834208 
L 305.608072 172.139703 
L 306.370888 174.573719 
L 307.133704 172.184366 
L 307.89652 172.121377 
L 308.659337 169.004044 
L 309.422153 167.890848 
L 310.184969 170.791418 
L 310.947785 164.391544 
L 311.710601 171.738884 
L 312.473417 173.585959 
L 313.236233 167.47347 
L 314.761866 164.281 
L 315.524682 167.000339 
L 316.287498 164.863341 
L 317.050314 163.574896 
L 317.81313 166.26673 
L 318.575946 160.615603 
L 319.338762 160.490459 
L 320.101579 158.452771 
L 320.864395 162.759126 
L 321.627211 163.809128 
L 322.390027 158.501364 
L 323.152843 162.273673 
L 323.915659 157.508652 
L 324.678475 149.073108 
L 325.441291 159.679973 
L 326.204108 152.588375 
L 326.966924 155.729862 
L 327.72974 155.880245 
L 328.492556 149.559885 
L 329.255372 151.071173 
L 330.018188 151.707207 
L 330.781004 147.749124 
L 331.54382 148.739042 
L 332.306637 146.280596 
L 333.069453 151.214577 
L 333.832269 139.079484 
L 334.595085 144.981413 
L 335.357901 154.327696 
L 336.120717 137.549736 
L 336.883533 144.89823 
L 337.64635 138.070932 
L 338.409166 138.093239 
L 339.171982 144.220479 
L 339.934798 130.747709 
L 340.697614 138.720891 
L 341.46043 141.069512 
L 342.223246 134.011132 
L 342.986062 129.69791 
L 343.748879 137.361049 
L 344.511695 130.210136 
L 345.274511 125.51988 
L 346.037327 130.936257 
L 346.800143 124.255044 
L 347.562959 123.871829 
L 349.088592 116.937932 
L 349.851408 123.115545 
L 350.614224 117.290976 
L 351.37704 120.281474 
L 352.139856 111.40819 
L 352.902672 116.998436 
L 353.665488 112.749826 
L 354.428304 105.306878 
L 355.191121 109.046357 
L 355.953937 105.084373 
L 356.716753 104.724541 
L 357.479569 92.187687 
L 358.242385 97.458166 
L 359.005201 98.728954 
L 359.768017 92.07994 
L 360.530833 91.615096 
L 361.29365 89.102536 
L 362.056466 84.592284 
L 362.819282 81.235304 
L 363.582098 84.525081 
L 364.344914 74.989017 
L 365.10773 68.814336 
L 365.870546 69.856055 
L 366.633363 74.908097 
L 367.396179 66.686401 
L 368.158995 64.625 
L 368.921811 63.841875 
L 369.684627 55.256908 
L 370.447443 50.400854 
L 370.447443 50.400854 
" style="fill:none;stroke:#1f77b4;stroke-linecap:square;stroke-width:1.5;"/>
   </g>
   <g id="patch_3">
    <path d="M 50.865625 228.439219 
L 50.865625 10.999219 
" style="fill:none;stroke:#000000;stroke-linecap:square;stroke-linejoin:miter;stroke-width:0.8;"/>
   </g>
   <g id="patch_4">
    <path d="M 385.665625 228.439219 
L 385.665625 10.999219 
" style="fill:none;stroke:#000000;stroke-linecap:square;stroke-linejoin:miter;stroke-width:0.8;"/>
   </g>
   <g id="patch_5">
    <path d="M 50.865625 228.439219 
L 385.665625 228.439219 
" style="fill:none;stroke:#000000;stroke-linecap:square;stroke-linejoin:miter;stroke-width:0.8;"/>
   </g>
   <g id="patch_6">
    <path d="M 50.865625 10.999219 
L 385.665625 10.999219 
" style="fill:none;stroke:#000000;stroke-linecap:square;stroke-linejoin:miter;stroke-width:0.8;"/>
   </g>
   <g id="legend_1">
    <g id="patch_7">
     <path d="M 327.214063 33.677344 
L 378.665625 33.677344 
Q 380.665625 33.677344 380.665625 31.677344 
L 380.665625 17.999219 
Q 380.665625 15.999219 378.665625 15.999219 
L 327.214063 15.999219 
Q 325.214063 15.999219 325.214063 17.999219 
L 325.214063 31.677344 
Q 325.214063 33.677344 327.214063 33.677344 
z
" style="fill:#ffffff;opacity:0.8;stroke:#cccccc;stroke-linejoin:miter;"/>
    </g>
    <g id="line2d_14">
     <path d="M 329.214063 24.097656 
L 349.214063 24.097656 
" style="fill:none;stroke:#1f77b4;stroke-linecap:square;stroke-width:1.5;"/>
    </g>
    <g id="line2d_15"/>
    <g id="text_15">
     <!-- Re   -->
     <defs>
      <path d="M 44.390625 34.1875 
Q 47.5625 33.109375 50.5625 29.59375 
Q 53.5625 26.078125 56.59375 19.921875 
L 66.609375 0 
L 56 0 
L 46.6875 18.703125 
Q 43.0625 26.03125 39.671875 28.421875 
Q 36.28125 30.8125 30.421875 30.8125 
L 19.671875 30.8125 
L 19.671875 0 
L 9.8125 0 
L 9.8125 72.90625 
L 32.078125 72.90625 
Q 44.578125 72.90625 50.734375 67.671875 
Q 56.890625 62.453125 56.890625 51.90625 
Q 56.890625 45.015625 53.6875 40.46875 
Q 50.484375 35.9375 44.390625 34.1875 
z
M 19.671875 64.796875 
L 19.671875 38.921875 
L 32.078125 38.921875 
Q 39.203125 38.921875 42.84375 42.21875 
Q 46.484375 45.515625 46.484375 51.90625 
Q 46.484375 58.296875 42.84375 61.546875 
Q 39.203125 64.796875 32.078125 64.796875 
z
" id="DejaVuSans-52"/>
      <path d="M 56.203125 29.59375 
L 56.203125 25.203125 
L 14.890625 25.203125 
Q 15.484375 15.921875 20.484375 11.0625 
Q 25.484375 6.203125 34.421875 6.203125 
Q 39.59375 6.203125 44.453125 7.46875 
Q 49.3125 8.734375 54.109375 11.28125 
L 54.109375 2.78125 
Q 49.265625 0.734375 44.1875 -0.34375 
Q 39.109375 -1.421875 33.890625 -1.421875 
Q 20.796875 -1.421875 13.15625 6.1875 
Q 5.515625 13.8125 5.515625 26.8125 
Q 5.515625 40.234375 12.765625 48.109375 
Q 20.015625 56 32.328125 56 
Q 43.359375 56 49.78125 48.890625 
Q 56.203125 41.796875 56.203125 29.59375 
z
M 47.21875 32.234375 
Q 47.125 39.59375 43.09375 43.984375 
Q 39.0625 48.390625 32.421875 48.390625 
Q 24.90625 48.390625 20.390625 44.140625 
Q 15.875 39.890625 15.1875 32.171875 
z
" id="DejaVuSans-65"/>
      <path id="DejaVuSans-20"/>
     </defs>
     <g transform="translate(357.214063 27.597656)scale(0.1 -0.1)">
      <use xlink:href="#DejaVuSans-52"/>
      <use x="69.419922" xlink:href="#DejaVuSans-65"/>
      <use x="130.943359" xlink:href="#DejaVuSans-20"/>
      <use x="162.730469" xlink:href="#DejaVuSans-20"/>
     </g>
    </g>
   </g>
  </g>
 </g>
 <defs>
  <clipPath id="pb873bfc473">
   <rect height="217.44" width="334.8" x="50.865625" y="10.999219"/>
  </clipPath>
 </defs>
</svg>
