<svg xmlns="http://www.w3.org/2000/svg" viewBox="0 0 64 64" role="img" aria-label="Triqs XCA favicon"><g transform="translate(-1,2)"><path d="M20.50,19.98 L20.83,20.38 L21.17,20.77 L21.50,21.14 L21.83,21.50 L22.17,21.85 L22.50,22.18 L22.83,22.50 L23.17,22.81 L23.50,23.10 L23.83,23.38 L24.17,23.65 L24.50,23.91 L24.83,24.16 L25.17,24.39 L25.50,24.62" fill="none" stroke="#1067bf" stroke-width="3.6" stroke-linecap="butt"/><path d="M30.50,26.74 L30.83,26.81 L31.17,26.86 L31.50,26.91 L31.83,26.94 L32.17,26.97 L32.50,26.99 L32.83,27.00 L33.17,27.00 L33.50,26.99 L33.83,26.97 L34.17,26.94 L34.50,26.91 L34.83,26.86 L35.17,26.81 L35.50,26.74" fill="none" stroke="#1067bf" stroke-width="3.6" stroke-linecap="butt"/><path d="M40.50,24.62 L40.83,24.39 L41.17,24.16 L41.50,23.91 L41.83,23.65 L42.17,23.38 L42.50,23.10 L42.83,22.81 L43.17,22.50 L43.50,22.18 L43.83,21.85 L44.17,21.50 L44.50,21.14 L44.83,20.77 L45.17,20.38 L45.50,19.98" fill="none" stroke="#1067bf" stroke-width="3.6" stroke-linecap="butt"/><path d="M12,10 C20,34 30,46 54,50" fill="none" stroke="#1067bf" stroke-width="6.4" stroke-linecap="round"/><path d="M12,50 C36,46 46,34 54,10" fill="none" stroke="#1067bf" stroke-width="6.4" stroke-linecap="round"/></g></svg>
