<svg xmlns="http://www.w3.org/2000/svg" viewBox="0 0 311.3 72" role="img" aria-label="Triqs XCA logo">
<g transform="translate(0,4.00)"><path d="M20.50,19.98 L20.83,20.38 L21.17,20.77 L21.50,21.14 L21.83,21.50 L22.17,21.85 L22.50,22.18 L22.83,22.50 L23.17,22.81 L23.50,23.10 L23.83,23.38 L24.17,23.65 L24.50,23.91 L24.83,24.16 L25.17,24.39 L25.50,24.62" fill="none" stroke="#000000" stroke-width="3.6" stroke-linecap="butt"/><path d="M30.50,26.74 L30.83,26.81 L31.17,26.86 L31.50,26.91 L31.83,26.94 L32.17,26.97 L32.50,26.99 L32.83,27.00 L33.17,27.00 L33.50,26.99 L33.83,26.97 L34.17,26.94 L34.50,26.91 L34.83,26.86 L35.17,26.81 L35.50,26.74" fill="none" stroke="#000000" stroke-width="3.6" stroke-linecap="butt"/><path d="M40.50,24.62 L40.83,24.39 L41.17,24.16 L41.50,23.91 L41.83,23.65 L42.17,23.38 L42.50,23.10 L42.83,22.81 L43.17,22.50 L43.50,22.18 L43.83,21.85 L44.17,21.50 L44.50,21.14 L44.83,20.77 L45.17,20.38 L45.50,19.98" fill="none" stroke="#000000" stroke-width="3.6" stroke-linecap="butt"/><path d="M12,10 C20,34 30,46 54,50" fill="none" stroke="#000000" stroke-width="6.4" stroke-linecap="round"/><path d="M12,50 C36,46 46,34 54,10" fill="none" stroke="#000000" stroke-width="6.4" stroke-linecap="round"/></g>
<g transform="translate(82.00,52.03) scale(0.04600)" fill="#000000"><path d="M524 -695V-602H339V0H225V-602H39V-695Z M923 -560V-442H894Q827 -442 792.5 -408.0Q758 -374 758 -290V0H644V-551H758V-471Q783 -513 824.5 -536.5Q866 -560 923 -560Z M1018 -697Q1018 -728 1039.0 -749.0Q1060 -770 1091 -770Q1121 -770 1142.0 -749.0Q1163 -728 1163 -697Q1163 -666 1142.0 -645.0Q1121 -624 1091 -624Q1060 -624 1039.0 -645.0Q1018 -666 1018 -697ZM1147 -551V0H1033V-551Z M1525 -560Q1589 -560 1638.5 -534.0Q1688 -508 1715 -471V-551H1830V262H1715V-80Q1688 -43 1637.0 -17.0Q1586 9 1521 9Q1450 9 1391.5 -27.5Q1333 -64 1298.5 -129.5Q1264 -195 1264 -278Q1264 -361 1298.5 -425.0Q1333 -489 1392.5 -524.5Q1452 -560 1525 -560ZM1548 -461Q1504 -461 1466.0 -439.5Q1428 -418 1404.5 -376.5Q1381 -335 1381 -278Q1381 -221 1404.5 -178.0Q1428 -135 1466.5 -112.5Q1505 -90 1548 -90Q1592 -90 1630.0 -112.0Q1668 -134 1691.5 -176.5Q1715 -219 1715 -276Q1715 -333 1691.5 -375.0Q1668 -417 1630.0 -439.0Q1592 -461 1548 -461Z M1955 -169H2073Q2076 -134 2106.5 -110.5Q2137 -87 2183 -87Q2231 -87 2257.5 -105.5Q2284 -124 2284 -153Q2284 -184 2254.5 -199.0Q2225 -214 2161 -232Q2099 -249 2060.0 -265.0Q2021 -281 1992.5 -314.0Q1964 -347 1964 -401Q1964 -445 1990.0 -481.5Q2016 -518 2064.5 -539.0Q2113 -560 2176 -560Q2270 -560 2327.5 -512.5Q2385 -465 2389 -383H2275Q2272 -420 2245.0 -442.0Q2218 -464 2172 -464Q2127 -464 2103.0 -447.0Q2079 -430 2079 -402Q2079 -380 2095.0 -365.0Q2111 -350 2134.0 -341.5Q2157 -333 2202 -320Q2262 -304 2300.5 -287.5Q2339 -271 2367.0 -239.0Q2395 -207 2396 -154Q2396 -107 2370.0 -70.0Q2344 -33 2296.5 -12.0Q2249 9 2185 9Q2120 9 2068.5 -14.5Q2017 -38 1987.0 -78.5Q1957 -119 1955 -169Z M3103 -347 3319 0H3191L3034 -252L2887 0H2760L2976 -347L2759 -695H2887L3045 -441L3193 -695H3320Z M3766 -704Q3877 -704 3963.5 -649.5Q4050 -595 4089 -495H3952Q3925 -550 3877.0 -577.0Q3829 -604 3766 -604Q3697 -604 3643.0 -573.0Q3589 -542 3558.5 -484.0Q3528 -426 3528 -349Q3528 -272 3558.5 -214.0Q3589 -156 3643.0 -124.5Q3697 -93 3766 -93Q3829 -93 3877.0 -120.0Q3925 -147 3952 -202H4089Q4050 -102 3963.5 -48.0Q3877 6 3766 6Q3668 6 3587.0 -39.5Q3506 -85 3458.5 -166.0Q3411 -247 3411 -349Q3411 -451 3458.5 -532.0Q3506 -613 3587.5 -658.5Q3669 -704 3766 -704Z M4646 -142H4355L4305 0H4186L4435 -696H4567L4816 0H4696ZM4614 -235 4501 -558 4387 -235Z"/></g>
</svg>
