<?xml version="1.0" encoding="utf-8" standalone="no"?>
<!DOCTYPE svg PUBLIC "-//W3C//DTD SVG 1.1//EN"
  "http://www.w3.org/Graphics/SVG/1.1/DTD/svg11.dtd">
<svg xmlns:xlink="http://www.w3.org/1999/xlink" width="407.745pt" height="325.98825pt" viewBox="0 0 407.745 325.98825" xmlns="http://www.w3.org/2000/svg" version="1.1">
 <metadata>
  <rdf:RDF xmlns:dc="http://purl.org/dc/elements/1.1/" xmlns:cc="http://creativecommons.org/ns#" xmlns:rdf="http://www.w3.org/1999/02/22-rdf-syntax-ns#">
   <cc:Work>
    <dc:type rdf:resource="http://purl.org/dc/dcmitype/StillImage"/>
    <dc:date>2023-08-28T17:31:48.395314</dc:date>
    <dc:format>image/svg+xml</dc:format>
    <dc:creator>
     <cc:Agent>
      <dc:title>Matplotlib v3.7.1, https://matplotlib.org/</dc:title>
     </cc:Agent>
    </dc:creator>
   </cc:Work>
  </rdf:RDF>
 </metadata>
 <defs>
  <style type="text/css">*{stroke-linejoin: round; stroke-linecap: butt}</style>
 </defs>
 <g id="figure_1">
  <g id="patch_1">
   <path d="M 0 325.98825 
L 407.745 325.98825 
L 407.745 0 
L 0 0 
z
" style="fill: #ffffff"/>
  </g>
  <g id="axes_1">
   <g id="patch_2">
    <path d="M 40.625 288.432 
L 397.745 288.432 
L 397.745 22.32 
L 40.625 22.32 
z
" style="fill: #ffffff"/>
   </g>
   <g id="matplotlib.axis_1">
    <g id="xtick_1">
     <g id="line2d_1">
      <path d="M 40.625 288.432 
L 40.625 22.32 
" clip-path="url(#p865f2399fa)" style="fill: none; stroke: #b0b0b0; stroke-width: 0.8; stroke-linecap: square"/>
     </g>
     <g id="line2d_2">
      <defs>
       <path id="m4e8346ecab" d="M 0 0 
L 0 3.5 
" style="stroke: #000000; stroke-width: 0.8"/>
      </defs>
      <g>
       <use xlink:href="#m4e8346ecab" x="40.625" y="288.432" style="stroke: #000000; stroke-width: 0.8"/>
      </g>
     </g>
     <g id="text_1">
      <!-- $\Gamma$ -->
      <g transform="translate(37.825 303.030437) scale(0.1 -0.1)">
       <defs>
        <path id="DejaVuSans-393" d="M 628 0 
L 628 4666 
L 3531 4666 
L 3531 4134 
L 1259 4134 
L 1259 0 
L 628 0 
z
" transform="scale(0.015625)"/>
       </defs>
       <use xlink:href="#DejaVuSans-393" transform="translate(0 0.09375)"/>
      </g>
     </g>
    </g>
    <g id="xtick_2">
     <g id="line2d_3">
      <path d="M 159.665 288.432 
L 159.665 22.32 
" clip-path="url(#p865f2399fa)" style="fill: none; stroke: #b0b0b0; stroke-width: 0.8; stroke-linecap: square"/>
     </g>
     <g id="line2d_4">
      <g>
       <use xlink:href="#m4e8346ecab" x="159.665" y="288.432" style="stroke: #000000; stroke-width: 0.8"/>
      </g>
     </g>
     <g id="text_2">
      <!-- $X$ -->
      <g transform="translate(156.215 303.030437) scale(0.1 -0.1)">
       <defs>
        <path id="DejaVuSans-Oblique-58" d="M 878 4666 
L 1516 4666 
L 2316 2981 
L 3763 4666 
L 4500 4666 
L 2578 2438 
L 3738 0 
L 3103 0 
L 2163 1966 
L 459 0 
L -275 0 
L 1906 2509 
L 878 4666 
z
" transform="scale(0.015625)"/>
       </defs>
       <use xlink:href="#DejaVuSans-Oblique-58" transform="translate(0 0.09375)"/>
      </g>
     </g>
    </g>
    <g id="xtick_3">
     <g id="line2d_5">
      <path d="M 278.705 288.432 
L 278.705 22.32 
" clip-path="url(#p865f2399fa)" style="fill: none; stroke: #b0b0b0; stroke-width: 0.8; stroke-linecap: square"/>
     </g>
     <g id="line2d_6">
      <g>
       <use xlink:href="#m4e8346ecab" x="278.705" y="288.432" style="stroke: #000000; stroke-width: 0.8"/>
      </g>
     </g>
     <g id="text_3">
      <!-- $M$ -->
      <g transform="translate(274.355 303.030437) scale(0.1 -0.1)">
       <defs>
        <path id="DejaVuSans-Oblique-4d" d="M 1081 4666 
L 2028 4666 
L 2572 1522 
L 4378 4666 
L 5350 4666 
L 4441 0 
L 3828 0 
L 4622 4091 
L 2791 897 
L 2175 897 
L 1581 4103 
L 788 0 
L 172 0 
L 1081 4666 
z
" transform="scale(0.015625)"/>
       </defs>
       <use xlink:href="#DejaVuSans-Oblique-4d" transform="translate(0 0.09375)"/>
      </g>
     </g>
    </g>
    <g id="xtick_4">
     <g id="line2d_7">
      <path d="M 397.745 288.432 
L 397.745 22.32 
" clip-path="url(#p865f2399fa)" style="fill: none; stroke: #b0b0b0; stroke-width: 0.8; stroke-linecap: square"/>
     </g>
     <g id="line2d_8">
      <g>
       <use xlink:href="#m4e8346ecab" x="397.745" y="288.432" style="stroke: #000000; stroke-width: 0.8"/>
      </g>
     </g>
     <g id="text_4">
      <!-- $\Gamma$ -->
      <g transform="translate(394.945 303.030437) scale(0.1 -0.1)">
       <use xlink:href="#DejaVuSans-393" transform="translate(0 0.09375)"/>
      </g>
     </g>
    </g>
    <g id="text_5">
     <!-- $\mathbf{q}$ -->
     <g transform="translate(215.585 316.68825) scale(0.1 -0.1)">
      <defs>
       <path id="DejaVuSans-Bold-71" d="M 2181 2772 
Q 1825 2772 1636 2509 
Q 1447 2247 1447 1747 
Q 1447 1247 1636 984 
Q 1825 722 2181 722 
Q 2541 722 2730 984 
Q 2919 1247 2919 1747 
Q 2919 2247 2730 2509 
Q 2541 2772 2181 2772 
z
M 2919 506 
Q 2688 197 2409 53 
Q 2131 -91 1766 -91 
Q 1119 -91 703 423 
Q 288 938 288 1747 
Q 288 2556 703 3067 
Q 1119 3578 1766 3578 
Q 2131 3578 2409 3434 
Q 2688 3291 2919 2981 
L 2919 3500 
L 4044 3500 
L 4044 -1331 
L 2919 -1331 
L 2919 506 
z
" transform="scale(0.015625)"/>
      </defs>
      <use xlink:href="#DejaVuSans-Bold-71" transform="translate(0 0.09375)"/>
     </g>
    </g>
   </g>
   <g id="matplotlib.axis_2">
    <g id="ytick_1">
     <g id="line2d_9">
      <path d="M 40.625 286.69268 
L 397.745 286.69268 
" clip-path="url(#p865f2399fa)" style="fill: none; stroke: #b0b0b0; stroke-width: 0.8; stroke-linecap: square"/>
     </g>
     <g id="line2d_10">
      <defs>
       <path id="m413d56a5ff" d="M 0 0 
L -3.5 0 
" style="stroke: #000000; stroke-width: 0.8"/>
      </defs>
      <g>
       <use xlink:href="#m413d56a5ff" x="40.625" y="286.69268" style="stroke: #000000; stroke-width: 0.8"/>
      </g>
     </g>
     <g id="text_6">
      <!-- 0 -->
      <g transform="translate(27.2625 290.491899) scale(0.1 -0.1)">
       <defs>
        <path id="DejaVuSans-30" d="M 2034 4250 
Q 1547 4250 1301 3770 
Q 1056 3291 1056 2328 
Q 1056 1369 1301 889 
Q 1547 409 2034 409 
Q 2525 409 2770 889 
Q 3016 1369 3016 2328 
Q 3016 3291 2770 3770 
Q 2525 4250 2034 4250 
z
M 2034 4750 
Q 2819 4750 3233 4129 
Q 3647 3509 3647 2328 
Q 3647 1150 3233 529 
Q 2819 -91 2034 -91 
Q 1250 -91 836 529 
Q 422 1150 422 2328 
Q 422 3509 836 4129 
Q 1250 4750 2034 4750 
z
" transform="scale(0.015625)"/>
       </defs>
       <use xlink:href="#DejaVuSans-30"/>
      </g>
     </g>
    </g>
    <g id="ytick_2">
     <g id="line2d_11">
      <path d="M 40.625 241.559905 
L 397.745 241.559905 
" clip-path="url(#p865f2399fa)" style="fill: none; stroke: #b0b0b0; stroke-width: 0.8; stroke-linecap: square"/>
     </g>
     <g id="line2d_12">
      <g>
       <use xlink:href="#m413d56a5ff" x="40.625" y="241.559905" style="stroke: #000000; stroke-width: 0.8"/>
      </g>
     </g>
     <g id="text_7">
      <!-- 2 -->
      <g transform="translate(27.2625 245.359124) scale(0.1 -0.1)">
       <defs>
        <path id="DejaVuSans-32" d="M 1228 531 
L 3431 531 
L 3431 0 
L 469 0 
L 469 531 
Q 828 903 1448 1529 
Q 2069 2156 2228 2338 
Q 2531 2678 2651 2914 
Q 2772 3150 2772 3378 
Q 2772 3750 2511 3984 
Q 2250 4219 1831 4219 
Q 1534 4219 1204 4116 
Q 875 4013 500 3803 
L 500 4441 
Q 881 4594 1212 4672 
Q 1544 4750 1819 4750 
Q 2544 4750 2975 4387 
Q 3406 4025 3406 3419 
Q 3406 3131 3298 2873 
Q 3191 2616 2906 2266 
Q 2828 2175 2409 1742 
Q 1991 1309 1228 531 
z
" transform="scale(0.015625)"/>
       </defs>
       <use xlink:href="#DejaVuSans-32"/>
      </g>
     </g>
    </g>
    <g id="ytick_3">
     <g id="line2d_13">
      <path d="M 40.625 196.427129 
L 397.745 196.427129 
" clip-path="url(#p865f2399fa)" style="fill: none; stroke: #b0b0b0; stroke-width: 0.8; stroke-linecap: square"/>
     </g>
     <g id="line2d_14">
      <g>
       <use xlink:href="#m413d56a5ff" x="40.625" y="196.427129" style="stroke: #000000; stroke-width: 0.8"/>
      </g>
     </g>
     <g id="text_8">
      <!-- 4 -->
      <g transform="translate(27.2625 200.226348) scale(0.1 -0.1)">
       <defs>
        <path id="DejaVuSans-34" d="M 2419 4116 
L 825 1625 
L 2419 1625 
L 2419 4116 
z
M 2253 4666 
L 3047 4666 
L 3047 1625 
L 3713 1625 
L 3713 1100 
L 3047 1100 
L 3047 0 
L 2419 0 
L 2419 1100 
L 313 1100 
L 313 1709 
L 2253 4666 
z
" transform="scale(0.015625)"/>
       </defs>
       <use xlink:href="#DejaVuSans-34"/>
      </g>
     </g>
    </g>
    <g id="ytick_4">
     <g id="line2d_15">
      <path d="M 40.625 151.294354 
L 397.745 151.294354 
" clip-path="url(#p865f2399fa)" style="fill: none; stroke: #b0b0b0; stroke-width: 0.8; stroke-linecap: square"/>
     </g>
     <g id="line2d_16">
      <g>
       <use xlink:href="#m413d56a5ff" x="40.625" y="151.294354" style="stroke: #000000; stroke-width: 0.8"/>
      </g>
     </g>
     <g id="text_9">
      <!-- 6 -->
      <g transform="translate(27.2625 155.093573) scale(0.1 -0.1)">
       <defs>
        <path id="DejaVuSans-36" d="M 2113 2584 
Q 1688 2584 1439 2293 
Q 1191 2003 1191 1497 
Q 1191 994 1439 701 
Q 1688 409 2113 409 
Q 2538 409 2786 701 
Q 3034 994 3034 1497 
Q 3034 2003 2786 2293 
Q 2538 2584 2113 2584 
z
M 3366 4563 
L 3366 3988 
Q 3128 4100 2886 4159 
Q 2644 4219 2406 4219 
Q 1781 4219 1451 3797 
Q 1122 3375 1075 2522 
Q 1259 2794 1537 2939 
Q 1816 3084 2150 3084 
Q 2853 3084 3261 2657 
Q 3669 2231 3669 1497 
Q 3669 778 3244 343 
Q 2819 -91 2113 -91 
Q 1303 -91 875 529 
Q 447 1150 447 2328 
Q 447 3434 972 4092 
Q 1497 4750 2381 4750 
Q 2619 4750 2861 4703 
Q 3103 4656 3366 4563 
z
" transform="scale(0.015625)"/>
       </defs>
       <use xlink:href="#DejaVuSans-36"/>
      </g>
     </g>
    </g>
    <g id="ytick_5">
     <g id="line2d_17">
      <path d="M 40.625 106.161578 
L 397.745 106.161578 
" clip-path="url(#p865f2399fa)" style="fill: none; stroke: #b0b0b0; stroke-width: 0.8; stroke-linecap: square"/>
     </g>
     <g id="line2d_18">
      <g>
       <use xlink:href="#m413d56a5ff" x="40.625" y="106.161578" style="stroke: #000000; stroke-width: 0.8"/>
      </g>
     </g>
     <g id="text_10">
      <!-- 8 -->
      <g transform="translate(27.2625 109.960797) scale(0.1 -0.1)">
       <defs>
        <path id="DejaVuSans-38" d="M 2034 2216 
Q 1584 2216 1326 1975 
Q 1069 1734 1069 1313 
Q 1069 891 1326 650 
Q 1584 409 2034 409 
Q 2484 409 2743 651 
Q 3003 894 3003 1313 
Q 3003 1734 2745 1975 
Q 2488 2216 2034 2216 
z
M 1403 2484 
Q 997 2584 770 2862 
Q 544 3141 544 3541 
Q 544 4100 942 4425 
Q 1341 4750 2034 4750 
Q 2731 4750 3128 4425 
Q 3525 4100 3525 3541 
Q 3525 3141 3298 2862 
Q 3072 2584 2669 2484 
Q 3125 2378 3379 2068 
Q 3634 1759 3634 1313 
Q 3634 634 3220 271 
Q 2806 -91 2034 -91 
Q 1263 -91 848 271 
Q 434 634 434 1313 
Q 434 1759 690 2068 
Q 947 2378 1403 2484 
z
M 1172 3481 
Q 1172 3119 1398 2916 
Q 1625 2713 2034 2713 
Q 2441 2713 2670 2916 
Q 2900 3119 2900 3481 
Q 2900 3844 2670 4047 
Q 2441 4250 2034 4250 
Q 1625 4250 1398 4047 
Q 1172 3844 1172 3481 
z
" transform="scale(0.015625)"/>
       </defs>
       <use xlink:href="#DejaVuSans-38"/>
      </g>
     </g>
    </g>
    <g id="ytick_6">
     <g id="line2d_19">
      <path d="M 40.625 61.028803 
L 397.745 61.028803 
" clip-path="url(#p865f2399fa)" style="fill: none; stroke: #b0b0b0; stroke-width: 0.8; stroke-linecap: square"/>
     </g>
     <g id="line2d_20">
      <g>
       <use xlink:href="#m413d56a5ff" x="40.625" y="61.028803" style="stroke: #000000; stroke-width: 0.8"/>
      </g>
     </g>
     <g id="text_11">
      <!-- 10 -->
      <g transform="translate(20.9 64.828022) scale(0.1 -0.1)">
       <defs>
        <path id="DejaVuSans-31" d="M 794 531 
L 1825 531 
L 1825 4091 
L 703 3866 
L 703 4441 
L 1819 4666 
L 2450 4666 
L 2450 531 
L 3481 531 
L 3481 0 
L 794 0 
L 794 531 
z
" transform="scale(0.015625)"/>
       </defs>
       <use xlink:href="#DejaVuSans-31"/>
       <use xlink:href="#DejaVuSans-30" x="63.623047"/>
      </g>
     </g>
    </g>
    <g id="text_12">
     <!-- $\chi_0(\mathbf{q},\omega=0)$ -->
     <g transform="translate(14.8 184.276) rotate(-90) scale(0.1 -0.1)">
      <defs>
       <path id="DejaVuSans-Oblique-3c7" d="M 1922 -781 
L 1691 416 
L 394 -1334 
L -284 -1334 
L 1553 1141 
L 1269 2613 
Q 1194 3006 713 3006 
L 559 3006 
L 653 3500 
L 872 3494 
Q 1675 3472 1775 2950 
L 2006 1753 
L 3303 3503 
L 3981 3503 
L 2144 1028 
L 2428 -444 
Q 2503 -838 2984 -838 
L 3138 -838 
L 3044 -1331 
L 2825 -1325 
Q 2022 -1303 1922 -781 
z
" transform="scale(0.015625)"/>
       <path id="DejaVuSans-28" d="M 1984 4856 
Q 1566 4138 1362 3434 
Q 1159 2731 1159 2009 
Q 1159 1288 1364 580 
Q 1569 -128 1984 -844 
L 1484 -844 
Q 1016 -109 783 600 
Q 550 1309 550 2009 
Q 550 2706 781 3412 
Q 1013 4119 1484 4856 
L 1984 4856 
z
" transform="scale(0.015625)"/>
       <path id="DejaVuSans-2c" d="M 750 794 
L 1409 794 
L 1409 256 
L 897 -744 
L 494 -744 
L 750 256 
L 750 794 
z
" transform="scale(0.015625)"/>
       <path id="DejaVuSans-Oblique-3c9" d="M 1369 -91 
Q 72 -91 434 1766 
Q 575 2500 1256 3500 
L 1875 3500 
Q 1231 2500 1088 1750 
Q 819 397 1519 397 
Q 2166 397 2478 2078 
L 3009 2078 
Q 2669 388 3316 397 
Q 4013 403 4275 1750 
Q 4419 2500 4169 3500 
L 4788 3500 
Q 5075 2500 4934 1766 
Q 4578 -94 3278 -91 
Q 2428 -88 2503 844 
Q 2194 -91 1369 -91 
z
" transform="scale(0.015625)"/>
       <path id="DejaVuSans-3d" d="M 678 2906 
L 4684 2906 
L 4684 2381 
L 678 2381 
L 678 2906 
z
M 678 1631 
L 4684 1631 
L 4684 1100 
L 678 1100 
L 678 1631 
z
" transform="scale(0.015625)"/>
       <path id="DejaVuSans-29" d="M 513 4856 
L 1013 4856 
Q 1481 4119 1714 3412 
Q 1947 2706 1947 2009 
Q 1947 1309 1714 600 
Q 1481 -109 1013 -844 
L 513 -844 
Q 928 -128 1133 580 
Q 1338 1288 1338 2009 
Q 1338 2731 1133 3434 
Q 928 4138 513 4856 
z
" transform="scale(0.015625)"/>
      </defs>
      <use xlink:href="#DejaVuSans-Oblique-3c7" transform="translate(0 0.125)"/>
      <use xlink:href="#DejaVuSans-30" transform="translate(59.179688 -16.28125) scale(0.7)"/>
      <use xlink:href="#DejaVuSans-28" transform="translate(106.450195 0.125)"/>
      <use xlink:href="#DejaVuSans-Bold-71" transform="translate(145.463867 0.125)"/>
      <use xlink:href="#DejaVuSans-2c" transform="translate(217.045898 0.125)"/>
      <use xlink:href="#DejaVuSans-Oblique-3c9" transform="translate(268.31543 0.125)"/>
      <use xlink:href="#DejaVuSans-3d" transform="translate(371.538086 0.125)"/>
      <use xlink:href="#DejaVuSans-30" transform="translate(474.80957 0.125)"/>
      <use xlink:href="#DejaVuSans-29" transform="translate(538.432617 0.125)"/>
     </g>
    </g>
   </g>
   <g id="line2d_21">
    <path d="M 40.625 275.832171 
L 54.9098 275.711977 
L 68.0042 275.380609 
L 79.9082 274.867228 
L 90.6218 274.193188 
L 100.145 273.378996 
L 108.4778 272.453719 
L 115.6202 271.453726 
L 122.7626 270.210166 
L 128.7146 268.946381 
L 134.6666 267.440759 
L 140.6186 265.697902 
L 151.3322 262.485462 
L 153.713 261.946016 
L 156.0938 261.555054 
L 158.4746 261.361916 
L 160.8554 261.34177 
L 164.4266 261.534025 
L 167.9978 261.941635 
L 171.569 262.535231 
L 176.3306 263.545531 
L 184.6634 265.650789 
L 196.5674 268.664862 
L 203.7098 270.23858 
L 210.8522 271.584333 
L 217.9946 272.70857 
L 225.137 273.633256 
L 233.4698 274.493296 
L 242.993 275.235311 
L 253.7066 275.815153 
L 264.4202 276.169434 
L 275.1338 276.325532 
L 289.4186 276.293625 
L 309.6554 276.015855 
L 341.7962 275.526292 
L 358.4618 275.544482 
L 396.5546 275.831527 
L 396.5546 275.831527 
" clip-path="url(#p865f2399fa)" style="fill: none; stroke: #1f77b4; stroke-width: 1.5; stroke-linecap: square"/>
   </g>
   <g id="line2d_22">
    <path d="M 40.625 275.283061 
L 53.7194 275.171972 
L 66.8138 274.827646 
L 78.7178 274.281952 
L 89.4314 273.557254 
L 98.9546 272.67483 
L 107.2874 271.661045 
L 114.4298 270.559185 
L 120.3818 269.427765 
L 126.3338 268.056402 
L 131.0954 266.75553 
L 135.857 265.247349 
L 141.809 263.095835 
L 150.1418 259.957642 
L 153.713 258.898008 
L 156.0938 258.403844 
L 158.4746 258.159013 
L 160.8554 258.133448 
L 164.4266 258.377209 
L 167.9978 258.89248 
L 171.569 259.639132 
L 175.1402 260.564528 
L 181.0922 262.352229 
L 195.377 266.764505 
L 201.329 268.361384 
L 207.281 269.757974 
L 213.233 270.957644 
L 220.3754 272.158106 
L 227.5178 273.132341 
L 235.8506 274.028972 
L 245.3738 274.78972 
L 254.897 275.319619 
L 265.6106 275.684714 
L 277.5146 275.835868 
L 292.9898 275.755935 
L 313.2266 275.412585 
L 340.6058 274.953452 
L 356.081 274.94871 
L 396.5546 275.282351 
L 396.5546 275.282351 
" clip-path="url(#p865f2399fa)" style="fill: none; stroke: #ff7f0e; stroke-width: 1.5; stroke-linecap: square"/>
   </g>
   <g id="line2d_23">
    <path d="M 40.625 274.675468 
L 53.7194 274.552169 
L 65.6234 274.215425 
L 76.337 273.704071 
L 85.8602 273.049122 
L 95.3834 272.15654 
L 103.7162 271.121709 
L 110.8586 269.989842 
L 116.8106 268.819454 
L 121.5722 267.701921 
L 126.3338 266.378796 
L 131.0954 264.823405 
L 135.857 262.995339 
L 140.6186 260.898311 
L 152.5226 255.403164 
L 154.9034 254.65004 
L 157.2842 254.153336 
L 159.665 253.961726 
L 163.2362 254.158253 
L 166.8074 254.721176 
L 170.3786 255.600852 
L 173.9498 256.726986 
L 178.7114 258.475829 
L 195.377 264.834202 
L 201.329 266.740624 
L 207.281 268.38402 
L 213.233 269.778238 
L 219.185 270.949404 
L 226.3274 272.098304 
L 233.4698 273.014401 
L 241.8026 273.841103 
L 250.1354 274.450524 
L 259.6586 274.926819 
L 270.3722 275.220456 
L 281.0858 275.286437 
L 296.561 275.149813 
L 317.9882 274.708652 
L 339.4154 274.319983 
L 353.7002 274.289841 
L 373.937 274.500622 
L 396.5546 274.67468 
L 396.5546 274.67468 
" clip-path="url(#p865f2399fa)" style="fill: none; stroke: #2ca02c; stroke-width: 1.5; stroke-linecap: square"/>
   </g>
   <g id="line2d_24">
    <path d="M 40.625 273.999523 
L 52.529 273.885452 
L 63.2426 273.58118 
L 73.9562 273.060046 
L 83.4794 272.37886 
L 91.8122 271.573811 
L 98.9546 270.686245 
L 106.097 269.565046 
L 112.049 268.403654 
L 118.001 266.973997 
L 122.7626 265.585057 
L 127.5242 263.929115 
L 131.0954 262.476604 
L 134.6666 260.818629 
L 138.2378 258.941765 
L 142.9994 256.112207 
L 151.3322 250.998643 
L 153.713 249.81324 
L 156.0938 248.93816 
L 158.4746 248.500805 
L 159.665 248.408939 
L 162.0458 248.540844 
L 164.4266 248.890704 
L 166.8074 249.443854 
L 170.3786 250.632504 
L 173.9498 252.13858 
L 178.7114 254.443401 
L 190.6154 260.380833 
L 195.377 262.489843 
L 200.1386 264.371712 
L 204.9002 266.023729 
L 209.6618 267.460884 
L 215.6138 268.983465 
L 221.5658 270.24222 
L 227.5178 271.280021 
L 234.6602 272.282401 
L 241.8026 273.065006 
L 250.1354 273.748297 
L 259.6586 274.279615 
L 269.1818 274.58331 
L 279.8954 274.681284 
L 295.3706 274.547196 
L 314.417 274.12901 
L 338.225 273.615405 
L 352.5098 273.562638 
L 370.3658 273.754148 
L 395.3642 273.996999 
L 396.5546 273.998644 
L 396.5546 273.998644 
" clip-path="url(#p865f2399fa)" style="fill: none; stroke: #d62728; stroke-width: 1.5; stroke-linecap: square"/>
   </g>
   <g id="line2d_25">
    <path d="M 40.625 273.243005 
L 52.529 273.114863 
L 63.2426 272.772385 
L 72.7658 272.262558 
L 82.289 271.521465 
L 90.6218 270.635587 
L 97.7642 269.652167 
L 103.7162 268.628877 
L 109.6682 267.371954 
L 114.4298 266.15405 
L 119.1914 264.694953 
L 122.7626 263.407016 
L 126.3338 261.918543 
L 129.905 260.192796 
L 133.4762 258.195535 
L 137.0474 255.887858 
L 140.6186 253.253918 
L 144.1898 250.327679 
L 151.3322 244.291976 
L 153.713 242.608762 
L 156.0938 241.352567 
L 157.2842 240.966455 
L 159.665 240.587166 
L 162.0458 240.778343 
L 164.4266 241.28411 
L 166.8074 242.079925 
L 169.1882 243.148533 
L 172.7594 245.139019 
L 177.521 248.2539 
L 188.2346 255.450251 
L 192.9962 258.287259 
L 197.7578 260.792714 
L 201.329 262.454609 
L 206.0906 264.399677 
L 210.8522 266.058424 
L 215.6138 267.475365 
L 220.3754 268.67705 
L 226.3274 269.930133 
L 232.2794 270.94943 
L 239.4218 271.918557 
L 246.5642 272.661371 
L 254.897 273.293776 
L 263.2298 273.712298 
L 272.753 273.963721 
L 283.4666 273.994167 
L 297.7514 273.81158 
L 316.7978 273.319154 
L 337.0346 272.828611 
L 350.129 272.743173 
L 364.4138 272.875497 
L 396.5546 273.242018 
L 396.5546 273.242018 
" clip-path="url(#p865f2399fa)" style="fill: none; stroke: #9467bd; stroke-width: 1.5; stroke-linecap: square"/>
   </g>
   <g id="line2d_26">
    <path d="M 40.625 272.390593 
L 51.3386 272.273363 
L 62.0522 271.913209 
L 71.5754 271.362782 
L 79.9082 270.668711 
L 87.0506 269.879995 
L 94.193 268.868487 
L 100.145 267.808309 
L 104.9066 266.78595 
L 109.6682 265.562877 
L 114.4298 264.097573 
L 118.001 262.798153 
L 121.5722 261.288164 
L 125.1434 259.522765 
L 128.7146 257.446869 
L 132.2858 254.995182 
L 134.6666 253.119884 
L 137.0474 251.017994 
L 139.4282 248.68619 
L 141.809 246.129778 
L 145.3802 241.881973 
L 150.1418 235.876112 
L 152.5226 233.117841 
L 153.713 231.906085 
L 156.0938 229.952373 
L 157.2842 229.346387 
L 158.4746 228.958762 
L 159.665 228.748572 
L 162.0458 229.05021 
L 163.2362 229.361656 
L 165.617 230.406224 
L 167.9978 231.884604 
L 170.3786 233.694813 
L 173.9498 236.885401 
L 179.9018 242.710397 
L 184.6634 247.272003 
L 188.2346 250.429768 
L 191.8058 253.304059 
L 195.377 255.880532 
L 198.9482 258.167202 
L 202.5194 260.184208 
L 206.0906 261.955974 
L 209.6618 263.509372 
L 214.4234 265.286271 
L 219.185 266.782306 
L 223.9466 268.033921 
L 228.7082 269.089605 
L 234.6602 270.172539 
L 240.6122 271.040885 
L 247.7546 271.850008 
L 254.897 272.44799 
L 263.2298 272.920087 
L 271.5626 273.181667 
L 281.0858 273.247695 
L 294.1802 273.104619 
L 309.6554 272.707439 
L 338.225 271.901048 
L 350.129 271.824064 
L 364.4138 271.974305 
L 395.3642 272.387389 
L 396.5546 272.389477 
L 396.5546 272.389477 
" clip-path="url(#p865f2399fa)" style="fill: none; stroke: #8c564b; stroke-width: 1.5; stroke-linecap: square"/>
   </g>
   <g id="line2d_27">
    <path d="M 40.625 271.422823 
L 51.3386 271.289117 
L 60.8618 270.938242 
L 69.1946 270.429583 
L 77.5274 269.699733 
L 84.6698 268.859668 
L 90.6218 267.971358 
L 96.5738 266.870159 
L 101.3354 265.800006 
L 106.097 264.515341 
L 110.8586 262.964841 
L 114.4298 261.583455 
L 118.001 259.968445 
L 121.5722 258.065396 
L 125.1434 255.803738 
L 127.5242 254.051068 
L 129.905 252.058577 
L 132.2858 249.815257 
L 134.6666 247.252185 
L 137.0474 244.31928 
L 139.4282 240.988687 
L 141.809 237.24085 
L 144.1898 233.033757 
L 147.761 226.035146 
L 152.5226 216.438898 
L 153.713 214.340431 
L 156.0938 210.89368 
L 157.2842 209.808336 
L 158.4746 209.109979 
L 159.665 208.729944 
L 160.8554 208.920689 
L 162.0458 209.275025 
L 163.2362 209.835781 
L 165.617 211.701457 
L 166.8074 212.904877 
L 169.1882 215.783065 
L 171.569 219.156515 
L 173.9498 222.77865 
L 181.0922 233.858177 
L 184.6634 238.928129 
L 188.2346 243.486832 
L 190.6154 246.225831 
L 192.9962 248.730214 
L 195.377 251.008168 
L 197.7578 253.07624 
L 200.1386 254.953516 
L 203.7098 257.441717 
L 207.281 259.587622 
L 210.8522 261.440385 
L 214.4234 263.042856 
L 217.9946 264.431632 
L 221.5658 265.637594 
L 226.3274 267.005342 
L 231.089 268.141396 
L 235.8506 269.089824 
L 241.8026 270.049864 
L 248.945 270.936325 
L 256.0874 271.581176 
L 264.4202 272.081233 
L 272.753 272.345124 
L 282.2762 272.391205 
L 295.3706 272.208537 
L 310.8458 271.740914 
L 337.0346 270.886441 
L 347.7482 270.773127 
L 359.6522 270.865617 
L 396.5546 271.421551 
L 396.5546 271.421551 
" clip-path="url(#p865f2399fa)" style="fill: none; stroke: #e377c2; stroke-width: 1.5; stroke-linecap: square"/>
   </g>
   <g id="line2d_28">
    <path d="M 40.625 270.314576 
L 50.1482 270.193338 
L 59.6714 269.821065 
L 68.0042 269.265478 
L 75.1466 268.589003 
L 82.289 267.688568 
L 88.241 266.727319 
L 94.193 265.524529 
L 98.9546 264.34601 
L 103.7162 262.920072 
L 107.2874 261.65396 
L 110.8586 260.176778 
L 114.4298 258.439807 
L 118.001 256.378487 
L 120.3818 254.777159 
L 122.7626 252.966743 
L 125.1434 250.905126 
L 127.5242 248.531109 
L 129.905 245.77934 
L 132.2858 242.611645 
L 134.6666 238.89903 
L 137.0474 234.523326 
L 139.4282 229.38135 
L 141.809 223.362778 
L 144.1898 216.294238 
L 146.5706 208.09233 
L 148.9514 199.0691 
L 153.713 180.195285 
L 156.0938 172.555889 
L 157.2842 170.077049 
L 158.4746 168.462845 
L 159.665 167.578006 
L 160.8554 168.022687 
L 162.0458 168.845709 
L 163.2362 170.140176 
L 164.4266 172.121074 
L 165.617 174.377608 
L 166.8074 177.05565 
L 169.1882 183.291723 
L 172.7594 193.852167 
L 176.3306 204.606233 
L 178.7114 211.408299 
L 181.0922 217.706496 
L 183.473 223.44206 
L 185.8538 228.618182 
L 188.2346 233.255738 
L 190.6154 237.38354 
L 192.9962 241.052334 
L 195.377 244.305417 
L 197.7578 247.191938 
L 200.1386 249.758848 
L 202.5194 252.043906 
L 204.9002 254.072927 
L 207.281 255.887538 
L 210.8522 258.25854 
L 214.4234 260.274166 
L 217.9946 261.995313 
L 221.5658 263.470939 
L 225.137 264.740456 
L 229.8986 266.165362 
L 234.6602 267.338877 
L 239.4218 268.307558 
L 245.3738 269.278509 
L 251.3258 270.028721 
L 258.4682 270.690793 
L 265.6106 271.129709 
L 273.9434 271.39284 
L 282.2762 271.42352 
L 294.1802 271.244198 
L 307.2746 270.823618 
L 340.6058 269.626744 
L 351.3194 269.571736 
L 364.4138 269.766347 
L 392.9834 270.299106 
L 396.5546 270.313112 
L 396.5546 270.313112 
" clip-path="url(#p865f2399fa)" style="fill: none; stroke: #7f7f7f; stroke-width: 1.5; stroke-linecap: square"/>
   </g>
   <g id="line2d_29">
    <path d="M 40.625 269.032872 
L 48.9578 268.924212 
L 57.2906 268.595883 
L 65.6234 268.021198 
L 72.7658 267.303067 
L 78.7178 266.513433 
L 84.6698 265.512089 
L 89.4314 264.524851 
L 94.193 263.333331 
L 98.9546 261.889878 
L 102.5258 260.599789 
L 106.097 259.089975 
L 109.6682 257.308925 
L 112.049 255.943081 
L 115.6202 253.547549 
L 118.001 251.674358 
L 120.3818 249.519822 
L 122.7626 247.040666 
L 125.1434 244.159951 
L 127.5242 240.764242 
L 129.905 236.719007 
L 131.0954 234.440711 
L 132.2858 231.910536 
L 134.6666 226.056898 
L 135.857 222.633682 
L 137.0474 218.836136 
L 138.2378 214.636188 
L 139.4282 209.871169 
L 140.6186 204.590436 
L 141.809 198.65645 
L 142.9994 191.849842 
L 144.1898 184.375089 
L 145.3802 175.852351 
L 147.761 155.515192 
L 148.9514 143.448444 
L 151.3322 116.016149 
L 154.9034 70.251736 
L 156.0938 55.748324 
L 157.2842 45.368894 
L 158.4746 38.352371 
L 159.665 34.416 
L 160.8554 36.402383 
L 162.0458 40.035588 
L 163.2362 45.639072 
L 164.4266 53.961163 
L 165.617 63.086839 
L 167.9978 84.728701 
L 173.9498 139.271334 
L 176.3306 157.675563 
L 178.7114 173.718732 
L 181.0922 187.331441 
L 183.473 198.809582 
L 185.8538 208.493712 
L 188.2346 216.675829 
L 190.6154 223.596605 
L 192.9962 229.481396 
L 195.377 234.502311 
L 197.7578 238.810533 
L 200.1386 242.531021 
L 202.5194 245.758867 
L 204.9002 248.560984 
L 207.281 251.017565 
L 209.6618 253.181037 
L 212.0426 255.085936 
L 214.4234 256.77126 
L 216.8042 258.272899 
L 220.3754 260.224965 
L 223.9466 261.878799 
L 227.5178 263.287115 
L 231.089 264.491123 
L 235.8506 265.835981 
L 240.6122 266.9284 
L 245.3738 267.822309 
L 251.3258 268.700072 
L 257.2778 269.359568 
L 264.4202 269.90761 
L 271.5626 270.223529 
L 278.705 270.327429 
L 290.609 270.196743 
L 302.513 269.826089 
L 319.1786 269.045167 
L 334.6538 268.380301 
L 345.3674 268.16878 
L 356.081 268.218803 
L 370.3658 268.554286 
L 389.4122 268.979691 
L 396.5546 269.03117 
L 396.5546 269.03117 
" clip-path="url(#p865f2399fa)" style="fill: none; stroke: #bcbd22; stroke-width: 1.5; stroke-linecap: square"/>
   </g>
   <g id="patch_3">
    <path d="M 40.625 288.432 
L 40.625 22.32 
" style="fill: none; stroke: #000000; stroke-width: 0.8; stroke-linejoin: miter; stroke-linecap: square"/>
   </g>
   <g id="patch_4">
    <path d="M 397.745 288.432 
L 397.745 22.32 
" style="fill: none; stroke: #000000; stroke-width: 0.8; stroke-linejoin: miter; stroke-linecap: square"/>
   </g>
   <g id="patch_5">
    <path d="M 40.625 288.432 
L 397.745 288.432 
" style="fill: none; stroke: #000000; stroke-width: 0.8; stroke-linejoin: miter; stroke-linecap: square"/>
   </g>
   <g id="patch_6">
    <path d="M 40.625 22.32 
L 397.745 22.32 
" style="fill: none; stroke: #000000; stroke-width: 0.8; stroke-linejoin: miter; stroke-linecap: square"/>
   </g>
   <g id="text_13">
    <!-- Static Lindhard susceptibility $\chi_0(\mathbf{q},\omega=0)$ -->
    <g transform="translate(95.645 16.32) scale(0.12 -0.12)">
     <defs>
      <path id="DejaVuSans-53" d="M 3425 4513 
L 3425 3897 
Q 3066 4069 2747 4153 
Q 2428 4238 2131 4238 
Q 1616 4238 1336 4038 
Q 1056 3838 1056 3469 
Q 1056 3159 1242 3001 
Q 1428 2844 1947 2747 
L 2328 2669 
Q 3034 2534 3370 2195 
Q 3706 1856 3706 1288 
Q 3706 609 3251 259 
Q 2797 -91 1919 -91 
Q 1588 -91 1214 -16 
Q 841 59 441 206 
L 441 856 
Q 825 641 1194 531 
Q 1563 422 1919 422 
Q 2459 422 2753 634 
Q 3047 847 3047 1241 
Q 3047 1584 2836 1778 
Q 2625 1972 2144 2069 
L 1759 2144 
Q 1053 2284 737 2584 
Q 422 2884 422 3419 
Q 422 4038 858 4394 
Q 1294 4750 2059 4750 
Q 2388 4750 2728 4690 
Q 3069 4631 3425 4513 
z
" transform="scale(0.015625)"/>
      <path id="DejaVuSans-74" d="M 1172 4494 
L 1172 3500 
L 2356 3500 
L 2356 3053 
L 1172 3053 
L 1172 1153 
Q 1172 725 1289 603 
Q 1406 481 1766 481 
L 2356 481 
L 2356 0 
L 1766 0 
Q 1100 0 847 248 
Q 594 497 594 1153 
L 594 3053 
L 172 3053 
L 172 3500 
L 594 3500 
L 594 4494 
L 1172 4494 
z
" transform="scale(0.015625)"/>
      <path id="DejaVuSans-61" d="M 2194 1759 
Q 1497 1759 1228 1600 
Q 959 1441 959 1056 
Q 959 750 1161 570 
Q 1363 391 1709 391 
Q 2188 391 2477 730 
Q 2766 1069 2766 1631 
L 2766 1759 
L 2194 1759 
z
M 3341 1997 
L 3341 0 
L 2766 0 
L 2766 531 
Q 2569 213 2275 61 
Q 1981 -91 1556 -91 
Q 1019 -91 701 211 
Q 384 513 384 1019 
Q 384 1609 779 1909 
Q 1175 2209 1959 2209 
L 2766 2209 
L 2766 2266 
Q 2766 2663 2505 2880 
Q 2244 3097 1772 3097 
Q 1472 3097 1187 3025 
Q 903 2953 641 2809 
L 641 3341 
Q 956 3463 1253 3523 
Q 1550 3584 1831 3584 
Q 2591 3584 2966 3190 
Q 3341 2797 3341 1997 
z
" transform="scale(0.015625)"/>
      <path id="DejaVuSans-69" d="M 603 3500 
L 1178 3500 
L 1178 0 
L 603 0 
L 603 3500 
z
M 603 4863 
L 1178 4863 
L 1178 4134 
L 603 4134 
L 603 4863 
z
" transform="scale(0.015625)"/>
      <path id="DejaVuSans-63" d="M 3122 3366 
L 3122 2828 
Q 2878 2963 2633 3030 
Q 2388 3097 2138 3097 
Q 1578 3097 1268 2742 
Q 959 2388 959 1747 
Q 959 1106 1268 751 
Q 1578 397 2138 397 
Q 2388 397 2633 464 
Q 2878 531 3122 666 
L 3122 134 
Q 2881 22 2623 -34 
Q 2366 -91 2075 -91 
Q 1284 -91 818 406 
Q 353 903 353 1747 
Q 353 2603 823 3093 
Q 1294 3584 2113 3584 
Q 2378 3584 2631 3529 
Q 2884 3475 3122 3366 
z
" transform="scale(0.015625)"/>
      <path id="DejaVuSans-20" transform="scale(0.015625)"/>
      <path id="DejaVuSans-4c" d="M 628 4666 
L 1259 4666 
L 1259 531 
L 3531 531 
L 3531 0 
L 628 0 
L 628 4666 
z
" transform="scale(0.015625)"/>
      <path id="DejaVuSans-6e" d="M 3513 2113 
L 3513 0 
L 2938 0 
L 2938 2094 
Q 2938 2591 2744 2837 
Q 2550 3084 2163 3084 
Q 1697 3084 1428 2787 
Q 1159 2491 1159 1978 
L 1159 0 
L 581 0 
L 581 3500 
L 1159 3500 
L 1159 2956 
Q 1366 3272 1645 3428 
Q 1925 3584 2291 3584 
Q 2894 3584 3203 3211 
Q 3513 2838 3513 2113 
z
" transform="scale(0.015625)"/>
      <path id="DejaVuSans-64" d="M 2906 2969 
L 2906 4863 
L 3481 4863 
L 3481 0 
L 2906 0 
L 2906 525 
Q 2725 213 2448 61 
Q 2172 -91 1784 -91 
Q 1150 -91 751 415 
Q 353 922 353 1747 
Q 353 2572 751 3078 
Q 1150 3584 1784 3584 
Q 2172 3584 2448 3432 
Q 2725 3281 2906 2969 
z
M 947 1747 
Q 947 1113 1208 752 
Q 1469 391 1925 391 
Q 2381 391 2643 752 
Q 2906 1113 2906 1747 
Q 2906 2381 2643 2742 
Q 2381 3103 1925 3103 
Q 1469 3103 1208 2742 
Q 947 2381 947 1747 
z
" transform="scale(0.015625)"/>
      <path id="DejaVuSans-68" d="M 3513 2113 
L 3513 0 
L 2938 0 
L 2938 2094 
Q 2938 2591 2744 2837 
Q 2550 3084 2163 3084 
Q 1697 3084 1428 2787 
Q 1159 2491 1159 1978 
L 1159 0 
L 581 0 
L 581 4863 
L 1159 4863 
L 1159 2956 
Q 1366 3272 1645 3428 
Q 1925 3584 2291 3584 
Q 2894 3584 3203 3211 
Q 3513 2838 3513 2113 
z
" transform="scale(0.015625)"/>
      <path id="DejaVuSans-72" d="M 2631 2963 
Q 2534 3019 2420 3045 
Q 2306 3072 2169 3072 
Q 1681 3072 1420 2755 
Q 1159 2438 1159 1844 
L 1159 0 
L 581 0 
L 581 3500 
L 1159 3500 
L 1159 2956 
Q 1341 3275 1631 3429 
Q 1922 3584 2338 3584 
Q 2397 3584 2469 3576 
Q 2541 3569 2628 3553 
L 2631 2963 
z
" transform="scale(0.015625)"/>
      <path id="DejaVuSans-73" d="M 2834 3397 
L 2834 2853 
Q 2591 2978 2328 3040 
Q 2066 3103 1784 3103 
Q 1356 3103 1142 2972 
Q 928 2841 928 2578 
Q 928 2378 1081 2264 
Q 1234 2150 1697 2047 
L 1894 2003 
Q 2506 1872 2764 1633 
Q 3022 1394 3022 966 
Q 3022 478 2636 193 
Q 2250 -91 1575 -91 
Q 1294 -91 989 -36 
Q 684 19 347 128 
L 347 722 
Q 666 556 975 473 
Q 1284 391 1588 391 
Q 1994 391 2212 530 
Q 2431 669 2431 922 
Q 2431 1156 2273 1281 
Q 2116 1406 1581 1522 
L 1381 1569 
Q 847 1681 609 1914 
Q 372 2147 372 2553 
Q 372 3047 722 3315 
Q 1072 3584 1716 3584 
Q 2034 3584 2315 3537 
Q 2597 3491 2834 3397 
z
" transform="scale(0.015625)"/>
      <path id="DejaVuSans-75" d="M 544 1381 
L 544 3500 
L 1119 3500 
L 1119 1403 
Q 1119 906 1312 657 
Q 1506 409 1894 409 
Q 2359 409 2629 706 
Q 2900 1003 2900 1516 
L 2900 3500 
L 3475 3500 
L 3475 0 
L 2900 0 
L 2900 538 
Q 2691 219 2414 64 
Q 2138 -91 1772 -91 
Q 1169 -91 856 284 
Q 544 659 544 1381 
z
M 1991 3584 
L 1991 3584 
z
" transform="scale(0.015625)"/>
      <path id="DejaVuSans-65" d="M 3597 1894 
L 3597 1613 
L 953 1613 
Q 991 1019 1311 708 
Q 1631 397 2203 397 
Q 2534 397 2845 478 
Q 3156 559 3463 722 
L 3463 178 
Q 3153 47 2828 -22 
Q 2503 -91 2169 -91 
Q 1331 -91 842 396 
Q 353 884 353 1716 
Q 353 2575 817 3079 
Q 1281 3584 2069 3584 
Q 2775 3584 3186 3129 
Q 3597 2675 3597 1894 
z
M 3022 2063 
Q 3016 2534 2758 2815 
Q 2500 3097 2075 3097 
Q 1594 3097 1305 2825 
Q 1016 2553 972 2059 
L 3022 2063 
z
" transform="scale(0.015625)"/>
      <path id="DejaVuSans-70" d="M 1159 525 
L 1159 -1331 
L 581 -1331 
L 581 3500 
L 1159 3500 
L 1159 2969 
Q 1341 3281 1617 3432 
Q 1894 3584 2278 3584 
Q 2916 3584 3314 3078 
Q 3713 2572 3713 1747 
Q 3713 922 3314 415 
Q 2916 -91 2278 -91 
Q 1894 -91 1617 61 
Q 1341 213 1159 525 
z
M 3116 1747 
Q 3116 2381 2855 2742 
Q 2594 3103 2138 3103 
Q 1681 3103 1420 2742 
Q 1159 2381 1159 1747 
Q 1159 1113 1420 752 
Q 1681 391 2138 391 
Q 2594 391 2855 752 
Q 3116 1113 3116 1747 
z
" transform="scale(0.015625)"/>
      <path id="DejaVuSans-62" d="M 3116 1747 
Q 3116 2381 2855 2742 
Q 2594 3103 2138 3103 
Q 1681 3103 1420 2742 
Q 1159 2381 1159 1747 
Q 1159 1113 1420 752 
Q 1681 391 2138 391 
Q 2594 391 2855 752 
Q 3116 1113 3116 1747 
z
M 1159 2969 
Q 1341 3281 1617 3432 
Q 1894 3584 2278 3584 
Q 2916 3584 3314 3078 
Q 3713 2572 3713 1747 
Q 3713 922 3314 415 
Q 2916 -91 2278 -91 
Q 1894 -91 1617 61 
Q 1341 213 1159 525 
L 1159 0 
L 581 0 
L 581 4863 
L 1159 4863 
L 1159 2969 
z
" transform="scale(0.015625)"/>
      <path id="DejaVuSans-6c" d="M 603 4863 
L 1178 4863 
L 1178 0 
L 603 0 
L 603 4863 
z
" transform="scale(0.015625)"/>
      <path id="DejaVuSans-79" d="M 2059 -325 
Q 1816 -950 1584 -1140 
Q 1353 -1331 966 -1331 
L 506 -1331 
L 506 -850 
L 844 -850 
Q 1081 -850 1212 -737 
Q 1344 -625 1503 -206 
L 1606 56 
L 191 3500 
L 800 3500 
L 1894 763 
L 2988 3500 
L 3597 3500 
L 2059 -325 
z
" transform="scale(0.015625)"/>
     </defs>
     <use xlink:href="#DejaVuSans-53" transform="translate(0 0.015625)"/>
     <use xlink:href="#DejaVuSans-74" transform="translate(63.476562 0.015625)"/>
     <use xlink:href="#DejaVuSans-61" transform="translate(102.685547 0.015625)"/>
     <use xlink:href="#DejaVuSans-74" transform="translate(163.964844 0.015625)"/>
     <use xlink:href="#DejaVuSans-69" transform="translate(203.173828 0.015625)"/>
     <use xlink:href="#DejaVuSans-63" transform="translate(230.957031 0.015625)"/>
     <use xlink:href="#DejaVuSans-20" transform="translate(285.9375 0.015625)"/>
     <use xlink:href="#DejaVuSans-4c" transform="translate(317.724609 0.015625)"/>
     <use xlink:href="#DejaVuSans-69" transform="translate(373.4375 0.015625)"/>
     <use xlink:href="#DejaVuSans-6e" transform="translate(401.220703 0.015625)"/>
     <use xlink:href="#DejaVuSans-64" transform="translate(464.599609 0.015625)"/>
     <use xlink:href="#DejaVuSans-68" transform="translate(528.076172 0.015625)"/>
     <use xlink:href="#DejaVuSans-61" transform="translate(591.455078 0.015625)"/>
     <use xlink:href="#DejaVuSans-72" transform="translate(652.734375 0.015625)"/>
     <use xlink:href="#DejaVuSans-64" transform="translate(693.847656 0.015625)"/>
     <use xlink:href="#DejaVuSans-20" transform="translate(757.324219 0.015625)"/>
     <use xlink:href="#DejaVuSans-73" transform="translate(789.111328 0.015625)"/>
     <use xlink:href="#DejaVuSans-75" transform="translate(841.210938 0.015625)"/>
     <use xlink:href="#DejaVuSans-73" transform="translate(904.589844 0.015625)"/>
     <use xlink:href="#DejaVuSans-63" transform="translate(956.689453 0.015625)"/>
     <use xlink:href="#DejaVuSans-65" transform="translate(1011.669922 0.015625)"/>
     <use xlink:href="#DejaVuSans-70" transform="translate(1073.193359 0.015625)"/>
     <use xlink:href="#DejaVuSans-74" transform="translate(1136.669922 0.015625)"/>
     <use xlink:href="#DejaVuSans-69" transform="translate(1175.878906 0.015625)"/>
     <use xlink:href="#DejaVuSans-62" transform="translate(1203.662109 0.015625)"/>
     <use xlink:href="#DejaVuSans-69" transform="translate(1267.138672 0.015625)"/>
     <use xlink:href="#DejaVuSans-6c" transform="translate(1294.921875 0.015625)"/>
     <use xlink:href="#DejaVuSans-69" transform="translate(1322.705078 0.015625)"/>
     <use xlink:href="#DejaVuSans-74" transform="translate(1350.488281 0.015625)"/>
     <use xlink:href="#DejaVuSans-79" transform="translate(1389.697266 0.015625)"/>
     <use xlink:href="#DejaVuSans-20" transform="translate(1448.876953 0.015625)"/>
     <use xlink:href="#DejaVuSans-Oblique-3c7" transform="translate(1480.664062 0.015625)"/>
     <use xlink:href="#DejaVuSans-30" transform="translate(1539.84375 -16.390625) scale(0.7)"/>
     <use xlink:href="#DejaVuSans-28" transform="translate(1587.114258 0.015625)"/>
     <use xlink:href="#DejaVuSans-Bold-71" transform="translate(1626.12793 0.015625)"/>
     <use xlink:href="#DejaVuSans-2c" transform="translate(1697.709961 0.015625)"/>
     <use xlink:href="#DejaVuSans-Oblique-3c9" transform="translate(1748.979492 0.015625)"/>
     <use xlink:href="#DejaVuSans-3d" transform="translate(1852.202148 0.015625)"/>
     <use xlink:href="#DejaVuSans-30" transform="translate(1955.473633 0.015625)"/>
     <use xlink:href="#DejaVuSans-29" transform="translate(2019.09668 0.015625)"/>
    </g>
   </g>
   <g id="legend_1">
    <g id="patch_7">
     <path d="M 290.445 162.605937 
L 390.745 162.605937 
Q 392.745 162.605937 392.745 160.605937 
L 392.745 29.32 
Q 392.745 27.32 390.745 27.32 
L 290.445 27.32 
Q 288.445 27.32 288.445 29.32 
L 288.445 160.605937 
Q 288.445 162.605937 290.445 162.605937 
z
" style="fill: #ffffff; opacity: 0.8; stroke: #cccccc; stroke-linejoin: miter"/>
    </g>
    <g id="line2d_30">
     <path d="M 292.445 35.418437 
L 302.445 35.418437 
L 312.445 35.418437 
" style="fill: none; stroke: #1f77b4; stroke-width: 1.5; stroke-linecap: square"/>
    </g>
    <g id="text_14">
     <!-- $\chi_\mathrm{RPA}$, $U=1.00$ -->
     <g transform="translate(320.445 38.918437) scale(0.1 -0.1)">
      <defs>
       <path id="DejaVuSans-52" d="M 2841 2188 
Q 3044 2119 3236 1894 
Q 3428 1669 3622 1275 
L 4263 0 
L 3584 0 
L 2988 1197 
Q 2756 1666 2539 1819 
Q 2322 1972 1947 1972 
L 1259 1972 
L 1259 0 
L 628 0 
L 628 4666 
L 2053 4666 
Q 2853 4666 3247 4331 
Q 3641 3997 3641 3322 
Q 3641 2881 3436 2590 
Q 3231 2300 2841 2188 
z
M 1259 4147 
L 1259 2491 
L 2053 2491 
Q 2509 2491 2742 2702 
Q 2975 2913 2975 3322 
Q 2975 3731 2742 3939 
Q 2509 4147 2053 4147 
L 1259 4147 
z
" transform="scale(0.015625)"/>
       <path id="DejaVuSans-50" d="M 1259 4147 
L 1259 2394 
L 2053 2394 
Q 2494 2394 2734 2622 
Q 2975 2850 2975 3272 
Q 2975 3691 2734 3919 
Q 2494 4147 2053 4147 
L 1259 4147 
z
M 628 4666 
L 2053 4666 
Q 2838 4666 3239 4311 
Q 3641 3956 3641 3272 
Q 3641 2581 3239 2228 
Q 2838 1875 2053 1875 
L 1259 1875 
L 1259 0 
L 628 0 
L 628 4666 
z
" transform="scale(0.015625)"/>
       <path id="DejaVuSans-41" d="M 2188 4044 
L 1331 1722 
L 3047 1722 
L 2188 4044 
z
M 1831 4666 
L 2547 4666 
L 4325 0 
L 3669 0 
L 3244 1197 
L 1141 1197 
L 716 0 
L 50 0 
L 1831 4666 
z
" transform="scale(0.015625)"/>
       <path id="DejaVuSans-Oblique-55" d="M 991 4666 
L 1625 4666 
L 1075 1831 
Q 1041 1641 1027 1517 
Q 1013 1394 1013 1300 
Q 1013 869 1253 645 
Q 1494 422 1959 422 
Q 2563 422 2898 753 
Q 3234 1084 3378 1831 
L 3928 4666 
L 4563 4666 
L 4000 1753 
Q 3816 809 3300 359 
Q 2784 -91 1888 -91 
Q 1188 -91 780 261 
Q 372 613 372 1216 
Q 372 1325 387 1461 
Q 403 1597 434 1753 
L 991 4666 
z
" transform="scale(0.015625)"/>
       <path id="DejaVuSans-2e" d="M 684 794 
L 1344 794 
L 1344 0 
L 684 0 
L 684 794 
z
" transform="scale(0.015625)"/>
      </defs>
      <use xlink:href="#DejaVuSans-Oblique-3c7" transform="translate(0 0.78125)"/>
      <use xlink:href="#DejaVuSans-52" transform="translate(59.179688 -15.625) scale(0.7)"/>
      <use xlink:href="#DejaVuSans-50" transform="translate(107.817383 -15.625) scale(0.7)"/>
      <use xlink:href="#DejaVuSans-41" transform="translate(150.029297 -15.625) scale(0.7)"/>
      <use xlink:href="#DejaVuSans-2c" transform="translate(200.649414 0.78125)"/>
      <use xlink:href="#DejaVuSans-20" transform="translate(232.436523 0.78125)"/>
      <use xlink:href="#DejaVuSans-Oblique-55" transform="translate(264.223633 0.78125)"/>
      <use xlink:href="#DejaVuSans-3d" transform="translate(356.899414 0.78125)"/>
      <use xlink:href="#DejaVuSans-31" transform="translate(460.170898 0.78125)"/>
      <use xlink:href="#DejaVuSans-2e" transform="translate(523.793945 0.78125)"/>
      <use xlink:href="#DejaVuSans-30" transform="translate(555.581055 0.78125)"/>
      <use xlink:href="#DejaVuSans-30" transform="translate(619.204102 0.78125)"/>
     </g>
    </g>
    <g id="line2d_31">
     <path d="M 292.445 50.116875 
L 302.445 50.116875 
L 312.445 50.116875 
" style="fill: none; stroke: #ff7f0e; stroke-width: 1.5; stroke-linecap: square"/>
    </g>
    <g id="text_15">
     <!-- $\chi_\mathrm{RPA}$, $U=1.20$ -->
     <g transform="translate(320.445 53.616875) scale(0.1 -0.1)">
      <use xlink:href="#DejaVuSans-Oblique-3c7" transform="translate(0 0.78125)"/>
      <use xlink:href="#DejaVuSans-52" transform="translate(59.179688 -15.625) scale(0.7)"/>
      <use xlink:href="#DejaVuSans-50" transform="translate(107.817383 -15.625) scale(0.7)"/>
      <use xlink:href="#DejaVuSans-41" transform="translate(150.029297 -15.625) scale(0.7)"/>
      <use xlink:href="#DejaVuSans-2c" transform="translate(200.649414 0.78125)"/>
      <use xlink:href="#DejaVuSans-20" transform="translate(232.436523 0.78125)"/>
      <use xlink:href="#DejaVuSans-Oblique-55" transform="translate(264.223633 0.78125)"/>
      <use xlink:href="#DejaVuSans-3d" transform="translate(356.899414 0.78125)"/>
      <use xlink:href="#DejaVuSans-31" transform="translate(460.170898 0.78125)"/>
      <use xlink:href="#DejaVuSans-2e" transform="translate(523.793945 0.78125)"/>
      <use xlink:href="#DejaVuSans-32" transform="translate(550.081055 0.78125)"/>
      <use xlink:href="#DejaVuSans-30" transform="translate(613.704102 0.78125)"/>
     </g>
    </g>
    <g id="line2d_32">
     <path d="M 292.445 64.815313 
L 302.445 64.815313 
L 312.445 64.815313 
" style="fill: none; stroke: #2ca02c; stroke-width: 1.5; stroke-linecap: square"/>
    </g>
    <g id="text_16">
     <!-- $\chi_\mathrm{RPA}$, $U=1.40$ -->
     <g transform="translate(320.445 68.315313) scale(0.1 -0.1)">
      <use xlink:href="#DejaVuSans-Oblique-3c7" transform="translate(0 0.78125)"/>
      <use xlink:href="#DejaVuSans-52" transform="translate(59.179688 -15.625) scale(0.7)"/>
      <use xlink:href="#DejaVuSans-50" transform="translate(107.817383 -15.625) scale(0.7)"/>
      <use xlink:href="#DejaVuSans-41" transform="translate(150.029297 -15.625) scale(0.7)"/>
      <use xlink:href="#DejaVuSans-2c" transform="translate(200.649414 0.78125)"/>
      <use xlink:href="#DejaVuSans-20" transform="translate(232.436523 0.78125)"/>
      <use xlink:href="#DejaVuSans-Oblique-55" transform="translate(264.223633 0.78125)"/>
      <use xlink:href="#DejaVuSans-3d" transform="translate(356.899414 0.78125)"/>
      <use xlink:href="#DejaVuSans-31" transform="translate(460.170898 0.78125)"/>
      <use xlink:href="#DejaVuSans-2e" transform="translate(523.793945 0.78125)"/>
      <use xlink:href="#DejaVuSans-34" transform="translate(555.581055 0.78125)"/>
      <use xlink:href="#DejaVuSans-30" transform="translate(619.204102 0.78125)"/>
     </g>
    </g>
    <g id="line2d_33">
     <path d="M 292.445 79.51375 
L 302.445 79.51375 
L 312.445 79.51375 
" style="fill: none; stroke: #d62728; stroke-width: 1.5; stroke-linecap: square"/>
    </g>
    <g id="text_17">
     <!-- $\chi_\mathrm{RPA}$, $U=1.60$ -->
     <g transform="translate(320.445 83.01375) scale(0.1 -0.1)">
      <use xlink:href="#DejaVuSans-Oblique-3c7" transform="translate(0 0.78125)"/>
      <use xlink:href="#DejaVuSans-52" transform="translate(59.179688 -15.625) scale(0.7)"/>
      <use xlink:href="#DejaVuSans-50" transform="translate(107.817383 -15.625) scale(0.7)"/>
      <use xlink:href="#DejaVuSans-41" transform="translate(150.029297 -15.625) scale(0.7)"/>
      <use xlink:href="#DejaVuSans-2c" transform="translate(200.649414 0.78125)"/>
      <use xlink:href="#DejaVuSans-20" transform="translate(232.436523 0.78125)"/>
      <use xlink:href="#DejaVuSans-Oblique-55" transform="translate(264.223633 0.78125)"/>
      <use xlink:href="#DejaVuSans-3d" transform="translate(356.899414 0.78125)"/>
      <use xlink:href="#DejaVuSans-31" transform="translate(460.170898 0.78125)"/>
      <use xlink:href="#DejaVuSans-2e" transform="translate(523.793945 0.78125)"/>
      <use xlink:href="#DejaVuSans-36" transform="translate(555.581055 0.78125)"/>
      <use xlink:href="#DejaVuSans-30" transform="translate(619.204102 0.78125)"/>
     </g>
    </g>
    <g id="line2d_34">
     <path d="M 292.445 94.212187 
L 302.445 94.212187 
L 312.445 94.212187 
" style="fill: none; stroke: #9467bd; stroke-width: 1.5; stroke-linecap: square"/>
    </g>
    <g id="text_18">
     <!-- $\chi_\mathrm{RPA}$, $U=1.80$ -->
     <g transform="translate(320.445 97.712187) scale(0.1 -0.1)">
      <use xlink:href="#DejaVuSans-Oblique-3c7" transform="translate(0 0.78125)"/>
      <use xlink:href="#DejaVuSans-52" transform="translate(59.179688 -15.625) scale(0.7)"/>
      <use xlink:href="#DejaVuSans-50" transform="translate(107.817383 -15.625) scale(0.7)"/>
      <use xlink:href="#DejaVuSans-41" transform="translate(150.029297 -15.625) scale(0.7)"/>
      <use xlink:href="#DejaVuSans-2c" transform="translate(200.649414 0.78125)"/>
      <use xlink:href="#DejaVuSans-20" transform="translate(232.436523 0.78125)"/>
      <use xlink:href="#DejaVuSans-Oblique-55" transform="translate(264.223633 0.78125)"/>
      <use xlink:href="#DejaVuSans-3d" transform="translate(356.899414 0.78125)"/>
      <use xlink:href="#DejaVuSans-31" transform="translate(460.170898 0.78125)"/>
      <use xlink:href="#DejaVuSans-2e" transform="translate(523.793945 0.78125)"/>
      <use xlink:href="#DejaVuSans-38" transform="translate(552.956055 0.78125)"/>
      <use xlink:href="#DejaVuSans-30" transform="translate(616.579102 0.78125)"/>
     </g>
    </g>
    <g id="line2d_35">
     <path d="M 292.445 108.910625 
L 302.445 108.910625 
L 312.445 108.910625 
" style="fill: none; stroke: #8c564b; stroke-width: 1.5; stroke-linecap: square"/>
    </g>
    <g id="text_19">
     <!-- $\chi_\mathrm{RPA}$, $U=2.00$ -->
     <g transform="translate(320.445 112.410625) scale(0.1 -0.1)">
      <use xlink:href="#DejaVuSans-Oblique-3c7" transform="translate(0 0.78125)"/>
      <use xlink:href="#DejaVuSans-52" transform="translate(59.179688 -15.625) scale(0.7)"/>
      <use xlink:href="#DejaVuSans-50" transform="translate(107.817383 -15.625) scale(0.7)"/>
      <use xlink:href="#DejaVuSans-41" transform="translate(150.029297 -15.625) scale(0.7)"/>
      <use xlink:href="#DejaVuSans-2c" transform="translate(200.649414 0.78125)"/>
      <use xlink:href="#DejaVuSans-20" transform="translate(232.436523 0.78125)"/>
      <use xlink:href="#DejaVuSans-Oblique-55" transform="translate(264.223633 0.78125)"/>
      <use xlink:href="#DejaVuSans-3d" transform="translate(356.899414 0.78125)"/>
      <use xlink:href="#DejaVuSans-32" transform="translate(460.170898 0.78125)"/>
      <use xlink:href="#DejaVuSans-2e" transform="translate(523.793945 0.78125)"/>
      <use xlink:href="#DejaVuSans-30" transform="translate(555.581055 0.78125)"/>
      <use xlink:href="#DejaVuSans-30" transform="translate(619.204102 0.78125)"/>
     </g>
    </g>
    <g id="line2d_36">
     <path d="M 292.445 123.609062 
L 302.445 123.609062 
L 312.445 123.609062 
" style="fill: none; stroke: #e377c2; stroke-width: 1.5; stroke-linecap: square"/>
    </g>
    <g id="text_20">
     <!-- $\chi_\mathrm{RPA}$, $U=2.20$ -->
     <g transform="translate(320.445 127.109062) scale(0.1 -0.1)">
      <use xlink:href="#DejaVuSans-Oblique-3c7" transform="translate(0 0.78125)"/>
      <use xlink:href="#DejaVuSans-52" transform="translate(59.179688 -15.625) scale(0.7)"/>
      <use xlink:href="#DejaVuSans-50" transform="translate(107.817383 -15.625) scale(0.7)"/>
      <use xlink:href="#DejaVuSans-41" transform="translate(150.029297 -15.625) scale(0.7)"/>
      <use xlink:href="#DejaVuSans-2c" transform="translate(200.649414 0.78125)"/>
      <use xlink:href="#DejaVuSans-20" transform="translate(232.436523 0.78125)"/>
      <use xlink:href="#DejaVuSans-Oblique-55" transform="translate(264.223633 0.78125)"/>
      <use xlink:href="#DejaVuSans-3d" transform="translate(356.899414 0.78125)"/>
      <use xlink:href="#DejaVuSans-32" transform="translate(460.170898 0.78125)"/>
      <use xlink:href="#DejaVuSans-2e" transform="translate(523.793945 0.78125)"/>
      <use xlink:href="#DejaVuSans-32" transform="translate(550.081055 0.78125)"/>
      <use xlink:href="#DejaVuSans-30" transform="translate(613.704102 0.78125)"/>
     </g>
    </g>
    <g id="line2d_37">
     <path d="M 292.445 138.3075 
L 302.445 138.3075 
L 312.445 138.3075 
" style="fill: none; stroke: #7f7f7f; stroke-width: 1.5; stroke-linecap: square"/>
    </g>
    <g id="text_21">
     <!-- $\chi_\mathrm{RPA}$, $U=2.40$ -->
     <g transform="translate(320.445 141.8075) scale(0.1 -0.1)">
      <use xlink:href="#DejaVuSans-Oblique-3c7" transform="translate(0 0.78125)"/>
      <use xlink:href="#DejaVuSans-52" transform="translate(59.179688 -15.625) scale(0.7)"/>
      <use xlink:href="#DejaVuSans-50" transform="translate(107.817383 -15.625) scale(0.7)"/>
      <use xlink:href="#DejaVuSans-41" transform="translate(150.029297 -15.625) scale(0.7)"/>
      <use xlink:href="#DejaVuSans-2c" transform="translate(200.649414 0.78125)"/>
      <use xlink:href="#DejaVuSans-20" transform="translate(232.436523 0.78125)"/>
      <use xlink:href="#DejaVuSans-Oblique-55" transform="translate(264.223633 0.78125)"/>
      <use xlink:href="#DejaVuSans-3d" transform="translate(356.899414 0.78125)"/>
      <use xlink:href="#DejaVuSans-32" transform="translate(460.170898 0.78125)"/>
      <use xlink:href="#DejaVuSans-2e" transform="translate(523.793945 0.78125)"/>
      <use xlink:href="#DejaVuSans-34" transform="translate(555.581055 0.78125)"/>
      <use xlink:href="#DejaVuSans-30" transform="translate(619.204102 0.78125)"/>
     </g>
    </g>
    <g id="line2d_38">
     <path d="M 292.445 153.005937 
L 302.445 153.005937 
L 312.445 153.005937 
" style="fill: none; stroke: #bcbd22; stroke-width: 1.5; stroke-linecap: square"/>
    </g>
    <g id="text_22">
     <!-- $\chi_\mathrm{RPA}$, $U=2.60$ -->
     <g transform="translate(320.445 156.505937) scale(0.1 -0.1)">
      <use xlink:href="#DejaVuSans-Oblique-3c7" transform="translate(0 0.78125)"/>
      <use xlink:href="#DejaVuSans-52" transform="translate(59.179688 -15.625) scale(0.7)"/>
      <use xlink:href="#DejaVuSans-50" transform="translate(107.817383 -15.625) scale(0.7)"/>
      <use xlink:href="#DejaVuSans-41" transform="translate(150.029297 -15.625) scale(0.7)"/>
      <use xlink:href="#DejaVuSans-2c" transform="translate(200.649414 0.78125)"/>
      <use xlink:href="#DejaVuSans-20" transform="translate(232.436523 0.78125)"/>
      <use xlink:href="#DejaVuSans-Oblique-55" transform="translate(264.223633 0.78125)"/>
      <use xlink:href="#DejaVuSans-3d" transform="translate(356.899414 0.78125)"/>
      <use xlink:href="#DejaVuSans-32" transform="translate(460.170898 0.78125)"/>
      <use xlink:href="#DejaVuSans-2e" transform="translate(523.793945 0.78125)"/>
      <use xlink:href="#DejaVuSans-36" transform="translate(555.581055 0.78125)"/>
      <use xlink:href="#DejaVuSans-30" transform="translate(619.204102 0.78125)"/>
     </g>
    </g>
   </g>
  </g>
 </g>
 <defs>
  <clipPath id="p865f2399fa">
   <rect x="40.625" y="22.32" width="357.12" height="266.112"/>
  </clipPath>
 </defs>
</svg>
