<?xml version="1.0" encoding="utf-8" standalone="no"?>
<!DOCTYPE svg PUBLIC "-//W3C//DTD SVG 1.1//EN"
  "http://www.w3.org/Graphics/SVG/1.1/DTD/svg11.dtd">
<svg xmlns:xlink="http://www.w3.org/1999/xlink" width="394.160938pt" height="270.315469pt" viewBox="0 0 394.160938 270.315469" xmlns="http://www.w3.org/2000/svg" version="1.1">
 <metadata>
  <rdf:RDF xmlns:dc="http://purl.org/dc/elements/1.1/" xmlns:cc="http://creativecommons.org/ns#" xmlns:rdf="http://www.w3.org/1999/02/22-rdf-syntax-ns#">
   <cc:Work>
    <dc:type rdf:resource="http://purl.org/dc/dcmitype/StillImage"/>
    <dc:date>2026-05-19T12:36:53.950567</dc:date>
    <dc:format>image/svg+xml</dc:format>
    <dc:creator>
     <cc:Agent>
      <dc:title>Matplotlib v3.10.8, https://matplotlib.org/</dc:title>
     </cc:Agent>
    </dc:creator>
   </cc:Work>
  </rdf:RDF>
 </metadata>
 <defs>
  <style type="text/css">*{stroke-linejoin: round; stroke-linecap: butt}</style>
 </defs>
 <g id="figure_1">
  <g id="patch_1">
   <path d="M 0 270.315469 
L 394.160938 270.315469 
L 394.160938 0 
L 0 0 
z
" style="fill: #ffffff"/>
  </g>
  <g id="axes_1">
   <g id="patch_2">
    <path d="M 52.160938 232.759219 
L 386.960938 232.759219 
L 386.960938 10.999219 
L 52.160938 10.999219 
z
" style="fill: #ffffff"/>
   </g>
   <g id="matplotlib.axis_1">
    <g id="xtick_1">
     <g id="line2d_1">
      <path d="M 67.379119 232.759219 
L 67.379119 10.999219 
" clip-path="url(#pf17b78be33)" style="fill: none; stroke: #b0b0b0; stroke-width: 0.8; stroke-linecap: square"/>
     </g>
     <g id="line2d_2">
      <defs>
       <path id="m34675d4273" d="M 0 0 
L 0 3.5 
" style="stroke: #000000; stroke-width: 0.8"/>
      </defs>
      <g>
       <use xlink:href="#m34675d4273" x="67.379119" y="232.759219" style="stroke: #000000; stroke-width: 0.8"/>
      </g>
     </g>
     <g id="text_1">
      <!-- 0 -->
      <g transform="translate(64.197869 247.357656) scale(0.1 -0.1)">
       <defs>
        <path id="DejaVuSans-30" d="M 2034 4250 
Q 1547 4250 1301 3770 
Q 1056 3291 1056 2328 
Q 1056 1369 1301 889 
Q 1547 409 2034 409 
Q 2525 409 2770 889 
Q 3016 1369 3016 2328 
Q 3016 3291 2770 3770 
Q 2525 4250 2034 4250 
z
M 2034 4750 
Q 2819 4750 3233 4129 
Q 3647 3509 3647 2328 
Q 3647 1150 3233 529 
Q 2819 -91 2034 -91 
Q 1250 -91 836 529 
Q 422 1150 422 2328 
Q 422 3509 836 4129 
Q 1250 4750 2034 4750 
z
" transform="scale(0.015625)"/>
       </defs>
       <use xlink:href="#DejaVuSans-30"/>
      </g>
     </g>
    </g>
    <g id="xtick_2">
     <g id="line2d_3">
      <path d="M 128.251847 232.759219 
L 128.251847 10.999219 
" clip-path="url(#pf17b78be33)" style="fill: none; stroke: #b0b0b0; stroke-width: 0.8; stroke-linecap: square"/>
     </g>
     <g id="line2d_4">
      <g>
       <use xlink:href="#m34675d4273" x="128.251847" y="232.759219" style="stroke: #000000; stroke-width: 0.8"/>
      </g>
     </g>
     <g id="text_2">
      <!-- 1 -->
      <g transform="translate(125.070597 247.357656) scale(0.1 -0.1)">
       <defs>
        <path id="DejaVuSans-31" d="M 794 531 
L 1825 531 
L 1825 4091 
L 703 3866 
L 703 4441 
L 1819 4666 
L 2450 4666 
L 2450 531 
L 3481 531 
L 3481 0 
L 794 0 
L 794 531 
z
" transform="scale(0.015625)"/>
       </defs>
       <use xlink:href="#DejaVuSans-31"/>
      </g>
     </g>
    </g>
    <g id="xtick_3">
     <g id="line2d_5">
      <path d="M 189.124574 232.759219 
L 189.124574 10.999219 
" clip-path="url(#pf17b78be33)" style="fill: none; stroke: #b0b0b0; stroke-width: 0.8; stroke-linecap: square"/>
     </g>
     <g id="line2d_6">
      <g>
       <use xlink:href="#m34675d4273" x="189.124574" y="232.759219" style="stroke: #000000; stroke-width: 0.8"/>
      </g>
     </g>
     <g id="text_3">
      <!-- 2 -->
      <g transform="translate(185.943324 247.357656) scale(0.1 -0.1)">
       <defs>
        <path id="DejaVuSans-32" d="M 1228 531 
L 3431 531 
L 3431 0 
L 469 0 
L 469 531 
Q 828 903 1448 1529 
Q 2069 2156 2228 2338 
Q 2531 2678 2651 2914 
Q 2772 3150 2772 3378 
Q 2772 3750 2511 3984 
Q 2250 4219 1831 4219 
Q 1534 4219 1204 4116 
Q 875 4013 500 3803 
L 500 4441 
Q 881 4594 1212 4672 
Q 1544 4750 1819 4750 
Q 2544 4750 2975 4387 
Q 3406 4025 3406 3419 
Q 3406 3131 3298 2873 
Q 3191 2616 2906 2266 
Q 2828 2175 2409 1742 
Q 1991 1309 1228 531 
z
" transform="scale(0.015625)"/>
       </defs>
       <use xlink:href="#DejaVuSans-32"/>
      </g>
     </g>
    </g>
    <g id="xtick_4">
     <g id="line2d_7">
      <path d="M 249.997301 232.759219 
L 249.997301 10.999219 
" clip-path="url(#pf17b78be33)" style="fill: none; stroke: #b0b0b0; stroke-width: 0.8; stroke-linecap: square"/>
     </g>
     <g id="line2d_8">
      <g>
       <use xlink:href="#m34675d4273" x="249.997301" y="232.759219" style="stroke: #000000; stroke-width: 0.8"/>
      </g>
     </g>
     <g id="text_4">
      <!-- 3 -->
      <g transform="translate(246.816051 247.357656) scale(0.1 -0.1)">
       <defs>
        <path id="DejaVuSans-33" d="M 2597 2516 
Q 3050 2419 3304 2112 
Q 3559 1806 3559 1356 
Q 3559 666 3084 287 
Q 2609 -91 1734 -91 
Q 1441 -91 1130 -33 
Q 819 25 488 141 
L 488 750 
Q 750 597 1062 519 
Q 1375 441 1716 441 
Q 2309 441 2620 675 
Q 2931 909 2931 1356 
Q 2931 1769 2642 2001 
Q 2353 2234 1838 2234 
L 1294 2234 
L 1294 2753 
L 1863 2753 
Q 2328 2753 2575 2939 
Q 2822 3125 2822 3475 
Q 2822 3834 2567 4026 
Q 2313 4219 1838 4219 
Q 1578 4219 1281 4162 
Q 984 4106 628 3988 
L 628 4550 
Q 988 4650 1302 4700 
Q 1616 4750 1894 4750 
Q 2613 4750 3031 4423 
Q 3450 4097 3450 3541 
Q 3450 3153 3228 2886 
Q 3006 2619 2597 2516 
z
" transform="scale(0.015625)"/>
       </defs>
       <use xlink:href="#DejaVuSans-33"/>
      </g>
     </g>
    </g>
    <g id="xtick_5">
     <g id="line2d_9">
      <path d="M 310.870028 232.759219 
L 310.870028 10.999219 
" clip-path="url(#pf17b78be33)" style="fill: none; stroke: #b0b0b0; stroke-width: 0.8; stroke-linecap: square"/>
     </g>
     <g id="line2d_10">
      <g>
       <use xlink:href="#m34675d4273" x="310.870028" y="232.759219" style="stroke: #000000; stroke-width: 0.8"/>
      </g>
     </g>
     <g id="text_5">
      <!-- 4 -->
      <g transform="translate(307.688778 247.357656) scale(0.1 -0.1)">
       <defs>
        <path id="DejaVuSans-34" d="M 2419 4116 
L 825 1625 
L 2419 1625 
L 2419 4116 
z
M 2253 4666 
L 3047 4666 
L 3047 1625 
L 3713 1625 
L 3713 1100 
L 3047 1100 
L 3047 0 
L 2419 0 
L 2419 1100 
L 313 1100 
L 313 1709 
L 2253 4666 
z
" transform="scale(0.015625)"/>
       </defs>
       <use xlink:href="#DejaVuSans-34"/>
      </g>
     </g>
    </g>
    <g id="xtick_6">
     <g id="line2d_11">
      <path d="M 371.742756 232.759219 
L 371.742756 10.999219 
" clip-path="url(#pf17b78be33)" style="fill: none; stroke: #b0b0b0; stroke-width: 0.8; stroke-linecap: square"/>
     </g>
     <g id="line2d_12">
      <g>
       <use xlink:href="#m34675d4273" x="371.742756" y="232.759219" style="stroke: #000000; stroke-width: 0.8"/>
      </g>
     </g>
     <g id="text_6">
      <!-- 5 -->
      <g transform="translate(368.561506 247.357656) scale(0.1 -0.1)">
       <defs>
        <path id="DejaVuSans-35" d="M 691 4666 
L 3169 4666 
L 3169 4134 
L 1269 4134 
L 1269 2991 
Q 1406 3038 1543 3061 
Q 1681 3084 1819 3084 
Q 2600 3084 3056 2656 
Q 3513 2228 3513 1497 
Q 3513 744 3044 326 
Q 2575 -91 1722 -91 
Q 1428 -91 1123 -41 
Q 819 9 494 109 
L 494 744 
Q 775 591 1075 516 
Q 1375 441 1709 441 
Q 2250 441 2565 725 
Q 2881 1009 2881 1497 
Q 2881 1984 2565 2268 
Q 2250 2553 1709 2553 
Q 1456 2553 1204 2497 
Q 953 2441 691 2322 
L 691 4666 
z
" transform="scale(0.015625)"/>
       </defs>
       <use xlink:href="#DejaVuSans-35"/>
      </g>
     </g>
    </g>
    <g id="text_7">
     <!-- $\tau$ -->
     <g transform="translate(216.510938 261.035781) scale(0.1 -0.1)">
      <defs>
       <path id="DejaVuSans-Oblique-3c4" d="M 2103 638 
Q 2188 488 2525 488 
L 2800 488 
L 2706 0 
L 2363 0 
Q 1800 0 1600 300 
Q 1403 606 1534 1269 
L 1856 2925 
L 541 2925 
L 653 3500 
L 3881 3500 
L 3769 2925 
L 2444 2925 
L 2113 1234 
Q 2025 781 2103 638 
z
" transform="scale(0.015625)"/>
      </defs>
      <use xlink:href="#DejaVuSans-Oblique-3c4" transform="translate(0 0.3125)"/>
     </g>
    </g>
   </g>
   <g id="matplotlib.axis_2">
    <g id="ytick_1">
     <g id="line2d_13">
      <path d="M 52.160938 225.859365 
L 386.960938 225.859365 
" clip-path="url(#pf17b78be33)" style="fill: none; stroke: #b0b0b0; stroke-width: 0.8; stroke-linecap: square"/>
     </g>
     <g id="line2d_14">
      <defs>
       <path id="m4f622fa467" d="M 0 0 
L -3.5 0 
" style="stroke: #000000; stroke-width: 0.8"/>
      </defs>
      <g>
       <use xlink:href="#m4f622fa467" x="52.160938" y="225.859365" style="stroke: #000000; stroke-width: 0.8"/>
      </g>
     </g>
     <g id="text_8">
      <!-- −0.5 -->
      <g transform="translate(20.878125 229.658584) scale(0.1 -0.1)">
       <defs>
        <path id="DejaVuSans-2212" d="M 678 2272 
L 4684 2272 
L 4684 1741 
L 678 1741 
L 678 2272 
z
" transform="scale(0.015625)"/>
        <path id="DejaVuSans-2e" d="M 684 794 
L 1344 794 
L 1344 0 
L 684 0 
L 684 794 
z
" transform="scale(0.015625)"/>
       </defs>
       <use xlink:href="#DejaVuSans-2212"/>
       <use xlink:href="#DejaVuSans-30" transform="translate(83.789062 0)"/>
       <use xlink:href="#DejaVuSans-2e" transform="translate(147.412109 0)"/>
       <use xlink:href="#DejaVuSans-35" transform="translate(179.199219 0)"/>
      </g>
     </g>
    </g>
    <g id="ytick_2">
     <g id="line2d_15">
      <path d="M 52.160938 182.887336 
L 386.960938 182.887336 
" clip-path="url(#pf17b78be33)" style="fill: none; stroke: #b0b0b0; stroke-width: 0.8; stroke-linecap: square"/>
     </g>
     <g id="line2d_16">
      <g>
       <use xlink:href="#m4f622fa467" x="52.160938" y="182.887336" style="stroke: #000000; stroke-width: 0.8"/>
      </g>
     </g>
     <g id="text_9">
      <!-- −0.4 -->
      <g transform="translate(20.878125 186.686555) scale(0.1 -0.1)">
       <use xlink:href="#DejaVuSans-2212"/>
       <use xlink:href="#DejaVuSans-30" transform="translate(83.789062 0)"/>
       <use xlink:href="#DejaVuSans-2e" transform="translate(147.412109 0)"/>
       <use xlink:href="#DejaVuSans-34" transform="translate(179.199219 0)"/>
      </g>
     </g>
    </g>
    <g id="ytick_3">
     <g id="line2d_17">
      <path d="M 52.160938 139.915307 
L 386.960938 139.915307 
" clip-path="url(#pf17b78be33)" style="fill: none; stroke: #b0b0b0; stroke-width: 0.8; stroke-linecap: square"/>
     </g>
     <g id="line2d_18">
      <g>
       <use xlink:href="#m4f622fa467" x="52.160938" y="139.915307" style="stroke: #000000; stroke-width: 0.8"/>
      </g>
     </g>
     <g id="text_10">
      <!-- −0.3 -->
      <g transform="translate(20.878125 143.714525) scale(0.1 -0.1)">
       <use xlink:href="#DejaVuSans-2212"/>
       <use xlink:href="#DejaVuSans-30" transform="translate(83.789062 0)"/>
       <use xlink:href="#DejaVuSans-2e" transform="translate(147.412109 0)"/>
       <use xlink:href="#DejaVuSans-33" transform="translate(179.199219 0)"/>
      </g>
     </g>
    </g>
    <g id="ytick_4">
     <g id="line2d_19">
      <path d="M 52.160938 96.943277 
L 386.960938 96.943277 
" clip-path="url(#pf17b78be33)" style="fill: none; stroke: #b0b0b0; stroke-width: 0.8; stroke-linecap: square"/>
     </g>
     <g id="line2d_20">
      <g>
       <use xlink:href="#m4f622fa467" x="52.160938" y="96.943277" style="stroke: #000000; stroke-width: 0.8"/>
      </g>
     </g>
     <g id="text_11">
      <!-- −0.2 -->
      <g transform="translate(20.878125 100.742496) scale(0.1 -0.1)">
       <use xlink:href="#DejaVuSans-2212"/>
       <use xlink:href="#DejaVuSans-30" transform="translate(83.789062 0)"/>
       <use xlink:href="#DejaVuSans-2e" transform="translate(147.412109 0)"/>
       <use xlink:href="#DejaVuSans-32" transform="translate(179.199219 0)"/>
      </g>
     </g>
    </g>
    <g id="ytick_5">
     <g id="line2d_21">
      <path d="M 52.160938 53.971248 
L 386.960938 53.971248 
" clip-path="url(#pf17b78be33)" style="fill: none; stroke: #b0b0b0; stroke-width: 0.8; stroke-linecap: square"/>
     </g>
     <g id="line2d_22">
      <g>
       <use xlink:href="#m4f622fa467" x="52.160938" y="53.971248" style="stroke: #000000; stroke-width: 0.8"/>
      </g>
     </g>
     <g id="text_12">
      <!-- −0.1 -->
      <g transform="translate(20.878125 57.770467) scale(0.1 -0.1)">
       <use xlink:href="#DejaVuSans-2212"/>
       <use xlink:href="#DejaVuSans-30" transform="translate(83.789062 0)"/>
       <use xlink:href="#DejaVuSans-2e" transform="translate(147.412109 0)"/>
       <use xlink:href="#DejaVuSans-31" transform="translate(179.199219 0)"/>
      </g>
     </g>
    </g>
    <g id="ytick_6">
     <g id="line2d_23">
      <path d="M 52.160938 10.999219 
L 386.960938 10.999219 
" clip-path="url(#pf17b78be33)" style="fill: none; stroke: #b0b0b0; stroke-width: 0.8; stroke-linecap: square"/>
     </g>
     <g id="line2d_24">
      <g>
       <use xlink:href="#m4f622fa467" x="52.160938" y="10.999219" style="stroke: #000000; stroke-width: 0.8"/>
      </g>
     </g>
     <g id="text_13">
      <!-- 0.0 -->
      <g transform="translate(29.257812 14.798437) scale(0.1 -0.1)">
       <use xlink:href="#DejaVuSans-30"/>
       <use xlink:href="#DejaVuSans-2e" transform="translate(63.623047 0)"/>
       <use xlink:href="#DejaVuSans-30" transform="translate(95.410156 0)"/>
      </g>
     </g>
    </g>
    <g id="text_14">
     <!-- $G(\tau)$ -->
     <g transform="translate(14.798438 132.679219) rotate(-90) scale(0.1 -0.1)">
      <defs>
       <path id="DejaVuSans-Oblique-47" d="M 3494 697 
L 3738 1919 
L 2700 1919 
L 2797 2438 
L 4453 2438 
L 4050 384 
Q 3634 156 3143 32 
Q 2653 -91 2156 -91 
Q 1278 -91 783 396 
Q 288 884 288 1753 
Q 288 2475 589 3126 
Q 891 3778 1422 4213 
Q 1756 4484 2153 4617 
Q 2550 4750 3034 4750 
Q 3472 4750 3873 4639 
Q 4275 4528 4641 4306 
L 4513 3634 
Q 4231 3928 3853 4083 
Q 3475 4238 3047 4238 
Q 2550 4238 2172 4048 
Q 1794 3859 1497 3463 
Q 1244 3125 1098 2667 
Q 953 2209 953 1734 
Q 953 1081 1287 751 
Q 1622 422 2284 422 
Q 2616 422 2925 492 
Q 3234 563 3494 697 
z
" transform="scale(0.015625)"/>
       <path id="DejaVuSans-28" d="M 1984 4856 
Q 1566 4138 1362 3434 
Q 1159 2731 1159 2009 
Q 1159 1288 1364 580 
Q 1569 -128 1984 -844 
L 1484 -844 
Q 1016 -109 783 600 
Q 550 1309 550 2009 
Q 550 2706 781 3412 
Q 1013 4119 1484 4856 
L 1984 4856 
z
" transform="scale(0.015625)"/>
       <path id="DejaVuSans-29" d="M 513 4856 
L 1013 4856 
Q 1481 4119 1714 3412 
Q 1947 2706 1947 2009 
Q 1947 1309 1714 600 
Q 1481 -109 1013 -844 
L 513 -844 
Q 928 -128 1133 580 
Q 1338 1288 1338 2009 
Q 1338 2731 1133 3434 
Q 928 4138 513 4856 
z
" transform="scale(0.015625)"/>
      </defs>
      <use xlink:href="#DejaVuSans-Oblique-47" transform="translate(0 0.125)"/>
      <use xlink:href="#DejaVuSans-28" transform="translate(77.490234 0.125)"/>
      <use xlink:href="#DejaVuSans-Oblique-3c4" transform="translate(116.503906 0.125)"/>
      <use xlink:href="#DejaVuSans-29" transform="translate(176.708984 0.125)"/>
     </g>
    </g>
   </g>
   <g id="line2d_25"/>
   <g id="line2d_26">
    <defs>
     <path id="md29fe89f22" d="M -3 3 
L 3 -3 
M -3 -3 
L 3 3 
" style="stroke: #1f77b4"/>
    </defs>
    <g clip-path="url(#pf17b78be33)">
     <use xlink:href="#md29fe89f22" x="67.562224" y="225.312341" style="fill: #1f77b4; stroke: #1f77b4"/>
     <use xlink:href="#md29fe89f22" x="77.266213" y="199.863566" style="fill: #1f77b4; stroke: #1f77b4"/>
     <use xlink:href="#md29fe89f22" x="98.15337" y="162.368624" style="fill: #1f77b4; stroke: #1f77b4"/>
     <use xlink:href="#md29fe89f22" x="126.175382" y="133.518037" style="fill: #1f77b4; stroke: #1f77b4"/>
     <use xlink:href="#md29fe89f22" x="156.858465" y="116.601859" style="fill: #1f77b4; stroke: #1f77b4"/>
     <use xlink:href="#md29fe89f22" x="202.266291" y="106.306345" style="fill: #1f77b4; stroke: #1f77b4"/>
     <use xlink:href="#md29fe89f22" x="226.409044" y="105.657995" style="fill: #1f77b4; stroke: #1f77b4"/>
     <use xlink:href="#md29fe89f22" x="255.169318" y="108.87255" style="fill: #1f77b4; stroke: #1f77b4"/>
     <use xlink:href="#md29fe89f22" x="291.330474" y="120.507483" style="fill: #1f77b4; stroke: #1f77b4"/>
     <use xlink:href="#md29fe89f22" x="317.19343" y="136.847439" style="fill: #1f77b4; stroke: #1f77b4"/>
     <use xlink:href="#md29fe89f22" x="354.448109" y="184.327596" style="fill: #1f77b4; stroke: #1f77b4"/>
     <use xlink:href="#md29fe89f22" x="364.894649" y="207.140664" style="fill: #1f77b4; stroke: #1f77b4"/>
     <use xlink:href="#md29fe89f22" x="371.559651" y="225.312341" style="fill: #1f77b4; stroke: #1f77b4"/>
    </g>
   </g>
   <g id="line2d_27">
    <path d="M 67.379119 225.859344 
L 70.430384 217.091587 
L 73.481648 209.016361 
L 76.532913 201.567197 
L 79.584177 194.68512 
L 82.635442 188.317708 
L 85.686706 182.418293 
L 88.737971 176.945256 
L 91.789236 171.861419 
L 94.8405 167.133515 
L 98.654581 161.679036 
L 102.468661 156.682702 
L 106.282742 152.09928 
L 110.096823 147.889049 
L 113.910903 144.01705 
L 117.724984 140.452444 
L 121.539065 137.167972 
L 125.353145 134.139492 
L 129.930042 130.81324 
L 134.506939 127.792364 
L 139.083836 125.048566 
L 143.660732 122.557191 
L 148.237629 120.296724 
L 153.577342 117.926418 
L 158.917055 115.819109 
L 164.256768 113.952735 
L 169.596481 112.308462 
L 175.69901 110.680783 
L 181.801539 109.30223 
L 187.904068 108.156307 
L 194.006597 107.229668 
L 200.109126 106.511761 
L 206.974471 105.943714 
L 213.839817 105.621826 
L 220.705162 105.541655 
L 227.570507 105.702102 
L 234.435852 106.105378 
L 240.538381 106.672139 
L 246.64091 107.441396 
L 252.743439 108.421783 
L 258.845968 109.624517 
L 264.948497 111.06369 
L 271.051026 112.756643 
L 276.390739 114.462614 
L 281.730452 116.395753 
L 287.070165 118.575772 
L 292.409878 121.02575 
L 296.986775 123.360948 
L 301.563672 125.933911 
L 306.140568 128.767155 
L 310.717465 131.886495 
L 315.294362 135.321572 
L 319.108443 138.449774 
L 322.922523 141.843286 
L 326.736604 145.527443 
L 330.550685 149.530868 
L 334.364765 153.885972 
L 338.178846 158.629529 
L 341.992927 163.803359 
L 345.044191 168.284038 
L 348.095456 173.097968 
L 351.14672 178.275793 
L 354.197985 183.851715 
L 357.249249 189.86398 
L 360.300514 196.355417 
L 363.351778 203.374076 
L 366.403043 210.973946 
L 369.454307 219.215789 
L 371.742756 225.859348 
L 371.742756 225.859348 
" clip-path="url(#pf17b78be33)" style="fill: none; stroke: #1f77b4; stroke-width: 1.5; stroke-linecap: square"/>
   </g>
   <g id="line2d_28"/>
   <g id="line2d_29">
    <defs>
     <path id="m31c721a3bb" d="M -3 3 
L 3 -3 
M -3 -3 
L 3 3 
" style="stroke: #ff7f0e"/>
    </defs>
    <g clip-path="url(#pf17b78be33)">
     <use xlink:href="#m31c721a3bb" x="67.562224" y="225.312341" style="fill: #ff7f0e; stroke: #ff7f0e"/>
     <use xlink:href="#m31c721a3bb" x="77.266213" y="199.863566" style="fill: #ff7f0e; stroke: #ff7f0e"/>
     <use xlink:href="#m31c721a3bb" x="98.15337" y="162.368624" style="fill: #ff7f0e; stroke: #ff7f0e"/>
     <use xlink:href="#m31c721a3bb" x="126.175382" y="133.518037" style="fill: #ff7f0e; stroke: #ff7f0e"/>
     <use xlink:href="#m31c721a3bb" x="156.858465" y="116.601859" style="fill: #ff7f0e; stroke: #ff7f0e"/>
     <use xlink:href="#m31c721a3bb" x="202.266291" y="106.306345" style="fill: #ff7f0e; stroke: #ff7f0e"/>
     <use xlink:href="#m31c721a3bb" x="226.409044" y="105.657995" style="fill: #ff7f0e; stroke: #ff7f0e"/>
     <use xlink:href="#m31c721a3bb" x="255.169318" y="108.87255" style="fill: #ff7f0e; stroke: #ff7f0e"/>
     <use xlink:href="#m31c721a3bb" x="291.330474" y="120.507483" style="fill: #ff7f0e; stroke: #ff7f0e"/>
     <use xlink:href="#m31c721a3bb" x="317.19343" y="136.847439" style="fill: #ff7f0e; stroke: #ff7f0e"/>
     <use xlink:href="#m31c721a3bb" x="354.448109" y="184.327596" style="fill: #ff7f0e; stroke: #ff7f0e"/>
     <use xlink:href="#m31c721a3bb" x="364.894649" y="207.140664" style="fill: #ff7f0e; stroke: #ff7f0e"/>
     <use xlink:href="#m31c721a3bb" x="371.559651" y="225.312341" style="fill: #ff7f0e; stroke: #ff7f0e"/>
    </g>
   </g>
   <g id="line2d_30">
    <path d="M 67.379119 225.859344 
L 70.430384 217.091587 
L 73.481648 209.016361 
L 76.532913 201.567197 
L 79.584177 194.68512 
L 82.635442 188.317708 
L 85.686706 182.418293 
L 88.737971 176.945256 
L 91.789236 171.861419 
L 94.8405 167.133515 
L 98.654581 161.679036 
L 102.468661 156.682702 
L 106.282742 152.09928 
L 110.096823 147.889049 
L 113.910903 144.01705 
L 117.724984 140.452444 
L 121.539065 137.167972 
L 125.353145 134.139492 
L 129.930042 130.81324 
L 134.506939 127.792364 
L 139.083836 125.048566 
L 143.660732 122.557191 
L 148.237629 120.296724 
L 153.577342 117.926418 
L 158.917055 115.819109 
L 164.256768 113.952735 
L 169.596481 112.308462 
L 175.69901 110.680783 
L 181.801539 109.30223 
L 187.904068 108.156307 
L 194.006597 107.229668 
L 200.109126 106.511761 
L 206.974471 105.943714 
L 213.839817 105.621826 
L 220.705162 105.541655 
L 227.570507 105.702102 
L 234.435852 106.105378 
L 240.538381 106.672139 
L 246.64091 107.441396 
L 252.743439 108.421783 
L 258.845968 109.624517 
L 264.948497 111.06369 
L 271.051026 112.756643 
L 276.390739 114.462614 
L 281.730452 116.395753 
L 287.070165 118.575772 
L 292.409878 121.02575 
L 296.986775 123.360948 
L 301.563672 125.933911 
L 306.140568 128.767155 
L 310.717465 131.886495 
L 315.294362 135.321572 
L 319.108443 138.449774 
L 322.922523 141.843286 
L 326.736604 145.527443 
L 330.550685 149.530868 
L 334.364765 153.885972 
L 338.178846 158.629529 
L 341.992927 163.803359 
L 345.044191 168.284038 
L 348.095456 173.097968 
L 351.14672 178.275793 
L 354.197985 183.851715 
L 357.249249 189.86398 
L 360.300514 196.355417 
L 363.351778 203.374076 
L 366.403043 210.973946 
L 369.454307 219.215789 
L 371.742756 225.859348 
L 371.742756 225.859348 
" clip-path="url(#pf17b78be33)" style="fill: none; stroke-dasharray: 1.5,2.475; stroke-dashoffset: 0; stroke: #ff7f0e; stroke-width: 1.5"/>
   </g>
   <g id="line2d_31"/>
   <g id="line2d_32">
    <defs>
     <path id="m54b354c01e" d="M -3 3 
L 3 -3 
M -3 -3 
L 3 3 
" style="stroke: #2ca02c"/>
    </defs>
    <g clip-path="url(#pf17b78be33)">
     <use xlink:href="#m54b354c01e" x="67.562224" y="225.345758" style="fill: #2ca02c; stroke: #2ca02c"/>
     <use xlink:href="#m54b354c01e" x="77.266213" y="200.390999" style="fill: #2ca02c; stroke: #2ca02c"/>
     <use xlink:href="#m54b354c01e" x="98.15337" y="159.552398" style="fill: #2ca02c; stroke: #2ca02c"/>
     <use xlink:href="#m54b354c01e" x="126.175382" y="124.57324" style="fill: #2ca02c; stroke: #2ca02c"/>
     <use xlink:href="#m54b354c01e" x="156.858465" y="102.659221" style="fill: #2ca02c; stroke: #2ca02c"/>
     <use xlink:href="#m54b354c01e" x="202.266291" y="88.898989" style="fill: #2ca02c; stroke: #2ca02c"/>
     <use xlink:href="#m54b354c01e" x="226.409044" y="88.024098" style="fill: #2ca02c; stroke: #2ca02c"/>
     <use xlink:href="#m54b354c01e" x="255.169318" y="92.353176" style="fill: #2ca02c; stroke: #2ca02c"/>
     <use xlink:href="#m54b354c01e" x="291.330474" y="107.80237" style="fill: #2ca02c; stroke: #2ca02c"/>
     <use xlink:href="#m54b354c01e" x="317.19343" y="128.76892" style="fill: #2ca02c; stroke: #2ca02c"/>
     <use xlink:href="#m54b354c01e" x="354.448109" y="184.08418" style="fill: #2ca02c; stroke: #2ca02c"/>
     <use xlink:href="#m54b354c01e" x="364.894649" y="207.743509" style="fill: #2ca02c; stroke: #2ca02c"/>
     <use xlink:href="#m54b354c01e" x="371.559651" y="225.345757" style="fill: #2ca02c; stroke: #2ca02c"/>
    </g>
   </g>
   <g id="line2d_33">
    <path d="M 67.379119 225.859389 
L 71.1932 215.497141 
L 75.007281 205.817571 
L 78.821361 196.782313 
L 82.635442 188.353221 
L 86.449523 180.492971 
L 90.263603 173.1655 
L 94.077684 166.336301 
L 97.891765 159.972612 
L 101.705845 154.043517 
L 105.519926 148.519995 
L 109.334007 143.374914 
L 113.148087 138.582996 
L 116.962168 134.120757 
L 120.776249 129.966434 
L 124.590329 126.099896 
L 128.40441 122.502558 
L 132.981307 118.51707 
L 137.558203 114.867591 
L 142.1351 111.529681 
L 146.711997 108.481291 
L 151.288894 105.702561 
L 155.865791 103.175644 
L 160.442687 100.884532 
L 165.019584 98.814912 
L 170.359297 96.663357 
L 175.69901 94.778159 
L 181.038723 93.14393 
L 186.378436 91.747501 
L 191.718149 90.577754 
L 197.057862 89.625469 
L 202.397575 88.883209 
L 207.737287 88.345219 
L 213.077 88.00735 
L 218.416713 87.867007 
L 223.756426 87.923115 
L 229.096139 88.176103 
L 234.435852 88.627911 
L 239.775565 89.282015 
L 245.115278 90.143474 
L 250.454991 91.218995 
L 255.794704 92.517021 
L 261.134417 94.047842 
L 266.47413 95.82373 
L 271.813842 97.8591 
L 276.390739 99.822855 
L 280.967636 102.001539 
L 285.544533 104.40867 
L 290.12143 107.05939 
L 294.698326 109.970604 
L 299.275223 113.161142 
L 303.85212 116.651933 
L 308.429017 120.466197 
L 312.243097 123.910319 
L 316.057178 127.61319 
L 319.871259 131.592517 
L 323.685339 135.867494 
L 327.49942 140.458896 
L 331.313501 145.389167 
L 335.127581 150.682503 
L 338.941662 156.364915 
L 342.755743 162.464287 
L 346.569823 169.010392 
L 350.383904 176.034885 
L 354.197985 183.571232 
L 358.012065 191.654582 
L 361.826146 200.321546 
L 365.640227 209.609861 
L 369.454307 219.557911 
L 371.742756 225.859399 
L 371.742756 225.859399 
" clip-path="url(#pf17b78be33)" style="fill: none; stroke: #2ca02c; stroke-width: 1.5; stroke-linecap: square"/>
   </g>
   <g id="line2d_34"/>
   <g id="line2d_35">
    <defs>
     <path id="m9617cdfa46" d="M -3 3 
L 3 -3 
M -3 -3 
L 3 3 
" style="stroke: #d62728"/>
    </defs>
    <g clip-path="url(#pf17b78be33)">
     <use xlink:href="#m9617cdfa46" x="67.562224" y="225.337594" style="fill: #d62728; stroke: #d62728"/>
     <use xlink:href="#m9617cdfa46" x="77.266213" y="200.272998" style="fill: #d62728; stroke: #d62728"/>
     <use xlink:href="#m9617cdfa46" x="98.15337" y="160.257118" style="fill: #d62728; stroke: #d62728"/>
     <use xlink:href="#m9617cdfa46" x="126.175382" y="126.754096" style="fill: #d62728; stroke: #d62728"/>
     <use xlink:href="#m9617cdfa46" x="156.858465" y="106.090359" style="fill: #d62728; stroke: #d62728"/>
     <use xlink:href="#m9617cdfa46" x="202.266291" y="93.256722" style="fill: #d62728; stroke: #d62728"/>
     <use xlink:href="#m9617cdfa46" x="226.409044" y="92.444953" style="fill: #d62728; stroke: #d62728"/>
     <use xlink:href="#m9617cdfa46" x="255.169318" y="96.466856" style="fill: #d62728; stroke: #d62728"/>
     <use xlink:href="#m9617cdfa46" x="291.330474" y="110.916573" style="fill: #d62728; stroke: #d62728"/>
     <use xlink:href="#m9617cdfa46" x="317.19343" y="130.739232" style="fill: #d62728; stroke: #d62728"/>
     <use xlink:href="#m9617cdfa46" x="354.448109" y="184.162353" style="fill: #d62728; stroke: #d62728"/>
     <use xlink:href="#m9617cdfa46" x="364.894649" y="207.602714" style="fill: #d62728; stroke: #d62728"/>
     <use xlink:href="#m9617cdfa46" x="371.559651" y="225.337594" style="fill: #d62728; stroke: #d62728"/>
    </g>
   </g>
   <g id="line2d_36">
    <path d="M 67.379119 225.859364 
L 71.1932 215.380813 
L 75.007281 205.678577 
L 78.821361 196.690959 
L 82.635442 188.361656 
L 86.449523 180.639256 
L 90.263603 173.476787 
L 94.077684 166.831315 
L 97.891765 160.663577 
L 101.705845 154.937663 
L 105.519926 149.620718 
L 109.334007 144.682678 
L 113.148087 140.096027 
L 116.962168 135.835585 
L 120.776249 131.878305 
L 124.590329 128.203097 
L 128.40441 124.790659 
L 132.981307 121.017837 
L 137.558203 117.57039 
L 142.1351 114.423471 
L 146.711997 111.554786 
L 151.288894 108.94435 
L 155.865791 106.574274 
L 160.442687 104.428571 
L 165.7824 102.189901 
L 171.122113 100.217349 
L 176.461826 98.493622 
L 181.801539 97.003826 
L 187.141252 95.735259 
L 192.480965 94.677231 
L 197.820678 93.82092 
L 203.923207 93.080272 
L 210.025736 92.585958 
L 216.128265 92.33271 
L 222.230794 92.317839 
L 228.333323 92.54119 
L 234.435852 93.005134 
L 240.538381 93.714615 
L 245.878094 94.542733 
L 251.217807 95.571456 
L 256.55752 96.809347 
L 261.897233 98.266821 
L 267.236946 99.956279 
L 272.576659 101.892287 
L 277.916372 104.091779 
L 282.493268 106.20151 
L 287.070165 108.533115 
L 291.647062 111.102286 
L 296.223959 113.926585 
L 300.800855 117.025635 
L 305.377752 120.421332 
L 309.954649 124.138084 
L 313.76873 127.500147 
L 317.58281 131.121332 
L 321.396891 135.020599 
L 325.210972 139.218667 
L 329.025052 143.738176 
L 332.839133 148.60386 
L 336.653214 153.842744 
L 340.467294 159.484357 
L 344.281375 165.56097 
L 348.095456 172.107852 
L 351.909536 179.163566 
L 355.723617 186.770285 
L 359.537698 194.974154 
L 363.351778 203.825685 
L 367.165859 213.380206 
L 370.217123 221.570537 
L 371.742756 225.859374 
L 371.742756 225.859374 
" clip-path="url(#pf17b78be33)" style="fill: none; stroke: #d62728; stroke-width: 1.5; stroke-linecap: square"/>
   </g>
   <g id="line2d_37"/>
   <g id="line2d_38">
    <path d="M 67.379119 225.859365 
L 71.1932 215.38534 
L 75.007281 205.687291 
L 78.821361 196.703156 
L 82.635442 188.37634 
L 86.449523 180.655215 
L 90.263603 173.492668 
L 94.077684 166.845691 
L 97.891765 160.675012 
L 101.705845 154.944756 
L 105.519926 149.622146 
L 109.334007 144.677223 
L 113.148087 140.082604 
L 116.962168 135.813246 
L 120.776249 131.846254 
L 124.590329 128.160685 
L 128.40441 124.737386 
L 132.981307 120.951071 
L 137.558203 117.489843 
L 142.1351 114.329063 
L 146.711997 111.446623 
L 151.288894 108.822704 
L 155.865791 106.439558 
L 160.442687 104.281317 
L 165.7824 102.028834 
L 171.122113 100.043471 
L 176.461826 98.308045 
L 181.801539 96.807751 
L 187.141252 95.529956 
L 192.480965 94.464027 
L 197.820678 93.601181 
L 203.923207 92.854781 
L 210.025736 92.356576 
L 216.128265 92.101321 
L 222.230794 92.086335 
L 228.333323 92.311463 
L 234.435852 92.779065 
L 240.538381 93.494064 
L 245.878094 94.328512 
L 251.217807 95.364934 
L 256.55752 96.611855 
L 261.897233 98.079638 
L 267.236946 99.78062 
L 272.576659 101.729284 
L 277.916372 103.942459 
L 282.493268 106.064635 
L 287.070165 108.409244 
L 291.647062 110.991854 
L 296.223959 113.829889 
L 300.800855 116.942809 
L 305.377752 120.352323 
L 309.954649 124.082631 
L 313.76873 127.455626 
L 317.58281 131.087264 
L 321.396891 134.996356 
L 325.210972 139.203474 
L 329.025052 143.731109 
L 332.839133 148.603858 
L 336.653214 153.84862 
L 340.467294 159.494818 
L 344.281375 165.574646 
L 348.095456 172.123335 
L 351.909536 179.179452 
L 355.723617 186.78523 
L 359.537698 194.986928 
L 363.351778 203.835238 
L 367.165859 213.385721 
L 370.217123 221.572422 
L 371.742756 225.859365 
L 371.742756 225.859365 
" clip-path="url(#pf17b78be33)" style="fill: none; stroke-dasharray: 9.6,2.4,1.5,2.4; stroke-dashoffset: 0; stroke: #000000; stroke-width: 1.5"/>
   </g>
   <g id="patch_3">
    <path d="M 52.160938 232.759219 
L 52.160938 10.999219 
" style="fill: none; stroke: #000000; stroke-width: 0.8; stroke-linejoin: miter; stroke-linecap: square"/>
   </g>
   <g id="patch_4">
    <path d="M 386.960938 232.759219 
L 386.960938 10.999219 
" style="fill: none; stroke: #000000; stroke-width: 0.8; stroke-linejoin: miter; stroke-linecap: square"/>
   </g>
   <g id="patch_5">
    <path d="M 52.160938 232.759219 
L 386.960938 232.759219 
" style="fill: none; stroke: #000000; stroke-width: 0.8; stroke-linejoin: miter; stroke-linecap: square"/>
   </g>
   <g id="patch_6">
    <path d="M 52.160938 10.999219 
L 386.960938 10.999219 
" style="fill: none; stroke: #000000; stroke-width: 0.8; stroke-linejoin: miter; stroke-linecap: square"/>
   </g>
   <g id="legend_1">
    <g id="patch_7">
     <path d="M 310 92.389844 
L 379.960938 92.389844 
Q 381.960938 92.389844 381.960938 90.389844 
L 381.960938 17.999219 
Q 381.960938 15.999219 379.960938 15.999219 
L 310 15.999219 
Q 308 15.999219 308 17.999219 
L 308 90.389844 
Q 308 92.389844 310 92.389844 
z
" style="fill: #ffffff; opacity: 0.8; stroke: #cccccc; stroke-linejoin: miter"/>
    </g>
    <g id="line2d_39">
     <path d="M 312 24.097656 
L 322 24.097656 
L 332 24.097656 
" style="fill: none; stroke: #1f77b4; stroke-width: 1.5; stroke-linecap: square"/>
     <g>
      <use xlink:href="#md29fe89f22" x="322" y="24.097656" style="fill: #1f77b4; stroke: #1f77b4"/>
     </g>
    </g>
    <g id="text_15">
     <!-- Order 1 -->
     <g transform="translate(340 27.597656) scale(0.1 -0.1)">
      <defs>
       <path id="DejaVuSans-4f" d="M 2522 4238 
Q 1834 4238 1429 3725 
Q 1025 3213 1025 2328 
Q 1025 1447 1429 934 
Q 1834 422 2522 422 
Q 3209 422 3611 934 
Q 4013 1447 4013 2328 
Q 4013 3213 3611 3725 
Q 3209 4238 2522 4238 
z
M 2522 4750 
Q 3503 4750 4090 4092 
Q 4678 3434 4678 2328 
Q 4678 1225 4090 567 
Q 3503 -91 2522 -91 
Q 1538 -91 948 565 
Q 359 1222 359 2328 
Q 359 3434 948 4092 
Q 1538 4750 2522 4750 
z
" transform="scale(0.015625)"/>
       <path id="DejaVuSans-72" d="M 2631 2963 
Q 2534 3019 2420 3045 
Q 2306 3072 2169 3072 
Q 1681 3072 1420 2755 
Q 1159 2438 1159 1844 
L 1159 0 
L 581 0 
L 581 3500 
L 1159 3500 
L 1159 2956 
Q 1341 3275 1631 3429 
Q 1922 3584 2338 3584 
Q 2397 3584 2469 3576 
Q 2541 3569 2628 3553 
L 2631 2963 
z
" transform="scale(0.015625)"/>
       <path id="DejaVuSans-64" d="M 2906 2969 
L 2906 4863 
L 3481 4863 
L 3481 0 
L 2906 0 
L 2906 525 
Q 2725 213 2448 61 
Q 2172 -91 1784 -91 
Q 1150 -91 751 415 
Q 353 922 353 1747 
Q 353 2572 751 3078 
Q 1150 3584 1784 3584 
Q 2172 3584 2448 3432 
Q 2725 3281 2906 2969 
z
M 947 1747 
Q 947 1113 1208 752 
Q 1469 391 1925 391 
Q 2381 391 2643 752 
Q 2906 1113 2906 1747 
Q 2906 2381 2643 2742 
Q 2381 3103 1925 3103 
Q 1469 3103 1208 2742 
Q 947 2381 947 1747 
z
" transform="scale(0.015625)"/>
       <path id="DejaVuSans-65" d="M 3597 1894 
L 3597 1613 
L 953 1613 
Q 991 1019 1311 708 
Q 1631 397 2203 397 
Q 2534 397 2845 478 
Q 3156 559 3463 722 
L 3463 178 
Q 3153 47 2828 -22 
Q 2503 -91 2169 -91 
Q 1331 -91 842 396 
Q 353 884 353 1716 
Q 353 2575 817 3079 
Q 1281 3584 2069 3584 
Q 2775 3584 3186 3129 
Q 3597 2675 3597 1894 
z
M 3022 2063 
Q 3016 2534 2758 2815 
Q 2500 3097 2075 3097 
Q 1594 3097 1305 2825 
Q 1016 2553 972 2059 
L 3022 2063 
z
" transform="scale(0.015625)"/>
       <path id="DejaVuSans-20" transform="scale(0.015625)"/>
      </defs>
      <use xlink:href="#DejaVuSans-4f"/>
      <use xlink:href="#DejaVuSans-72" transform="translate(78.710938 0)"/>
      <use xlink:href="#DejaVuSans-64" transform="translate(118.074219 0)"/>
      <use xlink:href="#DejaVuSans-65" transform="translate(181.550781 0)"/>
      <use xlink:href="#DejaVuSans-72" transform="translate(243.074219 0)"/>
      <use xlink:href="#DejaVuSans-20" transform="translate(284.1875 0)"/>
      <use xlink:href="#DejaVuSans-31" transform="translate(315.974609 0)"/>
     </g>
    </g>
    <g id="line2d_40">
     <path d="M 312 38.775781 
L 322 38.775781 
L 332 38.775781 
" style="fill: none; stroke-dasharray: 1.5,2.475; stroke-dashoffset: 0; stroke: #ff7f0e; stroke-width: 1.5"/>
     <g>
      <use xlink:href="#m31c721a3bb" x="322" y="38.775781" style="fill: #ff7f0e; stroke: #ff7f0e"/>
     </g>
    </g>
    <g id="text_16">
     <!-- Order 2 -->
     <g transform="translate(340 42.275781) scale(0.1 -0.1)">
      <use xlink:href="#DejaVuSans-4f"/>
      <use xlink:href="#DejaVuSans-72" transform="translate(78.710938 0)"/>
      <use xlink:href="#DejaVuSans-64" transform="translate(118.074219 0)"/>
      <use xlink:href="#DejaVuSans-65" transform="translate(181.550781 0)"/>
      <use xlink:href="#DejaVuSans-72" transform="translate(243.074219 0)"/>
      <use xlink:href="#DejaVuSans-20" transform="translate(284.1875 0)"/>
      <use xlink:href="#DejaVuSans-32" transform="translate(315.974609 0)"/>
     </g>
    </g>
    <g id="line2d_41">
     <path d="M 312 53.453906 
L 322 53.453906 
L 332 53.453906 
" style="fill: none; stroke: #2ca02c; stroke-width: 1.5; stroke-linecap: square"/>
     <g>
      <use xlink:href="#m54b354c01e" x="322" y="53.453906" style="fill: #2ca02c; stroke: #2ca02c"/>
     </g>
    </g>
    <g id="text_17">
     <!-- Order 3 -->
     <g transform="translate(340 56.953906) scale(0.1 -0.1)">
      <use xlink:href="#DejaVuSans-4f"/>
      <use xlink:href="#DejaVuSans-72" transform="translate(78.710938 0)"/>
      <use xlink:href="#DejaVuSans-64" transform="translate(118.074219 0)"/>
      <use xlink:href="#DejaVuSans-65" transform="translate(181.550781 0)"/>
      <use xlink:href="#DejaVuSans-72" transform="translate(243.074219 0)"/>
      <use xlink:href="#DejaVuSans-20" transform="translate(284.1875 0)"/>
      <use xlink:href="#DejaVuSans-33" transform="translate(315.974609 0)"/>
     </g>
    </g>
    <g id="line2d_42">
     <path d="M 312 68.132031 
L 322 68.132031 
L 332 68.132031 
" style="fill: none; stroke: #d62728; stroke-width: 1.5; stroke-linecap: square"/>
     <g>
      <use xlink:href="#m9617cdfa46" x="322" y="68.132031" style="fill: #d62728; stroke: #d62728"/>
     </g>
    </g>
    <g id="text_18">
     <!-- Order 4 -->
     <g transform="translate(340 71.632031) scale(0.1 -0.1)">
      <use xlink:href="#DejaVuSans-4f"/>
      <use xlink:href="#DejaVuSans-72" transform="translate(78.710938 0)"/>
      <use xlink:href="#DejaVuSans-64" transform="translate(118.074219 0)"/>
      <use xlink:href="#DejaVuSans-65" transform="translate(181.550781 0)"/>
      <use xlink:href="#DejaVuSans-72" transform="translate(243.074219 0)"/>
      <use xlink:href="#DejaVuSans-20" transform="translate(284.1875 0)"/>
      <use xlink:href="#DejaVuSans-34" transform="translate(315.974609 0)"/>
     </g>
    </g>
    <g id="line2d_43">
     <path d="M 312 82.810156 
L 322 82.810156 
L 332 82.810156 
" style="fill: none; stroke-dasharray: 9.6,2.4,1.5,2.4; stroke-dashoffset: 0; stroke: #000000; stroke-width: 1.5"/>
    </g>
    <g id="text_19">
     <!-- Exact -->
     <g transform="translate(340 86.310156) scale(0.1 -0.1)">
      <defs>
       <path id="DejaVuSans-45" d="M 628 4666 
L 3578 4666 
L 3578 4134 
L 1259 4134 
L 1259 2753 
L 3481 2753 
L 3481 2222 
L 1259 2222 
L 1259 531 
L 3634 531 
L 3634 0 
L 628 0 
L 628 4666 
z
" transform="scale(0.015625)"/>
       <path id="DejaVuSans-78" d="M 3513 3500 
L 2247 1797 
L 3578 0 
L 2900 0 
L 1881 1375 
L 863 0 
L 184 0 
L 1544 1831 
L 300 3500 
L 978 3500 
L 1906 2253 
L 2834 3500 
L 3513 3500 
z
" transform="scale(0.015625)"/>
       <path id="DejaVuSans-61" d="M 2194 1759 
Q 1497 1759 1228 1600 
Q 959 1441 959 1056 
Q 959 750 1161 570 
Q 1363 391 1709 391 
Q 2188 391 2477 730 
Q 2766 1069 2766 1631 
L 2766 1759 
L 2194 1759 
z
M 3341 1997 
L 3341 0 
L 2766 0 
L 2766 531 
Q 2569 213 2275 61 
Q 1981 -91 1556 -91 
Q 1019 -91 701 211 
Q 384 513 384 1019 
Q 384 1609 779 1909 
Q 1175 2209 1959 2209 
L 2766 2209 
L 2766 2266 
Q 2766 2663 2505 2880 
Q 2244 3097 1772 3097 
Q 1472 3097 1187 3025 
Q 903 2953 641 2809 
L 641 3341 
Q 956 3463 1253 3523 
Q 1550 3584 1831 3584 
Q 2591 3584 2966 3190 
Q 3341 2797 3341 1997 
z
" transform="scale(0.015625)"/>
       <path id="DejaVuSans-63" d="M 3122 3366 
L 3122 2828 
Q 2878 2963 2633 3030 
Q 2388 3097 2138 3097 
Q 1578 3097 1268 2742 
Q 959 2388 959 1747 
Q 959 1106 1268 751 
Q 1578 397 2138 397 
Q 2388 397 2633 464 
Q 2878 531 3122 666 
L 3122 134 
Q 2881 22 2623 -34 
Q 2366 -91 2075 -91 
Q 1284 -91 818 406 
Q 353 903 353 1747 
Q 353 2603 823 3093 
Q 1294 3584 2113 3584 
Q 2378 3584 2631 3529 
Q 2884 3475 3122 3366 
z
" transform="scale(0.015625)"/>
       <path id="DejaVuSans-74" d="M 1172 4494 
L 1172 3500 
L 2356 3500 
L 2356 3053 
L 1172 3053 
L 1172 1153 
Q 1172 725 1289 603 
Q 1406 481 1766 481 
L 2356 481 
L 2356 0 
L 1766 0 
Q 1100 0 847 248 
Q 594 497 594 1153 
L 594 3053 
L 172 3053 
L 172 3500 
L 594 3500 
L 594 4494 
L 1172 4494 
z
" transform="scale(0.015625)"/>
      </defs>
      <use xlink:href="#DejaVuSans-45"/>
      <use xlink:href="#DejaVuSans-78" transform="translate(63.183594 0)"/>
      <use xlink:href="#DejaVuSans-61" transform="translate(122.363281 0)"/>
      <use xlink:href="#DejaVuSans-63" transform="translate(183.642578 0)"/>
      <use xlink:href="#DejaVuSans-74" transform="translate(238.623047 0)"/>
     </g>
    </g>
   </g>
  </g>
 </g>
 <defs>
  <clipPath id="pf17b78be33">
   <rect x="52.160938" y="10.999219" width="334.8" height="221.76"/>
  </clipPath>
 </defs>
</svg>
