<?xml version="1.0" encoding="utf-8" standalone="no"?>
<!DOCTYPE svg PUBLIC "-//W3C//DTD SVG 1.1//EN"
  "http://www.w3.org/Graphics/SVG/1.1/DTD/svg11.dtd">
<svg xmlns:xlink="http://www.w3.org/1999/xlink" width="416.502812pt" height="310.86825pt" viewBox="0 0 416.502812 310.86825" xmlns="http://www.w3.org/2000/svg" version="1.1">
 <metadata>
  <rdf:RDF xmlns:dc="http://purl.org/dc/elements/1.1/" xmlns:cc="http://creativecommons.org/ns#" xmlns:rdf="http://www.w3.org/1999/02/22-rdf-syntax-ns#">
   <cc:Work>
    <dc:type rdf:resource="http://purl.org/dc/dcmitype/StillImage"/>
    <dc:date>2026-06-28T08:12:15.270782</dc:date>
    <dc:format>image/svg+xml</dc:format>
    <dc:creator>
     <cc:Agent>
      <dc:title>Matplotlib v3.10.1, https://matplotlib.org/</dc:title>
     </cc:Agent>
    </dc:creator>
   </cc:Work>
  </rdf:RDF>
 </metadata>
 <defs>
  <style type="text/css">*{stroke-linejoin: round; stroke-linecap: butt}</style>
 </defs>
 <g id="figure_1">
  <g id="patch_1">
   <path d="M 0 310.86825 
L 416.502812 310.86825 
L 416.502812 0 
L 0 0 
z
" style="fill: #ffffff"/>
  </g>
  <g id="axes_1">
   <g id="patch_2">
    <path d="M 52.182813 273.312 
L 409.302813 273.312 
L 409.302813 7.2 
L 52.182813 7.2 
z
" style="fill: #ffffff"/>
   </g>
   <g id="matplotlib.axis_1">
    <g id="xtick_1">
     <g id="line2d_1">
      <defs>
       <path id="mab6abfd581" d="M 0 0 
L 0 3.5 
" style="stroke: #000000; stroke-width: 0.8"/>
      </defs>
      <g>
       <use xlink:href="#mab6abfd581" x="68.41554" y="273.312" style="stroke: #000000; stroke-width: 0.8"/>
      </g>
     </g>
     <g id="text_1">
      <!-- −10.0 -->
      <g transform="translate(53.092884 287.910437) scale(0.1 -0.1)">
       <defs>
        <path id="DejaVuSans-2212" d="M 678 2272 
L 4684 2272 
L 4684 1741 
L 678 1741 
L 678 2272 
z
" transform="scale(0.015625)"/>
        <path id="DejaVuSans-31" d="M 794 531 
L 1825 531 
L 1825 4091 
L 703 3866 
L 703 4441 
L 1819 4666 
L 2450 4666 
L 2450 531 
L 3481 531 
L 3481 0 
L 794 0 
L 794 531 
z
" transform="scale(0.015625)"/>
        <path id="DejaVuSans-30" d="M 2034 4250 
Q 1547 4250 1301 3770 
Q 1056 3291 1056 2328 
Q 1056 1369 1301 889 
Q 1547 409 2034 409 
Q 2525 409 2770 889 
Q 3016 1369 3016 2328 
Q 3016 3291 2770 3770 
Q 2525 4250 2034 4250 
z
M 2034 4750 
Q 2819 4750 3233 4129 
Q 3647 3509 3647 2328 
Q 3647 1150 3233 529 
Q 2819 -91 2034 -91 
Q 1250 -91 836 529 
Q 422 1150 422 2328 
Q 422 3509 836 4129 
Q 1250 4750 2034 4750 
z
" transform="scale(0.015625)"/>
        <path id="DejaVuSans-2e" d="M 684 794 
L 1344 794 
L 1344 0 
L 684 0 
L 684 794 
z
" transform="scale(0.015625)"/>
       </defs>
       <use xlink:href="#DejaVuSans-2212"/>
       <use xlink:href="#DejaVuSans-31" transform="translate(83.789062 0)"/>
       <use xlink:href="#DejaVuSans-30" transform="translate(147.412109 0)"/>
       <use xlink:href="#DejaVuSans-2e" transform="translate(211.035156 0)"/>
       <use xlink:href="#DejaVuSans-30" transform="translate(242.822266 0)"/>
      </g>
     </g>
    </g>
    <g id="xtick_2">
     <g id="line2d_2">
      <g>
       <use xlink:href="#mab6abfd581" x="108.997358" y="273.312" style="stroke: #000000; stroke-width: 0.8"/>
      </g>
     </g>
     <g id="text_2">
      <!-- −7.5 -->
      <g transform="translate(96.855952 287.910437) scale(0.1 -0.1)">
       <defs>
        <path id="DejaVuSans-37" d="M 525 4666 
L 3525 4666 
L 3525 4397 
L 1831 0 
L 1172 0 
L 2766 4134 
L 525 4134 
L 525 4666 
z
" transform="scale(0.015625)"/>
        <path id="DejaVuSans-35" d="M 691 4666 
L 3169 4666 
L 3169 4134 
L 1269 4134 
L 1269 2991 
Q 1406 3038 1543 3061 
Q 1681 3084 1819 3084 
Q 2600 3084 3056 2656 
Q 3513 2228 3513 1497 
Q 3513 744 3044 326 
Q 2575 -91 1722 -91 
Q 1428 -91 1123 -41 
Q 819 9 494 109 
L 494 744 
Q 775 591 1075 516 
Q 1375 441 1709 441 
Q 2250 441 2565 725 
Q 2881 1009 2881 1497 
Q 2881 1984 2565 2268 
Q 2250 2553 1709 2553 
Q 1456 2553 1204 2497 
Q 953 2441 691 2322 
L 691 4666 
z
" transform="scale(0.015625)"/>
       </defs>
       <use xlink:href="#DejaVuSans-2212"/>
       <use xlink:href="#DejaVuSans-37" transform="translate(83.789062 0)"/>
       <use xlink:href="#DejaVuSans-2e" transform="translate(147.412109 0)"/>
       <use xlink:href="#DejaVuSans-35" transform="translate(179.199219 0)"/>
      </g>
     </g>
    </g>
    <g id="xtick_3">
     <g id="line2d_3">
      <g>
       <use xlink:href="#mab6abfd581" x="149.579176" y="273.312" style="stroke: #000000; stroke-width: 0.8"/>
      </g>
     </g>
     <g id="text_3">
      <!-- −5.0 -->
      <g transform="translate(137.43777 287.910437) scale(0.1 -0.1)">
       <use xlink:href="#DejaVuSans-2212"/>
       <use xlink:href="#DejaVuSans-35" transform="translate(83.789062 0)"/>
       <use xlink:href="#DejaVuSans-2e" transform="translate(147.412109 0)"/>
       <use xlink:href="#DejaVuSans-30" transform="translate(179.199219 0)"/>
      </g>
     </g>
    </g>
    <g id="xtick_4">
     <g id="line2d_4">
      <g>
       <use xlink:href="#mab6abfd581" x="190.160994" y="273.312" style="stroke: #000000; stroke-width: 0.8"/>
      </g>
     </g>
     <g id="text_4">
      <!-- −2.5 -->
      <g transform="translate(178.019588 287.910437) scale(0.1 -0.1)">
       <defs>
        <path id="DejaVuSans-32" d="M 1228 531 
L 3431 531 
L 3431 0 
L 469 0 
L 469 531 
Q 828 903 1448 1529 
Q 2069 2156 2228 2338 
Q 2531 2678 2651 2914 
Q 2772 3150 2772 3378 
Q 2772 3750 2511 3984 
Q 2250 4219 1831 4219 
Q 1534 4219 1204 4116 
Q 875 4013 500 3803 
L 500 4441 
Q 881 4594 1212 4672 
Q 1544 4750 1819 4750 
Q 2544 4750 2975 4387 
Q 3406 4025 3406 3419 
Q 3406 3131 3298 2873 
Q 3191 2616 2906 2266 
Q 2828 2175 2409 1742 
Q 1991 1309 1228 531 
z
" transform="scale(0.015625)"/>
       </defs>
       <use xlink:href="#DejaVuSans-2212"/>
       <use xlink:href="#DejaVuSans-32" transform="translate(83.789062 0)"/>
       <use xlink:href="#DejaVuSans-2e" transform="translate(147.412109 0)"/>
       <use xlink:href="#DejaVuSans-35" transform="translate(179.199219 0)"/>
      </g>
     </g>
    </g>
    <g id="xtick_5">
     <g id="line2d_5">
      <g>
       <use xlink:href="#mab6abfd581" x="230.742813" y="273.312" style="stroke: #000000; stroke-width: 0.8"/>
      </g>
     </g>
     <g id="text_5">
      <!-- 0.0 -->
      <g transform="translate(222.79125 287.910437) scale(0.1 -0.1)">
       <use xlink:href="#DejaVuSans-30"/>
       <use xlink:href="#DejaVuSans-2e" transform="translate(63.623047 0)"/>
       <use xlink:href="#DejaVuSans-30" transform="translate(95.410156 0)"/>
      </g>
     </g>
    </g>
    <g id="xtick_6">
     <g id="line2d_6">
      <g>
       <use xlink:href="#mab6abfd581" x="271.324631" y="273.312" style="stroke: #000000; stroke-width: 0.8"/>
      </g>
     </g>
     <g id="text_6">
      <!-- 2.5 -->
      <g transform="translate(263.373068 287.910437) scale(0.1 -0.1)">
       <use xlink:href="#DejaVuSans-32"/>
       <use xlink:href="#DejaVuSans-2e" transform="translate(63.623047 0)"/>
       <use xlink:href="#DejaVuSans-35" transform="translate(95.410156 0)"/>
      </g>
     </g>
    </g>
    <g id="xtick_7">
     <g id="line2d_7">
      <g>
       <use xlink:href="#mab6abfd581" x="311.906449" y="273.312" style="stroke: #000000; stroke-width: 0.8"/>
      </g>
     </g>
     <g id="text_7">
      <!-- 5.0 -->
      <g transform="translate(303.954886 287.910437) scale(0.1 -0.1)">
       <use xlink:href="#DejaVuSans-35"/>
       <use xlink:href="#DejaVuSans-2e" transform="translate(63.623047 0)"/>
       <use xlink:href="#DejaVuSans-30" transform="translate(95.410156 0)"/>
      </g>
     </g>
    </g>
    <g id="xtick_8">
     <g id="line2d_8">
      <g>
       <use xlink:href="#mab6abfd581" x="352.488267" y="273.312" style="stroke: #000000; stroke-width: 0.8"/>
      </g>
     </g>
     <g id="text_8">
      <!-- 7.5 -->
      <g transform="translate(344.536705 287.910437) scale(0.1 -0.1)">
       <use xlink:href="#DejaVuSans-37"/>
       <use xlink:href="#DejaVuSans-2e" transform="translate(63.623047 0)"/>
       <use xlink:href="#DejaVuSans-35" transform="translate(95.410156 0)"/>
      </g>
     </g>
    </g>
    <g id="xtick_9">
     <g id="line2d_9">
      <g>
       <use xlink:href="#mab6abfd581" x="393.070085" y="273.312" style="stroke: #000000; stroke-width: 0.8"/>
      </g>
     </g>
     <g id="text_9">
      <!-- 10.0 -->
      <g transform="translate(381.937273 287.910437) scale(0.1 -0.1)">
       <use xlink:href="#DejaVuSans-31"/>
       <use xlink:href="#DejaVuSans-30" transform="translate(63.623047 0)"/>
       <use xlink:href="#DejaVuSans-2e" transform="translate(127.246094 0)"/>
       <use xlink:href="#DejaVuSans-30" transform="translate(159.033203 0)"/>
      </g>
     </g>
    </g>
    <g id="text_10">
     <!-- $\omega$ -->
     <g transform="translate(226.542813 301.588562) scale(0.1 -0.1)">
      <defs>
       <path id="DejaVuSans-Oblique-3c9" d="M 1369 -91 
Q 72 -91 434 1766 
Q 575 2500 1256 3500 
L 1875 3500 
Q 1231 2500 1088 1750 
Q 819 397 1519 397 
Q 2166 397 2478 2078 
L 3009 2078 
Q 2669 388 3316 397 
Q 4013 403 4275 1750 
Q 4419 2500 4169 3500 
L 4788 3500 
Q 5075 2500 4934 1766 
Q 4578 -94 3278 -91 
Q 2428 -88 2503 844 
Q 2194 -91 1369 -91 
z
" transform="scale(0.015625)"/>
      </defs>
      <use xlink:href="#DejaVuSans-Oblique-3c9" transform="translate(0 0.3125)"/>
     </g>
    </g>
   </g>
   <g id="matplotlib.axis_2">
    <g id="ytick_1">
     <g id="line2d_10">
      <defs>
       <path id="m476145b505" d="M 0 0 
L -3.5 0 
" style="stroke: #000000; stroke-width: 0.8"/>
      </defs>
      <g>
       <use xlink:href="#m476145b505" x="52.182813" y="237.694003" style="stroke: #000000; stroke-width: 0.8"/>
      </g>
     </g>
     <g id="text_11">
      <!-- −1.0 -->
      <g transform="translate(20.9 241.493222) scale(0.1 -0.1)">
       <use xlink:href="#DejaVuSans-2212"/>
       <use xlink:href="#DejaVuSans-31" transform="translate(83.789062 0)"/>
       <use xlink:href="#DejaVuSans-2e" transform="translate(147.412109 0)"/>
       <use xlink:href="#DejaVuSans-30" transform="translate(179.199219 0)"/>
      </g>
     </g>
    </g>
    <g id="ytick_2">
     <g id="line2d_11">
      <g>
       <use xlink:href="#m476145b505" x="52.182813" y="188.603395" style="stroke: #000000; stroke-width: 0.8"/>
      </g>
     </g>
     <g id="text_12">
      <!-- −0.5 -->
      <g transform="translate(20.9 192.402614) scale(0.1 -0.1)">
       <use xlink:href="#DejaVuSans-2212"/>
       <use xlink:href="#DejaVuSans-30" transform="translate(83.789062 0)"/>
       <use xlink:href="#DejaVuSans-2e" transform="translate(147.412109 0)"/>
       <use xlink:href="#DejaVuSans-35" transform="translate(179.199219 0)"/>
      </g>
     </g>
    </g>
    <g id="ytick_3">
     <g id="line2d_12">
      <g>
       <use xlink:href="#m476145b505" x="52.182813" y="139.512787" style="stroke: #000000; stroke-width: 0.8"/>
      </g>
     </g>
     <g id="text_13">
      <!-- 0.0 -->
      <g transform="translate(29.279688 143.312006) scale(0.1 -0.1)">
       <use xlink:href="#DejaVuSans-30"/>
       <use xlink:href="#DejaVuSans-2e" transform="translate(63.623047 0)"/>
       <use xlink:href="#DejaVuSans-30" transform="translate(95.410156 0)"/>
      </g>
     </g>
    </g>
    <g id="ytick_4">
     <g id="line2d_13">
      <g>
       <use xlink:href="#m476145b505" x="52.182813" y="90.422179" style="stroke: #000000; stroke-width: 0.8"/>
      </g>
     </g>
     <g id="text_14">
      <!-- 0.5 -->
      <g transform="translate(29.279688 94.221398) scale(0.1 -0.1)">
       <use xlink:href="#DejaVuSans-30"/>
       <use xlink:href="#DejaVuSans-2e" transform="translate(63.623047 0)"/>
       <use xlink:href="#DejaVuSans-35" transform="translate(95.410156 0)"/>
      </g>
     </g>
    </g>
    <g id="ytick_5">
     <g id="line2d_14">
      <g>
       <use xlink:href="#m476145b505" x="52.182813" y="41.331571" style="stroke: #000000; stroke-width: 0.8"/>
      </g>
     </g>
     <g id="text_15">
      <!-- 1.0 -->
      <g transform="translate(29.279688 45.13079) scale(0.1 -0.1)">
       <use xlink:href="#DejaVuSans-31"/>
       <use xlink:href="#DejaVuSans-2e" transform="translate(63.623047 0)"/>
       <use xlink:href="#DejaVuSans-30" transform="translate(95.410156 0)"/>
      </g>
     </g>
    </g>
    <g id="text_16">
     <!-- $\chi_0(\mathbf{q}, \omega)$ -->
     <g transform="translate(14.8 159.856) rotate(-90) scale(0.1 -0.1)">
      <defs>
       <path id="DejaVuSans-Oblique-3c7" d="M 1922 -781 
L 1691 416 
L 394 -1334 
L -284 -1334 
L 1553 1141 
L 1269 2613 
Q 1194 3006 713 3006 
L 559 3006 
L 653 3500 
L 872 3494 
Q 1675 3472 1775 2950 
L 2006 1753 
L 3303 3503 
L 3981 3503 
L 2144 1028 
L 2428 -444 
Q 2503 -838 2984 -838 
L 3138 -838 
L 3044 -1331 
L 2825 -1325 
Q 2022 -1303 1922 -781 
z
" transform="scale(0.015625)"/>
       <path id="DejaVuSans-28" d="M 1984 4856 
Q 1566 4138 1362 3434 
Q 1159 2731 1159 2009 
Q 1159 1288 1364 580 
Q 1569 -128 1984 -844 
L 1484 -844 
Q 1016 -109 783 600 
Q 550 1309 550 2009 
Q 550 2706 781 3412 
Q 1013 4119 1484 4856 
L 1984 4856 
z
" transform="scale(0.015625)"/>
       <path id="DejaVuSans-Bold-71" d="M 2181 2772 
Q 1825 2772 1636 2509 
Q 1447 2247 1447 1747 
Q 1447 1247 1636 984 
Q 1825 722 2181 722 
Q 2541 722 2730 984 
Q 2919 1247 2919 1747 
Q 2919 2247 2730 2509 
Q 2541 2772 2181 2772 
z
M 2919 506 
Q 2688 197 2409 53 
Q 2131 -91 1766 -91 
Q 1119 -91 703 423 
Q 288 938 288 1747 
Q 288 2556 703 3067 
Q 1119 3578 1766 3578 
Q 2131 3578 2409 3434 
Q 2688 3291 2919 2981 
L 2919 3500 
L 4044 3500 
L 4044 -1331 
L 2919 -1331 
L 2919 506 
z
" transform="scale(0.015625)"/>
       <path id="DejaVuSans-2c" d="M 750 794 
L 1409 794 
L 1409 256 
L 897 -744 
L 494 -744 
L 750 256 
L 750 794 
z
" transform="scale(0.015625)"/>
       <path id="DejaVuSans-29" d="M 513 4856 
L 1013 4856 
Q 1481 4119 1714 3412 
Q 1947 2706 1947 2009 
Q 1947 1309 1714 600 
Q 1481 -109 1013 -844 
L 513 -844 
Q 928 -128 1133 580 
Q 1338 1288 1338 2009 
Q 1338 2731 1133 3434 
Q 928 4138 513 4856 
z
" transform="scale(0.015625)"/>
      </defs>
      <use xlink:href="#DejaVuSans-Oblique-3c7" transform="translate(0 0.125)"/>
      <use xlink:href="#DejaVuSans-30" transform="translate(59.179688 -16.28125) scale(0.7)"/>
      <use xlink:href="#DejaVuSans-28" transform="translate(106.450195 0.125)"/>
      <use xlink:href="#DejaVuSans-Bold-71" transform="translate(145.463867 0.125)"/>
      <use xlink:href="#DejaVuSans-2c" transform="translate(217.045898 0.125)"/>
      <use xlink:href="#DejaVuSans-Oblique-3c9" transform="translate(268.31543 0.125)"/>
      <use xlink:href="#DejaVuSans-29" transform="translate(352.055664 0.125)"/>
     </g>
    </g>
   </g>
   <g id="line2d_15">
    <path d="M 68.41554 139.512787 
L 71.694879 139.512787 
L 74.974217 139.512787 
L 78.253556 139.512787 
L 81.532895 139.512787 
L 84.812234 139.512787 
L 88.091573 139.512787 
L 91.370912 139.512787 
L 94.650251 139.512787 
L 97.929589 139.512787 
L 101.208928 139.512787 
L 104.488267 139.512787 
L 107.767606 139.512787 
L 111.046945 139.512787 
L 114.326284 139.512787 
L 117.605622 139.512787 
L 120.884961 139.512787 
L 124.1643 139.512787 
L 127.443639 139.512787 
L 130.722978 139.512787 
L 134.002317 139.512787 
L 137.281655 139.512787 
L 140.560994 139.512787 
L 143.840333 139.512787 
L 147.119672 139.512787 
L 150.399011 139.512787 
L 153.67835 139.512787 
L 156.957689 139.512787 
L 160.237027 139.512787 
L 163.516366 139.512787 
L 166.795705 139.512787 
L 170.075044 139.512787 
L 173.354383 139.512787 
L 176.633722 139.512787 
L 179.91306 139.512787 
L 183.192399 139.512787 
L 186.471738 139.512787 
L 189.751077 139.512787 
L 193.030416 139.512787 
L 196.309755 139.512787 
L 199.589093 139.512787 
L 202.868432 139.512787 
L 206.147771 139.512787 
L 209.42711 139.512787 
L 212.706449 139.512787 
L 215.985788 139.512787 
L 219.265127 139.512787 
L 222.544465 139.512787 
L 225.823804 139.512787 
L 229.103143 139.512787 
L 232.382482 139.512787 
L 235.661821 139.512787 
L 238.94116 139.512787 
L 242.220498 139.512787 
L 245.499837 139.512787 
L 248.779176 139.512787 
L 252.058515 139.512787 
L 255.337854 139.512787 
L 258.617193 139.512787 
L 261.896532 139.512787 
L 265.17587 139.512787 
L 268.455209 139.512787 
L 271.734548 139.512787 
L 275.013887 139.512787 
L 278.293226 139.512787 
L 281.572565 139.512787 
L 284.851903 139.512787 
L 288.131242 139.512787 
L 291.410581 139.512787 
L 294.68992 139.512787 
L 297.969259 139.512787 
L 301.248598 139.512787 
L 304.527936 139.512787 
L 307.807275 139.512787 
L 311.086614 139.512787 
L 314.365953 139.512787 
L 317.645292 139.512787 
L 320.924631 139.512787 
L 324.20397 139.512787 
L 327.483308 139.512787 
L 330.762647 139.512787 
L 334.041986 139.512787 
L 337.321325 139.512787 
L 340.600664 139.512787 
L 343.880003 139.512787 
L 347.159341 139.512787 
L 350.43868 139.512787 
L 353.718019 139.512787 
L 356.997358 139.512787 
L 360.276697 139.512787 
L 363.556036 139.512787 
L 366.835374 139.512787 
L 370.114713 139.512787 
L 373.394052 139.512787 
L 376.673391 139.512787 
L 379.95273 139.512787 
L 383.232069 139.512787 
L 386.511408 139.512787 
L 389.790746 139.512787 
L 393.070085 139.512787 
" clip-path="url(#pa9e390dc86)" style="fill: none; stroke: #1f77b4; stroke-width: 1.5; stroke-linecap: square"/>
   </g>
   <g id="line2d_16">
    <path d="M 68.41554 139.591294 
L 71.694879 139.59726 
L 74.974217 139.603874 
L 78.253556 139.611231 
L 81.532895 139.619443 
L 84.812234 139.628642 
L 88.091573 139.63899 
L 91.370912 139.650681 
L 94.650251 139.663951 
L 97.929589 139.67909 
L 101.208928 139.69646 
L 104.488267 139.71651 
L 107.767606 139.739814 
L 111.046945 139.767103 
L 114.326284 139.79933 
L 117.605622 139.837752 
L 120.884961 139.884058 
L 124.1643 139.940567 
L 127.443639 140.010534 
L 130.722978 140.098666 
L 134.002317 140.212 
L 137.281655 140.361496 
L 140.560994 140.565101 
L 143.840333 140.854092 
L 147.119672 141.287397 
L 150.399011 141.98761 
L 153.67835 143.24456 
L 156.957689 145.868944 
L 160.237027 152.700781 
L 163.516366 176.78586 
L 166.795705 261.216 
L 170.075044 251.630162 
L 173.354383 205.423942 
L 176.633722 190.289689 
L 179.91306 184.78121 
L 183.192399 180.756979 
L 186.471738 175.857479 
L 189.751077 170.521334 
L 193.030416 165.691748 
L 196.309755 161.75056 
L 199.589093 158.617188 
L 202.868432 156.050191 
L 206.147771 153.811149 
L 209.42711 151.725964 
L 212.706449 149.700531 
L 215.985788 147.710092 
L 219.265127 145.769879 
L 222.544465 143.901114 
L 225.823804 142.107859 
L 229.103143 140.370624 
L 232.382482 138.652635 
L 235.661821 136.91197 
L 238.94116 135.114873 
L 242.220498 133.2467 
L 245.499837 131.315488 
L 248.779176 129.341959 
L 252.058515 127.334202 
L 255.337854 125.255493 
L 258.617193 123.000406 
L 261.896532 120.390246 
L 265.17587 117.194485 
L 268.455209 113.200522 
L 271.734548 108.386861 
L 275.013887 103.201827 
L 278.293226 98.54937 
L 281.572565 94.635463 
L 284.851903 88.874557 
L 288.131242 73.048936 
L 291.410581 26.159574 
L 294.68992 19.296 
L 297.969259 102.248299 
L 301.248598 126.232955 
L 304.527936 133.112887 
L 307.807275 135.762859 
L 311.086614 137.03082 
L 314.365953 137.735642 
L 317.645292 138.17084 
L 320.924631 138.460569 
L 324.20397 138.66442 
L 327.483308 138.813958 
L 330.762647 138.927257 
L 334.041986 139.01533 
L 337.321325 139.085237 
L 340.600664 139.141693 
L 343.880003 139.187956 
L 347.159341 139.226343 
L 350.43868 139.258544 
L 353.718019 139.285812 
L 356.997358 139.309101 
L 360.276697 139.32914 
L 363.556036 139.346501 
L 366.835374 139.361634 
L 370.114713 139.374899 
L 373.394052 139.386587 
L 376.673391 139.396933 
L 379.95273 139.406131 
L 383.232069 139.414341 
L 386.511408 139.421697 
L 389.790746 139.428311 
L 393.070085 139.434277 
" clip-path="url(#pa9e390dc86)" style="fill: none; stroke: #ff7f0e; stroke-width: 1.5; stroke-linecap: square"/>
   </g>
   <g id="line2d_17">
    <path d="M 68.41554 139.807823 
L 71.694879 139.853936 
L 74.974217 139.917151 
L 78.253556 140.008184 
L 81.532895 140.146363 
L 84.812234 140.367758 
L 88.091573 140.741928 
L 91.370912 141.40677 
L 94.650251 142.63827 
L 97.929589 144.96508 
L 101.208928 149.209385 
L 104.488267 155.815027 
L 107.767606 162.905489 
L 111.046945 166.944464 
L 114.326284 167.513121 
L 117.605622 166.66009 
L 120.884961 165.78387 
L 124.1643 165.327009 
L 127.443639 165.320085 
L 130.722978 165.673978 
L 134.002317 166.277207 
L 137.281655 167.023814 
L 140.560994 167.822669 
L 143.840333 168.6028 
L 147.119672 169.316957 
L 150.399011 169.94239 
L 153.67835 170.47816 
L 156.957689 170.939596 
L 160.237027 171.351439 
L 163.516366 171.741258 
L 166.795705 172.134141 
L 170.075044 172.548905 
L 173.354383 172.995584 
L 176.633722 173.473722 
L 179.91306 173.971069 
L 183.192399 174.462445 
L 186.471738 174.908817 
L 189.751077 175.25687 
L 193.030416 175.43963 
L 196.309755 175.37884 
L 199.589093 174.989714 
L 202.868432 174.188333 
L 206.147771 172.901023 
L 209.42711 171.073658 
L 212.706449 168.676483 
L 215.985788 165.695503 
L 219.265127 162.090348 
L 222.544465 157.676277 
L 225.823804 151.914131 
L 229.103143 144.073388 
L 232.382482 134.929661 
L 235.661821 127.078648 
L 238.94116 121.34887 
L 242.220498 116.968805 
L 245.499837 113.371317 
L 248.779176 110.376514 
L 252.058515 107.957573 
L 255.337854 106.111228 
L 258.617193 104.813162 
L 261.896532 104.010176 
L 265.17587 103.626687 
L 268.455209 103.575663 
L 271.734548 103.769206 
L 275.013887 104.126602 
L 278.293226 104.579321 
L 281.572565 105.073341 
L 284.851903 105.56961 
L 288.131242 106.043443 
L 291.410581 106.483436 
L 294.68992 106.890225 
L 297.969259 107.275088 
L 301.248598 107.658151 
L 304.527936 108.065746 
L 307.807275 108.526439 
L 311.086614 109.0655 
L 314.365953 109.698099 
L 317.645292 110.422347 
L 320.924631 111.213827 
L 324.20397 112.02318 
L 327.483308 112.777254 
L 330.762647 113.382968 
L 334.041986 113.732742 
L 337.321325 113.713736 
L 340.600664 113.235882 
L 343.880003 112.331014 
L 347.159341 111.451709 
L 350.43868 112.024606 
L 353.718019 116.116035 
L 356.997358 123.249821 
L 360.276697 129.850773 
L 363.556036 134.076438 
L 366.835374 136.391393 
L 370.114713 137.617859 
L 373.394052 138.281173 
L 376.673391 138.655253 
L 379.95273 138.87704 
L 383.232069 139.015705 
L 386.511408 139.107177 
L 389.790746 139.170749 
L 393.070085 139.217135 
" clip-path="url(#pa9e390dc86)" style="fill: none; stroke: #2ca02c; stroke-width: 1.5; stroke-linecap: square"/>
   </g>
   <g id="patch_3">
    <path d="M 52.182813 273.312 
L 52.182813 7.2 
" style="fill: none; stroke: #000000; stroke-width: 0.8; stroke-linejoin: miter; stroke-linecap: square"/>
   </g>
   <g id="patch_4">
    <path d="M 409.302813 273.312 
L 409.302813 7.2 
" style="fill: none; stroke: #000000; stroke-width: 0.8; stroke-linejoin: miter; stroke-linecap: square"/>
   </g>
   <g id="patch_5">
    <path d="M 52.182813 273.312 
L 409.302813 273.312 
" style="fill: none; stroke: #000000; stroke-width: 0.8; stroke-linejoin: miter; stroke-linecap: square"/>
   </g>
   <g id="patch_6">
    <path d="M 52.182813 7.2 
L 409.302813 7.2 
" style="fill: none; stroke: #000000; stroke-width: 0.8; stroke-linejoin: miter; stroke-linecap: square"/>
   </g>
   <g id="legend_1">
    <g id="patch_7">
     <path d="M 356.702812 59.295312 
L 402.302813 59.295312 
Q 404.302813 59.295312 404.302813 57.295312 
L 404.302813 14.2 
Q 404.302813 12.2 402.302813 12.2 
L 356.702812 12.2 
Q 354.702812 12.2 354.702812 14.2 
L 354.702812 57.295312 
Q 354.702812 59.295312 356.702812 59.295312 
z
" style="fill: #ffffff; opacity: 0.8; stroke: #cccccc; stroke-linejoin: miter"/>
    </g>
    <g id="line2d_18">
     <path d="M 358.702812 20.298437 
L 368.702812 20.298437 
L 378.702812 20.298437 
" style="fill: none; stroke: #1f77b4; stroke-width: 1.5; stroke-linecap: square"/>
    </g>
    <g id="text_17">
     <!-- $\mathbf{q}_\Gamma$ -->
     <g transform="translate(386.702812 23.798437) scale(0.1 -0.1)">
      <defs>
       <path id="DejaVuSans-393" d="M 628 0 
L 628 4666 
L 3531 4666 
L 3531 4134 
L 1259 4134 
L 1259 0 
L 628 0 
z
" transform="scale(0.015625)"/>
      </defs>
      <use xlink:href="#DejaVuSans-Bold-71" transform="translate(0 0.09375)"/>
      <use xlink:href="#DejaVuSans-393" transform="translate(72.539062 -16.3125) scale(0.7)"/>
     </g>
    </g>
    <g id="line2d_19">
     <path d="M 358.702812 34.996875 
L 368.702812 34.996875 
L 378.702812 34.996875 
" style="fill: none; stroke: #ff7f0e; stroke-width: 1.5; stroke-linecap: square"/>
    </g>
    <g id="text_18">
     <!-- $\mathbf{q}_X$ -->
     <g transform="translate(386.702812 38.496875) scale(0.1 -0.1)">
      <defs>
       <path id="DejaVuSans-Oblique-58" d="M 878 4666 
L 1516 4666 
L 2316 2981 
L 3763 4666 
L 4500 4666 
L 2578 2438 
L 3738 0 
L 3103 0 
L 2163 1966 
L 459 0 
L -275 0 
L 1906 2509 
L 878 4666 
z
" transform="scale(0.015625)"/>
      </defs>
      <use xlink:href="#DejaVuSans-Bold-71" transform="translate(0 0.09375)"/>
      <use xlink:href="#DejaVuSans-Oblique-58" transform="translate(72.539062 -16.3125) scale(0.7)"/>
     </g>
    </g>
    <g id="line2d_20">
     <path d="M 358.702812 49.695312 
L 368.702812 49.695312 
L 378.702812 49.695312 
" style="fill: none; stroke: #2ca02c; stroke-width: 1.5; stroke-linecap: square"/>
    </g>
    <g id="text_19">
     <!-- $\mathbf{q}_M$ -->
     <g transform="translate(386.702812 53.195312) scale(0.1 -0.1)">
      <defs>
       <path id="DejaVuSans-Oblique-4d" d="M 1081 4666 
L 2028 4666 
L 2572 1522 
L 4378 4666 
L 5350 4666 
L 4441 0 
L 3828 0 
L 4622 4091 
L 2791 897 
L 2175 897 
L 1581 4103 
L 788 0 
L 172 0 
L 1081 4666 
z
" transform="scale(0.015625)"/>
      </defs>
      <use xlink:href="#DejaVuSans-Bold-71" transform="translate(0 0.09375)"/>
      <use xlink:href="#DejaVuSans-Oblique-4d" transform="translate(72.539062 -16.3125) scale(0.7)"/>
     </g>
    </g>
   </g>
  </g>
 </g>
 <defs>
  <clipPath id="pa9e390dc86">
   <rect x="52.182813" y="7.2" width="357.12" height="266.112"/>
  </clipPath>
 </defs>
</svg>
