<?xml version="1.0" encoding="utf-8" standalone="no"?>
<!DOCTYPE svg PUBLIC "-//W3C//DTD SVG 1.1//EN"
  "http://www.w3.org/Graphics/SVG/1.1/DTD/svg11.dtd">
<!-- Created with matplotlib (http://matplotlib.org/) -->
<svg height="320.05625pt" version="1.1" viewBox="0 0 388.142187 320.05625" width="388.142187pt" xmlns="http://www.w3.org/2000/svg" xmlns:xlink="http://www.w3.org/1999/xlink">
 <defs>
  <style type="text/css">
*{stroke-linecap:butt;stroke-linejoin:round;}
  </style>
 </defs>
 <g id="figure_1">
  <g id="patch_1">
   <path d="M 0 320.05625 
L 388.142187 320.05625 
L 388.142187 0 
L 0 0 
z
" style="fill:none;"/>
  </g>
  <g id="axes_1">
   <g id="patch_2">
    <path d="M 42.642188 282.5 
L 377.442187 282.5 
L 377.442187 10.7 
L 42.642188 10.7 
z
" style="fill:#ffffff;"/>
   </g>
   <g id="matplotlib.axis_1">
    <g id="xtick_1">
     <g id="line2d_1">
      <defs>
       <path d="M 0 0 
L 0 3.5 
" id="m36a06417f7" style="stroke:#000000;stroke-width:0.8;"/>
      </defs>
      <g>
       <use style="stroke:#000000;stroke-width:0.8;" x="57.860369" xlink:href="#m36a06417f7" y="282.5"/>
      </g>
     </g>
     <g id="text_1">
      <!-- 0 -->
      <defs>
       <path d="M 31.78125 66.40625 
Q 24.171875 66.40625 20.328125 58.90625 
Q 16.5 51.421875 16.5 36.375 
Q 16.5 21.390625 20.328125 13.890625 
Q 24.171875 6.390625 31.78125 6.390625 
Q 39.453125 6.390625 43.28125 13.890625 
Q 47.125 21.390625 47.125 36.375 
Q 47.125 51.421875 43.28125 58.90625 
Q 39.453125 66.40625 31.78125 66.40625 
z
M 31.78125 74.21875 
Q 44.046875 74.21875 50.515625 64.515625 
Q 56.984375 54.828125 56.984375 36.375 
Q 56.984375 17.96875 50.515625 8.265625 
Q 44.046875 -1.421875 31.78125 -1.421875 
Q 19.53125 -1.421875 13.0625 8.265625 
Q 6.59375 17.96875 6.59375 36.375 
Q 6.59375 54.828125 13.0625 64.515625 
Q 19.53125 74.21875 31.78125 74.21875 
z
" id="DejaVuSans-30"/>
      </defs>
      <g transform="translate(54.679119 297.098437)scale(0.1 -0.1)">
       <use xlink:href="#DejaVuSans-30"/>
      </g>
     </g>
    </g>
    <g id="xtick_2">
     <g id="line2d_2">
      <g>
       <use style="stroke:#000000;stroke-width:0.8;" x="106.491311" xlink:href="#m36a06417f7" y="282.5"/>
      </g>
     </g>
     <g id="text_2">
      <!-- 1 -->
      <defs>
       <path d="M 12.40625 8.296875 
L 28.515625 8.296875 
L 28.515625 63.921875 
L 10.984375 60.40625 
L 10.984375 69.390625 
L 28.421875 72.90625 
L 38.28125 72.90625 
L 38.28125 8.296875 
L 54.390625 8.296875 
L 54.390625 0 
L 12.40625 0 
z
" id="DejaVuSans-31"/>
      </defs>
      <g transform="translate(103.310061 297.098437)scale(0.1 -0.1)">
       <use xlink:href="#DejaVuSans-31"/>
      </g>
     </g>
    </g>
    <g id="xtick_3">
     <g id="line2d_3">
      <g>
       <use style="stroke:#000000;stroke-width:0.8;" x="155.122253" xlink:href="#m36a06417f7" y="282.5"/>
      </g>
     </g>
     <g id="text_3">
      <!-- 2 -->
      <defs>
       <path d="M 19.1875 8.296875 
L 53.609375 8.296875 
L 53.609375 0 
L 7.328125 0 
L 7.328125 8.296875 
Q 12.9375 14.109375 22.625 23.890625 
Q 32.328125 33.6875 34.8125 36.53125 
Q 39.546875 41.84375 41.421875 45.53125 
Q 43.3125 49.21875 43.3125 52.78125 
Q 43.3125 58.59375 39.234375 62.25 
Q 35.15625 65.921875 28.609375 65.921875 
Q 23.96875 65.921875 18.8125 64.3125 
Q 13.671875 62.703125 7.8125 59.421875 
L 7.8125 69.390625 
Q 13.765625 71.78125 18.9375 73 
Q 24.125 74.21875 28.421875 74.21875 
Q 39.75 74.21875 46.484375 68.546875 
Q 53.21875 62.890625 53.21875 53.421875 
Q 53.21875 48.921875 51.53125 44.890625 
Q 49.859375 40.875 45.40625 35.40625 
Q 44.1875 33.984375 37.640625 27.21875 
Q 31.109375 20.453125 19.1875 8.296875 
z
" id="DejaVuSans-32"/>
      </defs>
      <g transform="translate(151.941003 297.098437)scale(0.1 -0.1)">
       <use xlink:href="#DejaVuSans-32"/>
      </g>
     </g>
    </g>
    <g id="xtick_4">
     <g id="line2d_4">
      <g>
       <use style="stroke:#000000;stroke-width:0.8;" x="203.753195" xlink:href="#m36a06417f7" y="282.5"/>
      </g>
     </g>
     <g id="text_4">
      <!-- 3 -->
      <defs>
       <path d="M 40.578125 39.3125 
Q 47.65625 37.796875 51.625 33 
Q 55.609375 28.21875 55.609375 21.1875 
Q 55.609375 10.40625 48.1875 4.484375 
Q 40.765625 -1.421875 27.09375 -1.421875 
Q 22.515625 -1.421875 17.65625 -0.515625 
Q 12.796875 0.390625 7.625 2.203125 
L 7.625 11.71875 
Q 11.71875 9.328125 16.59375 8.109375 
Q 21.484375 6.890625 26.8125 6.890625 
Q 36.078125 6.890625 40.9375 10.546875 
Q 45.796875 14.203125 45.796875 21.1875 
Q 45.796875 27.640625 41.28125 31.265625 
Q 36.765625 34.90625 28.71875 34.90625 
L 20.21875 34.90625 
L 20.21875 43.015625 
L 29.109375 43.015625 
Q 36.375 43.015625 40.234375 45.921875 
Q 44.09375 48.828125 44.09375 54.296875 
Q 44.09375 59.90625 40.109375 62.90625 
Q 36.140625 65.921875 28.71875 65.921875 
Q 24.65625 65.921875 20.015625 65.03125 
Q 15.375 64.15625 9.8125 62.3125 
L 9.8125 71.09375 
Q 15.4375 72.65625 20.34375 73.4375 
Q 25.25 74.21875 29.59375 74.21875 
Q 40.828125 74.21875 47.359375 69.109375 
Q 53.90625 64.015625 53.90625 55.328125 
Q 53.90625 49.265625 50.4375 45.09375 
Q 46.96875 40.921875 40.578125 39.3125 
z
" id="DejaVuSans-33"/>
      </defs>
      <g transform="translate(200.571945 297.098437)scale(0.1 -0.1)">
       <use xlink:href="#DejaVuSans-33"/>
      </g>
     </g>
    </g>
    <g id="xtick_5">
     <g id="line2d_5">
      <g>
       <use style="stroke:#000000;stroke-width:0.8;" x="252.384137" xlink:href="#m36a06417f7" y="282.5"/>
      </g>
     </g>
     <g id="text_5">
      <!-- 4 -->
      <defs>
       <path d="M 37.796875 64.3125 
L 12.890625 25.390625 
L 37.796875 25.390625 
z
M 35.203125 72.90625 
L 47.609375 72.90625 
L 47.609375 25.390625 
L 58.015625 25.390625 
L 58.015625 17.1875 
L 47.609375 17.1875 
L 47.609375 0 
L 37.796875 0 
L 37.796875 17.1875 
L 4.890625 17.1875 
L 4.890625 26.703125 
z
" id="DejaVuSans-34"/>
      </defs>
      <g transform="translate(249.202887 297.098437)scale(0.1 -0.1)">
       <use xlink:href="#DejaVuSans-34"/>
      </g>
     </g>
    </g>
    <g id="xtick_6">
     <g id="line2d_6">
      <g>
       <use style="stroke:#000000;stroke-width:0.8;" x="301.015079" xlink:href="#m36a06417f7" y="282.5"/>
      </g>
     </g>
     <g id="text_6">
      <!-- 5 -->
      <defs>
       <path d="M 10.796875 72.90625 
L 49.515625 72.90625 
L 49.515625 64.59375 
L 19.828125 64.59375 
L 19.828125 46.734375 
Q 21.96875 47.46875 24.109375 47.828125 
Q 26.265625 48.1875 28.421875 48.1875 
Q 40.625 48.1875 47.75 41.5 
Q 54.890625 34.8125 54.890625 23.390625 
Q 54.890625 11.625 47.5625 5.09375 
Q 40.234375 -1.421875 26.90625 -1.421875 
Q 22.3125 -1.421875 17.546875 -0.640625 
Q 12.796875 0.140625 7.71875 1.703125 
L 7.71875 11.625 
Q 12.109375 9.234375 16.796875 8.0625 
Q 21.484375 6.890625 26.703125 6.890625 
Q 35.15625 6.890625 40.078125 11.328125 
Q 45.015625 15.765625 45.015625 23.390625 
Q 45.015625 31 40.078125 35.4375 
Q 35.15625 39.890625 26.703125 39.890625 
Q 22.75 39.890625 18.8125 39.015625 
Q 14.890625 38.140625 10.796875 36.28125 
z
" id="DejaVuSans-35"/>
      </defs>
      <g transform="translate(297.833829 297.098437)scale(0.1 -0.1)">
       <use xlink:href="#DejaVuSans-35"/>
      </g>
     </g>
    </g>
    <g id="xtick_7">
     <g id="line2d_7">
      <g>
       <use style="stroke:#000000;stroke-width:0.8;" x="349.64602" xlink:href="#m36a06417f7" y="282.5"/>
      </g>
     </g>
     <g id="text_7">
      <!-- 6 -->
      <defs>
       <path d="M 33.015625 40.375 
Q 26.375 40.375 22.484375 35.828125 
Q 18.609375 31.296875 18.609375 23.390625 
Q 18.609375 15.53125 22.484375 10.953125 
Q 26.375 6.390625 33.015625 6.390625 
Q 39.65625 6.390625 43.53125 10.953125 
Q 47.40625 15.53125 47.40625 23.390625 
Q 47.40625 31.296875 43.53125 35.828125 
Q 39.65625 40.375 33.015625 40.375 
z
M 52.59375 71.296875 
L 52.59375 62.3125 
Q 48.875 64.0625 45.09375 64.984375 
Q 41.3125 65.921875 37.59375 65.921875 
Q 27.828125 65.921875 22.671875 59.328125 
Q 17.53125 52.734375 16.796875 39.40625 
Q 19.671875 43.65625 24.015625 45.921875 
Q 28.375 48.1875 33.59375 48.1875 
Q 44.578125 48.1875 50.953125 41.515625 
Q 57.328125 34.859375 57.328125 23.390625 
Q 57.328125 12.15625 50.6875 5.359375 
Q 44.046875 -1.421875 33.015625 -1.421875 
Q 20.359375 -1.421875 13.671875 8.265625 
Q 6.984375 17.96875 6.984375 36.375 
Q 6.984375 53.65625 15.1875 63.9375 
Q 23.390625 74.21875 37.203125 74.21875 
Q 40.921875 74.21875 44.703125 73.484375 
Q 48.484375 72.75 52.59375 71.296875 
z
" id="DejaVuSans-36"/>
      </defs>
      <g transform="translate(346.46477 297.098437)scale(0.1 -0.1)">
       <use xlink:href="#DejaVuSans-36"/>
      </g>
     </g>
    </g>
    <g id="text_8">
     <!-- $k$ -->
     <defs>
      <path d="M 18.3125 75.984375 
L 27.296875 75.984375 
L 18.703125 31.6875 
L 49.515625 54.6875 
L 61.1875 54.6875 
L 26.8125 28.515625 
L 51.90625 0 
L 41.015625 0 
L 17.671875 26.703125 
L 12.5 0 
L 3.515625 0 
z
" id="DejaVuSans-Oblique-6b"/>
     </defs>
     <g transform="translate(207.142187 310.776562)scale(0.1 -0.1)">
      <use transform="translate(0 0.015625)" xlink:href="#DejaVuSans-Oblique-6b"/>
     </g>
    </g>
   </g>
   <g id="matplotlib.axis_2">
    <g id="ytick_1">
     <g id="line2d_8">
      <defs>
       <path d="M 0 0 
L -3.5 0 
" id="mfe282465e5" style="stroke:#000000;stroke-width:0.8;"/>
      </defs>
      <g>
       <use style="stroke:#000000;stroke-width:0.8;" x="42.642188" xlink:href="#mfe282465e5" y="264.413859"/>
      </g>
     </g>
     <g id="text_9">
      <!-- −2 -->
      <defs>
       <path d="M 10.59375 35.5 
L 73.1875 35.5 
L 73.1875 27.203125 
L 10.59375 27.203125 
z
" id="DejaVuSans-2212"/>
      </defs>
      <g transform="translate(20.9 268.213078)scale(0.1 -0.1)">
       <use xlink:href="#DejaVuSans-2212"/>
       <use x="83.789062" xlink:href="#DejaVuSans-32"/>
      </g>
     </g>
    </g>
    <g id="ytick_2">
     <g id="line2d_9">
      <g>
       <use style="stroke:#000000;stroke-width:0.8;" x="42.642188" xlink:href="#mfe282465e5" y="227.700233"/>
      </g>
     </g>
     <g id="text_10">
      <!-- −1 -->
      <g transform="translate(20.9 231.499452)scale(0.1 -0.1)">
       <use xlink:href="#DejaVuSans-2212"/>
       <use x="83.789062" xlink:href="#DejaVuSans-31"/>
      </g>
     </g>
    </g>
    <g id="ytick_3">
     <g id="line2d_10">
      <g>
       <use style="stroke:#000000;stroke-width:0.8;" x="42.642188" xlink:href="#mfe282465e5" y="190.986607"/>
      </g>
     </g>
     <g id="text_11">
      <!-- 0 -->
      <g transform="translate(29.279688 194.785825)scale(0.1 -0.1)">
       <use xlink:href="#DejaVuSans-30"/>
      </g>
     </g>
    </g>
    <g id="ytick_4">
     <g id="line2d_11">
      <g>
       <use style="stroke:#000000;stroke-width:0.8;" x="42.642188" xlink:href="#mfe282465e5" y="154.27298"/>
      </g>
     </g>
     <g id="text_12">
      <!-- 1 -->
      <g transform="translate(29.279688 158.072199)scale(0.1 -0.1)">
       <use xlink:href="#DejaVuSans-31"/>
      </g>
     </g>
    </g>
    <g id="ytick_5">
     <g id="line2d_12">
      <g>
       <use style="stroke:#000000;stroke-width:0.8;" x="42.642188" xlink:href="#mfe282465e5" y="117.559354"/>
      </g>
     </g>
     <g id="text_13">
      <!-- 2 -->
      <g transform="translate(29.279688 121.358573)scale(0.1 -0.1)">
       <use xlink:href="#DejaVuSans-32"/>
      </g>
     </g>
    </g>
    <g id="ytick_6">
     <g id="line2d_13">
      <g>
       <use style="stroke:#000000;stroke-width:0.8;" x="42.642188" xlink:href="#mfe282465e5" y="80.845728"/>
      </g>
     </g>
     <g id="text_14">
      <!-- 3 -->
      <g transform="translate(29.279688 84.644947)scale(0.1 -0.1)">
       <use xlink:href="#DejaVuSans-33"/>
      </g>
     </g>
    </g>
    <g id="ytick_7">
     <g id="line2d_14">
      <g>
       <use style="stroke:#000000;stroke-width:0.8;" x="42.642188" xlink:href="#mfe282465e5" y="44.132102"/>
      </g>
     </g>
     <g id="text_15">
      <!-- 4 -->
      <g transform="translate(29.279688 47.931321)scale(0.1 -0.1)">
       <use xlink:href="#DejaVuSans-34"/>
      </g>
     </g>
    </g>
    <g id="text_16">
     <!-- $\chi(w=0, k)$ -->
     <defs>
      <path d="M 30.03125 -12.203125 
L 26.421875 6.5 
L 6.15625 -20.84375 
L -4.4375 -20.84375 
L 24.265625 17.828125 
L 19.828125 40.828125 
Q 18.65625 46.96875 11.140625 46.96875 
L 8.734375 46.96875 
L 10.203125 54.6875 
L 13.625 54.59375 
Q 26.171875 54.25 27.734375 46.09375 
L 31.34375 27.390625 
L 51.609375 54.734375 
L 62.203125 54.734375 
L 33.5 16.0625 
L 37.9375 -6.9375 
Q 39.109375 -13.09375 46.625 -13.09375 
L 49.03125 -13.09375 
L 47.5625 -20.796875 
L 44.140625 -20.703125 
Q 31.59375 -20.359375 30.03125 -12.203125 
z
" id="DejaVuSans-Oblique-3c7"/>
      <path d="M 31 75.875 
Q 24.46875 64.65625 21.28125 53.65625 
Q 18.109375 42.671875 18.109375 31.390625 
Q 18.109375 20.125 21.3125 9.0625 
Q 24.515625 -2 31 -13.1875 
L 23.1875 -13.1875 
Q 15.875 -1.703125 12.234375 9.375 
Q 8.59375 20.453125 8.59375 31.390625 
Q 8.59375 42.28125 12.203125 53.3125 
Q 15.828125 64.359375 23.1875 75.875 
z
" id="DejaVuSans-28"/>
      <path d="M 8.5 54.6875 
L 17.390625 54.6875 
L 19.671875 10.6875 
L 40.09375 54.6875 
L 50.484375 54.6875 
L 53.515625 10.6875 
L 72.90625 54.6875 
L 81.890625 54.6875 
L 56.890625 0 
L 46.390625 0 
L 43.703125 45.3125 
L 22.796875 0 
L 12.203125 0 
z
" id="DejaVuSans-Oblique-77"/>
      <path d="M 10.59375 45.40625 
L 73.1875 45.40625 
L 73.1875 37.203125 
L 10.59375 37.203125 
z
M 10.59375 25.484375 
L 73.1875 25.484375 
L 73.1875 17.1875 
L 10.59375 17.1875 
z
" id="DejaVuSans-3d"/>
      <path d="M 11.71875 12.40625 
L 22.015625 12.40625 
L 22.015625 4 
L 14.015625 -11.625 
L 7.71875 -11.625 
L 11.71875 4 
z
" id="DejaVuSans-2c"/>
      <path d="M 8.015625 75.875 
L 15.828125 75.875 
Q 23.140625 64.359375 26.78125 53.3125 
Q 30.421875 42.28125 30.421875 31.390625 
Q 30.421875 20.453125 26.78125 9.375 
Q 23.140625 -1.703125 15.828125 -13.1875 
L 8.015625 -13.1875 
Q 14.5 -2 17.703125 9.0625 
Q 20.90625 20.125 20.90625 31.390625 
Q 20.90625 42.671875 17.703125 53.65625 
Q 14.5 64.65625 8.015625 75.875 
z
" id="DejaVuSans-29"/>
     </defs>
     <g transform="translate(14.8 172.35)rotate(-90)scale(0.1 -0.1)">
      <use transform="translate(0 0.015625)" xlink:href="#DejaVuSans-Oblique-3c7"/>
      <use transform="translate(59.179688 0.015625)" xlink:href="#DejaVuSans-28"/>
      <use transform="translate(98.193359 0.015625)" xlink:href="#DejaVuSans-Oblique-77"/>
      <use transform="translate(199.462891 0.015625)" xlink:href="#DejaVuSans-3d"/>
      <use transform="translate(302.734375 0.015625)" xlink:href="#DejaVuSans-30"/>
      <use transform="translate(366.357422 0.015625)" xlink:href="#DejaVuSans-2c"/>
      <use transform="translate(417.626953 0.015625)" xlink:href="#DejaVuSans-Oblique-6b"/>
      <use transform="translate(475.537109 0.015625)" xlink:href="#DejaVuSans-29"/>
     </g>
    </g>
   </g>
   <g id="line2d_15">
    <path clip-path="url(#p48d676533b)" d="M 57.860369 184.478703 
L 76.957696 184.37365 
L 94.861439 184.066964 
L 110.378016 183.594576 
L 123.507428 182.985192 
L 134.249674 182.276733 
L 142.604754 181.532461 
L 149.766252 180.697152 
L 155.734166 179.800748 
L 160.508498 178.898957 
L 165.282829 177.76834 
L 168.863578 176.71611 
L 172.444327 175.426794 
L 174.831492 174.396504 
L 177.218658 173.192501 
L 179.605824 171.772364 
L 181.99299 170.080705 
L 184.380155 168.04478 
L 186.767321 165.568777 
L 189.154487 162.526918 
L 190.34807 160.744522 
L 191.541653 158.756439 
L 192.735236 156.535948 
L 193.928819 154.054186 
L 195.122401 151.281046 
L 196.315984 148.18688 
L 197.509567 144.745419 
L 199.896733 136.762507 
L 202.283899 127.426587 
L 205.864647 112.677061 
L 207.05823 108.458573 
L 208.251813 105.115647 
L 209.445396 102.95938 
L 210.638979 102.213393 
L 211.832562 102.95938 
L 213.026145 105.115647 
L 214.219728 108.458573 
L 215.41331 112.677061 
L 217.800476 122.434709 
L 220.187642 132.239084 
L 222.574808 140.938398 
L 224.961974 148.18688 
L 226.155556 151.281046 
L 227.349139 154.054186 
L 228.542722 156.535948 
L 230.929888 160.744522 
L 233.317054 164.127813 
L 235.70422 166.86886 
L 238.091385 169.111147 
L 240.478551 170.964554 
L 242.865717 172.512561 
L 245.252883 173.818607 
L 247.640048 174.931122 
L 251.220797 176.316116 
L 254.801546 177.440006 
L 259.575877 178.640715 
L 264.350209 179.59301 
L 270.318123 180.534721 
L 277.479621 181.407868 
L 285.834701 182.182482 
L 295.383364 182.847005 
L 307.319193 183.450722 
L 321.642187 183.944976 
L 338.352348 184.295714 
L 357.449674 184.468583 
L 362.224006 184.478299 
L 362.224006 184.478299 
" style="fill:none;stroke:#1f77b4;stroke-linecap:square;stroke-width:1.5;"/>
   </g>
   <g id="line2d_16">
    <path clip-path="url(#p48d676533b)" d="M 57.860369 192.886174 
L 84.119193 192.995671 
L 106.797268 193.308268 
L 123.507428 193.750882 
L 135.443257 194.261183 
L 144.99192 194.868967 
L 152.153417 195.51367 
L 158.121332 196.243307 
L 162.895663 197.013525 
L 167.669995 198.025567 
L 171.250744 199.00902 
L 174.831492 200.262344 
L 177.218658 201.297743 
L 179.605824 202.541332 
L 181.99299 204.049087 
L 184.380155 205.894777 
L 186.767321 208.175782 
L 189.154487 211.020111 
L 190.34807 212.703696 
L 191.541653 214.593519 
L 192.735236 216.716803 
L 193.928819 219.102964 
L 195.122401 221.782712 
L 196.315984 224.786337 
L 197.509567 228.140794 
L 198.70315 231.865055 
L 201.090316 240.414507 
L 207.05823 263.944136 
L 208.251813 267.262799 
L 209.445396 269.404383 
L 210.638979 270.145455 
L 211.832562 269.404383 
L 213.026145 267.262799 
L 214.219728 263.944136 
L 215.41331 259.759187 
L 218.994059 245.161352 
L 221.381225 235.963162 
L 223.768391 228.140794 
L 224.961974 224.786337 
L 226.155556 221.782712 
L 227.349139 219.102964 
L 228.542722 216.716803 
L 229.736305 214.593519 
L 232.123471 211.020111 
L 234.510637 208.175782 
L 236.897802 205.894777 
L 239.284968 204.049087 
L 241.672134 202.541332 
L 244.0593 201.297743 
L 246.446466 200.262344 
L 250.027214 199.00902 
L 253.607963 198.025567 
L 258.382294 197.013525 
L 263.156626 196.243307 
L 269.12454 195.51367 
L 276.286038 194.868967 
L 285.834701 194.261183 
L 297.77053 193.750882 
L 313.287107 193.332485 
L 333.578016 193.029249 
L 358.643257 192.889658 
L 362.224006 192.886392 
L 362.224006 192.886392 
" style="fill:none;stroke:#ff7f0e;stroke-linecap:square;stroke-width:1.5;"/>
   </g>
   <g id="line2d_17">
    <path clip-path="url(#p48d676533b)" d="M 57.860369 182.579136 
L 73.376947 182.472887 
L 88.893524 182.139173 
L 102.022936 181.642868 
L 113.958765 180.968516 
L 123.507428 180.220917 
L 131.862508 179.356738 
L 139.024006 178.40063 
L 144.99192 177.395532 
L 149.766252 176.408258 
L 154.540583 175.204611 
L 158.121332 174.117372 
L 161.702081 172.825671 
L 165.282829 171.271466 
L 167.669995 170.050999 
L 170.057161 168.647416 
L 172.444327 167.020947 
L 174.831492 165.120766 
L 177.218658 162.881365 
L 179.605824 160.217639 
L 181.99299 157.018225 
L 184.380155 153.13661 
L 185.573738 150.881797 
L 186.767321 148.379602 
L 187.960904 145.59629 
L 189.154487 142.493414 
L 190.34807 139.027433 
L 191.541653 135.149527 
L 192.735236 130.805752 
L 193.928819 125.937829 
L 195.122401 120.484941 
L 196.315984 114.38715 
L 197.509567 107.591231 
L 198.70315 100.05995 
L 201.090316 82.811184 
L 207.05823 35.501044 
L 208.251813 28.839454 
L 209.445396 24.541603 
L 210.638979 23.054545 
L 211.832562 24.541603 
L 213.026145 28.839454 
L 214.219728 35.501044 
L 215.41331 43.904481 
L 217.800476 63.326615 
L 220.187642 82.811184 
L 222.574808 100.05995 
L 223.768391 107.591231 
L 224.961974 114.38715 
L 226.155556 120.484941 
L 227.349139 125.937829 
L 228.542722 130.805752 
L 229.736305 135.149527 
L 230.929888 139.027433 
L 232.123471 142.493414 
L 233.317054 145.59629 
L 235.70422 150.881797 
L 238.091385 155.17352 
L 240.478551 158.693105 
L 242.865717 161.608795 
L 245.252883 164.048259 
L 247.640048 166.10877 
L 250.027214 167.864923 
L 252.41438 169.374359 
L 254.801546 170.68199 
L 258.382294 172.340197 
L 261.963043 173.712017 
L 265.543792 174.862026 
L 270.318123 176.130012 
L 275.092455 177.165949 
L 281.060369 178.216808 
L 288.221867 179.213066 
L 296.576947 180.111041 
L 306.12561 180.886541 
L 316.867856 181.527147 
L 329.997268 182.065018 
L 344.320262 182.417247 
L 359.83684 182.573537 
L 362.224006 182.578514 
L 362.224006 182.578514 
" style="fill:none;stroke:#2ca02c;stroke-linecap:square;stroke-width:1.5;"/>
   </g>
   <g id="line2d_18">
    <path clip-path="url(#p48d676533b)" d="M 57.860369 182.579136 
L 73.376947 182.472887 
L 88.893524 182.139173 
L 102.022936 181.642868 
L 113.958765 180.968516 
L 123.507428 180.220917 
L 131.862508 179.356738 
L 139.024006 178.40063 
L 144.99192 177.395532 
L 149.766252 176.408258 
L 154.540583 175.204611 
L 158.121332 174.117372 
L 161.702081 172.825671 
L 165.282829 171.271466 
L 167.669995 170.050999 
L 170.057161 168.647416 
L 172.444327 167.020947 
L 174.831492 165.120766 
L 177.218658 162.881365 
L 179.605824 160.217639 
L 181.99299 157.018225 
L 184.380155 153.13661 
L 185.573738 150.881797 
L 186.767321 148.379602 
L 187.960904 145.59629 
L 189.154487 142.493414 
L 190.34807 139.027433 
L 191.541653 135.149527 
L 192.735236 130.805752 
L 193.928819 125.937829 
L 195.122401 120.484941 
L 196.315984 114.38715 
L 197.509567 107.591231 
L 198.70315 100.05995 
L 201.090316 82.811184 
L 207.05823 35.501044 
L 208.251813 28.839454 
L 209.445396 24.541603 
L 210.638979 23.054545 
L 211.832562 24.541603 
L 213.026145 28.839454 
L 214.219728 35.501044 
L 215.41331 43.904481 
L 217.800476 63.326615 
L 220.187642 82.811184 
L 222.574808 100.05995 
L 223.768391 107.591231 
L 224.961974 114.38715 
L 226.155556 120.484941 
L 227.349139 125.937829 
L 228.542722 130.805752 
L 229.736305 135.149527 
L 230.929888 139.027433 
L 232.123471 142.493414 
L 233.317054 145.59629 
L 235.70422 150.881797 
L 238.091385 155.17352 
L 240.478551 158.693105 
L 242.865717 161.608795 
L 245.252883 164.048259 
L 247.640048 166.10877 
L 250.027214 167.864923 
L 252.41438 169.374359 
L 254.801546 170.68199 
L 258.382294 172.340197 
L 261.963043 173.712017 
L 265.543792 174.862026 
L 270.318123 176.130012 
L 275.092455 177.165949 
L 281.060369 178.216808 
L 288.221867 179.213066 
L 296.576947 180.111041 
L 306.12561 180.886541 
L 316.867856 181.527147 
L 329.997268 182.065018 
L 344.320262 182.417247 
L 359.83684 182.573537 
L 362.224006 182.578514 
L 362.224006 182.578514 
" style="fill:none;stroke:#d62728;stroke-linecap:square;stroke-width:1.5;"/>
   </g>
   <g id="line2d_19">
    <path clip-path="url(#p48d676533b)" d="M 57.860369 192.886174 
L 84.119193 192.995671 
L 106.797268 193.308268 
L 123.507428 193.750882 
L 135.443257 194.261183 
L 144.99192 194.868967 
L 152.153417 195.51367 
L 158.121332 196.243307 
L 162.895663 197.013525 
L 167.669995 198.025567 
L 171.250744 199.00902 
L 174.831492 200.262344 
L 177.218658 201.297743 
L 179.605824 202.541332 
L 181.99299 204.049087 
L 184.380155 205.894777 
L 186.767321 208.175782 
L 189.154487 211.020111 
L 190.34807 212.703696 
L 191.541653 214.593519 
L 192.735236 216.716803 
L 193.928819 219.102964 
L 195.122401 221.782712 
L 196.315984 224.786337 
L 197.509567 228.140794 
L 198.70315 231.865055 
L 201.090316 240.414507 
L 207.05823 263.944136 
L 208.251813 267.262799 
L 209.445396 269.404383 
L 210.638979 270.145455 
L 211.832562 269.404383 
L 213.026145 267.262799 
L 214.219728 263.944136 
L 215.41331 259.759187 
L 218.994059 245.161352 
L 221.381225 235.963162 
L 223.768391 228.140794 
L 224.961974 224.786337 
L 226.155556 221.782712 
L 227.349139 219.102964 
L 228.542722 216.716803 
L 229.736305 214.593519 
L 232.123471 211.020111 
L 234.510637 208.175782 
L 236.897802 205.894777 
L 239.284968 204.049087 
L 241.672134 202.541332 
L 244.0593 201.297743 
L 246.446466 200.262344 
L 250.027214 199.00902 
L 253.607963 198.025567 
L 258.382294 197.013525 
L 263.156626 196.243307 
L 269.12454 195.51367 
L 276.286038 194.868967 
L 285.834701 194.261183 
L 297.77053 193.750882 
L 313.287107 193.332485 
L 333.578016 193.029249 
L 358.643257 192.889658 
L 362.224006 192.886392 
L 362.224006 192.886392 
" style="fill:none;stroke:#9467bd;stroke-linecap:square;stroke-width:1.5;"/>
   </g>
   <g id="line2d_20">
    <path clip-path="url(#p48d676533b)" d="M 57.860369 184.478703 
L 76.957696 184.37365 
L 94.861439 184.066964 
L 110.378016 183.594576 
L 123.507428 182.985192 
L 134.249674 182.276733 
L 142.604754 181.532461 
L 149.766252 180.697152 
L 155.734166 179.800748 
L 160.508498 178.898957 
L 165.282829 177.76834 
L 168.863578 176.71611 
L 172.444327 175.426794 
L 174.831492 174.396504 
L 177.218658 173.192501 
L 179.605824 171.772364 
L 181.99299 170.080705 
L 184.380155 168.04478 
L 186.767321 165.568777 
L 189.154487 162.526918 
L 190.34807 160.744522 
L 191.541653 158.756439 
L 192.735236 156.535948 
L 193.928819 154.054186 
L 195.122401 151.281046 
L 196.315984 148.18688 
L 197.509567 144.745419 
L 199.896733 136.762507 
L 202.283899 127.426587 
L 205.864647 112.677061 
L 207.05823 108.458573 
L 208.251813 105.115647 
L 209.445396 102.95938 
L 210.638979 102.213393 
L 211.832562 102.95938 
L 213.026145 105.115647 
L 214.219728 108.458573 
L 215.41331 112.677061 
L 217.800476 122.434709 
L 220.187642 132.239084 
L 222.574808 140.938398 
L 224.961974 148.18688 
L 226.155556 151.281046 
L 227.349139 154.054186 
L 228.542722 156.535948 
L 230.929888 160.744522 
L 233.317054 164.127813 
L 235.70422 166.86886 
L 238.091385 169.111147 
L 240.478551 170.964554 
L 242.865717 172.512561 
L 245.252883 173.818607 
L 247.640048 174.931122 
L 251.220797 176.316116 
L 254.801546 177.440006 
L 259.575877 178.640715 
L 264.350209 179.59301 
L 270.318123 180.534721 
L 277.479621 181.407868 
L 285.834701 182.182482 
L 295.383364 182.847005 
L 307.319193 183.450722 
L 321.642187 183.944976 
L 338.352348 184.295714 
L 357.449674 184.468583 
L 362.224006 184.478299 
L 362.224006 184.478299 
" style="fill:none;stroke:#8c564b;stroke-linecap:square;stroke-width:1.5;"/>
   </g>
   <g id="patch_3">
    <path d="M 42.642188 282.5 
L 42.642188 10.7 
" style="fill:none;stroke:#000000;stroke-linecap:square;stroke-linejoin:miter;stroke-width:0.8;"/>
   </g>
   <g id="patch_4">
    <path d="M 377.442187 282.5 
L 377.442187 10.7 
" style="fill:none;stroke:#000000;stroke-linecap:square;stroke-linejoin:miter;stroke-width:0.8;"/>
   </g>
   <g id="patch_5">
    <path d="M 42.642188 282.5 
L 377.442187 282.5 
" style="fill:none;stroke:#000000;stroke-linecap:square;stroke-linejoin:miter;stroke-width:0.8;"/>
   </g>
   <g id="patch_6">
    <path d="M 42.642188 10.7 
L 377.442187 10.7 
" style="fill:none;stroke:#000000;stroke-linecap:square;stroke-linejoin:miter;stroke-width:0.8;"/>
   </g>
   <g id="legend_1">
    <g id="patch_7">
     <path d="M 286.120312 106.76875 
L 370.442187 106.76875 
Q 372.442187 106.76875 372.442187 104.76875 
L 372.442187 17.7 
Q 372.442187 15.7 370.442187 15.7 
L 286.120312 15.7 
Q 284.120312 15.7 284.120312 17.7 
L 284.120312 104.76875 
Q 284.120312 106.76875 286.120312 106.76875 
z
" style="fill:#ffffff;opacity:0.8;stroke:#cccccc;stroke-linejoin:miter;"/>
    </g>
    <g id="line2d_21">
     <path d="M 288.120312 23.798438 
L 308.120312 23.798438 
" style="fill:none;stroke:#1f77b4;stroke-linecap:square;stroke-width:1.5;"/>
    </g>
    <g id="line2d_22"/>
    <g id="text_17">
     <!-- (0, 0, 0, 0) -->
     <defs>
      <path id="DejaVuSans-20"/>
     </defs>
     <g transform="translate(316.120312 27.298438)scale(0.1 -0.1)">
      <use xlink:href="#DejaVuSans-28"/>
      <use x="39.013672" xlink:href="#DejaVuSans-30"/>
      <use x="102.636719" xlink:href="#DejaVuSans-2c"/>
      <use x="134.423828" xlink:href="#DejaVuSans-20"/>
      <use x="166.210938" xlink:href="#DejaVuSans-30"/>
      <use x="229.833984" xlink:href="#DejaVuSans-2c"/>
      <use x="261.621094" xlink:href="#DejaVuSans-20"/>
      <use x="293.408203" xlink:href="#DejaVuSans-30"/>
      <use x="357.03125" xlink:href="#DejaVuSans-2c"/>
      <use x="388.818359" xlink:href="#DejaVuSans-20"/>
      <use x="420.605469" xlink:href="#DejaVuSans-30"/>
      <use x="484.228516" xlink:href="#DejaVuSans-29"/>
     </g>
    </g>
    <g id="line2d_23">
     <path d="M 288.120312 38.476563 
L 308.120312 38.476563 
" style="fill:none;stroke:#ff7f0e;stroke-linecap:square;stroke-width:1.5;"/>
    </g>
    <g id="line2d_24"/>
    <g id="text_18">
     <!-- (0, 0, 1, 1) -->
     <g transform="translate(316.120312 41.976563)scale(0.1 -0.1)">
      <use xlink:href="#DejaVuSans-28"/>
      <use x="39.013672" xlink:href="#DejaVuSans-30"/>
      <use x="102.636719" xlink:href="#DejaVuSans-2c"/>
      <use x="134.423828" xlink:href="#DejaVuSans-20"/>
      <use x="166.210938" xlink:href="#DejaVuSans-30"/>
      <use x="229.833984" xlink:href="#DejaVuSans-2c"/>
      <use x="261.621094" xlink:href="#DejaVuSans-20"/>
      <use x="293.408203" xlink:href="#DejaVuSans-31"/>
      <use x="357.03125" xlink:href="#DejaVuSans-2c"/>
      <use x="388.818359" xlink:href="#DejaVuSans-20"/>
      <use x="420.605469" xlink:href="#DejaVuSans-31"/>
      <use x="484.228516" xlink:href="#DejaVuSans-29"/>
     </g>
    </g>
    <g id="line2d_25">
     <path d="M 288.120312 53.154688 
L 308.120312 53.154688 
" style="fill:none;stroke:#2ca02c;stroke-linecap:square;stroke-width:1.5;"/>
    </g>
    <g id="line2d_26"/>
    <g id="text_19">
     <!-- (0, 1, 1, 0) -->
     <g transform="translate(316.120312 56.654688)scale(0.1 -0.1)">
      <use xlink:href="#DejaVuSans-28"/>
      <use x="39.013672" xlink:href="#DejaVuSans-30"/>
      <use x="102.636719" xlink:href="#DejaVuSans-2c"/>
      <use x="134.423828" xlink:href="#DejaVuSans-20"/>
      <use x="166.210938" xlink:href="#DejaVuSans-31"/>
      <use x="229.833984" xlink:href="#DejaVuSans-2c"/>
      <use x="261.621094" xlink:href="#DejaVuSans-20"/>
      <use x="293.408203" xlink:href="#DejaVuSans-31"/>
      <use x="357.03125" xlink:href="#DejaVuSans-2c"/>
      <use x="388.818359" xlink:href="#DejaVuSans-20"/>
      <use x="420.605469" xlink:href="#DejaVuSans-30"/>
      <use x="484.228516" xlink:href="#DejaVuSans-29"/>
     </g>
    </g>
    <g id="line2d_27">
     <path d="M 288.120312 67.832813 
L 308.120312 67.832813 
" style="fill:none;stroke:#d62728;stroke-linecap:square;stroke-width:1.5;"/>
    </g>
    <g id="line2d_28"/>
    <g id="text_20">
     <!-- (1, 0, 0, 1) -->
     <g transform="translate(316.120312 71.332813)scale(0.1 -0.1)">
      <use xlink:href="#DejaVuSans-28"/>
      <use x="39.013672" xlink:href="#DejaVuSans-31"/>
      <use x="102.636719" xlink:href="#DejaVuSans-2c"/>
      <use x="134.423828" xlink:href="#DejaVuSans-20"/>
      <use x="166.210938" xlink:href="#DejaVuSans-30"/>
      <use x="229.833984" xlink:href="#DejaVuSans-2c"/>
      <use x="261.621094" xlink:href="#DejaVuSans-20"/>
      <use x="293.408203" xlink:href="#DejaVuSans-30"/>
      <use x="357.03125" xlink:href="#DejaVuSans-2c"/>
      <use x="388.818359" xlink:href="#DejaVuSans-20"/>
      <use x="420.605469" xlink:href="#DejaVuSans-31"/>
      <use x="484.228516" xlink:href="#DejaVuSans-29"/>
     </g>
    </g>
    <g id="line2d_29">
     <path d="M 288.120312 82.510938 
L 308.120312 82.510938 
" style="fill:none;stroke:#9467bd;stroke-linecap:square;stroke-width:1.5;"/>
    </g>
    <g id="line2d_30"/>
    <g id="text_21">
     <!-- (1, 1, 0, 0) -->
     <g transform="translate(316.120312 86.010938)scale(0.1 -0.1)">
      <use xlink:href="#DejaVuSans-28"/>
      <use x="39.013672" xlink:href="#DejaVuSans-31"/>
      <use x="102.636719" xlink:href="#DejaVuSans-2c"/>
      <use x="134.423828" xlink:href="#DejaVuSans-20"/>
      <use x="166.210938" xlink:href="#DejaVuSans-31"/>
      <use x="229.833984" xlink:href="#DejaVuSans-2c"/>
      <use x="261.621094" xlink:href="#DejaVuSans-20"/>
      <use x="293.408203" xlink:href="#DejaVuSans-30"/>
      <use x="357.03125" xlink:href="#DejaVuSans-2c"/>
      <use x="388.818359" xlink:href="#DejaVuSans-20"/>
      <use x="420.605469" xlink:href="#DejaVuSans-30"/>
      <use x="484.228516" xlink:href="#DejaVuSans-29"/>
     </g>
    </g>
    <g id="line2d_31">
     <path d="M 288.120312 97.189063 
L 308.120312 97.189063 
" style="fill:none;stroke:#8c564b;stroke-linecap:square;stroke-width:1.5;"/>
    </g>
    <g id="line2d_32"/>
    <g id="text_22">
     <!-- (1, 1, 1, 1) -->
     <g transform="translate(316.120312 100.689063)scale(0.1 -0.1)">
      <use xlink:href="#DejaVuSans-28"/>
      <use x="39.013672" xlink:href="#DejaVuSans-31"/>
      <use x="102.636719" xlink:href="#DejaVuSans-2c"/>
      <use x="134.423828" xlink:href="#DejaVuSans-20"/>
      <use x="166.210938" xlink:href="#DejaVuSans-31"/>
      <use x="229.833984" xlink:href="#DejaVuSans-2c"/>
      <use x="261.621094" xlink:href="#DejaVuSans-20"/>
      <use x="293.408203" xlink:href="#DejaVuSans-31"/>
      <use x="357.03125" xlink:href="#DejaVuSans-2c"/>
      <use x="388.818359" xlink:href="#DejaVuSans-20"/>
      <use x="420.605469" xlink:href="#DejaVuSans-31"/>
      <use x="484.228516" xlink:href="#DejaVuSans-29"/>
     </g>
    </g>
   </g>
  </g>
 </g>
 <defs>
  <clipPath id="p48d676533b">
   <rect height="271.8" width="334.8" x="42.642188" y="10.7"/>
  </clipPath>
 </defs>
</svg>
